<svg xmlns="http://www.w3.org/2000/svg" xmlns:xlink="http://www.w3.org/1999/xlink" width="444.16" height="312" viewBox="0 0 333.12 234"><clipPath id="a"><path transform="scale(.24)" d="M0 0h1387.5v967.954H0z" fill-rule="evenodd"/></clipPath><g clip-path="url(#a)"><path d="M144.923.72h2.158v.718h-2.158V.72zm4.316 0h2.157v.718h-2.157V.72zm4.315 0h2.158v.718h-2.158V.72zm4.315 0h2.158v.718h-2.158V.72zm4.316 0h2.157v.718h-2.157V.72zm4.315 0h2.158v.718H166.5V.72zm4.315 0h2.158v.718h-2.158V.72zm4.316 0h2.157v.718h-2.157V.72zm4.315 0h2.158v.718h-2.158V.72zm4.315 0h2.158v.718h-2.158V.72zm4.316 0h2.157v.718h-2.157V.72zm4.315 0h2.158v.718h-2.158V.72zm4.315 0h2.158v.718h-2.158V.72zm4.316 0h2.157v.718h-2.157V.72zm4.315 0h2.158v.718h-2.158V.72zm4.315 0h2.158v.718h-2.158V.72zm4.316 0h2.157v.718h-2.157V.72zm4.315 0h2.158v.718h-2.158V.72zm4.315 0h2.158v.718h-2.158V.72zm4.316 0h2.157v.718h-2.157V.72zm4.315 0h2.158v.718h-2.158V.72zm4.315 0h2.158v.718h-2.158V.72zm4.316 0h2.157v.718h-2.157V.72zm4.315 0h2.158v.718h-2.158V.72zm4.315 0h2.158v.718h-2.158V.72zm4.316 0h2.157v.718h-2.157V.72zm4.315 0h2.158v.718h-2.158V.72zm4.315 0h2.158v.718h-2.158V.72zm4.316 0h2.157v.718h-2.157V.72zm4.315 0h2.158v.718h-2.158V.72zm4.315 0h2.158v.718h-2.158V.72zm4.316 0h2.157v.718H278.7V.72zm4.315 0h2.158v.718h-2.158V.72zm4.315 0h2.158v.718h-2.158V.72zm4.316 0h2.157v.718h-2.157V.72zm4.315 0h2.158v.718h-2.158V.72zm4.315 0h2.158v.718h-2.158V.72zm4.316 0h2.157v.718h-2.157V.72zm4.315 0h1.438v.718h-1.438V.72z"/><path d="M145.283 1.079v2.158h-.72V1.079h.72zm0 4.315v2.158h-.72V5.394h.72zm0 4.316v2.157h-.72V9.71h.72zm0 4.315v2.158h-.72v-2.158h.72zm0 4.315v2.158h-.72V18.34h.72zm0 4.316v2.157h-.72v-2.157h.72zm0 4.315v2.158h-.72V26.97h.72zm0 4.315v2.158h-.72v-2.158h.72zm0 4.316v2.157h-.72v-2.157h.72zm0 4.315v2.158h-.72v-2.158h.72zm0 4.315v2.158h-.72v-2.158h.72zm0 4.316v2.157h-.72v-2.157h.72zm0 4.315v2.158h-.72v-2.158h.72zm0 4.315v2.158h-.72v-2.158h.72zm0 4.316v2.157h-.72v-2.157h.72zm0 4.315v2.158h-.72v-2.158h.72zm0 4.315v2.158h-.72v-2.158h.72zm1.079 2.517h2.157v.72h-2.157v-.72zm4.315 0h2.158v.72h-2.158v-.72zm4.315 0h2.158v.72h-2.158v-.72zm4.316 0h2.157v.72h-2.157v-.72zm4.315 0h2.158v.72h-2.158v-.72zm4.315 0h2.158v.72h-2.158v-.72zm4.316 0h2.157v.72h-2.157v-.72zm4.315 0h2.158v.72h-2.158v-.72zm4.315 0h2.158v.72h-2.158v-.72zm4.316 0h2.157v.72H185.2v-.72zm4.315 0h2.158v.72h-2.158v-.72zm4.315 0h2.158v.72h-2.158v-.72zm4.316 0h2.157v.72h-2.157v-.72zm4.315 0h2.158v.72h-2.158v-.72zm4.315 0h2.158v.72h-2.158v-.72zm4.316 0h2.157v.72h-2.157v-.72zm4.315 0h2.158v.72h-2.158v-.72zm4.315 0h2.158v.72h-2.158v-.72zm4.316 0h2.157v.72h-2.157v-.72zm4.315 0h2.158v.72h-2.158v-.72zm4.315 0h2.158v.72h-2.158v-.72zm4.316 0h2.157v.72h-2.157v-.72zm4.315 0h2.158v.72h-2.158v-.72zm4.315 0h2.158v.72h-2.158v-.72zm4.316 0h2.157v.72h-2.157v-.72zm4.315 0h2.158v.72h-2.158v-.72zm4.315 0h2.158v.72h-2.158v-.72zm4.316 0h2.157v.72h-2.157v-.72zm4.315 0h2.158v.72h-2.158v-.72zm4.315 0h2.158v.72h-2.158v-.72zm4.316 0h2.157v.72h-2.157v-.72zm4.315 0h2.158v.72h-2.158v-.72zm4.315 0h2.158v.72h-2.158v-.72zm4.316 0h2.157v.72h-2.157v-.72zm4.315 0h2.158v.72h-2.158v-.72zm4.315 0h2.158v.72h-2.158v-.72zm4.316 0h2.157v.72h-2.157v-.72zm4.315 0h2.158v.72h-2.158v-.72zm3.956.36v-2.158h.72v2.158h-.72zm0-4.315v-2.158h.72v2.158h-.72zm0-4.316v-2.157h.72v2.157h-.72zm0-4.315v-2.158h.72v2.158h-.72zm0-4.315v-2.158h.72v2.158h-.72zm0-4.316v-2.157h.72v2.157h-.72zm0-4.315v-2.158h.72v2.158h-.72zm0-4.315v-2.158h.72v2.158h-.72zm0-4.316v-2.157h.72v2.157h-.72zm0-4.315v-2.158h.72v2.158h-.72zm0-4.315V27.69h.72v2.158h-.72zm0-4.316v-2.157h.72v2.157h-.72zm0-4.315V19.06h.72v2.158h-.72zm0-4.315v-2.158h.72v2.158h-.72zm0-4.316V10.43h.72v2.157h-.72zm0-4.315V6.113h.72v2.158h-.72zm0-4.315V1.798h.72v2.158h-.72z"/><path d="M175.85 19.06h86.307v43.153H175.85z" fill="#fff"/><path fill="none" stroke="#000" d="M175.85 19.06h86.307v43.153H175.85z" stroke-width=".71922"/><symbol id="b"><path d="M.236 0v.631H0v.085h.567V.63H.331V0H.236z"/></symbol><symbol id="c"><path d="M.468.728h.095V.314a.49.49 0 0 0-.024-.17A.21.21 0 0 0 .45.04.312.312 0 0 0 .283 0 .344.344 0 0 0 .12.035a.198.198 0 0 0-.092.1.48.48 0 0 0-.027.18v.413h.095V.315A.41.41 0 0 1 .112.177.133.133 0 0 1 .172.11.208.208 0 0 1 .274.085c.07 0 .12.016.149.048.03.031.044.092.044.182v.413z"/></symbol><symbol id="d"><path d="M0 0v.716h.247a.598.598 0 0 0 .127-.01.242.242 0 0 0 .105-.052.29.29 0 0 0 .084-.122.474.474 0 0 0 .029-.17.5.5 0 0 0-.02-.145.354.354 0 0 0-.048-.104.263.263 0 0 0-.066-.065.266.266 0 0 0-.085-.036A.485.485 0 0 0 .258 0H0m.095.084h.153c.047 0 .084.005.11.014a.159.159 0 0 1 .065.037c.022.022.04.052.052.09a.44.44 0 0 1 .02.138.33.33 0 0 1-.038.173.184.184 0 0 1-.09.08.37.37 0 0 1-.122.015h-.15V.084z"/></symbol><symbol id="e"><path d="m0 0 .275.716h.102L.67 0H.562L.479.217h-.3L.101 0H0m.207.294h.242L.375.492c-.023.06-.04.11-.051.149A.913.913 0 0 0 .285.504L.207.294z"/></symbol><use xlink:href="#b" transform="matrix(8.63067 0 0 -8.63067 204.787 33.084)"/><use xlink:href="#c" transform="matrix(8.63067 0 0 -8.63067 210.537 33.19)"/><use xlink:href="#d" transform="matrix(8.63067 0 0 -8.63067 216.756 33.084)"/><use xlink:href="#e" transform="matrix(8.63067 0 0 -8.63067 222.308 33.084)"/><use xlink:href="#b" transform="matrix(8.63067 0 0 -8.63067 227.64 33.084)"/><symbol id="f"><path d="M0 0v.716h.095V.422h.372v.294h.095V0H.467v.337H.095V0H0z"/></symbol><symbol id="g"><path d="M0 .615v.1h.088v-.1H0M0 0v.519h.088V0H0z"/></symbol><symbol id="h"><path d="M.018.167.103.155C.107.128.117.109.133.097a.146.146 0 0 1 .09-.024c.04 0 .071.008.093.024a.12.12 0 0 1 .045.069.561.561 0 0 1 .007.112A.18.18 0 0 0 .224.21.196.196 0 0 0 .06.288.343.343 0 0 0 .027.61a.215.215 0 0 0 .077.097.211.211 0 0 0 .12.034.186.186 0 0 0 .152-.074v.062h.081V.281A.42.42 0 0 0 .432.109.178.178 0 0 0 .354.03.27.27 0 0 0 .223 0a.247.247 0 0 0-.15.042C.035.07.016.112.018.167M.09.48C.09.411.104.361.13.33A.129.129 0 0 1 .233.283.13.13 0 0 1 .334.33c.027.03.041.08.041.146C.375.54.361.587.333.62a.13.13 0 0 1-.202 0C.104.59.091.542.091.48z"/></symbol><symbol id="i"><path d="M0 0v.716h.088V.459A.196.196 0 0 0 .243.53a.208.208 0 0 0 .1-.023.13.13 0 0 0 .06-.062.286.286 0 0 0 .02-.116V0H.333v.329c0 .044-.01.075-.028.095-.02.02-.046.03-.08.03A.142.142 0 0 1 .15.435.113.113 0 0 1 .103.38.252.252 0 0 1 .088.284V0H0z"/></symbol><symbol id="j"><path d="M0 0v.088h.27V0H0z"/></symbol><symbol id="k"><path d="M.078 0v.45H0V.52h.078v.055c0 .035.003.06.009.077A.112.112 0 0 0 .13.707a.16.16 0 0 0 .09.021.43.43 0 0 0 .082-.009L.29.643a.295.295 0 0 1-.052.004C.212.647.193.642.182.63.17.62.165.598.165.566V.52h.101V.45H.165V0H.078z"/></symbol><symbol id="l"><path d="M.368.012v.065A.161.161 0 0 0 .223 0 .205.205 0 0 0 .11.034a.227.227 0 0 0-.08.095A.334.334 0 0 0 0 .271c0 .051.009.098.026.14a.204.204 0 0 0 .193.131.171.171 0 0 0 .143-.071v.257H.45V.012H.368M.09.27C.09.204.104.154.132.12a.127.127 0 0 1 .1-.049c.038 0 .07.016.097.047.027.032.04.08.04.144C.37.334.357.386.33.42a.126.126 0 0 1-.2.002C.103.39.09.34.09.271z"/></symbol><symbol id="m"><path d="M.384.179.475.167a.222.222 0 0 0-.08-.123A.24.24 0 0 0 .248 0a.238.238 0 0 0-.18.07A.275.275 0 0 0 0 .267C0 .354.022.422.067.47a.228.228 0 0 0 .175.072c.07 0 .126-.024.17-.07a.281.281 0 0 0 .066-.2.82.82 0 0 0 0-.023H.09A.2.2 0 0 1 .139.118.144.144 0 0 1 .248.072c.032 0 .06.009.082.026.023.017.04.044.054.08M.096.322h.29a.176.176 0 0 1-.034.098.135.135 0 0 1-.109.05.14.14 0 0 1-.102-.04.161.161 0 0 1-.045-.108z"/></symbol><symbol id="n"><path d="M0 0v.716h.088V0H0z"/></symbol><symbol id="o"><path d="M.24.085.253.008A.326.326 0 0 0 .187 0a.15.15 0 0 0-.075.015.085.085 0 0 0-.037.04.317.317 0 0 0-.01.104v.298H0v.068h.064v.129l.088.053V.525H.24V.457H.152V.154c0-.025.001-.041.004-.049A.038.038 0 0 1 .171.088a.06.06 0 0 1 .03-.006l.04.003z"/></symbol><symbol id="p"><path d="m.046.01-.01.083a.196.196 0 0 1 .05-.008c.02 0 .036.004.047.01a.08.08 0 0 1 .03.028.431.431 0 0 1 .034.086L0 .73h.095l.108-.3C.217.39.229.35.24.309c.01.04.022.08.036.118l.111.302h.088L.278.202a1.035 1.035 0 0 0-.05-.118.171.171 0 0 0-.053-.063A.126.126 0 0 0 .103 0a.176.176 0 0 0-.057.01z"/></symbol><use xlink:href="#f" transform="matrix(8.63067 0 0 -8.63067 196.792 43.153)"/><use xlink:href="#g" transform="matrix(8.63067 0 0 -8.63067 202.905 43.153)"/><use xlink:href="#h" transform="matrix(8.63067 0 0 -8.63067 204.526 44.97)"/><use xlink:href="#i" transform="matrix(8.63067 0 0 -8.63067 209.615 43.153)"/><use xlink:href="#j" transform="matrix(8.63067 0 0 -8.63067 214.12 41.3)"/><use xlink:href="#k" transform="matrix(8.63067 0 0 -8.63067 216.8 43.153)"/><use xlink:href="#g" transform="matrix(8.63067 0 0 -8.63067 219.692 43.153)"/><use xlink:href="#l" transform="matrix(8.63067 0 0 -8.63067 221.33 43.254)"/><use xlink:href="#m" transform="matrix(8.63067 0 0 -8.63067 226.15 43.254)"/><use xlink:href="#n" transform="matrix(8.63067 0 0 -8.63067 231.184 43.153)"/><use xlink:href="#g" transform="matrix(8.63067 0 0 -8.63067 233.12 43.153)"/><use xlink:href="#o" transform="matrix(8.63067 0 0 -8.63067 234.616 43.212)"/><use xlink:href="#p" transform="matrix(8.63067 0 0 -8.63067 237.002 44.97)"/><symbol id="q"><path d="M0 0v.519h.08V.445A.186.186 0 0 0 .243.53C.275.53.304.525.33.513A.134.134 0 0 0 .39.47.17.17 0 0 0 .416.404.503.503 0 0 0 .42.32V0H.333v.315a.235.235 0 0 1-.01.08.083.083 0 0 1-.036.043.113.113 0 0 1-.061.016.143.143 0 0 1-.098-.036C.101.395.088.35.088.283V0H0z"/></symbol><symbol id="r"><path d="M.342.012v.076A.19.19 0 0 0 .177 0C.147 0 .118.006.091.018a.144.144 0 0 0-.059.044.17.17 0 0 0-.027.065A.446.446 0 0 0 0 .209V.53h.088V.243C.088.197.09.166.093.15A.093.093 0 0 1 .128.095a.11.11 0 0 1 .067-.02c.026 0 .05.007.074.02.023.014.04.033.049.056.01.023.015.057.015.101V.53H.42V.012H.342z"/></symbol><symbol id="s"><path d="M0 0v.519h.079V.446A.183.183 0 0 0 .236.53.17.17 0 0 0 .33.506.128.128 0 0 0 .382.44C.423.5.477.53.542.53.594.53.633.516.662.487.688.46.701.415.701.356V0H.616v.327c0 .035-.003.06-.009.075a.072.072 0 0 1-.03.038.122.122 0 0 1-.144-.022C.408.392.396.354.396.3V0H.308v.337c0 .039-.007.068-.021.088-.015.02-.038.03-.07.03a.129.129 0 0 1-.07-.02.111.111 0 0 1-.045-.058A.322.322 0 0 1 .088.27V0H0z"/></symbol><symbol id="t"><path d="M0 0v.519h.08v-.08C.1.478.117.502.134.514A.099.099 0 0 0 .19.53c.03 0 .06-.01.09-.028L.252.42a.126.126 0 0 1-.064.02.083.083 0 0 1-.052-.018.093.093 0 0 1-.032-.048.342.342 0 0 1-.015-.103V0H0z"/></symbol><symbol id="u"><path d="M.365.202.452.19A.225.225 0 0 0 .379.05.21.21 0 0 0 .236 0a.224.224 0 0 0-.172.07C.021.115 0 .181 0 .268c0 .056.01.105.028.147A.193.193 0 0 0 .112.51c.038.021.08.032.124.032A.214.214 0 0 0 .375.499.195.195 0 0 0 .443.378L.358.365a.141.141 0 0 1-.044.078A.11.11 0 0 1 .24.47.136.136 0 0 1 .132.422C.104.39.09.34.09.272c0-.07.014-.12.04-.152A.13.13 0 0 1 .235.072c.034 0 .063.01.086.032a.158.158 0 0 1 .044.098z"/></symbol><symbol id="v"><path d="M.368.076A.27.27 0 0 0 .178 0C.12 0 .075.014.045.042A.139.139 0 0 0 0 .148a.142.142 0 0 0 .063.12c.018.013.04.023.063.03A.628.628 0 0 0 .204.31a.803.803 0 0 1 .157.03v.023C.361.4.353.424.336.439.314.46.281.47.236.47.195.47.164.462.145.447.125.433.11.407.1.371L.015.382a.21.21 0 0 0 .039.09c.018.022.043.04.077.051A.342.342 0 0 0 .25.542c.044 0 .08-.005.108-.016a.141.141 0 0 0 .061-.04.136.136 0 0 0 .027-.059.495.495 0 0 0 .005-.08V.228C.45.147.45.096.455.074A.2.2 0 0 1 .478.012H.386a.186.186 0 0 0-.018.064M.361.272A.645.645 0 0 0 .217.239.332.332 0 0 1 .141.22a.076.076 0 0 1-.047-.07C.094.127.103.108.12.092.138.077.164.07.198.07s.064.007.09.022a.138.138 0 0 1 .059.06c.01.02.014.05.014.089v.032z"/></symbol><symbol id="w"><path d="M0 0z"/></symbol><symbol id="x"><path d="M0 .167.087.18A.122.122 0 0 1 .127.1.143.143 0 0 1 .221.072c.04 0 .07.008.09.025.02.016.03.036.03.058C.34.175.33.19.313.202a.381.381 0 0 1-.09.03.854.854 0 0 0-.134.041.134.134 0 0 0-.056.05.133.133 0 0 0-.02.07c0 .023.006.044.016.064.011.02.026.036.044.049.013.01.032.018.055.025A.298.298 0 0 0 .312.524.145.145 0 0 0 .382.477a.184.184 0 0 0 .03-.08L.325.384a.094.094 0 0 1-.034.062.123.123 0 0 1-.08.023C.172.47.144.463.126.45.108.436.1.42.1.403.1.39.103.38.11.373A.078.078 0 0 1 .144.348C.153.345.179.338.222.326.284.31.327.296.352.286A.13.13 0 0 0 .41.238.148.148 0 0 0 .405.081.166.166 0 0 0 .33.021.272.272 0 0 0 .221 0a.245.245 0 0 0-.154.042A.196.196 0 0 0 0 .167z"/></symbol><symbol id="y"><path d="M0 .271c0 .096.027.167.08.213a.241.241 0 0 0 .163.058c.071 0 .13-.023.175-.07A.266.266 0 0 0 .486.278C.486.212.476.16.456.121A.211.211 0 0 0 .368.03.253.253 0 0 0 .243 0a.234.234 0 0 0-.176.07C.022.116 0 .183 0 .27m.09 0c0-.066.015-.116.044-.15a.14.14 0 0 1 .11-.049c.043 0 .08.017.108.05.029.033.044.084.044.152C.396.338.38.387.352.419a.138.138 0 0 1-.109.05.14.14 0 0 1-.11-.05C.106.388.09.338.09.272z"/></symbol><use xlink:href="#q" transform="matrix(8.63067 0 0 -8.63067 179.88 53.942)"/><use xlink:href="#r" transform="matrix(8.63067 0 0 -8.63067 184.662 54.043)"/><use xlink:href="#s" transform="matrix(8.63067 0 0 -8.63067 189.477 53.942)"/><use xlink:href="#m" transform="matrix(8.63067 0 0 -8.63067 196.414 54.043)"/><use xlink:href="#t" transform="matrix(8.63067 0 0 -8.63067 201.457 53.942)"/><use xlink:href="#g" transform="matrix(8.63067 0 0 -8.63067 204.344 53.942)"/><use xlink:href="#u" transform="matrix(8.63067 0 0 -8.63067 206.024 54.043)"/><use xlink:href="#v" transform="matrix(8.63067 0 0 -8.63067 210.314 54.043)"/><use xlink:href="#n" transform="matrix(8.63067 0 0 -8.63067 215.353 53.942)"/><use xlink:href="#w" transform="matrix(8.63067 0 0 -8.63067 216.716 53.942)"/><use xlink:href="#x" transform="matrix(8.63067 0 0 -8.63067 219.381 54.043)"/><use xlink:href="#g" transform="matrix(8.63067 0 0 -8.63067 224.004 53.942)"/><use xlink:href="#s" transform="matrix(8.63067 0 0 -8.63067 225.916 53.942)"/><use xlink:href="#r" transform="matrix(8.63067 0 0 -8.63067 233.089 54.043)"/><use xlink:href="#n" transform="matrix(8.63067 0 0 -8.63067 237.887 53.942)"/><use xlink:href="#v" transform="matrix(8.63067 0 0 -8.63067 239.563 54.043)"/><use xlink:href="#o" transform="matrix(8.63067 0 0 -8.63067 244.202 54)"/><use xlink:href="#g" transform="matrix(8.63067 0 0 -8.63067 247.022 53.942)"/><use xlink:href="#y" transform="matrix(8.63067 0 0 -8.63067 248.652 54.043)"/><use xlink:href="#q" transform="matrix(8.63067 0 0 -8.63067 253.733 53.942)"/><symbol id="z"><path d="M.538.263.633.24A.32.32 0 0 0 .525.061.295.295 0 0 0 .336 0a.343.343 0 0 0-.188.047.298.298 0 0 0-.11.137.49.49 0 0 0 .004.386c.03.056.07.098.122.127.053.029.11.043.174.043a.293.293 0 0 0 .18-.054.284.284 0 0 0 .103-.154L.527.51a.221.221 0 0 1-.072.114.193.193 0 0 1-.12.035.233.233 0 0 1-.137-.04A.21.21 0 0 1 .12.514.442.442 0 0 1 .124.216.2.2 0 0 1 .207.115.232.232 0 0 1 .329.08c.053 0 .098.015.134.046.037.03.062.076.075.136z"/></symbol><symbol id="A"><path d="M.195 0v.196H0v.082h.195v.195h.083V.278h.195V.196H.278V0H.195z"/></symbol><symbol id="B"><path d="M0 0v.717h.08V.65C.1.676.12.696.144.709c.024.013.053.02.086.02A.205.205 0 0 0 .348.695.21.21 0 0 0 .424.598.35.35 0 0 0 .45.462C.45.409.44.36.421.318A.215.215 0 0 0 .224.187a.167.167 0 0 0-.079.019.18.18 0 0 0-.057.046V0H0m.08.455C.08.388.093.34.12.307A.124.124 0 0 1 .218.26c.04 0 .073.017.1.05C.346.342.36.393.36.462.36.528.347.578.32.611a.122.122 0 0 1-.098.05C.185.66.152.642.122.606.095.573.08.522.08.455z"/></symbol><use xlink:href="#z" transform="matrix(8.63067 0 0 -8.63067 151.332 10.894)"/><use xlink:href="#A" transform="matrix(8.63067 0 0 -8.63067 157.614 9.79)"/><use xlink:href="#A" transform="matrix(8.63067 0 0 -8.63067 162.654 9.79)"/><use xlink:href="#w" transform="matrix(8.63067 0 0 -8.63067 167.214 10.788)"/><use xlink:href="#v" transform="matrix(8.63067 0 0 -8.63067 169.925 10.89)"/><use xlink:href="#B" transform="matrix(8.63067 0 0 -8.63067 174.98 12.504)"/><use xlink:href="#B" transform="matrix(8.63067 0 0 -8.63067 179.78 12.504)"/><use xlink:href="#n" transform="matrix(8.63067 0 0 -8.63067 184.561 10.788)"/><use xlink:href="#g" transform="matrix(8.63067 0 0 -8.63067 186.498 10.788)"/><use xlink:href="#u" transform="matrix(8.63067 0 0 -8.63067 188.178 10.89)"/><use xlink:href="#v" transform="matrix(8.63067 0 0 -8.63067 192.468 10.89)"/><use xlink:href="#o" transform="matrix(8.63067 0 0 -8.63067 197.107 10.847)"/><use xlink:href="#g" transform="matrix(8.63067 0 0 -8.63067 199.928 10.788)"/><use xlink:href="#y" transform="matrix(8.63067 0 0 -8.63067 201.557 10.89)"/><use xlink:href="#q" transform="matrix(8.63067 0 0 -8.63067 206.638 10.788)"/><path d="M1.079 108.603h2.158v.719H1.079v-.72zm4.315 0h2.158v.719H5.394v-.72zm4.316 0h2.157v.719H9.71v-.72zm4.315 0h2.158v.719h-2.158v-.72zm4.315 0h2.158v.719H18.34v-.72zm4.316 0h2.157v.719h-2.157v-.72zm4.315 0h2.158v.719H26.97v-.72zm4.315 0h2.158v.719h-2.158v-.72zm4.316 0h2.157v.719h-2.157v-.72zm4.315 0h2.158v.719h-2.158v-.72zm4.315 0h2.158v.719h-2.158v-.72zm4.316 0h2.157v.719h-2.157v-.72zm4.315 0h2.158v.719h-2.158v-.72zm4.315 0h2.158v.719h-2.158v-.72zm4.316 0h2.157v.719h-2.157v-.72zm4.315 0h2.158v.719h-2.158v-.72zm4.315 0h2.158v.719h-2.158v-.72zm4.316 0h2.157v.719H74.44v-.72zm4.315 0h2.158v.719h-2.158v-.72zm4.315 0h2.158v.719H83.07v-.72zm4.316 0h2.157v.719h-2.157v-.72zm4.315 0h2.158v.719H91.7v-.72zm4.315 0h2.158v.719h-2.158v-.72zm4.316 0h2.157v.719h-2.157v-.72zm4.315 0h2.158v.719h-2.158v-.72zm4.315 0h2.158v.719h-2.158v-.72zm4.316 0h2.157v.719h-2.157v-.72zm4.315 0h2.158v.719h-2.158v-.72zm4.315 0h2.158v.719h-2.158v-.72zm4.316 0h2.157v.719h-2.157v-.72zm4.315 0h2.158v.719h-2.158v-.72zm4.315 0h2.158v.719h-2.158v-.72zm4.316 0h2.157v.719h-2.157v-.72zm4.315 0h2.158v.719h-2.158v-.72zm4.315 0h2.158v.719H147.8v-.72zm4.316 0h2.157v.719h-2.157v-.72zm4.315 0h2.158v.719h-2.158v-.72zm4.315 0h2.158v.719h-2.158v-.72zm4.316 0h2.157v.719h-2.157v-.72zm4.315 0h2.158v.719h-2.158v-.72zm4.315 0h2.158v.719h-2.158v-.72zm4.316 0h2.157v.719h-2.157v-.72zm4.315 0h2.158v.719h-2.158v-.72zm4.315 0h2.158v.719h-2.158v-.72zm4.316 0h2.157v.719h-2.157v-.72zm4.315 0h2.158v.719h-2.158v-.72zm4.315 0h2.158v.719h-2.158v-.72zm4.316 0h2.157v.719H203.9v-.72zm4.315 0h2.158v.719h-2.158v-.72zm4.315 0h2.158v.719h-2.158v-.72zm4.316 0h2.157v.719h-2.157v-.72zm4.315 0h2.158v.719h-2.158v-.72zm4.315 0h2.158v.719h-2.158v-.72zm4.316 0h2.157v.719h-2.157v-.72zm4.315 0h2.158v.719h-2.158v-.72zm4.315 0h2.158v.719h-2.158v-.72zm4.316 0h2.157v.719h-2.157v-.72zm4.315 0h2.158v.719h-2.158v-.72zm4.315 0h2.158v.719h-2.158v-.72zm4.316 0h2.157v.719h-2.157v-.72zm4.315 0h2.158v.719h-2.158v-.72zm4.315 0h2.158v.719h-2.158v-.72zm4.316 0h2.157v.719h-2.157v-.72zm4.315 0h2.158v.719h-2.158v-.72zm4.315 0h2.158v.719h-2.158v-.72zm4.316 0h2.157v.719h-2.157v-.72zm4.315 0h2.158v.719h-2.158v-.72zm4.315 0h2.158v.719h-2.158v-.72zm4.316 0h2.157v.719h-2.157v-.72zm4.315 0h2.158v.719h-2.158v-.72zm4.315 0h2.158v.719h-2.158v-.72zm4.316 0h2.157v.719h-2.157v-.72z"/><path d="M1.438 108.962v2.158H.72v-2.158h.72zm0 4.316v2.157H.72v-2.157h.72zm0 4.315v2.158H.72v-2.158h.72zm0 4.315v2.158H.72v-2.158h.72zm0 4.316v2.157H.72v-2.157h.72zm0 4.315v2.158H.72v-2.158h.72zm0 4.315v2.158H.72v-2.158h.72zm0 4.316v2.157H.72v-2.157h.72zm0 4.315v2.158H.72v-2.158h.72zm0 4.315v2.158H.72V147.8h.72zm0 4.316v2.157H.72v-2.157h.72zm0 4.315v2.158H.72v-2.158h.72zm0 4.315v2.158H.72v-2.158h.72zm0 4.316v2.157H.72v-2.157h.72zm0 4.315v2.158H.72v-2.158h.72zm0 4.315v2.158H.72v-2.158h.72zm0 4.316v2.157H.72v-2.157h.72zm0 4.315v2.158H.72v-2.158h.72zm0 4.315v2.158H.72v-2.158h.72zm0 4.316v2.157H.72v-2.157h.72zm0 4.315v2.158H.72v-2.158h.72zm0 4.315v2.158H.72v-2.158h.72zm0 4.316v2.157H.72V203.9h.72zm0 4.315v2.158H.72v-2.158h.72zm0 4.315v2.158H.72v-2.158h.72zm0 4.316v2.157H.72v-2.157h.72zm0 4.315v2.158H.72v-2.158h.72zm0 4.315v2.158H.72v-2.158h.72zm0 4.316v1.438h-.36v-.36h.72v.72H.72v-1.798h.72zm2.518 1.078h2.157v.72H3.956v-.72zm4.315 0h2.158v.72H8.27v-.72zm4.315 0h2.158v.72h-2.158v-.72zm4.316 0h2.157v.72h-2.157v-.72zm4.315 0h2.158v.72h-2.158v-.72zm4.315 0h2.158v.72h-2.158v-.72zm4.316 0h2.157v.72h-2.157v-.72zm4.315 0h2.158v.72h-2.158v-.72zm4.315 0h2.158v.72h-2.158v-.72zm4.316 0h2.157v.72h-2.157v-.72zm4.315 0h2.158v.72h-2.158v-.72zm4.315 0h2.158v.72h-2.158v-.72zm4.316 0h2.157v.72H55.74v-.72zm4.315 0h2.158v.72h-2.158v-.72zm4.315 0h2.158v.72H64.37v-.72zm4.316 0h2.157v.72h-2.157v-.72zm4.315 0h2.158v.72H73v-.72zm4.315 0h2.158v.72h-2.158v-.72zm4.316 0h2.157v.72h-2.157v-.72zm4.315 0h2.158v.72h-2.158v-.72zm4.315 0h2.158v.72h-2.158v-.72zm4.316 0h2.157v.72h-2.157v-.72zm4.315 0h2.158v.72h-2.158v-.72zm4.315 0h2.158v.72h-2.158v-.72zm4.316 0h2.157v.72h-2.157v-.72zm4.315 0h2.158v.72h-2.158v-.72zm4.315 0h2.158v.72h-2.158v-.72zm4.316 0h2.157v.72h-2.157v-.72zm4.315 0h2.158v.72h-2.158v-.72zm4.315 0h2.158v.72H129.1v-.72zm4.316 0h2.157v.72h-2.157v-.72zm4.315 0h2.158v.72h-2.158v-.72zm4.315 0h2.158v.72h-2.158v-.72zm4.316 0h2.157v.72h-2.157v-.72zm4.315 0h2.158v.72h-2.158v-.72zm4.315 0h2.158v.72h-2.158v-.72zm4.316 0h2.157v.72h-2.157v-.72zm4.315 0h2.158v.72h-2.158v-.72zm4.315 0h2.158v.72h-2.158v-.72zm4.316 0h2.157v.72h-2.157v-.72zm4.315 0h2.158v.72h-2.158v-.72zm4.315 0h2.158v.72h-2.158v-.72zm4.316 0h2.157v.72H185.2v-.72zm4.315 0h2.158v.72h-2.158v-.72zm4.315 0h2.158v.72h-2.158v-.72zm4.316 0h2.157v.72h-2.157v-.72zm4.315 0h2.158v.72h-2.158v-.72zm4.315 0h2.158v.72h-2.158v-.72zm4.316 0h2.157v.72h-2.157v-.72zm4.315 0h2.158v.72h-2.158v-.72zm4.315 0h2.158v.72h-2.158v-.72zm4.316 0h2.157v.72h-2.157v-.72zm4.315 0h2.158v.72h-2.158v-.72zm4.315 0h2.158v.72h-2.158v-.72zm4.316 0h2.157v.72h-2.157v-.72zm4.315 0h2.158v.72h-2.158v-.72zm4.315 0h2.158v.72h-2.158v-.72zm4.316 0h2.157v.72h-2.157v-.72zm4.315 0h2.158v.72h-2.158v-.72zm4.315 0h2.158v.72h-2.158v-.72zm4.316 0h2.157v.72h-2.157v-.72zm4.315 0h2.158v.72h-2.158v-.72zm4.315 0h2.158v.72h-2.158v-.72zm4.316 0h2.157v.72h-2.157v-.72zm4.315 0h2.158v.72h-2.158v-.72zm4.315 0h2.158v.72h-2.158v-.72zm4.316 0h2.157v.72h-2.157v-.72zm4.315 0h2.158v.72h-2.158v-.72zm4.315 0h2.158v.72h-2.158v-.72zm4.316 0h2.157v.72h-2.157v-.72zm4.315 0h2.158v.72h-2.158v-.72zm3.956.36v-2.158h.72v2.158h-.72zm0-4.315v-2.158h.72v2.158h-.72zm0-4.316v-2.157h.72v2.157h-.72zm0-4.315v-2.158h.72v2.158h-.72zm0-4.315v-2.158h.72v2.158h-.72zm0-4.316v-2.157h.72v2.157h-.72zm0-4.315v-2.158h.72v2.158h-.72zm0-4.315v-2.158h.72v2.158h-.72zm0-4.316v-2.157h.72v2.157h-.72zm0-4.315v-2.158h.72v2.158h-.72zm0-4.315v-2.158h.72v2.158h-.72zm0-4.316v-2.157h.72v2.157h-.72zm0-4.315v-2.158h.72v2.158h-.72zm0-4.315v-2.158h.72v2.158h-.72zm0-4.316v-2.157h.72v2.157h-.72zm0-4.315v-2.158h.72v2.158h-.72zm0-4.315v-2.158h.72v2.158h-.72zm0-4.316v-2.157h.72v2.157h-.72zm0-4.315v-2.158h.72v2.158h-.72zm0-4.315v-2.158h.72v2.158h-.72zm0-4.316v-2.157h.72v2.157h-.72zm0-4.315v-2.158h.72v2.158h-.72zm0-4.315v-2.158h.72v2.158h-.72zm0-4.316v-2.157h.72v2.157h-.72zm0-4.315v-2.158h.72v2.158h-.72zm0-4.315v-2.158h.72v2.158h-.72zm0-4.316v-2.157h.72v2.157h-.72zm0-4.315v-2.158h.72v2.158h-.72zm0-4.315v-1.439h.72v1.439h-.72z"/><path stroke-miterlimit="10" fill="none" stroke="#000" d="M80.193 178.008v-4.769" stroke-width=".71922"/><path d="m80.193 169.463 2.518 5.035-2.518-1.259-2.517 1.259 2.517-5.035z"/><path stroke-miterlimit="10" fill="none" stroke="#000" d="m80.193 169.463 2.518 5.035-2.518-1.259-2.517 1.259 2.517-5.035z" stroke-width=".71922"/><path d="M22.656 178.008H137.73v43.153H22.656z" fill="#fff"/><path fill="none" stroke="#000" d="M22.656 178.008H137.73v43.153H22.656z" stroke-width=".71922"/><symbol id="C"><path d="M0 0v.716h.317a.418.418 0 0 0 .146-.02.158.158 0 0 0 .08-.068.203.203 0 0 0 .03-.107.18.18 0 0 0-.05-.129A.25.25 0 0 0 .37.326.246.246 0 0 0 .428.29.492.492 0 0 0 .506.195L.631 0H.51L.418.149C.389.192.367.225.349.248A.212.212 0 0 1 .3.295a.14.14 0 0 1-.043.02.285.285 0 0 1-.052.003h-.11V0H0m.095.4h.203A.31.31 0 0 1 .4.413a.11.11 0 0 1 .056.043c.012.02.019.041.019.065a.106.106 0 0 1-.037.083C.412.626.373.637.32.637H.095V.4z"/></symbol><symbol id="D"><path d="M0 0v.071l.33.38A1.928 1.928 0 0 0 .231.446H.02V.52h.423V.46L.163.131.108.071c.04.003.077.005.111.005h.24V0H0z"/></symbol><use xlink:href="#C" transform="matrix(8.63067 0 0 -8.63067 31.1 197.067)"/><use xlink:href="#m" transform="matrix(8.63067 0 0 -8.63067 36.968 197.168)"/><use xlink:href="#u" transform="matrix(8.63067 0 0 -8.63067 41.788 197.168)"/><use xlink:href="#m" transform="matrix(8.63067 0 0 -8.63067 46.082 197.168)"/><use xlink:href="#l" transform="matrix(8.63067 0 0 -8.63067 50.86 197.168)"/><use xlink:href="#g" transform="matrix(8.63067 0 0 -8.63067 55.937 197.067)"/><use xlink:href="#q" transform="matrix(8.63067 0 0 -8.63067 57.848 197.067)"/><use xlink:href="#h" transform="matrix(8.63067 0 0 -8.63067 62.356 198.883)"/><use xlink:href="#w" transform="matrix(8.63067 0 0 -8.63067 66.877 197.067)"/><use xlink:href="#f" transform="matrix(8.63067 0 0 -8.63067 69.967 197.067)"/><use xlink:href="#y" transform="matrix(8.63067 0 0 -8.63067 75.794 197.168)"/><use xlink:href="#t" transform="matrix(8.63067 0 0 -8.63067 80.867 197.067)"/><use xlink:href="#g" transform="matrix(8.63067 0 0 -8.63067 83.753 197.067)"/><use xlink:href="#D" transform="matrix(8.63067 0 0 -8.63067 85.265 197.067)"/><use xlink:href="#y" transform="matrix(8.63067 0 0 -8.63067 89.698 197.168)"/><use xlink:href="#q" transform="matrix(8.63067 0 0 -8.63067 94.779 197.067)"/><use xlink:href="#w" transform="matrix(8.63067 0 0 -8.63067 99.009 197.067)"/><use xlink:href="#z" transform="matrix(8.63067 0 0 -8.63067 101.838 197.172)"/><use xlink:href="#y" transform="matrix(8.63067 0 0 -8.63067 107.926 197.168)"/><use xlink:href="#q" transform="matrix(8.63067 0 0 -8.63067 113.007 197.067)"/><use xlink:href="#o" transform="matrix(8.63067 0 0 -8.63067 117.388 197.126)"/><use xlink:href="#t" transform="matrix(8.63067 0 0 -8.63067 120.197 197.067)"/><use xlink:href="#y" transform="matrix(8.63067 0 0 -8.63067 122.797 197.168)"/><use xlink:href="#n" transform="matrix(8.63067 0 0 -8.63067 127.86 197.067)"/><symbol id="E"><path d="M.359.293v.084h.303V.112A.54.54 0 0 0 .518.028a.43.43 0 0 0-.344.017.3.3 0 0 0-.13.13.444.444 0 0 0 0 .386c.029.061.07.106.125.135.055.03.118.044.19.044a.37.37 0 0 0 .14-.025.23.23 0 0 0 .098-.07.31.31 0 0 0 .054-.117L.566.504a.264.264 0 0 1-.04.086.162.162 0 0 1-.068.05.287.287 0 0 1-.21-.001.21.21 0 0 1-.123-.122.375.375 0 0 1-.027-.144c0-.064.01-.118.032-.16A.212.212 0 0 1 .227.116.297.297 0 0 1 .36.085.32.32 0 0 1 .48.11c.04.016.07.033.09.05v.134H.358z"/></symbol><use xlink:href="#E" transform="matrix(8.63067 0 0 -8.63067 45.512 207.96)"/><use xlink:href="#v" transform="matrix(8.63067 0 0 -8.63067 52.08 207.956)"/><use xlink:href="#g" transform="matrix(8.63067 0 0 -8.63067 57.139 207.855)"/><use xlink:href="#q" transform="matrix(8.63067 0 0 -8.63067 59.05 207.855)"/><use xlink:href="#w" transform="matrix(8.63067 0 0 -8.63067 63.28 207.855)"/><use xlink:href="#z" transform="matrix(8.63067 0 0 -8.63067 66.11 207.96)"/><use xlink:href="#y" transform="matrix(8.63067 0 0 -8.63067 72.198 207.956)"/><use xlink:href="#s" transform="matrix(8.63067 0 0 -8.63067 77.279 207.855)"/><use xlink:href="#B" transform="matrix(8.63067 0 0 -8.63067 84.468 209.57)"/><use xlink:href="#r" transform="matrix(8.63067 0 0 -8.63067 89.25 207.956)"/><use xlink:href="#o" transform="matrix(8.63067 0 0 -8.63067 93.648 207.914)"/><use xlink:href="#v" transform="matrix(8.63067 0 0 -8.63067 96.208 207.956)"/><use xlink:href="#o" transform="matrix(8.63067 0 0 -8.63067 100.846 207.914)"/><use xlink:href="#g" transform="matrix(8.63067 0 0 -8.63067 103.667 207.855)"/><use xlink:href="#y" transform="matrix(8.63067 0 0 -8.63067 105.296 207.956)"/><use xlink:href="#q" transform="matrix(8.63067 0 0 -8.63067 110.377 207.855)"/><symbol id="F"><path d="M0 0v.716h.143L.312.209.346.103l.038.115.172.498h.127V0H.592v.6L.384 0H.298L.091.61V0H0z"/></symbol><symbol id="G"><path d="M0 0v.716h.095V.084h.352V0H0z"/></symbol><symbol id="H"><path d="M0 0v.716h.269a.327.327 0 0 0 .13-.022.166.166 0 0 0 .079-.067.174.174 0 0 0 .028-.094C.506.503.498.473.48.446A.178.178 0 0 0 .406.381.173.173 0 0 0 .54.208a.209.209 0 0 0-.074-.16.222.222 0 0 0-.079-.036A.483.483 0 0 0 .273 0H0m.095.415H.25c.042 0 .072.003.09.008A.1.1 0 0 1 .394.46a.102.102 0 0 1 .019.062.114.114 0 0 1-.017.063.085.085 0 0 1-.05.037.398.398 0 0 1-.108.01H.095V.415m0-.33h.178a.41.41 0 0 1 .064.003c.022.004.04.01.055.02C.407.116.42.13.428.146c.01.018.014.038.014.06 0 .027-.006.05-.02.07a.106.106 0 0 1-.057.041.344.344 0 0 1-.105.013H.095V.084z"/></symbol><use xlink:href="#F" transform="matrix(8.63067 0 0 -8.63067 12.822 118.672)"/><use xlink:href="#e" transform="matrix(8.63067 0 0 -8.63067 19.359 118.672)"/><use xlink:href="#b" transform="matrix(8.63067 0 0 -8.63067 24.69 118.672)"/><use xlink:href="#G" transform="matrix(8.63067 0 0 -8.63067 30.393 118.672)"/><use xlink:href="#e" transform="matrix(8.63067 0 0 -8.63067 34.547 118.672)"/><use xlink:href="#H" transform="matrix(8.63067 0 0 -8.63067 40.948 118.672)"/><use xlink:href="#w" transform="matrix(8.63067 0 0 -8.63067 46.073 118.672)"/><use xlink:href="#x" transform="matrix(8.63067 0 0 -8.63067 48.737 118.773)"/><use xlink:href="#u" transform="matrix(8.63067 0 0 -8.63067 53.124 118.773)"/><use xlink:href="#t" transform="matrix(8.63067 0 0 -8.63067 57.663 118.672)"/><use xlink:href="#g" transform="matrix(8.63067 0 0 -8.63067 60.55 118.672)"/><use xlink:href="#B" transform="matrix(8.63067 0 0 -8.63067 62.462 120.387)"/><use xlink:href="#o" transform="matrix(8.63067 0 0 -8.63067 66.843 118.73)"/><path d="M22.656 125.504H137.73v43.154H22.656z" fill="#fff"/><path fill="none" stroke="#000" d="M22.656 125.504H137.73v43.154H22.656z" stroke-width=".71922"/><symbol id="I"><path d="M0 0v.716h.483V.63H.095V.41H.43V.325H.095V0H0z"/></symbol><symbol id="J"><path d="M.082.012H0v.716h.088V.472c.037.047.084.07.142.07a.214.214 0 0 0 .09-.02.18.18 0 0 0 .07-.054.256.256 0 0 0 .044-.084A.347.347 0 0 0 .45.28.296.296 0 0 0 .384.073.206.206 0 0 0 .226 0a.165.165 0 0 0-.144.077V.012M.08.275A.27.27 0 0 1 .106.14C.134.095.171.072.218.072c.039 0 .072.017.1.05.028.034.042.083.042.15 0 .067-.014.117-.04.15A.122.122 0 0 1 .221.47a.126.126 0 0 1-.1-.05C.096.385.082.337.082.274z"/></symbol><symbol id="K"><path d="M0 0v.716h.088V.308l.208.21H.41L.21.327.43 0H.32L.15.265.088.205V0H0z"/></symbol><symbol id="L"><path d="M.159 0 0 .519h.09l.083-.3.031-.111.027.107.082.304h.09L.482.218l.026-.1.03.1.089.3h.085L.55 0H.458L.375.31.355.4.25 0H.16z"/></symbol><use xlink:href="#I" transform="matrix(8.63067 0 0 -8.63067 52.47 149.598)"/><use xlink:href="#m" transform="matrix(8.63067 0 0 -8.63067 57.35 149.7)"/><use xlink:href="#m" transform="matrix(8.63067 0 0 -8.63067 62.15 149.7)"/><use xlink:href="#l" transform="matrix(8.63067 0 0 -8.63067 66.927 149.7)"/><use xlink:href="#J" transform="matrix(8.63067 0 0 -8.63067 71.996 149.7)"/><use xlink:href="#v" transform="matrix(8.63067 0 0 -8.63067 76.541 149.7)"/><use xlink:href="#u" transform="matrix(8.63067 0 0 -8.63067 81.365 149.7)"/><use xlink:href="#K" transform="matrix(8.63067 0 0 -8.63067 85.917 149.598)"/><use xlink:href="#w" transform="matrix(8.63067 0 0 -8.63067 89.659 149.598)"/><use xlink:href="#G" transform="matrix(8.63067 0 0 -8.63067 92.69 149.598)"/><use xlink:href="#v" transform="matrix(8.63067 0 0 -8.63067 97.169 149.7)"/><use xlink:href="#L" transform="matrix(8.63067 0 0 -8.63067 101.68 149.598)"/><path stroke-miterlimit="10" fill="none" stroke="#000" d="M188.077 147.081h-45.764" stroke-width=".71922"/><path d="m138.537 147.081 5.034-2.517-1.258 2.517 1.258 2.517-5.034-2.517z"/><path stroke-miterlimit="10" fill="none" stroke="#000" d="m138.537 147.081 5.034-2.517-1.258 2.517 1.258 2.517-5.034-2.517z" stroke-width=".71922"/><path d="M188.077 125.504h105.006v43.154H188.077z" fill="#fff"/><path fill="none" stroke="#000" d="M188.077 125.504h105.006v43.154H188.077z" stroke-width=".71922"/><symbol id="M"><path d="M0 .36c0 .12.032.213.096.28a.325.325 0 0 0 .247.1A.343.343 0 0 0 .52.694.307.307 0 0 0 .643.561.425.425 0 0 0 .685.369.422.422 0 0 0 .64.174a.302.302 0 0 0-.125-.13.357.357 0 0 0-.354.005.314.314 0 0 0-.121.133A.404.404 0 0 0 0 .361M.098.359C.098.273.12.205.167.155A.23.23 0 0 1 .342.081c.071 0 .13.025.176.075.046.05.069.122.069.214 0 .058-.01.109-.03.152a.232.232 0 0 1-.214.137A.243.243 0 0 1 .17.59C.122.545.098.468.098.36z"/></symbol><use xlink:href="#M" transform="matrix(8.63067 0 0 -8.63067 203.463 144.67)"/><use xlink:href="#x" transform="matrix(8.63067 0 0 -8.63067 210.026 144.665)"/><use xlink:href="#u" transform="matrix(8.63067 0 0 -8.63067 214.413 144.665)"/><use xlink:href="#r" transform="matrix(8.63067 0 0 -8.63067 218.943 144.665)"/><use xlink:href="#n" transform="matrix(8.63067 0 0 -8.63067 223.742 144.564)"/><use xlink:href="#v" transform="matrix(8.63067 0 0 -8.63067 225.417 144.665)"/><use xlink:href="#o" transform="matrix(8.63067 0 0 -8.63067 230.056 144.623)"/><use xlink:href="#g" transform="matrix(8.63067 0 0 -8.63067 232.877 144.564)"/><use xlink:href="#q" transform="matrix(8.63067 0 0 -8.63067 234.788 144.564)"/><use xlink:href="#h" transform="matrix(8.63067 0 0 -8.63067 239.296 146.38)"/><use xlink:href="#w" transform="matrix(8.63067 0 0 -8.63067 243.817 144.564)"/><use xlink:href="#o" transform="matrix(8.63067 0 0 -8.63067 246.368 144.623)"/><use xlink:href="#y" transform="matrix(8.63067 0 0 -8.63067 248.902 144.665)"/><use xlink:href="#w" transform="matrix(8.63067 0 0 -8.63067 253.414 144.564)"/><use xlink:href="#F" transform="matrix(8.63067 0 0 -8.63067 256.454 144.564)"/><use xlink:href="#m" transform="matrix(8.63067 0 0 -8.63067 263.319 144.665)"/><use xlink:href="#v" transform="matrix(8.63067 0 0 -8.63067 268.113 144.665)"/><use xlink:href="#q" transform="matrix(8.63067 0 0 -8.63067 273.169 144.564)"/><symbol id="N"><path d="M0 0v.716h.518V.63H.095V.412H.49V.328H.095V.084h.44V0H0z"/></symbol><symbol id="O"><path d="M.197 0 0 .519h.093L.204.208C.216.174.227.14.237.104.245.13.256.164.27.202L.385.52h.09L.28 0H.197z"/></symbol><use xlink:href="#N" transform="matrix(8.63067 0 0 -8.63067 198.694 155.352)"/><use xlink:href="#n" transform="matrix(8.63067 0 0 -8.63067 204.32 155.352)"/><use xlink:href="#m" transform="matrix(8.63067 0 0 -8.63067 206 155.453)"/><use xlink:href="#s" transform="matrix(8.63067 0 0 -8.63067 211.051 155.352)"/><use xlink:href="#m" transform="matrix(8.63067 0 0 -8.63067 217.988 155.453)"/><use xlink:href="#q" transform="matrix(8.63067 0 0 -8.63067 223.04 155.352)"/><use xlink:href="#o" transform="matrix(8.63067 0 0 -8.63067 227.42 155.411)"/><use xlink:href="#x" transform="matrix(8.63067 0 0 -8.63067 229.934 155.453)"/><use xlink:href="#w" transform="matrix(8.63067 0 0 -8.63067 233.984 155.352)"/><use xlink:href="#z" transform="matrix(8.63067 0 0 -8.63067 236.813 155.457)"/><use xlink:href="#y" transform="matrix(8.63067 0 0 -8.63067 242.9 155.453)"/><use xlink:href="#q" transform="matrix(8.63067 0 0 -8.63067 247.982 155.352)"/><use xlink:href="#O" transform="matrix(8.63067 0 0 -8.63067 252.321 155.352)"/><use xlink:href="#m" transform="matrix(8.63067 0 0 -8.63067 256.843 155.453)"/><use xlink:href="#t" transform="matrix(8.63067 0 0 -8.63067 261.886 155.352)"/><use xlink:href="#x" transform="matrix(8.63067 0 0 -8.63067 264.465 155.453)"/><use xlink:href="#g" transform="matrix(8.63067 0 0 -8.63067 269.088 155.352)"/><use xlink:href="#y" transform="matrix(8.63067 0 0 -8.63067 270.717 155.453)"/><use xlink:href="#q" transform="matrix(8.63067 0 0 -8.63067 275.798 155.352)"/><use xlink:href="#w" transform="matrix(8.63067 0 0 -8.63067 280.028 155.352)"/><path d="M1.079 79.834h2.158v.719H1.079v-.72zm4.315 0h2.158v.719H5.394v-.72zm4.316 0h2.157v.719H9.71v-.72zm4.315 0h2.158v.719h-2.158v-.72zm4.315 0h2.158v.719H18.34v-.72zm4.316 0h2.157v.719h-2.157v-.72zm4.315 0h2.158v.719H26.97v-.72zm4.315 0h2.158v.719h-2.158v-.72zm4.316 0h2.157v.719h-2.157v-.72zm4.315 0h2.158v.719h-2.158v-.72zm4.315 0h2.158v.719h-2.158v-.72zm4.316 0h2.157v.719h-2.157v-.72zm4.315 0h2.158v.719h-2.158v-.72zm4.315 0h2.158v.719h-2.158v-.72zm4.316 0h2.157v.719h-2.157v-.72zm4.315 0h2.158v.719h-2.158v-.72zm4.315 0h2.158v.719h-2.158v-.72zm4.316 0h2.157v.719H74.44v-.72zm4.315 0h2.158v.719h-2.158v-.72zm4.315 0h2.158v.719H83.07v-.72zm4.316 0h2.157v.719h-2.157v-.72zm4.315 0h2.158v.719H91.7v-.72zm4.315 0h2.158v.719h-2.158v-.72zm4.316 0h2.157v.719h-2.157v-.72zm4.315 0h2.158v.719h-2.158v-.72zm4.315 0h2.158v.719h-2.158v-.72zm4.316 0h2.157v.719h-2.157v-.72zm4.315 0h2.158v.719h-2.158v-.72zm4.315 0h2.158v.719h-2.158v-.72zm4.316 0h2.157v.719h-2.157v-.72zm4.315 0h2.158v.719h-2.158v-.72zm4.315 0h2.158v.719h-2.158v-.72zm4.316 0h2.157v.719h-2.157v-.72zm4.315 0h2.158v.719h-2.158v-.72zm4.315 0h2.158v.719H147.8v-.72zm4.316 0h2.157v.719h-2.157v-.72zm4.315 0h2.158v.719h-2.158v-.72zm4.315 0h2.158v.719h-2.158v-.72zm4.316 0h2.157v.719h-2.157v-.72zm4.315 0h2.158v.719h-2.158v-.72zm4.315 0h2.158v.719h-2.158v-.72zm4.316 0h2.157v.719h-2.157v-.72zm4.315 0h2.158v.719h-2.158v-.72zm4.315 0h2.158v.719h-2.158v-.72zm4.316 0h2.157v.719h-2.157v-.72zm4.315 0h2.158v.719h-2.158v-.72zm4.315 0h2.158v.719h-2.158v-.72zm4.316 0h2.157v.719H203.9v-.72zm4.315 0h2.158v.719h-2.158v-.72zm4.315 0h2.158v.719h-2.158v-.72zm4.316 0h2.157v.719h-2.157v-.72zm4.315 0h2.158v.719h-2.158v-.72zm4.315 0h2.158v.719h-2.158v-.72zm4.316 0h2.157v.719h-2.157v-.72zm4.315 0h2.158v.719h-2.158v-.72zm4.315 0h2.158v.719h-2.158v-.72zm4.316 0h2.157v.719h-2.157v-.72zm4.315 0h2.158v.719h-2.158v-.72zm4.315 0h2.158v.719h-2.158v-.72zm4.316 0h2.157v.719h-2.157v-.72zm4.315 0h2.158v.719h-2.158v-.72zm4.315 0h2.158v.719h-2.158v-.72zm4.316 0h2.157v.719h-2.157v-.72zm4.315 0h2.158v.719h-2.158v-.72zm4.315 0h2.158v.719h-2.158v-.72zm4.316 0h2.157v.719h-2.157v-.72zm4.315 0h2.158v.719h-2.158v-.72zm4.315 0h2.158v.719h-2.158v-.72zm4.316 0h2.157v.719h-2.157v-.72zm4.315 0h2.158v.719h-2.158v-.72zm4.315 0h2.158v.719h-2.158v-.72zm4.316 0h2.157v.719h-2.157v-.72z"/><path d="M1.438 80.193v2.158H.72v-2.158h.72zm0 4.316v2.157H.72V84.51h.72zm0 4.315v2.158H.72v-2.158h.72zm0 4.315v2.158H.72v-2.158h.72zm0 4.316v2.157H.72v-2.157h.72zm-.36 3.955h2.159v.72H1.079v-.72zm4.316 0h2.158v.72H5.394v-.72zm4.316 0h2.157v.72H9.71v-.72zm4.315 0h2.158v.72h-2.158v-.72zm4.315 0h2.158v.72H18.34v-.72zm4.316 0h2.157v.72h-2.157v-.72zm4.315 0h2.158v.72H26.97v-.72zm4.315 0h2.158v.72h-2.158v-.72zm4.316 0h2.157v.72h-2.157v-.72zm4.315 0h2.158v.72h-2.158v-.72zm4.315 0h2.158v.72h-2.158v-.72zm4.316 0h2.157v.72h-2.157v-.72zm4.315 0h2.158v.72h-2.158v-.72zm4.315 0h2.158v.72h-2.158v-.72zm4.316 0h2.157v.72h-2.157v-.72zm4.315 0h2.158v.72h-2.158v-.72zm4.315 0h2.158v.72h-2.158v-.72zm4.316 0h2.157v.72H74.44v-.72zm4.315 0h2.158v.72h-2.158v-.72zm4.315 0h2.158v.72H83.07v-.72zm4.316 0h2.157v.72h-2.157v-.72zm4.315 0h2.158v.72H91.7v-.72zm4.315 0h2.158v.72h-2.158v-.72zm4.316 0h2.157v.72h-2.157v-.72zm4.315 0h2.158v.72h-2.158v-.72zm4.315 0h2.158v.72h-2.158v-.72zm4.316 0h2.157v.72h-2.157v-.72zm4.315 0h2.158v.72h-2.158v-.72zm4.315 0h2.158v.72h-2.158v-.72zm4.316 0h2.157v.72h-2.157v-.72zm4.315 0h2.158v.72h-2.158v-.72zm4.315 0h2.158v.72h-2.158v-.72zm4.316 0h2.157v.72h-2.157v-.72zm4.315 0h2.158v.72h-2.158v-.72zm4.315 0h2.158v.72H147.8v-.72zm4.316 0h2.157v.72h-2.157v-.72zm4.315 0h2.158v.72h-2.158v-.72zm4.315 0h2.158v.72h-2.158v-.72zm4.316 0h2.157v.72h-2.157v-.72zm4.315 0h2.158v.72h-2.158v-.72zm4.315 0h2.158v.72h-2.158v-.72zm4.316 0h2.157v.72h-2.157v-.72zm4.315 0h2.158v.72h-2.158v-.72zm4.315 0h2.158v.72h-2.158v-.72zm4.316 0h2.157v.72h-2.157v-.72zm4.315 0h2.158v.72h-2.158v-.72zm4.315 0h2.158v.72h-2.158v-.72zm4.316 0h2.157v.72H203.9v-.72zm4.315 0h2.158v.72h-2.158v-.72zm4.315 0h2.158v.72h-2.158v-.72zm4.316 0h2.157v.72h-2.157v-.72zm4.315 0h2.158v.72h-2.158v-.72zm4.315 0h2.158v.72h-2.158v-.72zm4.316 0h2.157v.72h-2.157v-.72zm4.315 0h2.158v.72h-2.158v-.72zm4.315 0h2.158v.72h-2.158v-.72zm4.316 0h2.157v.72h-2.157v-.72zm4.315 0h2.158v.72h-2.158v-.72zm4.315 0h2.158v.72h-2.158v-.72zm4.316 0h2.157v.72h-2.157v-.72zm4.315 0h2.158v.72h-2.158v-.72zm4.315 0h2.158v.72h-2.158v-.72zm4.316 0h2.157v.72h-2.157v-.72zm4.315 0h2.158v.72h-2.158v-.72zm4.315 0h2.158v.72h-2.158v-.72zm4.316 0h2.157v.72h-2.157v-.72zm4.315 0h2.158v.72h-2.158v-.72zm4.315 0h2.158v.72h-2.158v-.72zm4.316 0h2.157v.72h-2.157v-.72zm4.315 0h2.158v.72h-2.158v-.72zm4.315 0h2.158v.72h-2.158v-.72zm4.316 0h2.157v.72h-2.157v-.72zm2.517-1.078v-2.158h.72v2.158h-.72zm0-4.316V93.86h.72v2.157h-.72zm0-4.315v-2.158h.72v2.158h-.72zm0-4.315v-2.158h.72v2.158h-.72zm0-4.316v-2.157h.72v2.157h-.72z"/><symbol id="P"><path d="M0 0v.716h.27A.652.652 0 0 0 .379.709.214.214 0 0 0 .467.675.172.172 0 0 0 .524.606.217.217 0 0 0 .546.51.22.22 0 0 0 .488.354C.45.312.38.291.278.291H.095V0H0m.095.375H.28C.34.375.384.387.41.41A.122.122 0 0 1 .45.506C.449.536.44.56.426.583a.105.105 0 0 1-.06.042.405.405 0 0 1-.088.006H.095V.375z"/></symbol><use xlink:href="#c" transform="matrix(8.63067 0 0 -8.63067 13.726 90.008)"/><use xlink:href="#d" transform="matrix(8.63067 0 0 -8.63067 19.944 89.903)"/><use xlink:href="#P" transform="matrix(8.63067 0 0 -8.63067 26.176 89.903)"/><use xlink:href="#w" transform="matrix(8.63067 0 0 -8.63067 31.266 89.903)"/><use xlink:href="#u" transform="matrix(8.63067 0 0 -8.63067 34.003 90.004)"/><use xlink:href="#y" transform="matrix(8.63067 0 0 -8.63067 38.268 90.004)"/><use xlink:href="#q" transform="matrix(8.63067 0 0 -8.63067 43.349 89.903)"/><use xlink:href="#q" transform="matrix(8.63067 0 0 -8.63067 48.147 89.903)"/><use xlink:href="#m" transform="matrix(8.63067 0 0 -8.63067 52.693 90.004)"/><use xlink:href="#u" transform="matrix(8.63067 0 0 -8.63067 57.513 90.004)"/><use xlink:href="#o" transform="matrix(8.63067 0 0 -8.63067 61.643 89.962)"/><use xlink:href="#g" transform="matrix(8.63067 0 0 -8.63067 64.464 89.903)"/><use xlink:href="#y" transform="matrix(8.63067 0 0 -8.63067 66.093 90.004)"/><use xlink:href="#q" transform="matrix(8.63067 0 0 -8.63067 71.174 89.903)"/><path d="m252.061 89.264.929-.04.939-.04h.061v.412a.387.387 0 0 0 .082-.04 1.96 1.96 0 0 1 .224-.101c.102-.04.214-.084.337-.13.122-.048.272-.081.449-.101.177-.02.36-.034.551-.04.667 0 1.204.207 1.612.623.408.415.613.968.613 1.658 0 .637-.208 1.18-.623 1.629-.415.448-1.02.673-1.816.673h-.072a2.31 2.31 0 0 1-1.204-.342l-.092-.06v1.668h.704v.624h-.091c-.123-.02-.545-.03-1.266-.03-.728 0-1.153.01-1.275.03h-.092v-.624h.704v-4.181c0-.308-.004-.523-.01-.643-.007-.12-.02-.195-.041-.221a.187.187 0 0 0-.102-.06 1.644 1.644 0 0 0-.419-.04h-.132v-.624h.03zm4.337 2.191c0-.53-.102-.948-.306-1.256-.204-.308-.466-.463-.786-.463-.462 0-.853.144-1.173.433l-.082.07v2.422l.062.07c.278.35.632.523 1.06.523.314 0 .596-.137.848-.412.251-.275.377-.737.377-1.387z"/><path fill="none" d="m252.061 89.264.929-.04.939-.04h.061v.412a.387.387 0 0 0 .082-.04 1.96 1.96 0 0 1 .224-.101c.102-.04.214-.084.337-.13.122-.048.272-.081.449-.101.177-.02.36-.034.551-.04.667 0 1.204.207 1.612.623.408.415.613.968.613 1.658 0 .637-.208 1.18-.623 1.629-.415.448-1.02.673-1.816.673h-.072a2.31 2.31 0 0 1-1.204-.342l-.092-.06v1.668h.704v.624h-.091c-.123-.02-.545-.03-1.266-.03-.728 0-1.153.01-1.275.03h-.092v-.624h.704v-4.181c0-.308-.004-.523-.01-.643-.007-.12-.02-.195-.041-.221a.187.187 0 0 0-.102-.06 1.644 1.644 0 0 0-.419-.04h-.132v-.624h.03zm4.337 2.191c0-.53-.102-.948-.306-1.256-.204-.308-.466-.463-.786-.463-.462 0-.853.144-1.173.433l-.082.07v2.422l.062.07c.278.35.632.523 1.06.523.314 0 .596-.137.848-.412.251-.275.377-.737.377-1.387z"/><path d="M259.92 90.95c0-.113.046-.213.137-.298a.48.48 0 0 1 .317-.135c.087 0 .16.029.217.085a.313.313 0 0 1 .094.214.403.403 0 0 1-.145.298.486.486 0 0 1-.317.142.328.328 0 0 1-.202-.07c-.063-.048-.096-.126-.101-.235zm-1.176 2.225c0-.038.021-.111.065-.22.043-.11.1-.23.173-.363.072-.133.178-.253.317-.362a.66.66 0 0 1 .433-.157c.188 0 .344.055.47.164.124.109.19.256.194.44 0 .08-.034.214-.101.398-.067.185-.164.434-.289.747-.125.312-.226.58-.303.803-.024.104-.036.18-.036.227 0 .118.041.178.123.178a.484.484 0 0 0 .137-.022.495.495 0 0 0 .166-.1.965.965 0 0 0 .195-.248c.067-.114.127-.253.18-.42a.29.29 0 0 1 .036-.099c.01-.01.05-.014.123-.014.096 0 .144.024.144.071a.768.768 0 0 1-.065.22 2.78 2.78 0 0 1-.18.363 1.193 1.193 0 0 1-.325.355.734.734 0 0 1-.447.156.685.685 0 0 1-.426-.149c-.13-.1-.197-.25-.202-.455 0-.08.012-.156.036-.227.024-.071.128-.341.31-.81.183-.479.29-.765.318-.86.029-.095.046-.187.05-.277 0-.114-.04-.17-.122-.17h-.015c-.144 0-.276.078-.396.234-.12.156-.212.355-.275.597a.083.083 0 0 0-.014.021.054.054 0 0 0-.007.021c0 .005-.005.01-.015.015a.056.056 0 0 1-.021.007h-.187c-.03-.029-.044-.05-.044-.064z"/><path fill="none" d="M259.92 90.95c0-.113.046-.213.137-.298a.48.48 0 0 1 .317-.135c.087 0 .16.029.217.085a.313.313 0 0 1 .094.214.403.403 0 0 1-.145.298.486.486 0 0 1-.317.142.328.328 0 0 1-.202-.07c-.063-.048-.096-.126-.101-.235zm-1.176 2.225c0-.038.021-.111.065-.22.043-.11.1-.23.173-.363.072-.133.178-.253.317-.362a.66.66 0 0 1 .433-.157c.188 0 .344.055.47.164.124.109.19.256.194.44 0 .08-.034.214-.101.398-.067.185-.164.434-.289.747-.125.312-.226.58-.303.803-.024.104-.036.18-.036.227 0 .118.041.178.123.178a.484.484 0 0 0 .137-.022.495.495 0 0 0 .166-.1.965.965 0 0 0 .195-.248c.067-.114.127-.253.18-.42a.29.29 0 0 1 .036-.099c.01-.01.05-.014.123-.014.096 0 .144.024.144.071a.768.768 0 0 1-.065.22 2.78 2.78 0 0 1-.18.363 1.193 1.193 0 0 1-.325.355.734.734 0 0 1-.447.156.685.685 0 0 1-.426-.149c-.13-.1-.197-.25-.202-.455 0-.08.012-.156.036-.227.024-.071.128-.341.31-.81.183-.479.29-.765.318-.86.029-.095.046-.187.05-.277 0-.114-.04-.17-.122-.17h-.015c-.144 0-.276.078-.396.234-.12.156-.212.355-.275.597a.083.083 0 0 0-.014.021.054.054 0 0 0-.007.021c0 .005-.005.01-.015.015a.056.056 0 0 1-.021.007h-.187c-.03-.029-.044-.05-.044-.064z"/><path d="M262.388 93.355v-.251c0-.168.055-.312.164-.433a.562.562 0 0 1 .438-.18c.191 0 .361.083.51.25.15.168.229.463.235.885 0 .235-.03.463-.091.684a3.095 3.095 0 0 1-.215.573c-.081.16-.17.298-.265.412a3.924 3.924 0 0 1-.245.271c-.068.067-.112.097-.133.09-.027 0-.071-.03-.132-.09-.062-.06-.092-.104-.092-.13 0-.027.037-.081.112-.161.075-.08.16-.181.255-.302a1.92 1.92 0 0 0 .266-.502 2.85 2.85 0 0 0 .163-.734v-.12l-.01.01a.4.4 0 0 1-.051.02.26.26 0 0 0-.062.03.17.17 0 0 1-.091.02.755.755 0 0 0-.123.01.613.613 0 0 1-.449-.171l-.184-.181z"/><path fill="none" d="M262.388 93.355v-.251c0-.168.055-.312.164-.433a.562.562 0 0 1 .438-.18c.191 0 .361.083.51.25.15.168.229.463.235.885 0 .235-.03.463-.091.684a3.095 3.095 0 0 1-.215.573c-.081.16-.17.298-.265.412a3.924 3.924 0 0 1-.245.271c-.068.067-.112.097-.133.09-.027 0-.071-.03-.132-.09-.062-.06-.092-.104-.092-.13 0-.027.037-.081.112-.161.075-.08.16-.181.255-.302a1.92 1.92 0 0 0 .266-.502 2.85 2.85 0 0 0 .163-.734v-.12l-.01.01a.4.4 0 0 1-.051.02.26.26 0 0 0-.062.03.17.17 0 0 1-.091.02.755.755 0 0 0-.123.01.613.613 0 0 1-.449-.171l-.184-.181z"/><path d="M270.221 89.244c.082.02.402.03.96.03.496 0 .765-.01.806-.03h.061v.623h-.714l-1.031 2.272c-.415.924-.653 1.427-.714 1.507a.243.243 0 0 1-.194.1h-.072a.527.527 0 0 1-.102-.01h-.153c-.102 0-.183-.05-.245-.15a13.43 13.43 0 0 1-.438-.905 28.223 28.223 0 0 1-.245-.542l-1.031-2.272h-.714v-.623h.081c.102.02.48.03 1.133.03.728 0 1.153-.01 1.276-.03h.091v.623h-.49l.541 1.186c.347.77.531 1.156.552 1.156 0-.007.173-.392.52-1.156.347-.764.527-1.156.54-1.176 0-.007-.08-.01-.244-.01h-.245v-.623h.071z"/><path fill="none" d="M270.221 89.244c.082.02.402.03.96.03.496 0 .765-.01.806-.03h.061v.623h-.714l-1.031 2.272c-.415.924-.653 1.427-.714 1.507a.243.243 0 0 1-.194.1h-.072a.527.527 0 0 1-.102-.01h-.153c-.102 0-.183-.05-.245-.15a13.43 13.43 0 0 1-.438-.905 28.223 28.223 0 0 1-.245-.542l-1.031-2.272h-.714v-.623h.081c.102.02.48.03 1.133.03.728 0 1.153-.01 1.276-.03h.091v.623h-.49l.541 1.186c.347.77.531 1.156.552 1.156 0-.007.173-.392.52-1.156.347-.764.527-1.156.54-1.176 0-.007-.08-.01-.244-.01h-.245v-.623h.071z"/><path d="M273.988 90.95c0-.113.046-.213.137-.298a.48.48 0 0 1 .317-.135c.087 0 .16.029.217.085a.313.313 0 0 1 .094.214.403.403 0 0 1-.145.298.486.486 0 0 1-.317.142.328.328 0 0 1-.202-.07c-.063-.048-.096-.126-.101-.235zm-1.176 2.225c0-.038.022-.111.065-.22.043-.11.1-.23.173-.363.072-.133.178-.253.317-.362a.66.66 0 0 1 .433-.157c.188 0 .344.055.47.164.124.109.19.256.194.44 0 .08-.034.214-.101.398-.067.185-.164.434-.289.747-.125.312-.226.58-.303.803-.024.104-.036.18-.036.227 0 .118.041.178.123.178a.484.484 0 0 0 .137-.022.495.495 0 0 0 .166-.1.965.965 0 0 0 .195-.248c.067-.114.127-.253.18-.42a.29.29 0 0 1 .036-.099c.01-.01.05-.014.123-.014.096 0 .144.024.144.071a.768.768 0 0 1-.065.22 2.78 2.78 0 0 1-.18.363 1.193 1.193 0 0 1-.325.355.734.734 0 0 1-.447.156.685.685 0 0 1-.426-.149c-.13-.1-.197-.25-.202-.455 0-.08.012-.156.036-.227.024-.071.128-.341.31-.81.183-.479.29-.765.318-.86.029-.095.046-.187.05-.277 0-.114-.04-.17-.122-.17h-.015c-.144 0-.276.078-.396.234-.12.156-.212.355-.275.597a.083.083 0 0 0-.014.021.054.054 0 0 0-.007.021c0 .005-.005.01-.015.015a.056.056 0 0 1-.021.007h-.187c-.03-.029-.044-.05-.044-.064z"/><path fill="none" d="M273.988 90.95c0-.113.046-.213.137-.298a.48.48 0 0 1 .317-.135c.087 0 .16.029.217.085a.313.313 0 0 1 .094.214.403.403 0 0 1-.145.298.486.486 0 0 1-.317.142.328.328 0 0 1-.202-.07c-.063-.048-.096-.126-.101-.235zm-1.176 2.225c0-.038.022-.111.065-.22.043-.11.1-.23.173-.363.072-.133.178-.253.317-.362a.66.66 0 0 1 .433-.157c.188 0 .344.055.47.164.124.109.19.256.194.44 0 .08-.034.214-.101.398-.067.185-.164.434-.289.747-.125.312-.226.58-.303.803-.024.104-.036.18-.036.227 0 .118.041.178.123.178a.484.484 0 0 0 .137-.022.495.495 0 0 0 .166-.1.965.965 0 0 0 .195-.248c.067-.114.127-.253.18-.42a.29.29 0 0 1 .036-.099c.01-.01.05-.014.123-.014.096 0 .144.024.144.071a.768.768 0 0 1-.065.22 2.78 2.78 0 0 1-.18.363 1.193 1.193 0 0 1-.325.355.734.734 0 0 1-.447.156.685.685 0 0 1-.426-.149c-.13-.1-.197-.25-.202-.455 0-.08.012-.156.036-.227.024-.071.128-.341.31-.81.183-.479.29-.765.318-.86.029-.095.046-.187.05-.277 0-.114-.04-.17-.122-.17h-.015c-.144 0-.276.078-.396.234-.12.156-.212.355-.275.597a.083.083 0 0 0-.014.021.054.054 0 0 0-.007.021c0 .005-.005.01-.015.015a.056.056 0 0 1-.021.007h-.187c-.03-.029-.044-.05-.044-.064z"/><path d="M276.456 93.355v-.251c0-.168.055-.312.164-.433a.562.562 0 0 1 .438-.18c.191 0 .361.083.51.25.15.168.229.463.235.885 0 .235-.03.463-.091.684a3.095 3.095 0 0 1-.215.573c-.081.16-.17.298-.265.412a3.924 3.924 0 0 1-.245.271c-.068.067-.112.097-.133.09-.027 0-.071-.03-.132-.09-.062-.06-.092-.104-.092-.13 0-.027.037-.081.112-.161.075-.08.16-.181.255-.302a1.92 1.92 0 0 0 .266-.502 2.85 2.85 0 0 0 .163-.734v-.12l-.01.01a.4.4 0 0 1-.051.02.26.26 0 0 0-.062.03.17.17 0 0 1-.091.02.755.755 0 0 0-.123.01.613.613 0 0 1-.449-.171l-.184-.181z"/><path fill="none" d="M276.456 93.355v-.251c0-.168.055-.312.164-.433a.562.562 0 0 1 .438-.18c.191 0 .361.083.51.25.15.168.229.463.235.885 0 .235-.03.463-.091.684a3.095 3.095 0 0 1-.215.573c-.081.16-.17.298-.265.412a3.924 3.924 0 0 1-.245.271c-.068.067-.112.097-.133.09-.027 0-.071-.03-.132-.09-.062-.06-.092-.104-.092-.13 0-.027.037-.081.112-.161.075-.08.16-.181.255-.302a1.92 1.92 0 0 0 .266-.502 2.85 2.85 0 0 0 .163-.734v-.12l-.01.01a.4.4 0 0 1-.051.02.26.26 0 0 0-.062.03.17.17 0 0 1-.091.02.755.755 0 0 0-.123.01.613.613 0 0 1-.449-.171l-.184-.181z"/><path d="M280.993 93.355v-.251c0-.168.055-.312.164-.433a.562.562 0 0 1 .438-.18c.19 0 .361.083.51.25.15.168.229.463.235.885 0 .235-.03.463-.091.684a3.095 3.095 0 0 1-.215.573c-.081.16-.17.298-.265.412a3.924 3.924 0 0 1-.245.271c-.068.067-.112.097-.133.09-.027 0-.071-.03-.132-.09-.062-.06-.092-.104-.092-.13 0-.027.037-.081.112-.161.075-.08.16-.181.255-.302a1.92 1.92 0 0 0 .266-.502 2.85 2.85 0 0 0 .163-.734v-.12l-.01.01a.4.4 0 0 1-.051.02.26.26 0 0 0-.062.03.17.17 0 0 1-.091.02.755.755 0 0 0-.123.01.613.613 0 0 1-.449-.171l-.184-.181z"/><path fill="none" d="M280.993 93.355v-.251c0-.168.055-.312.164-.433a.562.562 0 0 1 .438-.18c.19 0 .361.083.51.25.15.168.229.463.235.885 0 .235-.03.463-.091.684a3.095 3.095 0 0 1-.215.573c-.081.16-.17.298-.265.412a3.924 3.924 0 0 1-.245.271c-.068.067-.112.097-.133.09-.027 0-.071-.03-.132-.09-.062-.06-.092-.104-.092-.13 0-.027.037-.081.112-.161.075-.08.16-.181.255-.302a1.92 1.92 0 0 0 .266-.502 2.85 2.85 0 0 0 .163-.734v-.12l-.01.01a.4.4 0 0 1-.051.02.26.26 0 0 0-.062.03.17.17 0 0 1-.091.02.755.755 0 0 0-.123.01.613.613 0 0 1-.449-.171l-.184-.181z"/><path d="M284.95 90.822c.006-.04.017-.094.03-.16.014-.068.055-.195.123-.383.068-.187.136-.345.204-.472.068-.128.177-.252.326-.372.15-.12.3-.178.45-.171.149.007.295.03.438.07.143.04.245.1.306.181.062.08.116.154.164.221.047.067.074.131.081.191l.02.07c0 .014.004.02.01.02l.113-.11c.408-.429.888-.643 1.439-.643.116 0 .221.007.316.02a1.1 1.1 0 0 1 .613.292c.054.046.088.09.102.13.013.04.04.084.081.13.041.048.055.088.041.122-.014.033-.003.063.03.09.035.027.041.05.021.07l.082-.1c.428-.503.935-.754 1.52-.754.368 0 .663.09.888.271.224.181.34.446.347.794 0 .342-.13.872-.388 1.589s-.388 1.145-.388 1.286c.007.094.024.158.051.191.028.034.079.05.153.05.19 0 .368-.1.531-.301.163-.201.296-.476.398-.824.02-.074.04-.118.061-.131.02-.013.075-.02.164-.02.136 0 .204.027.204.08 0 .007-.014.057-.041.151-.055.194-.13.385-.225.573a1.91 1.91 0 0 1-.47.563c-.217.187-.451.278-.703.271-.32 0-.551-.09-.694-.271a.898.898 0 0 1-.214-.563c0-.127.122-.53.367-1.206.245-.677.37-1.186.378-1.528 0-.395-.15-.593-.45-.593h-.05c-.586 0-1.079.338-1.48 1.015l-.072.12-.336 1.348c-.225.877-.354 1.35-.388 1.417a.454.454 0 0 1-.439.271.317.317 0 0 1-.214-.07.564.564 0 0 1-.112-.12.192.192 0 0 1-.031-.101c0-.074.116-.553.347-1.438l.367-1.467c.02-.1.03-.228.03-.382 0-.395-.149-.593-.448-.593h-.051c-.585 0-1.078.338-1.48 1.015l-.071.12-.337 1.348c-.224.877-.354 1.35-.388 1.417a.454.454 0 0 1-.439.271.352.352 0 0 1-.214-.06.364.364 0 0 1-.112-.12c-.02-.04-.027-.074-.02-.101 0-.087.129-.637.387-1.649.266-1.032.398-1.571.398-1.618.02-.1.03-.19.03-.271 0-.241-.084-.362-.254-.362-.15 0-.276.094-.378.281-.102.188-.18.392-.235.613-.054.222-.095.342-.122.362-.014.014-.068.02-.163.02h-.143c-.04-.04-.061-.07-.061-.09z"/><path fill="none" d="M284.95 90.822c.006-.04.017-.094.03-.16.014-.068.055-.195.123-.383.068-.187.136-.345.204-.472.068-.128.177-.252.326-.372.15-.12.3-.178.45-.171.149.007.295.03.438.07.143.04.245.1.306.181.062.08.116.154.164.221.047.067.074.131.081.191l.02.07c0 .014.004.02.01.02l.113-.11c.408-.429.888-.643 1.439-.643.116 0 .221.007.316.02a1.1 1.1 0 0 1 .613.292c.054.046.088.09.102.13.013.04.04.084.081.13.041.048.055.088.041.122-.014.033-.003.063.03.09.035.027.041.05.021.07l.082-.1c.428-.503.935-.754 1.52-.754.368 0 .663.09.888.271.224.181.34.446.347.794 0 .342-.13.872-.388 1.589s-.388 1.145-.388 1.286c.007.094.024.158.051.191.028.034.079.05.153.05.19 0 .368-.1.531-.301.163-.201.296-.476.398-.824.02-.074.04-.118.061-.131.02-.013.075-.02.164-.02.136 0 .204.027.204.08 0 .007-.014.057-.041.151-.055.194-.13.385-.225.573a1.91 1.91 0 0 1-.47.563c-.217.187-.451.278-.703.271-.32 0-.551-.09-.694-.271a.898.898 0 0 1-.214-.563c0-.127.122-.53.367-1.206.245-.677.37-1.186.378-1.528 0-.395-.15-.593-.45-.593h-.05c-.586 0-1.079.338-1.48 1.015l-.072.12-.336 1.348c-.225.877-.354 1.35-.388 1.417a.454.454 0 0 1-.439.271.317.317 0 0 1-.214-.07.564.564 0 0 1-.112-.12.192.192 0 0 1-.031-.101c0-.074.116-.553.347-1.438l.367-1.467c.02-.1.03-.228.03-.382 0-.395-.149-.593-.448-.593h-.051c-.585 0-1.078.338-1.48 1.015l-.071.12-.337 1.348c-.224.877-.354 1.35-.388 1.417a.454.454 0 0 1-.439.271.352.352 0 0 1-.214-.06.364.364 0 0 1-.112-.12c-.02-.04-.027-.074-.02-.101 0-.087.129-.637.387-1.649.266-1.032.398-1.571.398-1.618.02-.1.03-.19.03-.271 0-.241-.084-.362-.254-.362-.15 0-.276.094-.378.281-.102.188-.18.392-.235.613-.054.222-.095.342-.122.362-.014.014-.068.02-.163.02h-.143c-.04-.04-.061-.07-.061-.09z"/><path d="M295.36 90.95c0-.113.045-.213.136-.298a.48.48 0 0 1 .318-.135c.086 0 .158.029.216.085a.313.313 0 0 1 .094.214.403.403 0 0 1-.144.298.486.486 0 0 1-.318.142.328.328 0 0 1-.202-.07c-.062-.048-.096-.126-.1-.235zm-1.177 2.225c0-.038.022-.111.065-.22.043-.11.101-.23.173-.363.072-.133.178-.253.318-.362a.66.66 0 0 1 .433-.157c.187 0 .344.055.469.164.125.109.19.256.194.44 0 .08-.033.214-.1.398-.068.185-.164.434-.29.747-.124.312-.225.58-.302.803-.024.104-.036.18-.036.227 0 .118.04.178.122.178a.484.484 0 0 0 .137-.022.495.495 0 0 0 .166-.1.965.965 0 0 0 .195-.248c.067-.114.128-.253.18-.42a.29.29 0 0 1 .037-.099c.01-.01.05-.014.122-.014.096 0 .145.024.145.071a.768.768 0 0 1-.065.22 2.78 2.78 0 0 1-.18.363 1.193 1.193 0 0 1-.325.355.734.734 0 0 1-.448.156.685.685 0 0 1-.425-.149c-.13-.1-.198-.25-.202-.455 0-.08.012-.156.036-.227.024-.071.127-.341.31-.81.183-.479.288-.765.317-.86.03-.095.046-.187.05-.277 0-.114-.04-.17-.122-.17h-.014c-.145 0-.277.078-.397.234-.12.156-.212.355-.274.597a.083.083 0 0 0-.015.021.054.054 0 0 0-.007.021c0 .005-.005.01-.014.015a.056.056 0 0 1-.022.007h-.187c-.03-.029-.044-.05-.044-.064z"/><path fill="none" d="M295.36 90.95c0-.113.045-.213.136-.298a.48.48 0 0 1 .318-.135c.086 0 .158.029.216.085a.313.313 0 0 1 .094.214.403.403 0 0 1-.144.298.486.486 0 0 1-.318.142.328.328 0 0 1-.202-.07c-.062-.048-.096-.126-.1-.235zm-1.177 2.225c0-.038.022-.111.065-.22.043-.11.101-.23.173-.363.072-.133.178-.253.318-.362a.66.66 0 0 1 .433-.157c.187 0 .344.055.469.164.125.109.19.256.194.44 0 .08-.033.214-.1.398-.068.185-.164.434-.29.747-.124.312-.225.58-.302.803-.024.104-.036.18-.036.227 0 .118.04.178.122.178a.484.484 0 0 0 .137-.022.495.495 0 0 0 .166-.1.965.965 0 0 0 .195-.248c.067-.114.128-.253.18-.42a.29.29 0 0 1 .037-.099c.01-.01.05-.014.122-.014.096 0 .145.024.145.071a.768.768 0 0 1-.065.22 2.78 2.78 0 0 1-.18.363 1.193 1.193 0 0 1-.325.355.734.734 0 0 1-.448.156.685.685 0 0 1-.425-.149c-.13-.1-.198-.25-.202-.455 0-.08.012-.156.036-.227.024-.071.127-.341.31-.81.183-.479.288-.765.317-.86.03-.095.046-.187.05-.277 0-.114-.04-.17-.122-.17h-.014c-.145 0-.277.078-.397.234-.12.156-.212.355-.274.597a.083.083 0 0 0-.015.021.054.054 0 0 0-.007.021c0 .005-.005.01-.014.015a.056.056 0 0 1-.022.007h-.187c-.03-.029-.044-.05-.044-.064z"/><path d="m180.196 89.269.909-.043.919-.042h.058v3.035c0 .532.01.855.029.969.02.114.07.192.155.234.09.043.251.064.483.064h.145c.213 0 .41-.074.59-.224.18-.149.307-.34.378-.575l.01-.02c.025-.086.041-.356.048-.81V90.61c0-.27-.007-.437-.02-.5-.013-.065-.055-.11-.126-.14a1.4 1.4 0 0 0-.396-.042h-.126v-.66l1.915-.085v1.949c0 1.299.007 1.966.02 2.002.032.12.206.18.522.18h.126v.33c0 .221-.004.331-.01.331-.123 0-.429.01-.919.032-.49.021-.796.032-.919.032-.006 0-.01-.11-.01-.33v-.33l-.106.117c-.303.277-.587.44-.85.49a1.834 1.834 0 0 1-.494.053c-.47 0-.845-.071-1.122-.213-.277-.142-.458-.401-.542-.778l-.02-.117-.009-1.405c0-.91-.006-1.392-.02-1.449-.05-.1-.225-.149-.521-.149h-.126v-.66h.029z"/><path fill="none" d="m180.196 89.269.909-.043.919-.042h.058v3.035c0 .532.01.855.029.969.02.114.07.192.155.234.09.043.251.064.483.064h.145c.213 0 .41-.074.59-.224.18-.149.307-.34.378-.575l.01-.02c.025-.086.041-.356.048-.81V90.61c0-.27-.007-.437-.02-.5-.013-.065-.055-.11-.126-.14a1.4 1.4 0 0 0-.396-.042h-.126v-.66l1.915-.085v1.949c0 1.299.007 1.966.02 2.002.032.12.206.18.522.18h.126v.33c0 .221-.004.331-.01.331-.123 0-.429.01-.919.032-.49.021-.796.032-.919.032-.006 0-.01-.11-.01-.33v-.33l-.106.117c-.303.277-.587.44-.85.49a1.834 1.834 0 0 1-.494.053c-.47 0-.845-.071-1.122-.213-.277-.142-.458-.401-.542-.778l-.02-.117-.009-1.405c0-.91-.006-1.392-.02-1.449-.05-.1-.225-.149-.521-.149h-.126v-.66h.029z"/><path d="M187.567 91.056c0-.12.043-.226.13-.316a.433.433 0 0 1 .3-.143c.083 0 .151.03.206.09.054.06.084.135.089.226 0 .115-.046.22-.137.316a.44.44 0 0 1-.301.15.29.29 0 0 1-.192-.075c-.059-.05-.09-.133-.095-.248zm-1.115 2.357c0-.04.02-.118.062-.234.04-.115.095-.243.164-.384.068-.14.168-.268.3-.384a.586.586 0 0 1 .411-.166c.178 0 .326.058.444.174.119.115.18.27.185.466 0 .086-.032.226-.096.422-.063.196-.155.46-.273.79-.119.332-.214.616-.287.852a1.35 1.35 0 0 0-.035.24c0 .126.04.189.117.189a.414.414 0 0 0 .13-.023.46.46 0 0 0 .157-.105c.06-.055.12-.143.184-.264.064-.12.121-.268.171-.444a.33.33 0 0 1 .035-.105c.009-.01.048-.015.116-.015.091 0 .137.025.137.075a.89.89 0 0 1-.062.233 3.1 3.1 0 0 1-.17.384c-.074.14-.176.266-.309.377a.65.65 0 0 1-.424.165.607.607 0 0 1-.403-.158c-.123-.105-.187-.266-.191-.482 0-.085.011-.165.034-.24.023-.076.12-.362.294-.859.173-.507.273-.81.3-.911.028-.1.044-.198.049-.294 0-.12-.04-.18-.117-.18h-.013c-.137 0-.263.082-.376.248-.114.166-.201.377-.26.633a.089.089 0 0 0-.014.022.062.062 0 0 0-.007.023c0 .005-.004.01-.014.015a.05.05 0 0 1-.02.007h-.178c-.027-.03-.04-.052-.04-.067z"/><path fill="none" d="M187.567 91.056c0-.12.043-.226.13-.316a.433.433 0 0 1 .3-.143c.083 0 .151.03.206.09.054.06.084.135.089.226 0 .115-.046.22-.137.316a.44.44 0 0 1-.301.15.29.29 0 0 1-.192-.075c-.059-.05-.09-.133-.095-.248zm-1.115 2.357c0-.04.02-.118.062-.234.04-.115.095-.243.164-.384.068-.14.168-.268.3-.384a.586.586 0 0 1 .411-.166c.178 0 .326.058.444.174.119.115.18.27.185.466 0 .086-.032.226-.096.422-.063.196-.155.46-.273.79-.119.332-.214.616-.287.852a1.35 1.35 0 0 0-.035.24c0 .126.04.189.117.189a.414.414 0 0 0 .13-.023.46.46 0 0 0 .157-.105c.06-.055.12-.143.184-.264.064-.12.121-.268.171-.444a.33.33 0 0 1 .035-.105c.009-.01.048-.015.116-.015.091 0 .137.025.137.075a.89.89 0 0 1-.062.233 3.1 3.1 0 0 1-.17.384c-.074.14-.176.266-.309.377a.65.65 0 0 1-.424.165.607.607 0 0 1-.403-.158c-.123-.105-.187-.266-.191-.482 0-.085.011-.165.034-.24.023-.076.12-.362.294-.859.173-.507.273-.81.3-.911.028-.1.044-.198.049-.294 0-.12-.04-.18-.117-.18h-.013c-.137 0-.263.082-.376.248-.114.166-.201.377-.26.633a.089.089 0 0 0-.014.022.062.062 0 0 0-.007.023c0 .005-.004.01-.014.015a.05.05 0 0 1-.02.007h-.178c-.027-.03-.04-.052-.04-.067z"/><path stroke-miterlimit="10" fill="none" stroke="#000" d="M240.58 62.213v58.71" stroke-width=".71922"/><path d="m240.58 124.699-2.517-5.035 2.517 1.259 2.517-1.259-2.517 5.035z"/><path stroke-miterlimit="10" fill="none" stroke="#000" d="m240.58 124.699-2.517-5.035 2.517 1.259 2.517-1.259-2.517 5.035zM108.962 125.504v-9.35h88.465v-49.36" stroke-width=".71922"/><path d="m197.427 63.018 2.517 5.035-2.517-1.259-2.518 1.259 2.518-5.035z"/><path stroke-miterlimit="10" fill="none" stroke="#000" d="m197.427 63.018 2.517 5.035-2.517-1.259-2.518 1.259 2.518-5.035z" stroke-width=".71922"/></g></svg>