<svg xmlns="http://www.w3.org/2000/svg" xmlns:xlink="http://www.w3.org/1999/xlink" width="960" height="1072" viewBox="0 0 720 804"><path d="M0 804h720V0H0z" fill="#fff"/><path d="M0 804h720V0H0z" fill="#fff"/><path d="M97 705h555V60H97z" fill="#fff"/><path stroke-width=".5" stroke-linejoin="round" fill="none" stroke="#e5e5e5" d="M97 705V60M282 705V60M467 705V60M652 705V60M652 705H97M652 543.75H97M652 382.5H97M652 221.25H97M652 60H97"/><path stroke-width=".5" stroke-linecap="square" stroke-linejoin="round" fill="none" stroke="#323232" d="M97 705h555M97 705v-6.45M282 705v-6.45M467 705v-6.45M652 705v-6.45"/><symbol id="a"><path d="M.232.746A.203.203 0 0 1 .069.667C.023.603 0 .507 0 .373 0 .129.08 0 .232 0c.15 0 .232.129.232.367 0 .14-.022.234-.069.3a.2.2 0 0 1-.163.079m0-.078C.327.668.374.571.374.375.374.169.328.073.23.073c-.093 0-.14.1-.14.299 0 .199.047.296.142.296z"/></symbol><symbol id="b"><path d="M.472.086H.099c.009.06.041.098.128.151l.1.056c.099.055.15.129.15.218a.21.21 0 0 1-.066.155.227.227 0 0 1-.161.056C.16.722.093.69.054.628A.282.282 0 0 1 .016.472h.088a.257.257 0 0 0 .021.102.135.135 0 0 0 .122.071c.08 0 .14-.058.14-.136C.387.451.354.401.291.365L.199.311C.051.226.008.158 0 0h.472v.086z"/></symbol><symbol id="c"><path d="M.299.175V0h.088v.175h.105v.079H.387v.469H.322L0 .268V.175h.299m0 .079H.077l.222.319V.254z"/></symbol><symbol id="d"><path d="M.455.558C.438.676.362.746.254.746a.223.223 0 0 1-.19-.103A.52.52 0 0 1 0 .353C0 .231.017.154.06.09A.2.2 0 0 1 .238 0C.373 0 .47.101.47.242.47.375.38.469.253.469A.189.189 0 0 1 .09.39c.001.179.057.278.158.278.062 0 .105-.04.119-.11h.088M.242.391C.327.391.38.331.38.235.38.144.32.078.239.078.157.078.095.147.095.239c0 .09.06.152.147.152z"/></symbol><use xlink:href="#a" transform="matrix(35 0 0 -35 88.505 748.805)" fill="#323232"/><use xlink:href="#b" transform="matrix(35 0 0 -35 253.69 747.965)" fill="#323232"/><use xlink:href="#a" transform="matrix(35 0 0 -35 273.465 748.805)" fill="#323232"/><use xlink:href="#a" transform="matrix(35 0 0 -35 292.925 748.805)" fill="#323232"/><use xlink:href="#c" transform="matrix(35 0 0 -35 438.48 748)" fill="#323232"/><use xlink:href="#a" transform="matrix(35 0 0 -35 458.465 748.805)" fill="#323232"/><use xlink:href="#a" transform="matrix(35 0 0 -35 477.925 748.805)" fill="#323232"/><use xlink:href="#d" transform="matrix(35 0 0 -35 624.005 748.805)" fill="#323232"/><use xlink:href="#a" transform="matrix(35 0 0 -35 643.465 748.805)" fill="#323232"/><use xlink:href="#a" transform="matrix(35 0 0 -35 662.925 748.805)" fill="#323232"/><path d="M340.989 786.984c0-.386.037-.75.109-1.094l2.812-11.188h-4.093c-.26 0-.391-.172-.391-.515.104-.573.276-.86.516-.86h4.312l1.563-6.359a1.73 1.73 0 0 1 .617-.875c.307-.24.648-.359 1.023-.359.334 0 .612.096.836.289.224.193.336.456.336.79a.88.88 0 0 1-.015.178l-.032.149-1.562 6.187h4.015c.272 0 .407.172.407.516-.01.063-.037.17-.078.32a1.53 1.53 0 0 1-.157.383.305.305 0 0 1-.281.156h-4.25l-2.797 11.266c-.187.74-.281 1.375-.281 1.906 0 1.115.381 1.672 1.141 1.672 1.146 0 2.159-.536 3.039-1.609a12.094 12.094 0 0 0 2.023-3.532c.104-.145.209-.218.313-.218h.468c.105 0 .188.034.25.1a.326.326 0 0 1 .094.228.22.22 0 0 1-.031.125 12.29 12.29 0 0 1-2.5 4.148c-1.094 1.192-2.344 1.789-3.75 1.789-1.031 0-1.899-.336-2.602-1.007-.702-.672-1.054-1.534-1.054-2.586M377.396 799.812a19.06 19.06 0 0 1-3.742-3.938 22.752 22.752 0 0 1-2.57-4.726 27.058 27.058 0 0 1-1.492-5.25 31.296 31.296 0 0 1 0-11.047 26.878 26.878 0 0 1 1.508-5.274 22.454 22.454 0 0 1 2.601-4.742 18.885 18.885 0 0 1 3.695-3.867c0-.052.063-.078.188-.078h.359a.29.29 0 0 1 .219.101.345.345 0 0 1 .094.243c0 .114-.026.197-.078.25a19.418 19.418 0 0 0-3.172 3.992 22.03 22.03 0 0 0-2.039 4.547 28.76 28.76 0 0 0-1.117 4.992 40.689 40.689 0 0 0-.344 5.375c0 8.26 2.208 14.536 6.625 18.828a.445.445 0 0 1 .125.328c0 .063-.036.136-.11.219-.073.083-.14.125-.203.125h-.359c-.125 0-.188-.026-.188-.078M381.572 790.249v-6.36c0-.197.115-.296.344-.296h.468c.157 0 .261.099.313.297.719 3.77 2.469 5.656 5.25 5.656 1.23 0 2.261-.279 3.094-.836.834-.557 1.25-1.42 1.25-2.586 0-.844-.323-1.56-.969-2.148a5.204 5.204 0 0 0-2.313-1.211l-2.609-.516a8.729 8.729 0 0 1-2.383-.867 5.113 5.113 0 0 1-1.758-1.57c-.458-.657-.687-1.418-.687-2.282 0-1.145.302-2.083.906-2.812.604-.73 1.388-1.255 2.352-1.578a9.747 9.747 0 0 1 3.117-.485c1.333 0 2.495.354 3.484 1.063l1.125-.97c0-.062.063-.093.188-.093h.297c.073 0 .141.037.203.11a.338.338 0 0 1 .093.219v5.109c0 .24-.098.359-.296.359h-.485c-.229 0-.344-.12-.344-.359 0-1.365-.377-2.458-1.132-3.28-.755-.824-1.81-1.236-3.164-1.236-1.166 0-2.179.216-3.039.65-.86.43-1.29 1.173-1.29 2.225 0 .719.308 1.31.922 1.774.615.463 1.339.8 2.172 1.008l2.641.484a8.242 8.242 0 0 1 2.484 1.03 5.48 5.48 0 0 1 1.828 1.829c.448.74.672 1.573.672 2.5 0 .938-.161 1.754-.484 2.446a4.7 4.7 0 0 1-1.352 1.726c-.578.459-1.26.795-2.047 1.008a9.412 9.412 0 0 1-2.476.32c-1.625 0-3.016-.547-4.172-1.64l-1.422 1.547c0 .062-.073.093-.219.093h-.218c-.229 0-.344-.11-.344-.328M397.992 799.89c-.228 0-.343-.115-.343-.344 0-.115.026-.198.078-.25 4.448-4.344 6.672-10.646 6.672-18.906 0-8.26-2.198-14.537-6.594-18.828-.104-.063-.156-.172-.156-.328 0-.094.037-.175.109-.243a.342.342 0 0 1 .234-.101h.36c.084 0 .146.026.187.078a18.914 18.914 0 0 1 4.672 5.367 24.712 24.712 0 0 1 2.727 6.742c.578 2.385.867 4.823.867 7.313 0 1.843-.153 3.656-.461 5.437a26.856 26.856 0 0 1-1.484 5.274 22.328 22.328 0 0 1-2.586 4.797 19.125 19.125 0 0 1-3.735 3.914c-.041.052-.103.078-.187.078h-.36" fill="#323232"/><path stroke-width=".5" stroke-linecap="square" stroke-linejoin="round" fill="none" stroke="#323232" d="M97 705V60M97 705h6.45M97 543.75h6.45M97 382.5h6.45M97 221.25h6.45M97 60h6.45"/><symbol id="e"><path d="M.441.732H.075L.022.346h.081c.041.049.075.066.131.066.095 0 .154-.065.154-.17C.388.14.329.078.233.078.156.078.109.117.088.197H0C.012.139.022.111.043.085A.236.236 0 0 1 .235 0c.143 0 .243.104.243.254C.478.394.385.49.249.49A.208.208 0 0 1 .118.447l.028.198h.295v.087z"/></symbol><symbol id="f"><path d="M.157.515V0h.088v.723H.187C.156.612.136.597 0 .579V.515h.157z"/></symbol><use xlink:href="#a" transform="matrix(35 0 0 -35 69.505 718.805)" fill="#323232"/><use xlink:href="#e" transform="matrix(35 0 0 -35 69.225 557.555)" fill="#323232"/><use xlink:href="#f" transform="matrix(35 0 0 -35 52.57 395.5)" fill="#323232"/><use xlink:href="#a" transform="matrix(35 0 0 -35 69.965 396.305)" fill="#323232"/><use xlink:href="#f" transform="matrix(35 0 0 -35 52.57 234.25)" fill="#323232"/><use xlink:href="#e" transform="matrix(35 0 0 -35 69.685 235.055)" fill="#323232"/><use xlink:href="#b" transform="matrix(35 0 0 -35 50.19 72.965)" fill="#323232"/><use xlink:href="#a" transform="matrix(35 0 0 -35 69.965 73.805)" fill="#323232"/><path d="M31.637 437.499c-.156 0-.271-.011-.344-.031l-22.547-5.656a7.75 7.75 0 0 0-1.047-.188c-.417 0-.625.843-.625 2.531 0 .26-.172.391-.515.391a4.58 4.58 0 0 1-.344-.086 1.146 1.146 0 0 1-.383-.172.343.343 0 0 1-.133-.289l-.422-5.25v-.125c.031 0 .068-.045.11-.133a.851.851 0 0 1 .078-.148.958.958 0 0 1 .312-.078l12.172 3.047c-1.896-1.605-2.844-3.501-2.844-5.688 0-.917.16-1.709.477-2.375a3.53 3.53 0 0 1 1.438-1.562c.64-.376 1.403-.563 2.289-.563 1.073 0 2.364.237 3.875.711a84.91 84.91 0 0 1 5.062 1.789c.854.364 1.635.547 2.344.547.77 0 1.156-.297 1.156-.891 0-1.021-.542-1.87-1.625-2.547a11.175 11.175 0 0 0-3.516-1.437c-.145-.052-.218-.151-.218-.297v-.484c0-.105.034-.188.1-.25a.326.326 0 0 1 .228-.094c.031 0 .073.015.125.047.937.218 1.859.554 2.765 1.008.907.453 1.662 1.023 2.266 1.711a3.55 3.55 0 0 1 .906 2.421c0 .906-.315 1.685-.945 2.336-.63.651-1.393.977-2.289.977-.48 0-.99-.105-1.53-.313a96.882 96.882 0 0 0-5.228-1.835c-1.537-.485-2.888-.727-4.055-.727-.75 0-1.372.145-1.867.437-.495.292-.742.781-.742 1.469 0 1.396.427 2.612 1.281 3.649.855 1.036 1.985 1.939 3.391 2.711l10.656 2.64c.385.104.703.302.953.594.25.291.375.624.375 1 0 .333-.112.617-.336.852a1.074 1.074 0 0 1-.804.351M42.012 392.468a18.998 18.998 0 0 1-3.938 3.742 22.756 22.756 0 0 1-4.726 2.571 27.058 27.058 0 0 1-5.25 1.492 31.296 31.296 0 0 1-11.047 0 26.878 26.878 0 0 1-5.274-1.508 22.504 22.504 0 0 1-4.742-2.602 18.888 18.888 0 0 1-3.867-3.695c-.052 0-.078-.063-.078-.187v-.36a.29.29 0 0 1 .101-.219.348.348 0 0 1 .243-.093c.114 0 .197.026.25.078a19.455 19.455 0 0 0 3.992 3.172 22.138 22.138 0 0 0 4.547 2.039c1.61.515 3.274.888 4.992 1.117 1.719.229 3.51.344 5.375.344 8.26 0 14.536-2.209 18.828-6.625a.44.44 0 0 1 .328-.125c.063 0 .136.036.219.109.083.072.125.14.125.203v.36c0 .124-.026.187-.078.187M32.777 379.871c0 1.583-.409 3.015-1.226 4.297a8.713 8.713 0 0 1-3.274 3.023 9.067 9.067 0 0 1-4.359 1.102c-1.531 0-3.003-.365-4.414-1.094-1.411-.729-2.54-1.737-3.383-3.023-.844-1.287-1.266-2.722-1.266-4.305 0-1.521.3-2.906.899-4.156.599-1.25 1.575-1.875 2.93-1.875.51 0 .953.182 1.328.546.375.364.562.807.562 1.329 0 .51-.187.947-.562 1.312a1.846 1.846 0 0 1-1.328.547c-.459 0-.855-.146-1.188-.438a1.959 1.959 0 0 1-.64-1.093c-.574.906-.86 2.171-.86 3.797 0 1.239.414 2.241 1.242 3.007.828.766 1.852 1.3 3.071 1.602 1.219.302 2.422.453 3.609.453 1.26 0 2.477-.188 3.648-.562 1.172-.376 2.143-.977 2.914-1.805.771-.828 1.157-1.873 1.157-3.133 0-1.23-.378-2.277-1.133-3.141-.755-.864-1.742-1.453-2.961-1.765-.156 0-.234-.105-.234-.313v-.468a.28.28 0 0 1 .109-.219.35.35 0 0 1 .234-.094h.11c1.542.396 2.763 1.177 3.664 2.344.9 1.166 1.351 2.541 1.351 4.125M32.34 371.322h-1.375c0-.896-.07-1.628-.211-2.195-.14-.568-.482-.852-1.024-.852H19.09c-.698 0-1.203.104-1.516.313a1.294 1.294 0 0 0-.57.898c-.068.391-.102 1.002-.102 1.836h-1.375l-.422-5.656h3.813a6.79 6.79 0 0 1-2.742-2.32c-.714-1.026-1.07-2.138-1.07-3.336 0-3 1.218-4.761 3.656-5.282a6.503 6.503 0 0 1-2.65-2.281 5.788 5.788 0 0 1-1.007-3.297c0-1.177.19-2.169.571-2.976.38-.808.96-1.415 1.742-1.821.781-.406 1.76-.609 2.937-.609h9.375c.542 0 .883-.289 1.024-.867.14-.578.21-1.305.21-2.18h1.376v8.922h-1.375c0-.886-.07-1.615-.211-2.187-.14-.574-.482-.86-1.024-.86h-9.25c-1.312 0-2.367.185-3.164.555-.797.37-1.195 1.127-1.195 2.273 0 1.5.602 2.737 1.805 3.711a6.36 6.36 0 0 0 4.117 1.461h7.687c.542 0 .883-.284 1.024-.851.14-.568.21-1.3.21-2.196h1.376v8.938h-1.375c0-.886-.07-1.615-.211-2.188-.14-.573-.482-.859-1.024-.859h-9.25c-1.27 0-2.315.185-3.132.555-.818.369-1.227 1.121-1.227 2.257 0 1.51.602 2.753 1.805 3.727a6.36 6.36 0 0 0 4.117 1.461h7.687c.542 0 .883-.287 1.024-.859.14-.574.21-1.298.21-2.172h1.376v8.937M42.09 337.864c0 .229-.115.344-.344.344-.115 0-.198-.027-.25-.079-4.344-4.448-10.646-6.671-18.906-6.671-8.26 0-14.536 2.197-18.828 6.593-.063.104-.172.157-.328.157a.321.321 0 0 1-.243-.11.342.342 0 0 1-.101-.234v-.36c0-.084.026-.146.078-.187a18.899 18.899 0 0 1 5.367-4.672 24.713 24.713 0 0 1 6.742-2.727 30.943 30.943 0 0 1 7.313-.867c1.843 0 3.656.153 5.437.461a26.79 26.79 0 0 1 5.274 1.485 22.326 22.326 0 0 1 4.797 2.586 19.093 19.093 0 0 1 3.914 3.734c.052.041.078.103.078.187v.36" fill="#323232"/><path stroke-width="3" stroke-linejoin="round" fill="none" stroke="#0072bd" d="m97 705 .925-29.458.925-26.454.925-23.716.925-23.224.925-21.955.925-21.413.925-20.536.925-20.368.925-18.621.925-18.592.925-17.153.925-17.891.925-17.677.925-17.164.925-14.46.925-18.15.925-17.85.925-12.84.925-14.558.925-12.678.925-13.405.925-13.108.925-11.567.925-13.91.925-13.444.925-11.332.925-10.242.925-7.25.925-4.616.925-4.792.925-3.767.925-4.182.925-2.214.925-4.523.925-4.024.925-4.445.925-1.208.925-1.691.925-.734.925-3.37.925-1.518.925-1.066.925-.767.925-3.346.925-1.604.925-1.925.925-2.06.925.329.925-4.044.925.024.925-1.39.925 1.645.925-6.111.925-2.794.925-2.239.925-1.493.925-2.075.925-1.847.925-.918.925-.457.925.453.925-1.087.925-3.331.925.938.925-5.035.925.615.925-.352.925.232.925 1.574.925-2.154.925-2.122.925-3.398.925-1.581.925-.924.925-.44.925.081.925-2.874.925-1.55.925.83.925-.17.925-1.716.925-1.29.925-1.501.925-1.527.925-2.204.925-.15.925-1.488.925-.47.925 1.982.925.596.925-3.295.925-.769.925-1.387.925-1.802.925 3.31.925-.279.925 1.72.925-1.195.925.741.925-.011.925-.414.925-.674.925.975.925.142.925 3.003.925 1.257.925.127.925.349.925-.517.925 1.102.925.864.925 1.197.925-1.209.925.508.925-1.911.925 2.794.925.383.925.822.925.836.925 2.152.925 1.169.925-.81.925-.705.925.83.925 2.75.925 4.465.925.338.925-.957.925.494.925 1.18.925 1.527.925 1.21.925-.472.925.319.925-.296.925 3.597.925 2.924.925.306.925.821.925.262.925.627.925-.297.925 3.119.925 2.714.925 1.549.925-1.961.925 3.626.925 4.219.925 1.369.925 1.024.925.575.925 1.148.925 4.576.925.445.925 4.276.925 3.235.925.903.925-.076.925 4.333.925.864.925 1.468.925 2.408.925 2.666.925-.97.925 2.015.925 3.43.925 2.543.925 2.419.925.748.925-.027.925 5.035.925 1.864.925 3.724.925 1.584.925 3.441.925 2.379.925 2.087.925 2.497.925 3.238.925 4.889.925-2.056.925-1.415.925-.726.925 2.46.925 1.611.925.731.925 4.747.925 3.905.925 2.745.925 3.698.925 3.07.925 1.788.925 4.926.925 3.644.925 2.792.925 1.922.925 1.772.925 2.205.925 2.571.925 4.167.925.308.925 1.674.925 3.228.925 3.947.925 4.436.925 2.684.925 2.117.925 2.559.925.817.925 2.397.925 2.733.925 3.927.925 4.041.925 3.453.925 3.244.925.726.925 1.566.925 3.918.925.7.925 2.058.925 2.36.925 2.96.925 2.56.925 5.682.925 1.558.925 4.835.925-.215.925 3.95.925 1.094.925.503.925 4.213.925 1.595.925-.115.925 3.568.925 3.046.925 3.862.925 1.08.925-.531.925 1.521.925 1.748.925 2.811.925 4.858.925 3.158.925 5.33.925-.197.925 2.548.925 1.305.925 1.535.925 4.115.925-.105.925 1.309.925 1.247.925.625.925 1.706.925 1.862.925-.525.925 4.545.925 2.305.925 1.453.925-.514.925 3.355.925 1.057.925-.639.925 1.912.925 1.009.925 1.447.925 1.462.925 1.943.925.612.925 1.673.925.555.925 2.048.925 2.821.925-.319.925-1.053.925-1.502.925 1.824.925.742.925.1.925 1.874.925 2.121.925 4.318.925 1.042.925-.692.925-1.429.925.263.925 1.709.925 2.331.925-3.685.925.584.925-.219.925 1.799.925.961.925 1.709.925-2.145.925.753.925 1.64.925-1.018.925-.258.925-6.732.925-4.725.925-3.225.925 1.677.925 4.115.925 4.284.925 1.195.925.76.925-.112.925 1.552.925-.016.925.361.925 1.329.925-1.276.925 2.161.925 1.62.925-1.923.925-.117.925-.156.925-1.076.925-2.074.925-2.901.925-.44.925 1.247.925-2.492.925-.538.925-1.653.925-1.197.925-2.98.925 1.25.925.408.925 2.414.925-1.696.925-2.817.925-3.399.925 1.902.925.002.925-.056.925-1.508.925-.522.925-.678.925-.904.925-3.846.925-3.309.925-.525.925-2.792.925-2.056.925-2.605.925-3.107.925-1.687.925-1.666.925-1.775.925-2.294.925-4.334.925-1.204.925-5.323.925.826.925.387.925-2.629.925-2.552.925-1.472.925-5.617.925-.175.925-2.722.925-2.134.925-3.547.925-1.004.925-2.119.925-2.914.925-1.708.925-3.494.925-3.518.925-2.572.925-3.7.925-.862.925-1.965.925-1.038.925-3.759.925-1.124.925-1.845.925-2.582.925-3.313.925-1.49.925-2.433.925-3.058.925-3.712.925-.765.925-3.877.925-1.965.925-.515.925-2.512.925-2.501.925-.947.925-3.72.925-2.92.925-5.686.925-1.576.925-2.196.925-4.044.925-1.788.925-1.184.925-1.824.925-2.462.925-3.397.925-2.632.925-1.123.925-1.964.925-3.232.925-5.382.925-2.75.925-.334.925-2.226.925-2.388.925-2.341.925-2.875.925-6.203.925-1.52.925-1.8.925.244.925-3.743.925-1.323.925-1.964.925-5.065.925-1.745.925-1.534.925-1.445.925-.655.925-3.052.925-2.791.925-3.563.925-1.847.925-.966.925-5.075.925 1.853.925-2.302.925-4.255.925-1.768.925-3.352.925-3.005.925-3.003.925-.636.925-1.238.925-1.901.925-2.016.925-4.06.925-1.41.925.335.925-2.106.925-1.856.925-1.386.925-6.526.925-5.124.925-2.64.925-4.706.925-5.492.925-2.607.925.3.925-4.483.925-.634.925.142.925-1.622.925-.622.925-2.941.925-1.452.925-2.749.925-.446.925.605.925-1.098.925 1.352.925-1.235.925.108.925-1.489.925-.164.925-.624.925-2.02.925 1.444.925-2.18.925-.41.925.569.925-2.003.925-2.241.925-2.218.925-3.084.925-.956.925-2.479.925-.847.925-1.604.925 2.509.925-.006.925-2.103.925-1.408.925.826.925-.307.925.241.925-.439.925.564.925.676.925-1.397.925 1.13.925.743.925 1.168.925-.849.925-1.243.925-.293.925 2.653.925-.262.925-.754.925.972.925-1.109.925 1.538.925 1.194.925-.085.925-1.765.925 3.996.925-.066.925-.362.925-.38.925.545.925 1.336.925 2.963.925.797.925-1.013.925 2.14.925 1.789.925 2.102.925-.387.925-1.62.925-.647.925 2.897.925 1.1.925 2.89.925 3.182.925 3.07.925.414.925.799.925 1.303.925.248.925.385.925.137.925 2.178.925.773.925 4.908.925 1.579.925-.098.925 3.452.925-1.188.925 2.075.925 2.654.925.348.925-.827.925.94.925 3.279.925 3.19.925 1.875.925 4.888.925 1.832.925 2.393.925 2.225.925 2.454.925-1.399.925 1.183.925 3.488.925 1.333.925 4.168.925 1.462.925 5.377.925 2.31.925-.78.925.759.925 1.553.925 2.377.925 1.446.925 3.375.925 2.204.925 3.482.925.828.925 2.097.925 2.65.925 2.803.925 3.595.925 4.851.925-1.208.925 3.199.925 1.52.925 1.147.925 4.19.925.321.925 2.609.925 2.224.925 3.288.925.531.925 1.626.925 1.271.925 6.622.925 2.982.925 3.145.925 1.473.925 5.154.925.537.925 4.268.925 1.323"/><path stroke-width="3" stroke-dasharray="12,12" stroke-linejoin="bevel" fill="none" stroke="#d95319" d="m97 705 .925-419.25.925-2.533.925-2.532.925-2.531.925-2.529.925-2.527.925-2.523.925-2.52.925-2.515.925-2.51.925-2.505.925-2.499.925-2.491.925-2.484.925-2.477.925-2.467.925-2.458.925-2.449.925-2.437.925-2.427.925-2.415.925-2.403.925-2.389.925-2.377.925-2.362.925-2.348.925-2.332.925-2.317.925-2.3.925-2.283.925-2.266.925-2.248.925-2.229.925-2.21.925-2.19.925-2.17.925-2.149.925-2.128.925-2.106.925-2.084.925-2.06.925-2.038.925-2.013.925-1.989.925-1.965.925-1.938.925-1.914.925-1.886.925-1.86.925-1.833.925-1.805.925-1.777.925-1.748.925-1.72.925-1.689.925-1.66.925-1.63.925-1.599.925-1.569.925-1.536.925-1.505.925-1.473.925-1.44.925-1.407.925-1.374.925-1.34.925-1.307.925-1.272.925-1.237.925-1.203.925-1.168.925-1.132.925-1.096.925-1.061.925-1.024.925-.988.925-.95.925-.914.925-.877.925-.839.925-.802.925-.764.925-.725.925-.688.925-.649.925-.611.925-.572.925-.533.925-.494.925-.455.925-.416.925-.376.925-.337.925-.298.925-.258.925-.219.925-.179.925-.139.925-.099.925-.06.925-.02.925.02.925.06.925.099.925.139.925.179.925.219.925.258.925.298.925.337.925.376.925.416.925.455.925.494.925.533.925.572.925.611.925.649.925.688.925.725.925.764.925.802.925.839.925.877.925.914.925.95.925.988.925 1.024.925 1.061.925 1.096.925 1.132.925 1.168.925 1.203.925 1.237.925 1.272.925 1.307.925 1.34.925 1.374.925 1.407.925 1.44.925 1.473.925 1.505.925 1.536.925 1.569.925 1.599.925 1.63.925 1.66.925 1.689.925 1.72.925 1.748.925 1.777.925 1.805.925 1.833.925 1.86.925 1.886.925 1.914.925 1.938.925 1.965.925 1.989.925 2.013.925 2.038.925 2.06.925 2.084.925 2.106.925 2.128.925 2.149.925 2.17.925 2.19.925 2.21.925 2.229.925 2.248.925 2.266.925 2.283.925 2.3.925 2.317.925 2.332.925 2.348.925 2.362.925 2.377.925 2.389.925 2.403.925 2.415.925 2.427.925 2.437.925 2.449.925 2.458.925 2.467.925 2.477.925 2.484.925 2.491.925 2.499.925 2.505.925 2.51.925 2.515.925 2.52.925 2.523.925 2.527.925 2.529.925 2.531.925 2.532.925 2.533.925 2.533.925 2.532.925 2.531.925 2.529.925 2.527.925 2.523.925 2.52.925 2.515.925 2.51.925 2.505.925 2.499.925 2.491.925 2.484.925 2.477.925 2.467.925 2.458.925 2.449.925 2.437.925 2.427.925 2.415.925 2.403.925 2.389.925 2.377.925 2.362.925 2.348.925 2.332.925 2.317.925 2.3.925 2.283.925 2.266.925 2.248.925 2.229.925 2.21.925 2.19.925 2.17.925 2.149.925 2.128.925 2.106.925 2.084.925 2.06.925 2.038.925 2.013.925 1.989.925 1.965.925 1.938.925 1.914.925 1.886.925 1.86.925 1.833.925 1.805.925 1.777.925 1.748.925 1.72.925 1.689.925 1.66.925 1.63.925 1.599.925 1.569.925 1.536.925 1.505.925 1.473.925 1.44.925 1.407.925 1.374.925 1.34.925 1.307.925 1.272.925 1.237.925 1.203.925 1.168.925 1.132.925 1.096.925 1.061.925 1.024.925.988.925.95.925.914.925.877.925.839.925.802.925.764.925.725.925.688.925.649.925.611.925.572.925.533.925.494.925.455.925.416.925.376.925.337.925.298.925.258.925.219.925.179.925.139.925.099.925.06.925.02.925-.02.925-.06.925-.099.925-.139.925-.179.925-.219.925-.258.925-.298.925-.337.925-.376.925-.416.925-.455.925-.494.925-.533.925-.572.925-.611.925-.649.925-.688.925-.725.925-.764.925-.802.925-.839.925-.877.925-.914.925-.95.925-.988.925-1.024.925-1.061.925-1.096.925-1.132.925-1.168.925-1.203.925-1.237.925-1.272.925-1.307.925-1.34.925-1.374.925-1.407.925-1.44.925-1.473.925-1.505.925-1.536.925-1.569.925-1.599.925-1.63.925-1.66.925-1.689.925-1.72.925-1.748.925-1.777.925-1.805.925-1.833.925-1.86.925-1.886.925-1.914.925-1.938.925-1.965.925-1.989.925-2.013.925-2.038.925-2.06.925-2.084.925-2.106.925-2.128.925-2.149.925-2.17.925-2.19.925-2.21.925-2.229.925-2.248.925-2.266.925-2.283.925-2.3.925-2.317.925-2.332.925-2.348.925-2.362.925-2.377.925-2.389.925-2.403.925-2.415.925-2.427.925-2.437.925-2.449.925-2.458.925-2.467.925-2.477.925-2.484.925-2.491.925-2.499.925-2.505.925-2.51.925-2.515.925-2.52.925-2.523.925-2.527.925-2.529.925-2.531.925-2.532.925-2.533.925-2.533.925-2.532.925-2.531.925-2.529.925-2.527.925-2.523.925-2.52.925-2.515.925-2.51.925-2.505.925-2.499.925-2.491.925-2.484.925-2.477.925-2.467.925-2.458.925-2.449.925-2.437.925-2.427.925-2.415.925-2.403.925-2.389.925-2.377.925-2.362.925-2.348.925-2.332.925-2.317.925-2.3.925-2.283.925-2.266.925-2.248.925-2.229.925-2.21.925-2.19.925-2.17.925-2.149.925-2.128.925-2.106.925-2.084.925-2.06.925-2.038.925-2.013.925-1.989.925-1.965.925-1.938.925-1.914.925-1.886.925-1.86.925-1.833.925-1.805.925-1.777.925-1.748.925-1.72.925-1.689.925-1.66.925-1.63.925-1.599.925-1.569.925-1.536.925-1.505.925-1.473.925-1.44.925-1.407.925-1.374.925-1.34.925-1.307.925-1.272.925-1.237.925-1.203.925-1.168.925-1.132.925-1.096.925-1.061.925-1.024.925-.988.925-.95.925-.914.925-.877.925-.839.925-.802.925-.764.925-.725.925-.688.925-.649.925-.611.925-.572.925-.533.925-.494.925-.455.925-.416.925-.376.925-.337.925-.298.925-.258.925-.219.925-.179.925-.139.925-.099.925-.06.925-.02.925.02.925.06.925.099.925.139.925.179.925.219.925.258.925.298.925.337.925.376.925.416.925.455.925.494.925.533.925.572.925.611.925.649.925.688.925.725.925.764.925.802.925.839.925.877.925.914.925.95.925.988.925 1.024.925 1.061.925 1.096.925 1.132.925 1.168.925 1.203.925 1.237.925 1.272.925 1.307.925 1.34.925 1.374.925 1.407.925 1.44.925 1.473.925 1.505.925 1.536.925 1.569.925 1.599.925 1.63.925 1.66.925 1.689.925 1.72.925 1.748.925 1.777.925 1.805.925 1.833.925 1.86.925 1.886.925 1.914.925 1.938.925 1.965.925 1.989.925 2.013.925 2.038.925 2.06.925 2.084.925 2.106.925 2.128.925 2.149.925 2.17.925 2.19.925 2.21.925 2.229.925 2.248.925 2.266.925 2.283.925 2.3.925 2.317.925 2.332.925 2.348.925 2.362.925 2.377.925 2.389.925 2.403.925 2.415.925 2.427.925 2.437.925 2.449.925 2.458.925 2.467.925 2.477.925 2.484.925 2.491.925 2.499.925 2.505.925 2.51.925 2.515.925 2.52.925 2.523.925 2.527.925 2.529.925 2.531.925 2.532"/><path stroke-width="3" stroke-linejoin="round" fill="none" stroke="#edb120" d="m97 705 .925-26.752.925-26.556.925-25.64.925-21.445.925-23.115.925-22.056.925-19.038.925-20.56.925-21.05.925-18.536.925-18.42.925-16.959.925-18.603.925-17.137.925-18.203.925-14.485.925-13.461.925-13.902.925-14.597.925-13.198.925-13.838.925-15.726.925-16.16.925-15.833.925-11.729.925-8.756.925-10.712.925-14.38.925-10.493.925-12.011.925-12.257.925-9.586.925-12.577.925-11.98.925-9.723.925-6.514.925-5.114.925-4.018.925.64.925-2.145.925-3.465.925-.89.925-1.076.925-1.437.925.99.925 1.869.925.141.925 1.262.925-.45.925.799.925 1.65.925.255.925 1.39.925-1.843.925.388.925-1.393.925.904.925 3.051.925-.25.925 1.85.925 1.735.925-1.443.925-3.518.925 2.267.925-2.968.925-.004.925 1.253.925-.385.925 1.54.925-.738.925 2.923.925-.566.925-2.249.925-.865.925-.284.925 1.592.925.561.925-1.226.925.75.925.449.925 2.184.925-.368.925 2.49.925-.011.925-1.786.925-1.745.925 1.758.925 1.043.925.428.925-1.182.925.277.925-1.434.925-1.583.925-.869.925 1.038.925 1.709.925-2.081.925.872.925-.455.925-.77.925 3.376.925-1.684.925 2.228.925.675.925.306.925-1.24.925.2.925 1.516.925 1.689.925-2.464.925-1.944.925-.999.925 1.224.925-.673.925-.124.925 2.726.925-.641.925.717.925-.275.925 2.759.925-2.767.925-.596.925-1.512.925-1.834.925 1.399.925 1.577.925 1.723.925-.027.925 1.267.925-4.439.925-1.021.925 1.234.925-.373.925-1.932.925.481.925-.022.925 1.243.925-.106.925.527.925-.869.925-2.109.925 1.819.925.567.925-.084.925-1.351.925 2.367.925 2.141.925.676.925-1.668.925.847.925-.871.925 3.725.925-4.314.925-.966.925.366.925 2.269.925.212.925-2.215.925.548.925 1.968.925.312.925-2.119.925 1.798.925-1.403.925.161.925.934.925-.957.925.137.925 1.187.925-.357.925.688.925-2.309.925-2.808.925-3.188.925.992.925.012.925 2.025.925-1.403.925-.687.925 4.012.925 22.413.925 20.206.925 22.385.925 20.082.925 20.475.925 21.02.925 19.533.925 17.094.925 18.382.925 17.769.925 16.314.925 14.631.925 13.94.925 16.368.925 17.08.925 15.112.925 15.586.925 11.052.925 5.29.925 1.963.925 2.767.925 4.064.925-.42.925.845.925.535.925-3.394.925 1.764.925 1.132.925 2.376.925-1.692.925.36.925-.098.925.528.925-2.08.925-1.444.925-1.309.925 2.365.925-1.67.925-1.956.925.809.925 1.804.925-1.338.925-1.96.925 1.486.925-.917.925 1.662.925-.12.925-1.872.925-1.375.925.53.925-1.374.925 1.232.925.372.925-.805.925 1.149.925-.869.925.255.925.264.925-.055.925-.218.925-.276.925-.522.925 2.258.925.342.925-1.189.925-.952.925-.046.925.196.925-1.094.925-9.874.925-4.155.925-4.384.925-1.16.925 7.314.925 2.936.925 3.307.925-1.423.925 2.122.925 4.835.925.669.925 2.076.925-1.815.925-2.481.925.782.925-1.175.925.812.925-1.146.925.712.925-.24.925-.183.925 3.373.925 1.337.925-.493.925-.9.925-2.414.925 1.898.925.911.925-.004.925-1.143.925-.13.925-.144.925-1.713.925-1.003.925 2.622.925.553.925-.893.925-.934.925-1.392.925-.218.925.215.925.934.925.081.925-1.387.925-.828.925 1.569.925 1.554.925.705.925.478.925.014.925-1.111.925.418.925-1.653.925 1.62.925 1.154.925 2.645.925-2.302.925-1.81.925.343.925-1.121.925.892.925 1.406.925-2.394.925.329.925.562.925-1.126.925-1.636.925-.068.925 1.571.925-1.122.925.324.925.362.925-3.402.925 2.879.925.15.925-.503.925-.075.925 3.839.925.892.925-3.248.925.533.925-16.319.925-17.431.925-18.354.925-17.858.925-16.496.925-16.583.925-12.132.925-16.167.925-14.373.925-15.172.925-10.745.925-13.672.925-12.971.925-12.954.925-9.812.925-13.405.925-12.709.925-11.474.925-9.191.925-7.878.925-8.407.925-10.672.925-8.523.925-11.097.925-5.592.925-4.257.925-2.998.925-4.159.925.251.925-3.64.925 1.896.925-.773.925-3.125.925-1.89.925 4.593.925-.846.925.857.925-1.684.925.209.925-.383.925 3.118.925-.519.925.986.925-.02.925-1.474.925-.358.925 3.599.925-.524.925 1.638.925.119.925-1.539.925 2.103.925-.849.925 1.54.925.597.925.498.925.669.925-.496.925.722.925-.547.925.965.925 1.242.925.526.925.876.925-2.128.925.875.925-1.909.925.893.925-1.194.925-6.491.925-4.633.925-1.537.925-5.575.925-.818.925 2.049.925-.344.925 4.48.925 1.455.925-2.536.925.105.925 1.243.925.8.925.194.925 1.728.925.662.925.17.925-1.722.925-.512.925 2.43.925 1.191.925 2.489.925-.75.925 2.278.925-1.066.925.184.925-1.073.925-.915.925.053.925 1.09.925.45.925.965.925.194.925-.483.925-2.639.925-1.2.925 1.505.925 1.943.925-1.414.925 2.3.925-.615.925-.895.925-.748.925 3.353.925-1.093.925-.673.925.763.925 1.333.925-.236.925-1.184.925-1.333.925-.527.925 2.755.925 1.164.925 1.806.925-2.532.925-.362.925-2.87.925 2.639.925-1.786.925.134.925-.62.925 4.785.925 1.202.925-2.232.925-1.021.925-1.474.925-.866.925 2.226.925-.077.925-1.527.925 1.516.925.574.925-.92.925-.55.925-.47.925-.864.925.214.925 2.307.925-1.133.925 2.033.925 14.951.925 14.615.925 13.585.925 13.869.925 13.735.925 15.475.925 15.535.925 12.824.925 11.371.925 13.742.925 10.721.925 14.438.925 13.066.925 11.813.925 11.329.925 11.452.925 11.866.925 9.724.925 10.021.925 11.134.925 8.482.925 8.672.925 9.3.925 9.379.925 8.007.925 8.787.925 6.321.925 3.273.925 4.226.925 3.417.925.214.925-2.676.925 2.042.925 1.449.925.85.925.144.925-.885.925 1.162.925-2.086.925 1.587.925-.807.925 2.315.925 1.788.925-2.485.925.327.925-1.965.925-.277.925-.153.925-.261.925-.588.925.604.925-2.482.925 3.785.925-.503.925 1.101.925-1.578.925-1.092.925-.39.925-1.078.925.698.925-2.034.925 2.84.925 1.447.925-1.423.925 2.237.925.467.925 1.462.925-3.895.925-2.002.925.08.925.616.925.466.925-1.96.925.547.925-.685.925 2.396.925.061.925 1.048.925 1.433.925-2.055.925-.012.925-2.351.925 4.006.925-.273.925.654.925 1.524.925-3.082.925-1.325.925.001.925.048.925-1.668.925-.172.925-.408.925 2.191.925-.32.925.296.925 1.989.925-1.616.925 2.116.925-.03.925-.612.925.677.925-1.259.925.378.925.203.925.312.925.239.925.562.925-.396.925-1.448.925-2.395.925.264.925 3.066.925.836.925.722.925-2.224.925.453.925.725.925-2.049.925-.813"/><path stroke-width="3" stroke-dasharray="12,12" stroke-linejoin="bevel" fill="none" stroke="#7e2f8e" d="m97 705 .925-580.5H263.5l.925 322.5H402.25l.925-322.5H541l.925 322.5H652"/><path stroke-width="3" stroke-linejoin="round" fill="none" stroke="#77ac30" d="m97 705 .925-29.605.925-12.47.925-12.413.925-10.997.925-12.608.925-11.112.925-10.118.925-11.172.925-11.264.925-10.376.925-10.504.925-8.697.925-11.022.925-10.936.925-8.88.925-9.722.925-9.644.925-6.961.925-7.378.925-7.562.925-8.41.925-9.89.925-7.849.925-9.674.925-9.249.925-7.237.925-8.744.925-8.45.925-6.256.925-6.525.925-8.981.925-8.197.925-7.388.925-8.081.925-6.668.925-7.792.925-5.354.925-6.024.925-2.429.925-4.927.925-4.09.925-2.755.925-1.952.925-3.523.925-2.871.925-2.171.925-2.22.925.039.925-4.254.925-.206.925-1.201.925-.519.925-4.678.925-3.664.925-1.663.925-2.459.925-2.476.925-1.594.925-3.874.925-1.271.925.287.925-2.91.925-4.022.925.524.925-5.125.925-1.1.925-.731.925-.711.925.953.925-1.925.925-.124.925-.832.925-2.741.925-1.266.925-1.514.925.271.925-2.995.925-1.19.925-1.306.925-1.249.925-1.489.925-2.832.925-.312.925-.453.925-3.381.925-2.67.925-1.897.925-.882.925.177.925-3.032.925-2.7.925-3.199.925-4.06.925-2.956.925.991.925-.394.925-2.094.925-3.26.925-1.619.925-2.188.925-.459.925-2.23.925-.602.925-1.329.925.449.925-.283.925-.65.925-.47.925-.277.925-1.493.925-2.532.925-1.628.925-1.334.925-1.043.925-1.186.925.337.925-1.42.925-.614.925-.127.925.971.925-1.711.925-1.841.925-3.367.925-1.643.925-1.154.925 3.069.925-.118.925-1.969.925-.314.925-3.276.925-.038.925-.053.925-1.349.925-1.826.925-.569.925-.274.925 1.317.925.262.925.125.925-.434.925-1.504.925-1.079.925-.012.925-.771.925-2.611.925-2.883.925 2.439.925.141.925-.95.925-.511.925-2.082.925.642.925-1.565.925-1.325.925 1.587.925 1.047.925-1.083.925-3.361.925-.341.925.16.925-1.29.925-1.097.925.195.925-3.219.925-1.279.925-.443.925-.521.925-2.185.925-1.125.925-2.342.925.177.925-1.387.925-1.617.925-1.196.925-.106.925-1.085.925.238.925-.946.925-2.255.925 2.566.925 10.015.925 8.273.925 8.966.925 9.701.925 9.144.925 7.749.925 7.692.925 8.086.925 8.998.925 9.417.925 8.564.925 6.82.925 9.173.925 9.121.925 9.949.925 7.573.925 9.875.925 7.104.925 4.495.925 3.822.925 2.521.925 2.796.925 1.132.925 1.476.925 3.012.925.575.925.83.925.865.925 1.918.925 1.074.925 1.265.925 1.792.925 3.348.925-.966.925 1.394.925-.157.925.269.925 2.174.925-.406.925 1.635.925 2.383.925.12.925-.068.925 3.497.925.586.925 3.184.925.456.925 1.488.925.125.925.179.925 2.133.925 1.178.925.099.925 2.159.925 3.631.925 1.727.925 2.087.925.384.925-.427.925.537.925.353.925 3.393.925.671.925 3.425.925-.326.925.779.925 2.165.925 1.753.925 1.67.925.306.925 3.059.925 1.249.925 2.004.925 4.172.925 2.028.925 3.319.925.71.925 2.69.925 3.953.925-.03.925 3.408.925-.726.925-1.98.925.942.925.276.925 2.354.925-.413.925.961.925-.365.925.794.925 1.631.925 1.049.925 1.139.925.61.925-1.319.925-.701.925 1.07.925-.173.925-1.724.925.73.925.159.925 2.821.925.472.925 2.549.925.766.925.253.925-.163.925-.115.925-.91.925 1.263.925 1.24.925.315.925.486.925-.393.925-.378.925 1.014.925 1.827.925-.14.925.457.925-.139.925.112.925-2.227.925 2.398.925 1.147.925 2.6.925-1.579.925-.389.925.092.925.478.925-.48.925.278.925-.771.925-1.138.925.755.925 2.531.925-.905.925.528.925 2.703.925.205.925.433.925-.115.925-1.039.925 3.267.925.753.925 1.03.925.108.925 1.949.925-1.497.925-.487.925 1.109.925-7.481.925-8.685.925-10.541.925-10.153.925-5.747.925-7.889.925-5.934.925-8.523.925-6.888.925-6.572.925-5.19.925-8.995.925-8.842.925-5.672.925-5.921.925-6.901.925-7.628.925-6.538.925-5.62.925-5.746.925-4.275.925-6.454.925-6.248.925-6.083.925-6.636.925-2.131.925-2.209.925-5.414.925-1.16.925-2.674.925-2.717.925-1.217.925-3.389.925-2.361.925-.543.925-1.522.925-.713.925-2.846.925-1.88.925-2.328.925-.501.925-2.481.925-2.373.925-.924.925-2.424.925-1.235.925-1.176.925-1.781.925-.43.925-1.131.925-2.864.925.17.925-2.859.925-.349.925-2.003.925-.554.925-3.748.925-1.891.925-.029.925-2.82.925-1.059.925.167.925-1.441.925-1.167.925-4.629.925-.907.925-2.518.925-1.466.925-1.235.925-1.076.925-.026.925 2.062.925-.942.925.703.925 3.655.925 1.945.925 3.797.925.607.925.162.925 2.909.925 1.812.925 1.515.925 3.331.925 2.039.925-.534.925 2.37.925 1.165.925 2.406.925.724.925 1.785.925 2.476.925-.187.925 3.449.925.59.925 2.506.925 1.216.925.898.925 1.596.925 1.848.925 1.988.925 2.376.925.513.925 3.875.925.259.925.208.925 1.161.925 2.052.925.932.925 2.228.925 1.152.925 1.763.925 1.412.925 2.715.925-.394.925.889.925 1.7.925 2.822.925.408.925 1.039.925 1.571.925 2.847.925 3.853.925 2.501.925 1.523.925-.655.925 2.386.925-1.693.925 3.67.925 1.21.925 1.481.925 1.757.925 3.532.925 2.304.925-1.75.925-.275.925 1.653.925-.239.925 1.988.925.497.925 2.023.925 1.361.925 1.084.925.475.925-.98.925 2.494.925-1.126.925 2.015.925 3.731.925-.712.925 1.03.925 8.583.925 7 .925 8.028.925 7.358.925 6.404.925 6.824.925 9.618.925 9.052.925 6.552.925 6.838.925 7.952.925 9.438.925 7.702.925 5.692.925 7.634.925 8.218.925 5.69.925 6.487.925 7.749.925 8.257.925 5.751.925 6.291.925 5.038.925 8.224.925 6.967.925 6.65.925 6.131.925 1.775.925 5.2.925 4.056.925 2.145.925.627.925 5.156.925 1.865.925 2.084.925 2.219.925 2.561.925 2.915.925 3.27.925 3.3.925-.167.925 4.395.925 3.241.925 2.742.925 1.65.925-.133.925.13.925 1.769.925.453.925 2.478.925 4.043.925 1.816.925 4.096.925 2.281.925 2.236.925 1.055.925 1.581.925 1.942.925 2.372.925 2.774.925 3.176.925 1.633.925 1.581.925 2.168.925 1.594.925 2.064.925 3.511.925-1.105.925-1.342.925 1.207.925 1.641.925 2.055.925-.789.925 1.234.925-.088.925 3.576.925.443.925 2.534.925.398.925-.151.925.868.925-.034.925 2.626.925.961.925 3.037.925 1.688.925-1.929.925-1.531.925-.102.925 1.033.925-.87.925.692.925-.174.925 1.809.925.565.925-.121.925.564.925-.791.925 2.125.925 1.977.925-3.156.925.981.925-.309.925-.9.925.156.925-2.01.925-1.156.925-.161.925.479.925-2.373.925-1.495.925-1.304.925 1.78.925-.291.925.477.925-2.65.925 1.918.925-.09.925.246.925-1.063"/><path stroke-width="3" stroke-linejoin="round" fill="none" stroke="#4dbeee" d="m97 705 .925-31.116.925-12.112.925-10.605.925-10.688.925-9.945.925-12.261.925-10.273.925-10.927.925-10.48.925-9.448.925-9.262.925-10.547.925-9.974.925-8.238.925-10.387.925-9.656.925-8.298.925-7.089.925-11.34.925-6.184.925-6.569.925-7.597.925-10.008.925-9.855.925-5.166.925-2.722.925-4.954.925-8.392.925-4.945.925-6.354.925-1.674.925-2.698.925-3.611.925-5.396.925-5.277.925-1.626.925-1.473.925-1.076.925-.98.925-2.269.925-3.28.925-1.132.925-3.762.925-3.547.925-.753.925-.429.925-4.054.925-2.565.925-2.115.925-3.251.925-.95.925-.598.925-.839.925-2.173.925-2.981.925-3.6.925-1.812.925-.844.925 1.273.925-1.435.925-.806.925-.385.925-5.09.925-.368.925-5.138.925-1.539.925-1.471.925-2.73.925-.279.925-2.467.925-1.03.925-4.867.925-2.947.925-2.525.925-1.862.925-1.051.925-.574.925-5.224.925-.189.925-.793.925-.003.925-.196.925-1.642.925-3.968.925-1.852.925-2.616.925-.558.925-1.291.925-1.523.925 1.074.925-2.485.925-.887.925-1.421.925-2.26.925-1.442.925-2.05.925-.341.925 1.313.925-.652.925-1.412.925.305.925-1.581.925 1.281.925-1.411.925.558.925-2.08.925-1.135.925-.208.925-.764.925-.99.925 1.255.925.908.925.92.925-1.834.925-2.748.925 2.648.925-.566.925.095.925-.582.925 2.168.925-.592.925-.541.925.331.925-1.248.925 3.829.925.211.925 1.283.925.196.925 1.446.925-.627.925-.885.925 1.467.925-.406.925-.983.925-1.547.925.464.925.68.925-3.129.925-1.153.925-1.625.925-1.982.925-.115.925.903.925 2.029.925 1.155.925 2.344.925.003.925 2.231.925-1.439.925.914.925-.125.925 1.513.925-1.077.925-1.121.925.231.925 2.398.925 1.162.925-.274.925 3.957.925.441.925 1.537.925-.327.925 2.756.925.332.925 1.875.925 2.122.925.319.925 3.639.925.683.925-.454.925 3.451.925.588.925.145.925-1.715.925 2.532.925 1.725.925 1.182.925-.028.925 2.912.925 3.666.925-.042.925-.871.925 1.212.925.755.925.649.925 2.904.925 5.273.925 1.357.925.731.925 1.936.925 1.006.925 1.33.925.195.925 3.113.925 2.246.925 2.53.925-.707.925.772.925.479.925.679.925-.883.925 1.295.925.864.925 2.927.925 1.125.925-.788.925 3.106.925 4.461.925 2.245.925.614.925 1.638.925 1.841.925 1.923.925 4.62.925 1.555.925 1.613.925 5.06.925.217.925-.219.925 1.064.925 2.534.925 2.73.925 1.684.925 3.998.925.857.925 2.876.925-.152.925 1.478.925.663.925 2.25.925.971.925 1.78.925.49.925.389.925-.24.925 1.26.925-.385.925-.31.925 3.227.925.901.925 2.506.925.055.925 5.937.925 3.067.925.885.925 2.666.925-.321.925 1.506.925 2.076.925-2.236.925-.354.925 1.064.925 1.419.925 2.049.925 1.858.925-1.707.925 2.418.925 1.116.925.817.925.689.925 1.084.925 1.193.925 1.029.925 1.7.925-.16.925-1.693.925 1.131.925 1.438.925 2.354.925.959.925 1.804.925 3.329.925 1.642.925-.769.925.043.925 2.011.925 1.69.925.752.925 2.84.925 1.092.925 3.015.925-.946.925-.379.925.368.925-.948.925.207.925 2.945.925 2.746.925-3.308.925.086.925-.754.925.974.925-.048.925 2.553.925 1.146.925 2.449.925.987.925 1.339.925.673.925-.171.925.825.925 3.247.925 4.652.925 2.516.925 2.551.925.561.925-.805.925.796.925-.13.925 1.477.925 1.333.925.667.925 1.609.925 2.291.925-2.16.925-.085.925.154.925-.483.925-1.004.925-.441.925-1.308.925-1.82.925.203.925-2.16.925-2.002.925-1.931.925 1.705.925 1.404.925-.021.925 1.058.925 2.928.925-1.319.925-1.529.925-1.625.925-1.979.925-.18.925.988.925-1.459.925-.049.925-1.542.925 2.02.925-.245.925 1.259.925-1.412.925.397.925-2.633.925-2.448.925-2.86.925-.702.925 1.062.925-1.211.925-.113.925-.155.925-2.566.925-.874.925.536.925.203.925 1.375.925-1.351.925-2.695.925-1.574.925-.102.925-2.691.925-2.054.925 1.053.925-.77.925-1.867.925-2.159.925-.354.925-1.518.925-2.141.925-.681.925-2.032.925-1.624.925-1.773.925-1.626.925-.563.925-.409.925-1.028.925-1.051.925-1.837.925-.512.925.307.925-2.164.925-2.056.925-.604.925.729.925-1.836.925-.751.925.292.925-.201.925-.369.925-.237.925.327.925-.109.925.496.925-1.933.925-1.489.925-2.574.925-1.734.925-.591.925-2.272.925-3.943.925-2.421.925-2.14.925-2.088.925-.801.925-1.262.925-2.801.925-.903.925-1.008.925-1.207.925-4.464.925-.646.925-3.017.925-2.116.925-3.522.925-1.825.925-.341.925-.076.925-.211.925-3.39.925-1.953.925-1.452.925-1.624.925-.507.925-3.195.925-3.249.925-2.542.925-2.341.925-.371.925-3.651.925-1.959.925-3.186.925-2.891.925.289.925-1.736.925-3.281.925-2.098.925-1.034.925-3.375.925-2.668.925-.392.925-2.4.925-2.405.925-.085.925-2.271.925-.413.925-.505.925-1.868.925-1.181.925 1.856.925 1.021.925.768.925 1.515.925 1.622.925-.01.925 1.312.925.276.925.414.925 1.312.925.395.925-.122.925 1.946.925 1.509.925-.562.925 1.515.925 4.378.925 1.354.925-.398.925 2.482.925 1.467.925.193.925 2.601.925-.822.925.8.925-.229.925.82.925 2.184.925 3.004.925.923.925-.23.925-.013.925-.201.925 1.634.925 2.968.925 3.686.925-.732.925-1.265.925 2.645.925.552.925-.235.925 1.845.925 3.165.925.739.925.725.925 3.152.925 2.146.925.298.925 1.895.925.589.925-1.594.925 2.573.925 2 .925-.631.925.349.925-.054.925 1.942.925 1.771.925 1.779.925 1.501.925-2.457.925.484.925 1.514.925 1.729.925.956.925-1.76.925 1.354.925-.523.925 1.208.925 2.652.925.946.925 1.5.925-1.244.925.662.925-1.285.925.32.925 2.391.925 1.897.925.403.925-.835.925.367.925.948.925-.276.925 1.383.925-.386.925-1.327.925-1.576.925-1.505.925-1.685.925.037.925 3.538.925.268.925.096.925.559.925.278.925.624.925-1.815.925-.736.925-.313.925 2.158.925.99.925.288.925 2.921.925 1.907.925.29.925 2.885.925.959.925.499.925-.258.925 3.006.925-1.33.925 5.801.925.046.925 2.291.925 2.071.925-1.148.925 1.394.925 1.369.925 1.684.925.349.925.865.925 2.275.925 2.155.925-.901.925 1.663.925 2.825.925 2.177.925 2.578.925 2.899.925 2.221.925 1.271.925.477.925 3.018.925 4.17.925 2.839.925 4.066.925 2.738.925 1.688.925 1.616.925.618.925 1.442.925 7.045.925 3.604.925 2.63.925 2.361.925 2.657.925 1.442.925 1.327.925 2.107"/><path d="M125 699h215V466H125z" fill="#fff"/><path d="M163.72 493.855c0-.125.011-.219.032-.281l4.641-18.5c.083-.365.135-.651.155-.86 0-.343-.692-.515-2.078-.515-.218 0-.327-.14-.327-.422.01-.052.034-.146.07-.282a.857.857 0 0 1 .141-.312.29.29 0 0 1 .241-.109l4.313-.344h.094c0 .021.036.049.109.086a.67.67 0 0 1 .125.07.707.707 0 0 1 .062.25l-2.5 9.984c1.313-1.552 2.87-2.328 4.672-2.328.75 0 1.399.131 1.945.391.548.261.975.654 1.282 1.18.308.526.461 1.153.461 1.882 0 .875-.195 1.933-.586 3.172a74.553 74.553 0 0 1-1.461 4.157c-.302.697-.453 1.338-.453 1.921 0 .636.245.954.735.954.833 0 1.528-.445 2.086-1.336.557-.89.95-1.852 1.179-2.883.042-.125.125-.188.25-.188h.39c.084 0 .151.029.204.086a.285.285 0 0 1 .078.196.22.22 0 0 1-.032.093 10.911 10.911 0 0 1-.835 2.274c-.37.745-.836 1.364-1.399 1.859a2.906 2.906 0 0 1-1.984.742c-.75 0-1.39-.258-1.922-.773a2.528 2.528 0 0 1-.797-1.883c0-.396.084-.813.25-1.25a89.501 89.501 0 0 0 1.509-4.297c.4-1.26.6-2.369.6-3.328 0-.615-.119-1.125-.359-1.531-.24-.407-.641-.61-1.203-.61-1.145 0-2.145.352-3 1.055-.854.704-1.594 1.633-2.219 2.789l-2.171 8.735a1.497 1.497 0 0 1-.485.789c-.24.203-.515.304-.828.304a.978.978 0 0 1-.696-.273.884.884 0 0 1-.289-.664M182.213 499.158v-.781c1.834 0 2.75-.229 2.75-.688v-11.547c-.76.365-1.724.547-2.891.547v-.781c1.802 0 3.162-.469 4.078-1.406h.313a.22.22 0 0 1 .148.062.184.184 0 0 1 .071.141v12.984c0 .459.917.688 2.75.688v.781h-7.219"/><path stroke-width="3" stroke-linejoin="round" fill="none" stroke="#0072bd" d="M129.002 486.873h30.014"/><path d="M163.08 532.684v-1.125c2.198 0 3.297-.339 3.297-1.016v-17.578c0-.677-1.099-1.015-3.297-1.015v-1.125h10.047c1.197 0 2.455.216 3.773.648 1.318.432 2.42 1.091 3.305 1.977.886.885 1.328 1.942 1.328 3.171 0 .896-.268 1.695-.804 2.399a6.692 6.692 0 0 1-2.064 1.765 9.849 9.849 0 0 1-2.57 1.024 6.455 6.455 0 0 1 2.516 1.594c.719.729 1.152 1.562 1.297 2.5l.453 2.843c.209 1.281.427 2.237.657 2.868.229.63.734.945 1.515.945.667 0 1.164-.31 1.492-.93.329-.62.493-1.294.493-2.023 0-.074.034-.139.102-.196a.32.32 0 0 1 .21-.085h.297c.208 0 .312.14.312.421 0 .583-.114 1.154-.344 1.711a3.536 3.536 0 0 1-.991 1.383 2.312 2.312 0 0 1-1.54.547c-1.542 0-2.867-.383-3.976-1.148-1.11-.766-1.665-1.889-1.665-3.368v-2.843a3.782 3.782 0 0 0-1.109-2.735c-.739-.76-1.645-1.14-2.719-1.14h-3.843v8.39c0 .677 1.098 1.016 3.296 1.016v1.125h-9.468zm6.172-11.359h3.421c1.772 0 3.121-.357 4.047-1.071.928-.713 1.391-1.924 1.391-3.633 0-1.698-.458-2.9-1.375-3.609-.916-.708-2.271-1.062-4.063-1.062h-1.796a6.64 6.64 0 0 0-.898.046.844.844 0 0 0-.524.274c-.135.151-.203.382-.203.695v8.36M193.173 533.043a6.618 6.618 0 0 1-3.585-1.023 7.276 7.276 0 0 1-2.563-2.735 7.462 7.462 0 0 1-.93-3.617c0-1.25.284-2.438.852-3.562a7.115 7.115 0 0 1 2.375-2.727 5.893 5.893 0 0 1 3.398-1.039c.98 0 1.832.164 2.555.492a4.788 4.788 0 0 1 1.789 1.368 6.055 6.055 0 0 1 1.063 2.062c.239.792.359 1.661.359 2.609 0 .281-.109.422-.328.422h-9.265v.344c0 1.77.356 3.292 1.07 4.563.714 1.271 1.878 1.906 3.492 1.906.656 0 1.263-.146 1.82-.438a4.49 4.49 0 0 0 1.454-1.218 4.373 4.373 0 0 0 .835-1.672.451.451 0 0 1 .117-.196.273.273 0 0 1 .196-.086h.281c.219 0 .328.136.328.407-.302 1.208-.953 2.2-1.953 2.976-1 .776-2.12 1.164-3.36 1.164zm-4.25-8.547h7.297c0-.802-.112-1.614-.336-2.437-.223-.823-.596-1.508-1.116-2.055-.521-.547-1.204-.82-2.048-.82-1.207 0-2.143.565-2.805 1.695a7.049 7.049 0 0 0-.992 3.617M200.236 532.684v-1.125c.719 0 1.313-.057 1.782-.172.468-.115.702-.396.702-.844v-10.531h-2.452v-1.125h2.452v-3.828c0-.688.144-1.331.43-1.93a5.152 5.152 0 0 1 1.156-1.57 5.453 5.453 0 0 1 1.673-1.055 5.153 5.153 0 0 1 1.96-.383c.719 0 1.367.213 1.945.641.579.427.868.995.868 1.703 0 .406-.139.748-.414 1.024a1.394 1.394 0 0 1-1.024.414c-.405 0-.752-.138-1.039-.414a1.368 1.368 0 0 1-.43-1.024c0-.667.287-1.115.86-1.344a2.97 2.97 0 0 0-.922-.171c-.625 0-1.159.221-1.602.664a4.183 4.183 0 0 0-.992 1.617 5.794 5.794 0 0 0-.328 1.89v3.766h3.687v1.125h-3.578v10.531c0 .438.313.716.938.836s1.344.18 2.156.18v1.125h-7.828M216.798 533.043a6.618 6.618 0 0 1-3.585-1.023 7.276 7.276 0 0 1-2.563-2.735 7.462 7.462 0 0 1-.93-3.617c0-1.25.284-2.438.852-3.562a7.115 7.115 0 0 1 2.375-2.727 5.893 5.893 0 0 1 3.398-1.039c.98 0 1.832.164 2.555.492a4.788 4.788 0 0 1 1.789 1.368 6.055 6.055 0 0 1 1.063 2.062c.239.792.359 1.661.359 2.609 0 .281-.109.422-.328.422h-9.265v.344c0 1.77.356 3.292 1.07 4.563.714 1.271 1.878 1.906 3.492 1.906.656 0 1.263-.146 1.82-.438a4.49 4.49 0 0 0 1.454-1.218 4.373 4.373 0 0 0 .835-1.672.451.451 0 0 1 .117-.196.273.273 0 0 1 .196-.086h.281c.219 0 .328.136.328.407-.302 1.208-.952 2.2-1.953 2.976-1 .776-2.12 1.164-3.36 1.164zm-4.25-8.547h7.297c0-.802-.112-1.614-.336-2.437-.223-.823-.596-1.508-1.116-2.055-.521-.547-1.204-.82-2.048-.82-1.207 0-2.143.565-2.805 1.695a7.049 7.049 0 0 0-.992 3.617M223.658 532.684v-1.125c.729 0 1.328-.057 1.797-.172.469-.115.703-.396.703-.844v-8.734c0-.573-.086-.987-.258-1.242a1.08 1.08 0 0 0-.742-.469c-.323-.057-.823-.086-1.5-.086v-1.125l4.578-.344v3.125c.344-.927.834-1.679 1.469-2.258.636-.578 1.406-.867 2.313-.867.635 0 1.202.187 1.702.563.5.374.75.869.75 1.484 0 .385-.138.721-.414 1.008-.276.286-.617.43-1.023.43-.395 0-.734-.141-1.015-.422a1.383 1.383 0 0 1-.423-1.016c0-.573.204-.979.61-1.219h-.187c-.865 0-1.571.313-2.118.938-.546.625-.934 1.4-1.164 2.328a11.08 11.08 0 0 0-.343 2.656v5.25c0 .677 1.036 1.016 3.109 1.016v1.125h-7.844M243.136 533.043a6.623 6.623 0 0 1-3.586-1.023 7.273 7.273 0 0 1-2.562-2.735 7.461 7.461 0 0 1-.929-3.617c0-1.25.283-2.438.85-3.562a7.123 7.123 0 0 1 2.375-2.727 5.9 5.9 0 0 1 3.4-1.039c.978 0 1.829.164 2.554.492.723.329 1.32.784 1.789 1.368a6.035 6.035 0 0 1 1.062 2.062c.24.792.359 1.661.359 2.609 0 .281-.109.422-.328.422h-9.265v.344c0 1.77.357 3.292 1.07 4.563.714 1.271 1.878 1.906 3.493 1.906.655 0 1.262-.146 1.82-.438a4.497 4.497 0 0 0 1.453-1.218 4.36 4.36 0 0 0 .836-1.672.444.444 0 0 1 .118-.196.269.269 0 0 1 .194-.086h.281c.219 0 .328.136.328.407-.302 1.208-.953 2.2-1.953 2.976-1 .776-2.119 1.164-3.359 1.164zm-4.25-8.547h7.298a9.25 9.25 0 0 0-.337-2.437c-.224-.823-.596-1.508-1.117-2.055-.521-.547-1.203-.82-2.046-.82-1.209 0-2.144.565-2.805 1.695a7.04 7.04 0 0 0-.993 3.617M250.12 532.684v-1.125c.73 0 1.329-.057 1.798-.172.468-.115.702-.396.702-.844v-8.734c0-.573-.086-.987-.257-1.242a1.082 1.082 0 0 0-.743-.469c-.322-.057-.822-.086-1.5-.086v-1.125l4.641-.344v3.125a5.554 5.554 0 0 1 1.898-2.25 4.7 4.7 0 0 1 2.743-.875c1.479 0 2.591.354 3.336 1.063.745.708 1.117 1.791 1.117 3.25v7.687c0 .448.235.729.704.844.468.115 1.067.172 1.796.172v1.125h-7.328v-1.125c.729 0 1.328-.057 1.796-.172.469-.115.704-.396.704-.844v-7.593c0-1.042-.152-1.899-.454-2.571-.302-.672-.921-1.008-1.859-1.008-1.239 0-2.257.495-3.055 1.485a5.238 5.238 0 0 0-1.195 3.375v6.312c0 .448.235.729.704.844.468.115 1.062.172 1.78.172v1.125h-7.328M274.636 533.043c-1.291 0-2.464-.336-3.516-1.008a7.161 7.161 0 0 1-2.484-2.687 7.411 7.411 0 0 1-.906-3.57c0-1.261.3-2.469.899-3.625a7.201 7.201 0 0 1 2.484-2.774 6.29 6.29 0 0 1 3.523-1.039c1.25 0 2.388.245 3.414.735 1.027.489 1.539 1.291 1.539 2.406 0 .417-.148.778-.444 1.086-.298.307-.66.461-1.086.461-.428 0-.79-.154-1.087-.461a1.511 1.511 0 0 1-.445-1.086c0-.376.119-.701.359-.977s.536-.45.891-.523c-.74-.469-1.776-.703-3.109-.703-1.021 0-1.844.338-2.47 1.015-.624.677-1.062 1.516-1.312 2.516s-.375 1.989-.375 2.969c0 1.031.154 2.029.461 2.992.308.963.802 1.76 1.484 2.39.683.631 1.54.946 2.571.946 1.01 0 1.87-.31 2.578-.93.708-.62 1.193-1.43 1.454-2.43 0-.125.083-.187.25-.187h.389c.063 0 .12.028.172.086a.281.281 0 0 1 .078.195v.094c-.322 1.261-.963 2.261-1.921 3-.959.739-2.089 1.109-3.391 1.109M288.636 533.043a6.623 6.623 0 0 1-3.586-1.023 7.273 7.273 0 0 1-2.562-2.735 7.45 7.45 0 0 1-.929-3.617c0-1.25.283-2.438.85-3.562a7.123 7.123 0 0 1 2.375-2.727 5.897 5.897 0 0 1 3.4-1.039c.978 0 1.829.164 2.554.492.723.329 1.32.784 1.789 1.368a6.035 6.035 0 0 1 1.062 2.062c.24.792.359 1.661.359 2.609 0 .281-.109.422-.328.422h-9.265v.344c0 1.77.357 3.292 1.07 4.563.714 1.271 1.878 1.906 3.493 1.906.655 0 1.262-.146 1.82-.438a4.497 4.497 0 0 0 1.453-1.218 4.36 4.36 0 0 0 .836-1.672.444.444 0 0 1 .118-.196.269.269 0 0 1 .194-.086h.281c.219 0 .328.136.328.407-.302 1.208-.953 2.2-1.953 2.976-1 .776-2.119 1.164-3.359 1.164zm-4.25-8.547h7.298a9.25 9.25 0 0 0-.337-2.437c-.224-.823-.596-1.508-1.117-2.055-.521-.547-1.203-.82-2.046-.82-1.209 0-2.144.565-2.805 1.695a7.04 7.04 0 0 0-.993 3.617M306.87 532.106a.93.93 0 0 1 .032-.281l4.641-18.5c.083-.365.135-.652.155-.86 0-.344-.692-.515-2.078-.515-.218 0-.327-.141-.327-.422.01-.052.034-.146.07-.282a.857.857 0 0 1 .141-.312.287.287 0 0 1 .241-.109l4.314-.344h.093c0 .021.036.049.109.086a.67.67 0 0 1 .125.07.707.707 0 0 1 .062.25l-2.5 9.984c1.313-1.552 2.87-2.328 4.672-2.328.75 0 1.399.13 1.946.391.547.261.974.654 1.281 1.18.308.526.462 1.153.462 1.882 0 .875-.196 1.933-.587 3.172a74.553 74.553 0 0 1-1.461 4.157c-.302.697-.452 1.337-.452 1.921 0 .636.244.954.734.954.833 0 1.528-.445 2.086-1.336a9.161 9.161 0 0 0 1.18-2.883c.041-.126.124-.188.25-.188h.389c.084 0 .151.028.204.086a.284.284 0 0 1 .078.196.22.22 0 0 1-.032.093 10.911 10.911 0 0 1-.835 2.274c-.37.745-.836 1.364-1.399 1.859a2.906 2.906 0 0 1-1.984.742 2.66 2.66 0 0 1-1.921-.773 2.525 2.525 0 0 1-.798-1.883c0-.396.084-.813.25-1.25a89.887 89.887 0 0 0 1.509-4.297c.4-1.26.6-2.369.6-3.328 0-.615-.119-1.125-.359-1.531-.24-.407-.641-.61-1.202-.61-1.146 0-2.146.352-3 1.055-.855.703-1.595 1.633-2.22 2.789l-2.171 8.735a1.502 1.502 0 0 1-.484.789 1.252 1.252 0 0 1-.829.304.978.978 0 0 1-.696-.273.884.884 0 0 1-.289-.664M325.363 537.409v-.781c1.834 0 2.75-.23 2.75-.688v-11.547c-.76.364-1.724.547-2.891.547v-.781c1.802 0 3.162-.469 4.078-1.406h.313c.052 0 .102.02.148.062a.184.184 0 0 1 .071.141v12.984c0 .458.917.688 2.75.688v.781h-7.219"/><path stroke-width="3" stroke-dasharray="12,12" stroke-linejoin="bevel" fill="none" stroke="#d95319" d="M129.002 525.124h30.014"/><path d="M163.72 570.357c0-.126.011-.22.032-.281l4.641-18.5c.083-.365.135-.652.155-.86 0-.344-.692-.515-2.078-.515-.218 0-.327-.141-.327-.422a5.56 5.56 0 0 1 .07-.283.843.843 0 0 1 .141-.311.287.287 0 0 1 .241-.109l4.313-.344h.094c0 .02.036.049.109.086a.774.774 0 0 1 .125.069.717.717 0 0 1 .062.25l-2.5 9.984c1.313-1.551 2.87-2.327 4.672-2.327.75 0 1.399.13 1.945.391.548.26.975.654 1.282 1.179.308.527.461 1.154.461 1.882 0 .876-.195 1.933-.586 3.173a74.838 74.838 0 0 1-1.461 4.157c-.302.697-.453 1.337-.453 1.92 0 .637.245.955.735.955.833 0 1.528-.446 2.086-1.337a9.12 9.12 0 0 0 1.179-2.882c.042-.126.125-.188.25-.188h.39a.282.282 0 0 1 .282.282c0 .02-.01.051-.032.093a10.911 10.911 0 0 1-.835 2.274c-.37.744-.836 1.364-1.399 1.859a2.91 2.91 0 0 1-1.984.742c-.75 0-1.39-.258-1.922-.773a2.528 2.528 0 0 1-.797-1.884c0-.395.084-.812.25-1.25a89.497 89.497 0 0 0 1.509-4.296c.4-1.261.6-2.37.6-3.329 0-.614-.119-1.125-.359-1.53-.24-.407-.641-.611-1.203-.611-1.145 0-2.145.352-3 1.056-.854.703-1.594 1.633-2.219 2.789l-2.171 8.735a1.498 1.498 0 0 1-.485.788c-.24.203-.515.305-.828.305a.978.978 0 0 1-.696-.273.884.884 0 0 1-.289-.664M181.261 575.66v-.594c0-.032.015-.068.046-.109l3.422-3.782c.51-.563.927-1.034 1.25-1.414.323-.381.641-.818.953-1.313a7.57 7.57 0 0 0 .742-1.507 4.808 4.808 0 0 0 .273-1.625c0-.604-.109-1.18-.327-1.727a2.961 2.961 0 0 0-.993-1.312c-.442-.329-.976-.492-1.602-.492-.635 0-1.205.19-1.711.57-.504.38-.861.877-1.069 1.491a.682.682 0 0 1 .234-.03c.323 0 .601.112.835.336.235.224.352.512.352.867 0 .333-.117.617-.352.852-.234.234-.512.35-.835.35-.344 0-.633-.119-.868-.359a1.165 1.165 0 0 1-.35-.843c0-.552.103-1.071.311-1.555.209-.484.509-.914.899-1.289a4.245 4.245 0 0 1 1.32-.867 4.043 4.043 0 0 1 1.563-.304c.843 0 1.625.176 2.343.531a4.262 4.262 0 0 1 1.719 1.508c.428.65.641 1.408.641 2.273a4.07 4.07 0 0 1-.421 1.813 6.463 6.463 0 0 1-1.079 1.562c-.437.468-.998 1-1.68 1.594-.682.593-1.128.994-1.336 1.202l-2.5 2.392h2.125a84.75 84.75 0 0 0 2.595-.033c.697-.02 1.072-.046 1.125-.077.166-.188.338-.865.514-2.032h.657l-.625 3.923h-8.171"/><path stroke-width="3" stroke-linejoin="round" fill="none" stroke="#edb120" d="M129.002 563.375h30.014"/><path d="M163.08 609.186v-1.125c2.198 0 3.297-.339 3.297-1.016v-17.579c0-.676-1.099-1.015-3.297-1.015v-1.125h10.047c1.197 0 2.455.216 3.773.648 1.318.432 2.42 1.091 3.305 1.977.886.886 1.328 1.943 1.328 3.171 0 .896-.268 1.696-.804 2.399-.537.704-1.225 1.292-2.064 1.765a9.818 9.818 0 0 1-2.57 1.025 6.464 6.464 0 0 1 2.516 1.593c.719.729 1.152 1.562 1.297 2.5l.453 2.843c.209 1.282.427 2.238.657 2.868.229.63.734.946 1.515.946.667 0 1.164-.311 1.492-.931a4.242 4.242 0 0 0 .493-2.023c0-.073.034-.138.102-.196a.325.325 0 0 1 .21-.085h.297c.208 0 .312.141.312.421 0 .584-.114 1.154-.344 1.711a3.522 3.522 0 0 1-.991 1.383 2.312 2.312 0 0 1-1.54.547c-1.542 0-2.867-.382-3.976-1.148-1.11-.766-1.665-1.888-1.665-3.368v-2.843a3.78 3.78 0 0 0-1.109-2.734c-.739-.761-1.645-1.141-2.719-1.141h-3.843v8.391c0 .677 1.098 1.016 3.296 1.016v1.125h-9.468zm6.172-11.36h3.421c1.772 0 3.121-.356 4.047-1.071.928-.713 1.391-1.924 1.391-3.633 0-1.697-.458-2.9-1.375-3.609-.916-.708-2.271-1.062-4.063-1.062h-1.796a6.81 6.81 0 0 0-.898.046.85.85 0 0 0-.524.274c-.135.151-.203.383-.203.695v8.36M193.173 609.545a6.61 6.61 0 0 1-3.585-1.024 7.26 7.26 0 0 1-2.563-2.735 7.458 7.458 0 0 1-.93-3.616c0-1.25.284-2.438.852-3.563a7.13 7.13 0 0 1 2.375-2.727 5.893 5.893 0 0 1 3.398-1.039c.98 0 1.832.164 2.555.492a4.798 4.798 0 0 1 1.789 1.368 6.064 6.064 0 0 1 1.063 2.062c.239.792.359 1.662.359 2.609 0 .282-.109.423-.328.423h-9.265v.343c0 1.771.356 3.292 1.07 4.563.714 1.271 1.878 1.906 3.492 1.906.656 0 1.263-.146 1.82-.437a4.506 4.506 0 0 0 1.454-1.219 4.366 4.366 0 0 0 .835-1.672.457.457 0 0 1 .117-.196.273.273 0 0 1 .196-.086h.281c.219 0 .328.136.328.407-.302 1.208-.953 2.2-1.953 2.976-1 .776-2.12 1.165-3.36 1.165zm-4.25-8.548h7.297c0-.802-.112-1.614-.336-2.436-.223-.824-.596-1.508-1.116-2.056-.521-.546-1.204-.819-2.048-.819-1.207 0-2.143.564-2.805 1.694a7.054 7.054 0 0 0-.992 3.617M200.236 609.186v-1.125c.719 0 1.313-.058 1.782-.173.468-.114.702-.396.702-.843v-10.532h-2.452v-1.125h2.452v-3.827c0-.688.144-1.331.43-1.931a5.148 5.148 0 0 1 1.156-1.569 5.455 5.455 0 0 1 1.673-1.056 5.172 5.172 0 0 1 1.96-.383c.719 0 1.367.214 1.945.641.579.428.868.995.868 1.703 0 .407-.139.748-.414 1.024a1.394 1.394 0 0 1-1.024.414c-.405 0-.752-.138-1.039-.414a1.367 1.367 0 0 1-.43-1.024c0-.666.287-1.114.86-1.344a2.97 2.97 0 0 0-.922-.171c-.625 0-1.159.222-1.602.664a4.183 4.183 0 0 0-.992 1.617 5.803 5.803 0 0 0-.328 1.89v3.766h3.687v1.125h-3.578v10.532c0 .437.313.716.938.835.625.12 1.344.181 2.156.181v1.125h-7.828M216.798 609.545a6.61 6.61 0 0 1-3.585-1.024 7.26 7.26 0 0 1-2.563-2.735 7.458 7.458 0 0 1-.93-3.616c0-1.25.284-2.438.852-3.563a7.13 7.13 0 0 1 2.375-2.727 5.893 5.893 0 0 1 3.398-1.039c.98 0 1.832.164 2.555.492a4.798 4.798 0 0 1 1.789 1.368 6.064 6.064 0 0 1 1.063 2.062c.239.792.359 1.662.359 2.609 0 .282-.109.423-.328.423h-9.265v.343c0 1.771.356 3.292 1.07 4.563.714 1.271 1.878 1.906 3.492 1.906.656 0 1.263-.146 1.82-.437a4.506 4.506 0 0 0 1.454-1.219 4.366 4.366 0 0 0 .835-1.672.457.457 0 0 1 .117-.196.273.273 0 0 1 .196-.086h.281c.219 0 .328.136.328.407-.302 1.208-.952 2.2-1.953 2.976-1 .776-2.12 1.165-3.36 1.165zm-4.25-8.548h7.297c0-.802-.112-1.614-.336-2.436-.223-.824-.596-1.508-1.116-2.056-.521-.546-1.204-.819-2.048-.819-1.207 0-2.143.564-2.805 1.694a7.054 7.054 0 0 0-.992 3.617M223.658 609.186v-1.125c.729 0 1.328-.058 1.797-.173.469-.114.703-.396.703-.843v-8.734c0-.574-.086-.987-.258-1.243a1.083 1.083 0 0 0-.742-.469c-.323-.057-.823-.086-1.5-.086v-1.125l4.578-.343v3.125c.344-.927.834-1.68 1.469-2.259.636-.578 1.406-.866 2.313-.866.635 0 1.202.187 1.702.562.5.375.75.87.75 1.484 0 .386-.138.721-.414 1.008-.276.287-.617.43-1.023.43-.395 0-.734-.14-1.015-.422a1.383 1.383 0 0 1-.423-1.016c0-.572.204-.979.61-1.219h-.187c-.865 0-1.571.313-2.118.939-.546.624-.934 1.4-1.164 2.327a11.087 11.087 0 0 0-.343 2.657v5.25c0 .677 1.036 1.016 3.109 1.016v1.125h-7.844M243.136 609.545a6.616 6.616 0 0 1-3.586-1.024 7.258 7.258 0 0 1-2.562-2.735 7.457 7.457 0 0 1-.929-3.616c0-1.25.283-2.438.85-3.563a7.138 7.138 0 0 1 2.375-2.727 5.9 5.9 0 0 1 3.4-1.039c.978 0 1.829.164 2.554.492.723.329 1.32.785 1.789 1.368a6.045 6.045 0 0 1 1.062 2.062c.24.792.359 1.662.359 2.609 0 .282-.109.423-.328.423h-9.265v.343c0 1.771.357 3.292 1.07 4.563.714 1.271 1.878 1.906 3.493 1.906.655 0 1.262-.146 1.82-.437a4.513 4.513 0 0 0 1.453-1.219c.412-.521.69-1.078.836-1.672a.45.45 0 0 1 .118-.196.269.269 0 0 1 .194-.086h.281c.219 0 .328.136.328.407-.302 1.208-.953 2.2-1.953 2.976-1 .776-2.119 1.165-3.359 1.165zm-4.25-8.548h7.298c0-.802-.113-1.614-.337-2.436-.224-.824-.596-1.508-1.117-2.056-.521-.546-1.203-.819-2.046-.819-1.209 0-2.144.564-2.805 1.694a7.045 7.045 0 0 0-.993 3.617M250.12 609.186v-1.125c.73 0 1.329-.058 1.798-.173.468-.114.702-.396.702-.843v-8.734c0-.574-.086-.987-.257-1.243a1.085 1.085 0 0 0-.743-.469c-.322-.057-.822-.086-1.5-.086v-1.125l4.641-.343v3.125a5.554 5.554 0 0 1 1.898-2.25 4.7 4.7 0 0 1 2.743-.875c1.479 0 2.591.354 3.336 1.062.745.708 1.117 1.792 1.117 3.25v7.688c0 .447.235.729.704.843.468.115 1.067.173 1.796.173v1.125h-7.328v-1.125c.729 0 1.328-.058 1.796-.173.469-.114.704-.396.704-.843v-7.594c0-1.042-.152-1.899-.454-2.571-.302-.672-.921-1.008-1.859-1.008-1.239 0-2.257.495-3.055 1.485a5.241 5.241 0 0 0-1.195 3.375v6.313c0 .447.235.729.704.843.468.115 1.062.173 1.78.173v1.125h-7.328M274.636 609.545c-1.291 0-2.464-.337-3.516-1.009a7.154 7.154 0 0 1-2.484-2.687 7.411 7.411 0 0 1-.906-3.57c0-1.26.3-2.468.899-3.625a7.215 7.215 0 0 1 2.484-2.774 6.29 6.29 0 0 1 3.523-1.039c1.25 0 2.388.245 3.414.735 1.027.49 1.539 1.292 1.539 2.406 0 .417-.148.779-.444 1.086-.298.308-.66.461-1.086.461-.428 0-.79-.153-1.087-.461a1.51 1.51 0 0 1-.445-1.086c0-.375.119-.701.359-.977s.536-.45.891-.523c-.74-.468-1.776-.703-3.109-.703-1.021 0-1.844.339-2.47 1.016-.624.677-1.062 1.516-1.312 2.516a12.2 12.2 0 0 0-.375 2.968 9.79 9.79 0 0 0 .461 2.992c.308.964.802 1.76 1.484 2.39.683.631 1.54.946 2.571.946 1.01 0 1.87-.31 2.578-.93.708-.62 1.193-1.43 1.454-2.43 0-.124.083-.186.25-.186h.389c.063 0 .12.028.172.085a.285.285 0 0 1 .078.195v.095c-.322 1.26-.963 2.26-1.921 3-.959.739-2.089 1.109-3.391 1.109M288.636 609.545a6.616 6.616 0 0 1-3.586-1.024 7.258 7.258 0 0 1-2.562-2.735 7.446 7.446 0 0 1-.929-3.616c0-1.25.283-2.438.85-3.563a7.138 7.138 0 0 1 2.375-2.727 5.897 5.897 0 0 1 3.4-1.039c.978 0 1.829.164 2.554.492.723.329 1.32.785 1.789 1.368a6.045 6.045 0 0 1 1.062 2.062c.24.792.359 1.662.359 2.609 0 .282-.109.423-.328.423h-9.265v.343c0 1.771.357 3.292 1.07 4.563.714 1.271 1.878 1.906 3.493 1.906.655 0 1.262-.146 1.82-.437a4.513 4.513 0 0 0 1.453-1.219c.412-.521.69-1.078.836-1.672a.45.45 0 0 1 .118-.196.269.269 0 0 1 .194-.086h.281c.219 0 .328.136.328.407-.302 1.208-.953 2.2-1.953 2.976-1 .776-2.119 1.165-3.359 1.165zm-4.25-8.548h7.298c0-.802-.113-1.614-.337-2.436-.224-.824-.596-1.508-1.117-2.056-.521-.546-1.203-.819-2.046-.819-1.209 0-2.144.564-2.805 1.694a7.045 7.045 0 0 0-.993 3.617M306.87 608.607c0-.125.011-.219.032-.281l4.641-18.5c.083-.364.135-.651.155-.86 0-.343-.692-.515-2.078-.515-.218 0-.327-.14-.327-.422.01-.052.034-.146.07-.282a.843.843 0 0 1 .141-.311.285.285 0 0 1 .241-.11l4.314-.344h.093c0 .021.036.05.109.086a.74.74 0 0 1 .125.07.712.712 0 0 1 .062.25l-2.5 9.984c1.313-1.552 2.87-2.327 4.672-2.327.75 0 1.399.13 1.946.391.547.26.974.653 1.281 1.179.308.526.462 1.154.462 1.882 0 .876-.196 1.933-.587 3.173a74.828 74.828 0 0 1-1.461 4.156c-.302.698-.452 1.338-.452 1.921 0 .636.244.954.734.954.833 0 1.528-.445 2.086-1.336.557-.89.95-1.851 1.18-2.883.041-.125.124-.187.25-.187h.389c.084 0 .151.028.204.085a.284.284 0 0 1 .078.196c0 .021-.01.052-.032.094a10.882 10.882 0 0 1-.835 2.273c-.37.745-.836 1.365-1.399 1.859a2.907 2.907 0 0 1-1.984.743c-.75 0-1.39-.258-1.921-.774a2.523 2.523 0 0 1-.798-1.883c0-.396.084-.812.25-1.25a89.501 89.501 0 0 0 1.509-4.297c.4-1.26.6-2.369.6-3.328 0-.614-.119-1.125-.359-1.531-.24-.406-.641-.61-1.202-.61-1.146 0-2.146.352-3 1.055-.855.704-1.595 1.634-2.22 2.789l-2.171 8.735a1.502 1.502 0 0 1-.484.789 1.248 1.248 0 0 1-.829.305.975.975 0 0 1-.696-.274.883.883 0 0 1-.289-.664M324.411 613.911v-.595c0-.031.015-.067.046-.109l3.422-3.782c.51-.562.927-1.033 1.25-1.414.323-.38.641-.817.953-1.312a7.55 7.55 0 0 0 .742-1.508 4.8 4.8 0 0 0 .273-1.625c0-.604-.109-1.179-.327-1.726a2.964 2.964 0 0 0-.993-1.313c-.442-.328-.976-.491-1.602-.491-.635 0-1.205.189-1.71.569a3.05 3.05 0 0 0-1.07 1.492.681.681 0 0 1 .234-.031c.323 0 .602.113.836.336.234.224.351.513.351.868 0 .333-.117.617-.351.851a1.142 1.142 0 0 1-.836.351c-.343 0-.633-.119-.868-.359a1.165 1.165 0 0 1-.35-.843c0-.553.103-1.071.311-1.555.209-.484.509-.914.899-1.29a4.28 4.28 0 0 1 1.32-.867 4.061 4.061 0 0 1 1.563-.304c.844 0 1.625.177 2.343.532a4.26 4.26 0 0 1 1.719 1.507c.428.651.641 1.409.641 2.273 0 .636-.14 1.24-.421 1.813a6.424 6.424 0 0 1-1.079 1.562c-.437.469-.998 1-1.68 1.595-.682.593-1.127.994-1.336 1.202l-2.5 2.391h2.125c1.032 0 1.897-.01 2.595-.032.698-.02 1.073-.046 1.125-.077.166-.188.338-.865.514-2.032h.657l-.625 3.923h-8.171"/><path stroke-width="3" stroke-dasharray="12,12" stroke-linejoin="bevel" fill="none" stroke="#7e2f8e" d="M129.002 601.625h30.014"/><path d="M163.72 646.858c0-.125.011-.219.032-.281l4.641-18.5c.083-.365.135-.651.155-.86 0-.343-.692-.515-2.078-.515-.218 0-.327-.141-.327-.422.01-.052.034-.146.07-.282a.857.857 0 0 1 .141-.312.287.287 0 0 1 .241-.109l4.313-.344h.094c0 .021.036.049.109.086a.74.74 0 0 1 .125.07.712.712 0 0 1 .062.25l-2.5 9.984c1.313-1.552 2.87-2.328 4.672-2.328.75 0 1.399.13 1.945.391.548.261.975.654 1.282 1.18.308.526.461 1.154.461 1.882 0 .875-.195 1.933-.586 3.172a74.553 74.553 0 0 1-1.461 4.157c-.302.698-.453 1.338-.453 1.921 0 .636.245.954.735.954.833 0 1.528-.445 2.086-1.336a9.136 9.136 0 0 0 1.179-2.883c.042-.125.125-.188.25-.188h.39c.084 0 .151.029.204.086a.284.284 0 0 1 .078.196.22.22 0 0 1-.032.093 10.89 10.89 0 0 1-.835 2.274c-.37.745-.836 1.365-1.399 1.859a2.906 2.906 0 0 1-1.984.742c-.75 0-1.39-.258-1.922-.773a2.526 2.526 0 0 1-.797-1.883c0-.396.084-.812.25-1.25a89.501 89.501 0 0 0 1.509-4.297c.4-1.26.6-2.369.6-3.328 0-.614-.119-1.125-.359-1.531-.24-.406-.641-.61-1.203-.61-1.145 0-2.145.352-3 1.055-.854.703-1.594 1.633-2.219 2.789l-2.171 8.735a1.497 1.497 0 0 1-.485.789c-.24.203-.515.304-.828.304a.978.978 0 0 1-.696-.273.884.884 0 0 1-.289-.664M182.261 650.458c.343.5.804.872 1.382 1.117a4.737 4.737 0 0 0 1.868.367c.853 0 1.46-.362 1.819-1.086.36-.724.54-1.549.54-2.476a7.33 7.33 0 0 0-.109-1.25 4.081 4.081 0 0 0-.384-1.157 2.343 2.343 0 0 0-.741-.859c-.313-.219-.693-.328-1.141-.328h-1.454c-.135 0-.203-.068-.203-.203v-.188c0-.115.068-.172.203-.172l1.204-.093c.52 0 .95-.195 1.288-.586a3.61 3.61 0 0 0 .742-1.414 5.783 5.783 0 0 0 .236-1.579c0-.708-.165-1.286-.493-1.734-.328-.448-.831-.672-1.507-.672a4.19 4.19 0 0 0-1.595.313c-.51.208-.917.531-1.219.968l.078-.023a.356.356 0 0 1 .079-.008c.333 0 .609.115.828.344.219.229.329.506.329.828 0 .313-.11.584-.329.813a1.097 1.097 0 0 1-.828.343c-.323 0-.599-.114-.829-.343a1.115 1.115 0 0 1-.343-.813c0-.624.19-1.172.57-1.641.38-.469.87-.822 1.469-1.062a4.799 4.799 0 0 1 1.79-.359c.447 0 .919.068 1.413.203.495.135.943.326 1.344.57.401.245.729.56.984.945.256.386.384.828.384 1.328 0 .615-.139 1.183-.415 1.704a4.243 4.243 0 0 1-1.133 1.351 5.065 5.065 0 0 1-1.577.852 5.402 5.402 0 0 1 1.811.718 4.198 4.198 0 0 1 1.383 1.375 3.38 3.38 0 0 1 .524 1.813c0 .802-.224 1.531-.672 2.187a4.652 4.652 0 0 1-1.758 1.54 4.958 4.958 0 0 1-2.288.554c-.689 0-1.376-.13-2.064-.39a4.04 4.04 0 0 1-1.695-1.18c-.442-.526-.664-1.154-.664-1.883 0-.365.123-.669.367-.914.245-.244.55-.367.915-.367.239 0 .455.057.648.172a1.293 1.293 0 0 1 .632 1.109 1.2 1.2 0 0 1-.375.906c-.25.24-.552.36-.905.36h-.109"/><path stroke-width="3" stroke-linejoin="round" fill="none" stroke="#77ac30" d="M129.002 639.876h30.014"/><path d="M163.72 685.109c0-.125.011-.219.032-.281l4.641-18.5c.083-.365.135-.651.155-.86 0-.343-.692-.515-2.078-.515-.218 0-.327-.141-.327-.422.01-.052.034-.146.07-.282a.849.849 0 0 1 .141-.312.287.287 0 0 1 .241-.109l4.313-.344h.094c0 .021.036.049.109.086a.67.67 0 0 1 .125.07.707.707 0 0 1 .062.25l-2.5 9.984c1.313-1.552 2.87-2.328 4.672-2.328.75 0 1.399.13 1.945.391.548.261.975.654 1.282 1.18.308.526.461 1.153.461 1.882 0 .875-.195 1.933-.586 3.172a74.838 74.838 0 0 1-1.461 4.157c-.302.697-.453 1.338-.453 1.921 0 .636.245.954.735.954.833 0 1.528-.446 2.086-1.336a9.136 9.136 0 0 0 1.179-2.883c.042-.125.125-.188.25-.188h.39c.084 0 .151.029.204.086a.284.284 0 0 1 .078.196c0 .02-.01.052-.032.093a10.911 10.911 0 0 1-.835 2.274c-.37.744-.836 1.364-1.399 1.859a2.91 2.91 0 0 1-1.984.742c-.75 0-1.39-.258-1.922-.773a2.528 2.528 0 0 1-.797-1.883c0-.396.084-.813.25-1.25a89.501 89.501 0 0 0 1.509-4.297c.4-1.26.6-2.37.6-3.328 0-.615-.119-1.125-.359-1.531-.24-.407-.641-.61-1.203-.61-1.145 0-2.145.351-3 1.055-.854.703-1.594 1.633-2.219 2.789l-2.171 8.735a1.5 1.5 0 0 1-.485.789c-.24.203-.515.304-.828.304a.978.978 0 0 1-.696-.273.884.884 0 0 1-.289-.664M180.775 686.787v-.781l6.797-10.141c.052-.073.131-.109.235-.109h.313c.166 0 .25.083.25.25v10h2.155v.781h-2.155v2.156c0 .302.216.492.648.57.432.078.93.118 1.493.118v.781h-6.064v-.781a8.42 8.42 0 0 0 1.5-.118c.428-.078.641-.268.641-.57v-2.156h-5.813zm.736-.781h5.202v-7.782l-5.202 7.782z"/><path stroke-width="3" stroke-linejoin="round" fill="none" stroke="#4dbeee" d="M129.002 678.127h30.014"/><path stroke-width=".5" stroke-miterlimit="10" fill="none" stroke="#323232" d="M125 699h215V466H125z"/></svg>