<svg xmlns="http://www.w3.org/2000/svg" xmlns:xlink="http://www.w3.org/1999/xlink" width="960" height="1072" viewBox="0 0 720 804"><path d="M0 804h720V0H0z" fill="#fff"/><path d="M0 804h720V0H0z" fill="#fff"/><path d="M97 705h555V60H97z" fill="#fff"/><path stroke-width=".5" stroke-linejoin="round" fill="none" stroke="#e5e5e5" d="M97 705V60M282 705V60M467 705V60M652 705V60M652 705H97M652 597.5H97M652 490H97M652 382.5H97M652 275H97M652 167.5H97M652 60H97"/><path stroke-width=".5" stroke-linecap="square" stroke-linejoin="round" fill="none" stroke="#323232" d="M97 705h555M97 705v-6.45M282 705v-6.45M467 705v-6.45M652 705v-6.45"/><symbol id="a"><path d="M.232.746A.203.203 0 0 1 .069.667C.023.603 0 .507 0 .373 0 .129.08 0 .232 0c.15 0 .232.129.232.367 0 .14-.022.234-.069.3a.2.2 0 0 1-.163.079m0-.078C.327.668.374.571.374.375.374.169.328.073.23.073c-.093 0-.14.1-.14.299 0 .199.047.296.142.296z"/></symbol><symbol id="b"><path d="M.472.086H.099c.009.06.041.098.128.151l.1.056c.099.055.15.129.15.218a.21.21 0 0 1-.066.155.227.227 0 0 1-.161.056C.16.722.093.69.054.628A.282.282 0 0 1 .016.472h.088a.257.257 0 0 0 .021.102.135.135 0 0 0 .122.071c.08 0 .14-.058.14-.136C.387.451.354.401.291.365L.199.311C.051.226.008.158 0 0h.472v.086z"/></symbol><symbol id="c"><path d="M.299.175V0h.088v.175h.105v.079H.387v.469H.322L0 .268V.175h.299m0 .079H.077l.222.319V.254z"/></symbol><symbol id="d"><path d="M.455.558C.438.676.362.746.254.746a.223.223 0 0 1-.19-.103A.52.52 0 0 1 0 .353C0 .231.017.154.06.09A.2.2 0 0 1 .238 0C.373 0 .47.101.47.242.47.375.38.469.253.469A.189.189 0 0 1 .09.39c.001.179.057.278.158.278.062 0 .105-.04.119-.11h.088M.242.391C.327.391.38.331.38.235.38.144.32.078.239.078.157.078.095.147.095.239c0 .09.06.152.147.152z"/></symbol><use xlink:href="#a" transform="matrix(35 0 0 -35 88.505 748.805)" fill="#323232"/><use xlink:href="#b" transform="matrix(35 0 0 -35 253.69 747.965)" fill="#323232"/><use xlink:href="#a" transform="matrix(35 0 0 -35 273.465 748.805)" fill="#323232"/><use xlink:href="#a" transform="matrix(35 0 0 -35 292.925 748.805)" fill="#323232"/><use xlink:href="#c" transform="matrix(35 0 0 -35 438.48 748)" fill="#323232"/><use xlink:href="#a" transform="matrix(35 0 0 -35 458.465 748.805)" fill="#323232"/><use xlink:href="#a" transform="matrix(35 0 0 -35 477.925 748.805)" fill="#323232"/><use xlink:href="#d" transform="matrix(35 0 0 -35 624.005 748.805)" fill="#323232"/><use xlink:href="#a" transform="matrix(35 0 0 -35 643.465 748.805)" fill="#323232"/><use xlink:href="#a" transform="matrix(35 0 0 -35 662.925 748.805)" fill="#323232"/><path d="M340.989 786.984c0-.386.037-.75.109-1.094l2.812-11.188h-4.093c-.26 0-.391-.172-.391-.515.104-.573.276-.86.516-.86h4.312l1.563-6.359a1.73 1.73 0 0 1 .617-.875c.307-.24.648-.359 1.023-.359.334 0 .612.096.836.289.224.193.336.456.336.79a.88.88 0 0 1-.015.178l-.032.149-1.562 6.187h4.015c.272 0 .407.172.407.516-.01.063-.037.17-.078.32a1.53 1.53 0 0 1-.157.383.305.305 0 0 1-.281.156h-4.25l-2.797 11.266c-.187.74-.281 1.375-.281 1.906 0 1.115.381 1.672 1.141 1.672 1.146 0 2.159-.536 3.039-1.609a12.094 12.094 0 0 0 2.023-3.532c.104-.145.209-.218.313-.218h.468c.105 0 .188.034.25.1a.326.326 0 0 1 .094.228.22.22 0 0 1-.031.125 12.29 12.29 0 0 1-2.5 4.148c-1.094 1.192-2.344 1.789-3.75 1.789-1.031 0-1.899-.336-2.602-1.007-.702-.672-1.054-1.534-1.054-2.586M377.396 799.812a19.06 19.06 0 0 1-3.742-3.938 22.752 22.752 0 0 1-2.57-4.726 27.058 27.058 0 0 1-1.492-5.25 31.296 31.296 0 0 1 0-11.047 26.878 26.878 0 0 1 1.508-5.274 22.454 22.454 0 0 1 2.601-4.742 18.885 18.885 0 0 1 3.695-3.867c0-.052.063-.078.188-.078h.359a.29.29 0 0 1 .219.101.345.345 0 0 1 .094.243c0 .114-.026.197-.078.25a19.418 19.418 0 0 0-3.172 3.992 22.03 22.03 0 0 0-2.039 4.547 28.76 28.76 0 0 0-1.117 4.992 40.689 40.689 0 0 0-.344 5.375c0 8.26 2.208 14.536 6.625 18.828a.445.445 0 0 1 .125.328c0 .063-.036.136-.11.219-.073.083-.14.125-.203.125h-.359c-.125 0-.188-.026-.188-.078M381.572 790.249v-6.36c0-.197.115-.296.344-.296h.468c.157 0 .261.099.313.297.719 3.77 2.469 5.656 5.25 5.656 1.23 0 2.261-.279 3.094-.836.834-.557 1.25-1.42 1.25-2.586 0-.844-.323-1.56-.969-2.148a5.204 5.204 0 0 0-2.313-1.211l-2.609-.516a8.729 8.729 0 0 1-2.383-.867 5.113 5.113 0 0 1-1.758-1.57c-.458-.657-.687-1.418-.687-2.282 0-1.145.302-2.083.906-2.812.604-.73 1.388-1.255 2.352-1.578a9.747 9.747 0 0 1 3.117-.485c1.333 0 2.495.354 3.484 1.063l1.125-.97c0-.062.063-.093.188-.093h.297c.073 0 .141.037.203.11a.338.338 0 0 1 .093.219v5.109c0 .24-.098.359-.296.359h-.485c-.229 0-.344-.12-.344-.359 0-1.365-.377-2.458-1.132-3.28-.755-.824-1.81-1.236-3.164-1.236-1.166 0-2.179.216-3.039.65-.86.43-1.29 1.173-1.29 2.225 0 .719.308 1.31.922 1.774.615.463 1.339.8 2.172 1.008l2.641.484a8.242 8.242 0 0 1 2.484 1.03 5.48 5.48 0 0 1 1.828 1.829c.448.74.672 1.573.672 2.5 0 .938-.161 1.754-.484 2.446a4.7 4.7 0 0 1-1.352 1.726c-.578.459-1.26.795-2.047 1.008a9.412 9.412 0 0 1-2.476.32c-1.625 0-3.016-.547-4.172-1.64l-1.422 1.547c0 .062-.073.093-.219.093h-.218c-.229 0-.344-.11-.344-.328M397.992 799.89c-.228 0-.343-.115-.343-.344 0-.115.026-.198.078-.25 4.448-4.344 6.672-10.646 6.672-18.906 0-8.26-2.198-14.537-6.594-18.828-.104-.063-.156-.172-.156-.328 0-.094.037-.175.109-.243a.342.342 0 0 1 .234-.101h.36c.084 0 .146.026.187.078a18.914 18.914 0 0 1 4.672 5.367 24.712 24.712 0 0 1 2.727 6.742c.578 2.385.867 4.823.867 7.313 0 1.843-.153 3.656-.461 5.437a26.856 26.856 0 0 1-1.484 5.274 22.328 22.328 0 0 1-2.586 4.797 19.125 19.125 0 0 1-3.735 3.914c-.041.052-.103.078-.187.078h-.36" fill="#323232"/><path stroke-width=".5" stroke-linecap="square" stroke-linejoin="round" fill="none" stroke="#323232" d="M97 705V60M97 705h6.45M97 597.5h6.45M97 490h6.45M97 382.5h6.45M97 275h6.45M97 167.5h6.45M97 60h6.45"/><symbol id="e"><path d="M.354.404c.074.045.097.081.097.149 0 .114-.087.193-.213.193C.113.746.025.667.025.554c0-.069.023-.104.096-.15C.04.363 0 .304 0 .224 0 .092.097 0 .238 0c.14 0 .238.092.238.224 0 .08-.04.139-.122.18M.238.668C.313.668.361.623.361.551.361.483.312.438.238.438.163.438.115.483.115.553s.048.115.123.115m0-.304C.326.364.386.306.386.222.386.135.327.078.236.078.15.078.09.137.09.221c0 .086.059.143.148.143z"/></symbol><symbol id="f"><path d="M.157.515V0h.088v.723H.187C.156.612.136.597 0 .579V.515h.157z"/></symbol><use xlink:href="#a" transform="matrix(35 0 0 -35 69.505 718.805)" fill="#323232"/><use xlink:href="#b" transform="matrix(35 0 0 -35 69.19 610.465)" fill="#323232"/><use xlink:href="#c" transform="matrix(35 0 0 -35 68.98 503)" fill="#323232"/><use xlink:href="#d" transform="matrix(35 0 0 -35 69.505 396.305)" fill="#323232"/><use xlink:href="#e" transform="matrix(35 0 0 -35 69.295 288.805)" fill="#323232"/><use xlink:href="#f" transform="matrix(35 0 0 -35 52.57 180.5)" fill="#323232"/><use xlink:href="#a" transform="matrix(35 0 0 -35 69.965 181.305)" fill="#323232"/><use xlink:href="#f" transform="matrix(35 0 0 -35 52.57 73)" fill="#323232"/><use xlink:href="#b" transform="matrix(35 0 0 -35 69.65 72.965)" fill="#323232"/><path d="M28.09 425.221a10.57 10.57 0 0 1-2.61-.343 28.84 28.84 0 0 1-2.992-.969 443.28 443.28 0 0 0-2.867-1.078c-.958-.344-1.74-.516-2.344-.516-.77 0-1.156.286-1.156.859 0 1.031.529 1.88 1.586 2.547a11.714 11.714 0 0 0 3.555 1.469c.166.052.25.161.25.328v.453c0 .218-.125.328-.375.328h-.11c-1.552-.417-2.927-1.057-4.125-1.921-1.198-.865-1.797-1.959-1.797-3.282 0-.927.305-1.71.915-2.351.61-.641 1.383-.961 2.32-.961.49 0 1 .109 1.531.328.313.115 1.003.375 2.07.781 1.068.406 1.951.716 2.649.93.698.213 1.383.39 2.055.531a9.818 9.818 0 0 0 2.023.211c.865 0 1.594-.185 2.187-.555.594-.37.891-.966.891-1.789 0-1.656-1.026-3.115-3.078-4.375a2.184 2.184 0 0 0-.297-.07 5.536 5.536 0 0 0-.281-.039l-11.313-2.813c-.343-.084-.637-.284-.882-.601a1.647 1.647 0 0 1-.368-1.024c0-.323.102-.602.305-.836.203-.234.471-.351.805-.351a.93.93 0 0 1 .297.031l11.234 2.828c.77.177 1.406.266 1.906.266 1.115 0 1.672-.375 1.672-1.125 0-.833-.515-1.458-1.547-1.875-1.031-.417-2.23-.771-3.594-1.063-.145-.052-.218-.151-.218-.296v-.485c0-.094.044-.174.133-.242a.41.41 0 0 1 .242-.102c1.115.281 2.073.552 2.875.813.802.26 1.526.669 2.172 1.226.645.557.968 1.258.968 2.102a3.82 3.82 0 0 1-.679 2.219 3.322 3.322 0 0 1-1.836 1.328 7.266 7.266 0 0 1 1.828 2.07c.458.786.687 1.617.687 2.492 0 1.5-.409 2.695-1.226 3.586-.818.89-1.972 1.336-3.461 1.336M42.012 382.38a19.05 19.05 0 0 1-3.938 3.742 22.798 22.798 0 0 1-4.726 2.57 27.058 27.058 0 0 1-5.25 1.492 31.296 31.296 0 0 1-11.047 0 26.878 26.878 0 0 1-5.274-1.508 22.455 22.455 0 0 1-4.742-2.601 18.888 18.888 0 0 1-3.867-3.695c-.052 0-.078-.063-.078-.188v-.359a.29.29 0 0 1 .101-.219.344.344 0 0 1 .243-.094c.114 0 .197.026.25.078 1.24 1.271 2.57 2.329 3.992 3.172a22.085 22.085 0 0 0 4.547 2.039 28.76 28.76 0 0 0 4.992 1.117c1.719.229 3.51.344 5.375.344 8.26 0 14.536-2.209 18.828-6.625a.44.44 0 0 1 .328-.125c.063 0 .136.036.219.11.083.072.125.14.125.203v.359c0 .125-.026.188-.078.188M32.777 365.767 8.309 374.97c-.542.229-.883.666-1.024 1.312-.14.646-.211 1.469-.211 2.469H5.699v-10.719h1.375c0 2.156.333 3.235 1 3.235a.698.698 0 0 1 .235-.032l19.906-7.484-18.844-7.062c-.104-.053-.26-.079-.47-.079-.634 0-1.097.292-1.389.875-.292.583-.438 1.239-.438 1.969H5.699v-8.422h1.375c0 .979.18 1.838.539 2.578.36.74.945 1.271 1.758 1.594l23.406 8.813c.281.072.422.281.422.625v.5c0 .343-.14.551-.422.625M42.09 348.095c0 .228-.115.343-.344.343-.115 0-.198-.026-.25-.078-4.344-4.448-10.646-6.672-18.906-6.672-8.26 0-14.536 2.198-18.828 6.594-.063.104-.172.156-.328.156a.32.32 0 0 1-.243-.109.342.342 0 0 1-.101-.234v-.36c0-.083.026-.146.078-.187a18.899 18.899 0 0 1 5.367-4.672 24.713 24.713 0 0 1 6.742-2.727 30.943 30.943 0 0 1 7.313-.867c1.843 0 3.656.154 5.437.461a26.79 26.79 0 0 1 5.274 1.485 22.322 22.322 0 0 1 4.797 2.585 19.125 19.125 0 0 1 3.914 3.735c.052.041.078.104.078.187v.36" fill="#323232"/><path stroke-width="3" stroke-linejoin="round" fill="none" stroke="#0072bd" d="M107.175 60h22.2l.925 75.656.925 23.471.925 20.69.925 32.138.925 109.203.925 9.284.925-7.265.925 1.422.925-8.731.925.755.925-14.54.925-61.598.925 40.01.925-6.784.925 17.648.925-41.512.925 15.926.925 12.333.925-7.226.925 3.241.925 9.172.925-16.903.925 8.739.925 25.349.925 12.808.925-2.327.925-7.639.925-10.856.925-5.949.925-13.442.925 34.247.925-37.501.925.781.925 46.771.925-6.468.925-9.414.925-8.248.925-1.996.925-4.14.925-7.205.925-1.312.925-3.729.925-9.261.925-2.728.925 1.823.925-6.536.925-4.655.925-3.022.925 30.029.925-.528.925-2.209.925-49.626.925 2.737.925 5.093.925 21.509.925 19.554.925 30.325.925 7.022.925-.792.925-19.549.925 1.851.925-.745.925-1.329.925 3.692.925 2.191.925-.422.925-1.702.925-3.498.925 6.339.925 6.162.925-7.417.925.766.925 3.138.925 10.885.925-.347.925-12.436.925 4.416.925-.692.925 1.442.925 9.41.925 8.663.925 6.421.925 5.241.925 11.157.925 1.254.925-17.121.925-3.636.925-8.343.925 2.659.925 2.942.925 6.098.925 6.862.925 12.275.925 7.524.925-45.261.925-7.591.925 8.94.925 7.56.925 13.754.925 9.047.925-23.712.925 2.867.925 9.006.925 6.944.925 4.467.925-10.696.925-6.25.925 13.636.925 15.905.925-16.075.925 8.657.925 13.123.925 8.369.925-39.443.925 29.126.925 9.33.925-51.704.925-5.365.925 25.509.925-76.726.925-11.529.925 100.059.925 28.691.925-70.913.925 2.347.925 3.822.925 14.045.925 14.688.925 14.454.925-.221.925 7.296.925 4.324.925 8.033.925-6.8.925-5.161.925 3.097.925 9.137.925-7.218.925 13.98.925-32.895.925 17.786.925-7.158.925 7.141.925 13.943.925-77.684.925-2.417.925 22.806.925 22.35.925 23.707.925 23.744.925 3.283.925-32.775.925-19.364.925 19.795.925 16.367.925-15.199.925-8.512.925 4.908.925-8.508.925 29.158.925 21.7.925 10.926.925 13.025.925 2.023.925-15.936.925 16.064.925-7.206.925-29.779.925-2.773.925-12.493.925 7.234.925-27.102.925 19.062.925 8.02.925-1.363.925 2.011.925 13.629.925 6.906.925 2.059.925-37.517.925-4.863.925 10.753.925 6.284.925 4.146.925 12.293.925 9.479.925 19.752.925 14.051.925 15.65.925-10.756.925-88.431.925-1.093.925 21.105.925 8.503.925 18.633.925-12.594.925-3.442.925 12.175.925 12.598.925 10.815.925-4.825.925 9.681.925 16.386.925-21.188.925-19.846.925-10.531.925.371.925 6.357.925-8.809.925 6.453.925 14.671.925 14.101.925 10.897.925-.608.925-.935.925-17.407.925 3.328.925 9.428.925 11.101.925 6.193.925 11.19.925-9.643.925-29.36.925-5.646.925 7.956.925 5.893.925-35.991.925 9.794.925 7.496.925-1.801.925 17.733.925 7.301.925-10.784.925 10.352.925-11.774.925 3.663.925 11.249.925-2.291.925 12.647.925.81.925-8.378.925-9.535.925-10.151.925 1.318.925 10.565.925-19.391.925-2.044.925 9.337.925-8.534.925 11.036.925-9.359.925-4.063.925 21.883.925 8.282.925-26.222.925-21.957.925 32.959.925-4.178.925-2.444.925-9.644.925 8.816.925-8.506.925 13.149.925-2.371.925-.599.925-9.331.925 43.92.925 80.895.925 45.419.925 44.84.925-36.785.925-45.392.925-29.846.925-67.148.925-17.765.925-12.993.925-34.161.925 11.755.925 16.381.925-1.655.925-3.979.925-16.978.925 1.303.925 16.972.925 2.232.925-8.064.925-11.709.925 2.479.925 1.417.925 26.514.925-8.758.925 6.276.925-10.333.925-16.624.925 75.009.925-30.062.925-3.743.925-43.482.925-15.273.925 24.233.925 6.268.925-12.264.925-1.74.925-8.001.925-2.501.925-18.43.925 6.952.925-14.164.925-7.786.925-15.338.925 82.866.925 10.566.925-9.565.925-6.972.925-8.31.925-24.584.925-13.432.925-8.779.925-14.808.925 2.162.925 9.438.925-2.372.925-6.588.925-3.561.925 11.403.925-4.883.925 7.537.925 9.274.925-10.067.925-.794.925 3.107.925 2.67.925-3.727.925-4.373.925-9.279.925-21.972.925 31.552.925 84.602.925.695.925-16.772.925-88.301.925-19.102.925 54.452.925 15.498.925-13.555.925-20.515.925-15.335.925-14.642.925-14.544.925-18.116.925-5.639.925 32.57.925 13.612.925 21.698.925-.292.925-25.176.925-5.554.925 36.754.925-14.158.925-9.896.925 13.019.925-22.904.925 3.966.925 5.396.925 22.906.925-61.309.925-5.403.925 8.481.925-1.264.925-9.87.925-23.845.925 20.585.925-11.121.925 8.254.925-4.371.925-4.665.925 14.959.925 20.359.925 5.186.925-6.039.925 47.434.925-3.777.925-12.057.925-13.724.925-33.89.925-6.83.925 2.305.925-32.8.925 25.905.925-24.909.925 52.668.925 1.394.925-4.606.925-.252.925-19.555.925-24.013.925 7.272.925-4.299.925-5.987.925-8.336.925-1.009.925 15.082.925-6.961.925 108.566.925-.691.925-19.617.925-120.203.925-14.868.925 89.951.925 3.721.925-1.692.925 8.757.925-16.219.925-13.561.925-5.685.925-20.072.925 52.283.925 26.577.925 50.255.925 42.144.925-23.94.925-7.403.925-6.277.925.424.925-8.489.925 44.909.925-3.833.925-10.509.925-48.096.925-10.759.925 42.545.925-2.779.925-3.365.925-10.458.925 2.072.925-3.047.925-3.169.925-11.536.925-.212.925-2.853.925-3.757.925 5.525.925-18.908.925-3.522.925-82.058.925 17.657.925 29.314.925 40.522.925 90.855.925 40.934.925-4.534.925-119.554.925-33.088.925 23.348.925 14.883.925 65.577.925 63.832.925-96.068.925-47.916.925-3.852.925 22.015.925 12.063.925-2.833.925 9.933.925 11.004.925 7.361.925-14.195.925.328.925 2.366.925-25.11.925 4.552.925 18.488.925 4.376.925-21.787.925-2.712.925 19.832.925 11.197.925-9.104.925 7.44.925-2.476.925-8.782.925-.101.925-10.941.925 3.489.925-1.215.925 18.377.925-1.634.925 3.763.925 22.987.925 15.367.925-23.383.925-.33.925-7.891.925-.208.925 2.432.925 25.243.925 8.834.925-40.763.925-6.108.925 1.357.925-.196.925-12.081.925-5.249.925 9.636.925 7.606.925 25.8.925 15.772.925-16.006.925-11 .925 10.794.925.804.925-15.188.925-21.734.925-.153.925 8.318.925 20.638.925 3.521.925-4.081.925-2.007.925-95.526.925-.199.925 111.596.925 28.65.925-103.621.925 5.683.925 24.81.925 24.469.925 15.882.925 4.185.925-12.144.925.128.925 8.209.925 11.097.925-.438.925 1.375.925 3.553.925 31.03.925 22.928.925.622.925-48.998.925-25.607.925-12.709.925 21.141.925-13.854.925 12.084.925 1.106.925 41.43.925-25.29.925-27.897.925-5.714.925 3.517.925 14.099.925 21.759.925-15.309.925 2.808.925 25.271.925 8.9.925 8.651.925-1.066.925 15.713.925 2.965.925-19.81.925 16.8.925 6.213.925 2.314"/><path stroke-width="3" stroke-linejoin="round" fill="none" stroke="#d95319" d="M107.175 60h29.6l.925 15.075.925 61.508.925 54.861.925 54.426.925 82.473.925 3.515.925-51.627.925-38.846.925 2.563.925 8.246.925 4.827.925 11.138.925 12.724.925-4.336.925 4.27.925 1.032.925-17.805.925-15.721.925-2.722.925 9.859.925 3.024.925-2.03.925 5.979.925 2.496.925 9.727.925-27.407.925-.632.925.992.925 6.552.925 7.378.925 7.748.925 3.033.925-7.711.925-19.86.925 17.177.925-19.145.925 22.875.925-3.813.925-6.101.925-11.682.925 11.451.925 12.469.925-11.456.925-1.435.925 1.568.925.331.925 6.524.925 8.667.925-26.996.925 25.143.925 5.48.925.951.925-22.99.925-1.007.925 1.889.925 13.544.925-2.904.925 5.789.925-24.409.925 7.329.925-1.161.925 16.51.925 5.86.925-9.816.925-7.585.925-11.311.925 10.933.925 9.082.925 5.247.925 2.632.925.811.925-25.259.925-20.878.925 23.478.925 9.013.925 8.599.925 12.361.925 6.833.925-31.822.925-21.389.925 16.455.925 4.678.925 9.521.925 6.5.925 1.786.925-10.215.925-16.106.925 10.989.925 2.367.925-5.164.925 1.811.925-21.268.925 18.077.925 3.443.925-3.689.925 4.752.925 1.6.925-5.769.925 1.651.925-16.042.925-12.424.925 26.788.925 1.484.925 5.775.925-3.753.925.597.925-6.116.925 9.537.925-10.746.925-1.052.925 6.982.925-6.196.925.864.925 2.233.925-1.748.925 5.158.925 5.733.925-.727.925 4.397.925-15.565.925-1.537.925 15.539.925 10.529.925-19.513.925-1.37.925 2.491.925.407.925-6.769.925 3.088.925.117.925-6.897.925 1.92.925.263.925-.439.925 1.152.925 2.231L263.5 705H282.925l.925-20.694.925-64.596.925-76.436.925-22.031.925-8.396.925-35.691.925-5.698.925-5.28.925-15.241.925-1.141.925-2.641.925-12.898.925-3.423.925-1.35.925-4.59.925-3.134.925-2.083.925 3.421.925-7.612.925 16.674.925-1.863.925-3.244.925.148.925-1.121.925-2.976.925-1.472.925-1.893.925-2.345.925.612.925 3.855.925-.876.925-.845.925 17.863.925 2.968.925 1.246.925-23.016.925-9.709.925 1.676.925-3.561.925 30.889.925 5.614.925-14.666.925-6.454.925.661.925-2.2.925-3.159.925 1.183.925 3.705.925-5.827.925 5.797.925 60.111.925 86.988.925 55.586.925 13.575.925-10.244.925-12.647.925-31.295.925-64.315.925-61.238.925-17.031.925 12.349.925-33.714.925 3.769.925-7.734.925-.102.925-10.212.925 21.262.925-1.21.925-15.251.925 4.994.925-1.806.925 7.962.925-8.677.925 11.098.925-11.319.925-1.458.925 8.303.925-13.116.925-6.725.925 24.488.925-2.947.925-5.96.925 6.516.925-5.83.925 6.132.925-1.776.925 3.987.925-.178.925-5.981.925-.115.925 2.16.925-5.601.925.11.925 6.522.925-.002.925 2.404.925-4.211.925-30.551.925 24.543.925-2.871.925-7.606.925 6.922.925-4.591.925 1.702.925-4.051.925-.191.925 1.28.925 4.265.925-3.228.925.746.925.092.925 1.532.925 1.666.925-1.629.925-.684.925-5.592.925-1.807.925 7.875.925-4.851.925 5.858.925.487.925 7.342.925-5.002.925-2.303.925-.833.925.042.925 6.891.925 3.754L402.25 60H426.3l.925 18.711.925 58.522.925 23.053.925 67.587.925 54.156.925 9.097.925 10.818.925-60.913.925-6.745.925.616.925.029.925 5.188.925-1.01.925 14.69.925-14.75.925 8.998.925 6.302.925-9.158.925-3.167.925 6.918.925-3.123.925 8.331.925 5.855.925.767.925-20.427.925-24.591.925 3.66.925 13.904.925.066.925 16.072.925-23.272.925 15.902.925 8.548.925 1.513.925-17.241.925 1.441.925 12.309.925 3.812.925 6.953.925 1.571.925-30.164.925-14.179.925 6.601.925 18.514.925 10.373.925 47.429.925 75.305.925 1.04.925 11.271.925-46.28.925-15.51.925 2.751.925 6.933.925 12.743.925 7.497.925-1.019.925 6.242.925 7.951.925-.568.925-7.516.925-5.933.925 13.55.925-4.572.925.197.925-4.432.925-39.636.925 2.762.925 9.236.925 36.793.925 11.402.925-9.688.925-23.884.925-22.29.925 4.751.925 33.579.925 22.588.925-7.884.925-20.823.925-15.723.925-27.906.925 23.706.925 26.232.925 19.441.925-20.32.925 16.152.925-14.134.925-10.198.925-5.02.925-3.404.925 8.367.925 4.329.925.557.925-14.357.925-4.486.925 38.497.925.783.925-14.563.925-8.4.925-26.883.925 20.357.925-23.95.925 21.638.925 1.637.925 9.562.925 13.395.925-4.751.925-15.172.925-1.933.925-17.763.925 23.384.925.678.925-7.115.925-12.995.925-8.449.925 35.569.925 2.299.925-2.979.925-4.497.925-10.904.925 14.036.925-15.841.925-2.399.925 2.963L541 705H571.525l.925-20.387.925-8.456.925-63.252.925-27.605.925-25.926.925 4.647.925-6.098.925-4.016.925-12.056.925 2.6.925-7.589.925-15.231.925 22.275.925 8.925.925.968.925 5.296.925-16.747.925 29.209.925-30.073.925 21.794.925 4.225.925-18.705.925 2.849.925-2.849.925-7.007.925-2.434.925.451.925 10.506.925-5.062.925-4.232.925-16.77.925 13.403.925 9.995.925-14.002.925-1.945.925 14.96.925-1.469.925 8.44.925 10.558.925.153.925-21.869.925.99.925-14.579.925 6.216.925 8.818.925-13.128.925 16.424.925 18.48.925-12.367.925-7.146.925 15.467.925-9.307.925-13.747.925-13.341.925 9.435.925-1.436.925 1.517.925 22.539.925 1.582.925 1.434.925-19.519.925 1.04.925 6.883.925 2.142.925-14.818.925-4.268.925 4.286.925 13.809.925-11.986.925 7.433.925-14.261.925 4.558.925 2.834.925.432.925-11.295.925 6.704.925 3.039.925 9.737.925-10.582.925 7.971.925-5.353.925-7.117.925 12.868.925-21.538.925 8.542.925-7.619.925 13.386"/><path d="M572 148h72V68h-72z" fill="#fff"/><path d="M612.581 92.95c0-.698.094-1.414.281-2.149.187-.734.45-1.552.789-2.453l.883-2.352c.281-.781.422-1.421.422-1.921 0-.636-.235-.954-.703-.954-.844 0-1.539.435-2.086 1.305a9.74 9.74 0 0 0-1.211 2.914c-.042.135-.131.203-.266.203h-.375c-.177 0-.266-.099-.266-.297v-.093c.344-1.271.87-2.399 1.579-3.383.708-.985 1.604-1.477 2.687-1.477.76 0 1.404.25 1.93.75s.789 1.136.789 1.907c0 .395-.089.812-.266 1.25-.093.26-.307.828-.64 1.703a37.434 37.434 0 0 0-.766 2.172 18.507 18.507 0 0 0-.438 1.687 8.168 8.168 0 0 0-.171 1.656c0 .709.151 1.307.453 1.797.302.49.791.735 1.468.735 1.365 0 2.563-.844 3.594-2.532.021-.084.039-.164.055-.242a5.67 5.67 0 0 0 .039-.226l2.297-9.282c.073-.281.239-.523.5-.726.26-.203.541-.305.844-.305.26 0 .486.083.679.25a.824.824 0 0 1 .289.656c0 .125-.01.209-.031.25l-2.312 9.219c-.146.635-.219 1.156-.219 1.563 0 .916.307 1.375.922 1.375.687 0 1.2-.425 1.539-1.274.339-.849.628-1.83.867-2.945.041-.126.125-.188.25-.188h.391a.24.24 0 0 1 .203.11c.052.072.078.14.078.203a35.98 35.98 0 0 1-.664 2.359 5.148 5.148 0 0 1-1.008 1.781c-.459.531-1.032.797-1.719.797a3.137 3.137 0 0 1-1.82-.554 2.705 2.705 0 0 1-1.086-1.508 5.975 5.975 0 0 1-1.703 1.5 4.026 4.026 0 0 1-2.047.562c-1.23 0-2.209-.336-2.938-1.008-.729-.671-1.093-1.616-1.093-2.835M629.269 101.159v-.781c1.833 0 2.75-.23 2.75-.688V88.143c-.76.364-1.723.547-2.89.547v-.781c1.802 0 3.161-.469 4.078-1.406h.312a.22.22 0 0 1 .149.062c.046.042.07.089.07.141V99.69c0 .458.917.688 2.75.688v.781h-7.219"/><path stroke-width="3" stroke-linejoin="round" fill="none" stroke="#0072bd" d="M576.021 88.874h30.153"/><path d="M612.581 131.202c0-.698.094-1.414.281-2.149.187-.734.45-1.551.789-2.453l.883-2.352c.281-.78.422-1.421.422-1.921 0-.636-.235-.954-.703-.954-.844 0-1.539.435-2.086 1.305a9.751 9.751 0 0 0-1.211 2.914c-.042.135-.131.203-.266.203h-.375c-.177 0-.266-.099-.266-.297v-.093c.344-1.271.87-2.399 1.579-3.383.708-.985 1.604-1.477 2.687-1.477.76 0 1.404.25 1.93.75s.789 1.136.789 1.907c0 .395-.089.812-.266 1.25-.093.26-.307.828-.64 1.703a37.434 37.434 0 0 0-.766 2.172 18.507 18.507 0 0 0-.438 1.687 8.168 8.168 0 0 0-.171 1.656c0 .709.151 1.308.453 1.797.302.49.791.735 1.468.735 1.365 0 2.563-.844 3.594-2.532a5.448 5.448 0 0 0 .094-.468l2.297-9.282c.073-.281.239-.523.5-.726.26-.203.541-.305.844-.305.26 0 .486.083.679.25a.824.824 0 0 1 .289.656c0 .125-.01.209-.031.25l-2.312 9.219c-.146.635-.219 1.156-.219 1.563 0 .917.307 1.375.922 1.375.687 0 1.2-.425 1.539-1.274.339-.849.628-1.83.867-2.945.041-.125.125-.188.25-.188h.391a.24.24 0 0 1 .203.11c.052.073.078.14.078.203a35.98 35.98 0 0 1-.664 2.359 5.139 5.139 0 0 1-1.008 1.781c-.459.531-1.032.797-1.719.797a3.13 3.13 0 0 1-1.82-.554 2.705 2.705 0 0 1-1.086-1.508 5.945 5.945 0 0 1-1.703 1.5 4.017 4.017 0 0 1-2.047.562c-1.23 0-2.209-.336-2.938-1.008-.729-.671-1.093-1.616-1.093-2.835M628.316 139.411v-.594c0-.031.016-.068.047-.109l3.422-3.782a56.01 56.01 0 0 0 1.25-1.414c.322-.38.64-.817.953-1.312.312-.495.56-.997.742-1.508a4.78 4.78 0 0 0 .274-1.625c0-.604-.109-1.179-.328-1.726a2.972 2.972 0 0 0-.993-1.313c-.443-.328-.976-.492-1.601-.492-.636 0-1.206.19-1.711.57-.505.38-.862.877-1.07 1.492a.661.661 0 0 1 .234-.031c.322 0 .601.112.836.336.234.224.351.513.351.867 0 .334-.117.617-.351.852a1.145 1.145 0 0 1-.836.351c-.344 0-.633-.119-.867-.359a1.165 1.165 0 0 1-.352-.844 3.877 3.877 0 0 1 1.211-2.844c.391-.374.83-.664 1.32-.867a4.043 4.043 0 0 1 1.563-.304c.844 0 1.625.177 2.344.531a4.267 4.267 0 0 1 1.718 1.508c.427.651.641 1.408.641 2.273 0 .635-.141 1.24-.422 1.813a6.44 6.44 0 0 1-1.078 1.562c-.438.469-.997 1-1.68 1.594-.682.593-1.128.994-1.336 1.203l-2.5 2.391h2.125c1.031 0 1.896-.01 2.594-.032.698-.021 1.073-.046 1.125-.078.166-.187.339-.864.516-2.031h.656l-.625 3.922h-8.172"/><path stroke-width="3" stroke-linejoin="round" fill="none" stroke="#d95319" d="M576.021 127.126h30.153"/><path stroke-width=".5" stroke-miterlimit="10" fill="none" stroke="#323232" d="M572 148h72V68h-72z"/></svg>