<svg xmlns="http://www.w3.org/2000/svg" xmlns:xlink="http://www.w3.org/1999/xlink" width="960" height="1072" viewBox="0 0 720 804"><path d="M0 804h720V0H0z" fill="#fff"/><path d="M0 804h720V0H0z" fill="#fff"/><path d="M97 705h555V60H97z" fill="#fff"/><path stroke-width=".5" stroke-linejoin="round" fill="none" stroke="#e5e5e5" d="M97 705V60M282 705V60M467 705V60M652 705V60M652 705H97M652 543.75H97M652 382.5H97M652 221.25H97M652 60H97"/><path stroke-width=".5" stroke-linecap="square" stroke-linejoin="round" fill="none" stroke="#323232" d="M97 705h555M97 705v-6.45M282 705v-6.45M467 705v-6.45M652 705v-6.45"/><symbol id="a"><path d="M.232.746A.203.203 0 0 1 .069.667C.023.603 0 .507 0 .373 0 .129.08 0 .232 0c.15 0 .232.129.232.367 0 .14-.022.234-.069.3a.2.2 0 0 1-.163.079m0-.078C.327.668.374.571.374.375.374.169.328.073.23.073c-.093 0-.14.1-.14.299 0 .199.047.296.142.296z"/></symbol><symbol id="b"><path d="M.472.086H.099c.009.06.041.098.128.151l.1.056c.099.055.15.129.15.218a.21.21 0 0 1-.066.155.227.227 0 0 1-.161.056C.16.722.093.69.054.628A.282.282 0 0 1 .016.472h.088a.257.257 0 0 0 .021.102.135.135 0 0 0 .122.071c.08 0 .14-.058.14-.136C.387.451.354.401.291.365L.199.311C.051.226.008.158 0 0h.472v.086z"/></symbol><symbol id="c"><path d="M.299.175V0h.088v.175h.105v.079H.387v.469H.322L0 .268V.175h.299m0 .079H.077l.222.319V.254z"/></symbol><symbol id="d"><path d="M.455.558C.438.676.362.746.254.746a.223.223 0 0 1-.19-.103A.52.52 0 0 1 0 .353C0 .231.017.154.06.09A.2.2 0 0 1 .238 0C.373 0 .47.101.47.242.47.375.38.469.253.469A.189.189 0 0 1 .09.39c.001.179.057.278.158.278.062 0 .105-.04.119-.11h.088M.242.391C.327.391.38.331.38.235.38.144.32.078.239.078.157.078.095.147.095.239c0 .09.06.152.147.152z"/></symbol><use xlink:href="#a" transform="matrix(35 0 0 -35 88.505 748.805)" fill="#323232"/><use xlink:href="#b" transform="matrix(35 0 0 -35 253.69 747.965)" fill="#323232"/><use xlink:href="#a" transform="matrix(35 0 0 -35 273.465 748.805)" fill="#323232"/><use xlink:href="#a" transform="matrix(35 0 0 -35 292.925 748.805)" fill="#323232"/><use xlink:href="#c" transform="matrix(35 0 0 -35 438.48 748)" fill="#323232"/><use xlink:href="#a" transform="matrix(35 0 0 -35 458.465 748.805)" fill="#323232"/><use xlink:href="#a" transform="matrix(35 0 0 -35 477.925 748.805)" fill="#323232"/><use xlink:href="#d" transform="matrix(35 0 0 -35 624.005 748.805)" fill="#323232"/><use xlink:href="#a" transform="matrix(35 0 0 -35 643.465 748.805)" fill="#323232"/><use xlink:href="#a" transform="matrix(35 0 0 -35 662.925 748.805)" fill="#323232"/><path d="M340.989 786.984c0-.386.037-.75.109-1.094l2.812-11.188h-4.093c-.26 0-.391-.172-.391-.515.104-.573.276-.86.516-.86h4.312l1.563-6.359a1.73 1.73 0 0 1 .617-.875c.307-.24.648-.359 1.023-.359.334 0 .612.096.836.289.224.193.336.456.336.79a.88.88 0 0 1-.015.178l-.032.149-1.562 6.187h4.015c.272 0 .407.172.407.516-.01.063-.037.17-.078.32a1.53 1.53 0 0 1-.157.383.305.305 0 0 1-.281.156h-4.25l-2.797 11.266c-.187.74-.281 1.375-.281 1.906 0 1.115.381 1.672 1.141 1.672 1.146 0 2.159-.536 3.039-1.609a12.094 12.094 0 0 0 2.023-3.532c.104-.145.209-.218.313-.218h.468c.105 0 .188.034.25.1a.326.326 0 0 1 .094.228.22.22 0 0 1-.031.125 12.29 12.29 0 0 1-2.5 4.148c-1.094 1.192-2.344 1.789-3.75 1.789-1.031 0-1.899-.336-2.602-1.007-.702-.672-1.054-1.534-1.054-2.586M377.396 799.812a19.06 19.06 0 0 1-3.742-3.938 22.752 22.752 0 0 1-2.57-4.726 27.058 27.058 0 0 1-1.492-5.25 31.296 31.296 0 0 1 0-11.047 26.878 26.878 0 0 1 1.508-5.274 22.454 22.454 0 0 1 2.601-4.742 18.885 18.885 0 0 1 3.695-3.867c0-.052.063-.078.188-.078h.359a.29.29 0 0 1 .219.101.345.345 0 0 1 .094.243c0 .114-.026.197-.078.25a19.418 19.418 0 0 0-3.172 3.992 22.03 22.03 0 0 0-2.039 4.547 28.76 28.76 0 0 0-1.117 4.992 40.689 40.689 0 0 0-.344 5.375c0 8.26 2.208 14.536 6.625 18.828a.445.445 0 0 1 .125.328c0 .063-.036.136-.11.219-.073.083-.14.125-.203.125h-.359c-.125 0-.188-.026-.188-.078M381.572 790.249v-6.36c0-.197.115-.296.344-.296h.468c.157 0 .261.099.313.297.719 3.77 2.469 5.656 5.25 5.656 1.23 0 2.261-.279 3.094-.836.834-.557 1.25-1.42 1.25-2.586 0-.844-.323-1.56-.969-2.148a5.204 5.204 0 0 0-2.313-1.211l-2.609-.516a8.729 8.729 0 0 1-2.383-.867 5.113 5.113 0 0 1-1.758-1.57c-.458-.657-.687-1.418-.687-2.282 0-1.145.302-2.083.906-2.812.604-.73 1.388-1.255 2.352-1.578a9.747 9.747 0 0 1 3.117-.485c1.333 0 2.495.354 3.484 1.063l1.125-.97c0-.062.063-.093.188-.093h.297c.073 0 .141.037.203.11a.338.338 0 0 1 .093.219v5.109c0 .24-.098.359-.296.359h-.485c-.229 0-.344-.12-.344-.359 0-1.365-.377-2.458-1.132-3.28-.755-.824-1.81-1.236-3.164-1.236-1.166 0-2.179.216-3.039.65-.86.43-1.29 1.173-1.29 2.225 0 .719.308 1.31.922 1.774.615.463 1.339.8 2.172 1.008l2.641.484a8.242 8.242 0 0 1 2.484 1.03 5.48 5.48 0 0 1 1.828 1.829c.448.74.672 1.573.672 2.5 0 .938-.161 1.754-.484 2.446a4.7 4.7 0 0 1-1.352 1.726c-.578.459-1.26.795-2.047 1.008a9.412 9.412 0 0 1-2.476.32c-1.625 0-3.016-.547-4.172-1.64l-1.422 1.547c0 .062-.073.093-.219.093h-.218c-.229 0-.344-.11-.344-.328M397.992 799.89c-.228 0-.343-.115-.343-.344 0-.115.026-.198.078-.25 4.448-4.344 6.672-10.646 6.672-18.906 0-8.26-2.198-14.537-6.594-18.828-.104-.063-.156-.172-.156-.328 0-.094.037-.175.109-.243a.342.342 0 0 1 .234-.101h.36c.084 0 .146.026.187.078a18.914 18.914 0 0 1 4.672 5.367 24.712 24.712 0 0 1 2.727 6.742c.578 2.385.867 4.823.867 7.313 0 1.843-.153 3.656-.461 5.437a26.856 26.856 0 0 1-1.484 5.274 22.328 22.328 0 0 1-2.586 4.797 19.125 19.125 0 0 1-3.735 3.914c-.041.052-.103.078-.187.078h-.36" fill="#323232"/><path stroke-width=".5" stroke-linecap="square" stroke-linejoin="round" fill="none" stroke="#323232" d="M97 705V60M97 705h6.45M97 543.75h6.45M97 382.5h6.45M97 221.25h6.45M97 60h6.45"/><symbol id="e"><path d="M.441.732H.075L.022.346h.081c.041.049.075.066.131.066.095 0 .154-.065.154-.17C.388.14.329.078.233.078.156.078.109.117.088.197H0C.012.139.022.111.043.085A.236.236 0 0 1 .235 0c.143 0 .243.104.243.254C.478.394.385.49.249.49A.208.208 0 0 1 .118.447l.028.198h.295v.087z"/></symbol><symbol id="f"><path d="M.157.515V0h.088v.723H.187C.156.612.136.597 0 .579V.515h.157z"/></symbol><use xlink:href="#a" transform="matrix(35 0 0 -35 69.505 718.805)" fill="#323232"/><use xlink:href="#e" transform="matrix(35 0 0 -35 69.225 557.555)" fill="#323232"/><use xlink:href="#f" transform="matrix(35 0 0 -35 52.57 395.5)" fill="#323232"/><use xlink:href="#a" transform="matrix(35 0 0 -35 69.965 396.305)" fill="#323232"/><use xlink:href="#f" transform="matrix(35 0 0 -35 52.57 234.25)" fill="#323232"/><use xlink:href="#e" transform="matrix(35 0 0 -35 69.685 235.055)" fill="#323232"/><use xlink:href="#b" transform="matrix(35 0 0 -35 50.19 72.965)" fill="#323232"/><use xlink:href="#a" transform="matrix(35 0 0 -35 69.965 73.805)" fill="#323232"/><path d="M31.637 437.499c-.156 0-.271-.011-.344-.031l-22.547-5.656a7.75 7.75 0 0 0-1.047-.188c-.417 0-.625.843-.625 2.531 0 .26-.172.391-.515.391a4.58 4.58 0 0 1-.344-.086 1.146 1.146 0 0 1-.383-.172.343.343 0 0 1-.133-.289l-.422-5.25v-.125c.031 0 .068-.045.11-.133a.851.851 0 0 1 .078-.148.958.958 0 0 1 .312-.078l12.172 3.047c-1.896-1.605-2.844-3.501-2.844-5.688 0-.917.16-1.709.477-2.375a3.53 3.53 0 0 1 1.438-1.562c.64-.376 1.403-.563 2.289-.563 1.073 0 2.364.237 3.875.711a84.91 84.91 0 0 1 5.062 1.789c.854.364 1.635.547 2.344.547.77 0 1.156-.297 1.156-.891 0-1.021-.542-1.87-1.625-2.547a11.175 11.175 0 0 0-3.516-1.437c-.145-.052-.218-.151-.218-.297v-.484c0-.105.034-.188.1-.25a.326.326 0 0 1 .228-.094c.031 0 .073.015.125.047.937.218 1.859.554 2.765 1.008.907.453 1.662 1.023 2.266 1.711a3.55 3.55 0 0 1 .906 2.421c0 .906-.315 1.685-.945 2.336-.63.651-1.393.977-2.289.977-.48 0-.99-.105-1.53-.313a96.882 96.882 0 0 0-5.228-1.835c-1.537-.485-2.888-.727-4.055-.727-.75 0-1.372.145-1.867.437-.495.292-.742.781-.742 1.469 0 1.396.427 2.612 1.281 3.649.855 1.036 1.985 1.939 3.391 2.711l10.656 2.64c.385.104.703.302.953.594.25.291.375.624.375 1 0 .333-.112.617-.336.852a1.074 1.074 0 0 1-.804.351M42.012 392.468a18.998 18.998 0 0 1-3.938 3.742 22.756 22.756 0 0 1-4.726 2.571 27.058 27.058 0 0 1-5.25 1.492 31.296 31.296 0 0 1-11.047 0 26.878 26.878 0 0 1-5.274-1.508 22.504 22.504 0 0 1-4.742-2.602 18.888 18.888 0 0 1-3.867-3.695c-.052 0-.078-.063-.078-.187v-.36a.29.29 0 0 1 .101-.219.348.348 0 0 1 .243-.093c.114 0 .197.026.25.078a19.455 19.455 0 0 0 3.992 3.172 22.138 22.138 0 0 0 4.547 2.039c1.61.515 3.274.888 4.992 1.117 1.719.229 3.51.344 5.375.344 8.26 0 14.536-2.209 18.828-6.625a.44.44 0 0 1 .328-.125c.063 0 .136.036.219.109.083.072.125.14.125.203v.36c0 .124-.026.187-.078.187M32.777 379.871c0 1.583-.409 3.015-1.226 4.297a8.713 8.713 0 0 1-3.274 3.023 9.067 9.067 0 0 1-4.359 1.102c-1.531 0-3.003-.365-4.414-1.094-1.411-.729-2.54-1.737-3.383-3.023-.844-1.287-1.266-2.722-1.266-4.305 0-1.521.3-2.906.899-4.156.599-1.25 1.575-1.875 2.93-1.875.51 0 .953.182 1.328.546.375.364.562.807.562 1.329 0 .51-.187.947-.562 1.312a1.846 1.846 0 0 1-1.328.547c-.459 0-.855-.146-1.188-.438a1.959 1.959 0 0 1-.64-1.093c-.574.906-.86 2.171-.86 3.797 0 1.239.414 2.241 1.242 3.007.828.766 1.852 1.3 3.071 1.602 1.219.302 2.422.453 3.609.453 1.26 0 2.477-.188 3.648-.562 1.172-.376 2.143-.977 2.914-1.805.771-.828 1.157-1.873 1.157-3.133 0-1.23-.378-2.277-1.133-3.141-.755-.864-1.742-1.453-2.961-1.765-.156 0-.234-.105-.234-.313v-.468a.28.28 0 0 1 .109-.219.35.35 0 0 1 .234-.094h.11c1.542.396 2.763 1.177 3.664 2.344.9 1.166 1.351 2.541 1.351 4.125M32.34 371.322h-1.375c0-.896-.07-1.628-.211-2.195-.14-.568-.482-.852-1.024-.852H19.09c-.698 0-1.203.104-1.516.313a1.294 1.294 0 0 0-.57.898c-.068.391-.102 1.002-.102 1.836h-1.375l-.422-5.656h3.813a6.79 6.79 0 0 1-2.742-2.32c-.714-1.026-1.07-2.138-1.07-3.336 0-3 1.218-4.761 3.656-5.282a6.503 6.503 0 0 1-2.65-2.281 5.788 5.788 0 0 1-1.007-3.297c0-1.177.19-2.169.571-2.976.38-.808.96-1.415 1.742-1.821.781-.406 1.76-.609 2.937-.609h9.375c.542 0 .883-.289 1.024-.867.14-.578.21-1.305.21-2.18h1.376v8.922h-1.375c0-.886-.07-1.615-.211-2.187-.14-.574-.482-.86-1.024-.86h-9.25c-1.312 0-2.367.185-3.164.555-.797.37-1.195 1.127-1.195 2.273 0 1.5.602 2.737 1.805 3.711a6.36 6.36 0 0 0 4.117 1.461h7.687c.542 0 .883-.284 1.024-.851.14-.568.21-1.3.21-2.196h1.376v8.938h-1.375c0-.886-.07-1.615-.211-2.188-.14-.573-.482-.859-1.024-.859h-9.25c-1.27 0-2.315.185-3.132.555-.818.369-1.227 1.121-1.227 2.257 0 1.51.602 2.753 1.805 3.727a6.36 6.36 0 0 0 4.117 1.461h7.687c.542 0 .883-.287 1.024-.859.14-.574.21-1.298.21-2.172h1.376v8.937M42.09 337.864c0 .229-.115.344-.344.344-.115 0-.198-.027-.25-.079-4.344-4.448-10.646-6.671-18.906-6.671-8.26 0-14.536 2.197-18.828 6.593-.063.104-.172.157-.328.157a.321.321 0 0 1-.243-.11.342.342 0 0 1-.101-.234v-.36c0-.084.026-.146.078-.187a18.899 18.899 0 0 1 5.367-4.672 24.713 24.713 0 0 1 6.742-2.727 30.943 30.943 0 0 1 7.313-.867c1.843 0 3.656.153 5.437.461a26.79 26.79 0 0 1 5.274 1.485 22.326 22.326 0 0 1 4.797 2.586 19.093 19.093 0 0 1 3.914 3.734c.052.041.078.103.078.187v.36" fill="#323232"/><path stroke-width="3" stroke-linejoin="round" fill="none" stroke="#0072bd" d="M97 705h3.7l.925-215.213.925.705.925-.616.925.441.925-.177.925-.265.925-.175.925.264.925.705.925-.616.925-.265.925.352.925.089.925-.529.925-15.65.925-23.732.925-23.762.925-21.15.925-10.935.925-13.226.925-15.115.925-28.917.925-4.144.925-12.318.925-12.977.925-25.512.925-2.425.925-6.065.925-15.813.925-13.398.925-9.168.925-18.298.925-5.663.925-5.185.925-6.963L134 180l.925-4.861.925-.188.925-1.59h.925l.925-1.532.925.87.925 8.178.925-8.101.925-.473.925-4.354.925 3.373.925-4.163.925-3.47.925-.317.925-1.964.925-2.842.925 1.328.925-2.762.925-5.306.925-3.181.925-1.937.925.152.925.623.925-.183.925.98.925-6.513.925 4.941.925-1.235.925-8.444.925.233.925-.285.925.459.925-.534.925-.18.925.307.925-.615.925-.203.925.691.925-.331.925-.998.925-.788h.925l.925-.232.925-5.337.925-.352.925-.052.925 7.399.925-1.021.925-1.297.925-3.79.925-4.678.925-4.843.925-1.005.925.279.925 3.219.925-.201.925.252.925.378.925-.378.925-.078.925-.677.925.578.925.882.925-.63.925-.527.925 1.662.925.378.925.052.925-1.112.925.757.925 1.716.925-.024.925.834.925.534.925-.661.925-.454.925-.023.925.224.925-.655.925.983.925 3.195.925 1.703.925 2.44.925.713.925.719.925.278.925.226.925-.557.925.279.925 8.713.925 1.674.925-.129.925.183.925-.698.925.151.925 5.35.925 1.09.925.184.925.594.925 1.061.925 2.611.925 2.706.925-.391.925-.631.925 4.477.925.546.925-.076.925.765.925 8.374.925-2.642.925-.187.925 10.225.925 2.724.925-2.078.925 14.068.925 3.48.925-14 .925-2.194.925 13.7.925 1.817h.925l.925-.04.925-.018.925.135.925 2.538.925 1.378.925 1.906.925 1.363.925 3.767.925 3.505.925.628.925 1.199.925 3.819.925.474.925 7.903.925-.218.925 3.825.925 1.555.925.541.925 2.882.925 2.95.925-.844.925-.623.925-.703.925-.579.925 2.749.925 8.413.925 6.099.925-.206.925.428.925 4.415.925 4.322.925 2.159.925 4.283.925-1.686.925-.353.925 1.445.925 1.142.925 2.914.925 5.741h.925l.925 4.32.925 7.778.925 3.332.925 4.827.925 1.637.925 7.087.925-.368.925 1.486.925 3.017.925 1.794.925.602.925 1.729.925 2.513.925 8.74.925 3.349.925.847.925 1.615.925 1.983.925.697.925.461.925-.39.925.604.925.401.925 4.625.925 16.808.925 2.428.925-1.099.925 1.025.925-.554.925 3.702.925 2.904.925.4.925.39.925.726.925 3.243.925.878.925-.168.925 5.889.925 5.532.925 3.051.925 2.007.925 1.044.925 3.467.925.971.925-.316.925-.162.925.401.925 2.268.925 2.28.925 3.991.925 1.383.925.405.925.163.925.973.925.171.925 3.517.925 6.572.925 2.569.925.324.925-.159.925 7.292.925-.247.925.161.925 1.665.925-1.493.925.252.925 3.161.925-.334.925 3.26.925-.329.925-.593.925 1.597.925-.842.925 1.085.925 2.515.925 2.606.925 2.612.925.674.925-.843.925 3.037.925 1.01.925-.849.925 2.034.925-1.185.925 2.122.925 1.183.925-3.049.925-.763.925 4.83.925 2.805.925-5.097.925 1.021.925.679.925 1.78.925-1.275.925 1.532.925-2.041.925.509.925.173.925.423.925-7.106.925-12.767.925-6.647.925-6.375.925 6.873.925 7.906.925 5.027.925 10.801.925 2.375.925 1.446.925 4.68.925-2.895.925-3.571.925-.596.925-.256.925 1.788.925-1.275.925-3.815.925-1.352.925-.083.925.759.925-1.603.925-1.437.925-5.465.925.326.925-2.176.925.503.925 1.429.925-.173.925.676.925-1.007.925 5.291.925.51.925-5.887.925-2.849.925.168.925-1.592.925-.582.925-1.503.925-.334.925-3.245.925.172.925-.923.925.252.925-15.531.925-3.44.925-.163.925-.654.925-.491.925.419h.925l.925-.823.925.085.925-2.695.925-3.827.925-1.87.925-1.196.925-1.703.925-4.112.925-3.548.925-3.528.925-3.752.925-.63.925-2.164.925-2.788.925-2.697.925-1.657.925-1.572.925-.799.925-1.031.925-7.546.925-15.714.925-1.935.925.794.925 12.009.925.478.925-11.335.925-4.802.925-.071.925-.757.925-.094.925-.296.925-.39.925.106.925-1.948.925-8.004.925-4.779.925-5.978.925-2.341.925-.219.925-1.722.925-8.392.925-.149.925-.908.925-4.578.925 1.187.925-3.194.925-3.384.925-6.143.925 5.752.925-1.916.925-4.1.925-2.49.925-1.12.925 1.054.925-6.063.925-.888.925-3.984.925-1.881.925-3.834.925-5.015.925-5.738.925-3.214.925-1.405.925-9.836.925-1.485.925-.202h.925l.925 3.158.925-2.939.925-2.842.925 2.684.925-6.664.925 1.495.925-10.793.925-2.392.925-1.417.925-2.108.925.986.925-.041.925-3.517.925-1.628.925-1.351.925-.977.925-2.128.925-4.612.925-1.009.925-19.26.925-1.388.925.379.925 17.111h.925l.925-16.368.925-2.319.925-1.427.925-3.05.925.948.925.475.925-.795h.925l.925-9.965.925-5.604.925-9.116.925-7.549.925 3.01.925.258.925.022.925-1.083.925.311.925-8.099.925-.105.925.894.925 6.666.925.568.925-7.797.925-.458.925-.383.925.713.925-1.322.925.226.925-.383.925.916.925-.893.925-.457.925-.307.925-1.753.925 2.135.925-.353.925-.209.925-1.521.925-5.305.925-6.834.925-14.399.925-6.102.925 1.183.925 19.091.925 4.861.925-4.182.925-2.738.925-8.49.925-9.602.925 15.563.925 7.482.925.354.925-3.676.925-1.98.925.424.925-1.602.925-1.752.925 1.626.925 2.507.925.176.925-.125.925 3.997.925-.63.925-2.79.925-.577.925 3.544.925.555.925-.228.925-1.334.925 1.838.925-.705.925.858.925 1.865.925.534.925 2.249h.925l.925.737.925.403.925 1.067.925.254.925-2.714.925-1.519.925 4.539.925.964.925 2.163.925.968.925.539.925-.209.925-.173.925 7.545.925 2.194.925 1.053.925 1.312.925 3.187.925 2.096.925-.259.925.107h.925l.925-.81.925 4.058.925 3.302.925-.076.925 1.491.925 4.006.925 5.054.925 1.562.925.23.925.925.925 1.302.925 2.519.925 2.182.925 16.78.925 1.353.925-16.115.925-2.452.925 18.547.925.754.925-.135.925-1.894.925-.386.925 1.545.925 4.126.925 2.137.925.875.925.468.925 2.339.925 2.032.925 3.936.925-2.449.925-.999.925 2.605.925 10.346.925 6.379.925 4.21.925-1.181.925 4.468.925.281.925 4.24.925-4.117.925 6.563.925 6.808.925 3.168.925 1.697.925.063.925-1.063.925 4.914.925 1.946.925.351.925 1.231.925 1.312.925 2.87.925.209.925 2.282.925 5.857.925-.065.925 1.668.925 2.27"/><path stroke-width="3" stroke-dasharray="12,12" stroke-linejoin="bevel" fill="none" stroke="#d95319" d="m97 705 .925-419.25.925-2.533.925-2.532.925-2.531.925-2.529.925-2.527.925-2.523.925-2.52.925-2.515.925-2.51.925-2.505.925-2.499.925-2.491.925-2.484.925-2.477.925-2.467.925-2.458.925-2.449.925-2.437.925-2.427.925-2.415.925-2.403.925-2.389.925-2.377.925-2.362.925-2.348.925-2.332.925-2.317.925-2.3.925-2.283.925-2.266.925-2.248.925-2.229.925-2.21.925-2.19.925-2.17.925-2.149.925-2.128.925-2.106.925-2.084.925-2.06.925-2.038.925-2.013.925-1.989.925-1.965.925-1.938.925-1.914.925-1.886.925-1.86.925-1.833.925-1.805.925-1.777.925-1.748.925-1.72.925-1.689.925-1.66.925-1.63.925-1.599.925-1.569.925-1.536.925-1.505.925-1.473.925-1.44.925-1.407.925-1.374.925-1.34.925-1.307.925-1.272.925-1.237.925-1.203.925-1.168.925-1.132.925-1.096.925-1.061.925-1.024.925-.988.925-.95.925-.914.925-.877.925-.839.925-.802.925-.764.925-.725.925-.688.925-.649.925-.611.925-.572.925-.533.925-.494.925-.455.925-.416.925-.376.925-.337.925-.298.925-.258.925-.219.925-.179.925-.139.925-.099.925-.06.925-.02.925.02.925.06.925.099.925.139.925.179.925.219.925.258.925.298.925.337.925.376.925.416.925.455.925.494.925.533.925.572.925.611.925.649.925.688.925.725.925.764.925.802.925.839.925.877.925.914.925.95.925.988.925 1.024.925 1.061.925 1.096.925 1.132.925 1.168.925 1.203.925 1.237.925 1.272.925 1.307.925 1.34.925 1.374.925 1.407.925 1.44.925 1.473.925 1.505.925 1.536.925 1.569.925 1.599.925 1.63.925 1.66.925 1.689.925 1.72.925 1.748.925 1.777.925 1.805.925 1.833.925 1.86.925 1.886.925 1.914.925 1.938.925 1.965.925 1.989.925 2.013.925 2.038.925 2.06.925 2.084.925 2.106.925 2.128.925 2.149.925 2.17.925 2.19.925 2.21.925 2.229.925 2.248.925 2.266.925 2.283.925 2.3.925 2.317.925 2.332.925 2.348.925 2.362.925 2.377.925 2.389.925 2.403.925 2.415.925 2.427.925 2.437.925 2.449.925 2.458.925 2.467.925 2.477.925 2.484.925 2.491.925 2.499.925 2.505.925 2.51.925 2.515.925 2.52.925 2.523.925 2.527.925 2.529.925 2.531.925 2.532.925 2.533.925 2.533.925 2.532.925 2.531.925 2.529.925 2.527.925 2.523.925 2.52.925 2.515.925 2.51.925 2.505.925 2.499.925 2.491.925 2.484.925 2.477.925 2.467.925 2.458.925 2.449.925 2.437.925 2.427.925 2.415.925 2.403.925 2.389.925 2.377.925 2.362.925 2.348.925 2.332.925 2.317.925 2.3.925 2.283.925 2.266.925 2.248.925 2.229.925 2.21.925 2.19.925 2.17.925 2.149.925 2.128.925 2.106.925 2.084.925 2.06.925 2.038.925 2.013.925 1.989.925 1.965.925 1.938.925 1.914.925 1.886.925 1.86.925 1.833.925 1.805.925 1.777.925 1.748.925 1.72.925 1.689.925 1.66.925 1.63.925 1.599.925 1.569.925 1.536.925 1.505.925 1.473.925 1.44.925 1.407.925 1.374.925 1.34.925 1.307.925 1.272.925 1.237.925 1.203.925 1.168.925 1.132.925 1.096.925 1.061.925 1.024.925.988.925.95.925.914.925.877.925.839.925.802.925.764.925.725.925.688.925.649.925.611.925.572.925.533.925.494.925.455.925.416.925.376.925.337.925.298.925.258.925.219.925.179.925.139.925.099.925.06.925.02.925-.02.925-.06.925-.099.925-.139.925-.179.925-.219.925-.258.925-.298.925-.337.925-.376.925-.416.925-.455.925-.494.925-.533.925-.572.925-.611.925-.649.925-.688.925-.725.925-.764.925-.802.925-.839.925-.877.925-.914.925-.95.925-.988.925-1.024.925-1.061.925-1.096.925-1.132.925-1.168.925-1.203.925-1.237.925-1.272.925-1.307.925-1.34.925-1.374.925-1.407.925-1.44.925-1.473.925-1.505.925-1.536.925-1.569.925-1.599.925-1.63.925-1.66.925-1.689.925-1.72.925-1.748.925-1.777.925-1.805.925-1.833.925-1.86.925-1.886.925-1.914.925-1.938.925-1.965.925-1.989.925-2.013.925-2.038.925-2.06.925-2.084.925-2.106.925-2.128.925-2.149.925-2.17.925-2.19.925-2.21.925-2.229.925-2.248.925-2.266.925-2.283.925-2.3.925-2.317.925-2.332.925-2.348.925-2.362.925-2.377.925-2.389.925-2.403.925-2.415.925-2.427.925-2.437.925-2.449.925-2.458.925-2.467.925-2.477.925-2.484.925-2.491.925-2.499.925-2.505.925-2.51.925-2.515.925-2.52.925-2.523.925-2.527.925-2.529.925-2.531.925-2.532.925-2.533.925-2.533.925-2.532.925-2.531.925-2.529.925-2.527.925-2.523.925-2.52.925-2.515.925-2.51.925-2.505.925-2.499.925-2.491.925-2.484.925-2.477.925-2.467.925-2.458.925-2.449.925-2.437.925-2.427.925-2.415.925-2.403.925-2.389.925-2.377.925-2.362.925-2.348.925-2.332.925-2.317.925-2.3.925-2.283.925-2.266.925-2.248.925-2.229.925-2.21.925-2.19.925-2.17.925-2.149.925-2.128.925-2.106.925-2.084.925-2.06.925-2.038.925-2.013.925-1.989.925-1.965.925-1.938.925-1.914.925-1.886.925-1.86.925-1.833.925-1.805.925-1.777.925-1.748.925-1.72.925-1.689.925-1.66.925-1.63.925-1.599.925-1.569.925-1.536.925-1.505.925-1.473.925-1.44.925-1.407.925-1.374.925-1.34.925-1.307.925-1.272.925-1.237.925-1.203.925-1.168.925-1.132.925-1.096.925-1.061.925-1.024.925-.988.925-.95.925-.914.925-.877.925-.839.925-.802.925-.764.925-.725.925-.688.925-.649.925-.611.925-.572.925-.533.925-.494.925-.455.925-.416.925-.376.925-.337.925-.298.925-.258.925-.219.925-.179.925-.139.925-.099.925-.06.925-.02.925.02.925.06.925.099.925.139.925.179.925.219.925.258.925.298.925.337.925.376.925.416.925.455.925.494.925.533.925.572.925.611.925.649.925.688.925.725.925.764.925.802.925.839.925.877.925.914.925.95.925.988.925 1.024.925 1.061.925 1.096.925 1.132.925 1.168.925 1.203.925 1.237.925 1.272.925 1.307.925 1.34.925 1.374.925 1.407.925 1.44.925 1.473.925 1.505.925 1.536.925 1.569.925 1.599.925 1.63.925 1.66.925 1.689.925 1.72.925 1.748.925 1.777.925 1.805.925 1.833.925 1.86.925 1.886.925 1.914.925 1.938.925 1.965.925 1.989.925 2.013.925 2.038.925 2.06.925 2.084.925 2.106.925 2.128.925 2.149.925 2.17.925 2.19.925 2.21.925 2.229.925 2.248.925 2.266.925 2.283.925 2.3.925 2.317.925 2.332.925 2.348.925 2.362.925 2.377.925 2.389.925 2.403.925 2.415.925 2.427.925 2.437.925 2.449.925 2.458.925 2.467.925 2.477.925 2.484.925 2.491.925 2.499.925 2.505.925 2.51.925 2.515.925 2.52.925 2.523.925 2.527.925 2.529.925 2.531.925 2.532"/><path stroke-width="3" stroke-linejoin="round" fill="none" stroke="#edb120" d="M97 705h3.7l.925-181.096h.925l.925-.085.925.595.925-.51.925-.255.925-.17.925.425.925-.001.925-.085.925.256.925-.34.925-5.007.925-22.803.925-23.245.925-20.139.925-21.817.925-9.345.925-13.894.925-11.432.925-17.278.925-8.047.925-12.649.925-7.671.925-18.993.925-23.404.925-12.83.925-7.762.925-2.928.925-11.524.925-15.651.925-18.6.925-21.928.925-9.62.925-7.439.925-15.587.925-9.641.925-11.094.925-9.964.925-11.633.925-9.462.925-8.419.925-8.344.925-12.538.925.497.925 9.336.925 5.118.925.045.925-.85.925-.275.925-1.263.925-1.471.925 1.286.925-.139.925.369.925 3.379.925 1.614.925.717.925-1.294.925-.161.925.647.925-.647.925-.069.925-1.222.925 4.756.925.323.925-1.063.925-.854.925-.948.925-.968.925-.185.925 1.524.925 3.399.925-2.615.925 3.286.925-3.563.925-.024.925 1.155.925 1.993.925-1.737.925-1.828.925 2.035.925.372.925-.116.925.091.925-.901.925-1.967.925 4.468.925-3.933.925-.671.925.07.925 3.861.925.231.925-.231.925-2.083.925.626.925-1.435.925 4.005.925-1.159.925.232.925-2.57.925-.785.925 1.734.925 1.319.925 1.879.925-1.739.925-2.013.925-.718.925-.276.925.021.925 4.145.925 3.3.925-3.858.925-1.412.925-1.296.925-1.869.925-1.363.925 5.245.925 3.39.925-2.717.925-.743.925-1.481.925-.946.925-.164.925 1.759.925 2.665.925-2.318.925-.347.925.856.925-.278.925 3.389.925-2.971.925-.533.925.625.925-.741.925-.207.925.46.925-.253.925 2.55.925 1.884.925-4.388.925-.208.925-.88.925.67.925-.045.925 1.042.925-2.013.925 1.759.925.162.925-1.112.925 1.018.925-.138.925-.347.925.302.925-.811.925-.879.925-.231.925-.627.925 2.548.925.231.925-2.478.925-1.591.925 3.235.925.231.925-.393.925-.046.925.765.925-.512.925-.021.925 1.088.925-.348.925-.07.925.046.925-.207.925-.372.925-.74.925 2.896.925 14.968.925 16.597.925 26.26.925.225.925 27.577.925 23.552.925 22.301.925 8.608.925 19.738.925 6.283.925 20.126.925 14.243.925 23.057.925 6.169.925 12.857.925 9.201.925 10.927.925 9.689.925 5.861.925 14.92.925 4.271.925 10.146.925 12.075.925 3.26.925.955.925 5.346.925.242.925.156.925 1.766.925 1.761.925-.321.925 1.364.925-.235.925-.56.925-.005.925-.238.925-.4.925-1.288.925.564.925-2.084.925-.242.925-.005.925-.553.925-.32h.925l.925-.242.925-.16.925-.078.925-.562.925-.397.925-.247.925-.237.925-3.272.925-.708.925-.401.925 3.588.925 1.272.925-.639.925.247.925-5.099.925-1.035.925 2.303.925.873.925-.318.925.164.925.318.925-.4.925-.796.925.801.925-1.033.925-9.901.925-13.87.925-8.22.925-1.089.925 2.79.925 3.018.925 5.908.925 11.066.925 10.129.925 3.989.925-2.397.925 5.193.925-1.125.925.8.925-.475.925 1.202.925-4 .925-.16.925 2.158.925-.315.925-.087.925-1.669.925 1.113.925-2.157.925 1.595.925-.077.925-1.672.925 1.914.925.798.925-3.827.925.314.925.791.925-1.269.925.796.925-1.187.925.155.925-.796.925-.082.925.878.925.241.925-.483.925.801.925-.159.925-1.196.925-.082.925-.472.925.631.925 4.942.925-4.3.925.554.925 1.12.925-1.284.925.647.925-.401.925.56.925-.087.925-.318.925-.791.925.477.925-.236.925-.087.925-.314.925-.318.925.236.925.077.925.883.925.237.925-1.356.925.796.925-1.191.925-.082.925-1.189.925.871.925.4.925.149.925.005.925-1.113.925-.553.925.154.925 1.753.925-10.134.925-13.092.925-5.896.925-16.146.925-11.839.925-15.289.925-8.233.925-12.985.925-7.269.925-24.487.925-19.413.925-9.938.925-8.039.925-4.011.925-10.163.925-18.013.925-26.107.925-12.419.925-7.1.925-8.334.925-3.251.925-13.534.925-13.863.925-17.033.925-5.776.925-9.975.925-8.986.925-3.317.925-10.519.925-9.818.925-.339.925-.61.925 10.722.925 1.738.925.504.925.574.925-.275.925.714.925-1.861.925 1.767.925-.919.925-.459.925 1.997.925.969.925-.669.925.945.925-.921.925-.508.925.299.925 3.018.925 4.182.925-.439.925-2.036.925.234.925-2.311.925 4.021.925-2.357.925-1.109.925.046.925 2.495.925-.046.925-1.757.925-.346.925-.832.925.049.925 5.086.925 2.366.925-1.021.925-2.899.925-1.941.925-7.247.925-11.365.925.793.925-.887.925 8.236.925 3.018.925-.025.925-.732.925-1.715.925.159.925.711.925-.482.925-.756.925.596.925 1.647.925 1.305.925-1.878.925 1.031.925.159.925 2.664.925 6.523.925-.439.925-1.456.925-5.776.925-1.561.925 1.815.925 3.977.925 3.558.925-.928.925-3.482.925-3.404.925 1.517.925 3.479.925 2.517.925 4.336.925-4.035.925-4.316.925-3.129.925 3.289.925-.254.925 2.351.925 1.618.925.719.925.417.925-1.483.925-.809.925-.206.925 2.151.925.463.925-3.929.925-.07.925 2.333.925 1.248.925 4.107.925-3.552.925 3.598.925-3.805.925-.509.925-1.804.925.206.925.718.925 2.315.925.116.925 2.6.925-4.035.925-.302.925.926.925 1.809.925.997.925-3.616.925-.463.925.371.925.579.925 1.552.925-2.478.925 2.338.925.094.925-.789.925.048.925.345.925 12.745.925 12.99.925 7.125.925 22.163.925 2.531.925 18.82.925 9.151.925 14.271.925 13.344.925 20.394.925 3.653.925 19.862.925 3.346.925 10.41.925 4.651.925 15.819.925 6.94.925 19.197.925 6.654.925 3.343.925 6.864.925 7.42.925 5.769.925 3.358.925 9.416.925 7.07.925 2.795.925 7.915.925 7.117.925 7.097.925 1.466.925 3.027.925 5.366.925 1.087.925 9.972.925 4.176.925 3.891.925-1.11.925.629.925 3.025.925 1.669.925-.796.925.878.925 2.074.925-4.149.925-1.825.925-.477.925-1.187.925 2.453.925-2.53.925 4.758.925-3.883.925-.885.925 2.863.925-.789.925.148.925.8h.925l.925-.482.925.477.925.564.925.391.925 2.399.925-2.631.925-1.989.925 1.989.925-.082.925-2.865.925-.071.925.793.925-1.909.925-.158.925 3.41.925-.472.925 2.068.925-1.432.925-1.824.925 1.819.925-3.094.925-.792.925 1.903.925.958.925-2.78.925 1.346.925 1.992.925 1.827.925-1.991.925-.153.925-.641.925-1.5.925-.409.925-.389.925 3.015.925-.476.925-1.434.925-.629.925 2.145.925.312.925-1.111.925.005.925 1.737.925-1.507.925 2.066.925-1.103.925-.799.925-.399.925 1.511.925-1.516.925-.871.925.712.925 1.511.925-1.583.925.63.925.871.925-2.447.925 3.247.925-1.825.925.871.925-2.616"/><path stroke-width="3" stroke-dasharray="12,12" stroke-linejoin="bevel" fill="none" stroke="#7e2f8e" d="m97 705 .925-580.5H263.5l.925 322.5H402.25l.925-322.5H541l.925 322.5H652"/><path stroke-width="3" stroke-linejoin="round" fill="none" stroke="#77ac30" d="M97 705h3.7l.925-377.56.925-.339.925-.084.925.759.925-.506.925-.589.925.167.925 1.099.925-.678.925.254.925-.253h.925l.925-.254.925.17.925.253.925-.169.925-.169.925.168.925.002.925-.169.925.336.925-1.518.925-4.381.925-8.793.925-1.5.925-19.325.925-6.287.925-3.172.925 4.638.925-5.692.925-4.209.925-5.72.925-5.136.925-4.467.925-6.202.925-9.386.925-1.964.925-14.563.925 4.497.925-5.27.925-7.937.925.54.925-6.656.925-7.603.925-.988.925 5.16.925-4.93.925-2.348.925.835.925-2.337.925-.151.925.366.925.007.925-1.666.925.61.925-.38.925.15.925.159.925 2.256.925.684.925-.223.925-.533.925-2.192.925-.682.925-.293.925-.31.925 2.349.925-.524.925 1.652.925.684.925-.382.925-.445.925-.985.925.373.925 1.28.925-2.86.925.445.925-2.561.925-4.046.925.15.925-1.136.925-.37.925.158.925-.449.925-.906.925-.29.925-.843.925-.124.925-.149.925-.386.925-.369.925-.079.925-.597.925-.447.925-.298.925-.132.925-.464.925.526.925-.447h.925l.925-.604.925.157.925-.893.925.219.925.158.925-.893.925.079.925-.752.925-.664.925.655.925-.506.925-.228.925-.602.925-2.728.925-.601.925.679.925-.679.925-.671.925.601.925-.513.925.278.925.305.925-.948.925-.018.925-.434.925-.148.925.739.925-.296.925-.817.925.079.925-.286.925-.669.925-.668.925.364.925-.659.925.747.925-.835.925-.059h.925l.925-.138.925-.088.925.451.925-1.551.925.579.925.373.925-1.178.925-1.245.925.01.925-.079.925.069.925-.304.925-2.7.925-.44.925-.507.925-.586.925-.224.925-.585.925-.166.925-.049.925.293.925-.751.925-.136.925.292.925-.292.925.662.925-.652.925.662.925-.458.925.234.925.214.925.293.925.068.925-.224.925.156.925-.156.925.37.925-.438.925 5.571.925 5.827.925 9.056.925 10.63.925 5.514.925 7.675.925 7.489.925 9.022.925 10.578.925 6.895.925 7.583.925 3.649.925 7.261.925 6.654.925 3.629.925 7.942.925 4.235.925 8.195.925 13.986.925 4.84.925.251.925 11.266.925-.254.925-.085.925.507.925-.422.925.084.925.677.925-.339.925-.675.925.338.925-.253.925.59.925-.085.925-.675.925.76.925-.085.925.17.925-.592.925.338.925.254.925-.506.925.252h1.85l.925-.253.925.338.925.084.925.085.925-.254.925-.421.925.253.925-.253.925.252.925-.422.925.76.925.001.925-.169.925-.086.925.169.925-.422.925.254.925-.084.925.338.925-.001h.925l.925-.591h.925l.925.506.925-.085.925.254.925-.422.925.169.925-.337.925.168.925-.253.925-.336.925.758.925.17.925.168.925-1.012.925.59.925.17.925-.169.925.168.925.084.925-.675.925.338.925-.254.925.168.925-.252.925.59.925-.168.925-.084.925.338.925-.085.925-.254h.925l.925.507.925-.338.925-.168.925-.168.925-.17h.925l.925.421.925.001.925.507.925-.929.925.084.925.422.925.001.925-.001.925.169.925-.084.925.254.925.168.925-.506.925-.169.925-.17.925-.084.925.168.925.002.925.843.925-.253.925-.254.925-.252h.925l.925.168h.925l.925.253.925-.59.925.168.925.169.925-.253.925.254.925.252.925-.253.925.085H393l.925-.423.925.254.925.253.925-.253.925.253.925-1.011.925 1.012.925-.507.925.253.925-.674.925 1.012.925-.845.925.086.925.506.925.169.925-.338h.925l.925-4.636.925-7.632.925-5.335.925-11.255.925-14.479.925 3.584.925-8.046.925-4.12.925-7.398.925-5.434.925-14.885.925-3.298.925-14.331.925 5.827.925-7.596.925-8.93.925-13.471.925 1.132.925-11.379.925-5.013.925-3.626.925-7.041.925-1.397.925-4.865.925-1.76.925-.068.925-.283.925-.381.925-1.249.925-1.754.925-9.66.925-2.013.925-4.909.925-5.81.925-1.428.925-1.854.925-2.07.925-.971.925-2.217.925-.697.925.142.925-1.157.925-1.055.925-7.453.925-1.632.925-11.97.925-.768.925-.865.925-4.519.925-.185.925-.337.925-2.824.925.198.925-.336.925-1.432.925-5.616.925-.273.925-1.92.925.166.925-.816.925-.619.925-.256.925-1.462.925-.933.925-3.651.925-.254.925.269.925.99.925 2.059.925-.211.925.662.925.075.925-.135.925.602.925-.392.925.663.925.331.925.693.925-.346.925.739.925.482.925-.271.925 3.187.925 1.241.925 1.063.925 1.107.925-.486.925.09.925.745.925.636.925-.028.925 3.24.925.033.925-.047.925.199.925 1.662.925 1.114.925 3.569.925.201.925.152.925-.339.925.953.925.353.925.816.925.893.925-.554.925.568.925.076.925.741.925 6.675.925 2.108.925 1.055.925 7.302h.925l.925.205.925 1.282.925-.012.925-.359.925.911.925-.423.925.577.925-.065.925-.077.925.412.925 1.426.925 1.132.925 2.268.925-.361.925.722.925-.361.925 1.989.925.219.925-.023.925.088.925.285.925 2.433h.925l.925.779.925.362.925 4.06.925 1.953.925.055.925 1.46.925 2.78.925 13.214.925 1.89.925 5.358.925 5.976.925 7.944.925 4.998.925 10.457.925 3.172.925-.145.925 10.204.925 4.674.925 9.025.925 5.052.925 8.906.925-1.953.925 10.464.925 5.718.925 5.335.925 6.733.925 1.287.925 3.386.925 6.234.925 5.535.925 5.155.925 9.881.925 7.468.925 2.918.925 3.512.925 3.102.925 6.906.925-.253.925.422.925-.084.925-.168.925.759.925-.759.925.252.925.338.925-.337.925.168.925.254.925-.676.925.084.925.507.925-.844.925-.085.925.169.925 1.098.925-.759.925.336.925-.167.925.758.925-.927.925-.001.925.506.925-1.012.925.168h.925l.925.339.925-.338.925-.086.925.424.925.167.925-.084.925.254.925-.254.925-.084.925.17.925-.255.925.338.925-.168h.925l.925-.084.925-.676.925.337h.925l.925.084.925.086.925-.085.925-.844.925 1.182.925-.001.925-.422.925-.084.925.083.925.423.925-.084.925.675.925-1.519.925 1.434.925-.42.925-.424.925.169.925.338.925-.337.925.168.925.253.925.339.925-.845.925-.001.925.34.925-.085h.925l.925.167.925-.506.925-.421.925.083.925.424.925-.085.925-.253.925-.253.925 1.012.925-1.181.925.929.925.251.925-.421.925.929.925-.929.925.422"/><path stroke-width="3" stroke-linejoin="round" fill="none" stroke="#4dbeee" d="M97 705h3.7l.925-181.619.925.647.925-.566.925.406.925-.001.925-1.214.925.971.925-.242.925.486.925-.243.925.242.925-.323.925.566.925-.486.925.566.925-.323.925-.162.925.002.925-.488.925.323.925.488.925-1.457.925-.321.925-3.306.925-17.395.925-4.578.925-5.898.925-2.273.925-4.605.925-4.819.925-8.805.925-9.57.925-5.936.925-1.963.925-3.934.925-5.936.925-1.128.925-.67.925.899.925-.899.925-.228.925.527.925-.67.925.599.925-.378.925-.598.925-.669.925-.826.925-1.862.925.377.925-.448.925-1.128.925.156.925-4.17.925-2.512.925 1.255.925-2.368.925.599.925-.451.925-.218.925-.366.925-.078.925-.668.925-1.112.925-.581.925-.746.925.529.925-.217.925-.156.925-.364.925.217.925.008.925-.962.925-1.401.925-.813.925.156.925-1.33.925.587.925-.872.925-.44.925-.819.925.663.925-1.31.925.293.925-3.08.925-1.159.925-2.718.925-3.458.925-.87.925.783.925 2.691.925.068.925-1.017.925-1.887.925-1.304.925.599.925-.599.925-.067h.925l.925.144.925-18.667.925-1.268.925-.426.925-.503.925.579.925.284.925 19.577.925-.01.925-.067.925 1.941.925-1.507.925.067.925 3.327.925 1.686.925.428.925 1.834.925 2.104.925.799.925.74.925.371.925-.018.925.009.925.379.925.569.925.155.925.146h.925l.925-.146.925-.078.925.078.925.741.925-.517.925-.371.925-.077.925.37.925.595.925.786.925-.207.925-.294.925 1.33.925.354.925.303.925-.372.925 3.081.925 3.917.925-1.774.925-1.102.925-.877.925.512.925-2.434.925-.744.925-1.236.925.882.925-.363.925-.294.925-.665.925-.294.925-.604.925.389.925-.733.925-.604.925.302.925-.879.925.879.925-.509.925.078.925-.508.925-.018.925.233.925-.224.925.439.925-.37.925-.224.925.009.925-.741.925-.653.925.438.925-2.921.925-1.089h.925l.925-1.028.925-.068.925.223.925.427.925-.359.925.146.925.427.925-.282.925-.873.925.668.925-3.284.925-1.808.925.145.925 4.638.925 1.174.925 2.987.925.877.925.224.925.723.925.224.925.224.925.732.925-.663.925-.362.925-.009.925.595.925-.887.925.585.925-.077.925.818.925.225.925-.302.925.517.925-.362.925.138.925-.216.925.44.925-.664.925-.008.925.672h.925l.925.733.925.95.925-1.467.925.664.925-.518.925.225.925.941.925.078.925-.078.925.674.925.216.925 1.99.925.875.925 2.508.925 4.972.925 2.08.925-.078.925.814.925.219.925.149.925-.29.925.596.925 1.113.925.298.925 1.948.925 2.77.925-.228.925.071.925.899.925-.157.925.907.925.221.925 1.044.925.987.925.444.925-.294.925.745.925 1.434.925-.61.925.151.925.157.925.38.925.295.925.301.925.079.925.912.925-.237.925.538.925.145.925 2.641.925-1.663.925 2.499.925.533.925.303.925.91.925 1.669.925.602.925-.006.925-.298.925 1.064.925.694.925 1.517.925 3.053.925-.232.925.385.925.538.925-.311.925.464.925-.153.925 1.758.925-.08.925.006.925.148.925.306.925.006.925.994.925 4.155.925.914.925 2.634.925 1.311.925 5.353.925 1.472.925.311.925 4.217.925-.156.925.862.925.229.925-.309.925-1.251.925-.392.925.076.925-1.477.925-.548.925-1.482.925-.312.925.392.925-.392.925-.387.925-.08.925.392.925-.943.925.627.925-.467.925.236.925-.471.925.782.925-.156.925.072.925.471.925-.934.925.156.925-.311.925-.08.925-.076.925-.311.925.622.925-.231.925.005.925-.24.925-.697.925-.782.925-2.326h.925l.925-.155.925.31.925-.225.925.155.925-.005.925.08.925-1.319.925-2.09.925-1.623.925-1.451.925-6.987.925-1.297.925-2.448.925-1.067.925-2.507.925.614.925-.845.925-.079.925-4.396.925-1.282.925.006.925-.611.925-.229.925-.302.925.604.925-2.191.925.465.925.669.925-.446.925-1.206.925-2.271.925-2.474.925-.592.925-.086.925-.293.925-.528.925-.206.925-1.141.925-1.11.925-1.564.925-.824.925-1.865.925-1.26.925-2.298.925-2.23.925-.887.925-.304.925-2.199.925.738.925-1.111.925.009.925-1.863.925-.433.925-1.47.925-1.166.925.146.925-1.113.925-.569.925-2.858.925-2.345.925-21.141.925 4.725.925 6.836.925-2.011.925-16.888.925-1.069.925-2.254.925-.783.925-.076.925-1.054.925-.282.925-.358.925-2.666.925-1.288.925-.41.925-.357.925-.755.925.205.925-.754.925-1.425.925-.472.925-1.219.925.088.925-1.473.925-1.801.925-.824.925-1.126.925-2.437.925-1.79.925-4.21.925-1.529.925-.475.925-.976.925-1.175.925-.412.925-2.73.925-1.841.925-2.137.925-10.045.925-1.066.925-1.139.925-2.423.925-1.478.925-1.55.925-1.86.925-.683.925-.609.925.862.925 2.41.925.283.925 2.222.925-.612.925 2.137.925.687.925 7.3.925 3.397.925.743.925.285.925-.483.925-.545.925 1.301.925 2.02.925-.048.925.409.925.56.925 1.779.925.747.925-.199.925.186.925-.323.925.049.925-.111.925-.102.925-5.314.925.668.925-.743.925.62.925 4.31.925.61.925 4.881.925-2.625.925-.673.925-.275.925-.075.925 3.773.925 4.214.925-.565.925-1.293.925-.64.925.715.925.464.925.691.925.414.925.139.925.616.925.138.925.642.925.553.925-.566.925-.075.925.843.925.202.925-.127.925.618.925.491.925.063.925-.012.925 1.059.925.468.925 1.756.925 1.114.925-.291.925.152.925.899.925.279.925.215.925 1.117.925.267.925 1.893.925-.419.925.915.925-.088.925.304.925.817.925.94.925-.66.925.573.925-.269.925-.304.925.573.925-.141.925.41.925 1.966.925.509.925 2.729.925.304.925 1.194.925.489.925-.63.925 1.619.925.272.925-.054.925-.142.925-.294.925.566.925-1.066.925.294.925.424.925-.989.925-.348.925.337.925.358.925-.988.925.565.925.435.925-.359.925 1.337.925.512.925.49.925 13.032.925 7.782.925 1.871.925.81.925 5.277.925 2.565.925 2.045.925 1.463.925 1.017.925.448.925.518.925-.449.925.734.925.155.925-.751.925 1.693.925-1.468.925.457.925-.302.925 1.538.925-.363.925.06.925-.069.925 3.011.925 1.258.925 1.927.925 4.582.925 6.174.925.242.925 2.156.925 1.276.925.222.925 1.277"/><path d="M135 699h215V466H135z" fill="#fff"/><path d="M173.72 493.855c0-.125.011-.219.032-.281l4.641-18.5c.083-.365.135-.651.155-.86 0-.343-.692-.515-2.078-.515-.218 0-.327-.14-.327-.422.01-.052.034-.146.07-.282a.857.857 0 0 1 .141-.312.29.29 0 0 1 .241-.109l4.313-.344h.094c0 .021.036.049.109.086a.67.67 0 0 1 .125.07.707.707 0 0 1 .062.25l-2.5 9.984c1.313-1.552 2.87-2.328 4.672-2.328.75 0 1.399.131 1.945.391.548.261.975.654 1.282 1.18.308.526.461 1.153.461 1.882 0 .875-.195 1.933-.586 3.172a74.553 74.553 0 0 1-1.461 4.157c-.302.697-.453 1.338-.453 1.921 0 .636.245.954.735.954.833 0 1.528-.445 2.086-1.336.557-.89.95-1.852 1.179-2.883.042-.125.125-.188.25-.188h.39c.084 0 .151.029.204.086a.285.285 0 0 1 .078.196.22.22 0 0 1-.032.093 10.911 10.911 0 0 1-.835 2.274c-.37.745-.836 1.364-1.399 1.859a2.906 2.906 0 0 1-1.984.742c-.75 0-1.39-.258-1.922-.773a2.528 2.528 0 0 1-.797-1.883c0-.396.084-.813.25-1.25a89.501 89.501 0 0 0 1.509-4.297c.4-1.26.6-2.369.6-3.328 0-.615-.119-1.125-.359-1.531-.24-.407-.641-.61-1.203-.61-1.145 0-2.145.352-3 1.055-.854.704-1.594 1.633-2.219 2.789l-2.171 8.735a1.497 1.497 0 0 1-.485.789c-.24.203-.515.304-.828.304a.978.978 0 0 1-.696-.273.884.884 0 0 1-.289-.664M192.213 499.158v-.781c1.834 0 2.75-.229 2.75-.688v-11.547c-.76.365-1.724.547-2.891.547v-.781c1.802 0 3.162-.469 4.078-1.406h.313a.22.22 0 0 1 .148.062.184.184 0 0 1 .071.141v12.984c0 .459.917.688 2.75.688v.781h-7.219"/><path stroke-width="3" stroke-linejoin="round" fill="none" stroke="#0072bd" d="M139.002 486.873h30.014"/><path d="M173.08 532.684v-1.125c2.198 0 3.297-.339 3.297-1.016v-17.578c0-.677-1.099-1.015-3.297-1.015v-1.125h10.047c1.197 0 2.455.216 3.773.648 1.318.432 2.42 1.091 3.305 1.977.886.885 1.328 1.942 1.328 3.171 0 .896-.268 1.695-.804 2.399a6.692 6.692 0 0 1-2.064 1.765 9.849 9.849 0 0 1-2.57 1.024 6.455 6.455 0 0 1 2.516 1.594c.719.729 1.152 1.562 1.297 2.5l.453 2.843c.209 1.281.427 2.237.657 2.868.229.63.734.945 1.515.945.667 0 1.164-.31 1.492-.93.329-.62.493-1.294.493-2.023 0-.074.034-.139.102-.196a.32.32 0 0 1 .21-.085h.297c.208 0 .312.14.312.421 0 .583-.114 1.154-.344 1.711a3.536 3.536 0 0 1-.991 1.383 2.312 2.312 0 0 1-1.54.547c-1.542 0-2.867-.383-3.976-1.148-1.11-.766-1.665-1.889-1.665-3.368v-2.843a3.782 3.782 0 0 0-1.109-2.735c-.739-.76-1.645-1.14-2.719-1.14h-3.843v8.39c0 .677 1.098 1.016 3.296 1.016v1.125h-9.468zm6.172-11.359h3.421c1.772 0 3.121-.357 4.047-1.071.928-.713 1.391-1.924 1.391-3.633 0-1.698-.458-2.9-1.375-3.609-.916-.708-2.271-1.062-4.063-1.062h-1.796a6.64 6.64 0 0 0-.898.046.844.844 0 0 0-.524.274c-.135.151-.203.382-.203.695v8.36M203.173 533.043a6.618 6.618 0 0 1-3.585-1.023 7.276 7.276 0 0 1-2.563-2.735 7.462 7.462 0 0 1-.93-3.617c0-1.25.284-2.438.852-3.562a7.115 7.115 0 0 1 2.375-2.727 5.893 5.893 0 0 1 3.398-1.039c.98 0 1.832.164 2.555.492a4.788 4.788 0 0 1 1.789 1.368 6.055 6.055 0 0 1 1.063 2.062c.239.792.359 1.661.359 2.609 0 .281-.109.422-.328.422h-9.265v.344c0 1.77.356 3.292 1.07 4.563.714 1.271 1.878 1.906 3.492 1.906.656 0 1.263-.146 1.82-.438a4.49 4.49 0 0 0 1.454-1.218 4.373 4.373 0 0 0 .835-1.672.451.451 0 0 1 .117-.196.273.273 0 0 1 .196-.086h.281c.219 0 .328.136.328.407-.302 1.208-.953 2.2-1.953 2.976-1 .776-2.12 1.164-3.36 1.164zm-4.25-8.547h7.297c0-.802-.112-1.614-.336-2.437-.223-.823-.596-1.508-1.116-2.055-.521-.547-1.204-.82-2.048-.82-1.207 0-2.143.565-2.805 1.695a7.049 7.049 0 0 0-.992 3.617M210.236 532.684v-1.125c.719 0 1.313-.057 1.782-.172.468-.115.702-.396.702-.844v-10.531h-2.452v-1.125h2.452v-3.828c0-.688.144-1.331.43-1.93a5.152 5.152 0 0 1 1.156-1.57 5.453 5.453 0 0 1 1.673-1.055 5.153 5.153 0 0 1 1.96-.383c.719 0 1.367.213 1.945.641.579.427.868.995.868 1.703 0 .406-.139.748-.414 1.024a1.394 1.394 0 0 1-1.024.414c-.405 0-.752-.138-1.039-.414a1.368 1.368 0 0 1-.43-1.024c0-.667.287-1.115.86-1.344a2.97 2.97 0 0 0-.922-.171c-.625 0-1.159.221-1.602.664a4.183 4.183 0 0 0-.992 1.617 5.794 5.794 0 0 0-.328 1.89v3.766h3.687v1.125h-3.578v10.531c0 .438.313.716.938.836s1.344.18 2.156.18v1.125h-7.828M226.798 533.043a6.618 6.618 0 0 1-3.585-1.023 7.276 7.276 0 0 1-2.563-2.735 7.462 7.462 0 0 1-.93-3.617c0-1.25.284-2.438.852-3.562a7.115 7.115 0 0 1 2.375-2.727 5.893 5.893 0 0 1 3.398-1.039c.98 0 1.832.164 2.555.492a4.788 4.788 0 0 1 1.789 1.368 6.055 6.055 0 0 1 1.063 2.062c.239.792.359 1.661.359 2.609 0 .281-.109.422-.328.422h-9.265v.344c0 1.77.356 3.292 1.07 4.563.714 1.271 1.878 1.906 3.492 1.906.656 0 1.263-.146 1.82-.438a4.49 4.49 0 0 0 1.454-1.218 4.373 4.373 0 0 0 .835-1.672.451.451 0 0 1 .117-.196.273.273 0 0 1 .196-.086h.281c.219 0 .328.136.328.407-.302 1.208-.952 2.2-1.953 2.976-1 .776-2.12 1.164-3.36 1.164zm-4.25-8.547h7.297c0-.802-.112-1.614-.336-2.437-.223-.823-.596-1.508-1.116-2.055-.521-.547-1.204-.82-2.048-.82-1.207 0-2.143.565-2.805 1.695a7.049 7.049 0 0 0-.992 3.617M233.658 532.684v-1.125c.729 0 1.328-.057 1.797-.172.469-.115.703-.396.703-.844v-8.734c0-.573-.086-.987-.258-1.242a1.08 1.08 0 0 0-.742-.469c-.323-.057-.823-.086-1.5-.086v-1.125l4.578-.344v3.125c.344-.927.834-1.679 1.469-2.258.636-.578 1.406-.867 2.313-.867.635 0 1.202.187 1.702.563.5.374.75.869.75 1.484 0 .385-.138.721-.414 1.008-.276.286-.617.43-1.023.43-.395 0-.734-.141-1.015-.422a1.383 1.383 0 0 1-.423-1.016c0-.573.204-.979.61-1.219h-.187c-.865 0-1.571.313-2.118.938-.546.625-.934 1.4-1.164 2.328a11.08 11.08 0 0 0-.343 2.656v5.25c0 .677 1.036 1.016 3.109 1.016v1.125h-7.844M253.136 533.043a6.623 6.623 0 0 1-3.586-1.023 7.273 7.273 0 0 1-2.562-2.735 7.461 7.461 0 0 1-.929-3.617c0-1.25.283-2.438.85-3.562a7.123 7.123 0 0 1 2.375-2.727 5.9 5.9 0 0 1 3.4-1.039c.978 0 1.829.164 2.554.492.723.329 1.32.784 1.789 1.368a6.035 6.035 0 0 1 1.062 2.062c.24.792.359 1.661.359 2.609 0 .281-.109.422-.328.422h-9.265v.344c0 1.77.357 3.292 1.07 4.563.714 1.271 1.878 1.906 3.493 1.906.655 0 1.262-.146 1.82-.438a4.497 4.497 0 0 0 1.453-1.218 4.36 4.36 0 0 0 .836-1.672.444.444 0 0 1 .118-.196.269.269 0 0 1 .194-.086h.281c.219 0 .328.136.328.407-.302 1.208-.953 2.2-1.953 2.976-1 .776-2.119 1.164-3.359 1.164zm-4.25-8.547h7.298a9.25 9.25 0 0 0-.337-2.437c-.224-.823-.596-1.508-1.117-2.055-.521-.547-1.203-.82-2.046-.82-1.209 0-2.144.565-2.805 1.695a7.04 7.04 0 0 0-.993 3.617M260.12 532.684v-1.125c.73 0 1.329-.057 1.798-.172.468-.115.702-.396.702-.844v-8.734c0-.573-.086-.987-.257-1.242a1.082 1.082 0 0 0-.743-.469c-.322-.057-.822-.086-1.5-.086v-1.125l4.641-.344v3.125a5.554 5.554 0 0 1 1.898-2.25 4.7 4.7 0 0 1 2.743-.875c1.479 0 2.591.354 3.336 1.063.745.708 1.117 1.791 1.117 3.25v7.687c0 .448.235.729.704.844.468.115 1.067.172 1.796.172v1.125h-7.328v-1.125c.729 0 1.328-.057 1.796-.172.469-.115.704-.396.704-.844v-7.593c0-1.042-.152-1.899-.454-2.571-.302-.672-.921-1.008-1.859-1.008-1.239 0-2.257.495-3.055 1.485a5.238 5.238 0 0 0-1.195 3.375v6.312c0 .448.235.729.704.844.468.115 1.062.172 1.78.172v1.125h-7.328M284.636 533.043c-1.291 0-2.464-.336-3.516-1.008a7.161 7.161 0 0 1-2.484-2.687 7.411 7.411 0 0 1-.906-3.57c0-1.261.3-2.469.899-3.625a7.201 7.201 0 0 1 2.484-2.774 6.29 6.29 0 0 1 3.523-1.039c1.25 0 2.388.245 3.414.735 1.027.489 1.539 1.291 1.539 2.406 0 .417-.148.778-.444 1.086-.298.307-.66.461-1.086.461-.428 0-.79-.154-1.087-.461a1.511 1.511 0 0 1-.445-1.086c0-.376.119-.701.359-.977s.536-.45.891-.523c-.74-.469-1.776-.703-3.109-.703-1.021 0-1.844.338-2.47 1.015-.624.677-1.062 1.516-1.312 2.516s-.375 1.989-.375 2.969c0 1.031.154 2.029.461 2.992.308.963.802 1.76 1.484 2.39.683.631 1.54.946 2.571.946 1.01 0 1.87-.31 2.578-.93.708-.62 1.193-1.43 1.454-2.43 0-.125.083-.187.25-.187h.389c.063 0 .12.028.172.086a.281.281 0 0 1 .078.195v.094c-.322 1.261-.963 2.261-1.921 3-.959.739-2.089 1.109-3.391 1.109M298.636 533.043a6.623 6.623 0 0 1-3.586-1.023 7.273 7.273 0 0 1-2.562-2.735 7.45 7.45 0 0 1-.929-3.617c0-1.25.283-2.438.85-3.562a7.123 7.123 0 0 1 2.375-2.727 5.897 5.897 0 0 1 3.4-1.039c.978 0 1.829.164 2.554.492.723.329 1.32.784 1.789 1.368a6.035 6.035 0 0 1 1.062 2.062c.24.792.359 1.661.359 2.609 0 .281-.109.422-.328.422h-9.265v.344c0 1.77.357 3.292 1.07 4.563.714 1.271 1.878 1.906 3.493 1.906.655 0 1.262-.146 1.82-.438a4.497 4.497 0 0 0 1.453-1.218 4.36 4.36 0 0 0 .836-1.672.444.444 0 0 1 .118-.196.269.269 0 0 1 .194-.086h.281c.219 0 .328.136.328.407-.302 1.208-.953 2.2-1.953 2.976-1 .776-2.119 1.164-3.359 1.164zm-4.25-8.547h7.298a9.25 9.25 0 0 0-.337-2.437c-.224-.823-.596-1.508-1.117-2.055-.521-.547-1.203-.82-2.046-.82-1.209 0-2.144.565-2.805 1.695a7.04 7.04 0 0 0-.993 3.617M316.87 532.106a.93.93 0 0 1 .032-.281l4.641-18.5c.083-.365.135-.652.155-.86 0-.344-.692-.515-2.078-.515-.218 0-.327-.141-.327-.422.01-.052.034-.146.07-.282a.857.857 0 0 1 .141-.312.287.287 0 0 1 .241-.109l4.314-.344h.093c0 .021.036.049.109.086a.67.67 0 0 1 .125.07.707.707 0 0 1 .062.25l-2.5 9.984c1.313-1.552 2.87-2.328 4.672-2.328.75 0 1.399.13 1.946.391.547.261.974.654 1.281 1.18.308.526.462 1.153.462 1.882 0 .875-.196 1.933-.587 3.172a74.553 74.553 0 0 1-1.461 4.157c-.302.697-.452 1.337-.452 1.921 0 .636.244.954.734.954.833 0 1.528-.445 2.086-1.336a9.161 9.161 0 0 0 1.18-2.883c.041-.126.124-.188.25-.188h.389c.084 0 .151.028.204.086a.284.284 0 0 1 .078.196.22.22 0 0 1-.032.093 10.911 10.911 0 0 1-.835 2.274c-.37.745-.836 1.364-1.399 1.859a2.906 2.906 0 0 1-1.984.742 2.66 2.66 0 0 1-1.921-.773 2.525 2.525 0 0 1-.798-1.883c0-.396.084-.813.25-1.25a89.887 89.887 0 0 0 1.509-4.297c.4-1.26.6-2.369.6-3.328 0-.615-.119-1.125-.359-1.531-.24-.407-.641-.61-1.202-.61-1.146 0-2.146.352-3 1.055-.855.703-1.595 1.633-2.22 2.789l-2.171 8.735a1.502 1.502 0 0 1-.484.789 1.252 1.252 0 0 1-.829.304.978.978 0 0 1-.696-.273.884.884 0 0 1-.289-.664M335.363 537.409v-.781c1.834 0 2.75-.23 2.75-.688v-11.547c-.76.364-1.724.547-2.891.547v-.781c1.802 0 3.162-.469 4.078-1.406h.313c.052 0 .102.02.148.062a.184.184 0 0 1 .071.141v12.984c0 .458.917.688 2.75.688v.781h-7.219"/><path stroke-width="3" stroke-dasharray="12,12" stroke-linejoin="bevel" fill="none" stroke="#d95319" d="M139.002 525.124h30.014"/><path d="M173.72 570.357c0-.126.011-.22.032-.281l4.641-18.5c.083-.365.135-.652.155-.86 0-.344-.692-.515-2.078-.515-.218 0-.327-.141-.327-.422a5.56 5.56 0 0 1 .07-.283.843.843 0 0 1 .141-.311.287.287 0 0 1 .241-.109l4.313-.344h.094c0 .02.036.049.109.086a.774.774 0 0 1 .125.069.717.717 0 0 1 .062.25l-2.5 9.984c1.313-1.551 2.87-2.327 4.672-2.327.75 0 1.399.13 1.945.391.548.26.975.654 1.282 1.179.308.527.461 1.154.461 1.882 0 .876-.195 1.933-.586 3.173a74.838 74.838 0 0 1-1.461 4.157c-.302.697-.453 1.337-.453 1.92 0 .637.245.955.735.955.833 0 1.528-.446 2.086-1.337a9.12 9.12 0 0 0 1.179-2.882c.042-.126.125-.188.25-.188h.39a.282.282 0 0 1 .282.282c0 .02-.01.051-.032.093a10.911 10.911 0 0 1-.835 2.274c-.37.744-.836 1.364-1.399 1.859a2.91 2.91 0 0 1-1.984.742c-.75 0-1.39-.258-1.922-.773a2.528 2.528 0 0 1-.797-1.884c0-.395.084-.812.25-1.25a89.497 89.497 0 0 0 1.509-4.296c.4-1.261.6-2.37.6-3.329 0-.614-.119-1.125-.359-1.53-.24-.407-.641-.611-1.203-.611-1.145 0-2.145.352-3 1.056-.854.703-1.594 1.633-2.219 2.789l-2.171 8.735a1.498 1.498 0 0 1-.485.788c-.24.203-.515.305-.828.305a.978.978 0 0 1-.696-.273.884.884 0 0 1-.289-.664M191.261 575.66v-.594c0-.032.015-.068.046-.109l3.422-3.782c.51-.563.927-1.034 1.25-1.414.323-.381.641-.818.953-1.313a7.57 7.57 0 0 0 .742-1.507 4.808 4.808 0 0 0 .273-1.625c0-.604-.109-1.18-.327-1.727a2.961 2.961 0 0 0-.993-1.312c-.442-.329-.976-.492-1.602-.492-.635 0-1.205.19-1.711.57-.504.38-.861.877-1.069 1.491a.682.682 0 0 1 .234-.03c.323 0 .601.112.835.336.235.224.352.512.352.867 0 .333-.117.617-.352.852-.234.234-.512.35-.835.35-.344 0-.633-.119-.868-.359a1.165 1.165 0 0 1-.35-.843c0-.552.103-1.071.311-1.555.209-.484.509-.914.899-1.289a4.245 4.245 0 0 1 1.32-.867 4.043 4.043 0 0 1 1.563-.304c.843 0 1.625.176 2.343.531a4.262 4.262 0 0 1 1.719 1.508c.428.65.641 1.408.641 2.273a4.07 4.07 0 0 1-.421 1.813 6.463 6.463 0 0 1-1.079 1.562c-.437.468-.998 1-1.68 1.594-.682.593-1.128.994-1.336 1.202l-2.5 2.392h2.125a84.75 84.75 0 0 0 2.595-.033c.697-.02 1.072-.046 1.125-.077.166-.188.338-.865.514-2.032h.657l-.625 3.923h-8.171"/><path stroke-width="3" stroke-linejoin="round" fill="none" stroke="#edb120" d="M139.002 563.375h30.014"/><path d="M173.08 609.186v-1.125c2.198 0 3.297-.339 3.297-1.016v-17.579c0-.676-1.099-1.015-3.297-1.015v-1.125h10.047c1.197 0 2.455.216 3.773.648 1.318.432 2.42 1.091 3.305 1.977.886.886 1.328 1.943 1.328 3.171 0 .896-.268 1.696-.804 2.399-.537.704-1.225 1.292-2.064 1.765a9.818 9.818 0 0 1-2.57 1.025 6.464 6.464 0 0 1 2.516 1.593c.719.729 1.152 1.562 1.297 2.5l.453 2.843c.209 1.282.427 2.238.657 2.868.229.63.734.946 1.515.946.667 0 1.164-.311 1.492-.931a4.242 4.242 0 0 0 .493-2.023c0-.073.034-.138.102-.196a.325.325 0 0 1 .21-.085h.297c.208 0 .312.141.312.421 0 .584-.114 1.154-.344 1.711a3.522 3.522 0 0 1-.991 1.383 2.312 2.312 0 0 1-1.54.547c-1.542 0-2.867-.382-3.976-1.148-1.11-.766-1.665-1.888-1.665-3.368v-2.843a3.78 3.78 0 0 0-1.109-2.734c-.739-.761-1.645-1.141-2.719-1.141h-3.843v8.391c0 .677 1.098 1.016 3.296 1.016v1.125h-9.468zm6.172-11.36h3.421c1.772 0 3.121-.356 4.047-1.071.928-.713 1.391-1.924 1.391-3.633 0-1.697-.458-2.9-1.375-3.609-.916-.708-2.271-1.062-4.063-1.062h-1.796a6.81 6.81 0 0 0-.898.046.85.85 0 0 0-.524.274c-.135.151-.203.383-.203.695v8.36M203.173 609.545a6.61 6.61 0 0 1-3.585-1.024 7.26 7.26 0 0 1-2.563-2.735 7.458 7.458 0 0 1-.93-3.616c0-1.25.284-2.438.852-3.563a7.13 7.13 0 0 1 2.375-2.727 5.893 5.893 0 0 1 3.398-1.039c.98 0 1.832.164 2.555.492a4.798 4.798 0 0 1 1.789 1.368 6.064 6.064 0 0 1 1.063 2.062c.239.792.359 1.662.359 2.609 0 .282-.109.423-.328.423h-9.265v.343c0 1.771.356 3.292 1.07 4.563.714 1.271 1.878 1.906 3.492 1.906.656 0 1.263-.146 1.82-.437a4.506 4.506 0 0 0 1.454-1.219 4.366 4.366 0 0 0 .835-1.672.457.457 0 0 1 .117-.196.273.273 0 0 1 .196-.086h.281c.219 0 .328.136.328.407-.302 1.208-.953 2.2-1.953 2.976-1 .776-2.12 1.165-3.36 1.165zm-4.25-8.548h7.297c0-.802-.112-1.614-.336-2.436-.223-.824-.596-1.508-1.116-2.056-.521-.546-1.204-.819-2.048-.819-1.207 0-2.143.564-2.805 1.694a7.054 7.054 0 0 0-.992 3.617M210.236 609.186v-1.125c.719 0 1.313-.058 1.782-.173.468-.114.702-.396.702-.843v-10.532h-2.452v-1.125h2.452v-3.827c0-.688.144-1.331.43-1.931a5.148 5.148 0 0 1 1.156-1.569 5.455 5.455 0 0 1 1.673-1.056 5.172 5.172 0 0 1 1.96-.383c.719 0 1.367.214 1.945.641.579.428.868.995.868 1.703 0 .407-.139.748-.414 1.024a1.394 1.394 0 0 1-1.024.414c-.405 0-.752-.138-1.039-.414a1.367 1.367 0 0 1-.43-1.024c0-.666.287-1.114.86-1.344a2.97 2.97 0 0 0-.922-.171c-.625 0-1.159.222-1.602.664a4.183 4.183 0 0 0-.992 1.617 5.803 5.803 0 0 0-.328 1.89v3.766h3.687v1.125h-3.578v10.532c0 .437.313.716.938.835.625.12 1.344.181 2.156.181v1.125h-7.828M226.798 609.545a6.61 6.61 0 0 1-3.585-1.024 7.26 7.26 0 0 1-2.563-2.735 7.458 7.458 0 0 1-.93-3.616c0-1.25.284-2.438.852-3.563a7.13 7.13 0 0 1 2.375-2.727 5.893 5.893 0 0 1 3.398-1.039c.98 0 1.832.164 2.555.492a4.798 4.798 0 0 1 1.789 1.368 6.064 6.064 0 0 1 1.063 2.062c.239.792.359 1.662.359 2.609 0 .282-.109.423-.328.423h-9.265v.343c0 1.771.356 3.292 1.07 4.563.714 1.271 1.878 1.906 3.492 1.906.656 0 1.263-.146 1.82-.437a4.506 4.506 0 0 0 1.454-1.219 4.366 4.366 0 0 0 .835-1.672.457.457 0 0 1 .117-.196.273.273 0 0 1 .196-.086h.281c.219 0 .328.136.328.407-.302 1.208-.952 2.2-1.953 2.976-1 .776-2.12 1.165-3.36 1.165zm-4.25-8.548h7.297c0-.802-.112-1.614-.336-2.436-.223-.824-.596-1.508-1.116-2.056-.521-.546-1.204-.819-2.048-.819-1.207 0-2.143.564-2.805 1.694a7.054 7.054 0 0 0-.992 3.617M233.658 609.186v-1.125c.729 0 1.328-.058 1.797-.173.469-.114.703-.396.703-.843v-8.734c0-.574-.086-.987-.258-1.243a1.083 1.083 0 0 0-.742-.469c-.323-.057-.823-.086-1.5-.086v-1.125l4.578-.343v3.125c.344-.927.834-1.68 1.469-2.259.636-.578 1.406-.866 2.313-.866.635 0 1.202.187 1.702.562.5.375.75.87.75 1.484 0 .386-.138.721-.414 1.008-.276.287-.617.43-1.023.43-.395 0-.734-.14-1.015-.422a1.383 1.383 0 0 1-.423-1.016c0-.572.204-.979.61-1.219h-.187c-.865 0-1.571.313-2.118.939-.546.624-.934 1.4-1.164 2.327a11.087 11.087 0 0 0-.343 2.657v5.25c0 .677 1.036 1.016 3.109 1.016v1.125h-7.844M253.136 609.545a6.616 6.616 0 0 1-3.586-1.024 7.258 7.258 0 0 1-2.562-2.735 7.457 7.457 0 0 1-.929-3.616c0-1.25.283-2.438.85-3.563a7.138 7.138 0 0 1 2.375-2.727 5.9 5.9 0 0 1 3.4-1.039c.978 0 1.829.164 2.554.492.723.329 1.32.785 1.789 1.368a6.045 6.045 0 0 1 1.062 2.062c.24.792.359 1.662.359 2.609 0 .282-.109.423-.328.423h-9.265v.343c0 1.771.357 3.292 1.07 4.563.714 1.271 1.878 1.906 3.493 1.906.655 0 1.262-.146 1.82-.437a4.513 4.513 0 0 0 1.453-1.219c.412-.521.69-1.078.836-1.672a.45.45 0 0 1 .118-.196.269.269 0 0 1 .194-.086h.281c.219 0 .328.136.328.407-.302 1.208-.953 2.2-1.953 2.976-1 .776-2.119 1.165-3.359 1.165zm-4.25-8.548h7.298c0-.802-.113-1.614-.337-2.436-.224-.824-.596-1.508-1.117-2.056-.521-.546-1.203-.819-2.046-.819-1.209 0-2.144.564-2.805 1.694a7.045 7.045 0 0 0-.993 3.617M260.12 609.186v-1.125c.73 0 1.329-.058 1.798-.173.468-.114.702-.396.702-.843v-8.734c0-.574-.086-.987-.257-1.243a1.085 1.085 0 0 0-.743-.469c-.322-.057-.822-.086-1.5-.086v-1.125l4.641-.343v3.125a5.554 5.554 0 0 1 1.898-2.25 4.7 4.7 0 0 1 2.743-.875c1.479 0 2.591.354 3.336 1.062.745.708 1.117 1.792 1.117 3.25v7.688c0 .447.235.729.704.843.468.115 1.067.173 1.796.173v1.125h-7.328v-1.125c.729 0 1.328-.058 1.796-.173.469-.114.704-.396.704-.843v-7.594c0-1.042-.152-1.899-.454-2.571-.302-.672-.921-1.008-1.859-1.008-1.239 0-2.257.495-3.055 1.485a5.241 5.241 0 0 0-1.195 3.375v6.313c0 .447.235.729.704.843.468.115 1.062.173 1.78.173v1.125h-7.328M284.636 609.545c-1.291 0-2.464-.337-3.516-1.009a7.154 7.154 0 0 1-2.484-2.687 7.411 7.411 0 0 1-.906-3.57c0-1.26.3-2.468.899-3.625a7.215 7.215 0 0 1 2.484-2.774 6.29 6.29 0 0 1 3.523-1.039c1.25 0 2.388.245 3.414.735 1.027.49 1.539 1.292 1.539 2.406 0 .417-.148.779-.444 1.086-.298.308-.66.461-1.086.461-.428 0-.79-.153-1.087-.461a1.51 1.51 0 0 1-.445-1.086c0-.375.119-.701.359-.977s.536-.45.891-.523c-.74-.468-1.776-.703-3.109-.703-1.021 0-1.844.339-2.47 1.016-.624.677-1.062 1.516-1.312 2.516a12.2 12.2 0 0 0-.375 2.968 9.79 9.79 0 0 0 .461 2.992c.308.964.802 1.76 1.484 2.39.683.631 1.54.946 2.571.946 1.01 0 1.87-.31 2.578-.93.708-.62 1.193-1.43 1.454-2.43 0-.124.083-.186.25-.186h.389c.063 0 .12.028.172.085a.285.285 0 0 1 .078.195v.095c-.322 1.26-.963 2.26-1.921 3-.959.739-2.089 1.109-3.391 1.109M298.636 609.545a6.616 6.616 0 0 1-3.586-1.024 7.258 7.258 0 0 1-2.562-2.735 7.446 7.446 0 0 1-.929-3.616c0-1.25.283-2.438.85-3.563a7.138 7.138 0 0 1 2.375-2.727 5.897 5.897 0 0 1 3.4-1.039c.978 0 1.829.164 2.554.492.723.329 1.32.785 1.789 1.368a6.045 6.045 0 0 1 1.062 2.062c.24.792.359 1.662.359 2.609 0 .282-.109.423-.328.423h-9.265v.343c0 1.771.357 3.292 1.07 4.563.714 1.271 1.878 1.906 3.493 1.906.655 0 1.262-.146 1.82-.437a4.513 4.513 0 0 0 1.453-1.219c.412-.521.69-1.078.836-1.672a.45.45 0 0 1 .118-.196.269.269 0 0 1 .194-.086h.281c.219 0 .328.136.328.407-.302 1.208-.953 2.2-1.953 2.976-1 .776-2.119 1.165-3.359 1.165zm-4.25-8.548h7.298c0-.802-.113-1.614-.337-2.436-.224-.824-.596-1.508-1.117-2.056-.521-.546-1.203-.819-2.046-.819-1.209 0-2.144.564-2.805 1.694a7.045 7.045 0 0 0-.993 3.617M316.87 608.607c0-.125.011-.219.032-.281l4.641-18.5c.083-.364.135-.651.155-.86 0-.343-.692-.515-2.078-.515-.218 0-.327-.14-.327-.422.01-.052.034-.146.07-.282a.843.843 0 0 1 .141-.311.285.285 0 0 1 .241-.11l4.314-.344h.093c0 .021.036.05.109.086a.74.74 0 0 1 .125.07.712.712 0 0 1 .062.25l-2.5 9.984c1.313-1.552 2.87-2.327 4.672-2.327.75 0 1.399.13 1.946.391.547.26.974.653 1.281 1.179.308.526.462 1.154.462 1.882 0 .876-.196 1.933-.587 3.173a74.828 74.828 0 0 1-1.461 4.156c-.302.698-.452 1.338-.452 1.921 0 .636.244.954.734.954.833 0 1.528-.445 2.086-1.336.557-.89.95-1.851 1.18-2.883.041-.125.124-.187.25-.187h.389c.084 0 .151.028.204.085a.284.284 0 0 1 .078.196c0 .021-.01.052-.032.094a10.882 10.882 0 0 1-.835 2.273c-.37.745-.836 1.365-1.399 1.859a2.907 2.907 0 0 1-1.984.743c-.75 0-1.39-.258-1.921-.774a2.523 2.523 0 0 1-.798-1.883c0-.396.084-.812.25-1.25a89.501 89.501 0 0 0 1.509-4.297c.4-1.26.6-2.369.6-3.328 0-.614-.119-1.125-.359-1.531-.24-.406-.641-.61-1.202-.61-1.146 0-2.146.352-3 1.055-.855.704-1.595 1.634-2.22 2.789l-2.171 8.735a1.502 1.502 0 0 1-.484.789 1.248 1.248 0 0 1-.829.305.975.975 0 0 1-.696-.274.883.883 0 0 1-.289-.664M334.411 613.911v-.595c0-.031.015-.067.046-.109l3.422-3.782c.51-.562.927-1.033 1.25-1.414.323-.38.641-.817.953-1.312a7.55 7.55 0 0 0 .742-1.508 4.8 4.8 0 0 0 .273-1.625c0-.604-.109-1.179-.327-1.726a2.964 2.964 0 0 0-.993-1.313c-.442-.328-.976-.491-1.602-.491-.635 0-1.205.189-1.71.569a3.05 3.05 0 0 0-1.07 1.492.681.681 0 0 1 .234-.031c.323 0 .602.113.836.336.234.224.351.513.351.868 0 .333-.117.617-.351.851a1.142 1.142 0 0 1-.836.351c-.343 0-.633-.119-.868-.359a1.165 1.165 0 0 1-.35-.843c0-.553.103-1.071.311-1.555.209-.484.509-.914.899-1.29a4.28 4.28 0 0 1 1.32-.867 4.061 4.061 0 0 1 1.563-.304c.844 0 1.625.177 2.343.532a4.26 4.26 0 0 1 1.719 1.507c.428.651.641 1.409.641 2.273 0 .636-.14 1.24-.421 1.813a6.424 6.424 0 0 1-1.079 1.562c-.437.469-.998 1-1.68 1.595-.682.593-1.127.994-1.336 1.202l-2.5 2.391h2.125c1.032 0 1.897-.01 2.595-.032.698-.02 1.073-.046 1.125-.077.166-.188.338-.865.514-2.032h.657l-.625 3.923h-8.171"/><path stroke-width="3" stroke-dasharray="12,12" stroke-linejoin="bevel" fill="none" stroke="#7e2f8e" d="M139.002 601.625h30.014"/><path d="M173.72 646.858c0-.125.011-.219.032-.281l4.641-18.5c.083-.365.135-.651.155-.86 0-.343-.692-.515-2.078-.515-.218 0-.327-.141-.327-.422.01-.052.034-.146.07-.282a.857.857 0 0 1 .141-.312.287.287 0 0 1 .241-.109l4.313-.344h.094c0 .021.036.049.109.086a.74.74 0 0 1 .125.07.712.712 0 0 1 .062.25l-2.5 9.984c1.313-1.552 2.87-2.328 4.672-2.328.75 0 1.399.13 1.945.391.548.261.975.654 1.282 1.18.308.526.461 1.154.461 1.882 0 .875-.195 1.933-.586 3.172a74.553 74.553 0 0 1-1.461 4.157c-.302.698-.453 1.338-.453 1.921 0 .636.245.954.735.954.833 0 1.528-.445 2.086-1.336a9.136 9.136 0 0 0 1.179-2.883c.042-.125.125-.188.25-.188h.39c.084 0 .151.029.204.086a.284.284 0 0 1 .078.196.22.22 0 0 1-.032.093 10.89 10.89 0 0 1-.835 2.274c-.37.745-.836 1.365-1.399 1.859a2.906 2.906 0 0 1-1.984.742c-.75 0-1.39-.258-1.922-.773a2.526 2.526 0 0 1-.797-1.883c0-.396.084-.812.25-1.25a89.501 89.501 0 0 0 1.509-4.297c.4-1.26.6-2.369.6-3.328 0-.614-.119-1.125-.359-1.531-.24-.406-.641-.61-1.203-.61-1.145 0-2.145.352-3 1.055-.854.703-1.594 1.633-2.219 2.789l-2.171 8.735a1.497 1.497 0 0 1-.485.789c-.24.203-.515.304-.828.304a.978.978 0 0 1-.696-.273.884.884 0 0 1-.289-.664M192.261 650.458c.343.5.804.872 1.382 1.117a4.737 4.737 0 0 0 1.868.367c.853 0 1.46-.362 1.819-1.086.36-.724.54-1.549.54-2.476a7.33 7.33 0 0 0-.109-1.25 4.081 4.081 0 0 0-.384-1.157 2.343 2.343 0 0 0-.741-.859c-.313-.219-.693-.328-1.141-.328h-1.454c-.135 0-.203-.068-.203-.203v-.188c0-.115.068-.172.203-.172l1.204-.093c.52 0 .95-.195 1.288-.586a3.61 3.61 0 0 0 .742-1.414 5.783 5.783 0 0 0 .236-1.579c0-.708-.165-1.286-.493-1.734-.328-.448-.831-.672-1.507-.672a4.19 4.19 0 0 0-1.595.313c-.51.208-.917.531-1.219.968l.078-.023a.356.356 0 0 1 .079-.008c.333 0 .609.115.828.344.219.229.329.506.329.828 0 .313-.11.584-.329.813a1.097 1.097 0 0 1-.828.343c-.323 0-.599-.114-.829-.343a1.115 1.115 0 0 1-.343-.813c0-.624.19-1.172.57-1.641.38-.469.87-.822 1.469-1.062a4.799 4.799 0 0 1 1.79-.359c.447 0 .919.068 1.413.203.495.135.943.326 1.344.57.401.245.729.56.984.945.256.386.384.828.384 1.328 0 .615-.139 1.183-.415 1.704a4.243 4.243 0 0 1-1.133 1.351 5.065 5.065 0 0 1-1.577.852 5.402 5.402 0 0 1 1.811.718 4.198 4.198 0 0 1 1.383 1.375 3.38 3.38 0 0 1 .524 1.813c0 .802-.224 1.531-.672 2.187a4.652 4.652 0 0 1-1.758 1.54 4.958 4.958 0 0 1-2.288.554c-.689 0-1.376-.13-2.064-.39a4.04 4.04 0 0 1-1.695-1.18c-.442-.526-.664-1.154-.664-1.883 0-.365.123-.669.367-.914.245-.244.55-.367.915-.367.239 0 .455.057.648.172a1.293 1.293 0 0 1 .632 1.109 1.2 1.2 0 0 1-.375.906c-.25.24-.552.36-.905.36h-.109"/><path stroke-width="3" stroke-linejoin="round" fill="none" stroke="#77ac30" d="M139.002 639.876h30.014"/><path d="M173.72 685.109c0-.125.011-.219.032-.281l4.641-18.5c.083-.365.135-.651.155-.86 0-.343-.692-.515-2.078-.515-.218 0-.327-.141-.327-.422.01-.052.034-.146.07-.282a.849.849 0 0 1 .141-.312.287.287 0 0 1 .241-.109l4.313-.344h.094c0 .021.036.049.109.086a.67.67 0 0 1 .125.07.707.707 0 0 1 .062.25l-2.5 9.984c1.313-1.552 2.87-2.328 4.672-2.328.75 0 1.399.13 1.945.391.548.261.975.654 1.282 1.18.308.526.461 1.153.461 1.882 0 .875-.195 1.933-.586 3.172a74.838 74.838 0 0 1-1.461 4.157c-.302.697-.453 1.338-.453 1.921 0 .636.245.954.735.954.833 0 1.528-.446 2.086-1.336a9.136 9.136 0 0 0 1.179-2.883c.042-.125.125-.188.25-.188h.39c.084 0 .151.029.204.086a.284.284 0 0 1 .078.196c0 .02-.01.052-.032.093a10.911 10.911 0 0 1-.835 2.274c-.37.744-.836 1.364-1.399 1.859a2.91 2.91 0 0 1-1.984.742c-.75 0-1.39-.258-1.922-.773a2.528 2.528 0 0 1-.797-1.883c0-.396.084-.813.25-1.25a89.501 89.501 0 0 0 1.509-4.297c.4-1.26.6-2.37.6-3.328 0-.615-.119-1.125-.359-1.531-.24-.407-.641-.61-1.203-.61-1.145 0-2.145.351-3 1.055-.854.703-1.594 1.633-2.219 2.789l-2.171 8.735a1.5 1.5 0 0 1-.485.789c-.24.203-.515.304-.828.304a.978.978 0 0 1-.696-.273.884.884 0 0 1-.289-.664M190.775 686.787v-.781l6.797-10.141c.052-.073.131-.109.235-.109h.313c.166 0 .25.083.25.25v10h2.155v.781h-2.155v2.156c0 .302.216.492.648.57.432.078.93.118 1.493.118v.781h-6.064v-.781a8.42 8.42 0 0 0 1.5-.118c.428-.078.641-.268.641-.57v-2.156h-5.813zm.736-.781h5.202v-7.782l-5.202 7.782z"/><path stroke-width="3" stroke-linejoin="round" fill="none" stroke="#4dbeee" d="M139.002 678.127h30.014"/><path stroke-width=".5" stroke-miterlimit="10" fill="none" stroke="#323232" d="M135 699h215V466H135z"/></svg>