<svg xmlns="http://www.w3.org/2000/svg" xmlns:xlink="http://www.w3.org/1999/xlink" width="960" height="1072" viewBox="0 0 720 804"><path d="M0 804h720V0H0z" fill="#fff"/><path d="M0 804h720V0H0z" fill="#fff"/><path d="M97 705h555V60H97z" fill="#fff"/><path stroke-width=".5" stroke-linejoin="round" fill="none" stroke="#e5e5e5" d="M97 705V60M282 705V60M467 705V60M652 705V60M652 705H97M652 597.5H97M652 490H97M652 382.5H97M652 275H97M652 167.5H97M652 60H97"/><path stroke-width=".5" stroke-linecap="square" stroke-linejoin="round" fill="none" stroke="#323232" d="M97 705h555M97 705v-6.45M282 705v-6.45M467 705v-6.45M652 705v-6.45"/><symbol id="a"><path d="M.232.746A.203.203 0 0 1 .069.667C.023.603 0 .507 0 .373 0 .129.08 0 .232 0c.15 0 .232.129.232.367 0 .14-.022.234-.069.3a.2.2 0 0 1-.163.079m0-.078C.327.668.374.571.374.375.374.169.328.073.23.073c-.093 0-.14.1-.14.299 0 .199.047.296.142.296z"/></symbol><symbol id="b"><path d="M.472.086H.099c.009.06.041.098.128.151l.1.056c.099.055.15.129.15.218a.21.21 0 0 1-.066.155.227.227 0 0 1-.161.056C.16.722.093.69.054.628A.282.282 0 0 1 .016.472h.088a.257.257 0 0 0 .021.102.135.135 0 0 0 .122.071c.08 0 .14-.058.14-.136C.387.451.354.401.291.365L.199.311C.051.226.008.158 0 0h.472v.086z"/></symbol><symbol id="c"><path d="M.299.175V0h.088v.175h.105v.079H.387v.469H.322L0 .268V.175h.299m0 .079H.077l.222.319V.254z"/></symbol><symbol id="d"><path d="M.455.558C.438.676.362.746.254.746a.223.223 0 0 1-.19-.103A.52.52 0 0 1 0 .353C0 .231.017.154.06.09A.2.2 0 0 1 .238 0C.373 0 .47.101.47.242.47.375.38.469.253.469A.189.189 0 0 1 .09.39c.001.179.057.278.158.278.062 0 .105-.04.119-.11h.088M.242.391C.327.391.38.331.38.235.38.144.32.078.239.078.157.078.095.147.095.239c0 .09.06.152.147.152z"/></symbol><use xlink:href="#a" transform="matrix(35 0 0 -35 88.505 748.805)" fill="#323232"/><use xlink:href="#b" transform="matrix(35 0 0 -35 253.69 747.965)" fill="#323232"/><use xlink:href="#a" transform="matrix(35 0 0 -35 273.465 748.805)" fill="#323232"/><use xlink:href="#a" transform="matrix(35 0 0 -35 292.925 748.805)" fill="#323232"/><use xlink:href="#c" transform="matrix(35 0 0 -35 438.48 748)" fill="#323232"/><use xlink:href="#a" transform="matrix(35 0 0 -35 458.465 748.805)" fill="#323232"/><use xlink:href="#a" transform="matrix(35 0 0 -35 477.925 748.805)" fill="#323232"/><use xlink:href="#d" transform="matrix(35 0 0 -35 624.005 748.805)" fill="#323232"/><use xlink:href="#a" transform="matrix(35 0 0 -35 643.465 748.805)" fill="#323232"/><use xlink:href="#a" transform="matrix(35 0 0 -35 662.925 748.805)" fill="#323232"/><path d="M340.989 786.984c0-.386.037-.75.109-1.094l2.812-11.188h-4.093c-.26 0-.391-.172-.391-.515.104-.573.276-.86.516-.86h4.312l1.563-6.359a1.73 1.73 0 0 1 .617-.875c.307-.24.648-.359 1.023-.359.334 0 .612.096.836.289.224.193.336.456.336.79a.88.88 0 0 1-.015.178l-.032.149-1.562 6.187h4.015c.272 0 .407.172.407.516-.01.063-.037.17-.078.32a1.53 1.53 0 0 1-.157.383.305.305 0 0 1-.281.156h-4.25l-2.797 11.266c-.187.74-.281 1.375-.281 1.906 0 1.115.381 1.672 1.141 1.672 1.146 0 2.159-.536 3.039-1.609a12.094 12.094 0 0 0 2.023-3.532c.104-.145.209-.218.313-.218h.468c.105 0 .188.034.25.1a.326.326 0 0 1 .094.228.22.22 0 0 1-.031.125 12.29 12.29 0 0 1-2.5 4.148c-1.094 1.192-2.344 1.789-3.75 1.789-1.031 0-1.899-.336-2.602-1.007-.702-.672-1.054-1.534-1.054-2.586M377.396 799.812a19.06 19.06 0 0 1-3.742-3.938 22.752 22.752 0 0 1-2.57-4.726 27.058 27.058 0 0 1-1.492-5.25 31.296 31.296 0 0 1 0-11.047 26.878 26.878 0 0 1 1.508-5.274 22.454 22.454 0 0 1 2.601-4.742 18.885 18.885 0 0 1 3.695-3.867c0-.052.063-.078.188-.078h.359a.29.29 0 0 1 .219.101.345.345 0 0 1 .094.243c0 .114-.026.197-.078.25a19.418 19.418 0 0 0-3.172 3.992 22.03 22.03 0 0 0-2.039 4.547 28.76 28.76 0 0 0-1.117 4.992 40.689 40.689 0 0 0-.344 5.375c0 8.26 2.208 14.536 6.625 18.828a.445.445 0 0 1 .125.328c0 .063-.036.136-.11.219-.073.083-.14.125-.203.125h-.359c-.125 0-.188-.026-.188-.078M381.572 790.249v-6.36c0-.197.115-.296.344-.296h.468c.157 0 .261.099.313.297.719 3.77 2.469 5.656 5.25 5.656 1.23 0 2.261-.279 3.094-.836.834-.557 1.25-1.42 1.25-2.586 0-.844-.323-1.56-.969-2.148a5.204 5.204 0 0 0-2.313-1.211l-2.609-.516a8.729 8.729 0 0 1-2.383-.867 5.113 5.113 0 0 1-1.758-1.57c-.458-.657-.687-1.418-.687-2.282 0-1.145.302-2.083.906-2.812.604-.73 1.388-1.255 2.352-1.578a9.747 9.747 0 0 1 3.117-.485c1.333 0 2.495.354 3.484 1.063l1.125-.97c0-.062.063-.093.188-.093h.297c.073 0 .141.037.203.11a.338.338 0 0 1 .093.219v5.109c0 .24-.098.359-.296.359h-.485c-.229 0-.344-.12-.344-.359 0-1.365-.377-2.458-1.132-3.28-.755-.824-1.81-1.236-3.164-1.236-1.166 0-2.179.216-3.039.65-.86.43-1.29 1.173-1.29 2.225 0 .719.308 1.31.922 1.774.615.463 1.339.8 2.172 1.008l2.641.484a8.242 8.242 0 0 1 2.484 1.03 5.48 5.48 0 0 1 1.828 1.829c.448.74.672 1.573.672 2.5 0 .938-.161 1.754-.484 2.446a4.7 4.7 0 0 1-1.352 1.726c-.578.459-1.26.795-2.047 1.008a9.412 9.412 0 0 1-2.476.32c-1.625 0-3.016-.547-4.172-1.64l-1.422 1.547c0 .062-.073.093-.219.093h-.218c-.229 0-.344-.11-.344-.328M397.992 799.89c-.228 0-.343-.115-.343-.344 0-.115.026-.198.078-.25 4.448-4.344 6.672-10.646 6.672-18.906 0-8.26-2.198-14.537-6.594-18.828-.104-.063-.156-.172-.156-.328 0-.094.037-.175.109-.243a.342.342 0 0 1 .234-.101h.36c.084 0 .146.026.187.078a18.914 18.914 0 0 1 4.672 5.367 24.712 24.712 0 0 1 2.727 6.742c.578 2.385.867 4.823.867 7.313 0 1.843-.153 3.656-.461 5.437a26.856 26.856 0 0 1-1.484 5.274 22.328 22.328 0 0 1-2.586 4.797 19.125 19.125 0 0 1-3.735 3.914c-.041.052-.103.078-.187.078h-.36" fill="#323232"/><path stroke-width=".5" stroke-linecap="square" stroke-linejoin="round" fill="none" stroke="#323232" d="M97 705V60M97 705h6.45M97 597.5h6.45M97 490h6.45M97 382.5h6.45M97 275h6.45M97 167.5h6.45M97 60h6.45"/><symbol id="e"><path d="M.354.404c.074.045.097.081.097.149 0 .114-.087.193-.213.193C.113.746.025.667.025.554c0-.069.023-.104.096-.15C.04.363 0 .304 0 .224 0 .092.097 0 .238 0c.14 0 .238.092.238.224 0 .08-.04.139-.122.18M.238.668C.313.668.361.623.361.551.361.483.312.438.238.438.163.438.115.483.115.553s.048.115.123.115m0-.304C.326.364.386.306.386.222.386.135.327.078.236.078.15.078.09.137.09.221c0 .086.059.143.148.143z"/></symbol><symbol id="f"><path d="M.157.515V0h.088v.723H.187C.156.612.136.597 0 .579V.515h.157z"/></symbol><use xlink:href="#a" transform="matrix(35 0 0 -35 69.505 718.805)" fill="#323232"/><use xlink:href="#b" transform="matrix(35 0 0 -35 69.19 610.465)" fill="#323232"/><use xlink:href="#c" transform="matrix(35 0 0 -35 68.98 503)" fill="#323232"/><use xlink:href="#d" transform="matrix(35 0 0 -35 69.505 396.305)" fill="#323232"/><use xlink:href="#e" transform="matrix(35 0 0 -35 69.295 288.805)" fill="#323232"/><use xlink:href="#f" transform="matrix(35 0 0 -35 52.57 180.5)" fill="#323232"/><use xlink:href="#a" transform="matrix(35 0 0 -35 69.965 181.305)" fill="#323232"/><use xlink:href="#f" transform="matrix(35 0 0 -35 52.57 73)" fill="#323232"/><use xlink:href="#b" transform="matrix(35 0 0 -35 69.65 72.965)" fill="#323232"/><path d="M28.09 425.221a10.57 10.57 0 0 1-2.61-.343 28.84 28.84 0 0 1-2.992-.969 443.28 443.28 0 0 0-2.867-1.078c-.958-.344-1.74-.516-2.344-.516-.77 0-1.156.286-1.156.859 0 1.031.529 1.88 1.586 2.547a11.714 11.714 0 0 0 3.555 1.469c.166.052.25.161.25.328v.453c0 .218-.125.328-.375.328h-.11c-1.552-.417-2.927-1.057-4.125-1.921-1.198-.865-1.797-1.959-1.797-3.282 0-.927.305-1.71.915-2.351.61-.641 1.383-.961 2.32-.961.49 0 1 .109 1.531.328.313.115 1.003.375 2.07.781 1.068.406 1.951.716 2.649.93.698.213 1.383.39 2.055.531a9.818 9.818 0 0 0 2.023.211c.865 0 1.594-.185 2.187-.555.594-.37.891-.966.891-1.789 0-1.656-1.026-3.115-3.078-4.375a2.184 2.184 0 0 0-.297-.07 5.536 5.536 0 0 0-.281-.039l-11.313-2.813c-.343-.084-.637-.284-.882-.601a1.647 1.647 0 0 1-.368-1.024c0-.323.102-.602.305-.836.203-.234.471-.351.805-.351a.93.93 0 0 1 .297.031l11.234 2.828c.77.177 1.406.266 1.906.266 1.115 0 1.672-.375 1.672-1.125 0-.833-.515-1.458-1.547-1.875-1.031-.417-2.23-.771-3.594-1.063-.145-.052-.218-.151-.218-.296v-.485c0-.094.044-.174.133-.242a.41.41 0 0 1 .242-.102c1.115.281 2.073.552 2.875.813.802.26 1.526.669 2.172 1.226.645.557.968 1.258.968 2.102a3.82 3.82 0 0 1-.679 2.219 3.322 3.322 0 0 1-1.836 1.328 7.266 7.266 0 0 1 1.828 2.07c.458.786.687 1.617.687 2.492 0 1.5-.409 2.695-1.226 3.586-.818.89-1.972 1.336-3.461 1.336M42.012 382.38a19.05 19.05 0 0 1-3.938 3.742 22.798 22.798 0 0 1-4.726 2.57 27.058 27.058 0 0 1-5.25 1.492 31.296 31.296 0 0 1-11.047 0 26.878 26.878 0 0 1-5.274-1.508 22.455 22.455 0 0 1-4.742-2.601 18.888 18.888 0 0 1-3.867-3.695c-.052 0-.078-.063-.078-.188v-.359a.29.29 0 0 1 .101-.219.344.344 0 0 1 .243-.094c.114 0 .197.026.25.078 1.24 1.271 2.57 2.329 3.992 3.172a22.085 22.085 0 0 0 4.547 2.039 28.76 28.76 0 0 0 4.992 1.117c1.719.229 3.51.344 5.375.344 8.26 0 14.536-2.209 18.828-6.625a.44.44 0 0 1 .328-.125c.063 0 .136.036.219.11.083.072.125.14.125.203v.359c0 .125-.026.188-.078.188M32.777 365.767 8.309 374.97c-.542.229-.883.666-1.024 1.312-.14.646-.211 1.469-.211 2.469H5.699v-10.719h1.375c0 2.156.333 3.235 1 3.235a.698.698 0 0 1 .235-.032l19.906-7.484-18.844-7.062c-.104-.053-.26-.079-.47-.079-.634 0-1.097.292-1.389.875-.292.583-.438 1.239-.438 1.969H5.699v-8.422h1.375c0 .979.18 1.838.539 2.578.36.74.945 1.271 1.758 1.594l23.406 8.813c.281.072.422.281.422.625v.5c0 .343-.14.551-.422.625M42.09 348.095c0 .228-.115.343-.344.343-.115 0-.198-.026-.25-.078-4.344-4.448-10.646-6.672-18.906-6.672-8.26 0-14.536 2.198-18.828 6.594-.063.104-.172.156-.328.156a.32.32 0 0 1-.243-.109.342.342 0 0 1-.101-.234v-.36c0-.083.026-.146.078-.187a18.899 18.899 0 0 1 5.367-4.672 24.713 24.713 0 0 1 6.742-2.727 30.943 30.943 0 0 1 7.313-.867c1.843 0 3.656.154 5.437.461a26.79 26.79 0 0 1 5.274 1.485 22.322 22.322 0 0 1 4.797 2.585 19.125 19.125 0 0 1 3.914 3.735c.052.041.078.104.078.187v.36" fill="#323232"/><path stroke-width="3" stroke-linejoin="round" fill="none" stroke="#0072bd" d="m97 705 .925-645H119.2l.925 1.311.925 65.405.925 44.945.925 32.963.925 14.801.925 11.242.925 11.121.925-3.433.925 1.806.925 8.615.925 24.734.925 19.731.925-3.436.925 8.489.925-24.521.925 23.031.925-21.488.925-.544.925-18.867.925 14.845.925 7.791.925-.43.925 5.245.925-13.478.925 15.419.925-2.378.925-15.531.925-26.943.925 25.175.925 8.982.925 13.675.925-10.627.925 14.931.925 7.694.925-2.13.925-12.458.925-20.064.925 4.204.925 5.283.925-3.145.925 15.615.925-13.243.925-4.931.925 4.68.925-36.799.925 14.123.925-1.201.925 17.885.925 6.194.925 3.186.925-6.777.925-5.498.925 2.121.925 28.63.925-3.403.925-24.019.925 8.267.925 5.589.925.36.925 7.999.925 23.532.925-8.595.925 12.062.925 4.817.925-11.681.925-15.222.925 9.96.925 13.393.925 5.914.925 18.98.925-19.265.925 3.071.925-16.865.925 15.876.925-7.028.925-5.724.925-6.957.925 32.458.925-16.343.925 4.077.925-16.885.925-7.678.925 14.77.925-11.299.925-.444.925.139.925.703.925-12.793.925 26.938.925-11.227.925 18.945.925-8.697.925 1.582.925-2.621.925 6.387.925-7.672.925-11.922.925 25.423.925 1.503.925-3.569.925-4.02.925-15.421.925 7.317.925 7.158.925 3.473.925-13.046.925 3.66.925.958.925 4.851.925 18.421.925 14.067.925-14.203.925-8.752.925 4.403.925-.082.925 14.881.925-5.003.925 29.383.925-6.289.925-11.645.925-5.793.925 32.67.925-16.286.925 5.092.925-8.298.925 17.64.925 1.787.925 7.572.925-23.909.925 13.805.925-17.193.925 4.423.925-2.149.925 23.102.925-13.476.925 11.263.925 8.414.925-1.139.925-14.901.925 20.928.925 13.421.925-24.008.925 21.075.925-9.109.925 9.011.925 15.726.925-22.098.925 19.338.925-24.695.925 18.459.925 1.854.925 2.354.925-9.966.925 13.797.925-12.705.925-78.084.925 24.692.925 30.276.925 18.612.925 13.866.925-2.498.925 21.663.925-3.846.925-4.29.925-6.934.925-10.337.925 18.714.925-11.438.925-1.481.925-12.016.925 5.858.925 15.062.925-1.785.925-8.898.925 17.707.925-17.053.925 17.389.925 15.863.925-1.509.925-12.003.925-5.701.925 6.602.925-7.687.925-4.451.925 27.342.925-3.208.925 13.607.925-16.547.925-2.493.925-6.522.925-20.971.925 27.448.925-3.822.925-4.19.925 14.199.925-12.903.925 26.67.925-10.937.925 6.44.925-12.464.925-1.138.925-22.54.925 23.318.925-7.224.925 2.154.925 7.194.925 1.463.925 3.054.925 4.281.925-2.804.925 9.743.925-26.658.925 5.786.925 24.589.925 11.579.925 3.068.925-3.194.925-14.537.925-6.87.925-23.287.925 7.196.925-1.155.925 2.631.925 4.002.925-30.565.925 24.969.925 9.502.925-8.991.925-.093.925 2.752.925-2.691.925 27.971.925-21.442.925-5.888.925.117.925 12.294.925-10.43.925-1.032.925 22.1.925-12.197.925 5.223.925 5.305.925.167.925-15.138.925-.318.925 8.072.925-9.254.925 12.092.925-25.615.925 14.592.925 8.039.925 5.816.925 20.163.925-19.183.925 16.143.925-13.09.925 6.114.925-17.781.925-23.457.925 8.248.925 14.655.925 2.624.925-11.112.925-10.401.925 21.12.925-5.612.925 17.445.925-15.708.925 10.886.925-28.045.925 8.959.925 11.302.925-17.529.925 15.274.925-12.432.925 53.352.925 17.09.925 29.608.925-13.103.925-14.487.925-26.022.925-5.329.925-12.384.925-9.575.925-2.551.925-3.866.925-7 .925-11.514.925 5.117.925-18.975.925-27.595.925 12.984.925-1.157.925-3.634.925-2.24.925 11.3.925 5.451.925-4.699.925-18.252.925 10.677.925-15.372.925 20.077.925-5.812.925 13.904.925-21.931.925 70.276.925-53.62.925 13.466.925 5.231.925 5.702.925-14.122.925-10.785.925-6.773.925-7.205.925-11.232.925-13.016.925 3.659.925-10.261.925 11.443.925-6.352.925 22.946.925-11.441.925 2.157.925 3.527.925-1.682.925.294.925-23.231.925-3.999.925 36.919.925-24.322.925 29.086.925-4.615.925-23.004.925-6.91.925 7.701.925 2.029.925 7.016.925-20.248.925 2.278.925.765.925 10.838.925-14.523.925 3.642.925 3.617.925-4.203.925 5.985.925-2.045.925 2.301.925 11.303.925-17.007.925 4.55.925-18.309.925 15.45.925-7.378.925-12.016.925 2.842.925 7.058.925-20.992.925 5.037.925 11.103.925 1.569.925-5.057.925 3.781.925 3.609.925-21.632.925 2.899.925-5.042.925-24.4.925 14.065.925-6.63.925 24.51.925 6.012.925-18.668.925 6.936.925 10.89.925-14.029.925-8.323.925-20.178.925 28.729.925-10.762.925-15.401.925 4.337.925 2.425.925 24.372.925-5.928.925-11.461.925-7.242.925-2.656.925-.988.925-5.208.925 15.442.925 3.132.925 2.746.925-15.508.925 12.611.925-16.6.925-12.069.925 24.949.925-8.834.925-17.299.925 2.767.925-7.265.925 2.481.925.398.925 12.151.925-2.861.925-17.001.925 21.85.925-24.61.925 4.511.925-1.848.925 1.539.925-3.094.925 14.287.925 10.971.925-15.696.925-9.7.925 2.878.925.722.925 25.406.925-15.373.925-13.691.925 12.288.925-18.985.925 7.014.925 28.891.925 19.008.925 6.661.925 12.379.925 40.12.925 17.337.925-17.018.925 20.088.925-1.59.925-6.776.925-1.078.925 8.746.925 13.402.925-1.909.925 16.027.925-6.938.925-10.802.925 10.118.925-19.366.925-10.962.925-9.786.925 25.646.925-.908.925-6.668.925 3.824.925-3.98.925 10.395.925-12.126.925-3.564.925.173.925-70.694.925 45.972.925 8.504.925 4.188.925 21.437.925-1.329.925 3.166.925-21.035.925-2.037.925-3.114.925 10.797.925 6.709.925 3.886.925 2.691.925.831.925-15.062.925-9.208.925 19.663.925-20.668.925 3.862.925-6.207.925 5.009.925-3.917.925 19.972.925-24.752.925 4.352.925 12.252.925 1.421.925 1.516.925-1.342.925-15.223.925 15.731.925 28.85.925-22.983.925-16.91.925 4.45.925 13.73.925 9.121.925-14.856.925-14.119.925-3.169.925 19.6.925-2.719.925-4.748.925-11.603.925 12.329.925 18.253.925 17.378.925-11.015.925-1.149.925-19.415.925.61.925-14.07.925 7.174.925.451.925-7.036.925 18.328.925-3.802.925 21.499.925-11.954.925 3.97.925-1.835.925-10.729.925 26.059.925-35.265.925 30.857.925-10.773.925 15.196.925-7.341.925 13.766.925 1.917.925 9.822.925 2.253.925.69.925-21.356.925-6.055.925-1.768.925 1.553.925-9.788.925 26.12.925-2.519.925 9.06.925-5.786.925 6.374.925-1.864.925-16.082.925.873.925 19.612.925 5.615.925-5.843.925 5.365.925 21.884.925-12.187.925 5.602.925-13.838.925 20.612.925 1.281.925-4.829.925-8.375.925-.69.925-15.276.925 42.462.925-20.892.925 6.762.925 16.214.925-4.52.925 3.544.925 7.403.925 3.952.925 1.975.925-4.384.925 14.046.925 22.284.925-15.698.925-17.525.925 9.279.925-4.312.925-30.036.925 30.168.925-23.774.925 11.014"/><path stroke-width="3" stroke-linejoin="round" fill="none" stroke="#d95319" d="m97 705 .925-645h30.525l.925 64.005.925 37.545.925 21.977.925 35.478.925-3.486.925 3.637.925 29.459.925 16.471.925-11.644.925 24.831.925 1.892.925-4.658.925-1.879.925-8.044.925 2.149.925 12.678.925-24.54.925 5.938.925-14.613.925 14.109.925 4.194.925 6.283.925 8.032.925-15.965.925 6.139.925-12.716.925-30.836.925 30.511.925 5.694.925-1.58.925 19.94.925-2.319.925-1.24.925.383.925-.074.925-.012.925-16.038.925-2.974.925 7.009.925 14.864.925 20.816.925-31.669.925 7.131.925 8.392.925-3.636.925-1.995.925-13.239.925 7.004.925-16.765.925.403.925 12.59.925 2.49.925-1.455.925-9.964.925-10.551.925 22.66.925-11.862.925 2.869.925 15.473.925 15.186.925-8.68.925-10.384.925 23.175.925-13.779.925-9.504.925 18.086.925-22.597.925 11.868.925-8.423.925-12.264.925-1.872.925 15.829.925.258.925-7.243.925-19.053.925 15.054.925 3.235.925 7.254.925-13.917.925 22.294.925 1.085.925-10.67.925 1.32.925-11.072.925 2.347.925-12.264.925 21.107.925-9.226.925-.678.925 19.786.925-7.365.925-3.646.925-14.722.925-1.518.925-13.653.925 26.298.925 12.756.925-2.059.925-.677.925 7.714.925 1.159.925 3.023.925-14.157.925 8.721.925-6.052.925 8.998.925 12.16.925-9.305.925-8.323.925-2.941.925 25.003.925-30.927.925-1.976.925-11.356.925 16.089.925-14.989.925 13.898.925-28.436.925 26.243.925 12.95.925 2.668.925-16.45.925-6.18.925.201.925 8.175.925-17.277.925-6.426.925 30.249.925-25.91.925 13.11.925-6.28.925-1.863.925 4.105.925 9.722.925-16.404.925-2.345.925-13.497.925 23.968.925 8.472.925 24.236.925-1.324.925-1.108.925-13.833.925 15.443.925 2.992L263.5 705H278.3l.925-63.872.925-77.35.925-34.105.925-23.393.925 10.362.925-41.194.925 11.475.925-18.073.925-14.42.925 16.842.925 3.088.925-16.892.925-27.725.925-3.284.925 20.372.925-11.547.925-4.984.925 8.874.925-1.738.925 12.787.925-24.134.925 8.547.925 16.955.925-13.168.925-8.496.925 4.818.925 27.405.925-15.705.925 6.244.925-24.717.925-1 .925 10.163.925 4.289.925-5.171.925 12.336.925-19.054.925 8.049.925 1.532.925-13.26.925 7.582.925 2.948.925-9.755.925.195.925 2.409.925 2.157.925.699.925-14.525.925-4.39.925 7.046.925 3.839.925-7.183.925-.559.925 7.279.925 44.961.925 32.871.925 37.553.925 17.227.925-50.08.925-23.829.925-8.894.925 7.188.925 3.793.925-45.713.925 3.904.925-6.283.925-4.517.925 16.882.925 1.348.925 5.013.925-18.317.925 15.324.925-11.494.925 2.839.925 7.712.925-22.834.925-4.487.925-3.397.925-11.557.925 30.792.925.164.925-12.947.925-24.916.925 22.906.925-5.244.925-3.998.925 16.706.925 7.081.925-11.524.925-1.739.925-2.812.925 3.034.925 10.58.925-4.438.925 7.274.925-4.612.925-7.86.925 17.296.925-2.456.925-5.374.925-13.473.925-12.701.925 7.717.925 7.661.925-6.625.925 2.858.925 7.643.925-7.005.925-5.499.925-27.482.925 13.724.925 14.62.925 13.877.925-9.2.925-13.184.925-2.625.925 25.052.925-3.418.925-10.278.925 8.123.925 9.504.925-10.226.925-3.218.925 7.662.925-6.702.925 3.634.925 23.625.925-14.514.925-8.848.925 3.296.925 2.006.925-20.769.925-14.23.925 24.566L402.25 60H423.525l.925 32.524.925 37.529.925 35.284.925 14.302.925 18.948.925 9.079.925 34.054.925-25.781.925 10.312.925 16.209.925 20.148.925-29.326.925 21.123.925-.962.925 6.719.925-.352.925 19.044.925-36.561.925 19.646.925-5.116.925-8.007.925 22.818.925 4.149.925-26.7.925 15.859.925-14.708.925 1.999.925 7.894.925-11.249.925 13.467.925-4.866.925 6.475.925-13.956.925-8.517.925 10.581.925 2.732.925-4.78.925-.51.925-19.923.925 2.426.925-3.374.925 17.411.925 2.986.925 1.682.925 2.344.925 5.549.925 42.587.925 23.617.925 24.778.925 40.155.925 13.896.925-20.32.925 24.101.925-35.256.925.672.925 10.922.925 2.658.925 8.789.925-6.085.925 6.808.925 2.868.925.433.925-10.562.925 17.976.925-.185.925-9.957.925-9.992.925 7.153.925 12.928.925-20.661.925-2.736.925 12.126.925-1.382.925 11.727.925-3.999.925-8.251.925-9.854.925 14.562.925-8.417.925 12.262.925 2.381.925 14.196.925-11.699.925-4.609.925 4.373.925-20.47.925 3.256.925 17.785.925 11.538.925-25.991.925-.568.925 5.676.925-2.176.925-13.32.925-8.745.925 13.067.925 2.052.925 35.945.925-26.344.925-4.975.925-10.713.925-4.022.925 8.389.925 22.783.925-12.72.925-4.716.925 5.441.925 30.86.925-25.241.925-29.931.925 16.633.925 4.458.925 6.396.925 4.312.925-8.09.925-12.751.925 10.455.925 11.786.925-15.357.925 15.718.925-4.876.925 5.855.925-1.421.925-2.21.925-28.865.925 8.498L541 705H564.125l.925-25.742.925-34.987.925-31.423.925-21.981.925-24.017.925 7.972.925 20.457.925-11.621.925-18.52.925-1.907.925 9.648.925-8.679.925-7.66.925 13.244.925-23.935.925 36.034.925-20.125.925-10.19.925.708.925-.57.925 14.986.925-4.386.925 11.826.925-16.987.925 18.073.925 1.693.925 21.618.925-33.795.925 5.724.925-23.007.925 6.676.925 12.494.925-10.237.925 23.458.925-9.918.925 20.961.925-23.871.925-2.715.925 1.983.925-8.17.925-8.364.925-12.504.925 15.398.925 11.131.925 3.937.925 19.202.925-10.519.925 15.907.925-16.587.925 15.108.925-14.816.925-3.254.925-21.827.925.016.925 3.148.925 12.872.925 18.252.925-29.917.925.217.925-1.649.925-11.429.925 22.608.925 3.453.925-6.225.925.834.925 14.515.925-4.354.925 20.485.925-30.255.925 1.705.925 3.33.925-21.829.925 19.762.925-29.159.925 4.395.925 1.955.925-5.166.925 19.215.925-1.879.925-8.315.925 2.07.925-1.718.925-12.273.925 5.512.925-5.621.925 40.894.925-13.255.925-11.12.925-2.182.925-21.035.925 24.494.925-10.958.925-2.82.925.361.925.126"/><path d="M572 148h72V68h-72z" fill="#fff"/><path d="M612.581 92.95c0-.698.094-1.414.281-2.149.187-.734.45-1.552.789-2.453l.883-2.352c.281-.781.422-1.421.422-1.921 0-.636-.235-.954-.703-.954-.844 0-1.539.435-2.086 1.305a9.74 9.74 0 0 0-1.211 2.914c-.042.135-.131.203-.266.203h-.375c-.177 0-.266-.099-.266-.297v-.093c.344-1.271.87-2.399 1.579-3.383.708-.985 1.604-1.477 2.687-1.477.76 0 1.404.25 1.93.75s.789 1.136.789 1.907c0 .395-.089.812-.266 1.25-.093.26-.307.828-.64 1.703a37.434 37.434 0 0 0-.766 2.172 18.507 18.507 0 0 0-.438 1.687 8.168 8.168 0 0 0-.171 1.656c0 .709.151 1.307.453 1.797.302.49.791.735 1.468.735 1.365 0 2.563-.844 3.594-2.532.021-.084.039-.164.055-.242a5.67 5.67 0 0 0 .039-.226l2.297-9.282c.073-.281.239-.523.5-.726.26-.203.541-.305.844-.305.26 0 .486.083.679.25a.824.824 0 0 1 .289.656c0 .125-.01.209-.031.25l-2.312 9.219c-.146.635-.219 1.156-.219 1.563 0 .916.307 1.375.922 1.375.687 0 1.2-.425 1.539-1.274.339-.849.628-1.83.867-2.945.041-.126.125-.188.25-.188h.391a.24.24 0 0 1 .203.11c.052.072.078.14.078.203a35.98 35.98 0 0 1-.664 2.359 5.148 5.148 0 0 1-1.008 1.781c-.459.531-1.032.797-1.719.797a3.137 3.137 0 0 1-1.82-.554 2.705 2.705 0 0 1-1.086-1.508 5.975 5.975 0 0 1-1.703 1.5 4.026 4.026 0 0 1-2.047.562c-1.23 0-2.209-.336-2.938-1.008-.729-.671-1.093-1.616-1.093-2.835M629.269 101.159v-.781c1.833 0 2.75-.23 2.75-.688V88.143c-.76.364-1.723.547-2.89.547v-.781c1.802 0 3.161-.469 4.078-1.406h.312a.22.22 0 0 1 .149.062c.046.042.07.089.07.141V99.69c0 .458.917.688 2.75.688v.781h-7.219"/><path stroke-width="3" stroke-linejoin="round" fill="none" stroke="#0072bd" d="M576.021 88.874h30.153"/><path d="M612.581 131.202c0-.698.094-1.414.281-2.149.187-.734.45-1.551.789-2.453l.883-2.352c.281-.78.422-1.421.422-1.921 0-.636-.235-.954-.703-.954-.844 0-1.539.435-2.086 1.305a9.751 9.751 0 0 0-1.211 2.914c-.042.135-.131.203-.266.203h-.375c-.177 0-.266-.099-.266-.297v-.093c.344-1.271.87-2.399 1.579-3.383.708-.985 1.604-1.477 2.687-1.477.76 0 1.404.25 1.93.75s.789 1.136.789 1.907c0 .395-.089.812-.266 1.25-.093.26-.307.828-.64 1.703a37.434 37.434 0 0 0-.766 2.172 18.507 18.507 0 0 0-.438 1.687 8.168 8.168 0 0 0-.171 1.656c0 .709.151 1.308.453 1.797.302.49.791.735 1.468.735 1.365 0 2.563-.844 3.594-2.532a5.448 5.448 0 0 0 .094-.468l2.297-9.282c.073-.281.239-.523.5-.726.26-.203.541-.305.844-.305.26 0 .486.083.679.25a.824.824 0 0 1 .289.656c0 .125-.01.209-.031.25l-2.312 9.219c-.146.635-.219 1.156-.219 1.563 0 .917.307 1.375.922 1.375.687 0 1.2-.425 1.539-1.274.339-.849.628-1.83.867-2.945.041-.125.125-.188.25-.188h.391a.24.24 0 0 1 .203.11c.052.073.078.14.078.203a35.98 35.98 0 0 1-.664 2.359 5.139 5.139 0 0 1-1.008 1.781c-.459.531-1.032.797-1.719.797a3.13 3.13 0 0 1-1.82-.554 2.705 2.705 0 0 1-1.086-1.508 5.945 5.945 0 0 1-1.703 1.5 4.017 4.017 0 0 1-2.047.562c-1.23 0-2.209-.336-2.938-1.008-.729-.671-1.093-1.616-1.093-2.835M628.316 139.411v-.594c0-.031.016-.068.047-.109l3.422-3.782a56.01 56.01 0 0 0 1.25-1.414c.322-.38.64-.817.953-1.312.312-.495.56-.997.742-1.508a4.78 4.78 0 0 0 .274-1.625c0-.604-.109-1.179-.328-1.726a2.972 2.972 0 0 0-.993-1.313c-.443-.328-.976-.492-1.601-.492-.636 0-1.206.19-1.711.57-.505.38-.862.877-1.07 1.492a.661.661 0 0 1 .234-.031c.322 0 .601.112.836.336.234.224.351.513.351.867 0 .334-.117.617-.351.852a1.145 1.145 0 0 1-.836.351c-.344 0-.633-.119-.867-.359a1.165 1.165 0 0 1-.352-.844 3.877 3.877 0 0 1 1.211-2.844c.391-.374.83-.664 1.32-.867a4.043 4.043 0 0 1 1.563-.304c.844 0 1.625.177 2.344.531a4.267 4.267 0 0 1 1.718 1.508c.427.651.641 1.408.641 2.273 0 .635-.141 1.24-.422 1.813a6.44 6.44 0 0 1-1.078 1.562c-.438.469-.997 1-1.68 1.594-.682.593-1.128.994-1.336 1.203l-2.5 2.391h2.125c1.031 0 1.896-.01 2.594-.032.698-.021 1.073-.046 1.125-.078.166-.187.339-.864.516-2.031h.656l-.625 3.922h-8.172"/><path stroke-width="3" stroke-linejoin="round" fill="none" stroke="#d95319" d="M576.021 127.126h30.153"/><path stroke-width=".5" stroke-miterlimit="10" fill="none" stroke="#323232" d="M572 148h72V68h-72z"/></svg>