<svg xmlns="http://www.w3.org/2000/svg" xmlns:xlink="http://www.w3.org/1999/xlink" width="788.16" height="515.84" viewBox="0 0 591.12 386.88"><clipPath id="a"><path transform="scale(.24)" d="M0 0h2462.5v1608.714H0z" fill-rule="evenodd"/></clipPath><g clip-path="url(#a)"><path d="M221.805 92.389a28.737 28.737 0 0 1-3.396 13.557 28.752 28.752 0 0 1-19.753 14.65 28.736 28.736 0 0 1-13.959-.687 28.74 28.74 0 0 1-11.987-7.185 28.74 28.74 0 0 1-7.185-11.987 28.745 28.745 0 0 1 0-16.697 28.741 28.741 0 0 1 9.276-13.882 28.745 28.745 0 0 1 15.426-6.39 28.745 28.745 0 0 1 16.376 3.257 28.749 28.749 0 0 1 13.013 14.358 28.737 28.737 0 0 1 2.189 11.006z" fill="#e0e0e0"/><path fill="none" stroke="#666" d="M221.805 92.389a28.737 28.737 0 0 1-3.396 13.557 28.752 28.752 0 0 1-19.753 14.65 28.736 28.736 0 0 1-13.959-.687 28.74 28.74 0 0 1-11.987-7.185 28.74 28.74 0 0 1-7.185-11.987 28.745 28.745 0 0 1 0-16.697 28.741 28.741 0 0 1 9.276-13.882 28.745 28.745 0 0 1 15.426-6.39 28.745 28.745 0 0 1 16.376 3.257 28.749 28.749 0 0 1 13.013 14.358 28.737 28.737 0 0 1 2.189 11.006z" stroke-width=".71898"/><symbol id="b"><path d="M.31 0v.171H0v.081l.327.464h.071V.252h.097v-.08H.398V0H.311m0 .252v.323L.086.252h.225z"/></symbol><use xlink:href="#b" transform="matrix(14.37956 0 0 -14.37956 188.87 97.781)" fill="#333"/><path stroke-width="1.43796" stroke-miterlimit="10" fill="none" stroke="#000" d="m5.752 207.066 54.24.208"/><path d="m64.305 207.289-5.759 2.854 1.446-2.869-1.424-2.883 5.737 2.898z"/><path stroke-width="1.43796" stroke-miterlimit="10" fill="none" stroke="#000" d="m64.305 207.289-5.759 2.854 1.446-2.869-1.424-2.883 5.737 2.898z"/><symbol id="c"><path d="M.264 0H.176v.56A.582.582 0 0 0 0 .454V.54a.53.53 0 0 1 .129.084.33.33 0 0 1 .078.096h.057V0z"/></symbol><use xlink:href="#c" transform="matrix(11.50365 0 0 -11.50365 32.562 225.76)"/><path d="M221.805 293.703a28.737 28.737 0 0 1-3.396 13.556 28.756 28.756 0 0 1-30.974 14.65 28.735 28.735 0 0 1-12.634-5.975 28.734 28.734 0 0 1-8.325-11.226 28.739 28.739 0 0 1-2.051-13.824 28.746 28.746 0 0 1 8.285-17.517 28.743 28.743 0 0 1 14.725-7.871 28.735 28.735 0 0 1 13.959.686 28.744 28.744 0 0 1 13.883 9.276 28.741 28.741 0 0 1 5.975 12.634 28.746 28.746 0 0 1 .553 5.61z" fill="#e0e0e0"/><path fill="none" stroke="#666" d="M221.805 293.703a28.737 28.737 0 0 1-3.396 13.556 28.756 28.756 0 0 1-30.974 14.65 28.735 28.735 0 0 1-12.634-5.975 28.734 28.734 0 0 1-8.325-11.226 28.739 28.739 0 0 1-2.051-13.824 28.746 28.746 0 0 1 8.285-17.517 28.743 28.743 0 0 1 14.725-7.871 28.735 28.735 0 0 1 13.959.686 28.744 28.744 0 0 1 13.883 9.276 28.741 28.741 0 0 1 5.975 12.634 28.746 28.746 0 0 1 .553 5.61z" stroke-width=".71898"/><symbol id="d"><path d="M.474.084V0H0C0 .021.003.042.01.061a.325.325 0 0 0 .058.095.923.923 0 0 0 .115.109c.078.063.13.114.157.151a.183.183 0 0 1 .041.106.116.116 0 0 1-.037.088.133.133 0 0 1-.097.036.137.137 0 0 1-.102-.038.144.144 0 0 1-.038-.106l-.09.01c.005.067.029.118.07.154C.127.7.181.719.25.719A.227.227 0 0 0 .413.662.188.188 0 0 0 .473.52.215.215 0 0 0 .455.436.325.325 0 0 0 .397.348 1.392 1.392 0 0 0 .26.222 1.46 1.46 0 0 1 .16.132.281.281 0 0 1 .123.084h.35z"/></symbol><use xlink:href="#d" transform="matrix(14.37956 0 0 -14.37956 189.113 299.095)" fill="#333"/><path d="M322.462 193.046a28.744 28.744 0 0 1-4.847 15.977 28.746 28.746 0 0 1-15.564 11.543 28.741 28.741 0 0 1-13.96.686 28.737 28.737 0 0 1-12.633-5.975 28.744 28.744 0 0 1-9.276-13.883 28.745 28.745 0 0 1 0-16.697 28.746 28.746 0 0 1 11.543-15.564 28.746 28.746 0 0 1 15.978-4.847 28.744 28.744 0 0 1 15.977 4.847 28.737 28.737 0 0 1 9.386 10.356 28.735 28.735 0 0 1 3.396 13.557z" fill="#e0e0e0"/><path fill="none" stroke="#666" d="M322.462 193.046a28.744 28.744 0 0 1-4.847 15.977 28.746 28.746 0 0 1-15.564 11.543 28.741 28.741 0 0 1-13.96.686 28.737 28.737 0 0 1-12.633-5.975 28.744 28.744 0 0 1-9.276-13.883 28.745 28.745 0 0 1 0-16.697 28.746 28.746 0 0 1 11.543-15.564 28.746 28.746 0 0 1 15.978-4.847 28.744 28.744 0 0 1 15.977 4.847 28.737 28.737 0 0 1 9.386 10.356 28.735 28.735 0 0 1 3.396 13.557z" stroke-width=".71898"/><symbol id="e"><path d="m0 .202.088.011A.196.196 0 0 1 .139.105.129.129 0 0 1 .228.073c.041 0 .076.014.105.043a.145.145 0 0 1 .042.106.136.136 0 0 1-.14.14.252.252 0 0 1-.062-.01l.01.077.014-.001c.038 0 .071.01.101.029.03.02.045.05.045.09 0 .033-.01.06-.032.08A.116.116 0 0 1 .226.66.12.12 0 0 1 .141.627.162.162 0 0 1 .097.53L.009.546c.01.059.035.104.073.137A.211.211 0 0 0 .224.73C.264.731.3.723.332.706a.179.179 0 0 0 .102-.16C.434.513.425.485.409.46A.17.17 0 0 0 .335.4.166.166 0 0 0 .434.338.184.184 0 0 0 .469.224.212.212 0 0 0 .4.064.24.24 0 0 0 .228 0 .218.218 0 0 0 0 .202z"/></symbol><use xlink:href="#e" transform="matrix(14.37956 0 0 -14.37956 289.948 198.62)" fill="#333"/><path d="M121.148 193.046a28.737 28.737 0 0 1-3.396 13.557 28.753 28.753 0 0 1-19.753 14.65 28.745 28.745 0 0 1-16.616-1.637 28.752 28.752 0 0 1-16.515-18.222 28.739 28.739 0 0 1-.686-13.959 28.738 28.738 0 0 1 5.976-12.634 28.742 28.742 0 0 1 13.882-9.276 28.744 28.744 0 0 1 16.697 0 28.741 28.741 0 0 1 13.883 9.276 28.745 28.745 0 0 1 6.39 15.426c.092.937.138 1.877.138 2.819z" fill="#e0e0e0"/><path fill="none" stroke="#666" d="M121.148 193.046a28.737 28.737 0 0 1-3.396 13.557 28.753 28.753 0 0 1-19.753 14.65 28.745 28.745 0 0 1-16.616-1.637 28.752 28.752 0 0 1-16.515-18.222 28.739 28.739 0 0 1-.686-13.959 28.738 28.738 0 0 1 5.976-12.634 28.742 28.742 0 0 1 13.882-9.276 28.744 28.744 0 0 1 16.697 0 28.741 28.741 0 0 1 13.883 9.276 28.745 28.745 0 0 1 6.39 15.426c.092.937.138 1.877.138 2.819z" stroke-width=".71898"/><use xlink:href="#c" transform="matrix(14.37956 0 0 -14.37956 89.596 198.438)" fill="#333"/><path d="M523.776 193.046a28.744 28.744 0 0 1-4.847 15.977 28.766 28.766 0 0 1-21.094 12.643 28.745 28.745 0 0 1-16.376-3.257 28.755 28.755 0 0 1-15.063-28.182 28.75 28.75 0 0 1 10.376-19.412 28.752 28.752 0 0 1 23.855-5.976 28.735 28.735 0 0 1 12.634 5.976 28.736 28.736 0 0 1 8.325 11.225 28.732 28.732 0 0 1 2.19 11.006z" fill="#e0e0e0"/><path fill="none" stroke="#666" d="M523.776 193.046a28.744 28.744 0 0 1-4.847 15.977 28.766 28.766 0 0 1-21.094 12.643 28.745 28.745 0 0 1-16.376-3.257 28.755 28.755 0 0 1-15.063-28.182 28.75 28.75 0 0 1 10.376-19.412 28.752 28.752 0 0 1 23.855-5.976 28.735 28.735 0 0 1 12.634 5.976 28.736 28.736 0 0 1 8.325 11.225 28.732 28.732 0 0 1 2.19 11.006z" stroke-width=".71898"/><symbol id="f"><path d="m0 .2.092.008A.167.167 0 0 1 .14.106.13.13 0 0 1 .23.072.14.14 0 0 1 .337.12a.18.18 0 0 1 .044.127c0 .05-.014.09-.042.119a.146.146 0 0 1-.11.043.152.152 0 0 1-.13-.07L.015.352l.069.367h.356V.634H.155L.117.442c.043.03.088.045.135.045A.214.214 0 0 0 .41.422.227.227 0 0 0 .475.255.26.26 0 0 0 .418.087.227.227 0 0 0 .23 0a.232.232 0 0 0-.16.055A.214.214 0 0 0 0 .2z"/></symbol><use xlink:href="#f" transform="matrix(14.37956 0 0 -14.37956 491.254 198.613)" fill="#333"/><path stroke-width="1.43796" stroke-miterlimit="10" fill="none" stroke="#000" d="m469.752 178.537-143.278-.554"/><path d="m322.16 177.969 5.759-2.855-1.445 2.869 1.423 2.883-5.737-2.897z"/><path stroke-width="1.43796" stroke-miterlimit="10" fill="none" stroke="#000" d="m322.16 177.969 5.759-2.855-1.445 2.869 1.423 2.883-5.737-2.897zM583.58 178.537l-57.576.575"/><path d="m521.69 179.155 5.724-2.933-1.41 2.89 1.467 2.861-5.78-2.818z"/><path stroke-width="1.43796" stroke-miterlimit="10" fill="none" stroke="#000" d="m521.69 179.155 5.724-2.933-1.41 2.89 1.467 2.861-5.78-2.818z"/><path d="m519.858 205.657 4.314.05-.017 1.437-4.313-.05m8.643-1.338 4.314.05-.017 1.437-4.313-.05m8.644-1.338 4.313.05-.017 1.438-4.313-.05m8.644-1.339 4.313.05-.016 1.438-4.314-.05m8.644-1.338 4.313.05-.016 1.437-4.314-.05m8.644-1.338 4.314.05-.017 1.438-4.314-.05m8.644-1.339 1.96.023-.017 1.438-1.96-.023"/><path d="m577.886 207.044-5.78 2.811 1.466-2.861-1.402-2.89 5.716 2.94z"/><path stroke-width="1.43796" stroke-miterlimit="10" fill="none" stroke="#000" d="m577.886 207.044-5.78 2.811 1.466-2.861-1.402-2.89 5.716 2.94zM509.036 278.964l-.05-55.966"/><path d="m508.979 218.684 2.883 5.745-2.876-1.43-2.876 1.437 2.869-5.752z"/><path stroke-width="1.43796" stroke-miterlimit="10" fill="none" stroke="#000" d="m508.979 218.684 2.883 5.745-2.876-1.43-2.876 1.437 2.869-5.752z"/><path d="M481.715 218.57v4.313h-1.438v-4.314m1.438 8.628v4.314h-1.438v-4.314m1.438 8.628v4.314h-1.438v-4.314m1.438 8.628v4.313h-1.438v-4.313m1.438 8.627v4.314h-1.438v-4.314m1.438 8.628v4.314h-1.438v-4.314m1.438 8.628v2.703h-1.438v-2.703"/><path d="m480.996 277.353-2.876-5.752 2.876 1.438 2.876-1.438-2.876 5.752z"/><path stroke-width="1.43796" stroke-miterlimit="10" fill="none" stroke="#000" d="m480.996 277.353-2.876-5.752 2.876 1.438 2.876-1.438-2.876 5.752zM172.353 112.362c-39.984.01-59.98 18.032-59.984 54.067"/><path d="m112.362 170.743-2.869-5.752 2.876 1.438 2.876-1.438-2.883 5.752z"/><path stroke-width="1.43796" stroke-miterlimit="10" fill="none" stroke="#000" d="m112.362 170.743-2.869-5.752 2.876 1.438 2.876-1.438-2.883 5.752zM112.362 213.019c.01 39.985 18.032 59.98 54.067 59.984"/><path d="m170.743 273.01-5.752 2.87 1.438-2.877-1.438-2.876 5.752 2.883z"/><path stroke-width="1.43796" stroke-miterlimit="10" fill="none" stroke="#000" d="m170.743 273.01-5.752 2.87 1.438-2.877-1.438-2.876 5.752 2.883zM273.01 172.353c-.01-39.984-18.032-59.98-54.067-59.984"/><path d="m214.63 112.362 5.751-2.869-1.438 2.876 1.438 2.876-5.752-2.883z"/><path stroke-width="1.43796" stroke-miterlimit="10" fill="none" stroke="#000" d="m214.63 112.362 5.751-2.869-1.438 2.876 1.438 2.876-5.752-2.883zM213.019 273.01c39.985-.01 59.98-18.032 59.984-54.067"/><path d="m273.01 214.63 2.87 5.751-2.877-1.438-2.876 1.438 2.883-5.752z"/><path stroke-width="1.43796" stroke-miterlimit="10" fill="none" stroke="#000" d="m273.01 214.63 2.87 5.751-2.877-1.438-2.876 1.438 2.883-5.752z"/><path d="M292.624 163.927c0-1.528-.012-3.035-.036-4.52l1.437-.023c.025 1.492.037 3.007.037 4.543h-1.438zm-.145-8.905a231.066 231.066 0 0 0-.182-4.251l1.436-.075c.073 1.403.134 2.829.183 4.277l-1.437.049zm-.436-8.368a190.202 190.202 0 0 0-.365-4.38l1.432-.136c.137 1.443.26 2.915.367 4.413l-1.434.103zm-.837-8.76a152.697 152.697 0 0 0-.567-4.204l1.422-.212c.207 1.384.398 2.798.573 4.243l-1.428.173zm-1.229-8.23a120.165 120.165 0 0 0-.876-4.404l1.404-.308c.317 1.448.613 2.933.887 4.457l-1.415.255zm-1.885-8.604a91.248 91.248 0 0 0-1.134-3.963l1.373-.427c.405 1.303.79 2.644 1.152 4.025l-1.39.365zm-2.543-8.09a67.531 67.531 0 0 0-1.633-3.991l1.313-.588a68.93 68.93 0 0 1 1.668 4.077l-1.348.503zm-3.433-7.664a49.423 49.423 0 0 0-2.231-3.766l1.202-.789a50.88 50.88 0 0 1 2.297 3.875l-1.268.68zm-4.706-7.168a37.173 37.173 0 0 0-2.808-3.109l1.01-1.024c1.014 1.001 1.986 2.077 2.917 3.229l-1.119.904zm-6.008-5.894a31.527 31.527 0 0 0-3.47-2.304l.713-1.248a32.96 32.96 0 0 1 3.629 2.41l-.872 1.142zm-7.25-4.14a32.743 32.743 0 0 0-4.05-1.341l.363-1.392a34.18 34.18 0 0 1 4.229 1.4l-.541 1.332zm-8.089-2.147a40.731 40.731 0 0 0-4.285-.371l.05-1.437c1.52.053 2.998.18 4.437.384l-.202 1.424zm-8.808-.486a43.654 43.654 0 0 1-4.367-.48l.23-1.418c1.368.221 2.775.376 4.223.463l-.086 1.435zm-8.59-1.404a35.25 35.25 0 0 1-4.187-1.457l.557-1.325a33.818 33.818 0 0 0 4.018 1.397l-.387 1.385zm-8.093-3.407a33.452 33.452 0 0 1-3.631-2.454l.881-1.137a32.02 32.02 0 0 0 3.476 2.35l-.726 1.24zm-6.967-5.402a38.409 38.409 0 0 1-2.853-3.204l1.124-.896a36.961 36.961 0 0 0 2.747 3.084l-1.018 1.016zm-5.435-6.817A49.829 49.829 0 0 1 216 64.7l1.273-.668a48.407 48.407 0 0 0 2.109 3.634l-1.21.776zm-4.032-7.644a67.288 67.288 0 0 1-1.66-4.231l1.355-.48a65.867 65.867 0 0 0 1.624 4.14l-1.32.571zm-2.944-8.186a89.912 89.912 0 0 1-1.129-4.194l1.397-.341a88.475 88.475 0 0 0 1.111 4.127l-1.379.408zm-2.108-8.637a118.02 118.02 0 0 1-.732-4.078l1.42-.23c.222 1.376.463 2.719.723 4.029l-1.41.28zm-1.347-8.324a150.015 150.015 0 0 1-.503-4.434l1.431-.141c.148 1.496.314 2.96.498 4.39l-1.426.185zm-.872-8.764c-.1-1.37-.185-2.765-.256-4.183l1.436-.071c.07 1.407.155 2.79.254 4.15l-1.434.104zm-.426-8.508c-.042-1.466-.07-2.956-.084-4.47l1.438-.013c.014 1.505.042 2.986.084 4.441l-1.438.042zM207.066 7.362l2.876 5.752-2.876-1.438-2.876 1.438 2.876-5.752z"/><path stroke-width="1.43796" stroke-miterlimit="10" fill="none" stroke="#000" d="m207.066 7.362 2.876 5.752-2.876-1.438-2.876 1.438 2.876-5.752z"/><path d="M92.748 221.445c0 1.53.01 3.039.03 4.528l-1.437.02c-.02-1.496-.03-3.012-.03-4.548h1.437zm.122 8.933c.041 1.447.092 2.874.153 4.281l-1.436.063a282.062 282.062 0 0 1-.154-4.304l1.437-.04zm.367 8.44c.085 1.427.182 2.833.29 4.215l-1.435.112a236.98 236.98 0 0 1-.29-4.242l1.435-.086zm.683 8.685c.144 1.462.302 2.898.473 4.307l-1.427.174c-.173-1.42-.332-2.867-.477-4.34l1.43-.141zm1.027 8.452c.205 1.402.424 2.776.658 4.12l-1.417.246a156.805 156.805 0 0 1-.664-4.158l1.423-.208zm1.497 8.53c.297 1.432.612 2.83.945 4.19l-1.396.342a122.365 122.365 0 0 1-.957-4.24l1.408-.292zm1.998 8.162a92.01 92.01 0 0 0 1.302 4.177l-1.362.462a93.463 93.463 0 0 1-1.322-4.243l1.382-.396zm2.806 8.254a67.56 67.56 0 0 0 1.647 3.777l-1.3.616a68.989 68.989 0 0 1-1.682-3.858l1.335-.535zm3.641 7.615a48.813 48.813 0 0 0 2.275 3.624l-1.182.819a50.255 50.255 0 0 1-2.342-3.731l1.25-.712zm4.764 6.876a36.364 36.364 0 0 0 2.987 3.132l-.979 1.054a37.79 37.79 0 0 1-3.105-3.256l1.097-.93zm6.211 5.768a30.555 30.555 0 0 0 3.568 2.198l-.668 1.274a31.994 31.994 0 0 1-3.735-2.302l.835-1.17zm7.43 3.893c1.295.464 2.632.845 4.011 1.144l-.304 1.405a33.263 33.263 0 0 1-4.192-1.195l.485-1.354zm8.163 1.78c1.208.114 2.445.17 3.71.17.236 0 .471.002.706.005l-.018 1.438a55.12 55.12 0 0 0-.687-.004 41.17 41.17 0 0 1-3.846-.177l.135-1.431zm8.897.42a44.97 44.97 0 0 1 4.244.625l-.278 1.41a43.541 43.541 0 0 0-4.108-.603l.142-1.431zm8.54 1.718a36.18 36.18 0 0 1 4.084 1.565l-.595 1.309a34.748 34.748 0 0 0-3.923-1.502l.433-1.372zm7.946 3.627a33.906 33.906 0 0 1 3.588 2.562l-.91 1.113a32.474 32.474 0 0 0-3.436-2.453l.758-1.222zm6.788 5.526a38.253 38.253 0 0 1 2.841 3.346l-1.147.867a36.827 36.827 0 0 0-2.734-3.22l1.04-.993zm5.307 6.987c.728 1.2 1.416 2.46 2.065 3.78l-1.29.634a47.562 47.562 0 0 0-2.004-3.668l1.23-.746zm3.892 7.91a65.81 65.81 0 0 1 1.419 3.951l-1.368.444a64.377 64.377 0 0 0-1.388-3.865l1.337-.53zm2.645 8.148a87.925 87.925 0 0 1 1.019 4.345l-1.408.294a86.49 86.49 0 0 0-1.002-4.275l1.391-.364zm1.786 8.46c.232 1.406.442 2.846.628 4.322l-1.426.18c-.185-1.457-.392-2.88-.621-4.267l1.419-.235zm1.116 8.811c.123 1.351.23 2.73.318 4.134l-1.436.09a145.185 145.185 0 0 0-.314-4.093l1.432-.13zm.53 8.426c.053 1.457.09 2.941.107 4.452l-1.438.017c-.018-1.499-.053-2.971-.106-4.416l1.437-.053zM178.307 378.01l-2.876-5.752 2.876 1.438 2.875-1.438-2.875 5.752z"/><path stroke-width="1.43796" stroke-miterlimit="10" fill="none" stroke="#000" d="m178.307 378.01-2.876-5.752 2.876 1.438 2.875-1.438-2.875 5.752zM221.445 293.343c57.519 0 86.278-15.578 86.278-46.734 0-31.155 50.99-46.733 152.97-46.733"/><path d="m465.006 199.876-5.752 2.876 1.438-2.876-1.438-2.876 5.752 2.876z"/><path stroke-width="1.43796" stroke-miterlimit="10" fill="none" stroke="#000" d="m465.006 199.876-5.752 2.876 1.438-2.876-1.438-2.876 5.752 2.876z"/><path d="M163.927 92.748c-1.529 0-3.035.012-4.52.037l-.023-1.438c1.492-.025 3.006-.037 4.543-.037v1.438zm-8.905.146c-1.44.048-2.857.109-4.251.181l-.075-1.436c1.404-.073 2.83-.134 4.277-.183l.049 1.438zm-8.368.436c-1.488.106-2.948.228-4.38.364l-.136-1.432c1.444-.137 2.915-.26 4.413-.367l.103 1.435zm-8.76.836c-1.43.173-2.832.362-4.204.567l-.212-1.422c1.385-.207 2.8-.398 4.243-.573l.173 1.428zm-8.23 1.229a120.16 120.16 0 0 0-4.404.876l-.308-1.404c1.447-.317 2.932-.613 4.457-.887l.255 1.415zm-8.604 1.885c-1.36.357-2.68.735-3.963 1.135l-.427-1.373a92.71 92.71 0 0 1 4.025-1.153l.365 1.391zm-8.09 2.543a67.546 67.546 0 0 0-3.991 1.633l-.588-1.312a68.965 68.965 0 0 1 4.077-1.668l.503 1.347zm-7.664 3.433a49.435 49.435 0 0 0-3.766 2.232l-.789-1.203a50.87 50.87 0 0 1 3.875-2.297l.68 1.268zm-7.168 4.706a37.177 37.177 0 0 0-3.109 2.809l-1.024-1.01a38.61 38.61 0 0 1 3.229-2.918l.904 1.119zm-5.894 6.009a31.52 31.52 0 0 0-2.304 3.47l-1.248-.714a32.956 32.956 0 0 1 2.41-3.629l1.142.873zm-4.14 7.248a32.746 32.746 0 0 0-1.341 4.051l-1.392-.363a34.18 34.18 0 0 1 1.4-4.228l1.332.54zm-2.147 8.09a40.736 40.736 0 0 0-.371 4.286l-1.437-.05c.053-1.52.18-2.999.384-4.437l1.424.201zm-.486 8.808a43.656 43.656 0 0 1-.48 4.367l-1.418-.23c.221-1.368.376-2.775.463-4.223l1.435.086zm-1.404 8.59a35.251 35.251 0 0 1-1.457 4.188l-1.325-.558a33.81 33.81 0 0 0 1.397-4.018l1.385.387zM80.66 154.8a33.453 33.453 0 0 1-2.454 3.631l-1.137-.88a32.018 32.018 0 0 0 2.35-3.476l1.24.725zm-5.402 6.967a38.416 38.416 0 0 1-3.204 2.854l-.896-1.125a36.977 36.977 0 0 0 3.084-2.747l1.016 1.018zm-6.817 5.435a49.831 49.831 0 0 1-3.742 2.171l-.668-1.273a48.395 48.395 0 0 0 3.634-2.109l.776 1.21zm-7.644 4.033a67.31 67.31 0 0 1-4.231 1.66l-.48-1.356a65.89 65.89 0 0 0 4.14-1.624l.571 1.32zm-8.186 2.943a89.93 89.93 0 0 1-4.194 1.13l-.341-1.398a88.488 88.488 0 0 0 4.127-1.111l.408 1.379zm-8.637 2.108c-1.327.263-2.687.507-4.078.732l-.23-1.42c1.375-.222 2.718-.463 4.029-.722l.28 1.41zm-8.324 1.347c-1.446.186-2.924.354-4.434.503l-.141-1.431c1.496-.148 2.96-.314 4.39-.498l.185 1.426zm-8.764.873c-1.37.099-2.763.184-4.183.255l-.071-1.436c1.408-.07 2.791-.155 4.15-.254l.104 1.435zm-8.508.425c-1.466.042-2.956.07-4.47.084l-.013-1.438c1.504-.013 2.984-.041 4.441-.083l.042 1.437zM7.362 178.307l5.752-2.876-1.438 2.876 1.438 2.875-5.752-2.875z"/><path stroke-width="1.43796" stroke-miterlimit="10" fill="none" stroke="#000" d="m7.362 178.307 5.752-2.876-1.438 2.876 1.438 2.875-5.752-2.875zM178.307 5.752l-.05 55.677"/><path d="m178.25 65.743-2.87-5.751 2.876 1.437 2.876-1.43-2.883 5.744z"/><path stroke-width="1.43796" stroke-miterlimit="10" fill="none" stroke="#000" d="m178.25 65.743-2.87-5.751 2.876 1.437 2.876-1.43-2.883 5.744zM207.066 379.62l.1-55.62"/><path d="m207.18 319.686 2.862 5.752-2.876-1.438-2.876 1.431 2.89-5.745z"/><path stroke-width="1.43796" stroke-miterlimit="10" fill="none" stroke="#000" d="m207.18 319.686 2.862 5.752-2.876-1.438-2.876 1.431 2.89-5.745z"/><use xlink:href="#b" transform="matrix(11.50365 0 0 -11.50365 132.112 247.328)"/><use xlink:href="#d" transform="matrix(11.50365 0 0 -11.50365 132.307 146.672)"/><symbol id="g"><path d="M.136.4a.165.165 0 0 0-.08.058.15.15 0 0 0-.027.088c0 .052.019.096.056.132a.208.208 0 0 0 .15.053.21.21 0 0 0 .15-.055.175.175 0 0 0 .057-.132.146.146 0 0 0-.026-.087A.164.164 0 0 0 .336.4.191.191 0 0 0 .438.331.19.19 0 0 0 .472.217.206.206 0 0 0 .407.063.236.236 0 0 0 .236 0C.166 0 .108.02.065.063A.21.21 0 0 0 0 .218c0 .047.012.086.035.117A.178.178 0 0 0 .136.4M.12.55c0-.035.01-.062.032-.084A.116.116 0 0 1 .236.434c.034 0 .062.01.083.032a.106.106 0 0 1 .033.078c0 .033-.011.06-.034.081A.113.113 0 0 1 .235.66.115.115 0 0 1 .152.626.104.104 0 0 1 .119.55M.09.22A.16.16 0 0 1 .108.146.129.129 0 0 1 .16.091.156.156 0 0 1 .237.072c.042 0 .076.014.104.04a.139.139 0 0 1 .04.104.144.144 0 0 1-.148.146A.14.14 0 0 1 .09.22z"/></symbol><use xlink:href="#g" transform="matrix(11.50365 0 0 -11.50365 247.469 146.812)"/><symbol id="h"><path d="M.46.553.373.546A.166.166 0 0 1 .339.62.116.116 0 0 1 .251.66.12.12 0 0 1 .178.635.2.2 0 0 1 .112.547.462.462 0 0 1 .087.38a.204.204 0 0 0 .174.096.198.198 0 0 0 .15-.065.23.23 0 0 0 .062-.167.275.275 0 0 0-.03-.126A.21.21 0 0 0 .25 0a.225.225 0 0 0-.18.08C.023.136 0 .224 0 .348c0 .139.026.24.077.302a.22.22 0 0 0 .18.082.201.201 0 0 0 .138-.047A.2.2 0 0 0 .46.553M.101.244c0-.03.006-.06.02-.087A.147.147 0 0 1 .173.094.136.136 0 0 1 .247.072c.037 0 .07.015.096.045.026.03.04.07.04.122 0 .05-.013.089-.04.117a.13.13 0 0 1-.1.043.135.135 0 0 1-.1-.043A.153.153 0 0 1 .1.244z"/></symbol><use xlink:href="#h" transform="matrix(11.50365 0 0 -11.50365 247.435 254.659)"/><use xlink:href="#e" transform="matrix(11.50365 0 0 -11.50365 218.727 355.321)"/><symbol id="i"><path d="M0 .622v.085h.463V.638a1.185 1.185 0 0 1-.24-.441A.922.922 0 0 1 .191 0H.1a1.074 1.074 0 0 0 .25.622H0z"/></symbol><use xlink:href="#i" transform="matrix(11.50365 0 0 -11.50365 161.27 38.825)"/><use xlink:href="#f" transform="matrix(11.50365 0 0 -11.50365 398.466 168.381)"/><symbol id="j"><path d="m.013.178.085.008a.147.147 0 0 1 .04-.087.113.113 0 0 1 .078-.027c.027 0 .05.006.071.019.02.012.037.029.05.05C.35.16.361.188.37.223A.441.441 0 0 1 .383.35.203.203 0 0 0 .212.255a.2.2 0 0 0-.15.064A.236.236 0 0 0 0 .49C0 .562.021.62.064.665A.215.215 0 0 0 .225.73.228.228 0 0 0 .44.586.522.522 0 0 0 .47.385.654.654 0 0 0 .44.166.255.255 0 0 0 .353.042.228.228 0 0 0 .214 0a.201.201 0 0 0-.137.046.202.202 0 0 0-.064.132m.36.316c0 .05-.013.09-.04.12a.126.126 0 0 1-.097.044A.134.134 0 0 1 .134.61.177.177 0 0 1 .09.486C.09.441.104.404.131.375A.137.137 0 0 1 .233.333a.13.13 0 0 1 .1.042c.027.029.04.068.04.119z"/></symbol><use xlink:href="#j" transform="matrix(11.50365 0 0 -11.50365 326.568 247.469)"/><symbol id="k"><path d="M0 .365C0 .45.009.518.026.57a.257.257 0 0 0 .078.12.2.2 0 0 0 .13.042.21.21 0 0 0 .1-.023A.19.19 0 0 0 .406.64.355.355 0 0 0 .451.534.704.704 0 0 0 .467.365.66.66 0 0 0 .44.162a.255.255 0 0 0-.078-.12A.198.198 0 0 0 .233 0a.196.196 0 0 0-.162.074C.024.134 0 .231 0 .365m.09 0C.09.248.104.17.131.13.16.092.193.072.233.072c.04 0 .075.02.102.059.028.039.041.117.041.234C.376.483.363.561.335.6.308.64.273.658.232.658A.113.113 0 0 1 .136.607C.106.563.09.483.09.365z"/></symbol><use xlink:href="#c" transform="matrix(11.50365 0 0 -11.50365 518.265 261.708)"/><use xlink:href="#k" transform="matrix(11.50365 0 0 -11.50365 523.886 261.848)"/><use xlink:href="#c" transform="matrix(11.50365 0 0 -11.50365 547.451 168.24)"/><use xlink:href="#c" transform="matrix(11.50365 0 0 -11.50365 552.995 168.24)"/><use xlink:href="#c" transform="matrix(11.50365 0 0 -11.50365 86.878 297.657)"/><use xlink:href="#d" transform="matrix(11.50365 0 0 -11.50365 92.363 297.657)"/><use xlink:href="#c" transform="matrix(11.50365 0 0 -11.50365 281.002 89.153)"/><use xlink:href="#e" transform="matrix(11.50365 0 0 -11.50365 286.629 89.3)"/><use xlink:href="#c" transform="matrix(11.50365 0 0 -11.50365 94.068 96.343)"/><use xlink:href="#b" transform="matrix(11.50365 0 0 -11.50365 99.358 96.343)"/><use xlink:href="#c" transform="matrix(11.50365 0 0 -11.50365 460.747 261.708)"/><use xlink:href="#f" transform="matrix(11.50365 0 0 -11.50365 466.368 261.848)"/><use xlink:href="#c" transform="matrix(11.50365 0 0 -11.50365 547.024 225.76)"/><use xlink:href="#h" transform="matrix(11.50365 0 0 -11.50365 552.6 225.9)"/></g></svg>