<?xml version="1.0" encoding="UTF-8" standalone="no"?>
<!-- Created with Inkscape (http://www.inkscape.org/) -->

<svg
   version="1.1"
   id="svg2"
   xml:space="preserve"
   width="1125.3333"
   height="634.66669"
   viewBox="0 0 1125.3333 634.66669"
   sodipodi:docname="mhemfh_small_net_perf.eps"
   xmlns:inkscape="http://www.inkscape.org/namespaces/inkscape"
   xmlns:sodipodi="http://sodipodi.sourceforge.net/DTD/sodipodi-0.dtd"
   xmlns="http://www.w3.org/2000/svg"
   xmlns:svg="http://www.w3.org/2000/svg"><defs
     id="defs6" /><sodipodi:namedview
     id="namedview4"
     pagecolor="#ffffff"
     bordercolor="#666666"
     borderopacity="1.0"
     inkscape:pageshadow="2"
     inkscape:pageopacity="0.0"
     inkscape:pagecheckerboard="0" /><g
     id="g8"
     inkscape:groupmode="layer"
     inkscape:label="ink_ext_XXXXXX"
     transform="matrix(1.3333333,0,0,-1.3333333,0,634.66667)"><g
       id="g10"
       transform="scale(0.1)"><path
         d="M 0,0 H 8440 V 4760 H 0 Z"
         style="fill:#ffffff;fill-opacity:1;fill-rule:nonzero;stroke:none"
         id="path12" /><path
         d="M 0,0 H 8440 V 4760 H 0 Z"
         style="fill:#ffffff;fill-opacity:1;fill-rule:nonzero;stroke:none"
         id="path14" /><path
         d="M 1100,850 H 7640 V 4400 H 1100 Z"
         style="fill:#ffffff;fill-opacity:1;fill-rule:nonzero;stroke:none"
         id="path16" /><path
         d="M 1826.67,850 V 4400"
         style="fill:none;stroke:#dfdfdf;stroke-width:5;stroke-linecap:butt;stroke-linejoin:round;stroke-miterlimit:10;stroke-dasharray:none;stroke-opacity:1"
         id="path18" /><path
         d="M 3280,850 V 4400"
         style="fill:none;stroke:#dfdfdf;stroke-width:5;stroke-linecap:butt;stroke-linejoin:round;stroke-miterlimit:10;stroke-dasharray:none;stroke-opacity:1"
         id="path20" /><path
         d="M 4733.33,850 V 4400"
         style="fill:none;stroke:#dfdfdf;stroke-width:5;stroke-linecap:butt;stroke-linejoin:round;stroke-miterlimit:10;stroke-dasharray:none;stroke-opacity:1"
         id="path22" /><path
         d="M 6186.67,850 V 4400"
         style="fill:none;stroke:#dfdfdf;stroke-width:5;stroke-linecap:butt;stroke-linejoin:round;stroke-miterlimit:10;stroke-dasharray:none;stroke-opacity:1"
         id="path24" /><path
         d="M 7640,850 V 4400"
         style="fill:none;stroke:#dfdfdf;stroke-width:5;stroke-linecap:butt;stroke-linejoin:round;stroke-miterlimit:10;stroke-dasharray:none;stroke-opacity:1"
         id="path26" /><path
         d="M 7640,850 H 1100"
         style="fill:none;stroke:#dfdfdf;stroke-width:5;stroke-linecap:butt;stroke-linejoin:round;stroke-miterlimit:10;stroke-dasharray:none;stroke-opacity:1"
         id="path28" /><path
         d="M 7640,2033.33 H 1100"
         style="fill:none;stroke:#dfdfdf;stroke-width:5;stroke-linecap:butt;stroke-linejoin:round;stroke-miterlimit:10;stroke-dasharray:none;stroke-opacity:1"
         id="path30" /><path
         d="M 7640,3216.67 H 1100"
         style="fill:none;stroke:#dfdfdf;stroke-width:5;stroke-linecap:butt;stroke-linejoin:round;stroke-miterlimit:10;stroke-dasharray:none;stroke-opacity:1"
         id="path32" /><path
         d="M 7640,4400 H 1100"
         style="fill:none;stroke:#dfdfdf;stroke-width:5;stroke-linecap:butt;stroke-linejoin:round;stroke-miterlimit:10;stroke-dasharray:none;stroke-opacity:1"
         id="path34" /><path
         d="M 1100,850 H 7640"
         style="fill:none;stroke:#262626;stroke-width:5;stroke-linecap:square;stroke-linejoin:round;stroke-miterlimit:10;stroke-dasharray:none;stroke-opacity:1"
         id="path36" /><path
         d="m 1826.67,850 v 65.398"
         style="fill:none;stroke:#262626;stroke-width:5;stroke-linecap:square;stroke-linejoin:round;stroke-miterlimit:10;stroke-dasharray:none;stroke-opacity:1"
         id="path38" /><path
         d="m 3280,850 v 65.398"
         style="fill:none;stroke:#262626;stroke-width:5;stroke-linecap:square;stroke-linejoin:round;stroke-miterlimit:10;stroke-dasharray:none;stroke-opacity:1"
         id="path40" /><path
         d="m 4733.33,850 v 65.398"
         style="fill:none;stroke:#262626;stroke-width:5;stroke-linecap:square;stroke-linejoin:round;stroke-miterlimit:10;stroke-dasharray:none;stroke-opacity:1"
         id="path42" /><path
         d="m 6186.67,850 v 65.398"
         style="fill:none;stroke:#262626;stroke-width:5;stroke-linecap:square;stroke-linejoin:round;stroke-miterlimit:10;stroke-dasharray:none;stroke-opacity:1"
         id="path44" /><path
         d="m 7640,850 v 65.398"
         style="fill:none;stroke:#262626;stroke-width:5;stroke-linecap:square;stroke-linejoin:round;stroke-miterlimit:10;stroke-dasharray:none;stroke-opacity:1"
         id="path46" /><g
         id="g48"
         transform="scale(10)"><text
           transform="matrix(1,0,0,-1,172.667,49)"
           style="font-variant:normal;font-weight:normal;font-size:30px;font-family:Helvetica;-inkscape-font-specification:Helvetica;writing-mode:lr-tb;fill:#262626;fill-opacity:1;fill-rule:nonzero;stroke:none"
           id="text52"><tspan
             x="0 145.33321 290.66641 435.99991 571.83301 588.513"
             y="0"
             sodipodi:role="line"
             id="tspan50">246810</tspan></text></g><path
         d="m 4156.39,115.051 -15.32,210.308 c -0.72,3.235 -3.12,5.243 -7.18,6.02 -4.06,0.781 -9.12,1.172 -15.16,1.172 -2.18,0 -3.28,1.461 -3.28,4.379 0.84,2.808 1.46,4.734 1.87,5.781 0.42,1.039 1.67,1.559 3.75,1.559 h 78.6 c 2.08,0 3.12,-1.461 3.12,-4.379 -0.83,-4.895 -2.18,-7.34 -4.06,-7.34 -17.7,0 -27.08,-3.02 -28.13,-9.063 l 11.72,-166.718 82.5,143.75 -1.56,24.839 c -0.72,3.235 -3.12,5.243 -7.19,6.02 -4.06,0.781 -9.11,1.172 -15.15,1.172 -2.29,0 -3.44,1.461 -3.44,4.379 0.73,2.808 1.33,4.734 1.8,5.781 0.47,1.039 1.74,1.559 3.82,1.559 h 78.6 c 2.19,0 3.28,-1.461 3.28,-4.379 -0.1,-0.52 -0.31,-1.43 -0.63,-2.731 -0.3,-1.301 -0.72,-2.394 -1.25,-3.281 -0.52,-0.887 -1.35,-1.328 -2.5,-1.328 -17.7,0 -27.02,-3.02 -27.96,-9.063 v -2.5 l 11.87,-164.218 89.84,156.718 c 1.26,2.297 1.88,4.586 1.88,6.871 0,4.481 -2.21,7.633 -6.64,9.461 -4.42,1.821 -9.35,2.731 -14.77,2.731 -2.18,0 -3.28,1.461 -3.28,4.379 0.42,1.765 0.76,3.121 1.02,4.058 0.26,0.934 0.76,1.715 1.48,2.34 0.74,0.629 1.78,0.942 3.13,0.942 h 62.97 c 2.19,0 3.28,-1.461 3.28,-4.379 -0.1,-0.52 -0.31,-1.457 -0.63,-2.813 -0.31,-1.351 -0.75,-2.445 -1.33,-3.277 -0.57,-0.836 -1.32,-1.25 -2.26,-1.25 -15.62,0 -27.55,-7.137 -35.78,-21.41 -0.62,-0.621 -0.94,-0.93 -0.94,-0.93 L 4290.6,115.051 c -1.14,-2.293 -3.01,-3.442 -5.62,-3.442 h -2.5 c -2.7,0 -4.06,1.149 -4.06,3.442 l -12.5,170 -97.03,-170 c -1.66,-2.293 -3.59,-3.442 -5.79,-3.442 h -2.81 c -2.6,0 -3.9,1.149 -3.9,3.442"
         style="fill:#262626;fill-opacity:1;fill-rule:nonzero;stroke:none"
         id="path54" /><path
         d="m 4429.3,83.3594 c 4.07,-7.0781 12.35,-10.6211 24.85,-10.6211 5.42,0 10.55,0.9375 15.39,2.8125 4.84,1.8711 8.85,4.6328 12.03,8.2812 3.18,3.6446 4.76,8.0703 4.76,13.2774 0,3.9606 -1.43,7.2186 -4.29,9.7696 -2.86,2.555 -6.33,4.297 -10.39,5.23 l -12.5,2.5 c -5.62,1.36 -10.29,3.993 -13.99,7.891 -3.7,3.906 -5.55,8.625 -5.55,14.148 0,6.875 1.85,12.915 5.55,18.122 3.7,5.207 8.6,9.191 14.69,11.949 6.1,2.761 12.37,4.14 18.83,4.14 6.98,0 13.23,-1.64 18.75,-4.918 5.52,-3.281 8.28,-8.203 8.28,-14.761 0,-3.547 -0.99,-6.672 -2.97,-9.379 -1.98,-2.707 -4.74,-4.063 -8.28,-4.063 -2.08,0 -3.85,0.68 -5.31,2.032 -1.46,1.355 -2.19,3.019 -2.19,5 0,1.773 0.52,3.515 1.56,5.23 1.04,1.719 2.4,3.078 4.06,4.07 1.67,0.989 3.39,1.481 5.16,1.481 -1.35,3.332 -3.88,5.73 -7.58,7.187 -3.7,1.461 -7.68,2.192 -11.95,2.192 -3.85,0 -7.73,-0.782 -11.64,-2.348 -3.9,-1.562 -7.03,-3.852 -9.38,-6.871 -2.34,-3.02 -3.51,-6.613 -3.51,-10.781 0,-2.715 0.97,-5.11 2.89,-7.192 1.93,-2.086 4.35,-3.593 7.26,-4.527 l 13.28,-2.66 c 4.28,-0.934 8.18,-2.547 11.72,-4.84 3.55,-2.293 6.36,-5.184 8.44,-8.672 2.09,-3.492 3.13,-7.48 3.13,-11.957 0,-5.6211 -1.59,-11.2187 -4.77,-16.7929 -3.18,-5.5743 -7.11,-9.9766 -11.8,-13.2071 -8.12,-5.6211 -18.12,-8.4336 -30,-8.4336 -8.12,0 -15.59,1.875 -22.42,5.6211 -6.82,3.7539 -10.23,9.3789 -10.23,16.8789 0,4.168 1.23,7.7852 3.67,10.8516 2.45,3.074 5.76,4.609 9.92,4.609 2.5,0 4.59,-0.726 6.25,-2.179 1.67,-1.461 2.5,-3.4417 2.5,-5.9417 0,-3.5391 -1.3,-6.6133 -3.91,-9.2188 -2.6,-2.6054 -5.67,-3.9101 -9.21,-3.9101 h -1.1"
         style="fill:#262626;fill-opacity:1;fill-rule:nonzero;stroke:none"
         id="path56" /><path
         d="m 4537.58,83.3594 c 4.07,-7.0781 12.35,-10.6211 24.85,-10.6211 5.42,0 10.55,0.9375 15.39,2.8125 4.84,1.8711 8.85,4.6328 12.03,8.2812 3.18,3.6446 4.76,8.0703 4.76,13.2774 0,3.9606 -1.43,7.2186 -4.29,9.7696 -2.86,2.555 -6.33,4.297 -10.39,5.23 l -12.5,2.5 c -5.63,1.36 -10.29,3.993 -13.99,7.891 -3.69,3.906 -5.54,8.625 -5.54,14.148 0,6.875 1.85,12.915 5.54,18.122 3.7,5.207 8.6,9.191 14.69,11.949 6.1,2.761 12.37,4.14 18.83,4.14 6.98,0 13.23,-1.64 18.75,-4.918 5.52,-3.281 8.28,-8.203 8.28,-14.761 0,-3.547 -0.99,-6.672 -2.97,-9.379 -1.98,-2.707 -4.74,-4.063 -8.28,-4.063 -2.08,0 -3.85,0.68 -5.31,2.032 -1.46,1.355 -2.19,3.019 -2.19,5 0,1.773 0.52,3.515 1.56,5.23 1.04,1.719 2.4,3.078 4.06,4.07 1.67,0.989 3.39,1.481 5.16,1.481 -1.35,3.332 -3.88,5.73 -7.58,7.187 -3.69,1.461 -7.67,2.192 -11.95,2.192 -3.85,0 -7.73,-0.782 -11.64,-2.348 -3.9,-1.562 -7.03,-3.852 -9.38,-6.871 -2.34,-3.02 -3.51,-6.613 -3.51,-10.781 0,-2.715 0.97,-5.11 2.89,-7.192 1.93,-2.086 4.35,-3.593 7.26,-4.527 l 13.29,-2.66 c 4.27,-0.934 8.17,-2.547 11.71,-4.84 3.55,-2.293 6.36,-5.184 8.44,-8.672 2.09,-3.492 3.13,-7.48 3.13,-11.957 0,-5.6211 -1.59,-11.2187 -4.77,-16.7929 -3.17,-5.5743 -7.11,-9.9766 -11.8,-13.2071 -8.12,-5.6211 -18.12,-8.4336 -30,-8.4336 -8.12,0 -15.59,1.875 -22.42,5.6211 -6.81,3.7539 -10.23,9.3789 -10.23,16.8789 0,4.168 1.23,7.7852 3.67,10.8516 2.45,3.074 5.76,4.609 9.92,4.609 2.5,0 4.59,-0.726 6.25,-2.179 1.67,-1.461 2.5,-3.4417 2.5,-5.9417 0,-3.5391 -1.3,-6.6133 -3.9,-9.2188 -2.6,-2.6054 -5.68,-3.9101 -9.22,-3.9101 h -1.1"
         style="fill:#262626;fill-opacity:1;fill-rule:nonzero;stroke:none"
         id="path58" /><path
         d="M 1100,850 V 4400"
         style="fill:none;stroke:#262626;stroke-width:5;stroke-linecap:square;stroke-linejoin:round;stroke-miterlimit:10;stroke-dasharray:none;stroke-opacity:1"
         id="path60" /><path
         d="m 1100,850 h 65.4"
         style="fill:none;stroke:#262626;stroke-width:5;stroke-linecap:square;stroke-linejoin:round;stroke-miterlimit:10;stroke-dasharray:none;stroke-opacity:1"
         id="path62" /><path
         d="m 1100,2033.33 h 65.4"
         style="fill:none;stroke:#262626;stroke-width:5;stroke-linecap:square;stroke-linejoin:round;stroke-miterlimit:10;stroke-dasharray:none;stroke-opacity:1"
         id="path64" /><path
         d="m 1100,3216.67 h 65.4"
         style="fill:none;stroke:#262626;stroke-width:5;stroke-linecap:square;stroke-linejoin:round;stroke-miterlimit:10;stroke-dasharray:none;stroke-opacity:1"
         id="path66" /><path
         d="m 1100,4400 h 65.4"
         style="fill:none;stroke:#262626;stroke-width:5;stroke-linecap:square;stroke-linejoin:round;stroke-miterlimit:10;stroke-dasharray:none;stroke-opacity:1"
         id="path68" /><g
         id="g70"
         transform="scale(10)"><text
           transform="matrix(1,0,0,-1,82,75)"
           style="font-variant:normal;font-weight:normal;font-size:30px;font-family:Helvetica;-inkscape-font-specification:Helvetica;writing-mode:lr-tb;fill:#262626;fill-opacity:1;fill-rule:nonzero;stroke:none"
           id="text80"><tspan
             x="0"
             y="0"
             id="tspan72">0</tspan><tspan
             x="-19 -2.3199999"
             y="-118.333"
             sodipodi:role="line"
             id="tspan74">20</tspan><tspan
             x="-19 -2.3199999"
             y="-236.66701"
             sodipodi:role="line"
             id="tspan76">40</tspan><tspan
             x="-19 -2.3199999"
             y="-355"
             sodipodi:role="line"
             id="tspan78">60</tspan></text></g><path
         d="M 441.512,2148.17 H 350.57 v -27.5 h -8.59 c 0,14.38 -6.718,24.95 -20.16,31.72 -13.433,6.77 -27.965,10.15 -43.59,10.15 v 9.53 h 60.629 v 46.57 h 11.711 v -46.57 h 90.321 c 9.168,0 17.187,1.54 24.058,4.61 6.875,3.07 10.313,8.57 10.313,16.49 0,7.5 -3.621,12.92 -10.864,16.25 -7.238,3.33 -15.074,5 -23.507,5 h -19.532 v 9.53 h 20.153 c 6.871,0 13.668,-1.25 20.386,-3.75 6.723,-2.5 12.243,-6.22 16.563,-11.17 4.324,-4.95 6.488,-10.97 6.488,-18.05 0,-13.23 -3.961,-23.67 -11.879,-31.33 -7.914,-7.65 -18.433,-11.48 -31.558,-11.48"
         style="fill:#262626;fill-opacity:1;fill-rule:nonzero;stroke:none"
         id="path82" /><path
         d="m 481.199,2251.34 h -11.558 c 0,7.5 -0.602,13.68 -1.801,18.52 -1.199,4.85 -4.09,7.27 -8.668,7.27 h -90.16 c -5.836,0 -10.078,-0.88 -12.731,-2.66 -2.66,-1.77 -4.277,-4.33 -4.851,-7.66 -0.575,-3.33 -0.86,-8.49 -0.86,-15.47 h -11.711 l -3.437,47.19 h 32.187 c -9.586,3.54 -17.347,8.6 -23.289,15.16 -5.933,6.56 -8.898,14.48 -8.898,23.75 0,6.56 1.926,12.42 5.777,17.58 3.856,5.16 8.957,7.73 15.313,7.73 3.957,0 7.422,-1.41 10.386,-4.22 2.977,-2.81 4.461,-6.35 4.461,-10.62 0,-4.07 -1.461,-7.53 -4.379,-10.39 -2.914,-2.86 -6.402,-4.3 -10.468,-4.3 -5.934,0 -10.153,2.08 -12.653,6.25 v -2.03 c 0,-8.85 3.227,-16.09 9.68,-21.72 6.461,-5.63 14.484,-9.63 24.07,-12.03 9.582,-2.4 18.696,-3.6 27.34,-3.6 h 54.223 c 6.976,0 10.469,10.68 10.469,32.04 h 11.558 v -80.79"
         style="fill:#262626;fill-opacity:1;fill-rule:nonzero;stroke:none"
         id="path84" /><path
         d="m 563.07,2474.34 c -9.687,-12.29 -20.781,-22.86 -33.281,-31.71 -12.5,-8.86 -25.832,-16.1 -40,-21.72 -14.164,-5.62 -28.98,-9.84 -44.449,-12.66 -15.465,-2.81 -31.012,-4.22 -46.641,-4.22 -15.832,0 -31.484,1.41 -46.949,4.22 -15.473,2.82 -30.344,7.09 -44.609,12.81 -14.274,5.74 -27.633,13.05 -40.082,21.96 -12.446,8.91 -23.36,19.35 -32.739,31.32 -0.414,0 -0.621,0.52 -0.621,1.57 v 3.12 c 0,0.63 0.289,1.2 0.86,1.72 0.574,0.52 1.277,0.78 2.113,0.78 0.93,0 1.609,-0.21 2.027,-0.62 10.52,-10.73 21.797,-19.66 33.832,-26.8 12.028,-7.13 24.836,-12.89 38.43,-17.27 13.598,-4.37 27.664,-7.52 42.187,-9.45 14.536,-1.93 29.719,-2.89 45.551,-2.89 69.895,0 123.016,18.7 159.371,56.09 0.625,0.63 1.512,0.94 2.66,0.94 0.625,0 1.278,-0.28 1.95,-0.86 0.679,-0.57 1.019,-1.12 1.019,-1.64 v -3.12 c 0,-1.05 -0.211,-1.57 -0.629,-1.57"
         style="fill:#262626;fill-opacity:1;fill-rule:nonzero;stroke:none"
         id="path86" /><path
         d="M 481.199,2513.3 H 464.48 v 35.47 H 271.672 v -35.47 h -16.883 v 135.63 c 0,11.04 1.149,21.69 3.441,31.95 2.293,10.26 5.989,19.74 11.09,28.44 5.106,8.7 11.93,15.7 20.469,21.01 8.547,5.31 18.602,7.97 30.16,7.97 14.895,0 27.055,-4.48 36.481,-13.43 9.425,-8.96 16.199,-20.29 20.32,-33.99 4.113,-13.7 6.172,-27.68 6.172,-41.95 v -51.88 h 81.558 v 35.63 h 16.719 z m -113.129,81.72 v 40.94 c 0,13.13 -1.379,23.29 -4.14,30.47 -2.758,7.19 -7.551,12.32 -14.371,15.39 -6.825,3.07 -16.696,4.61 -29.61,4.61 -12.918,0 -22.844,-1.48 -29.769,-4.46 -6.926,-2.97 -11.742,-8.09 -14.45,-15.39 -2.707,-7.28 -4.058,-17.49 -4.058,-30.62 v -40.94 h 96.398"
         style="fill:#262626;fill-opacity:1;fill-rule:nonzero;stroke:none"
         id="path88" /><path
         d="m 533.352,2816.31 c 0,-8.65 -2.551,-16.33 -7.653,-23.05 -5.105,-6.71 -11.695,-11.81 -19.769,-15.31 -8.075,-3.49 -16.379,-5.23 -24.918,-5.23 -6.461,0 -12.817,1.01 -19.063,3.04 -6.254,2.04 -11.824,5.01 -16.719,8.91 -4.894,3.91 -8.8,8.62 -11.718,14.14 -2.914,5.52 -4.371,11.62 -4.371,18.28 0,6.88 1.3,13.52 3.898,19.92 2.609,6.41 6.07,12.29 10.391,17.66 4.328,5.37 9.355,10.4 15.082,15.08 l 9.218,6.87 c -7.292,4.48 -13.804,9.51 -19.531,15.08 -5.734,5.57 -10.344,11.85 -13.828,18.83 -3.488,6.98 -5.23,14.43 -5.23,22.34 0,6.67 1.457,12.74 4.371,18.21 2.918,5.47 6.929,10.13 12.027,13.98 5.109,3.85 10.762,6.74 16.961,8.67 6.191,1.93 12.363,2.89 18.512,2.89 8.75,0 17.136,-1.82 25.16,-5.46 8.019,-3.64 14.555,-8.8 19.609,-15.47 5.047,-6.67 7.571,-14.48 7.571,-23.44 0,-10 -2.707,-19.53 -8.122,-28.59 -5.421,-9.07 -12.605,-17.09 -21.558,-24.07 l -9.07,-6.87 c 11.457,-6.98 20.781,-15.26 27.968,-24.85 7.188,-9.58 10.782,-20.1 10.782,-31.56 z m -8.122,-2.34 c 0,19.48 -13.019,36.88 -39.058,52.19 l -15.633,-12.04 c -9.266,-7.08 -16.504,-13.64 -21.719,-19.68 -5.207,-6.05 -7.808,-13.08 -7.808,-21.1 0,-6.87 1.926,-12.94 5.777,-18.2 3.856,-5.26 8.883,-9.32 15.082,-12.19 6.199,-2.86 12.684,-4.29 19.449,-4.29 5.106,0 10.262,0.81 15.469,2.42 5.207,1.62 9.949,3.96 14.223,7.03 4.273,3.07 7.707,6.8 10.308,11.17 2.606,4.38 3.91,9.27 3.91,14.69 z m -33.589,81.25 c 9.265,6.98 16.531,13.52 21.789,19.61 5.261,6.1 7.89,13.15 7.89,21.17 0,5.11 -1.144,9.8 -3.429,14.06 -2.293,4.28 -5.34,7.95 -9.141,11.02 -3.809,3.08 -8.105,5.44 -12.898,7.11 -4.789,1.67 -9.735,2.5 -14.84,2.5 -7.082,0 -14.008,-1.43 -20.782,-4.3 -6.773,-2.87 -12.32,-6.98 -16.64,-12.34 -4.328,-5.37 -6.488,-11.64 -6.488,-18.83 0,-19.37 13.023,-36.77 39.07,-52.19 l 15.469,12.19"
         style="fill:#262626;fill-opacity:1;fill-rule:nonzero;stroke:none"
         id="path90" /><path
         d="m 563.699,3028.66 c 0,-1.88 -0.988,-2.82 -2.969,-2.82 -0.941,0 -1.617,0.21 -2.031,0.63 -36.773,37.6 -90.105,56.4 -160,56.4 -69.89,0 -123.019,-18.59 -159.379,-55.78 -0.519,-0.83 -1.402,-1.25 -2.648,-1.25 -0.836,0 -1.539,0.29 -2.113,0.86 -0.571,0.57 -0.86,1.23 -0.86,1.96 v 3.12 c 0,0.63 0.207,1.15 0.621,1.56 12.5,15.84 27.657,29.01 45.469,39.53 17.813,10.53 36.824,18.24 57.031,23.13 20.215,4.89 40.84,7.34 61.879,7.34 15.629,0 30.965,-1.32 46.012,-3.98 15.051,-2.66 29.922,-6.85 44.609,-12.58 14.692,-5.73 28.239,-12.99 40.629,-21.8 12.395,-8.8 23.434,-19.34 33.121,-31.64 0.418,-0.41 0.629,-0.93 0.629,-1.56 v -3.12"
         style="fill:#262626;fill-opacity:1;fill-rule:nonzero;stroke:none"
         id="path92" /><path
         d="M 1100,2632.71 H 7640"
         style="fill:none;stroke:#0072bd;stroke-width:30;stroke-linecap:butt;stroke-linejoin:bevel;stroke-miterlimit:10;stroke-dasharray:120, 120;stroke-dashoffset:0;stroke-opacity:1"
         id="path94" /><path
         d="M 1100,4338.33 H 7640"
         style="fill:none;stroke:#d95319;stroke-width:30;stroke-linecap:butt;stroke-linejoin:bevel;stroke-miterlimit:10;stroke-dasharray:120, 120;stroke-dashoffset:0;stroke-opacity:1"
         id="path96" /><path
         d="M 1100,3707.52 H 7640"
         style="fill:none;stroke:#edb120;stroke-width:30;stroke-linecap:butt;stroke-linejoin:bevel;stroke-miterlimit:10;stroke-dasharray:120, 120;stroke-dashoffset:0;stroke-opacity:1"
         id="path98" /><path
         d="m 1100,4338.33 726.67,-379.97 726.66,-223.39 726.67,-109.47 726.67,-68.6 726.66,-35.53 726.67,-25.08 726.67,-41.34 726.66,-47.38 726.67,-8.69"
         style="fill:none;stroke:#7e2f8e;stroke-width:30;stroke-linecap:butt;stroke-linejoin:round;stroke-miterlimit:10;stroke-dasharray:none;stroke-opacity:1"
         id="path100" /><path
         d="m 1100,4388.33 v -100 m -50,50 h 100 m -85.36,35.36 70.72,-70.72 m -70.72,0 70.72,70.72"
         style="fill:none;stroke:#7e2f8e;stroke-width:30;stroke-linecap:butt;stroke-linejoin:miter;stroke-miterlimit:10;stroke-dasharray:none;stroke-opacity:1"
         id="path102" /><path
         d="m 1826.67,4008.36 v -100 m -50,50 h 100 m -85.36,35.36 70.72,-70.72 m -70.72,0 70.72,70.72"
         style="fill:none;stroke:#7e2f8e;stroke-width:30;stroke-linecap:butt;stroke-linejoin:miter;stroke-miterlimit:10;stroke-dasharray:none;stroke-opacity:1"
         id="path104" /><path
         d="m 2553.33,3784.97 v -100 m -50,50 h 100 m -85.36,35.36 70.73,-70.72 m -70.73,0 70.73,70.72"
         style="fill:none;stroke:#7e2f8e;stroke-width:30;stroke-linecap:butt;stroke-linejoin:miter;stroke-miterlimit:10;stroke-dasharray:none;stroke-opacity:1"
         id="path106" /><path
         d="m 3280,3675.5 v -100 m -50,50 h 100 m -85.36,35.36 70.72,-70.72 m -70.72,0 70.72,70.72"
         style="fill:none;stroke:#7e2f8e;stroke-width:30;stroke-linecap:butt;stroke-linejoin:miter;stroke-miterlimit:10;stroke-dasharray:none;stroke-opacity:1"
         id="path108" /><path
         d="m 4006.67,3606.9 v -100 m -50,50 h 100 m -85.37,35.36 70.73,-70.72 m -70.73,0 70.73,70.72"
         style="fill:none;stroke:#7e2f8e;stroke-width:30;stroke-linecap:butt;stroke-linejoin:miter;stroke-miterlimit:10;stroke-dasharray:none;stroke-opacity:1"
         id="path110" /><path
         d="m 4733.33,3571.37 v -100 m -50,50 h 100 m -85.36,35.36 70.73,-70.72 m -70.73,0 70.73,70.72"
         style="fill:none;stroke:#7e2f8e;stroke-width:30;stroke-linecap:butt;stroke-linejoin:miter;stroke-miterlimit:10;stroke-dasharray:none;stroke-opacity:1"
         id="path112" /><path
         d="m 5460,3546.29 v -100 m -50,50 h 100 m -85.36,35.36 70.72,-70.72 m -70.72,0 70.72,70.72"
         style="fill:none;stroke:#7e2f8e;stroke-width:30;stroke-linecap:butt;stroke-linejoin:miter;stroke-miterlimit:10;stroke-dasharray:none;stroke-opacity:1"
         id="path114" /><path
         d="m 6186.67,3504.95 v -100 m -50,50 h 100 m -85.36,35.36 70.72,-70.72 m -70.72,0 70.72,70.72"
         style="fill:none;stroke:#7e2f8e;stroke-width:30;stroke-linecap:butt;stroke-linejoin:miter;stroke-miterlimit:10;stroke-dasharray:none;stroke-opacity:1"
         id="path116" /><path
         d="m 6913.33,3457.57 v -100 m -50,50 h 100 m -85.36,35.36 70.72,-70.72 m -70.72,0 70.72,70.72"
         style="fill:none;stroke:#7e2f8e;stroke-width:30;stroke-linecap:butt;stroke-linejoin:miter;stroke-miterlimit:10;stroke-dasharray:none;stroke-opacity:1"
         id="path118" /><path
         d="m 7640,3448.88 v -100 m -50,50 h 100 m -85.36,35.35 70.72,-70.71 m -70.72,0 70.72,70.71"
         style="fill:none;stroke:#7e2f8e;stroke-width:30;stroke-linecap:butt;stroke-linejoin:miter;stroke-miterlimit:10;stroke-dasharray:none;stroke-opacity:1"
         id="path120" /><path
         d="M 6520,930 H 7560 V 2280 H 6520 Z"
         style="fill:#ffffff;fill-opacity:1;fill-rule:nonzero;stroke:none"
         id="path122" /><path
         d="m 6952.9,2062.25 c 6.15,-7.82 13.83,-13.99 23.05,-18.52 9.22,-4.54 18.83,-6.8 28.83,-6.8 8.33,0 16.04,1.64 23.12,4.93 7.08,3.28 13.31,7.86 18.67,13.75 5.36,5.87 9.45,12.57 12.27,20.07 2.81,7.5 4.22,15.36 4.22,23.59 0,1.36 0.83,2.03 2.5,2.03 h 3.28 c 1.35,0 2.03,-0.83 2.03,-2.5 0,-9.48 -1.8,-18.59 -5.39,-27.34 -3.59,-8.75 -8.7,-16.43 -15.31,-23.05 -6.62,-6.61 -14.19,-11.77 -22.74,-15.46 -8.54,-3.7 -17.5,-5.56 -26.87,-5.56 -12.92,0 -25.13,2.61 -36.64,7.82 -11.51,5.21 -21.57,12.37 -30.16,21.49 -8.6,9.11 -15.29,19.66 -20.08,31.64 -4.79,11.98 -7.18,24.42 -7.18,37.34 0,12.91 2.39,25.34 7.18,37.27 4.79,11.92 11.48,22.47 20.08,31.64 8.59,9.16 18.65,16.3 30.16,21.41 11.51,5.09 23.72,7.64 36.64,7.64 9.27,0 18.12,-1.97 26.56,-5.93 8.44,-3.96 15.84,-9.58 22.19,-16.87 l 15.62,22.02 c 1.05,0.53 1.67,0.78 1.88,0.78 h 2.03 c 0.52,0 0.99,-0.2 1.41,-0.62 0.41,-0.41 0.62,-0.93 0.62,-1.56 v -72.96 c 0,-1.57 -0.68,-2.36 -2.03,-2.36 h -5 c -1.67,0 -2.5,0.79 -2.5,2.36 0,5.2 -1.02,11.01 -3.05,17.41 -2.03,6.41 -4.66,12.5 -7.89,18.29 -3.23,5.78 -6.92,10.85 -11.09,15.23 -10.11,9.89 -21.72,14.84 -34.84,14.84 -9.9,0 -19.41,-2.23 -28.52,-6.72 -9.11,-4.48 -16.8,-10.67 -23.05,-18.59 -6.56,-8.44 -11.12,-18.05 -13.67,-28.82 -2.55,-10.78 -3.83,-22.27 -3.83,-34.46 0,-12.29 1.28,-23.82 3.83,-34.61 2.55,-10.78 7.11,-20.39 13.67,-28.82"
         style="fill:#000000;fill-opacity:1;fill-rule:nonzero;stroke:none"
         id="path124" /><path
         d="m 6560.14,2098.13 h 301.09"
         style="fill:none;stroke:#0072bd;stroke-width:30;stroke-linecap:butt;stroke-linejoin:bevel;stroke-miterlimit:10;stroke-dasharray:120, 120;stroke-dashoffset:0;stroke-opacity:1"
         id="path126" /><path
         d="m 6996.34,1698.64 c -17.08,0 -32.45,4.56 -46.09,13.68 -13.65,9.11 -24.35,21.2 -32.11,36.25 -7.76,15.04 -11.64,30.9 -11.64,47.57 0,12.29 2.21,24.45 6.64,36.49 4.43,12.03 10.62,22.7 18.59,32.03 7.97,9.32 17.52,16.69 28.67,22.11 11.15,5.41 23.12,8.12 35.94,8.12 12.81,0 24.82,-2.73 36.02,-8.2 11.19,-5.47 20.8,-12.92 28.82,-22.34 8.03,-9.43 14.17,-19.97 18.44,-31.64 4.27,-11.67 6.41,-23.86 6.41,-36.57 0,-16.67 -3.85,-32.53 -11.56,-47.57 -7.72,-15.05 -18.45,-27.14 -32.19,-36.25 -13.76,-9.12 -29.07,-13.68 -45.94,-13.68 z m -44.69,35 c 5.21,-8.23 11.7,-14.76 19.46,-19.61 7.76,-4.84 16.17,-7.26 25.23,-7.26 5.94,0 11.75,1.17 17.42,3.51 5.68,2.35 10.81,5.58 15.39,9.69 4.58,4.11 8.55,8.67 11.88,13.67 10.72,16.25 16.09,38.49 16.09,66.72 0,25.94 -5.37,46.46 -16.09,61.56 -5.32,7.6 -11.9,13.7 -19.77,18.29 -7.86,4.58 -16.17,6.87 -24.92,6.87 -8.75,0 -17.08,-2.29 -25,-6.87 -7.91,-4.59 -14.48,-10.69 -19.69,-18.29 -4.27,-5.83 -7.58,-12.06 -9.92,-18.67 -2.34,-6.61 -3.98,-13.49 -4.92,-20.62 -0.94,-7.14 -1.41,-14.56 -1.41,-22.27 0,-8.13 0.47,-16.07 1.41,-23.83 0.94,-7.76 2.66,-15.39 5.16,-22.89 2.5,-7.5 5.73,-14.17 9.68,-20"
         style="fill:#000000;fill-opacity:1;fill-rule:nonzero;stroke:none"
         id="path128" /><path
         d="m 7116.5,1700.83 v 62.97 c 0,1.35 0.78,2.03 2.34,2.03 h 3.28 c 0.52,0 1.02,-0.21 1.49,-0.62 0.46,-0.42 0.7,-0.89 0.7,-1.41 0,-17.71 5.47,-31.41 16.41,-41.09 10.93,-9.69 25.25,-14.54 42.96,-14.54 6.25,0 12.03,1.8 17.35,5.4 5.31,3.59 9.43,8.31 12.34,14.14 2.92,5.83 4.38,11.87 4.38,18.12 0,5.42 -1.09,10.71 -3.28,15.86 -2.2,5.15 -5.35,9.63 -9.46,13.44 -4.12,3.8 -8.78,6.33 -13.98,7.58 l -35.16,8.43 c -11.56,3.13 -21.01,9.45 -28.36,18.99 -7.34,9.53 -11.01,20.23 -11.01,32.11 0,9.26 2.37,17.99 7.11,26.17 4.74,8.17 11.14,14.63 19.22,19.37 8.06,4.74 16.74,7.11 26.01,7.11 18.02,0 32.34,-6.09 42.97,-18.28 l 11.09,17.5 c 0.52,0.52 1.15,0.78 1.88,0.78 h 1.87 c 0.52,0 1.01,-0.18 1.49,-0.54 0.47,-0.37 0.7,-0.92 0.7,-1.64 v -62.66 c 0,-1.56 -0.73,-2.34 -2.19,-2.34 h -3.28 c -1.67,0 -2.5,0.78 -2.5,2.34 0,4.58 -0.75,9.61 -2.26,15.08 -1.52,5.46 -3.65,10.7 -6.41,15.7 -2.76,5 -5.7,9.06 -8.83,12.19 -8.65,8.85 -20.16,13.28 -34.53,13.28 -6.15,0 -11.82,-1.57 -17.03,-4.69 -5.21,-3.13 -9.35,-7.37 -12.42,-12.73 -3.07,-5.37 -4.61,-11.02 -4.61,-16.96 0,-7.71 2.4,-14.71 7.19,-21.01 4.78,-6.3 11.08,-10.44 18.9,-12.42 l 35,-8.6 c 5.83,-1.35 11.3,-3.85 16.41,-7.5 5.1,-3.65 9.37,-7.89 12.81,-12.73 3.44,-4.85 6.12,-10.24 8.05,-16.17 1.93,-5.94 2.89,-12.09 2.89,-18.44 0,-9.69 -2.24,-18.88 -6.72,-27.58 -4.48,-8.7 -10.79,-15.68 -18.91,-20.94 -8.12,-5.26 -17.03,-7.89 -26.72,-7.89 -5.93,0 -12.03,0.65 -18.28,1.96 -6.25,1.3 -12,3.33 -17.26,6.09 -5.26,2.76 -10.03,6.27 -14.3,10.55 l -11.41,-17.82 c -0.52,-0.52 -1.2,-0.78 -2.03,-0.78 h -1.56 c -1.56,0 -2.34,0.73 -2.34,2.19"
         style="fill:#000000;fill-opacity:1;fill-rule:nonzero;stroke:none"
         id="path130" /><path
         d="m 6560.14,1769.38 h 301.09"
         style="fill:none;stroke:#d95319;stroke-width:30;stroke-linecap:butt;stroke-linejoin:bevel;stroke-miterlimit:10;stroke-dasharray:120, 120;stroke-dashoffset:0;stroke-opacity:1"
         id="path132" /><path
         d="m 6899.62,1375.82 v 9.53 c 18.54,0 27.81,2.87 27.81,8.6 v 148.28 c 0,5.73 -9.27,8.59 -27.81,8.59 v 9.38 h 148.91 l 7.5,-61.72 h -7.81 c -1.26,11.36 -2.9,20.29 -4.93,26.79 -2.03,6.52 -5.02,11.64 -8.98,15.39 -3.96,3.75 -9.27,6.39 -15.94,7.9 -6.67,1.51 -15.78,2.26 -27.34,2.26 h -24.69 c -3.23,0 -5.75,-0.13 -7.58,-0.39 -1.82,-0.26 -3.3,-1.04 -4.45,-2.34 -1.15,-1.3 -1.72,-3.26 -1.72,-5.86 v -69.53 h 19.22 c 9.17,0 15.91,0.81 20.23,2.42 4.33,1.61 7.3,4.58 8.91,8.9 1.61,4.33 2.42,11.12 2.42,20.39 h 7.81 v -72.65 h -7.81 c 0,9.17 -0.81,15.91 -2.42,20.23 -1.61,4.33 -4.58,7.3 -8.91,8.91 -4.32,1.62 -11.06,2.42 -20.23,2.42 h -19.22 v -69.37 c 0,-5.73 11.51,-8.6 34.53,-8.6 v -9.53 h -87.5"
         style="fill:#000000;fill-opacity:1;fill-rule:nonzero;stroke:none"
         id="path134" /><path
         d="m 7075.87,1375.82 v 9.53 c 18.54,0 27.81,2.87 27.81,8.6 v 148.28 c 0,5.73 -9.27,8.59 -27.81,8.59 v 9.38 h 80.78 v -9.38 c -18.54,0 -27.81,-2.86 -27.81,-8.59 v -65.63 h 79.69 v 65.63 c 0,5.73 -9.27,8.59 -27.81,8.59 v 9.38 h 80.62 v -9.38 c -18.44,0 -27.66,-2.86 -27.66,-8.59 v -148.28 c 0,-5.73 9.22,-8.6 27.66,-8.6 v -9.53 h -80.62 v 9.53 c 18.54,0 27.81,2.87 27.81,8.6 v 73.12 h -79.69 v -73.12 c 0,-5.73 9.27,-8.6 27.81,-8.6 v -9.53 h -80.78"
         style="fill:#000000;fill-opacity:1;fill-rule:nonzero;stroke:none"
         id="path136" /><path
         d="m 6560.14,1440.62 h 301.09"
         style="fill:none;stroke:#edb120;stroke-width:30;stroke-linecap:butt;stroke-linejoin:bevel;stroke-miterlimit:10;stroke-dasharray:120, 120;stroke-dashoffset:0;stroke-opacity:1"
         id="path138" /><path
         d="m 6900.87,1047.07 v 9.52 c 18.54,0 27.81,5.32 27.81,15.95 v 140.94 c 0,5.72 -9.27,8.59 -27.81,8.59 v 9.38 h 50.94 c 2.19,0 3.64,-0.99 4.37,-2.97 l 58.75,-152.82 58.91,152.82 c 0.73,1.98 2.18,2.97 4.38,2.97 h 50.93 v -9.38 c -18.54,0 -27.81,-2.87 -27.81,-8.59 V 1065.2 c 0,-5.74 9.27,-8.61 27.81,-8.61 v -9.52 h -78.59 v 9.52 c 18.54,0 27.81,2.87 27.81,8.61 v 157.03 l -66.4,-172.19 c -0.83,-1.99 -2.35,-2.97 -4.54,-2.97 -2.29,0 -3.8,0.98 -4.53,2.97 l -65.62,170.16 v -147.66 c 0,-10.63 9.27,-15.95 27.81,-15.95 v -9.52 h -64.22"
         style="fill:#000000;fill-opacity:1;fill-rule:nonzero;stroke:none"
         id="path140" /><path
         d="m 7147.12,1047.07 v 9.52 c 18.54,0 27.81,2.87 27.81,8.61 v 148.28 c 0,5.72 -9.27,8.59 -27.81,8.59 v 9.38 h 148.91 l 7.5,-61.72 h -7.81 c -1.26,11.35 -2.9,20.28 -4.93,26.79 -2.03,6.51 -5.02,11.64 -8.98,15.39 -3.96,3.75 -9.27,6.38 -15.94,7.89 -6.67,1.51 -15.78,2.27 -27.34,2.27 h -24.69 c -3.23,0 -5.75,-0.14 -7.58,-0.39 -1.82,-0.27 -3.3,-1.04 -4.45,-2.34 -1.15,-1.31 -1.72,-3.27 -1.72,-5.86 v -69.53 h 19.22 c 9.17,0 15.91,0.8 20.23,2.42 4.33,1.61 7.3,4.58 8.91,8.9 1.61,4.32 2.42,11.12 2.42,20.39 h 7.81 V 1103 h -7.81 c 0,9.17 -0.81,15.91 -2.42,20.23 -1.61,4.33 -4.58,7.3 -8.91,8.91 -4.32,1.62 -11.06,2.43 -20.23,2.43 h -19.22 v -69.37 c 0,-5.74 11.51,-8.61 34.53,-8.61 v -9.52 h -87.5"
         style="fill:#000000;fill-opacity:1;fill-rule:nonzero;stroke:none"
         id="path142" /><path
         d="m 7323.37,1047.07 v 9.52 c 18.54,0 27.81,2.87 27.81,8.61 v 148.28 c 0,5.72 -9.27,8.59 -27.81,8.59 v 9.38 h 80.78 v -9.38 c -18.54,0 -27.81,-2.87 -27.81,-8.59 v -65.64 h 79.69 v 65.64 c 0,5.72 -9.27,8.59 -27.81,8.59 v 9.38 h 80.62 v -9.38 c -18.44,0 -27.66,-2.87 -27.66,-8.59 V 1065.2 c 0,-5.74 9.22,-8.61 27.66,-8.61 v -9.52 h -80.62 v 9.52 c 18.54,0 27.81,2.87 27.81,8.61 v 73.12 h -79.69 v -73.12 c 0,-5.74 9.27,-8.61 27.81,-8.61 v -9.52 h -80.78"
         style="fill:#000000;fill-opacity:1;fill-rule:nonzero;stroke:none"
         id="path144" /><path
         d="m 6560.14,1111.87 h 301.09"
         style="fill:none;stroke:#7e2f8e;stroke-width:30;stroke-linecap:butt;stroke-linejoin:round;stroke-miterlimit:10;stroke-dasharray:none;stroke-opacity:1"
         id="path146" /><path
         d="m 6710.69,1161.87 v -100 m -50,50 h 100 m -85.36,35.36 70.72,-70.73 m -70.72,0 70.72,70.73"
         style="fill:none;stroke:#7e2f8e;stroke-width:30;stroke-linecap:butt;stroke-linejoin:miter;stroke-miterlimit:10;stroke-dasharray:none;stroke-opacity:1"
         id="path148" /><path
         d="M 6520,930 H 7560 V 2280 H 6520 Z"
         style="fill:none;stroke:#262626;stroke-width:5;stroke-linecap:butt;stroke-linejoin:miter;stroke-miterlimit:10;stroke-dasharray:none;stroke-opacity:1"
         id="path150" /></g></g></svg>
