<?xml version="1.0" encoding="UTF-8" standalone="no"?>
<svg
   xmlns:dc="http://purl.org/dc/elements/1.1/"
   xmlns:cc="http://creativecommons.org/ns#"
   xmlns:rdf="http://www.w3.org/1999/02/22-rdf-syntax-ns#"
   xmlns:svg="http://www.w3.org/2000/svg"
   xmlns="http://www.w3.org/2000/svg"
   viewBox="0 0 1350.6667 810.66669"
   height="810.66669"
   width="1350.6667"
   xml:space="preserve"
   id="svg2"
   version="1.1"><metadata
     id="metadata8"><rdf:RDF><cc:Work
         rdf:about=""><dc:format>image/svg+xml</dc:format><dc:type
           rdf:resource="http://purl.org/dc/dcmitype/StillImage" /></cc:Work></rdf:RDF></metadata><defs
     id="defs6" /><g
     transform="matrix(1.3333333,0,0,-1.3333333,0,810.66667)"
     id="g10"><g
       transform="scale(0.1)"
       id="g12"><path
         id="path14"
         style="fill:#ffffff;fill-opacity:1;fill-rule:nonzero;stroke:none"
         d="M 0,0 H 10130 V 6080 H 0 Z" /><path
         id="path16"
         style="fill:#ffffff;fill-opacity:1;fill-rule:nonzero;stroke:none"
         d="M 0,0 H 10130 V 6080 H 0 Z" /><path
         id="path18"
         style="fill:#ffffff;fill-opacity:1;fill-rule:nonzero;stroke:none"
         d="M 1320,840 H 9170 V 5620 H 1320 Z" /><path
         id="path20"
         style="fill:none;stroke:#dfdfdf;stroke-width:5;stroke-linecap:butt;stroke-linejoin:round;stroke-miterlimit:10;stroke-dasharray:none;stroke-opacity:1"
         d="M 1320,840 V 5620" /><path
         id="path22"
         style="fill:none;stroke:#dfdfdf;stroke-width:5;stroke-linecap:butt;stroke-linejoin:round;stroke-miterlimit:10;stroke-dasharray:none;stroke-opacity:1"
         d="M 2890,840 V 5620" /><path
         id="path24"
         style="fill:none;stroke:#dfdfdf;stroke-width:5;stroke-linecap:butt;stroke-linejoin:round;stroke-miterlimit:10;stroke-dasharray:none;stroke-opacity:1"
         d="M 4460,840 V 5620" /><path
         id="path26"
         style="fill:none;stroke:#dfdfdf;stroke-width:5;stroke-linecap:butt;stroke-linejoin:round;stroke-miterlimit:10;stroke-dasharray:none;stroke-opacity:1"
         d="M 6030,840 V 5620" /><path
         id="path28"
         style="fill:none;stroke:#dfdfdf;stroke-width:5;stroke-linecap:butt;stroke-linejoin:round;stroke-miterlimit:10;stroke-dasharray:none;stroke-opacity:1"
         d="M 7600,840 V 5620" /><path
         id="path30"
         style="fill:none;stroke:#dfdfdf;stroke-width:5;stroke-linecap:butt;stroke-linejoin:round;stroke-miterlimit:10;stroke-dasharray:none;stroke-opacity:1"
         d="M 9170,840 V 5620" /><path
         id="path32"
         style="fill:none;stroke:#dfdfdf;stroke-width:5;stroke-linecap:butt;stroke-linejoin:round;stroke-miterlimit:10;stroke-dasharray:none;stroke-opacity:1"
         d="M 9170,840 H 1320" /><path
         id="path34"
         style="fill:none;stroke:#dfdfdf;stroke-width:5;stroke-linecap:butt;stroke-linejoin:round;stroke-miterlimit:10;stroke-dasharray:none;stroke-opacity:1"
         d="M 9170,1796 H 1320" /><path
         id="path36"
         style="fill:none;stroke:#dfdfdf;stroke-width:5;stroke-linecap:butt;stroke-linejoin:round;stroke-miterlimit:10;stroke-dasharray:none;stroke-opacity:1"
         d="M 9170,2752 H 1320" /><path
         id="path38"
         style="fill:none;stroke:#dfdfdf;stroke-width:5;stroke-linecap:butt;stroke-linejoin:round;stroke-miterlimit:10;stroke-dasharray:none;stroke-opacity:1"
         d="M 9170,3708 H 1320" /><path
         id="path40"
         style="fill:none;stroke:#dfdfdf;stroke-width:5;stroke-linecap:butt;stroke-linejoin:round;stroke-miterlimit:10;stroke-dasharray:none;stroke-opacity:1"
         d="M 9170,4664 H 1320" /><path
         id="path42"
         style="fill:none;stroke:#dfdfdf;stroke-width:5;stroke-linecap:butt;stroke-linejoin:round;stroke-miterlimit:10;stroke-dasharray:none;stroke-opacity:1"
         d="M 9170,5620 H 1320" /><path
         id="path44"
         style="fill:none;stroke:#262626;stroke-width:5;stroke-linecap:square;stroke-linejoin:round;stroke-miterlimit:10;stroke-dasharray:none;stroke-opacity:1"
         d="M 1320,840 H 9170" /><path
         id="path46"
         style="fill:none;stroke:#262626;stroke-width:5;stroke-linecap:square;stroke-linejoin:round;stroke-miterlimit:10;stroke-dasharray:none;stroke-opacity:1"
         d="m 1320,840 v 78.5" /><path
         id="path48"
         style="fill:none;stroke:#262626;stroke-width:5;stroke-linecap:square;stroke-linejoin:round;stroke-miterlimit:10;stroke-dasharray:none;stroke-opacity:1"
         d="m 2890,840 v 78.5" /><path
         id="path50"
         style="fill:none;stroke:#262626;stroke-width:5;stroke-linecap:square;stroke-linejoin:round;stroke-miterlimit:10;stroke-dasharray:none;stroke-opacity:1"
         d="m 4460,840 v 78.5" /><path
         id="path52"
         style="fill:none;stroke:#262626;stroke-width:5;stroke-linecap:square;stroke-linejoin:round;stroke-miterlimit:10;stroke-dasharray:none;stroke-opacity:1"
         d="m 6030,840 v 78.5" /><path
         id="path54"
         style="fill:none;stroke:#262626;stroke-width:5;stroke-linecap:square;stroke-linejoin:round;stroke-miterlimit:10;stroke-dasharray:none;stroke-opacity:1"
         d="m 7600,840 v 78.5" /><path
         id="path56"
         style="fill:none;stroke:#262626;stroke-width:5;stroke-linecap:square;stroke-linejoin:round;stroke-miterlimit:10;stroke-dasharray:none;stroke-opacity:1"
         d="m 9170,840 v 78.5" /><g
         transform="scale(10)"
         id="g58"><text
           id="text62"
           style="font-variant:normal;font-weight:normal;font-size:30px;font-family:Helvetica;-inkscape-font-specification:Helvetica;writing-mode:lr-tb;fill:#262626;fill-opacity:1;fill-rule:nonzero;stroke:none"
           transform="matrix(1,0,0,-1,122,48)"><tspan
             id="tspan60"
             y="0"
             x="0 147.50011 164.1801 304.5 321.17999 461.49991 478.1799 618.49982 635.17981 765.99988 782.67987 799.35992">020406080100</tspan></text>
</g><path
         id="path64"
         style="fill:#262626;fill-opacity:1;fill-rule:nonzero;stroke:none"
         d="m 5171.41,124.738 c 0,1.356 0.11,2.344 0.31,2.973 l 47.98,190.777 c 0.83,3.75 1.35,6.664 1.55,8.75 0,3.543 -7.13,5.313 -21.41,5.313 -2.28,0 -3.43,1.461 -3.43,4.379 0.11,0.519 0.36,1.484 0.79,2.89 0.41,1.407 0.9,2.5 1.48,3.282 0.57,0.777 1.37,1.168 2.41,1.168 l 44.54,3.441 h 0.93 c 0,-0.215 0.37,-0.5 1.1,-0.859 0.73,-0.368 1.15,-0.606 1.25,-0.711 0.52,-1.039 0.79,-1.875 0.79,-2.5 L 5215,205.68 c 7.92,3.332 17.92,11.25 30,23.75 12.09,12.5 21.54,21.484 28.36,26.949 6.82,5.469 15.39,8.199 25.7,8.199 6.15,0 11.36,-2.082 15.64,-6.25 4.26,-4.164 6.39,-9.32 6.39,-15.469 0,-3.851 -0.78,-7.418 -2.34,-10.699 -1.55,-3.281 -3.8,-5.937 -6.71,-7.969 -2.92,-2.035 -6.31,-3.05 -10.16,-3.05 -3.54,0 -6.54,1.097 -8.99,3.289 -2.44,2.187 -3.67,5.05 -3.67,8.59 0,5.312 1.85,9.765 5.55,13.359 3.7,3.594 8.2,5.391 13.52,5.391 -2.19,2.914 -5.47,4.371 -9.84,4.371 -6.57,0 -12.88,-1.903 -18.91,-5.7 -6.05,-3.8 -12.58,-9.218 -19.61,-16.25 -7.04,-7.035 -13.47,-13.468 -19.3,-19.3 -5.84,-5.836 -11.2,-10.262 -16.09,-13.282 12.91,-1.453 24.16,-4.836 33.75,-10.148 9.58,-5.316 14.37,-13.492 14.37,-24.531 0,-2.192 -0.41,-5.008 -1.25,-8.442 -1.98,-8.332 -2.96,-14.949 -2.96,-19.847 0,-9.895 3.38,-14.84 10.14,-14.84 8.02,0 14.09,4.347 18.21,13.051 4.12,8.691 7.53,18.82 10.24,30.386 0.41,1.356 1.3,2.032 2.66,2.032 h 3.89 c 0.84,0 1.57,-0.286 2.2,-0.86 0.62,-0.574 0.93,-1.277 0.93,-2.109 0,-0.207 -0.1,-0.52 -0.31,-0.942 -8.33,-33.539 -21.14,-50.308 -38.44,-50.308 -6.25,0 -11.77,1.461 -16.56,4.379 -4.79,2.914 -8.46,6.871 -11.02,11.871 -2.55,5 -3.83,10.625 -3.83,16.879 0,3.539 0.48,7.183 1.41,10.929 0.63,2.606 0.94,5.004 0.94,7.192 0,8.539 -3.75,15 -11.25,19.379 -7.5,4.375 -16.09,7.082 -25.78,8.121 l -16.72,-67.5 c -0.83,-3.227 -2.5,-5.91 -5,-8.051 -2.5,-2.133 -5.36,-3.199 -8.6,-3.199 -2.7,0 -5.07,0.937 -7.11,2.808 -2.02,1.879 -3.04,4.172 -3.04,6.879" /><path
         id="path66"
         style="fill:none;stroke:#262626;stroke-width:5;stroke-linecap:square;stroke-linejoin:round;stroke-miterlimit:10;stroke-dasharray:none;stroke-opacity:1"
         d="M 1320,840 V 5620" /><path
         id="path68"
         style="fill:none;stroke:#262626;stroke-width:5;stroke-linecap:square;stroke-linejoin:round;stroke-miterlimit:10;stroke-dasharray:none;stroke-opacity:1"
         d="m 1320,840 h 78.5" /><path
         id="path70"
         style="fill:none;stroke:#262626;stroke-width:5;stroke-linecap:square;stroke-linejoin:round;stroke-miterlimit:10;stroke-dasharray:none;stroke-opacity:1"
         d="m 1320,1796 h 78.5" /><path
         id="path72"
         style="fill:none;stroke:#262626;stroke-width:5;stroke-linecap:square;stroke-linejoin:round;stroke-miterlimit:10;stroke-dasharray:none;stroke-opacity:1"
         d="m 1320,2752 h 78.5" /><path
         id="path74"
         style="fill:none;stroke:#262626;stroke-width:5;stroke-linecap:square;stroke-linejoin:round;stroke-miterlimit:10;stroke-dasharray:none;stroke-opacity:1"
         d="m 1320,3708 h 78.5" /><path
         id="path76"
         style="fill:none;stroke:#262626;stroke-width:5;stroke-linecap:square;stroke-linejoin:round;stroke-miterlimit:10;stroke-dasharray:none;stroke-opacity:1"
         d="m 1320,4664 h 78.5" /><path
         id="path78"
         style="fill:none;stroke:#262626;stroke-width:5;stroke-linecap:square;stroke-linejoin:round;stroke-miterlimit:10;stroke-dasharray:none;stroke-opacity:1"
         d="m 1320,5620 h 78.5" /><g
         transform="scale(10)"
         id="g80"><text
           id="text94"
           style="font-variant:normal;font-weight:normal;font-size:30px;font-family:Helvetica;-inkscape-font-specification:Helvetica;writing-mode:lr-tb;fill:#262626;fill-opacity:1;fill-rule:nonzero;stroke:none"
           transform="matrix(1,0,0,-1,104,74)"><tspan
             id="tspan82"
             y="0"
             x="0">0</tspan><tspan
             id="tspan84"
             y="-95.599998"
             x="0">1</tspan><tspan
             id="tspan86"
             y="-191.2"
             x="0">2</tspan><tspan
             id="tspan88"
             y="-286.79999"
             x="0">3</tspan><tspan
             id="tspan90"
             y="-382.39999"
             x="0">4</tspan><tspan
             id="tspan92"
             y="-478"
             x="0">5</tspan></text>
</g><path
         id="path96"
         style="fill:#262626;fill-opacity:1;fill-rule:nonzero;stroke:none"
         d="M 967.762,1905.38 H 649.641 c -1.668,0 -3.075,0.62 -4.219,1.87 -1.149,1.25 -1.723,2.82 -1.723,4.69 0,1.56 0.574,3.04 1.723,4.45 1.144,1.41 2.551,2.11 4.219,2.11 h 318.121 c 1.664,0 3.07,-0.7 4.218,-2.11 1.145,-1.41 1.719,-2.89 1.719,-4.45 0,-1.87 -0.574,-3.44 -1.719,-4.69 -1.148,-1.25 -2.554,-1.87 -4.218,-1.87" /><path
         id="path98"
         style="fill:#262626;fill-opacity:1;fill-rule:nonzero;stroke:none"
         d="M 967.762,1997.04 H 649.641 c -1.668,0 -3.075,0.63 -4.219,1.88 -1.149,1.25 -1.723,2.81 -1.723,4.68 0,1.57 0.574,3.06 1.723,4.46 1.144,1.41 2.551,2.11 4.219,2.11 h 318.121 c 1.664,0 3.07,-0.7 4.218,-2.11 1.145,-1.4 1.719,-2.89 1.719,-4.46 0,-1.87 -0.574,-3.43 -1.719,-4.68 -1.148,-1.25 -2.554,-1.88 -4.218,-1.88" /><path
         id="path100"
         style="fill:#262626;fill-opacity:1;fill-rule:nonzero;stroke:none"
         d="m 709.121,2111.51 -7.043,-6.56 -44.367,44.53 44.367,44.22 7.043,-6.72 -33.133,-37.5 33.133,-37.97" /><path
         id="path102"
         style="fill:#262626;fill-opacity:1;fill-rule:nonzero;stroke:none"
         d="M 891.199,2056.52 H 874.48 c 0,18.76 -1.039,29.12 -3.121,31.1 l -50.468,44.53 -59.379,-49.53 v -24.38 h -16.723 v 77.66 h 16.723 v -12.03 l 35.308,29.68 -32.648,28.75 c -0.942,0 -1.617,-1.59 -2.031,-4.76 -0.422,-3.18 -0.629,-5.76 -0.629,-7.74 h -16.723 v 65.94 h 16.723 c 0,-18.65 0.988,-28.96 2.968,-30.94 l 45.469,-40.31 64.531,53.59 v 24.69 h 16.719 V 2164.8 H 874.48 v 12.35 l -40.308,-34.07 37.5,-32.96 c 0.726,0 1.375,1.59 1.949,4.76 0.57,3.18 0.859,5.76 0.859,7.74 h 16.719 v -66.1" /><path
         id="path104"
         style="fill:#262626;fill-opacity:1;fill-rule:nonzero;stroke:none"
         d="m 973.07,2351.97 c -9.687,-12.29 -20.781,-22.86 -33.281,-31.72 -12.5,-8.85 -25.832,-16.09 -40,-21.72 -14.164,-5.62 -28.98,-9.84 -44.449,-12.66 -15.465,-2.8 -31.012,-4.21 -46.641,-4.21 -15.832,0 -31.484,1.41 -46.949,4.21 -15.473,2.82 -30.344,7.09 -44.609,12.82 -14.274,5.73 -27.633,13.04 -40.082,21.95 -12.446,8.91 -23.36,19.35 -32.739,31.33 -0.414,0 -0.621,0.52 -0.621,1.56 v 3.13 c 0,0.62 0.289,1.19 0.86,1.71 0.574,0.53 1.277,0.79 2.113,0.79 0.93,0 1.609,-0.21 2.027,-0.63 10.52,-10.73 21.797,-19.66 33.832,-26.8 12.028,-7.13 24.836,-12.89 38.43,-17.26 13.598,-4.37 27.664,-7.52 42.187,-9.45 14.536,-1.93 29.719,-2.9 45.551,-2.9 69.895,0 123.016,18.7 159.371,56.1 0.625,0.63 1.512,0.94 2.66,0.94 0.625,0 1.278,-0.28 1.95,-0.86 0.679,-0.57 1.019,-1.12 1.019,-1.64 v -3.13 c 0,-1.04 -0.211,-1.56 -0.629,-1.56" /><path
         id="path106"
         style="fill:#262626;fill-opacity:1;fill-rule:nonzero;stroke:none"
         d="m 885.262,2395.46 c -1.356,0 -2.344,0.11 -2.973,0.31 l -190.777,47.97 c -3.75,0.83 -6.664,1.35 -8.75,1.56 -3.543,0 -5.313,-7.13 -5.313,-21.4 0,-2.29 -1.461,-3.44 -4.379,-3.44 -0.519,0.1 -1.484,0.36 -2.89,0.78 -1.407,0.42 -2.5,0.91 -3.282,1.48 -0.777,0.58 -1.168,1.39 -1.168,2.43 l -3.441,44.53 v 0.93 c 0.215,0 0.5,0.37 0.859,1.1 0.368,0.73 0.606,1.15 0.711,1.25 1.039,0.52 1.875,0.78 2.5,0.78 l 137.961,-34.69 c -3.332,7.92 -11.25,17.92 -23.75,30 -12.5,12.09 -21.484,21.54 -26.949,28.36 -5.469,6.83 -8.199,15.39 -8.199,25.7 0,6.15 2.082,11.36 6.25,15.63 4.164,4.28 9.32,6.41 15.469,6.41 3.851,0 7.418,-0.78 10.699,-2.35 3.281,-1.56 5.937,-3.8 7.969,-6.72 2.035,-2.91 3.05,-6.29 3.05,-10.15 0,-3.54 -1.097,-6.54 -3.289,-8.99 -2.187,-2.44 -5.05,-3.67 -8.59,-3.67 -5.312,0 -9.765,1.85 -13.359,5.55 -3.594,3.7 -5.391,8.2 -5.391,13.51 -2.914,-2.19 -4.371,-5.46 -4.371,-9.84 0,-6.56 1.903,-12.86 5.7,-18.91 3.8,-6.04 9.218,-12.58 16.25,-19.61 7.035,-7.02 13.468,-13.45 19.3,-19.29 5.832,-5.83 10.262,-11.2 13.282,-16.1 1.453,12.92 4.836,24.17 10.148,33.75 5.313,9.59 13.492,14.38 24.531,14.38 2.192,0 5.008,-0.41 8.442,-1.25 8.332,-1.98 14.949,-2.97 19.847,-2.97 9.895,0 14.84,3.39 14.84,10.16 0,8.02 -4.347,14.09 -13.051,18.2 -8.691,4.11 -18.82,7.53 -30.386,10.23 -1.356,0.42 -2.032,1.31 -2.032,2.66 v 3.91 c 0,0.83 0.286,1.56 0.86,2.18 0.574,0.63 1.277,0.94 2.109,0.94 0.207,0 0.52,-0.1 0.942,-0.31 33.539,-8.33 50.308,-21.14 50.308,-38.44 0,-6.24 -1.461,-11.77 -4.379,-16.56 -2.914,-4.79 -6.871,-8.46 -11.871,-11.02 -5,-2.55 -10.625,-3.83 -16.879,-3.83 -3.539,0 -7.183,0.47 -10.929,1.41 -2.606,0.63 -5.004,0.94 -7.192,0.94 -8.539,0 -15,-3.75 -19.379,-11.25 -4.375,-7.5 -7.082,-16.09 -8.121,-25.78 l 67.5,-16.72 c 3.227,-0.83 5.91,-2.5 8.051,-5 2.133,-2.5 3.199,-5.37 3.199,-8.6 0,-2.7 -0.937,-5.07 -2.808,-7.1 -1.879,-2.03 -4.176,-3.05 -6.879,-3.05" /><path
         id="path108"
         style="fill:#262626;fill-opacity:1;fill-rule:nonzero;stroke:none"
         d="M 967.762,2599.52 H 649.641 c -1.668,0 -3.075,0.63 -4.219,1.88 -1.149,1.25 -1.723,2.81 -1.723,4.68 0,1.57 0.574,3.06 1.723,4.46 1.144,1.41 2.551,2.11 4.219,2.11 h 318.121 c 1.664,0 3.07,-0.7 4.218,-2.11 1.145,-1.4 1.719,-2.89 1.719,-4.46 0,-1.87 -0.574,-3.43 -1.719,-4.68 -1.148,-1.25 -2.554,-1.88 -4.218,-1.88" /><path
         id="path110"
         style="fill:#262626;fill-opacity:1;fill-rule:nonzero;stroke:none"
         d="m 885.262,2669.31 c -1.356,0 -2.344,0.11 -2.973,0.32 l -190.777,47.96 c -3.75,0.84 -6.664,1.36 -8.75,1.57 -3.543,0 -5.313,-7.13 -5.313,-21.41 0,-2.29 -1.461,-3.44 -4.379,-3.44 -0.519,0.11 -1.484,0.37 -2.89,0.78 -1.407,0.42 -2.5,0.92 -3.282,1.49 -0.777,0.58 -1.168,1.38 -1.168,2.42 l -3.441,44.53 v 0.94 c 0.215,0 0.5,0.37 0.859,1.09 0.368,0.74 0.606,1.15 0.711,1.25 1.039,0.52 1.875,0.78 2.5,0.78 l 137.961,-34.68 c -3.332,7.91 -11.25,17.91 -23.75,30 -12.5,12.08 -21.484,21.54 -26.949,28.36 -5.469,6.82 -8.199,15.39 -8.199,25.7 0,6.15 2.082,11.35 6.25,15.62 4.164,4.28 9.32,6.41 15.469,6.41 3.851,0 7.418,-0.78 10.699,-2.34 3.281,-1.57 5.937,-3.8 7.969,-6.72 2.035,-2.92 3.05,-6.3 3.05,-10.16 0,-3.54 -1.097,-6.53 -3.289,-8.98 -2.187,-2.44 -5.05,-3.67 -8.59,-3.67 -5.312,0 -9.765,1.85 -13.359,5.54 -3.594,3.7 -5.391,8.21 -5.391,13.52 -2.914,-2.19 -4.371,-5.47 -4.371,-9.85 0,-6.56 1.903,-12.86 5.7,-18.9 3.8,-6.04 9.218,-12.57 16.25,-19.61 7.035,-7.03 13.468,-13.46 19.3,-19.3 5.832,-5.83 10.262,-11.19 13.282,-16.09 1.453,12.92 4.836,24.17 10.148,33.75 5.313,9.58 13.492,14.37 24.531,14.37 2.192,0 5.008,-0.42 8.442,-1.25 8.332,-1.98 14.949,-2.97 19.847,-2.97 9.895,0 14.84,3.39 14.84,10.16 0,8.02 -4.347,14.09 -13.051,18.2 -8.691,4.12 -18.82,7.53 -30.386,10.24 -1.356,0.42 -2.032,1.3 -2.032,2.65 v 3.91 c 0,0.84 0.286,1.57 0.86,2.19 0.574,0.63 1.277,0.94 2.109,0.94 0.207,0 0.52,-0.1 0.942,-0.32 33.539,-8.33 50.308,-21.14 50.308,-38.43 0,-6.25 -1.461,-11.77 -4.379,-16.57 -2.914,-4.78 -6.871,-8.45 -11.871,-11.01 -5,-2.55 -10.625,-3.83 -16.879,-3.83 -3.539,0 -7.183,0.47 -10.929,1.41 -2.606,0.62 -5.004,0.93 -7.192,0.93 -8.539,0 -15,-3.75 -19.379,-11.25 -4.375,-7.5 -7.082,-16.09 -8.121,-25.78 l 67.5,-16.72 c 3.227,-0.83 5.91,-2.5 8.051,-5 2.133,-2.5 3.199,-5.36 3.199,-8.59 0,-2.7 -0.937,-5.08 -2.808,-7.11 -1.879,-2.03 -4.176,-3.05 -6.879,-3.05" /><path
         id="path112"
         style="fill:#262626;fill-opacity:1;fill-rule:nonzero;stroke:none"
         d="M 967.762,2873.38 H 649.641 c -1.668,0 -3.075,0.62 -4.219,1.87 -1.149,1.25 -1.723,2.82 -1.723,4.69 0,1.56 0.574,3.04 1.723,4.45 1.144,1.41 2.551,2.11 4.219,2.11 h 318.121 c 1.664,0 3.07,-0.7 4.218,-2.11 1.145,-1.41 1.719,-2.89 1.719,-4.45 0,-1.87 -0.574,-3.44 -1.719,-4.69 -1.148,-1.25 -2.554,-1.87 -4.218,-1.87" /><path
         id="path114"
         style="fill:#262626;fill-opacity:1;fill-rule:nonzero;stroke:none"
         d="m 885.262,2943.17 c -1.356,0 -2.344,0.11 -2.973,0.31 l -190.777,47.97 c -3.75,0.84 -6.664,1.35 -8.75,1.56 -3.543,0 -5.313,-7.13 -5.313,-21.4 0,-2.29 -1.461,-3.44 -4.379,-3.44 -0.519,0.1 -1.484,0.36 -2.89,0.78 -1.407,0.42 -2.5,0.91 -3.282,1.48 -0.777,0.57 -1.168,1.39 -1.168,2.43 l -3.441,44.53 v 0.93 c 0.215,0 0.5,0.37 0.859,1.1 0.368,0.73 0.606,1.15 0.711,1.25 1.039,0.52 1.875,0.78 2.5,0.78 l 137.961,-34.69 c -3.332,7.92 -11.25,17.92 -23.75,30 -12.5,12.09 -21.484,21.54 -26.949,28.36 -5.469,6.83 -8.199,15.4 -8.199,25.7 0,6.15 2.082,11.36 6.25,15.63 4.164,4.28 9.32,6.41 15.469,6.41 3.851,0 7.418,-0.78 10.699,-2.35 3.281,-1.56 5.937,-3.8 7.969,-6.72 2.035,-2.91 3.05,-6.29 3.05,-10.15 0,-3.55 -1.097,-6.54 -3.289,-8.99 -2.187,-2.44 -5.05,-3.67 -8.59,-3.67 -5.312,0 -9.765,1.85 -13.359,5.55 -3.594,3.7 -5.391,8.2 -5.391,13.51 -2.914,-2.18 -4.371,-5.47 -4.371,-9.84 0,-6.56 1.903,-12.86 5.7,-18.91 3.8,-6.04 9.218,-12.58 16.25,-19.61 7.035,-7.02 13.468,-13.45 19.3,-19.29 5.832,-5.83 10.262,-11.2 13.282,-16.1 1.453,12.92 4.836,24.17 10.148,33.75 5.313,9.59 13.492,14.38 24.531,14.38 2.192,0 5.008,-0.42 8.442,-1.25 8.332,-1.98 14.949,-2.97 19.847,-2.97 9.895,0 14.84,3.39 14.84,10.16 0,8.02 -4.347,14.09 -13.051,18.2 -8.691,4.12 -18.82,7.53 -30.386,10.23 -1.356,0.42 -2.032,1.31 -2.032,2.66 v 3.91 c 0,0.84 0.286,1.56 0.86,2.18 0.574,0.63 1.277,0.94 2.109,0.94 0.207,0 0.52,-0.1 0.942,-0.31 33.539,-8.33 50.308,-21.14 50.308,-38.44 0,-6.25 -1.461,-11.77 -4.379,-16.56 -2.914,-4.79 -6.871,-8.46 -11.871,-11.02 -5,-2.55 -10.625,-3.83 -16.879,-3.83 -3.539,0 -7.183,0.47 -10.929,1.41 -2.606,0.63 -5.004,0.94 -7.192,0.94 -8.539,0 -15,-3.75 -19.379,-11.25 -4.375,-7.5 -7.082,-16.09 -8.121,-25.78 l 67.5,-16.72 c 3.227,-0.83 5.91,-2.5 8.051,-5 2.133,-2.5 3.199,-5.37 3.199,-8.6 0,-2.7 -0.937,-5.07 -2.808,-7.11 -1.879,-2.03 -4.176,-3.04 -6.879,-3.04" /><path
         id="path116"
         style="fill:#262626;fill-opacity:1;fill-rule:nonzero;stroke:none"
         d="m 973.699,3129.26 c 0,-1.87 -0.988,-2.81 -2.969,-2.81 -0.941,0 -1.617,0.21 -2.031,0.62 -36.773,37.61 -90.105,56.41 -160,56.41 -69.89,0 -123.019,-18.59 -159.379,-55.78 -0.519,-0.83 -1.402,-1.25 -2.648,-1.25 -0.836,0 -1.539,0.29 -2.113,0.86 -0.571,0.58 -0.86,1.23 -0.86,1.95 v 3.13 c 0,0.62 0.207,1.14 0.621,1.56 12.5,15.84 27.657,29.01 45.469,39.53 17.813,10.52 36.824,18.23 57.031,23.13 20.215,4.89 40.84,7.34 61.879,7.34 15.629,0 30.965,-1.32 46.012,-3.98 15.051,-2.66 29.922,-6.85 44.609,-12.58 14.692,-5.73 28.239,-13 40.629,-21.8 12.395,-8.8 23.434,-19.34 33.121,-31.64 0.418,-0.42 0.629,-0.94 0.629,-1.56 v -3.13" /><path
         id="path118"
         style="fill:#262626;fill-opacity:1;fill-rule:nonzero;stroke:none"
         d="m 815.262,3343.27 c 0,-1.87 -0.703,-3.41 -2.114,-4.61 -1.406,-1.2 -2.886,-1.8 -4.449,-1.8 -1.558,0 -3.043,0.6 -4.449,1.8 -1.406,1.2 -2.109,2.74 -2.109,4.61 v 189.22 c 0,1.78 0.703,3.21 2.109,4.3 1.406,1.1 2.891,1.64 4.449,1.64 1.563,0 3.043,-0.54 4.449,-1.64 1.411,-1.09 2.114,-2.52 2.114,-4.3 v -189.22" /><path
         id="path120"
         style="fill:#262626;fill-opacity:1;fill-rule:nonzero;stroke:none"
         d="M 891.199,3646.71 H 874.48 c 0,18.75 -1.039,29.11 -3.121,31.09 l -50.468,44.53 -59.379,-49.53 v -24.37 h -16.723 v 77.65 h 16.723 v -12.03 l 35.308,29.69 -32.648,28.75 c -0.942,0 -1.617,-1.59 -2.031,-4.77 -0.422,-3.17 -0.629,-5.75 -0.629,-7.73 h -16.723 v 65.94 h 16.723 c 0,-18.64 0.988,-28.96 2.968,-30.94 l 45.469,-40.31 64.531,53.59 v 24.69 h 16.719 v -77.97 H 874.48 v 12.34 l -40.308,-34.06 37.5,-32.97 c 0.726,0 1.375,1.59 1.949,4.77 0.57,3.18 0.859,5.75 0.859,7.73 h 16.719 v -66.09" /><path
         id="path122"
         style="fill:#262626;fill-opacity:1;fill-rule:nonzero;stroke:none"
         d="m 973.07,3942.15 c -9.687,-12.28 -20.781,-22.85 -33.281,-31.71 -12.5,-8.86 -25.832,-16.1 -40,-21.72 -14.164,-5.63 -28.98,-9.84 -44.449,-12.66 -15.465,-2.81 -31.012,-4.22 -46.641,-4.22 -15.832,0 -31.484,1.41 -46.949,4.22 -15.473,2.82 -30.344,7.08 -44.609,12.81 -14.274,5.74 -27.633,13.06 -40.082,21.96 -12.446,8.91 -23.36,19.35 -32.739,31.32 -0.414,0 -0.621,0.53 -0.621,1.57 v 3.12 c 0,0.63 0.289,1.2 0.86,1.72 0.574,0.52 1.277,0.78 2.113,0.78 0.93,0 1.609,-0.2 2.027,-0.62 10.52,-10.73 21.797,-19.67 33.832,-26.8 12.028,-7.13 24.836,-12.89 38.43,-17.27 13.598,-4.37 27.664,-7.52 42.187,-9.45 14.536,-1.92 29.719,-2.89 45.551,-2.89 69.895,0 123.016,18.7 159.371,56.09 0.625,0.63 1.512,0.94 2.66,0.94 0.625,0 1.278,-0.29 1.95,-0.86 0.679,-0.57 1.019,-1.12 1.019,-1.64 v -3.12 c 0,-1.04 -0.211,-1.57 -0.629,-1.57" /><path
         id="path124"
         style="fill:#262626;fill-opacity:1;fill-rule:nonzero;stroke:none"
         d="m 885.262,3985.64 c -1.356,0 -2.344,0.11 -2.973,0.32 l -190.777,47.97 c -3.75,0.84 -6.664,1.36 -8.75,1.56 -3.543,0 -5.313,-7.13 -5.313,-21.41 0,-2.29 -1.461,-3.44 -4.379,-3.44 -0.519,0.11 -1.484,0.37 -2.89,0.79 -1.407,0.41 -2.5,0.91 -3.282,1.48 -0.777,0.57 -1.168,1.38 -1.168,2.42 l -3.441,44.53 v 0.94 c 0.215,0 0.5,0.36 0.859,1.09 0.368,0.74 0.606,1.15 0.711,1.25 1.039,0.53 1.875,0.79 2.5,0.79 l 137.961,-34.69 c -3.332,7.92 -11.25,17.92 -23.75,30 -12.5,12.08 -21.484,21.54 -26.949,28.36 -5.469,6.82 -8.199,15.39 -8.199,25.7 0,6.15 2.082,11.36 6.25,15.63 4.164,4.27 9.32,6.4 15.469,6.4 3.851,0 7.418,-0.78 10.699,-2.34 3.281,-1.56 5.937,-3.8 7.969,-6.72 2.035,-2.92 3.05,-6.31 3.05,-10.16 0,-3.54 -1.097,-6.53 -3.289,-8.98 -2.187,-2.45 -5.05,-3.67 -8.59,-3.67 -5.312,0 -9.765,1.85 -13.359,5.54 -3.594,3.7 -5.391,8.21 -5.391,13.52 -2.914,-2.18 -4.371,-5.47 -4.371,-9.84 0,-6.56 1.903,-12.87 5.7,-18.91 3.8,-6.04 9.218,-12.57 16.25,-19.61 7.035,-7.03 13.468,-13.46 19.3,-19.3 5.832,-5.83 10.262,-11.2 13.282,-16.09 1.453,12.92 4.836,24.17 10.148,33.75 5.313,9.58 13.492,14.37 24.531,14.37 2.192,0 5.008,-0.41 8.442,-1.25 8.332,-1.97 14.949,-2.96 19.847,-2.96 9.895,0 14.84,3.39 14.84,10.15 0,8.02 -4.347,14.09 -13.051,18.21 -8.691,4.12 -18.82,7.53 -30.386,10.23 -1.356,0.42 -2.032,1.3 -2.032,2.66 v 3.9 c 0,0.83 0.286,1.56 0.86,2.19 0.574,0.63 1.277,0.94 2.109,0.94 0.207,0 0.52,-0.1 0.942,-0.32 33.539,-8.33 50.308,-21.14 50.308,-38.43 0,-6.25 -1.461,-11.77 -4.379,-16.57 -2.914,-4.78 -6.871,-8.46 -11.871,-11.01 -5,-2.55 -10.625,-3.83 -16.879,-3.83 -3.539,0 -7.183,0.47 -10.929,1.41 -2.606,0.62 -5.004,0.93 -7.192,0.93 -8.539,0 -15,-3.75 -19.379,-11.25 -4.375,-7.5 -7.082,-16.09 -8.121,-25.78 l 67.5,-16.72 c 3.227,-0.83 5.91,-2.5 8.051,-5 2.133,-2.5 3.199,-5.36 3.199,-8.59 0,-2.71 -0.937,-5.07 -2.808,-7.11 -1.879,-2.03 -4.176,-3.05 -6.879,-3.05" /><path
         id="path126"
         style="fill:#262626;fill-opacity:1;fill-rule:nonzero;stroke:none"
         d="m 973.699,4171.74 c 0,-1.87 -0.988,-2.81 -2.969,-2.81 -0.941,0 -1.617,0.21 -2.031,0.62 -36.773,37.61 -90.105,56.41 -160,56.41 -69.89,0 -123.019,-18.59 -159.379,-55.78 -0.519,-0.83 -1.402,-1.25 -2.648,-1.25 -0.836,0 -1.539,0.29 -2.113,0.86 -0.571,0.57 -0.86,1.22 -0.86,1.95 v 3.12 c 0,0.63 0.207,1.15 0.621,1.57 12.5,15.84 27.657,29.01 45.469,39.53 17.813,10.52 36.824,18.23 57.031,23.12 20.215,4.9 40.84,7.35 61.879,7.35 15.629,0 30.965,-1.33 46.012,-3.99 15.051,-2.65 29.922,-6.85 44.609,-12.58 14.692,-5.72 28.239,-12.99 40.629,-21.79 12.395,-8.8 23.434,-19.35 33.121,-31.64 0.418,-0.42 0.629,-0.94 0.629,-1.57 v -3.12" /><path
         id="path128"
         style="fill:#262626;fill-opacity:1;fill-rule:nonzero;stroke:none"
         d="M 967.762,4318.04 H 649.641 c -1.668,0 -3.075,0.63 -4.219,1.88 -1.149,1.25 -1.723,2.81 -1.723,4.68 0,1.57 0.574,3.06 1.723,4.46 1.144,1.41 2.551,2.11 4.219,2.11 h 318.121 c 1.664,0 3.07,-0.7 4.218,-2.11 1.145,-1.4 1.719,-2.89 1.719,-4.46 0,-1.87 -0.574,-3.43 -1.719,-4.68 -1.148,-1.25 -2.554,-1.88 -4.218,-1.88" /><path
         id="path130"
         style="fill:#262626;fill-opacity:1;fill-rule:nonzero;stroke:none"
         d="M 967.762,4409.71 H 649.641 c -1.668,0 -3.075,0.63 -4.219,1.87 -1.149,1.26 -1.723,2.82 -1.723,4.69 0,1.56 0.574,3.05 1.723,4.45 1.144,1.41 2.551,2.11 4.219,2.11 h 318.121 c 1.664,0 3.07,-0.7 4.218,-2.11 1.145,-1.4 1.719,-2.89 1.719,-4.45 0,-1.87 -0.574,-3.43 -1.719,-4.69 -1.148,-1.24 -2.554,-1.87 -4.218,-1.87" /><path
         id="path132"
         style="fill:#262626;fill-opacity:1;fill-rule:nonzero;stroke:none"
         d="m 940.699,4473.41 h -6.25 c -0.312,0 -0.679,0.16 -1.097,0.46 l -39.532,35.79 c -5.933,5.41 -10.879,9.79 -14.84,13.12 -3.96,3.34 -8.515,6.64 -13.671,9.92 -5.161,3.28 -10.418,5.89 -15.778,7.82 -5.367,1.93 -11.019,2.89 -16.961,2.89 -6.355,0 -12.394,-1.14 -18.121,-3.44 -5.734,-2.29 -10.316,-5.76 -13.75,-10.39 -3.437,-4.64 -5.16,-10.19 -5.16,-16.64 0,-6.66 2.008,-12.65 6.02,-17.97 4.007,-5.31 9.187,-9.06 15.543,-11.25 -0.102,0.52 -0.153,1.35 -0.153,2.5 0,3.44 1.149,6.35 3.442,8.75 2.285,2.4 5.304,3.59 9.058,3.59 3.434,0 6.379,-1.19 8.832,-3.59 2.446,-2.4 3.668,-5.31 3.668,-8.75 0,-3.65 -1.25,-6.69 -3.75,-9.14 -2.5,-2.44 -5.414,-3.67 -8.75,-3.67 -5.832,0 -11.277,1.09 -16.328,3.28 -5.055,2.19 -9.535,5.31 -13.441,9.37 -3.907,4.07 -6.899,8.68 -8.981,13.83 -2.086,5.16 -3.129,10.6 -3.129,16.33 0,8.75 1.852,16.9 5.551,24.45 3.699,7.56 8.934,13.54 15.699,17.97 6.774,4.43 14.692,6.64 23.75,6.64 6.668,0 12.996,-1.46 18.989,-4.37 5.988,-2.92 11.429,-6.64 16.332,-11.18 4.894,-4.52 10.437,-10.36 16.64,-17.5 6.192,-7.13 10.332,-11.84 12.418,-14.14 l 25.153,-25.93 v 22.03 c 0,10.84 -0.106,19.92 -0.313,27.26 -0.207,7.35 -0.519,11.23 -0.937,11.64 -1.875,1.78 -8.907,3.6 -21.09,5.47 v 6.72 l 40.937,-6.41 v -85.46" /><path
         id="path134"
         style="fill:#262626;fill-opacity:1;fill-rule:nonzero;stroke:none"
         d="m 1364.06,5708.59 c 0,1.57 0.52,3.03 1.57,4.38 l 62.34,62.03 -62.34,62.34 c -1.05,1.05 -1.57,2.4 -1.57,4.07 0,1.45 0.6,2.81 1.8,4.06 1.2,1.25 2.63,1.87 4.3,1.87 1.35,0 2.86,-0.62 4.53,-1.87 l 62.03,-62.19 61.87,62.19 c 1.67,1.25 3.12,1.87 4.38,1.87 1.67,0 3.07,-0.57 4.22,-1.71 1.15,-1.15 1.72,-2.55 1.72,-4.22 0,-1.67 -0.47,-3.02 -1.41,-4.07 l -62.34,-62.34 62.34,-62.03 c 0.94,-1.35 1.41,-2.81 1.41,-4.38 0,-1.67 -0.57,-3.07 -1.72,-4.21 -1.15,-1.15 -2.55,-1.72 -4.22,-1.72 -1.46,0 -2.92,0.73 -4.38,2.18 l -61.87,61.88 -62.03,-61.88 c -1.46,-1.45 -2.97,-2.18 -4.53,-2.18 -1.67,0 -3.1,0.63 -4.3,1.87 -1.2,1.26 -1.8,2.61 -1.8,4.06" /><g
         transform="scale(10)"
         id="g136"><text
           id="text140"
           style="font-variant:normal;font-weight:normal;font-size:30px;font-family:Helvetica;-inkscape-font-specification:Helvetica;writing-mode:lr-tb;fill:#262626;fill-opacity:1;fill-rule:nonzero;stroke:none"
           transform="matrix(1,0,0,-1,156,570)"><tspan
             id="tspan138"
             y="0"
             x="0 16.68">10</tspan></text>
<text
           id="text144"
           style="font-variant:normal;font-weight:normal;font-size:24px;font-family:Helvetica;-inkscape-font-specification:Helvetica;writing-mode:lr-tb;fill:#262626;fill-opacity:1;fill-rule:nonzero;stroke:none"
           transform="matrix(1,0,0,-1,195,585)"><tspan
             id="tspan142"
             y="0"
             x="0">4</tspan></text>
</g><path
         id="path146"
         style="fill:none;stroke:#0072bd;stroke-width:30;stroke-linecap:butt;stroke-linejoin:round;stroke-miterlimit:10;stroke-dasharray:none;stroke-opacity:1"
         d="m 1320,844.34 78.5,-0.981 78.5,-0.187 78.5,-0.25 78.5,-0.012 78.5,-0.109 78.5,-0.063 78.5,-0.019 78.5,-0.098 78.5,-0.031 78.5,0.14 78.5,0.079 78.5,0.043 78.5,0.078 78.5,0.07 78.5,-0.059 78.5,0.008 78.5,-0.16 78.5,0.063 78.5,0.046 78.5,-0.046 78.5,0.046 78.5,-0.027 78.5,-0.07 h 78.5 l 78.5,-0.082 78.5,0.16 78.5,0.012 78.5,0.089 78.5,-0.16 78.5,0.121 h 78.5 l 78.5,-0.07 78.5,0.129 78.5,0.063 78.5,-0.012 78.5,-0.16 78.5,0.019 78.5,-0.09 78.5,-0.05 78.5,-0.11 78.5,-0.101 78.5,0.101 78.5,-0.051 78.5,0.082 78.5,-0.019 78.5,0.027 78.5,0.141 78.5,-0.231 78.5,0.09 78.5,-0.047 78.5,0.02 78.5,-0.043 78.5,0.051 78.5,0.05 78.5,-0.039 78.5,0.25 78.5,-0.101 78.5,-0.059 78.5,0.02 78.5,0.09 78.5,-0.102 78.5,-0.109 78.5,-0.09 78.5,0.039 78.5,0.07 78.5,0.09 h 78.5 l 78.5,0.102 78.5,0.019 78.5,-0.14 78.5,0.16 78.5,0.172 78.5,-0.051 78.5,-0.071 h 78.5 l 78.5,-0.121 78.5,-0.019 78.5,0.031 78.5,-0.09 78.5,-0.14 78.5,0.011 78.5,0.008 78.5,-0.051 78.5,0.153 78.5,-0.012 78.5,-0.051 78.5,0.063 78.5,-0.18 78.5,-0.023 78.5,-0.059 78.5,0.07 78.5,0.102 78.5,0.039 78.5,0.23 78.5,0.071 78.5,0.019 78.5,-0.14 h 78.5 l 78.5,-0.02 78.5,0.09" /><path
         id="path148"
         style="fill:none;stroke:#d95319;stroke-width:30;stroke-linecap:butt;stroke-linejoin:round;stroke-miterlimit:10;stroke-dasharray:none;stroke-opacity:1"
         d="m 1320,844.34 78.5,-0.969 78.5,-0.18 78.5,-0.05 78.5,-0.051 78.5,0.012 78.5,-0.039 78.5,0.078 78.5,-0.039 78.5,0.019 78.5,0.238 78.5,-0.027 78.5,0.078 78.5,0.141 78.5,0.129 78.5,0.011 78.5,0.168 78.5,-0.089 78.5,0.039 78.5,0.05 78.5,0.012 78.5,0.117 78.5,0.051 78.5,-0.019 78.5,0.101 78.5,-0.141 78.5,0.18 78.5,-0.039 78.5,-0.031 78.5,-0.129 78.5,0.07 78.5,-0.09 78.5,-0.011 78.5,0.011 78.5,-0.05 78.5,-0.059 78.5,-0.082 h 78.5 l 78.5,0.051 78.5,-0.09 78.5,-0.039 78.5,-0.031 78.5,0.121 78.5,0.109 78.5,0.211 78.5,-0.102 78.5,-0.019 78.5,0.098 78.5,0.082 78.5,0.039 78.5,-0.11 78.5,0.102 78.5,-0.301 78.5,-0.07 78.5,0.07 78.5,-0.082 78.5,0.02 78.5,-0.059 78.5,-0.148 78.5,0.046 78.5,-0.078 78.5,-0.031 78.5,0.031 78.5,-0.121 78.5,0.129 78.5,0.102 78.5,0.07 78.5,0.082 78.5,0.129 78.5,0.121 h 78.5 l 78.5,0.066 78.5,0.165 78.5,-0.051 78.5,-0.02 78.5,0.117 78.5,-0.046 78.5,-0.083 78.5,-0.05 78.5,0.133 78.5,-0.211 78.5,0.027 78.5,-0.008 78.5,-0.051 78.5,-0.121 78.5,-0.058 78.5,-0.172 78.5,0.101 78.5,-0.16 78.5,-0.039 78.5,0.02 78.5,0.109 78.5,0.051 78.5,-0.031 78.5,0.121 78.5,0.05 78.5,0.098 78.5,-0.168 78.5,0.059 78.5,0.109 78.5,-0.008" /><path
         id="path150"
         style="fill:none;stroke:#edb120;stroke-width:30;stroke-linecap:butt;stroke-linejoin:round;stroke-miterlimit:10;stroke-dasharray:none;stroke-opacity:1"
         d="m 1320,844.34 78.5,-1.102 78.5,-0.129 78.5,-0.078 78.5,0.078 78.5,0.032 78.5,0.031 78.5,0.039 78.5,0.019 78.5,0.09 78.5,0.16 78.5,0.098 78.5,0.102 78.5,0.07 78.5,0.082 78.5,0.098 78.5,0.3 78.5,0.11 78.5,0.109 78.5,0.16 78.5,0.063 78.5,0.18 78.5,0.187 78.5,0.113 78.5,0.239 78.5,0.25 78.5,0.398 78.5,0.43 78.5,0.273 78.5,0.258 78.5,0.441 78.5,0.411 78.5,0.457 78.5,0.543 78.5,0.589 78.5,0.598 78.5,0.84 78.5,0.891 78.5,0.91 78.5,1.05 78.5,1.231 78.5,1.25 78.5,1.449 78.5,1.59 78.5,1.852 78.5,2.039 78.5,2.179 78.5,2.36 78.5,2.57 78.5,2.961 78.5,3.309 78.5,3.66 78.5,3.968 78.5,4.602 78.5,4.781 78.5,5.43 78.5,5.898 78.5,6.36 78.5,7.222 78.5,7.879 78.5,8.692 78.5,9.5 78.5,10.547 78.5,11.632 78.5,12.93 78.5,14.039 78.5,15.55 78.5,16.96 78.5,18.74 78.5,20.61 78.5,22.75 78.5,24.93 78.5,27.47 78.5,30.28 78.5,33.46 78.5,36.82 78.5,40.53 78.5,44.56 78.5,49.09 78.5,53.93 78.5,59.49 78.5,65.31 78.5,71.84 78.5,79.12 78.5,87.14 78.5,95.85 78.5,105.56 78.5,116.19 78.5,127.95 78.5,140.78 78.5,155.14 78.5,170.76 78.5,187.96 78.5,207.05 78.5,227.87 78.5,250.8 78.5,276.12 78.5,303.93 78.5,334.7 78.5,368.35" /><path
         id="path152"
         style="fill:#ffffff;fill-opacity:1;fill-rule:nonzero;stroke:none"
         d="M 1730,4520 H 4830 V 5540 H 1730 Z" /><path
         id="path154"
         style="fill:#000000;fill-opacity:1;fill-rule:nonzero;stroke:none"
         d="m 2162.43,5322.46 c 6.14,-7.81 13.83,-13.98 23.05,-18.51 9.22,-4.54 18.83,-6.81 28.83,-6.81 8.33,0 16.04,1.65 23.12,4.94 7.09,3.28 13.31,7.86 18.67,13.75 5.36,5.88 9.45,12.56 12.27,20.06 2.81,7.5 4.22,15.37 4.22,23.61 0,1.35 0.83,2.03 2.5,2.03 h 3.28 c 1.35,0 2.03,-0.84 2.03,-2.5 0,-9.48 -1.8,-18.6 -5.39,-27.34 -3.6,-8.76 -8.7,-16.44 -15.31,-23.05 -6.61,-6.62 -14.2,-11.77 -22.74,-15.47 -8.54,-3.71 -17.5,-5.55 -26.87,-5.55 -12.92,0 -25.14,2.6 -36.64,7.82 -11.52,5.2 -21.57,12.36 -30.16,21.48 -8.59,9.11 -15.29,19.66 -20.08,31.63 -4.79,11.99 -7.18,24.43 -7.18,37.34 0,12.93 2.39,25.35 7.18,37.28 4.79,11.92 11.49,22.47 20.08,31.63 8.59,9.17 18.64,16.31 30.16,21.41 11.5,5.11 23.72,7.66 36.64,7.66 9.27,0 18.12,-1.98 26.56,-5.93 8.44,-3.96 15.83,-9.59 22.19,-16.89 l 15.62,22.04 c 1.04,0.52 1.67,0.78 1.88,0.78 h 2.03 c 0.52,0 0.99,-0.21 1.41,-0.62 0.41,-0.42 0.62,-0.95 0.62,-1.56 v -72.98 c 0,-1.56 -0.68,-2.34 -2.03,-2.34 h -5 c -1.67,0 -2.5,0.78 -2.5,2.34 0,5.21 -1.02,11.02 -3.05,17.43 -2.03,6.4 -4.66,12.5 -7.89,18.28 -3.23,5.78 -6.93,10.85 -11.09,15.22 -10.11,9.91 -21.72,14.86 -34.84,14.86 -9.9,0 -19.41,-2.24 -28.52,-6.72 -9.12,-4.48 -16.8,-10.68 -23.05,-18.59 -6.56,-8.44 -11.12,-18.05 -13.67,-28.83 -2.56,-10.78 -3.83,-22.27 -3.83,-34.47 0,-12.28 1.27,-23.81 3.83,-34.59 2.55,-10.79 7.11,-20.4 13.67,-28.84" /><path
         id="path156"
         style="fill:none;stroke:#0072bd;stroke-width:30;stroke-linecap:butt;stroke-linejoin:round;stroke-miterlimit:10;stroke-dasharray:none;stroke-opacity:1"
         d="M 1770.09,5358.36 H 2070.8" /><path
         id="path158"
         style="fill:#000000;fill-opacity:1;fill-rule:nonzero;stroke:none"
         d="m 2205.87,4959.26 c -17.08,0 -32.44,4.56 -46.09,13.68 -13.65,9.11 -24.35,21.2 -32.11,36.25 -7.76,15.05 -11.64,30.9 -11.64,47.57 0,12.29 2.21,24.46 6.64,36.49 4.42,12.03 10.62,22.7 18.59,32.03 7.96,9.32 17.52,16.69 28.67,22.11 11.14,5.41 23.12,8.12 35.94,8.12 12.81,0 24.82,-2.73 36.02,-8.2 11.19,-5.47 20.8,-12.91 28.82,-22.34 8.02,-9.43 14.17,-19.97 18.44,-31.64 4.27,-11.67 6.41,-23.86 6.41,-36.57 0,-16.67 -3.86,-32.52 -11.56,-47.57 -7.71,-15.05 -18.45,-27.14 -32.19,-36.25 -13.76,-9.12 -29.07,-13.68 -45.94,-13.68 z m -44.69,35 c 5.21,-8.22 11.7,-14.76 19.46,-19.61 7.76,-4.84 16.17,-7.26 25.23,-7.26 5.94,0 11.74,1.17 17.42,3.51 5.68,2.35 10.81,5.58 15.39,9.69 4.59,4.11 8.54,8.67 11.88,13.67 10.73,16.25 16.09,38.49 16.09,66.72 0,25.94 -5.36,46.46 -16.09,61.56 -5.32,7.61 -11.91,13.7 -19.77,18.29 -7.86,4.58 -16.17,6.87 -24.92,6.87 -8.75,0 -17.08,-2.29 -25,-6.87 -7.92,-4.59 -14.48,-10.68 -19.69,-18.29 -4.27,-5.83 -7.57,-12.06 -9.92,-18.67 -2.34,-6.61 -3.98,-13.49 -4.92,-20.62 -0.94,-7.14 -1.41,-14.56 -1.41,-22.27 0,-8.12 0.47,-16.07 1.41,-23.83 0.94,-7.76 2.66,-15.39 5.16,-22.89 2.5,-7.5 5.72,-14.17 9.68,-20" /><path
         id="path160"
         style="fill:#000000;fill-opacity:1;fill-rule:nonzero;stroke:none"
         d="m 2326.03,4961.45 v 62.97 c 0,1.35 0.78,2.03 2.34,2.03 h 3.28 c 0.52,0 1.01,-0.21 1.49,-0.62 0.47,-0.42 0.7,-0.89 0.7,-1.41 0,-17.71 5.47,-31.4 16.41,-41.09 10.93,-9.69 25.25,-14.54 42.96,-14.54 6.25,0 12.03,1.8 17.35,5.4 5.31,3.6 9.42,8.31 12.34,14.14 2.92,5.83 4.38,11.87 4.38,18.12 0,5.42 -1.1,10.71 -3.28,15.86 -2.2,5.15 -5.35,9.64 -9.46,13.44 -4.11,3.8 -8.77,6.33 -13.98,7.58 l -35.16,8.43 c -11.56,3.13 -21.02,9.46 -28.36,18.99 -7.34,9.53 -11.01,20.23 -11.01,32.11 0,9.27 2.37,17.99 7.11,26.17 4.74,8.17 11.15,14.63 19.22,19.37 8.07,4.74 16.73,7.11 26.01,7.11 18.02,0 32.34,-6.09 42.97,-18.28 l 11.09,17.5 c 0.52,0.52 1.14,0.78 1.88,0.78 h 1.87 c 0.52,0 1.02,-0.18 1.49,-0.54 0.46,-0.36 0.7,-0.91 0.7,-1.64 v -62.66 c 0,-1.56 -0.73,-2.34 -2.19,-2.34 h -3.28 c -1.67,0 -2.5,0.78 -2.5,2.34 0,4.58 -0.76,9.61 -2.26,15.08 -1.51,5.47 -3.65,10.7 -6.41,15.7 -2.76,5 -5.71,9.06 -8.83,12.19 -8.65,8.85 -20.16,13.28 -34.53,13.28 -6.15,0 -11.83,-1.56 -17.03,-4.69 -5.21,-3.12 -9.35,-7.37 -12.42,-12.73 -3.08,-5.37 -4.61,-11.02 -4.61,-16.96 0,-7.71 2.39,-14.71 7.19,-21.01 4.79,-6.3 11.09,-10.44 18.9,-12.42 l 35,-8.6 c 5.83,-1.35 11.3,-3.85 16.41,-7.5 5.1,-3.65 9.37,-7.89 12.81,-12.73 3.44,-4.85 6.12,-10.24 8.05,-16.17 1.92,-5.94 2.89,-12.09 2.89,-18.44 0,-9.69 -2.24,-18.88 -6.72,-27.58 -4.48,-8.7 -10.79,-15.68 -18.91,-20.94 -8.12,-5.26 -17.03,-7.89 -26.72,-7.89 -5.94,0 -12.03,0.65 -18.28,1.96 -6.25,1.3 -12,3.33 -17.26,6.09 -5.26,2.76 -10.03,6.28 -14.3,10.55 l -11.41,-17.82 c -0.52,-0.52 -1.2,-0.78 -2.03,-0.78 h -1.56 c -1.56,0 -2.34,0.73 -2.34,2.19" /><path
         id="path162"
         style="fill:none;stroke:#d95319;stroke-width:30;stroke-linecap:butt;stroke-linejoin:round;stroke-miterlimit:10;stroke-dasharray:none;stroke-opacity:1"
         d="M 1770.09,5030 H 2070.8" /><path
         id="path164"
         style="fill:#000000;fill-opacity:1;fill-rule:nonzero;stroke:none"
         d="m 2109.78,4636.84 v 9.54 c 18.54,0 27.81,2.86 27.81,8.59 v 148.28 c 0,5.73 -9.27,8.59 -27.81,8.59 v 9.38 h 96.09 c 9.89,0 19.76,-2 29.61,-6.02 9.84,-4.01 17.95,-9.9 24.3,-17.66 6.35,-7.75 9.53,-16.74 9.53,-26.95 0,-10.1 -3.2,-18.93 -9.61,-26.48 -6.41,-7.55 -14.48,-13.28 -24.22,-17.18 -9.74,-3.91 -19.61,-5.87 -29.61,-5.87 h -43.12 v -66.09 c 0,-5.73 9.27,-8.59 27.81,-8.59 v -9.54 z m 52.18,92.34 h 36.57 c 10,0 18.07,1.41 24.22,4.22 6.14,2.82 10.64,7.24 13.51,13.28 2.87,6.05 4.3,14.02 4.3,23.91 0,14.59 -3.23,25.11 -9.69,31.56 -6.46,6.46 -17.24,9.69 -32.34,9.69 h -22.97 c -3.24,0 -5.74,-0.13 -7.5,-0.39 -1.77,-0.25 -3.24,-1.04 -4.38,-2.34 -1.15,-1.3 -1.72,-3.25 -1.72,-5.86 v -74.07" /><path
         id="path166"
         style="fill:#000000;fill-opacity:1;fill-rule:nonzero;stroke:none"
         d="m 2294.15,4636.84 v 9.54 c 18.54,0 27.81,5.31 27.81,15.93 v 140.94 c 0,5.73 -9.27,8.59 -27.81,8.59 v 9.38 h 50.94 c 2.18,0 3.64,-0.99 4.37,-2.97 l 58.75,-152.82 58.91,152.82 c 0.72,1.98 2.18,2.97 4.38,2.97 h 50.93 v -9.38 c -18.54,0 -27.81,-2.86 -27.81,-8.59 v -148.28 c 0,-5.73 9.27,-8.59 27.81,-8.59 v -9.54 h -78.59 v 9.54 c 18.54,0 27.81,2.86 27.81,8.59 V 4812 l -66.4,-172.19 c -0.84,-1.97 -2.35,-2.97 -4.54,-2.97 -2.29,0 -3.8,1 -4.53,2.97 l -65.62,170.16 v -147.66 c 0,-10.62 9.27,-15.93 27.81,-15.93 v -9.54 h -64.22" /><path
         id="path168"
         style="fill:#000000;fill-opacity:1;fill-rule:nonzero;stroke:none"
         d="m 2540.4,4636.84 v 9.54 c 18.54,0 27.81,2.86 27.81,8.59 v 148.28 c 0,5.73 -9.27,8.59 -27.81,8.59 v 9.38 h 80.78 v -9.38 c -18.54,0 -27.81,-2.86 -27.81,-8.59 v -65.62 h 79.69 v 65.62 c 0,5.73 -9.27,8.59 -27.81,8.59 v 9.38 h 80.62 v -9.38 c -18.44,0 -27.66,-2.86 -27.66,-8.59 v -148.28 c 0,-5.73 9.22,-8.59 27.66,-8.59 v -9.54 h -80.62 v 9.54 c 18.54,0 27.81,2.86 27.81,8.59 v 73.12 h -79.69 v -73.12 c 0,-5.73 9.27,-8.59 27.81,-8.59 v -9.54 h -80.78" /><path
         id="path170"
         style="fill:#000000;fill-opacity:1;fill-rule:nonzero;stroke:none"
         d="m 2742.9,4636.84 v 9.54 c 18.55,0 27.82,2.86 27.82,8.59 v 148.28 c 0,5.73 -9.27,8.59 -27.82,8.59 v 9.38 h 152.66 l 7.5,-61.72 h -7.66 c -1.98,15.52 -4.72,26.8 -8.2,33.84 -3.49,7.02 -9.04,11.86 -16.64,14.52 -7.61,2.66 -19.07,3.98 -34.38,3.98 h -26.56 c -3.23,0 -5.76,-0.13 -7.58,-0.39 -1.82,-0.25 -3.31,-1.04 -4.45,-2.34 -1.15,-1.3 -1.72,-3.25 -1.72,-5.86 v -65.94 h 20 c 9.17,0 15.99,0.76 20.47,2.28 4.48,1.5 7.58,4.44 9.3,8.81 1.72,4.39 2.58,11.21 2.58,20.48 h 7.96 v -72.5 h -7.96 c 0,9.06 -0.86,15.81 -2.58,20.23 -1.72,4.43 -4.82,7.4 -9.3,8.91 -4.48,1.51 -11.3,2.27 -20.47,2.27 h -20 v -72.82 c 0,-3.95 1.12,-6.38 3.36,-7.27 2.24,-0.88 5.7,-1.32 10.39,-1.32 h 28.6 c 12.5,0 22.6,0.98 30.31,2.96 7.7,1.98 13.69,5.27 17.97,9.84 4.27,4.59 7.54,10.56 9.84,17.91 2.29,7.34 4.48,17.52 6.56,30.54 h 7.66 l -11.25,-70.79 H 2742.9" /><path
         id="path172"
         style="fill:#000000;fill-opacity:1;fill-rule:nonzero;stroke:none"
         d="m 2943.37,4636.84 v 9.54 c 22.5,0 33.75,2.86 33.75,8.59 v 141.71 c -9.27,-4.47 -21.04,-6.71 -35.31,-6.71 v 9.37 c 22.08,0 38.74,5.79 50,17.34 h 3.75 c 0.62,0 1.23,-0.23 1.8,-0.7 0.57,-0.46 0.86,-1.01 0.86,-1.64 v -159.37 c 0,-5.73 11.25,-8.59 33.75,-8.59 v -9.54 h -88.6" /><path
         id="path174"
         style="fill:#000000;fill-opacity:1;fill-rule:nonzero;stroke:none"
         d="m 3227.12,4569.81 c -10,7.92 -18.65,17.01 -25.94,27.28 -7.29,10.25 -13.23,21.19 -17.81,32.8 -4.58,11.62 -8.02,23.75 -10.31,36.4 -2.29,12.66 -3.44,25.35 -3.44,38.05 0,12.93 1.15,25.71 3.44,38.36 2.29,12.66 5.78,24.82 10.47,36.48 4.68,11.67 10.67,22.61 17.97,32.82 7.29,10.21 15.82,19.17 25.62,26.88 0,0.31 0.42,0.46 1.25,0.46 h 2.5 c 0.52,0 1.01,-0.23 1.49,-0.7 0.46,-0.47 0.7,-1.01 0.7,-1.64 0,-0.83 -0.21,-1.4 -0.63,-1.71 -8.75,-8.65 -16.04,-17.9 -21.87,-27.75 -5.84,-9.84 -10.55,-20.3 -14.14,-31.4 -3.6,-11.09 -6.18,-22.6 -7.74,-34.53 -1.56,-11.92 -2.34,-24.34 -2.34,-37.27 0,-57.18 15.31,-100.62 45.94,-130.3 0.52,-0.63 0.78,-1.41 0.78,-2.36 0,-0.41 -0.26,-0.9 -0.78,-1.48 -0.52,-0.57 -0.99,-0.86 -1.41,-0.86 h -2.5 c -0.83,0 -1.25,0.16 -1.25,0.47" /><path
         id="path176"
         style="fill:#000000;fill-opacity:1;fill-rule:nonzero;stroke:none"
         d="M 3296.5,4633.88 3284,4805.9 c -0.63,2.61 -2.61,4.26 -5.94,4.94 -3.34,0.67 -7.45,1 -12.34,1 -1.77,0 -2.66,1.15 -2.66,3.45 0.62,2.29 1.09,3.85 1.41,4.68 0.31,0.84 1.3,1.25 2.97,1.25 h 64.37 c 1.77,0 2.66,-1.14 2.66,-3.43 -0.74,-3.97 -1.88,-5.95 -3.44,-5.95 -14.38,0 -22.03,-2.5 -22.97,-7.5 l 9.69,-136.41 67.5,117.66 -1.41,20.31 c -0.63,2.61 -2.61,4.26 -5.94,4.94 -3.34,0.67 -7.45,1 -12.34,1 -1.88,0 -2.81,1.15 -2.81,3.45 0.63,2.29 1.12,3.85 1.48,4.68 0.36,0.84 1.43,1.25 3.21,1.25 h 64.37 c 1.77,0 2.66,-1.14 2.66,-3.43 -0.11,-0.52 -0.29,-1.31 -0.55,-2.36 -0.26,-1.04 -0.63,-1.89 -1.09,-2.57 -0.47,-0.68 -1.13,-1.02 -1.96,-1.02 -14.48,0 -22.14,-2.5 -22.97,-7.5 v -2.03 l 9.69,-134.38 73.44,128.13 c 1.04,1.98 1.56,3.91 1.56,5.78 0,3.65 -1.8,6.23 -5.39,7.75 -3.59,1.5 -7.63,2.25 -12.11,2.25 -1.78,0 -2.66,1.15 -2.66,3.45 0.42,1.46 0.73,2.57 0.94,3.35 0.2,0.79 0.59,1.41 1.17,1.88 0.57,0.47 1.43,0.7 2.58,0.7 h 51.56 c 1.77,0 2.66,-1.14 2.66,-3.43 -0.11,-0.52 -0.29,-1.33 -0.55,-2.43 -0.26,-1.09 -0.63,-1.95 -1.09,-2.57 -0.47,-0.63 -1.07,-0.95 -1.8,-0.95 -12.81,0 -22.61,-5.88 -29.37,-17.66 -0.52,-0.52 -0.78,-0.78 -0.78,-0.78 l -91.41,-159.52 c -0.94,-1.99 -2.5,-2.98 -4.69,-2.98 h -2.03 c -2.19,0 -3.28,0.99 -3.28,2.98 l -10.31,139.05 -79.38,-139.05 c -1.36,-1.99 -2.92,-2.98 -4.68,-2.98 h -2.35 c -2.08,0 -3.12,0.99 -3.12,2.98" /><path
         id="path178"
         style="fill:#000000;fill-opacity:1;fill-rule:nonzero;stroke:none"
         d="m 3509.62,4596.34 v 6.72 c 13.12,0 19.69,1.98 19.69,5.94 v 104.38 c 0,4.06 -6.57,6.09 -19.69,6.09 v 6.73 h 67.66 c 6.98,0 13.93,-1.44 20.86,-4.31 6.92,-2.86 12.63,-7 17.11,-12.42 4.48,-5.42 6.72,-11.77 6.72,-19.07 0,-7.08 -2.27,-13.27 -6.8,-18.59 -4.54,-5.31 -10.24,-9.35 -17.11,-12.11 -6.88,-2.75 -13.8,-4.14 -20.78,-4.14 h -30.47 V 4609 c 0,-3.96 6.56,-5.94 19.69,-5.94 v -6.72 z m 36.72,65 h 25.78 c 6.98,0 12.63,1 16.96,2.97 4.32,1.98 7.49,5.11 9.53,9.39 2.02,4.26 3.04,9.83 3.04,16.7 0,10.32 -2.27,17.74 -6.79,22.28 -4.54,4.53 -12.12,6.79 -22.74,6.79 h -16.09 c -2.3,0 -4.09,-0.1 -5.39,-0.32 -1.31,-0.2 -2.35,-0.75 -3.13,-1.63 -0.78,-0.89 -1.17,-2.27 -1.17,-4.14 v -52.04" /><path
         id="path180"
         style="fill:#000000;fill-opacity:1;fill-rule:nonzero;stroke:none"
         d="m 3638.72,4596.34 v 6.72 c 13.02,0 19.53,3.75 19.53,11.25 v 99.07 c 0,4.06 -6.51,6.09 -19.53,6.09 v 6.73 h 35.93 c 1.46,0 2.45,-0.74 2.97,-2.2 l 41.41,-107.5 41.41,107.5 c 0.52,1.46 1.51,2.2 2.96,2.2 h 35.94 v -6.73 c -13.02,0 -19.53,-2.03 -19.53,-6.09 V 4609 c 0,-3.96 6.51,-5.94 19.53,-5.94 v -6.72 h -55.31 v 6.72 c 13.12,0 19.69,1.98 19.69,5.94 v 110.63 l -46.88,-121.09 c -0.52,-1.47 -1.56,-2.2 -3.12,-2.2 -1.57,0 -2.66,0.73 -3.28,2.2 l -46.1,119.68 v -103.91 c 0,-7.5 6.51,-11.25 19.53,-11.25 v -6.72 h -45.15" /><path
         id="path182"
         style="fill:#000000;fill-opacity:1;fill-rule:nonzero;stroke:none"
         d="m 3811.03,4596.34 v 6.72 c 13.12,0 19.69,1.98 19.69,5.94 v 104.38 c 0,4.06 -6.57,6.09 -19.69,6.09 v 6.73 h 56.87 v -6.73 c -13.02,0 -19.53,-2.03 -19.53,-6.09 v -46.09 h 56.1 v 46.09 c 0,4.06 -6.57,6.09 -19.69,6.09 v 6.73 h 56.87 v -6.73 c -13.02,0 -19.53,-2.03 -19.53,-6.09 V 4609 c 0,-3.96 6.51,-5.94 19.53,-5.94 v -6.72 h -56.87 v 6.72 c 13.12,0 19.69,1.98 19.69,5.94 v 51.56 h -56.1 V 4609 c 0,-3.96 6.51,-5.94 19.53,-5.94 v -6.72 h -56.87" /><path
         id="path184"
         style="fill:#000000;fill-opacity:1;fill-rule:nonzero;stroke:none"
         d="m 3952.78,4596.34 v 6.72 c 13.12,0 19.69,1.98 19.69,5.94 v 104.38 c 0,4.06 -6.57,6.09 -19.69,6.09 v 6.73 h 107.5 l 5.31,-43.61 h -5.47 c -1.35,10.95 -3.26,18.89 -5.7,23.84 -2.45,4.94 -6.36,8.35 -11.72,10.22 -5.37,1.89 -13.47,2.82 -24.3,2.82 h -18.59 c -2.29,0 -4.07,-0.1 -5.31,-0.32 -1.26,-0.2 -2.3,-0.75 -3.13,-1.63 -0.83,-0.89 -1.25,-2.27 -1.25,-4.14 v -46.41 h 14.07 c 6.45,0 11.27,0.55 14.45,1.64 3.17,1.1 5.36,3.18 6.56,6.25 1.2,3.08 1.8,7.84 1.8,14.29 h 5.47 v -50.93 H 4027 c 0,6.46 -0.6,11.22 -1.8,14.3 -1.2,3.07 -3.39,5.15 -6.56,6.25 -3.18,1.09 -8,1.63 -14.45,1.63 h -14.07 V 4609 c 0,-2.7 0.78,-4.37 2.35,-5 1.56,-0.62 4,-0.94 7.34,-0.94 h 20.16 c 8.74,0 15.83,0.68 21.25,2.03 5.41,1.36 9.63,3.68 12.65,6.95 3.02,3.29 5.34,7.51 6.96,12.66 1.61,5.16 3.15,12.33 4.61,21.5 h 5.46 l -7.96,-49.86 h -110.16" /><path
         id="path186"
         style="fill:#000000;fill-opacity:1;fill-rule:nonzero;stroke:none"
         d="m 4093.28,4596.34 v 6.72 c 15.83,0 23.75,1.98 23.75,5.94 v 99.84 c -6.56,-3.22 -14.84,-4.84 -24.84,-4.84 v 6.72 c 15.52,0 27.24,4.07 35.15,12.18 h 2.66 c 0.41,0 0.83,-0.18 1.25,-0.54 0.41,-0.36 0.62,-0.75 0.62,-1.16 V 4609 c 0,-3.96 7.92,-5.94 23.75,-5.94 v -6.72 h -62.34" /><path
         id="path188"
         style="fill:#000000;fill-opacity:1;fill-rule:nonzero;stroke:none"
         d="m 4278.93,4672.79 c -1.46,0 -2.68,0.54 -3.67,1.64 -0.99,1.09 -1.48,2.31 -1.48,3.66 0,1.46 0.49,2.74 1.48,3.84 0.99,1.09 2.21,1.63 3.67,1.63 h 169.54 c 1.35,0 2.49,-0.54 3.43,-1.63 0.94,-1.1 1.41,-2.38 1.41,-3.84 0,-1.35 -0.47,-2.57 -1.41,-3.66 -0.94,-1.1 -2.08,-1.64 -3.43,-1.64 z m 0,52.34 c -1.46,0 -2.68,0.54 -3.67,1.64 -0.99,1.09 -1.48,2.36 -1.48,3.82 0,1.36 0.49,2.61 1.48,3.75 0.99,1.15 2.21,1.72 3.67,1.72 h 169.54 c 1.35,0 2.49,-0.57 3.43,-1.72 0.94,-1.14 1.41,-2.39 1.41,-3.75 0,-1.46 -0.47,-2.73 -1.41,-3.82 -0.94,-1.1 -2.08,-1.64 -3.43,-1.64 h -169.54" /><path
         id="path190"
         style="fill:#000000;fill-opacity:1;fill-rule:nonzero;stroke:none"
         d="m 4567.06,4667.63 c 1.87,-5.32 4.71,-10.13 8.51,-14.45 3.81,-4.33 8.34,-7.69 13.6,-10.09 5.26,-2.39 10.7,-3.59 16.33,-3.59 13.02,0 21.97,5.05 26.87,15.15 4.89,10.11 7.34,22.35 7.34,36.73 0,6.25 -0.1,11.51 -0.31,15.77 -0.21,4.28 -0.78,8.39 -1.72,12.35 -1.67,6.36 -4.61,11.9 -8.83,16.64 -4.22,4.74 -9.35,7.11 -15.39,7.11 -6.04,0 -11.25,-0.94 -15.62,-2.82 -4.38,-1.87 -7.92,-4.03 -10.63,-6.48 -2.71,-2.44 -5.1,-5.02 -7.18,-7.73 -2.09,-2.71 -3.39,-4.17 -3.91,-4.38 H 4573 c -0.42,0 -0.97,0.29 -1.65,0.86 -0.67,0.58 -1.01,1.12 -1.01,1.64 v 90.16 c 0,0.52 0.29,1.02 0.86,1.48 0.57,0.47 1.17,0.7 1.8,0.7 h 0.78 c 12.18,-5.83 25.05,-8.75 38.59,-8.75 13.44,0 26.35,2.92 38.75,8.75 h 0.78 c 0.62,0 1.2,-0.23 1.72,-0.7 0.52,-0.46 0.78,-0.96 0.78,-1.48 v -2.5 c 0,-0.83 -0.21,-1.25 -0.62,-1.25 -6.15,-8.23 -13.86,-14.61 -23.13,-19.14 -9.27,-4.53 -18.85,-6.8 -28.75,-6.8 -7.19,0 -14.59,0.99 -22.19,2.98 v -50.95 c 6.04,4.8 11.41,8.23 16.1,10.31 4.69,2.09 10.67,3.14 17.97,3.14 9.89,0 18.77,-2.87 26.64,-8.61 7.86,-5.72 13.9,-13.17 18.12,-22.34 4.22,-9.16 6.33,-18.54 6.33,-28.12 0,-10.83 -2.66,-20.86 -7.97,-30.08 -5.31,-9.21 -12.53,-16.56 -21.64,-22.03 -9.12,-5.47 -19.04,-8.21 -29.76,-8.21 -8.86,0 -17.02,2.3 -24.46,6.89 -7.45,4.57 -13.31,10.72 -17.58,18.43 -4.27,7.71 -6.4,15.94 -6.4,24.68 0,4.07 1.32,7.38 3.98,9.94 2.66,2.54 5.96,3.81 9.92,3.81 3.96,0 7.27,-1.29 9.93,-3.9 2.65,-2.6 3.98,-5.89 3.98,-9.85 0,-3.85 -1.33,-7.13 -3.98,-9.84 -2.66,-2.7 -5.97,-4.06 -9.93,-4.06 -0.62,0 -1.33,0.08 -2.11,0.23 -0.78,0.16 -1.38,0.29 -1.79,0.4" /><path
         id="path192"
         style="fill:#000000;fill-opacity:1;fill-rule:nonzero;stroke:none"
         d="m 4696.12,4569.34 c -1.56,0 -2.34,0.79 -2.34,2.34 0,0.84 0.15,1.41 0.47,1.72 30.83,30.11 46.25,73.76 46.25,130.94 0,57.19 -15.21,100.63 -45.63,130.31 -0.73,0.53 -1.09,1.31 -1.09,2.35 0,0.63 0.23,1.17 0.7,1.64 0.47,0.47 1.01,0.7 1.64,0.7 h 2.5 c 0.52,0 0.99,-0.15 1.41,-0.46 12.91,-10.21 23.67,-22.61 32.26,-37.2 8.59,-14.57 14.89,-30.14 18.91,-46.71 4,-16.56 6.01,-33.44 6.01,-50.63 0,-12.7 -1.07,-25.23 -3.2,-37.57 -2.13,-12.34 -5.57,-24.53 -10.31,-36.57 -4.74,-12.03 -10.71,-23.12 -17.89,-33.27 -7.19,-10.16 -15.78,-19.2 -25.78,-27.12 -0.42,-0.31 -0.89,-0.47 -1.41,-0.47 h -2.5" /><path
         id="path194"
         style="fill:none;stroke:#edb120;stroke-width:30;stroke-linecap:butt;stroke-linejoin:round;stroke-miterlimit:10;stroke-dasharray:none;stroke-opacity:1"
         d="M 1770.09,4701.64 H 2070.8" /><path
         id="path196"
         style="fill:none;stroke:#262626;stroke-width:5;stroke-linecap:butt;stroke-linejoin:miter;stroke-miterlimit:10;stroke-dasharray:none;stroke-opacity:1"
         d="M 1730,4520 H 4830 V 5540 H 1730 Z" /></g></g></svg>