<?xml version="1.0" encoding="UTF-8" standalone="no"?>
<!-- Created with Inkscape (http://www.inkscape.org/) -->

<svg
   version="1.1"
   id="svg2"
   xml:space="preserve"
   width="1044"
   height="648"
   viewBox="0 0 1044 648"
   sodipodi:docname="mhemfh_small_net_mc.eps"
   xmlns:inkscape="http://www.inkscape.org/namespaces/inkscape"
   xmlns:sodipodi="http://sodipodi.sourceforge.net/DTD/sodipodi-0.dtd"
   xmlns="http://www.w3.org/2000/svg"
   xmlns:svg="http://www.w3.org/2000/svg"><defs
     id="defs6" /><sodipodi:namedview
     id="namedview4"
     pagecolor="#ffffff"
     bordercolor="#666666"
     borderopacity="1.0"
     inkscape:pageshadow="2"
     inkscape:pageopacity="0.0"
     inkscape:pagecheckerboard="0" /><g
     id="g8"
     inkscape:groupmode="layer"
     inkscape:label="ink_ext_XXXXXX"
     transform="matrix(1.3333333,0,0,-1.3333333,0,648)"><g
       id="g10"
       transform="scale(0.1)"><path
         d="M 0,0 H 7830 V 4860 H 0 Z"
         style="fill:#ffffff;fill-opacity:1;fill-rule:nonzero;stroke:none"
         id="path12" /><path
         d="M 0,0 H 7830 V 4860 H 0 Z"
         style="fill:#ffffff;fill-opacity:1;fill-rule:nonzero;stroke:none"
         id="path14" /><path
         d="M 1020,850 H 7090 V 4500 H 1020 Z"
         style="fill:#ffffff;fill-opacity:1;fill-rule:nonzero;stroke:none"
         id="path16" /><path
         d="M 1020,850 V 4500"
         style="fill:none;stroke:#dfdfdf;stroke-width:5;stroke-linecap:butt;stroke-linejoin:round;stroke-miterlimit:10;stroke-dasharray:none;stroke-opacity:1"
         id="path18" /><path
         d="M 2234,850 V 4500"
         style="fill:none;stroke:#dfdfdf;stroke-width:5;stroke-linecap:butt;stroke-linejoin:round;stroke-miterlimit:10;stroke-dasharray:none;stroke-opacity:1"
         id="path20" /><path
         d="M 3448,850 V 4500"
         style="fill:none;stroke:#dfdfdf;stroke-width:5;stroke-linecap:butt;stroke-linejoin:round;stroke-miterlimit:10;stroke-dasharray:none;stroke-opacity:1"
         id="path22" /><path
         d="M 4662,850 V 4500"
         style="fill:none;stroke:#dfdfdf;stroke-width:5;stroke-linecap:butt;stroke-linejoin:round;stroke-miterlimit:10;stroke-dasharray:none;stroke-opacity:1"
         id="path24" /><path
         d="M 5876,850 V 4500"
         style="fill:none;stroke:#dfdfdf;stroke-width:5;stroke-linecap:butt;stroke-linejoin:round;stroke-miterlimit:10;stroke-dasharray:none;stroke-opacity:1"
         id="path26" /><path
         d="M 7090,850 V 4500"
         style="fill:none;stroke:#dfdfdf;stroke-width:5;stroke-linecap:butt;stroke-linejoin:round;stroke-miterlimit:10;stroke-dasharray:none;stroke-opacity:1"
         id="path28" /><path
         d="M 7090,850 H 1020"
         style="fill:none;stroke:#dfdfdf;stroke-width:5;stroke-linecap:butt;stroke-linejoin:round;stroke-miterlimit:10;stroke-dasharray:none;stroke-opacity:1"
         id="path30" /><path
         d="M 7090,2066.67 H 1020"
         style="fill:none;stroke:#dfdfdf;stroke-width:5;stroke-linecap:butt;stroke-linejoin:round;stroke-miterlimit:10;stroke-dasharray:none;stroke-opacity:1"
         id="path32" /><path
         d="M 7090,3283.33 H 1020"
         style="fill:none;stroke:#dfdfdf;stroke-width:5;stroke-linecap:butt;stroke-linejoin:round;stroke-miterlimit:10;stroke-dasharray:none;stroke-opacity:1"
         id="path34" /><path
         d="M 7090,4500 H 1020"
         style="fill:none;stroke:#dfdfdf;stroke-width:5;stroke-linecap:butt;stroke-linejoin:round;stroke-miterlimit:10;stroke-dasharray:none;stroke-opacity:1"
         id="path36" /><path
         d="M 1020,850 H 7090"
         style="fill:none;stroke:#262626;stroke-width:5;stroke-linecap:square;stroke-linejoin:round;stroke-miterlimit:10;stroke-dasharray:none;stroke-opacity:1"
         id="path38" /><path
         d="m 1020,850 v 60.699"
         style="fill:none;stroke:#262626;stroke-width:5;stroke-linecap:square;stroke-linejoin:round;stroke-miterlimit:10;stroke-dasharray:none;stroke-opacity:1"
         id="path40" /><path
         d="m 2234,850 v 60.699"
         style="fill:none;stroke:#262626;stroke-width:5;stroke-linecap:square;stroke-linejoin:round;stroke-miterlimit:10;stroke-dasharray:none;stroke-opacity:1"
         id="path42" /><path
         d="m 3448,850 v 60.699"
         style="fill:none;stroke:#262626;stroke-width:5;stroke-linecap:square;stroke-linejoin:round;stroke-miterlimit:10;stroke-dasharray:none;stroke-opacity:1"
         id="path44" /><path
         d="m 4662,850 v 60.699"
         style="fill:none;stroke:#262626;stroke-width:5;stroke-linecap:square;stroke-linejoin:round;stroke-miterlimit:10;stroke-dasharray:none;stroke-opacity:1"
         id="path46" /><path
         d="m 5876,850 v 60.699"
         style="fill:none;stroke:#262626;stroke-width:5;stroke-linecap:square;stroke-linejoin:round;stroke-miterlimit:10;stroke-dasharray:none;stroke-opacity:1"
         id="path48" /><path
         d="m 7090,850 v 60.699"
         style="fill:none;stroke:#262626;stroke-width:5;stroke-linecap:square;stroke-linejoin:round;stroke-miterlimit:10;stroke-dasharray:none;stroke-opacity:1"
         id="path50" /><g
         id="g52"
         transform="scale(10)"><text
           transform="matrix(1,0,0,-1,92,49)"
           style="font-variant:normal;font-weight:normal;font-size:30px;font-family:Helvetica;-inkscape-font-specification:Helvetica;writing-mode:lr-tb;fill:#262626;fill-opacity:1;fill-rule:nonzero;stroke:none"
           id="text56"><tspan
             x="0 111.9 128.58 233.30009 249.9801 354.7002 371.38019 476.10031 492.7803 588.00031 604.6803 621.36029"
             y="0"
             sodipodi:role="line"
             id="tspan54">020406080100</tspan></text></g><path
         d="m 3981.41,124.738 c 0,1.356 0.11,2.344 0.31,2.973 l 47.97,190.777 c 0.84,3.75 1.36,6.664 1.56,8.75 0,3.543 -7.13,5.313 -21.41,5.313 -2.29,0 -3.43,1.461 -3.43,4.379 0.1,0.519 0.36,1.484 0.78,2.89 0.42,1.407 0.91,2.5 1.48,3.282 0.58,0.777 1.38,1.168 2.42,1.168 l 44.54,3.441 h 0.93 c 0,-0.215 0.37,-0.5 1.1,-0.859 0.73,-0.368 1.14,-0.606 1.25,-0.711 0.52,-1.039 0.78,-1.875 0.78,-2.5 L 4025,205.68 c 7.92,3.332 17.92,11.25 30,23.75 12.08,12.5 21.54,21.484 28.36,26.949 6.82,5.469 15.39,8.199 25.7,8.203 6.15,0 11.36,-2.086 15.63,-6.25 4.27,-4.168 6.4,-9.324 6.4,-15.473 0,-3.851 -0.78,-7.418 -2.34,-10.699 -1.56,-3.281 -3.8,-5.937 -6.72,-7.969 -2.91,-2.035 -6.3,-3.05 -10.15,-3.05 -3.55,0 -6.54,1.097 -8.99,3.289 -2.44,2.187 -3.67,5.05 -3.67,8.59 0,5.312 1.85,9.765 5.55,13.359 3.69,3.594 8.2,5.391 13.51,5.391 -2.18,2.914 -5.46,4.371 -9.84,4.371 -6.56,0 -12.87,-1.903 -18.91,-5.7 -6.04,-3.8 -12.57,-9.218 -19.61,-16.25 -7.03,-7.035 -13.46,-13.468 -19.29,-19.3 -5.84,-5.832 -11.2,-10.262 -16.1,-13.282 12.92,-1.453 24.17,-4.836 33.75,-10.148 9.59,-5.313 14.38,-13.492 14.38,-24.531 0,-2.192 -0.41,-5.008 -1.25,-8.442 -1.98,-8.332 -2.97,-14.949 -2.97,-19.847 0,-9.895 3.39,-14.84 10.15,-14.84 8.02,0 14.09,4.347 18.21,13.051 4.12,8.691 7.53,18.82 10.23,30.386 0.42,1.356 1.31,2.032 2.66,2.032 h 3.9 c 0.84,0 1.57,-0.286 2.19,-0.86 0.63,-0.574 0.94,-1.277 0.94,-2.109 0,-0.207 -0.1,-0.52 -0.31,-0.942 -8.33,-33.539 -21.14,-50.308 -38.44,-50.308 -6.25,0 -11.77,1.461 -16.56,4.379 -4.79,2.914 -8.46,6.871 -11.02,11.871 -2.55,5 -3.83,10.625 -3.83,16.879 0,3.539 0.47,7.183 1.41,10.929 0.63,2.606 0.94,5.004 0.94,7.192 0,8.539 -3.75,15 -11.25,19.379 -7.5,4.375 -16.09,7.082 -25.78,8.121 l -16.72,-67.5 c -0.83,-3.227 -2.5,-5.91 -5,-8.051 -2.5,-2.133 -5.36,-3.199 -8.6,-3.199 -2.7,0 -5.07,0.937 -7.11,2.808 -2.02,1.879 -3.04,4.176 -3.04,6.879"
         style="fill:#262626;fill-opacity:1;fill-rule:nonzero;stroke:none"
         id="path58" /><path
         d="M 1020,850 V 4500"
         style="fill:none;stroke:#262626;stroke-width:5;stroke-linecap:square;stroke-linejoin:round;stroke-miterlimit:10;stroke-dasharray:none;stroke-opacity:1"
         id="path60" /><path
         d="m 1020,850 h 60.7"
         style="fill:none;stroke:#262626;stroke-width:5;stroke-linecap:square;stroke-linejoin:round;stroke-miterlimit:10;stroke-dasharray:none;stroke-opacity:1"
         id="path62" /><path
         d="m 1020,2066.67 h 60.7"
         style="fill:none;stroke:#262626;stroke-width:5;stroke-linecap:square;stroke-linejoin:round;stroke-miterlimit:10;stroke-dasharray:none;stroke-opacity:1"
         id="path64" /><path
         d="m 1020,3283.33 h 60.7"
         style="fill:none;stroke:#262626;stroke-width:5;stroke-linecap:square;stroke-linejoin:round;stroke-miterlimit:10;stroke-dasharray:none;stroke-opacity:1"
         id="path66" /><path
         d="m 1020,4500 h 60.7"
         style="fill:none;stroke:#262626;stroke-width:5;stroke-linecap:square;stroke-linejoin:round;stroke-miterlimit:10;stroke-dasharray:none;stroke-opacity:1"
         id="path68" /><g
         id="g70"
         transform="scale(10)"><text
           transform="matrix(1,0,0,-1,74,75)"
           style="font-variant:normal;font-weight:normal;font-size:30px;font-family:Helvetica;-inkscape-font-specification:Helvetica;writing-mode:lr-tb;fill:#262626;fill-opacity:1;fill-rule:nonzero;stroke:none"
           id="text80"><tspan
             x="0"
             y="0"
             id="tspan72">0</tspan><tspan
             x="-19 -2.3199999"
             y="-121.667"
             sodipodi:role="line"
             id="tspan74">20</tspan><tspan
             x="-19 -2.3199999"
             y="-243.33299"
             sodipodi:role="line"
             id="tspan76">40</tspan><tspan
             x="-19 -2.3199999"
             y="-365"
             sodipodi:role="line"
             id="tspan78">60</tspan></text></g><path
         d="M 361.512,2124.38 H 270.57 v -27.5 h -8.59 c 0,14.37 -6.718,24.94 -20.16,31.71 -13.433,6.77 -27.965,10.16 -43.59,10.16 v 9.53 h 60.629 v 46.56 h 11.711 v -46.56 h 90.321 c 9.168,0 17.187,1.54 24.058,4.61 6.875,3.07 10.313,8.57 10.313,16.49 0,7.5 -3.621,12.92 -10.864,16.25 -7.238,3.33 -15.074,5 -23.507,5 h -19.532 v 9.53 h 20.153 c 6.871,0 13.668,-1.25 20.386,-3.75 6.723,-2.5 12.243,-6.23 16.563,-11.18 4.324,-4.94 6.488,-10.96 6.488,-18.04 0,-13.23 -3.961,-23.67 -11.879,-31.33 -7.914,-7.65 -18.433,-11.48 -31.558,-11.48"
         style="fill:#262626;fill-opacity:1;fill-rule:nonzero;stroke:none"
         id="path82" /><path
         d="m 401.199,2227.55 h -11.558 c 0,7.5 -0.602,13.68 -1.801,18.52 -1.199,4.84 -4.09,7.26 -8.668,7.26 h -90.16 c -5.836,0 -10.078,-0.88 -12.731,-2.65 -2.66,-1.77 -4.277,-4.32 -4.851,-7.66 -0.575,-3.33 -0.86,-8.49 -0.86,-15.47 h -11.711 l -3.437,47.19 h 32.187 c -9.586,3.54 -17.347,8.6 -23.289,15.16 -5.933,6.56 -8.898,14.48 -8.898,23.75 0,6.56 1.926,12.42 5.777,17.57 3.856,5.16 8.957,7.74 15.313,7.74 3.957,0 7.422,-1.41 10.386,-4.22 2.977,-2.81 4.461,-6.35 4.461,-10.62 0,-4.07 -1.461,-7.53 -4.379,-10.4 -2.914,-2.86 -6.402,-4.29 -10.468,-4.29 -5.934,0 -10.153,2.09 -12.653,6.25 v -2.03 c 0,-8.85 3.227,-16.09 9.68,-21.72 6.461,-5.63 14.484,-9.63 24.07,-12.03 9.582,-2.4 18.696,-3.6 27.34,-3.6 h 54.223 c 6.976,0 10.469,10.68 10.469,32.03 h 11.558 v -80.78"
         style="fill:#262626;fill-opacity:1;fill-rule:nonzero;stroke:none"
         id="path84" /><path
         d="m 483.07,2450.55 c -9.687,-12.28 -20.781,-22.86 -33.281,-31.72 -12.5,-8.85 -25.832,-16.09 -40,-21.71 -14.164,-5.62 -28.98,-9.85 -44.449,-12.66 -15.465,-2.81 -31.012,-4.22 -46.641,-4.22 -15.832,0 -31.484,1.41 -46.949,4.22 -15.473,2.81 -30.344,7.09 -44.609,12.81 -14.274,5.73 -27.633,13.05 -40.082,21.95 -12.446,8.91 -23.36,19.35 -32.739,31.33 -0.414,0 -0.621,0.52 -0.621,1.57 v 3.12 c 0,0.63 0.289,1.2 0.86,1.72 0.574,0.52 1.277,0.78 2.113,0.78 0.93,0 1.609,-0.2 2.027,-0.62 10.52,-10.73 21.797,-19.67 33.832,-26.8 12.028,-7.13 24.836,-12.89 38.43,-17.27 13.598,-4.37 27.664,-7.52 42.187,-9.45 14.536,-1.92 29.719,-2.89 45.551,-2.89 69.895,0 123.016,18.7 159.371,56.09 0.625,0.63 1.512,0.94 2.66,0.94 0.625,0 1.278,-0.29 1.95,-0.86 0.679,-0.57 1.019,-1.12 1.019,-1.64 v -3.12 c 0,-1.05 -0.211,-1.57 -0.629,-1.57"
         style="fill:#262626;fill-opacity:1;fill-rule:nonzero;stroke:none"
         id="path86" /><path
         d="M 401.199,2489.51 H 384.48 v 35.47 H 191.672 v -35.47 h -16.883 v 135.63 c 0,11.04 1.149,21.69 3.441,31.95 2.293,10.26 5.989,19.74 11.09,28.44 5.106,8.7 11.93,15.7 20.469,21.01 8.547,5.32 18.602,7.97 30.16,7.97 14.895,0 27.055,-4.48 36.481,-13.44 9.425,-8.95 16.199,-20.28 20.32,-33.98 4.113,-13.7 6.172,-27.68 6.172,-41.95 v -51.88 h 81.558 v 35.63 h 16.719 z m -113.129,81.72 v 40.94 c 0,13.13 -1.379,23.28 -4.14,30.47 -2.758,7.19 -7.551,12.32 -14.371,15.39 -6.825,3.08 -16.696,4.61 -29.61,4.61 -12.918,0 -22.844,-1.48 -29.769,-4.46 -6.926,-2.97 -11.742,-8.09 -14.45,-15.39 -2.707,-7.29 -4.058,-17.49 -4.058,-30.62 v -40.94 h 96.398"
         style="fill:#262626;fill-opacity:1;fill-rule:nonzero;stroke:none"
         id="path88" /><path
         d="m 450.699,2744.08 h -8.129 c 0,15.74 -4.531,23.6 -13.59,23.6 h -120 c -4.894,0 -7.339,-7.86 -7.339,-23.6 h -8.129 v 43.44 c 0,1.87 0.886,3.12 2.66,3.75 l 130.148,50 -130.148,50.16 c -1.774,0.62 -2.66,1.82 -2.66,3.59 v 43.59 h 8.129 c 0,-15.83 2.445,-23.75 7.339,-23.75 h 126.411 c 4.785,0 7.179,7.92 7.179,23.75 h 8.129 v -67.03 h -8.129 c 0,15.83 -2.394,23.75 -7.179,23.75 H 301.48 l 146.559,-56.56 c 1.774,-0.72 2.66,-2.03 2.66,-3.91 0,-1.87 -0.886,-3.17 -2.66,-3.9 l -144.84,-55.94 H 428.98 c 9.059,0 13.59,7.92 13.59,23.75 h 8.129 v -54.69"
         style="fill:#262626;fill-opacity:1;fill-rule:nonzero;stroke:none"
         id="path90" /><path
         d="m 426.172,3000.21 c 6.664,5.21 11.926,11.74 15.777,19.61 3.856,7.86 5.781,16.01 5.781,24.45 0,7.09 -1.406,13.68 -4.218,19.77 -2.817,6.1 -6.75,11.41 -11.801,15.93 -5.047,4.53 -10.75,8.03 -17.109,10.47 -6.356,2.45 -13.024,3.67 -20,3.67 -1.25,0 -1.872,0.63 -1.872,1.88 v 2.81 c 0,1.25 0.731,1.88 2.192,1.88 8.019,0 15.75,-1.54 23.199,-4.61 7.445,-3.07 14.008,-7.42 19.688,-13.05 5.675,-5.63 10.074,-12.08 13.203,-19.37 3.125,-7.29 4.687,-14.9 4.687,-22.82 0,-11.04 -2.211,-21.48 -6.64,-31.32 -4.426,-9.85 -10.52,-18.42 -18.278,-25.71 -7.761,-7.29 -16.722,-12.97 -26.883,-17.03 -10.152,-4.06 -20.75,-6.09 -31.796,-6.09 -11.043,0 -21.637,2.03 -31.793,6.09 -10.161,4.06 -19.145,9.74 -26.957,17.03 -7.809,7.29 -13.903,15.86 -18.282,25.71 -4.375,9.84 -6.558,20.28 -6.558,31.32 0,7.81 1.718,15.31 5.16,22.5 3.43,7.19 8.223,13.49 14.367,18.91 l -18.898,13.44 c -0.422,0.84 -0.629,1.36 -0.629,1.56 v 1.56 c 0,0.52 0.179,0.97 0.547,1.33 0.363,0.37 0.804,0.55 1.332,0.55 h 62.179 c 1.352,0 2.032,-0.63 2.032,-1.88 v -4.06 c 0,-1.46 -0.68,-2.19 -2.032,-2.19 -4.48,0 -9.453,-0.88 -14.922,-2.65 -5.464,-1.77 -10.648,-4.01 -15.546,-6.72 -4.895,-2.71 -9.215,-5.89 -12.961,-9.53 -8.332,-8.54 -12.5,-18.39 -12.5,-29.54 0,-8.54 1.898,-16.66 5.699,-24.37 3.801,-7.7 9.086,-14.22 15.859,-19.53 7.188,-5.62 15.364,-9.53 24.531,-11.72 9.168,-2.19 18.958,-3.28 29.372,-3.28 10.418,0 20.238,1.09 29.457,3.28 9.222,2.19 17.425,6.1 24.613,11.72"
         style="fill:#262626;fill-opacity:1;fill-rule:nonzero;stroke:none"
         id="path92" /><path
         d="m 483.699,3152.45 c 0,-1.87 -0.988,-2.81 -2.969,-2.81 -0.941,0 -1.617,0.21 -2.031,0.62 -36.773,37.61 -90.105,56.41 -160,56.41 -69.89,0 -123.019,-18.59 -159.379,-55.78 -0.519,-0.83 -1.402,-1.25 -2.648,-1.25 -0.836,0 -1.539,0.29 -2.113,0.85 -0.571,0.58 -0.86,1.23 -0.86,1.96 v 3.12 c 0,0.63 0.207,1.15 0.621,1.57 12.5,15.84 27.657,29.01 45.469,39.53 17.813,10.52 36.824,18.23 57.031,23.12 20.215,4.9 40.84,7.35 61.879,7.35 15.629,0 30.965,-1.33 46.012,-3.99 15.051,-2.65 29.922,-6.85 44.609,-12.58 14.692,-5.73 28.239,-12.99 40.629,-21.79 12.395,-8.8 23.434,-19.35 33.121,-31.64 0.418,-0.42 0.629,-0.94 0.629,-1.57 v -3.12"
         style="fill:#262626;fill-opacity:1;fill-rule:nonzero;stroke:none"
         id="path94" /><path
         d="m 1020,850 60.7,781.16 60.7,359.05 60.7,218.63 60.7,153.33 60.7,108.88 60.7,77.47 60.7,43.48 60.7,39.91 60.7,17.92 60.7,12.63 60.7,8.46 60.7,-2.95 60.7,2.86 60.7,-1.25 60.7,3.71 60.7,-5.47 60.7,0.65 60.7,-0.5 60.7,-2.43 60.7,15.02 60.7,-1.16 60.7,-4.09 60.7,4.93 60.7,5.41 60.7,4.57 60.7,-1.51 60.7,-0.47 60.7,3.75 60.7,7.17 60.7,-12.64 60.7,2.93 60.7,-3.5 60.7,-2.12 60.7,-5.33 60.7,0.05 60.7,-1.5 60.7,6.96 60.7,2.12 60.7,-2.96 60.7,5.66 60.7,-6.32 60.7,4.48 60.7,7.15 60.7,-5.52 60.7,6.32 60.7,-10.4 60.7,4.78 60.7,-3.21 60.7,-2.38 60.7,1.16 60.7,-2.21 60.7,-5.11 60.7,-16.66 60.7,6.3 60.7,1.11 60.7,9.17 60.7,1.76 60.7,1.47 60.7,-3.75 60.7,6.33 60.7,-2.28 60.7,5.87 60.7,-1.15 60.7,0.73 60.7,6.13 60.7,-2.98 60.7,9.72 60.7,-6.04 60.7,-10.32 60.7,8.35 60.7,-4.3 60.7,5.28 60.7,1.84 60.7,2.2 60.7,2.66 60.7,-3.46 60.7,-8.28 60.7,0.74 60.7,6.17 60.7,-5.47 60.7,-2.69 60.7,-0.07 60.7,-7.36 60.7,0.57 60.7,7.35 60.7,-3.47 60.7,3.16 60.7,-0.68 60.7,-2.78 60.7,-0.42 60.7,-7.31 60.7,1.64 60.7,1.35 60.7,5.93 60.7,0.78 60.7,9.46 60.7,-7.09 60.7,-7.86 60.7,4.12 60.7,-6.86"
         style="fill:none;stroke:#0072bd;stroke-width:30;stroke-linecap:butt;stroke-linejoin:round;stroke-miterlimit:10;stroke-dasharray:none;stroke-opacity:1"
         id="path96" /><path
         d="m 1020,850 60.7,815.78 60.7,368.2 60.7,262.63 60.7,217.8 60.7,192.98 60.7,177.28 60.7,137.28 60.7,133.92 60.7,117.8 60.7,111.86 60.7,106.57 60.7,91.95 60.7,87.71 60.7,78.9 60.7,80.16 60.7,66.88 60.7,63.24 60.7,57.05 60.7,40.86 60.7,48.08 60.7,47.56 60.7,29.01 60.7,35.1 60.7,20.22 60.7,47.68 60.7,20.52 60.7,30.22 60.7,17.89 60.7,26.24 60.7,3.96 60.7,5.96 60.7,11.18 60.7,11 60.7,6.3 60.7,-9.83 60.7,4.12 60.7,5.58 60.7,6.53 60.7,6.79 60.7,15.56 60.7,-8.45 60.7,7.57 60.7,6.3 60.7,-4.59 60.7,10.61 60.7,-3.88 60.7,9.08 60.7,5.07 60.7,10.3 60.7,-1.93 60.7,1.2 60.7,-16.24 60.7,-13.17 60.7,1.02 60.7,-13.07 60.7,4.02 60.7,-7.22 60.7,-7.27 60.7,-22.82 60.7,6.52 60.7,-2.15 60.7,8.61 60.7,-5.37 60.7,3.94 60.7,14.8 60.7,2.25 60.7,23.91 60.7,-1.65 60.7,-16.78 60.7,9.55 60.7,5.32 60.7,8.55 60.7,11.29 60.7,-10.18 60.7,2.73 60.7,-2.81 60.7,1.31 60.7,6.44 60.7,6.66 60.7,-7.28 60.7,-5.99 60.7,10.08 60.7,-4.21 60.7,1.23 60.7,6.88 60.7,-2.15 60.7,-1.15 60.7,-0.66 60.7,-8.65 60.7,-18.39 60.7,-6.05 60.7,-1.48 60.7,-6.08 60.7,-0.35 60.7,-16.62 60.7,5.28 60.7,-5.05 60.7,-5.52 60.7,10.54 60.7,-11.33"
         style="fill:none;stroke:#d95319;stroke-width:30;stroke-linecap:butt;stroke-linejoin:round;stroke-miterlimit:10;stroke-dasharray:none;stroke-opacity:1"
         id="path98" /><path
         d="m 1020,850 60.7,904.51 60.7,398.81 60.7,282.03 60.7,231.36 60.7,198.65 60.7,173.07 60.7,124.46 60.7,110.66 60.7,87.44 60.7,78.74 60.7,64.7 60.7,47.98 60.7,44.32 60.7,33.74 60.7,35.13 60.7,19.36 60.7,19.03 60.7,12.42 60.7,0.93 60.7,15.31 60.7,13.11 60.7,1.59 60.7,9 60.7,-0.7 60.7,27.85 60.7,3.7 60.7,8.58 60.7,0.63 60.7,16.69 60.7,-8.65 60.7,-2.22 60.7,3.12 60.7,0.89 60.7,-0.36 60.7,-14.24 60.7,-1.92 60.7,-0.19 60.7,1.34 60.7,-2.05 60.7,7.23 60.7,-1.78 60.7,5.04 60.7,1.43 60.7,-9.42 60.7,8.3 60.7,-7.3 60.7,7.58 60.7,0.06 60.7,6.66 60.7,-2.56 60.7,-3.95 60.7,-12.98 60.7,-13.03 60.7,0.28 60.7,-2.83 60.7,12.52 60.7,-3.19 60.7,-2.26 60.7,-10.9 60.7,6.7 60.7,-0.04 60.7,6.62 60.7,1.35 60.7,0.69 60.7,8.61 60.7,-1.34 60.7,16.09 60.7,0.05 60.7,-20.19 60.7,10.62 60.7,5.36 60.7,3.58 60.7,6.88 60.7,-7.47 60.7,2.51 60.7,2.84 60.7,2.67 60.7,3.63 60.7,3.09 60.7,-5.88 60.7,-8.59 60.7,8.06 60.7,-4.93 60.7,-1.51 60.7,2.29 60.7,0.57 60.7,3.78 60.7,-0.23 60.7,-3.67 60.7,-8.62 60.7,0.26 60.7,3.74 60.7,-9.28 60.7,-1.37 60.7,-19.95 60.7,8.07 60.7,-3.24 60.7,-3.28 60.7,4.15 60.7,-9.6"
         style="fill:none;stroke:#edb120;stroke-width:30;stroke-linecap:butt;stroke-linejoin:round;stroke-miterlimit:10;stroke-dasharray:none;stroke-opacity:1"
         id="path100" /><path
         d="m 1020,850 60.7,815.78 60.7,368.2 60.7,262.63 60.7,217.8 60.7,323.11 60.7,144.02 60.7,85.24 60.7,90.05 60.7,71.3 60.7,115.48 60.7,38.69 60.7,33.19 60.7,29.27 60.7,27.84 60.7,52.12 60.7,5.22 60.7,24.06 60.7,0.95 60.7,1.25 60.7,25.42 60.7,19.16 60.7,-3.64 60.7,7.42 60.7,7.68 60.7,21.05 60.7,5.97 60.7,8.34 60.7,-7.47 60.7,7.52 60.7,9.75 60.7,-7.8 60.7,2.55 60.7,-1.82 60.7,0.38 60.7,-6.31 60.7,-4.53 60.7,-2.56 60.7,6.16 60.7,1.29 60.7,1.25 60.7,3.55 60.7,0.87 60.7,-2.15 60.7,-7.34 60.7,11.81 60.7,-0.73 60.7,-1.98 60.7,4.36 60.7,-0.56 60.7,-10.16 60.7,2.17 60.7,-1.04 60.7,-17.14 60.7,-6.33 60.7,-5.87 60.7,13.27 60.7,7.24 60.7,-2.05 60.7,-16.18 60.7,-2.43 60.7,5.15 60.7,18.83 60.7,4.73 60.7,-7.04 60.7,5.55 60.7,0.53 60.7,13.5 60.7,2.08 60.7,-20.07 60.7,0.9 60.7,5.5 60.7,17.84 60.7,4.98 60.7,-18.2 60.7,2.89 60.7,5.43 60.7,12.66 60.7,12.76 60.7,-18.94 60.7,-8.94 60.7,-4.97 60.7,11.63 60.7,0.1 60.7,-12.22 60.7,4.92 60.7,10.46 60.7,-1.69 60.7,-0.95 60.7,-12.4 60.7,3.54 60.7,-1.99 60.7,-2.48 60.7,-15.33 60.7,4.4 60.7,-10.1 60.7,0.22 60.7,-3.64 60.7,3.25 60.7,10.39 60.7,-12"
         style="fill:none;stroke:#7e2f8e;stroke-width:30;stroke-linecap:butt;stroke-linejoin:round;stroke-miterlimit:10;stroke-dasharray:none;stroke-opacity:1"
         id="path102" /><path
         d="M 5970,930 H 7010 V 2280 H 5970 Z"
         style="fill:#ffffff;fill-opacity:1;fill-rule:nonzero;stroke:none"
         id="path104" /><path
         d="m 6402.9,2062.25 c 6.15,-7.82 13.83,-13.99 23.05,-18.52 9.22,-4.54 18.83,-6.8 28.83,-6.8 8.33,0 16.04,1.64 23.12,4.93 7.08,3.28 13.31,7.86 18.67,13.75 5.36,5.87 9.45,12.57 12.27,20.07 2.81,7.5 4.22,15.36 4.22,23.59 0,1.36 0.83,2.03 2.5,2.03 h 3.28 c 1.35,0 2.03,-0.83 2.03,-2.5 0,-9.48 -1.8,-18.59 -5.39,-27.34 -3.59,-8.75 -8.7,-16.43 -15.31,-23.05 -6.62,-6.61 -14.19,-11.77 -22.74,-15.46 -8.54,-3.7 -17.5,-5.56 -26.87,-5.56 -12.92,0 -25.13,2.61 -36.64,7.82 -11.51,5.21 -21.57,12.37 -30.16,21.49 -8.6,9.11 -15.29,19.66 -20.08,31.64 -4.79,11.98 -7.18,24.42 -7.18,37.34 0,12.91 2.39,25.34 7.18,37.27 4.79,11.92 11.48,22.47 20.08,31.64 8.59,9.16 18.65,16.3 30.16,21.41 11.51,5.09 23.72,7.64 36.64,7.64 9.27,0 18.12,-1.97 26.56,-5.93 8.44,-3.96 15.84,-9.58 22.19,-16.87 l 15.62,22.02 c 1.05,0.53 1.67,0.78 1.88,0.78 h 2.03 c 0.52,0 0.99,-0.2 1.41,-0.62 0.41,-0.41 0.62,-0.93 0.62,-1.56 v -72.96 c 0,-1.57 -0.68,-2.36 -2.03,-2.36 h -5 c -1.67,0 -2.5,0.79 -2.5,2.36 0,5.2 -1.02,11.01 -3.05,17.41 -2.03,6.41 -4.66,12.5 -7.89,18.29 -3.23,5.78 -6.92,10.85 -11.09,15.23 -10.11,9.89 -21.72,14.84 -34.84,14.84 -9.9,0 -19.41,-2.23 -28.52,-6.72 -9.11,-4.48 -16.8,-10.67 -23.05,-18.59 -6.56,-8.44 -11.12,-18.05 -13.67,-28.82 -2.55,-10.78 -3.83,-22.27 -3.83,-34.46 0,-12.29 1.28,-23.82 3.83,-34.61 2.55,-10.78 7.11,-20.39 13.67,-28.82"
         style="fill:#000000;fill-opacity:1;fill-rule:nonzero;stroke:none"
         id="path106" /><path
         d="m 6010.14,2098.13 h 301.09"
         style="fill:none;stroke:#0072bd;stroke-width:30;stroke-linecap:butt;stroke-linejoin:round;stroke-miterlimit:10;stroke-dasharray:none;stroke-opacity:1"
         id="path108" /><path
         d="m 6446.34,1698.64 c -17.08,0 -32.45,4.56 -46.09,13.68 -13.65,9.11 -24.35,21.2 -32.11,36.25 -7.76,15.04 -11.64,30.9 -11.64,47.57 0,12.29 2.21,24.45 6.64,36.49 4.43,12.03 10.62,22.7 18.59,32.03 7.97,9.32 17.52,16.69 28.67,22.11 11.15,5.41 23.12,8.12 35.94,8.12 12.81,0 24.82,-2.73 36.02,-8.2 11.19,-5.47 20.8,-12.92 28.82,-22.34 8.03,-9.43 14.17,-19.97 18.44,-31.64 4.27,-11.67 6.41,-23.86 6.41,-36.57 0,-16.67 -3.85,-32.53 -11.56,-47.57 -7.72,-15.05 -18.45,-27.14 -32.19,-36.25 -13.76,-9.12 -29.07,-13.68 -45.94,-13.68 z m -44.69,35 c 5.21,-8.23 11.7,-14.76 19.46,-19.61 7.76,-4.84 16.17,-7.26 25.23,-7.26 5.94,0 11.75,1.17 17.42,3.51 5.68,2.35 10.81,5.58 15.39,9.69 4.58,4.11 8.55,8.67 11.88,13.67 10.72,16.25 16.09,38.49 16.09,66.72 0,25.94 -5.37,46.46 -16.09,61.56 -5.32,7.6 -11.9,13.7 -19.77,18.29 -7.86,4.58 -16.17,6.87 -24.92,6.87 -8.75,0 -17.08,-2.29 -25,-6.87 -7.91,-4.59 -14.48,-10.69 -19.69,-18.29 -4.27,-5.83 -7.58,-12.06 -9.92,-18.67 -2.34,-6.61 -3.98,-13.49 -4.92,-20.62 -0.94,-7.14 -1.41,-14.56 -1.41,-22.27 0,-8.13 0.47,-16.07 1.41,-23.83 0.94,-7.76 2.66,-15.39 5.16,-22.89 2.5,-7.5 5.73,-14.17 9.68,-20"
         style="fill:#000000;fill-opacity:1;fill-rule:nonzero;stroke:none"
         id="path110" /><path
         d="m 6566.5,1700.83 v 62.97 c 0,1.35 0.78,2.03 2.34,2.03 h 3.28 c 0.52,0 1.02,-0.21 1.49,-0.62 0.46,-0.42 0.7,-0.89 0.7,-1.41 0,-17.71 5.47,-31.41 16.41,-41.09 10.93,-9.69 25.25,-14.54 42.96,-14.54 6.25,0 12.03,1.8 17.35,5.4 5.31,3.59 9.43,8.31 12.34,14.14 2.92,5.83 4.38,11.87 4.38,18.12 0,5.42 -1.09,10.71 -3.28,15.86 -2.2,5.15 -5.35,9.63 -9.46,13.44 -4.12,3.8 -8.78,6.33 -13.98,7.58 l -35.16,8.43 c -11.56,3.13 -21.01,9.45 -28.36,18.99 -7.34,9.53 -11.01,20.23 -11.01,32.11 0,9.26 2.37,17.99 7.11,26.17 4.74,8.17 11.14,14.63 19.22,19.37 8.06,4.74 16.74,7.11 26.01,7.11 18.02,0 32.34,-6.09 42.97,-18.28 l 11.09,17.5 c 0.52,0.52 1.15,0.78 1.88,0.78 h 1.87 c 0.52,0 1.01,-0.18 1.49,-0.54 0.47,-0.37 0.7,-0.92 0.7,-1.64 v -62.66 c 0,-1.56 -0.73,-2.34 -2.19,-2.34 h -3.28 c -1.67,0 -2.5,0.78 -2.5,2.34 0,4.58 -0.75,9.61 -2.26,15.08 -1.52,5.46 -3.65,10.7 -6.41,15.7 -2.76,5 -5.7,9.06 -8.83,12.19 -8.65,8.85 -20.16,13.28 -34.53,13.28 -6.15,0 -11.82,-1.57 -17.03,-4.69 -5.21,-3.13 -9.35,-7.37 -12.42,-12.73 -3.07,-5.37 -4.61,-11.02 -4.61,-16.96 0,-7.71 2.4,-14.71 7.19,-21.01 4.78,-6.3 11.08,-10.44 18.9,-12.42 l 35,-8.6 c 5.83,-1.35 11.3,-3.85 16.41,-7.5 5.1,-3.65 9.37,-7.89 12.81,-12.73 3.44,-4.85 6.12,-10.24 8.05,-16.17 1.93,-5.94 2.89,-12.09 2.89,-18.44 0,-9.69 -2.24,-18.88 -6.72,-27.58 -4.48,-8.7 -10.79,-15.68 -18.91,-20.94 -8.12,-5.26 -17.03,-7.89 -26.72,-7.89 -5.93,0 -12.03,0.65 -18.28,1.96 -6.25,1.3 -12,3.33 -17.26,6.09 -5.26,2.76 -10.03,6.27 -14.3,10.55 l -11.41,-17.82 c -0.52,-0.52 -1.2,-0.78 -2.03,-0.78 h -1.56 c -1.56,0 -2.34,0.73 -2.34,2.19"
         style="fill:#000000;fill-opacity:1;fill-rule:nonzero;stroke:none"
         id="path112" /><path
         d="m 6010.14,1769.38 h 301.09"
         style="fill:none;stroke:#d95319;stroke-width:30;stroke-linecap:butt;stroke-linejoin:round;stroke-miterlimit:10;stroke-dasharray:none;stroke-opacity:1"
         id="path114" /><path
         d="m 6349.62,1375.82 v 9.53 c 18.54,0 27.81,2.87 27.81,8.6 v 148.28 c 0,5.73 -9.27,8.59 -27.81,8.59 v 9.38 h 148.91 l 7.5,-61.72 h -7.81 c -1.26,11.36 -2.9,20.29 -4.93,26.79 -2.03,6.52 -5.02,11.64 -8.98,15.39 -3.96,3.75 -9.27,6.39 -15.94,7.9 -6.67,1.51 -15.78,2.26 -27.34,2.26 h -24.69 c -3.23,0 -5.75,-0.13 -7.58,-0.39 -1.82,-0.26 -3.3,-1.04 -4.45,-2.34 -1.15,-1.3 -1.72,-3.26 -1.72,-5.86 v -69.53 h 19.22 c 9.17,0 15.91,0.81 20.23,2.42 4.33,1.61 7.3,4.58 8.91,8.9 1.61,4.33 2.42,11.12 2.42,20.39 h 7.81 v -72.65 h -7.81 c 0,9.17 -0.81,15.91 -2.42,20.23 -1.61,4.33 -4.58,7.3 -8.91,8.91 -4.32,1.62 -11.06,2.42 -20.23,2.42 h -19.22 v -69.37 c 0,-5.73 11.51,-8.6 34.53,-8.6 v -9.53 h -87.5"
         style="fill:#000000;fill-opacity:1;fill-rule:nonzero;stroke:none"
         id="path116" /><path
         d="m 6525.87,1375.82 v 9.53 c 18.54,0 27.81,2.87 27.81,8.6 v 148.28 c 0,5.73 -9.27,8.59 -27.81,8.59 v 9.38 h 80.78 v -9.38 c -18.54,0 -27.81,-2.86 -27.81,-8.59 v -65.63 h 79.69 v 65.63 c 0,5.73 -9.27,8.59 -27.81,8.59 v 9.38 h 80.62 v -9.38 c -18.44,0 -27.66,-2.86 -27.66,-8.59 v -148.28 c 0,-5.73 9.22,-8.6 27.66,-8.6 v -9.53 h -80.62 v 9.53 c 18.54,0 27.81,2.87 27.81,8.6 v 73.12 h -79.69 v -73.12 c 0,-5.73 9.27,-8.6 27.81,-8.6 v -9.53 h -80.78"
         style="fill:#000000;fill-opacity:1;fill-rule:nonzero;stroke:none"
         id="path118" /><path
         d="m 6010.14,1440.62 h 301.09"
         style="fill:none;stroke:#edb120;stroke-width:30;stroke-linecap:butt;stroke-linejoin:round;stroke-miterlimit:10;stroke-dasharray:none;stroke-opacity:1"
         id="path120" /><path
         d="m 6350.87,1047.07 v 9.52 c 18.54,0 27.81,5.32 27.81,15.95 v 140.94 c 0,5.72 -9.27,8.59 -27.81,8.59 v 9.38 h 50.94 c 2.19,0 3.64,-0.99 4.37,-2.97 l 58.75,-152.82 58.91,152.82 c 0.73,1.98 2.18,2.97 4.38,2.97 h 50.93 v -9.38 c -18.54,0 -27.81,-2.87 -27.81,-8.59 V 1065.2 c 0,-5.74 9.27,-8.61 27.81,-8.61 v -9.52 h -78.59 v 9.52 c 18.54,0 27.81,2.87 27.81,8.61 v 157.03 l -66.4,-172.19 c -0.83,-1.99 -2.35,-2.97 -4.54,-2.97 -2.29,0 -3.8,0.98 -4.53,2.97 l -65.62,170.16 v -147.66 c 0,-10.63 9.27,-15.95 27.81,-15.95 v -9.52 h -64.22"
         style="fill:#000000;fill-opacity:1;fill-rule:nonzero;stroke:none"
         id="path122" /><path
         d="m 6597.12,1047.07 v 9.52 c 18.54,0 27.81,2.87 27.81,8.61 v 148.28 c 0,5.72 -9.27,8.59 -27.81,8.59 v 9.38 h 148.91 l 7.5,-61.72 h -7.81 c -1.26,11.35 -2.9,20.28 -4.93,26.79 -2.03,6.51 -5.02,11.64 -8.98,15.39 -3.96,3.75 -9.27,6.38 -15.94,7.89 -6.67,1.51 -15.78,2.27 -27.34,2.27 h -24.69 c -3.23,0 -5.75,-0.14 -7.58,-0.39 -1.82,-0.27 -3.3,-1.04 -4.45,-2.34 -1.15,-1.31 -1.72,-3.27 -1.72,-5.86 v -69.53 h 19.22 c 9.17,0 15.91,0.8 20.23,2.42 4.33,1.61 7.3,4.58 8.91,8.9 1.61,4.32 2.42,11.12 2.42,20.39 h 7.81 V 1103 h -7.81 c 0,9.17 -0.81,15.91 -2.42,20.23 -1.61,4.33 -4.58,7.3 -8.91,8.91 -4.32,1.62 -11.06,2.43 -20.23,2.43 h -19.22 v -69.37 c 0,-5.74 11.51,-8.61 34.53,-8.61 v -9.52 h -87.5"
         style="fill:#000000;fill-opacity:1;fill-rule:nonzero;stroke:none"
         id="path124" /><path
         d="m 6773.37,1047.07 v 9.52 c 18.54,0 27.81,2.87 27.81,8.61 v 148.28 c 0,5.72 -9.27,8.59 -27.81,8.59 v 9.38 h 80.78 v -9.38 c -18.54,0 -27.81,-2.87 -27.81,-8.59 v -65.64 h 79.69 v 65.64 c 0,5.72 -9.27,8.59 -27.81,8.59 v 9.38 h 80.62 v -9.38 c -18.44,0 -27.66,-2.87 -27.66,-8.59 V 1065.2 c 0,-5.74 9.22,-8.61 27.66,-8.61 v -9.52 h -80.62 v 9.52 c 18.54,0 27.81,2.87 27.81,8.61 v 73.12 h -79.69 v -73.12 c 0,-5.74 9.27,-8.61 27.81,-8.61 v -9.52 h -80.78"
         style="fill:#000000;fill-opacity:1;fill-rule:nonzero;stroke:none"
         id="path126" /><path
         d="m 6010.14,1111.87 h 301.09"
         style="fill:none;stroke:#7e2f8e;stroke-width:30;stroke-linecap:butt;stroke-linejoin:round;stroke-miterlimit:10;stroke-dasharray:none;stroke-opacity:1"
         id="path128" /><path
         d="M 5970,930 H 7010 V 2280 H 5970 Z"
         style="fill:none;stroke:#262626;stroke-width:5;stroke-linecap:butt;stroke-linejoin:miter;stroke-miterlimit:10;stroke-dasharray:none;stroke-opacity:1"
         id="path130" /></g></g></svg>
