<?xml version="1.0" encoding="UTF-8" standalone="no"?>
<!-- Created with Inkscape (http://www.inkscape.org/) -->

<svg
   version="1.1"
   id="svg2"
   xml:space="preserve"
   width="1484"
   height="848"
   viewBox="0 0 1484 848"
   sodipodi:docname="mhemfh_small_net_ev_trace.eps"
   xmlns:inkscape="http://www.inkscape.org/namespaces/inkscape"
   xmlns:sodipodi="http://sodipodi.sourceforge.net/DTD/sodipodi-0.dtd"
   xmlns="http://www.w3.org/2000/svg"
   xmlns:svg="http://www.w3.org/2000/svg"><defs
     id="defs6" /><sodipodi:namedview
     id="namedview4"
     pagecolor="#ffffff"
     bordercolor="#666666"
     borderopacity="1.0"
     inkscape:pageshadow="2"
     inkscape:pageopacity="0.0"
     inkscape:pagecheckerboard="0" /><g
     id="g8"
     inkscape:groupmode="layer"
     inkscape:label="ink_ext_XXXXXX"
     transform="matrix(1.3333333,0,0,-1.3333333,0,848)"><g
       id="g10"
       transform="scale(0.1)"><path
         d="M 0,0 H 11130 V 6360 H 0 Z"
         style="fill:#ffffff;fill-opacity:1;fill-rule:nonzero;stroke:none"
         id="path12" /><path
         d="M 0,0 H 11130 V 6360 H 0 Z"
         style="fill:#ffffff;fill-opacity:1;fill-rule:nonzero;stroke:none"
         id="path14" /><path
         d="m 1450,980 h 8620 V 5880 H 1450 Z"
         style="fill:#ffffff;fill-opacity:1;fill-rule:nonzero;stroke:none"
         id="path16" /><path
         d="M 1450,980 V 5880"
         style="fill:none;stroke:#dfdfdf;stroke-width:5;stroke-linecap:butt;stroke-linejoin:round;stroke-miterlimit:10;stroke-dasharray:none;stroke-opacity:1"
         id="path18" /><path
         d="M 3174,980 V 5880"
         style="fill:none;stroke:#dfdfdf;stroke-width:5;stroke-linecap:butt;stroke-linejoin:round;stroke-miterlimit:10;stroke-dasharray:none;stroke-opacity:1"
         id="path20" /><path
         d="M 4898,980 V 5880"
         style="fill:none;stroke:#dfdfdf;stroke-width:5;stroke-linecap:butt;stroke-linejoin:round;stroke-miterlimit:10;stroke-dasharray:none;stroke-opacity:1"
         id="path22" /><path
         d="M 6622,980 V 5880"
         style="fill:none;stroke:#dfdfdf;stroke-width:5;stroke-linecap:butt;stroke-linejoin:round;stroke-miterlimit:10;stroke-dasharray:none;stroke-opacity:1"
         id="path24" /><path
         d="M 8346,980 V 5880"
         style="fill:none;stroke:#dfdfdf;stroke-width:5;stroke-linecap:butt;stroke-linejoin:round;stroke-miterlimit:10;stroke-dasharray:none;stroke-opacity:1"
         id="path26" /><path
         d="M 10070,980 V 5880"
         style="fill:none;stroke:#dfdfdf;stroke-width:5;stroke-linecap:butt;stroke-linejoin:round;stroke-miterlimit:10;stroke-dasharray:none;stroke-opacity:1"
         id="path28" /><path
         d="M 10070,1024.54 H 1450"
         style="fill:none;stroke:#c6c6c6;stroke-width:5;stroke-linecap:butt;stroke-linejoin:bevel;stroke-miterlimit:10;stroke-dasharray:10, 30;stroke-dashoffset:0;stroke-opacity:1"
         id="path30" /><path
         d="M 10070,1113.53 H 1450"
         style="fill:none;stroke:#c6c6c6;stroke-width:5;stroke-linecap:butt;stroke-linejoin:bevel;stroke-miterlimit:10;stroke-dasharray:10, 30;stroke-dashoffset:0;stroke-opacity:1"
         id="path32" /><path
         d="M 10070,1188.77 H 1450"
         style="fill:none;stroke:#c6c6c6;stroke-width:5;stroke-linecap:butt;stroke-linejoin:bevel;stroke-miterlimit:10;stroke-dasharray:10, 30;stroke-dashoffset:0;stroke-opacity:1"
         id="path34" /><path
         d="M 10070,1253.94 H 1450"
         style="fill:none;stroke:#c6c6c6;stroke-width:5;stroke-linecap:butt;stroke-linejoin:bevel;stroke-miterlimit:10;stroke-dasharray:10, 30;stroke-dashoffset:0;stroke-opacity:1"
         id="path36" /><path
         d="M 10070,1311.43 H 1450"
         style="fill:none;stroke:#c6c6c6;stroke-width:5;stroke-linecap:butt;stroke-linejoin:bevel;stroke-miterlimit:10;stroke-dasharray:10, 30;stroke-dashoffset:0;stroke-opacity:1"
         id="path38" /><path
         d="M 10070,1701.18 H 1450"
         style="fill:none;stroke:#c6c6c6;stroke-width:5;stroke-linecap:butt;stroke-linejoin:bevel;stroke-miterlimit:10;stroke-dasharray:10, 30;stroke-dashoffset:0;stroke-opacity:1"
         id="path40" /><path
         d="M 10070,1899.08 H 1450"
         style="fill:none;stroke:#c6c6c6;stroke-width:5;stroke-linecap:butt;stroke-linejoin:bevel;stroke-miterlimit:10;stroke-dasharray:10, 30;stroke-dashoffset:0;stroke-opacity:1"
         id="path42" /><path
         d="M 10070,2039.5 H 1450"
         style="fill:none;stroke:#c6c6c6;stroke-width:5;stroke-linecap:butt;stroke-linejoin:bevel;stroke-miterlimit:10;stroke-dasharray:10, 30;stroke-dashoffset:0;stroke-opacity:1"
         id="path44" /><path
         d="M 10070,2148.41 H 1450"
         style="fill:none;stroke:#c6c6c6;stroke-width:5;stroke-linecap:butt;stroke-linejoin:bevel;stroke-miterlimit:10;stroke-dasharray:10, 30;stroke-dashoffset:0;stroke-opacity:1"
         id="path46" /><path
         d="M 10070,2237.4 H 1450"
         style="fill:none;stroke:#c6c6c6;stroke-width:5;stroke-linecap:butt;stroke-linejoin:bevel;stroke-miterlimit:10;stroke-dasharray:10, 30;stroke-dashoffset:0;stroke-opacity:1"
         id="path48" /><path
         d="M 10070,2312.64 H 1450"
         style="fill:none;stroke:#c6c6c6;stroke-width:5;stroke-linecap:butt;stroke-linejoin:bevel;stroke-miterlimit:10;stroke-dasharray:10, 30;stroke-dashoffset:0;stroke-opacity:1"
         id="path50" /><path
         d="M 10070,2377.82 H 1450"
         style="fill:none;stroke:#c6c6c6;stroke-width:5;stroke-linecap:butt;stroke-linejoin:bevel;stroke-miterlimit:10;stroke-dasharray:10, 30;stroke-dashoffset:0;stroke-opacity:1"
         id="path52" /><path
         d="M 10070,2435.31 H 1450"
         style="fill:none;stroke:#c6c6c6;stroke-width:5;stroke-linecap:butt;stroke-linejoin:bevel;stroke-miterlimit:10;stroke-dasharray:10, 30;stroke-dashoffset:0;stroke-opacity:1"
         id="path54" /><path
         d="M 10070,2486.73 H 1450"
         style="fill:none;stroke:#c6c6c6;stroke-width:5;stroke-linecap:butt;stroke-linejoin:bevel;stroke-miterlimit:10;stroke-dasharray:10, 30;stroke-dashoffset:0;stroke-opacity:1"
         id="path56" /><path
         d="M 10070,2825.05 H 1450"
         style="fill:none;stroke:#c6c6c6;stroke-width:5;stroke-linecap:butt;stroke-linejoin:bevel;stroke-miterlimit:10;stroke-dasharray:10, 30;stroke-dashoffset:0;stroke-opacity:1"
         id="path58" /><path
         d="M 10070,3022.96 H 1450"
         style="fill:none;stroke:#c6c6c6;stroke-width:5;stroke-linecap:butt;stroke-linejoin:bevel;stroke-miterlimit:10;stroke-dasharray:10, 30;stroke-dashoffset:0;stroke-opacity:1"
         id="path60" /><path
         d="M 10070,3163.37 H 1450"
         style="fill:none;stroke:#c6c6c6;stroke-width:5;stroke-linecap:butt;stroke-linejoin:bevel;stroke-miterlimit:10;stroke-dasharray:10, 30;stroke-dashoffset:0;stroke-opacity:1"
         id="path62" /><path
         d="M 10070,3272.29 H 1450"
         style="fill:none;stroke:#c6c6c6;stroke-width:5;stroke-linecap:butt;stroke-linejoin:bevel;stroke-miterlimit:10;stroke-dasharray:10, 30;stroke-dashoffset:0;stroke-opacity:1"
         id="path64" /><path
         d="M 10070,3361.28 H 1450"
         style="fill:none;stroke:#c6c6c6;stroke-width:5;stroke-linecap:butt;stroke-linejoin:bevel;stroke-miterlimit:10;stroke-dasharray:10, 30;stroke-dashoffset:0;stroke-opacity:1"
         id="path66" /><path
         d="M 10070,3436.51 H 1450"
         style="fill:none;stroke:#c6c6c6;stroke-width:5;stroke-linecap:butt;stroke-linejoin:bevel;stroke-miterlimit:10;stroke-dasharray:10, 30;stroke-dashoffset:0;stroke-opacity:1"
         id="path68" /><path
         d="M 10070,3501.69 H 1450"
         style="fill:none;stroke:#c6c6c6;stroke-width:5;stroke-linecap:butt;stroke-linejoin:bevel;stroke-miterlimit:10;stroke-dasharray:10, 30;stroke-dashoffset:0;stroke-opacity:1"
         id="path70" /><path
         d="M 10070,3559.18 H 1450"
         style="fill:none;stroke:#c6c6c6;stroke-width:5;stroke-linecap:butt;stroke-linejoin:bevel;stroke-miterlimit:10;stroke-dasharray:10, 30;stroke-dashoffset:0;stroke-opacity:1"
         id="path72" /><path
         d="M 10070,3948.93 H 1450"
         style="fill:none;stroke:#c6c6c6;stroke-width:5;stroke-linecap:butt;stroke-linejoin:bevel;stroke-miterlimit:10;stroke-dasharray:10, 30;stroke-dashoffset:0;stroke-opacity:1"
         id="path74" /><path
         d="M 10070,4146.83 H 1450"
         style="fill:none;stroke:#c6c6c6;stroke-width:5;stroke-linecap:butt;stroke-linejoin:bevel;stroke-miterlimit:10;stroke-dasharray:10, 30;stroke-dashoffset:0;stroke-opacity:1"
         id="path76" /><path
         d="M 10070,4287.25 H 1450"
         style="fill:none;stroke:#c6c6c6;stroke-width:5;stroke-linecap:butt;stroke-linejoin:bevel;stroke-miterlimit:10;stroke-dasharray:10, 30;stroke-dashoffset:0;stroke-opacity:1"
         id="path78" /><path
         d="M 10070,4396.16 H 1450"
         style="fill:none;stroke:#c6c6c6;stroke-width:5;stroke-linecap:butt;stroke-linejoin:bevel;stroke-miterlimit:10;stroke-dasharray:10, 30;stroke-dashoffset:0;stroke-opacity:1"
         id="path80" /><path
         d="M 10070,4485.15 H 1450"
         style="fill:none;stroke:#c6c6c6;stroke-width:5;stroke-linecap:butt;stroke-linejoin:bevel;stroke-miterlimit:10;stroke-dasharray:10, 30;stroke-dashoffset:0;stroke-opacity:1"
         id="path82" /><path
         d="M 10070,4560.39 H 1450"
         style="fill:none;stroke:#c6c6c6;stroke-width:5;stroke-linecap:butt;stroke-linejoin:bevel;stroke-miterlimit:10;stroke-dasharray:10, 30;stroke-dashoffset:0;stroke-opacity:1"
         id="path84" /><path
         d="M 10070,4625.57 H 1450"
         style="fill:none;stroke:#c6c6c6;stroke-width:5;stroke-linecap:butt;stroke-linejoin:bevel;stroke-miterlimit:10;stroke-dasharray:10, 30;stroke-dashoffset:0;stroke-opacity:1"
         id="path86" /><path
         d="M 10070,4683.05 H 1450"
         style="fill:none;stroke:#c6c6c6;stroke-width:5;stroke-linecap:butt;stroke-linejoin:bevel;stroke-miterlimit:10;stroke-dasharray:10, 30;stroke-dashoffset:0;stroke-opacity:1"
         id="path88" /><path
         d="M 10070,4734.48 H 1450"
         style="fill:none;stroke:#c6c6c6;stroke-width:5;stroke-linecap:butt;stroke-linejoin:bevel;stroke-miterlimit:10;stroke-dasharray:10, 30;stroke-dashoffset:0;stroke-opacity:1"
         id="path90" /><path
         d="M 10070,5072.8 H 1450"
         style="fill:none;stroke:#c6c6c6;stroke-width:5;stroke-linecap:butt;stroke-linejoin:bevel;stroke-miterlimit:10;stroke-dasharray:10, 30;stroke-dashoffset:0;stroke-opacity:1"
         id="path92" /><path
         d="M 10070,5270.7 H 1450"
         style="fill:none;stroke:#c6c6c6;stroke-width:5;stroke-linecap:butt;stroke-linejoin:bevel;stroke-miterlimit:10;stroke-dasharray:10, 30;stroke-dashoffset:0;stroke-opacity:1"
         id="path94" /><path
         d="M 10070,5411.12 H 1450"
         style="fill:none;stroke:#c6c6c6;stroke-width:5;stroke-linecap:butt;stroke-linejoin:bevel;stroke-miterlimit:10;stroke-dasharray:10, 30;stroke-dashoffset:0;stroke-opacity:1"
         id="path96" /><path
         d="M 10070,5520.03 H 1450"
         style="fill:none;stroke:#c6c6c6;stroke-width:5;stroke-linecap:butt;stroke-linejoin:bevel;stroke-miterlimit:10;stroke-dasharray:10, 30;stroke-dashoffset:0;stroke-opacity:1"
         id="path98" /><path
         d="M 10070,5609.02 H 1450"
         style="fill:none;stroke:#c6c6c6;stroke-width:5;stroke-linecap:butt;stroke-linejoin:bevel;stroke-miterlimit:10;stroke-dasharray:10, 30;stroke-dashoffset:0;stroke-opacity:1"
         id="path100" /><path
         d="M 10070,5684.26 H 1450"
         style="fill:none;stroke:#c6c6c6;stroke-width:5;stroke-linecap:butt;stroke-linejoin:bevel;stroke-miterlimit:10;stroke-dasharray:10, 30;stroke-dashoffset:0;stroke-opacity:1"
         id="path102" /><path
         d="M 10070,5749.44 H 1450"
         style="fill:none;stroke:#c6c6c6;stroke-width:5;stroke-linecap:butt;stroke-linejoin:bevel;stroke-miterlimit:10;stroke-dasharray:10, 30;stroke-dashoffset:0;stroke-opacity:1"
         id="path104" /><path
         d="M 10070,5806.93 H 1450"
         style="fill:none;stroke:#c6c6c6;stroke-width:5;stroke-linecap:butt;stroke-linejoin:bevel;stroke-miterlimit:10;stroke-dasharray:10, 30;stroke-dashoffset:0;stroke-opacity:1"
         id="path106" /><path
         d="M 10070,1362.86 H 1450"
         style="fill:none;stroke:#dfdfdf;stroke-width:5;stroke-linecap:butt;stroke-linejoin:round;stroke-miterlimit:10;stroke-dasharray:none;stroke-opacity:1"
         id="path108" /><path
         d="M 10070,3610.61 H 1450"
         style="fill:none;stroke:#dfdfdf;stroke-width:5;stroke-linecap:butt;stroke-linejoin:round;stroke-miterlimit:10;stroke-dasharray:none;stroke-opacity:1"
         id="path110" /><path
         d="M 10070,5858.35 H 1450"
         style="fill:none;stroke:#dfdfdf;stroke-width:5;stroke-linecap:butt;stroke-linejoin:round;stroke-miterlimit:10;stroke-dasharray:none;stroke-opacity:1"
         id="path112" /><path
         d="m 1450,980 h 8620"
         style="fill:none;stroke:#262626;stroke-width:5;stroke-linecap:square;stroke-linejoin:round;stroke-miterlimit:10;stroke-dasharray:none;stroke-opacity:1"
         id="path114" /><path
         d="m 1450,980 v 86.2"
         style="fill:none;stroke:#262626;stroke-width:5;stroke-linecap:square;stroke-linejoin:round;stroke-miterlimit:10;stroke-dasharray:none;stroke-opacity:1"
         id="path116" /><path
         d="m 3174,980 v 86.2"
         style="fill:none;stroke:#262626;stroke-width:5;stroke-linecap:square;stroke-linejoin:round;stroke-miterlimit:10;stroke-dasharray:none;stroke-opacity:1"
         id="path118" /><path
         d="m 4898,980 v 86.2"
         style="fill:none;stroke:#262626;stroke-width:5;stroke-linecap:square;stroke-linejoin:round;stroke-miterlimit:10;stroke-dasharray:none;stroke-opacity:1"
         id="path120" /><path
         d="m 6622,980 v 86.2"
         style="fill:none;stroke:#262626;stroke-width:5;stroke-linecap:square;stroke-linejoin:round;stroke-miterlimit:10;stroke-dasharray:none;stroke-opacity:1"
         id="path122" /><path
         d="m 8346,980 v 86.2"
         style="fill:none;stroke:#262626;stroke-width:5;stroke-linecap:square;stroke-linejoin:round;stroke-miterlimit:10;stroke-dasharray:none;stroke-opacity:1"
         id="path124" /><path
         d="m 10070,980 v 86.2"
         style="fill:none;stroke:#262626;stroke-width:5;stroke-linecap:square;stroke-linejoin:round;stroke-miterlimit:10;stroke-dasharray:none;stroke-opacity:1"
         id="path126" /><g
         id="g128"
         transform="scale(10)"><text
           transform="matrix(1,0,0,-1,133.5,56)"
           style="font-variant:normal;font-weight:normal;font-size:35px;font-family:Helvetica;-inkscape-font-specification:Helvetica;writing-mode:lr-tb;fill:#262626;fill-opacity:1;fill-rule:nonzero;stroke:none"
           id="text132"><tspan
             x="0 172.39986 344.79971 517.19952 689.59943 861.99957"
             y="0"
             sodipodi:role="line"
             id="tspan130">012345</tspan></text></g><path
         d="m 4670.54,142.539 c 0,1.774 0.15,3.18 0.46,4.223 l 40.95,133.75 h -35.16 c -9.49,0 -18.36,-2.973 -26.65,-8.91 -8.28,-5.934 -15.12,-13.485 -20.55,-22.653 -0.52,-1.047 -1.3,-1.57 -2.34,-1.57 h -4.52 c -2.41,0 -3.6,1.305 -3.6,3.91 0,0.52 0.25,1.25 0.78,2.191 8.43,14.481 17.52,26.641 27.27,36.481 9.73,9.848 20.7,14.769 32.89,14.769 h 119.52 c 2.82,0 5.16,-0.941 7.04,-2.82 1.87,-1.875 2.82,-4.219 2.82,-7.031 0,-3.852 -1.36,-7.211 -4.07,-10.078 -2.71,-2.86 -6.04,-4.289 -10,-4.289 h -70.63 L 4698.66,145.98 c -1.05,-4.167 -2.95,-7.628 -5.71,-10.39 -2.75,-2.762 -6.32,-4.141 -10.7,-4.141 -3.23,0 -5.99,1.039 -8.27,3.121 -2.3,2.086 -3.44,4.743 -3.44,7.969"
         style="fill:#262626;fill-opacity:1;fill-rule:nonzero;stroke:none"
         id="path134" /><path
         d="m 4947.04,226.289 c -2.19,0 -3.99,0.836 -5.4,2.5 -1.4,1.668 -2.1,3.438 -2.1,5.313 0,1.871 0.7,3.64 2.1,5.308 1.41,1.668 3.21,2.5 5.4,2.5 h 223.75 c 1.98,0 3.64,-0.832 5,-2.5 1.35,-1.668 2.03,-3.437 2.03,-5.308 0,-1.875 -0.68,-3.645 -2.03,-5.313 -1.36,-1.664 -3.02,-2.5 -5,-2.5 h -223.75"
         style="fill:#262626;fill-opacity:1;fill-rule:nonzero;stroke:none"
         id="path136" /><path
         d="m 5413.13,39.8789 c -14.49,11.4609 -26.96,24.5859 -37.43,39.3828 -10.46,14.793 -19.03,30.5473 -25.7,47.2583 -6.66,16.718 -11.64,34.218 -14.91,52.5 -3.29,18.289 -4.93,36.648 -4.93,55.082 0,18.644 1.64,37.109 4.93,55.386 3.27,18.282 8.3,35.864 15.07,52.742 6.77,16.872 15.44,32.68 26.02,47.418 10.57,14.743 22.89,27.633 36.95,38.672 0,0.52 0.62,0.782 1.87,0.782 h 3.59 c 0.84,0 1.57,-0.34 2.2,-1.012 0.62,-0.68 0.94,-1.488 0.94,-2.43 0,-1.14 -0.27,-1.972 -0.8,-2.5 -12.7,-12.394 -23.27,-25.699 -31.7,-39.922 -8.44,-14.218 -15.24,-29.375 -20.39,-45.468 -5.16,-16.094 -8.89,-32.735 -11.18,-49.918 -2.29,-17.188 -3.43,-35.106 -3.43,-53.75 0,-82.602 22.08,-145.3637 66.25,-188.2817 0.83,-0.832 1.25,-1.9258 1.25,-3.2812 0,-0.625 -0.37,-1.3555 -1.1,-2.1875 -0.73,-0.836 -1.41,-1.25 -2.04,-1.25 H 5415 c -1.25,0 -1.87,0.2578 -1.87,0.7773"
         style="fill:#262626;fill-opacity:1;fill-rule:nonzero;stroke:none"
         id="path138" /><path
         d="m 5462.7,143.629 c 0,1.566 0.1,2.715 0.3,3.441 l 56.57,225.469 c 1.04,4.481 1.67,7.973 1.88,10.473 0,4.164 -8.44,6.25 -25.32,6.25 -2.6,0 -3.9,1.715 -3.9,5.148 0.1,0.625 0.39,1.774 0.86,3.442 0.46,1.664 1.04,2.941 1.71,3.828 0.68,0.886 1.64,1.332 2.9,1.332 l 52.5,4.218 h 1.25 c 0,-0.312 0.44,-0.679 1.32,-1.101 0.89,-0.414 1.38,-0.672 1.48,-0.777 0.52,-1.356 0.79,-2.395 0.79,-3.122 l -40.95,-162.968 c 9.38,3.957 21.21,13.332 35.48,28.117 14.27,14.793 25.44,25.422 33.52,31.883 8.07,6.457 18.2,9.687 30.39,9.687 7.29,0 13.46,-2.476 18.52,-7.429 5.04,-4.946 7.57,-11.067 7.57,-18.36 0,-4.472 -0.94,-8.664 -2.82,-12.57 -1.87,-3.906 -4.52,-7.059 -7.96,-9.461 -3.44,-2.391 -7.45,-3.59 -12.04,-3.59 -4.16,0 -7.68,1.305 -10.55,3.91 -2.86,2.602 -4.29,5.985 -4.29,10.153 0,6.25 2.19,11.484 6.57,15.699 4.37,4.219 9.68,6.328 15.93,6.328 -2.6,3.441 -6.51,5.16 -11.71,5.16 -7.71,0 -15.16,-2.211 -22.36,-6.641 -7.18,-4.425 -14.91,-10.804 -23.2,-19.136 -8.28,-8.336 -15.85,-15.938 -22.73,-22.813 -6.87,-6.879 -13.23,-12.14 -19.07,-15.789 15.32,-1.765 28.63,-5.777 39.93,-12.031 11.3,-6.246 16.96,-15.879 16.96,-28.899 0,-2.605 -0.53,-5.941 -1.57,-10 -2.18,-9.792 -3.28,-17.605 -3.28,-23.441 0,-11.664 3.96,-17.5 11.87,-17.5 9.48,0 16.65,5.133 21.5,15.391 4.84,10.261 8.87,22.265 12.09,36.019 0.53,1.453 1.63,2.18 3.29,2.18 h 4.53 c 1.04,0 1.91,-0.309 2.59,-0.93 0.67,-0.625 1,-1.41 1,-2.347 0,-0.317 -0.1,-0.731 -0.3,-1.25 -9.8,-39.582 -24.95,-59.372 -45.47,-59.372 -7.3,0 -13.78,1.715 -19.46,5.149 -5.68,3.441 -10.02,8.105 -13.04,13.992 -3.03,5.887 -4.53,12.527 -4.53,19.918 0,4.168 0.57,8.492 1.71,12.973 0.73,3.019 1.09,5.883 1.09,8.59 0,10 -4.45,17.601 -13.36,22.808 -8.9,5.215 -19.03,8.395 -30.39,9.539 l -19.84,-79.687 c -1.04,-3.856 -3.02,-7.032 -5.93,-9.532 -2.93,-2.5 -6.26,-3.75 -10,-3.75 -3.34,0 -6.18,1.122 -8.53,3.36 -2.34,2.238 -3.5,4.922 -3.5,8.039"
         style="fill:#262626;fill-opacity:1;fill-rule:nonzero;stroke:none"
         id="path140" /><path
         d="m 5779.86,226.289 c -2.18,0 -3.98,0.836 -5.38,2.5 -1.41,1.668 -2.12,3.438 -2.12,5.313 0,1.871 0.71,3.64 2.12,5.308 1.4,1.668 3.2,2.5 5.38,2.5 h 223.75 c 1.98,0 3.65,-0.832 5,-2.5 1.36,-1.668 2.03,-3.437 2.03,-5.308 0,-1.875 -0.67,-3.645 -2.03,-5.313 -1.35,-1.664 -3.02,-2.5 -5,-2.5 h -223.75"
         style="fill:#262626;fill-opacity:1;fill-rule:nonzero;stroke:none"
         id="path142" /><path
         d="m 6194.54,132.23 -18.11,248.43 c -0.84,3.86 -3.68,6.258 -8.52,7.192 -4.84,0.937 -10.81,1.41 -17.89,1.41 -2.61,0 -3.91,1.715 -3.91,5.148 0.94,3.332 1.66,5.602 2.18,6.801 0.53,1.199 1.98,1.801 4.39,1.801 h 92.8 c 2.61,0 3.91,-1.723 3.91,-5.16 -1.04,-5.727 -2.71,-8.59 -5,-8.59 -20.83,0 -31.87,-3.594 -33.12,-10.782 l 13.91,-196.878 97.5,169.847 -1.89,29.211 c -0.93,3.86 -3.79,6.258 -8.59,7.192 -4.79,0.937 -10.78,1.41 -17.97,1.41 -2.6,0 -3.91,1.715 -3.91,5.148 0.84,3.332 1.52,5.602 2.04,6.801 0.52,1.199 2.09,1.801 4.68,1.801 h 92.82 c 2.6,0 3.91,-1.723 3.91,-5.16 -0.21,-0.629 -0.5,-1.696 -0.86,-3.204 -0.37,-1.511 -0.86,-2.789 -1.48,-3.828 -0.63,-1.039 -1.57,-1.558 -2.82,-1.558 -20.93,0 -31.98,-3.594 -33.13,-10.782 v -2.82 l 14.06,-194.058 106.1,185 c 1.46,2.812 2.18,5.57 2.18,8.277 0,5.312 -2.6,9.039 -7.8,11.172 -5.21,2.14 -11.04,3.211 -17.5,3.211 -2.5,0 -3.75,1.715 -3.75,5.148 0.52,2.086 0.93,3.703 1.25,4.852 0.31,1.144 0.88,2.054 1.71,2.726 0.84,0.684 2.09,1.024 3.75,1.024 h 74.38 c 2.5,0 3.75,-1.723 3.75,-5.16 -0.1,-0.629 -0.34,-1.723 -0.7,-3.282 -0.37,-1.558 -0.89,-2.836 -1.57,-3.832 -0.68,-0.984 -1.54,-1.476 -2.57,-1.476 -18.54,0 -32.66,-8.438 -42.34,-25.313 -0.74,-0.734 -1.11,-1.097 -1.11,-1.097 L 6353.14,132.23 c -1.35,-2.812 -3.59,-4.218 -6.71,-4.218 h -2.98 c -3.22,0 -4.84,1.406 -4.84,4.218 l -14.84,200.93 -114.54,-200.93 c -1.98,-2.812 -4.27,-4.218 -6.87,-4.218 h -3.29 c -3.02,0 -4.53,1.406 -4.53,4.218"
         style="fill:#262626;fill-opacity:1;fill-rule:nonzero;stroke:none"
         id="path144" /><path
         d="m 6512.07,95.2617 c 4.89,-8.2344 14.63,-12.3515 29.22,-12.3515 6.24,0 12.23,1.0976 17.96,3.289 5.73,2.1875 10.47,5.4141 14.23,9.6797 3.74,4.2731 5.61,9.4841 5.61,15.6331 0,4.683 -1.66,8.511 -5,11.476 -3.33,2.977 -7.44,4.981 -12.34,6.024 l -14.52,2.968 c -6.67,1.668 -12.17,4.79 -16.5,9.372 -4.32,4.586 -6.48,10.105 -6.48,16.558 0,8.028 2.16,15.11 6.48,21.25 4.33,6.149 10.06,10.863 17.2,14.149 7.13,3.281 14.5,4.921 22.11,4.921 8.22,0 15.57,-1.953 22.03,-5.859 6.45,-3.906 9.68,-9.715 9.68,-17.422 0,-4.164 -1.17,-7.812 -3.52,-10.937 -2.34,-3.129 -5.54,-4.692 -9.6,-4.692 -2.4,0 -4.45,0.758 -6.18,2.27 -1.72,1.508 -2.57,3.461 -2.57,5.859 0,2.082 0.6,4.11 1.8,6.09 1.2,1.981 2.78,3.57 4.77,4.77 1.97,1.195 4,1.793 6.09,1.793 -1.57,3.851 -4.54,6.664 -8.91,8.437 -4.38,1.774 -9.06,2.66 -14.06,2.66 -4.59,0 -9.17,-0.937 -13.75,-2.82 -4.59,-1.871 -8.25,-4.578 -11.02,-8.117 -2.76,-3.543 -4.14,-7.707 -4.14,-12.5 0,-3.336 1.14,-6.227 3.43,-8.672 2.3,-2.453 5.11,-4.199 8.45,-5.238 l 15.78,-3.122 c 5,-1.046 9.58,-2.921 13.75,-5.628 4.16,-2.707 7.44,-6.09 9.84,-10.153 2.39,-4.066 3.59,-8.754 3.59,-14.07 0,-6.664 -1.84,-13.254 -5.55,-19.758 -3.7,-6.5155 -8.31,-11.6991 -13.82,-15.5507 -9.59,-6.4609 -21.3,-9.6914 -35.15,-9.6914 -9.59,0 -18.39,2.1914 -26.41,6.5703 -8.03,4.375 -12.03,10.9336 -12.03,19.6798 0,4.902 1.43,9.176 4.3,12.82 2.86,3.641 6.79,5.461 11.79,5.461 2.81,0 5.21,-0.883 7.19,-2.648 1.97,-1.774 2.97,-4.117 2.97,-7.032 0,-4.066 -1.54,-7.66 -4.61,-10.7808 -3.08,-3.125 -6.64,-4.6875 -10.7,-4.6875 h -1.41"
         style="fill:#262626;fill-opacity:1;fill-rule:nonzero;stroke:none"
         id="path146" /><path
         d="m 6638.39,95.2617 c 4.9,-8.2344 14.64,-12.3515 29.22,-12.3515 6.25,0 12.24,1.0976 17.98,3.289 5.72,2.1875 10.46,5.4141 14.21,9.6797 3.75,4.2731 5.63,9.4841 5.63,15.6331 0,4.683 -1.67,8.511 -5,11.476 -3.34,2.977 -7.45,4.981 -12.34,6.024 l -14.54,2.968 c -6.66,1.668 -12.16,4.79 -16.48,9.372 -4.32,4.586 -6.48,10.105 -6.48,16.558 0,8.028 2.16,15.11 6.48,21.25 4.32,6.149 10.05,10.863 17.18,14.149 7.14,3.281 14.51,4.921 22.11,4.921 8.23,0 15.57,-1.953 22.03,-5.859 6.47,-3.906 9.7,-9.715 9.7,-17.422 0,-4.164 -1.18,-7.812 -3.52,-10.937 -2.34,-3.129 -5.55,-4.692 -9.62,-4.692 -2.39,0 -4.45,0.758 -6.16,2.27 -1.72,1.508 -2.59,3.461 -2.59,5.859 0,2.082 0.6,4.11 1.8,6.09 1.2,1.981 2.79,3.57 4.77,4.77 1.98,1.195 4.01,1.793 6.09,1.793 -1.56,3.851 -4.53,6.664 -8.91,8.437 -4.37,1.774 -9.06,2.66 -14.06,2.66 -4.58,0 -9.16,-0.937 -13.75,-2.82 -4.58,-1.871 -8.26,-4.578 -11.01,-8.117 -2.77,-3.543 -4.15,-7.707 -4.15,-12.5 0,-3.336 1.15,-6.227 3.45,-8.672 2.29,-2.453 5.1,-4.199 8.43,-5.238 l 15.78,-3.122 c 5,-1.046 9.59,-2.921 13.75,-5.628 4.17,-2.707 7.45,-6.09 9.84,-10.153 2.4,-4.066 3.61,-8.754 3.61,-14.07 0,-6.664 -1.86,-13.254 -5.55,-19.758 -3.7,-6.5155 -8.31,-11.6991 -13.84,-15.5507 -9.57,-6.4609 -21.29,-9.6914 -35.15,-9.6914 -9.58,0 -18.39,2.1914 -26.41,6.5703 -8.01,4.375 -12.03,10.9336 -12.03,19.6798 0,4.902 1.43,9.176 4.3,12.82 2.86,3.641 6.79,5.461 11.79,5.461 2.82,0 5.21,-0.883 7.19,-2.648 1.99,-1.774 2.97,-4.117 2.97,-7.032 0,-4.066 -1.53,-7.66 -4.61,-10.7808 -3.07,-3.125 -6.64,-4.6875 -10.7,-4.6875 h -1.41"
         style="fill:#262626;fill-opacity:1;fill-rule:nonzero;stroke:none"
         id="path148" /><path
         d="m 6785.84,39.1016 c -2.29,0 -3.43,1.1445 -3.43,3.4375 0,1.1484 0.26,1.9804 0.79,2.5 44.47,43.4414 66.71,106.4609 66.71,189.0629 0,82.605 -21.98,145.363 -65.93,188.277 -1.05,0.629 -1.57,1.723 -1.57,3.281 0,0.942 0.36,1.75 1.09,2.43 0.73,0.672 1.51,1.012 2.34,1.012 h 3.61 c 0.83,0 1.45,-0.262 1.87,-0.782 18.75,-14.687 34.32,-32.578 46.72,-53.672 12.39,-21.089 21.48,-43.566 27.26,-67.418 5.79,-23.855 8.68,-48.23 8.68,-73.128 0,-18.434 -1.54,-36.559 -4.62,-54.372 -3.07,-17.812 -8.02,-35.394 -14.84,-52.742 -6.82,-17.34 -15.45,-33.3278 -25.86,-47.9685 -10.42,-14.6328 -22.87,-27.6797 -37.34,-39.1406 -0.42,-0.5195 -1.04,-0.7773 -1.87,-0.7773 h -3.61"
         style="fill:#262626;fill-opacity:1;fill-rule:nonzero;stroke:none"
         id="path150" /><path
         d="M 1450,980 V 5880"
         style="fill:none;stroke:#262626;stroke-width:5;stroke-linecap:square;stroke-linejoin:round;stroke-miterlimit:10;stroke-dasharray:none;stroke-opacity:1"
         id="path152" /><path
         d="m 1450,1362.86 h 86.2"
         style="fill:none;stroke:#262626;stroke-width:5;stroke-linecap:square;stroke-linejoin:round;stroke-miterlimit:10;stroke-dasharray:none;stroke-opacity:1"
         id="path154" /><path
         d="m 1450,3610.61 h 86.2"
         style="fill:none;stroke:#262626;stroke-width:5;stroke-linecap:square;stroke-linejoin:round;stroke-miterlimit:10;stroke-dasharray:none;stroke-opacity:1"
         id="path156" /><path
         d="m 1450,5858.35 h 86.2"
         style="fill:none;stroke:#262626;stroke-width:5;stroke-linecap:square;stroke-linejoin:round;stroke-miterlimit:10;stroke-dasharray:none;stroke-opacity:1"
         id="path158" /><path
         d="m 1450,1024.54 h 43.1"
         style="fill:none;stroke:#262626;stroke-width:5;stroke-linecap:square;stroke-linejoin:round;stroke-miterlimit:10;stroke-dasharray:none;stroke-opacity:1"
         id="path160" /><path
         d="m 1450,1113.53 h 43.1"
         style="fill:none;stroke:#262626;stroke-width:5;stroke-linecap:square;stroke-linejoin:round;stroke-miterlimit:10;stroke-dasharray:none;stroke-opacity:1"
         id="path162" /><path
         d="m 1450,1188.77 h 43.1"
         style="fill:none;stroke:#262626;stroke-width:5;stroke-linecap:square;stroke-linejoin:round;stroke-miterlimit:10;stroke-dasharray:none;stroke-opacity:1"
         id="path164" /><path
         d="m 1450,1253.94 h 43.1"
         style="fill:none;stroke:#262626;stroke-width:5;stroke-linecap:square;stroke-linejoin:round;stroke-miterlimit:10;stroke-dasharray:none;stroke-opacity:1"
         id="path166" /><path
         d="m 1450,1311.43 h 43.1"
         style="fill:none;stroke:#262626;stroke-width:5;stroke-linecap:square;stroke-linejoin:round;stroke-miterlimit:10;stroke-dasharray:none;stroke-opacity:1"
         id="path168" /><path
         d="m 1450,1362.86 h 43.1"
         style="fill:none;stroke:#262626;stroke-width:5;stroke-linecap:square;stroke-linejoin:round;stroke-miterlimit:10;stroke-dasharray:none;stroke-opacity:1"
         id="path170" /><path
         d="m 1450,1701.18 h 43.1"
         style="fill:none;stroke:#262626;stroke-width:5;stroke-linecap:square;stroke-linejoin:round;stroke-miterlimit:10;stroke-dasharray:none;stroke-opacity:1"
         id="path172" /><path
         d="m 1450,1899.08 h 43.1"
         style="fill:none;stroke:#262626;stroke-width:5;stroke-linecap:square;stroke-linejoin:round;stroke-miterlimit:10;stroke-dasharray:none;stroke-opacity:1"
         id="path174" /><path
         d="m 1450,2039.5 h 43.1"
         style="fill:none;stroke:#262626;stroke-width:5;stroke-linecap:square;stroke-linejoin:round;stroke-miterlimit:10;stroke-dasharray:none;stroke-opacity:1"
         id="path176" /><path
         d="m 1450,2148.41 h 43.1"
         style="fill:none;stroke:#262626;stroke-width:5;stroke-linecap:square;stroke-linejoin:round;stroke-miterlimit:10;stroke-dasharray:none;stroke-opacity:1"
         id="path178" /><path
         d="m 1450,2237.4 h 43.1"
         style="fill:none;stroke:#262626;stroke-width:5;stroke-linecap:square;stroke-linejoin:round;stroke-miterlimit:10;stroke-dasharray:none;stroke-opacity:1"
         id="path180" /><path
         d="m 1450,2312.64 h 43.1"
         style="fill:none;stroke:#262626;stroke-width:5;stroke-linecap:square;stroke-linejoin:round;stroke-miterlimit:10;stroke-dasharray:none;stroke-opacity:1"
         id="path182" /><path
         d="m 1450,2377.82 h 43.1"
         style="fill:none;stroke:#262626;stroke-width:5;stroke-linecap:square;stroke-linejoin:round;stroke-miterlimit:10;stroke-dasharray:none;stroke-opacity:1"
         id="path184" /><path
         d="m 1450,2435.31 h 43.1"
         style="fill:none;stroke:#262626;stroke-width:5;stroke-linecap:square;stroke-linejoin:round;stroke-miterlimit:10;stroke-dasharray:none;stroke-opacity:1"
         id="path186" /><path
         d="m 1450,2486.73 h 43.1"
         style="fill:none;stroke:#262626;stroke-width:5;stroke-linecap:square;stroke-linejoin:round;stroke-miterlimit:10;stroke-dasharray:none;stroke-opacity:1"
         id="path188" /><path
         d="m 1450,2825.05 h 43.1"
         style="fill:none;stroke:#262626;stroke-width:5;stroke-linecap:square;stroke-linejoin:round;stroke-miterlimit:10;stroke-dasharray:none;stroke-opacity:1"
         id="path190" /><path
         d="m 1450,3022.96 h 43.1"
         style="fill:none;stroke:#262626;stroke-width:5;stroke-linecap:square;stroke-linejoin:round;stroke-miterlimit:10;stroke-dasharray:none;stroke-opacity:1"
         id="path192" /><path
         d="m 1450,3163.37 h 43.1"
         style="fill:none;stroke:#262626;stroke-width:5;stroke-linecap:square;stroke-linejoin:round;stroke-miterlimit:10;stroke-dasharray:none;stroke-opacity:1"
         id="path194" /><path
         d="m 1450,3272.29 h 43.1"
         style="fill:none;stroke:#262626;stroke-width:5;stroke-linecap:square;stroke-linejoin:round;stroke-miterlimit:10;stroke-dasharray:none;stroke-opacity:1"
         id="path196" /><path
         d="m 1450,3361.28 h 43.1"
         style="fill:none;stroke:#262626;stroke-width:5;stroke-linecap:square;stroke-linejoin:round;stroke-miterlimit:10;stroke-dasharray:none;stroke-opacity:1"
         id="path198" /><path
         d="m 1450,3436.51 h 43.1"
         style="fill:none;stroke:#262626;stroke-width:5;stroke-linecap:square;stroke-linejoin:round;stroke-miterlimit:10;stroke-dasharray:none;stroke-opacity:1"
         id="path200" /><path
         d="m 1450,3501.69 h 43.1"
         style="fill:none;stroke:#262626;stroke-width:5;stroke-linecap:square;stroke-linejoin:round;stroke-miterlimit:10;stroke-dasharray:none;stroke-opacity:1"
         id="path202" /><path
         d="m 1450,3559.18 h 43.1"
         style="fill:none;stroke:#262626;stroke-width:5;stroke-linecap:square;stroke-linejoin:round;stroke-miterlimit:10;stroke-dasharray:none;stroke-opacity:1"
         id="path204" /><path
         d="m 1450,3610.61 h 43.1"
         style="fill:none;stroke:#262626;stroke-width:5;stroke-linecap:square;stroke-linejoin:round;stroke-miterlimit:10;stroke-dasharray:none;stroke-opacity:1"
         id="path206" /><path
         d="m 1450,3948.93 h 43.1"
         style="fill:none;stroke:#262626;stroke-width:5;stroke-linecap:square;stroke-linejoin:round;stroke-miterlimit:10;stroke-dasharray:none;stroke-opacity:1"
         id="path208" /><path
         d="m 1450,4146.83 h 43.1"
         style="fill:none;stroke:#262626;stroke-width:5;stroke-linecap:square;stroke-linejoin:round;stroke-miterlimit:10;stroke-dasharray:none;stroke-opacity:1"
         id="path210" /><path
         d="m 1450,4287.25 h 43.1"
         style="fill:none;stroke:#262626;stroke-width:5;stroke-linecap:square;stroke-linejoin:round;stroke-miterlimit:10;stroke-dasharray:none;stroke-opacity:1"
         id="path212" /><path
         d="m 1450,4396.16 h 43.1"
         style="fill:none;stroke:#262626;stroke-width:5;stroke-linecap:square;stroke-linejoin:round;stroke-miterlimit:10;stroke-dasharray:none;stroke-opacity:1"
         id="path214" /><path
         d="m 1450,4485.15 h 43.1"
         style="fill:none;stroke:#262626;stroke-width:5;stroke-linecap:square;stroke-linejoin:round;stroke-miterlimit:10;stroke-dasharray:none;stroke-opacity:1"
         id="path216" /><path
         d="m 1450,4560.39 h 43.1"
         style="fill:none;stroke:#262626;stroke-width:5;stroke-linecap:square;stroke-linejoin:round;stroke-miterlimit:10;stroke-dasharray:none;stroke-opacity:1"
         id="path218" /><path
         d="m 1450,4625.57 h 43.1"
         style="fill:none;stroke:#262626;stroke-width:5;stroke-linecap:square;stroke-linejoin:round;stroke-miterlimit:10;stroke-dasharray:none;stroke-opacity:1"
         id="path220" /><path
         d="m 1450,4683.05 h 43.1"
         style="fill:none;stroke:#262626;stroke-width:5;stroke-linecap:square;stroke-linejoin:round;stroke-miterlimit:10;stroke-dasharray:none;stroke-opacity:1"
         id="path222" /><path
         d="m 1450,4734.48 h 43.1"
         style="fill:none;stroke:#262626;stroke-width:5;stroke-linecap:square;stroke-linejoin:round;stroke-miterlimit:10;stroke-dasharray:none;stroke-opacity:1"
         id="path224" /><path
         d="m 1450,5072.8 h 43.1"
         style="fill:none;stroke:#262626;stroke-width:5;stroke-linecap:square;stroke-linejoin:round;stroke-miterlimit:10;stroke-dasharray:none;stroke-opacity:1"
         id="path226" /><path
         d="m 1450,5270.7 h 43.1"
         style="fill:none;stroke:#262626;stroke-width:5;stroke-linecap:square;stroke-linejoin:round;stroke-miterlimit:10;stroke-dasharray:none;stroke-opacity:1"
         id="path228" /><path
         d="m 1450,5411.12 h 43.1"
         style="fill:none;stroke:#262626;stroke-width:5;stroke-linecap:square;stroke-linejoin:round;stroke-miterlimit:10;stroke-dasharray:none;stroke-opacity:1"
         id="path230" /><path
         d="m 1450,5520.03 h 43.1"
         style="fill:none;stroke:#262626;stroke-width:5;stroke-linecap:square;stroke-linejoin:round;stroke-miterlimit:10;stroke-dasharray:none;stroke-opacity:1"
         id="path232" /><path
         d="m 1450,5609.02 h 43.1"
         style="fill:none;stroke:#262626;stroke-width:5;stroke-linecap:square;stroke-linejoin:round;stroke-miterlimit:10;stroke-dasharray:none;stroke-opacity:1"
         id="path234" /><path
         d="m 1450,5684.26 h 43.1"
         style="fill:none;stroke:#262626;stroke-width:5;stroke-linecap:square;stroke-linejoin:round;stroke-miterlimit:10;stroke-dasharray:none;stroke-opacity:1"
         id="path236" /><path
         d="m 1450,5749.44 h 43.1"
         style="fill:none;stroke:#262626;stroke-width:5;stroke-linecap:square;stroke-linejoin:round;stroke-miterlimit:10;stroke-dasharray:none;stroke-opacity:1"
         id="path238" /><path
         d="m 1450,5806.93 h 43.1"
         style="fill:none;stroke:#262626;stroke-width:5;stroke-linecap:square;stroke-linejoin:round;stroke-miterlimit:10;stroke-dasharray:none;stroke-opacity:1"
         id="path240" /><path
         d="m 1450,5858.35 h 43.1"
         style="fill:none;stroke:#262626;stroke-width:5;stroke-linecap:square;stroke-linejoin:round;stroke-miterlimit:10;stroke-dasharray:none;stroke-opacity:1"
         id="path242" /><g
         id="g244"
         transform="scale(10)"><text
           transform="matrix(1,0,0,-1,73,119)"
           style="font-variant:normal;font-weight:normal;font-size:35px;font-family:Helvetica;-inkscape-font-specification:Helvetica;writing-mode:lr-tb;fill:#262626;fill-opacity:1;fill-rule:nonzero;stroke:none"
           id="text248"><tspan
             x="0 19.459999"
             y="0"
             sodipodi:role="line"
             id="tspan246">10</tspan></text><text
           transform="matrix(1,0,0,-1,118,136)"
           style="font-variant:normal;font-weight:normal;font-size:28px;font-family:Helvetica;-inkscape-font-specification:Helvetica;writing-mode:lr-tb;fill:#262626;fill-opacity:1;fill-rule:nonzero;stroke:none"
           id="text252"><tspan
             x="0"
             y="0"
             id="tspan250">2</tspan></text><text
           transform="matrix(1,0,0,-1,73,344)"
           style="font-variant:normal;font-weight:normal;font-size:35px;font-family:Helvetica;-inkscape-font-specification:Helvetica;writing-mode:lr-tb;fill:#262626;fill-opacity:1;fill-rule:nonzero;stroke:none"
           id="text256"><tspan
             x="0 19.459999"
             y="0"
             sodipodi:role="line"
             id="tspan254">10</tspan></text><text
           transform="matrix(1,0,0,-1,118,361)"
           style="font-variant:normal;font-weight:normal;font-size:28px;font-family:Helvetica;-inkscape-font-specification:Helvetica;writing-mode:lr-tb;fill:#262626;fill-opacity:1;fill-rule:nonzero;stroke:none"
           id="text260"><tspan
             x="0"
             y="0"
             id="tspan258">4</tspan></text><text
           transform="matrix(1,0,0,-1,73,569)"
           style="font-variant:normal;font-weight:normal;font-size:35px;font-family:Helvetica;-inkscape-font-specification:Helvetica;writing-mode:lr-tb;fill:#262626;fill-opacity:1;fill-rule:nonzero;stroke:none"
           id="text264"><tspan
             x="0 19.459999"
             y="0"
             sodipodi:role="line"
             id="tspan262">10</tspan></text><text
           transform="matrix(1,0,0,-1,118,586)"
           style="font-variant:normal;font-weight:normal;font-size:28px;font-family:Helvetica;-inkscape-font-specification:Helvetica;writing-mode:lr-tb;fill:#262626;fill-opacity:1;fill-rule:nonzero;stroke:none"
           id="text268"><tspan
             x="0"
             y="0"
             id="tspan266">6</tspan></text></g><path
         d="m 514.52,1994.55 h -107.5 v -32.35 h -10.149 c 0,16.98 -7.945,29.46 -23.832,37.42 -15.887,7.98 -33.098,11.96 -51.641,11.96 v 11.25 h 71.872 v 55.15 h 13.75 v -55.15 h 106.718 c 10.836,0 20.317,1.83 28.442,5.47 8.129,3.64 12.191,10.15 12.191,19.53 0,8.86 -4.297,15.26 -12.891,19.22 -8.593,3.96 -17.839,5.93 -27.742,5.93 H 490.77 v 11.25 h 23.75 c 8.128,0 16.171,-1.51 24.14,-4.53 7.973,-3.02 14.488,-7.45 19.539,-13.28 5.047,-5.83 7.571,-12.92 7.571,-21.25 0,-15.62 -4.661,-27.97 -13.981,-37.03 -9.324,-9.06 -21.75,-13.59 -37.269,-13.59"
         style="fill:#262626;fill-opacity:1;fill-rule:nonzero;stroke:none"
         id="path270" /><path
         d="m 561.398,2114.58 h -13.75 c 0,8.86 -0.703,16.15 -2.109,21.88 -1.406,5.73 -4.82,8.59 -10.238,8.59 H 428.898 c -6.976,0 -12.031,-1.07 -15.16,-3.2 -3.125,-2.14 -5.023,-5.16 -5.699,-9.07 -0.68,-3.9 -1.019,-9.97 -1.019,-18.2 h -13.75 l -4.219,55.78 h 38.129 c -11.352,4.17 -20.547,10.13 -27.578,17.89 -7.036,7.76 -10.551,17.16 -10.551,28.21 0,7.71 2.293,14.61 6.879,20.7 4.582,6.1 10.621,9.14 18.121,9.14 4.691,0 8.781,-1.69 12.269,-5.08 3.489,-3.38 5.231,-7.52 5.231,-12.42 0,-4.79 -1.719,-8.91 -5.153,-12.34 -3.437,-3.44 -7.554,-5.16 -12.347,-5.16 -6.973,0 -11.922,2.45 -14.84,7.34 v -2.18 c 0,-10.62 3.801,-19.25 11.41,-25.86 7.598,-6.62 17.051,-11.33 28.359,-14.14 11.301,-2.81 22.106,-4.22 32.418,-4.22 h 63.903 c 8.234,0 12.347,12.61 12.347,37.81 h 13.75 v -95.47"
         style="fill:#262626;fill-opacity:1;fill-rule:nonzero;stroke:none"
         id="path272" /><path
         d="m 658.121,2376.15 c -11.461,-14.47 -24.586,-26.94 -39.383,-37.42 -14.793,-10.46 -30.547,-19.03 -47.258,-25.7 -16.718,-6.66 -34.218,-11.64 -52.5,-14.92 -18.289,-3.28 -36.648,-4.92 -55.082,-4.92 -18.644,0 -37.109,1.64 -55.386,4.92 -18.282,3.28 -35.864,8.31 -52.742,15.08 -16.872,6.77 -32.68,15.44 -47.418,26.01 -14.743,10.58 -27.633,22.89 -38.672,36.95 -0.52,0 -0.782,0.63 -0.782,1.88 v 3.59 c 0,0.84 0.34,1.57 1.012,2.19 0.68,0.63 1.488,0.94 2.43,0.94 1.14,0 1.973,-0.26 2.5,-0.78 12.394,-12.71 25.699,-23.28 39.922,-31.72 14.218,-8.44 29.375,-15.23 45.468,-20.39 16.094,-5.16 32.735,-8.88 49.918,-11.17 17.188,-2.29 35.106,-3.44 53.75,-3.44 82.602,0 145.364,22.09 188.282,66.25 0.832,0.84 1.925,1.25 3.281,1.25 0.625,0 1.355,-0.36 2.187,-1.1 0.836,-0.72 1.25,-1.4 1.25,-2.03 v -3.59 c 0,-1.25 -0.257,-1.88 -0.777,-1.88"
         style="fill:#262626;fill-opacity:1;fill-rule:nonzero;stroke:none"
         id="path274" /><path
         d="m 561.398,2420.25 h -19.847 v 42.03 H 313.898 v -42.03 h -20 v 160.31 c 0,13.03 1.356,25.61 4.063,37.74 2.707,12.14 7.082,23.33 13.129,33.59 6.039,10.26 14.109,18.55 24.211,24.85 10.105,6.3 21.929,9.45 35.469,9.45 17.605,0 31.984,-5.28 43.128,-15.86 11.149,-10.57 19.168,-23.96 24.063,-40.16 4.891,-16.19 7.34,-32.73 7.34,-49.61 v -61.4 h 96.25 v 42.19 h 19.847 z m -133.75,96.72 v 48.28 c 0,15.52 -1.613,27.53 -4.847,36.02 -3.227,8.49 -8.879,14.55 -16.949,18.2 -8.075,3.65 -19.77,5.47 -35.082,5.47 -15.207,0 -26.895,-1.74 -35.071,-5.24 -8.179,-3.49 -13.859,-9.55 -17.039,-18.2 -3.172,-8.64 -4.762,-20.73 -4.762,-36.25 v -48.28 h 113.75"
         style="fill:#262626;fill-opacity:1;fill-rule:nonzero;stroke:none"
         id="path276" /><path
         d="m 658.121,2828.53 c -11.461,-14.48 -24.586,-26.95 -39.383,-37.42 -14.793,-10.47 -30.547,-19.04 -47.258,-25.71 -16.718,-6.67 -34.218,-11.64 -52.5,-14.92 -18.289,-3.28 -36.648,-4.92 -55.082,-4.92 -18.644,0 -37.109,1.64 -55.386,4.92 -18.282,3.28 -35.864,8.31 -52.742,15.08 -16.872,6.78 -32.68,15.44 -47.418,26.01 -14.743,10.57 -27.633,22.89 -38.672,36.96 -0.52,0 -0.782,0.63 -0.782,1.87 v 3.6 c 0,0.84 0.34,1.56 1.012,2.18 0.68,0.63 1.488,0.94 2.43,0.94 1.14,0 1.973,-0.26 2.5,-0.78 12.394,-12.7 25.699,-23.28 39.922,-31.72 14.218,-8.43 29.375,-15.23 45.468,-20.39 16.094,-5.15 32.735,-8.87 49.918,-11.17 17.188,-2.29 35.106,-3.44 53.75,-3.44 82.602,0 145.364,22.09 188.282,66.25 0.832,0.84 1.925,1.25 3.281,1.25 0.625,0 1.355,-0.36 2.187,-1.09 0.836,-0.73 1.25,-1.41 1.25,-2.03 v -3.6 c 0,-1.24 -0.257,-1.87 -0.777,-1.87"
         style="fill:#262626;fill-opacity:1;fill-rule:nonzero;stroke:none"
         id="path278" /><path
         d="m 555.461,2918.09 c -1.773,0 -3.18,0.16 -4.223,0.47 l -133.75,40.94 v -35.16 c 0,-9.47 2.973,-18.35 8.91,-26.64 5.934,-8.28 13.485,-15.13 22.653,-20.54 1.047,-0.52 1.57,-1.3 1.57,-2.35 v -4.53 c 0,-2.39 -1.305,-3.59 -3.91,-3.59 -0.52,0 -1.25,0.26 -2.191,0.78 -14.481,8.44 -26.641,17.53 -36.481,27.26 -9.848,9.74 -14.769,20.71 -14.769,32.9 v 119.53 c 0,2.82 0.941,5.16 2.82,7.03 1.875,1.88 4.219,2.81 7.031,2.81 3.852,0 7.211,-1.35 10.078,-4.06 2.86,-2.71 4.289,-6.04 4.289,-10 v -70.63 l 134.532,-26.09 c 4.168,-1.04 7.628,-2.94 10.39,-5.7 2.762,-2.76 4.141,-6.33 4.141,-10.71 0,-3.22 -1.039,-5.99 -3.121,-8.28 -2.086,-2.29 -4.742,-3.44 -7.969,-3.44"
         style="fill:#262626;fill-opacity:1;fill-rule:nonzero;stroke:none"
         id="path280" /><path
         d="M 651.871,3115.6 H 275.93 c -1.981,0 -3.645,0.79 -5,2.35 -1.352,1.56 -2.032,3.39 -2.032,5.47 0,1.97 0.68,3.77 2.032,5.39 1.355,1.62 3.019,2.42 5,2.42 h 375.941 c 1.981,0 3.645,-0.8 5,-2.42 1.352,-1.62 2.027,-3.42 2.027,-5.39 0,-2.08 -0.675,-3.91 -2.027,-5.47 -1.355,-1.56 -3.019,-2.35 -5,-2.35"
         style="fill:#262626;fill-opacity:1;fill-rule:nonzero;stroke:none"
         id="path282" /><path
         d="m 555.461,3236.92 c -1.773,0 -3.18,0.16 -4.223,0.47 l -133.75,40.94 v -35.16 c 0,-9.48 2.973,-18.36 8.91,-26.64 5.934,-8.28 13.485,-15.12 22.653,-20.54 1.047,-0.53 1.57,-1.31 1.57,-2.35 v -4.53 c 0,-2.39 -1.305,-3.59 -3.91,-3.59 -0.52,0 -1.25,0.26 -2.191,0.78 -14.481,8.43 -26.641,17.52 -36.481,27.26 -9.848,9.74 -14.769,20.71 -14.769,32.89 v 119.54 c 0,2.81 0.941,5.15 2.82,7.03 1.875,1.87 4.219,2.81 7.031,2.81 3.852,0 7.211,-1.35 10.078,-4.06 2.86,-2.71 4.289,-6.04 4.289,-10 v -70.63 l 134.532,-26.09 c 4.168,-1.04 7.628,-2.94 10.39,-5.71 2.762,-2.76 4.141,-6.32 4.141,-10.7 0,-3.23 -1.039,-5.98 -3.121,-8.28 -2.086,-2.29 -4.742,-3.44 -7.969,-3.44"
         style="fill:#262626;fill-opacity:1;fill-rule:nonzero;stroke:none"
         id="path284" /><path
         d="M 651.871,3434.43 H 275.93 c -1.981,0 -3.645,0.78 -5,2.35 -1.352,1.56 -2.032,3.38 -2.032,5.46 0,1.98 0.68,3.78 2.032,5.4 1.355,1.61 3.019,2.42 5,2.42 h 375.941 c 1.981,0 3.645,-0.81 5,-2.42 1.352,-1.62 2.027,-3.42 2.027,-5.4 0,-2.08 -0.675,-3.9 -2.027,-5.46 -1.355,-1.57 -3.019,-2.35 -5,-2.35"
         style="fill:#262626;fill-opacity:1;fill-rule:nonzero;stroke:none"
         id="path286" /><path
         d="m 554.371,3515.75 c -1.566,0 -2.715,0.11 -3.441,0.31 l -225.469,56.57 c -4.481,1.04 -7.973,1.67 -10.473,1.87 -4.164,0 -6.25,-8.43 -6.25,-25.31 0,-2.6 -1.715,-3.91 -5.148,-3.91 -0.625,0.11 -1.774,0.4 -3.442,0.86 -1.664,0.48 -2.941,1.05 -3.828,1.72 -0.886,0.68 -1.332,1.64 -1.332,2.89 l -4.218,52.5 v 1.25 c 0.312,0 0.679,0.45 1.101,1.33 0.414,0.89 0.672,1.38 0.777,1.48 1.356,0.53 2.395,0.79 3.122,0.79 l 162.968,-40.94 c -3.957,9.38 -13.332,21.2 -28.117,35.47 -14.793,14.27 -25.422,25.44 -31.883,33.51 -6.457,8.07 -9.687,18.21 -9.687,30.39 0,7.29 2.476,13.47 7.429,18.52 4.946,5.06 11.067,7.58 18.36,7.58 4.473,0 8.664,-0.94 12.57,-2.82 3.906,-1.87 7.059,-4.52 9.461,-7.96 2.391,-3.44 3.59,-7.45 3.59,-12.04 0,-4.17 -1.305,-7.68 -3.91,-10.54 -2.602,-2.86 -5.985,-4.3 -10.153,-4.3 -6.25,0 -11.484,2.19 -15.699,6.56 -4.219,4.38 -6.328,9.7 -6.328,15.94 -3.441,-2.6 -5.16,-6.51 -5.16,-11.72 0,-7.7 2.211,-15.15 6.641,-22.34 4.425,-7.18 10.804,-14.92 19.136,-23.21 8.336,-8.28 15.938,-15.85 22.813,-22.73 6.879,-6.87 12.14,-13.22 15.789,-19.06 1.765,15.32 5.777,28.62 12.031,39.92 6.246,11.3 15.879,16.95 28.899,16.95 2.605,0 5.941,-0.52 10,-1.56 9.793,-2.18 17.605,-3.28 23.441,-3.28 11.664,0 17.5,3.96 17.5,11.87 0,9.48 -5.133,16.65 -15.391,21.49 -10.261,4.84 -22.265,8.88 -36.019,12.11 -1.453,0.52 -2.18,1.62 -2.18,3.28 v 4.53 c 0,1.04 0.309,1.9 0.93,2.58 0.625,0.68 1.41,1.01 2.347,1.01 0.317,0 0.731,-0.1 1.25,-0.31 39.582,-9.79 59.372,-24.95 59.372,-45.47 0,-7.28 -1.715,-13.77 -5.149,-19.45 -3.441,-5.68 -8.105,-10.03 -13.992,-13.05 -5.887,-3.02 -12.527,-4.53 -19.918,-4.53 -4.168,0 -8.492,0.57 -12.973,1.72 -3.019,0.73 -5.883,1.09 -8.59,1.09 -10,0 -17.601,-4.45 -22.808,-13.36 -5.215,-8.9 -8.395,-19.03 -9.539,-30.39 l 79.687,-19.84 c 3.856,-1.04 7.032,-3.02 9.532,-5.94 2.5,-2.91 3.75,-6.24 3.75,-10 0,-3.33 -1.122,-6.17 -3.36,-8.51 -2.238,-2.34 -4.922,-3.52 -8.039,-3.52"
         style="fill:#262626;fill-opacity:1;fill-rule:nonzero;stroke:none"
         id="path288" /><path
         d="m 509.52,3843.84 c 0,-2.18 -0.805,-3.98 -2.418,-5.39 -1.614,-1.4 -3.36,-2.11 -5.231,-2.11 -2.187,0 -4.039,0.71 -5.551,2.11 -1.511,1.41 -2.269,3.21 -2.269,5.39 v 244.84 c 0,1.88 0.758,3.53 2.269,4.93 1.512,1.4 3.364,2.1 5.551,2.1 1.871,0 3.617,-0.7 5.231,-2.1 1.613,-1.4 2.418,-3.05 2.418,-4.93 z m -75.782,0 c 0,-2.18 -0.75,-3.98 -2.258,-5.39 -1.515,-1.4 -3.363,-2.11 -5.55,-2.11 -1.871,0 -3.645,0.71 -5.309,2.11 -1.668,1.41 -2.5,3.21 -2.5,5.39 v 244.84 c 0,1.88 0.832,3.53 2.5,4.93 1.664,1.4 3.438,2.1 5.309,2.1 2.187,0 4.035,-0.7 5.55,-2.1 1.508,-1.4 2.258,-3.05 2.258,-4.93 v -244.84"
         style="fill:#262626;fill-opacity:1;fill-rule:nonzero;stroke:none"
         id="path290" /><path
         d="m 531.238,4258.04 c 8.961,6.04 15.602,14.22 19.922,24.53 4.328,10.32 6.488,21.36 6.488,33.13 0,15.1 -6.457,25.83 -19.378,32.18 -12.915,6.35 -27.547,9.53 -43.899,9.53 -7.402,0 -14.769,-0.68 -22.109,-2.03 -7.348,-1.35 -14.199,-3.61 -20.551,-6.79 -6.356,-3.18 -11.43,-7.53 -15.231,-13.05 -3.808,-5.52 -5.71,-12.24 -5.71,-20.16 v -25.93 c 0,-2.29 -1.196,-3.44 -3.59,-3.44 h -3.442 c -2.078,0 -3.117,1.15 -3.117,3.44 l -1.723,21.4 c 0,9.17 -3.41,16.77 -10.238,22.81 -6.82,6.05 -15.152,10.48 -25,13.29 -9.84,2.81 -19.187,4.21 -28.039,4.21 -12.5,0 -22.738,-2.91 -30.711,-8.75 -7.965,-5.83 -11.949,-14.73 -11.949,-26.71 0,-9.9 1.848,-19.35 5.551,-28.36 3.691,-9.01 9.394,-16.18 17.109,-21.49 -0.215,0.52 -0.344,0.97 -0.391,1.33 -0.054,0.37 -0.082,0.81 -0.082,1.33 0,5.84 2.032,10.7 6.09,14.61 4.071,3.91 8.965,5.86 14.692,5.86 5.629,0 10.468,-1.95 14.531,-5.86 4.059,-3.91 6.09,-8.77 6.09,-14.61 0,-5.73 -2.031,-10.63 -6.09,-14.69 -4.063,-4.06 -8.902,-6.09 -14.531,-6.09 -11.145,0 -20.86,3.36 -29.141,10.08 -8.277,6.72 -14.527,15.39 -18.75,26.01 -4.219,10.63 -6.328,21.25 -6.328,31.88 0,7.92 1.172,16.25 3.519,25 2.34,8.75 5.696,16.67 10.071,23.75 4.379,7.08 9.98,12.89 16.801,17.42 6.824,4.53 14.664,6.79 23.519,6.79 10.832,0 20.883,-2.45 30.149,-7.34 9.273,-4.89 17.269,-11.59 23.992,-20.08 6.718,-8.49 11.746,-17.83 15.078,-28.04 2.187,11.35 6.457,22.11 12.808,32.26 6.356,10.16 14.477,18.31 24.372,24.45 9.902,6.15 20.578,9.22 32.031,9.22 14.273,0 27.215,-3.93 38.828,-11.79 11.613,-7.86 20.703,-18.23 27.269,-31.1 6.563,-12.86 9.84,-26.37 9.84,-40.54 0,-12.19 -2.316,-24.4 -6.949,-36.64 -4.633,-12.24 -11.586,-22.26 -20.859,-30.08 -9.274,-7.81 -20.367,-11.72 -33.282,-11.72 -6.566,0 -11.98,2.16 -16.25,6.48 -4.273,4.33 -6.41,9.72 -6.41,16.17 0,4.17 0.965,8 2.891,11.49 1.93,3.49 4.687,6.22 8.281,8.2 3.594,1.98 7.422,2.97 11.488,2.97 6.356,0 11.668,-2.21 15.942,-6.64 4.265,-4.43 6.398,-9.77 6.398,-16.02 v -1.87"
         style="fill:#262626;fill-opacity:1;fill-rule:nonzero;stroke:none"
         id="path292" /><path
         d="m 531.238,4450.54 c 8.961,6.04 15.602,14.22 19.922,24.53 4.328,10.32 6.488,21.36 6.488,33.13 0,15.1 -6.457,25.83 -19.378,32.18 -12.915,6.36 -27.547,9.54 -43.899,9.54 -7.402,0 -14.769,-0.68 -22.109,-2.04 -7.348,-1.35 -14.199,-3.61 -20.551,-6.79 -6.356,-3.18 -11.43,-7.53 -15.231,-13.05 -3.808,-5.52 -5.71,-12.24 -5.71,-20.16 v -25.93 c 0,-2.29 -1.196,-3.44 -3.59,-3.44 h -3.442 c -2.078,0 -3.117,1.15 -3.117,3.44 l -1.723,21.4 c 0,9.17 -3.41,16.78 -10.238,22.82 -6.82,6.04 -15.152,10.47 -25,13.28 -9.84,2.82 -19.187,4.22 -28.039,4.22 -12.5,0 -22.738,-2.92 -30.711,-8.75 -7.965,-5.83 -11.949,-14.74 -11.949,-26.72 0,-9.9 1.848,-19.35 5.551,-28.36 3.691,-9.01 9.394,-16.18 17.109,-21.49 -0.215,0.52 -0.344,0.97 -0.391,1.33 -0.054,0.37 -0.082,0.81 -0.082,1.33 0,5.84 2.032,10.7 6.09,14.61 4.071,3.91 8.965,5.86 14.692,5.86 5.629,0 10.468,-1.95 14.531,-5.86 4.059,-3.91 6.09,-8.77 6.09,-14.61 0,-5.72 -2.031,-10.62 -6.09,-14.69 -4.063,-4.06 -8.902,-6.09 -14.531,-6.09 -11.145,0 -20.86,3.36 -29.141,10.08 -8.277,6.72 -14.527,15.39 -18.75,26.01 -4.219,10.63 -6.328,21.25 -6.328,31.88 0,7.92 1.172,16.25 3.519,25 2.34,8.75 5.696,16.67 10.071,23.75 4.379,7.08 9.98,12.89 16.801,17.42 6.824,4.54 14.664,6.8 23.519,6.8 10.832,0 20.883,-2.45 30.149,-7.35 9.273,-4.89 17.269,-11.59 23.992,-20.08 6.718,-8.49 11.746,-17.83 15.078,-28.04 2.187,11.35 6.457,22.11 12.808,32.26 6.356,10.16 14.477,18.32 24.372,24.46 9.902,6.14 20.578,9.21 32.031,9.21 14.273,0 27.215,-3.93 38.828,-11.79 11.613,-7.86 20.703,-18.23 27.269,-31.1 6.563,-12.86 9.84,-26.37 9.84,-40.54 0,-12.18 -2.316,-24.4 -6.949,-36.64 -4.633,-12.24 -11.586,-22.26 -20.859,-30.08 -9.274,-7.81 -20.367,-11.72 -33.282,-11.72 -6.566,0 -11.98,2.16 -16.25,6.48 -4.273,4.33 -6.41,9.72 -6.41,16.18 0,4.17 0.965,7.99 2.891,11.48 1.93,3.49 4.687,6.22 8.281,8.2 3.594,1.98 7.422,2.97 11.488,2.97 6.356,0 11.668,-2.21 15.942,-6.64 4.265,-4.43 6.398,-9.76 6.398,-16.01 v -1.88"
         style="fill:#262626;fill-opacity:1;fill-rule:nonzero;stroke:none"
         id="path294" /><path
         d="m 658.898,4631.17 c 0,-2.29 -1.144,-3.44 -3.437,-3.44 -1.148,0 -1.981,0.26 -2.5,0.78 -43.441,44.48 -106.461,66.72 -189.063,66.72 -82.605,0 -145.363,-21.98 -188.277,-65.94 -0.629,-1.04 -1.723,-1.56 -3.281,-1.56 -0.942,0 -1.75,0.37 -2.43,1.09 -0.672,0.73 -1.012,1.52 -1.012,2.35 v 3.59 c 0,0.84 0.262,1.46 0.782,1.87 14.687,18.76 32.578,34.33 53.672,46.72 21.089,12.4 43.566,21.49 67.418,27.27 23.855,5.78 48.23,8.67 73.128,8.67 18.434,0 36.559,-1.54 54.372,-4.61 17.812,-3.07 35.394,-8.02 52.742,-14.84 17.34,-6.82 33.328,-15.45 47.968,-25.86 14.633,-10.42 27.68,-22.87 39.141,-37.35 0.52,-0.41 0.777,-1.03 0.777,-1.87 v -3.59"
         style="fill:#262626;fill-opacity:1;fill-rule:nonzero;stroke:none"
         id="path296" /><path
         d="m 658.898,4780.89 c 0,-2.29 -1.144,-3.44 -3.437,-3.44 -1.148,0 -1.981,0.26 -2.5,0.78 -43.441,44.48 -106.461,66.72 -189.063,66.72 -82.605,0 -145.363,-21.98 -188.277,-65.94 -0.629,-1.04 -1.723,-1.56 -3.281,-1.56 -0.942,0 -1.75,0.37 -2.43,1.09 -0.672,0.74 -1.012,1.52 -1.012,2.35 v 3.59 c 0,0.84 0.262,1.46 0.782,1.88 14.687,18.75 32.578,34.32 53.672,46.72 21.089,12.4 43.566,21.48 67.418,27.26 23.855,5.78 48.23,8.67 73.128,8.67 18.434,0 36.559,-1.53 54.372,-4.61 17.812,-3.07 35.394,-8.02 52.742,-14.84 17.34,-6.82 33.328,-15.44 47.968,-25.86 14.633,-10.41 27.68,-22.86 39.141,-37.34 0.52,-0.42 0.777,-1.04 0.777,-1.88 v -3.59"
         style="fill:#262626;fill-opacity:1;fill-rule:nonzero;stroke:none"
         id="path298" /><path
         d="m 1450,980 1724,4900 1724,-462.07 1724,-1401.59 1724,-2980.16 1724,-55"
         style="fill:none;stroke:#0072bd;stroke-width:30;stroke-linecap:butt;stroke-linejoin:round;stroke-miterlimit:10;stroke-dasharray:none;stroke-opacity:1"
         id="path300" /><path
         d="M 1450,1060 V 900 m -80,80 h 160 m -133.03,53.03 106.06,-106.061 m -106.06,0 106.06,106.061"
         style="fill:none;stroke:#0072bd;stroke-width:30;stroke-linecap:butt;stroke-linejoin:miter;stroke-miterlimit:10;stroke-dasharray:none;stroke-opacity:1"
         id="path302" /><path
         d="m 3174,5960 v -160 m -80,80 h 160 m -133.03,53.03 106.06,-106.06 m -106.06,0 106.06,106.06"
         style="fill:none;stroke:#0072bd;stroke-width:30;stroke-linecap:butt;stroke-linejoin:miter;stroke-miterlimit:10;stroke-dasharray:none;stroke-opacity:1"
         id="path304" /><path
         d="m 4898,5497.93 v -160 m -80,80 h 160 m -133.03,53.03 106.06,-106.06 m -106.06,0 106.06,106.06"
         style="fill:none;stroke:#0072bd;stroke-width:30;stroke-linecap:butt;stroke-linejoin:miter;stroke-miterlimit:10;stroke-dasharray:none;stroke-opacity:1"
         id="path306" /><path
         d="m 6622,4096.34 v -160 m -80,80 h 160 m -133.03,53.03 106.06,-106.07 m -106.06,0 106.06,106.07"
         style="fill:none;stroke:#0072bd;stroke-width:30;stroke-linecap:butt;stroke-linejoin:miter;stroke-miterlimit:10;stroke-dasharray:none;stroke-opacity:1"
         id="path308" /><path
         d="M 8346,1116.18 V 956.184 m -80,79.996 h 160 m -133.03,53.03 106.06,-106.058 m -106.06,0 106.06,106.058"
         style="fill:none;stroke:#0072bd;stroke-width:30;stroke-linecap:butt;stroke-linejoin:miter;stroke-miterlimit:10;stroke-dasharray:none;stroke-opacity:1"
         id="path310" /><path
         d="M 10070,1061.18 V 901.184 m -80,80 h 160 m -133,53.026 106,-106.058 m -106,0 106,106.058"
         style="fill:none;stroke:#0072bd;stroke-width:30;stroke-linecap:butt;stroke-linejoin:miter;stroke-miterlimit:10;stroke-dasharray:none;stroke-opacity:1"
         id="path312" /></g></g></svg>
