<?xml version="1.0" encoding="UTF-8" standalone="no"?>
<svg
   xmlns:dc="http://purl.org/dc/elements/1.1/"
   xmlns:cc="http://creativecommons.org/ns#"
   xmlns:rdf="http://www.w3.org/1999/02/22-rdf-syntax-ns#"
   xmlns:svg="http://www.w3.org/2000/svg"
   xmlns="http://www.w3.org/2000/svg"
   viewBox="0 0 1330.6667 814.66669"
   height="814.66669"
   width="1330.6667"
   xml:space="preserve"
   id="svg2"
   version="1.1"><metadata
     id="metadata8"><rdf:RDF><cc:Work
         rdf:about=""><dc:format>image/svg+xml</dc:format><dc:type
           rdf:resource="http://purl.org/dc/dcmitype/StillImage" /></cc:Work></rdf:RDF></metadata><defs
     id="defs6"><clipPath
       id="clipPath20"
       clipPathUnits="userSpaceOnUse"><path
         id="path18"
         d="M 0,0 H 9980 V 6110 H 0 Z" /></clipPath><clipPath
       id="clipPath26"
       clipPathUnits="userSpaceOnUse"><path
         id="path24"
         d="M 0,6114.93 H 9978.55 V 0.0273438 H 0 Z" /></clipPath></defs><g
     transform="matrix(1.3333333,0,0,-1.3333333,0,814.66667)"
     id="g10"><g
       transform="scale(0.1)"
       id="g12"><g
         id="g14"><g
           clip-path="url(#clipPath20)"
           id="g16"><g
             clip-path="url(#clipPath26)"
             id="g22"><path
               id="path28"
               style="fill:#ffffff;fill-opacity:1;fill-rule:nonzero;stroke:none"
               d="M 0,0.0273438 H 9978.55 V 6114.9273 H 0 Z" /></g></g></g><path
         id="path30"
         style="fill:#ffffff;fill-opacity:1;fill-rule:nonzero;stroke:none"
         d="M 0,0.0273438 H 9978.55 V 6114.9273 H 0 Z" /><path
         id="path32"
         style="fill:#ffffff;fill-opacity:1;fill-rule:nonzero;stroke:none"
         d="m 1298.02,841.715 h 7737.43 v 4816.88 H 1298.02 Z" /><path
         id="path34"
         style="fill:none;stroke:#dfdfdf;stroke-width:4.99941015;stroke-linecap:butt;stroke-linejoin:round;stroke-miterlimit:10;stroke-dasharray:none;stroke-opacity:1"
         d="M 1298.02,841.715 V 5658.59" /><path
         id="path36"
         style="fill:none;stroke:#dfdfdf;stroke-width:4.99941015;stroke-linecap:butt;stroke-linejoin:round;stroke-miterlimit:10;stroke-dasharray:none;stroke-opacity:1"
         d="M 2845.51,841.715 V 5658.59" /><path
         id="path38"
         style="fill:none;stroke:#dfdfdf;stroke-width:4.99941015;stroke-linecap:butt;stroke-linejoin:round;stroke-miterlimit:10;stroke-dasharray:none;stroke-opacity:1"
         d="M 4393,841.715 V 5658.59" /><path
         id="path40"
         style="fill:none;stroke:#dfdfdf;stroke-width:4.99941015;stroke-linecap:butt;stroke-linejoin:round;stroke-miterlimit:10;stroke-dasharray:none;stroke-opacity:1"
         d="M 5940.48,841.715 V 5658.59" /><path
         id="path42"
         style="fill:none;stroke:#dfdfdf;stroke-width:4.99941015;stroke-linecap:butt;stroke-linejoin:round;stroke-miterlimit:10;stroke-dasharray:none;stroke-opacity:1"
         d="M 7487.97,841.715 V 5658.59" /><path
         id="path44"
         style="fill:none;stroke:#dfdfdf;stroke-width:4.99941015;stroke-linecap:butt;stroke-linejoin:round;stroke-miterlimit:10;stroke-dasharray:none;stroke-opacity:1"
         d="M 9035.45,841.715 V 5658.59" /><path
         id="path46"
         style="fill:none;stroke:#dfdfdf;stroke-width:4.99941015;stroke-linecap:butt;stroke-linejoin:round;stroke-miterlimit:10;stroke-dasharray:none;stroke-opacity:1"
         d="M 9035.45,841.715 H 1298.02" /><path
         id="path48"
         style="fill:none;stroke:#dfdfdf;stroke-width:4.99941015;stroke-linecap:butt;stroke-linejoin:round;stroke-miterlimit:10;stroke-dasharray:none;stroke-opacity:1"
         d="M 9035.45,1644.53 H 1298.02" /><path
         id="path50"
         style="fill:none;stroke:#dfdfdf;stroke-width:4.99941015;stroke-linecap:butt;stroke-linejoin:round;stroke-miterlimit:10;stroke-dasharray:none;stroke-opacity:1"
         d="M 9035.45,2447.34 H 1298.02" /><path
         id="path52"
         style="fill:none;stroke:#dfdfdf;stroke-width:4.99941015;stroke-linecap:butt;stroke-linejoin:round;stroke-miterlimit:10;stroke-dasharray:none;stroke-opacity:1"
         d="M 9035.45,3250.15 H 1298.02" /><path
         id="path54"
         style="fill:none;stroke:#dfdfdf;stroke-width:4.99941015;stroke-linecap:butt;stroke-linejoin:round;stroke-miterlimit:10;stroke-dasharray:none;stroke-opacity:1"
         d="M 9035.45,4052.97 H 1298.02" /><path
         id="path56"
         style="fill:none;stroke:#dfdfdf;stroke-width:4.99941015;stroke-linecap:butt;stroke-linejoin:round;stroke-miterlimit:10;stroke-dasharray:none;stroke-opacity:1"
         d="M 9035.45,4855.78 H 1298.02" /><path
         id="path58"
         style="fill:none;stroke:#dfdfdf;stroke-width:4.99941015;stroke-linecap:butt;stroke-linejoin:round;stroke-miterlimit:10;stroke-dasharray:none;stroke-opacity:1"
         d="M 9035.45,5658.59 H 1298.02" /><path
         id="path60"
         style="fill:none;stroke:#262626;stroke-width:4.99941015;stroke-linecap:square;stroke-linejoin:round;stroke-miterlimit:10;stroke-dasharray:none;stroke-opacity:1"
         d="M 1298.02,841.715 H 9035.45" /><path
         id="path62"
         style="fill:none;stroke:#262626;stroke-width:4.99941015;stroke-linecap:square;stroke-linejoin:round;stroke-miterlimit:10;stroke-dasharray:none;stroke-opacity:1"
         d="M 1298.02,841.715 V 919.09" /><path
         id="path64"
         style="fill:none;stroke:#262626;stroke-width:4.99941015;stroke-linecap:square;stroke-linejoin:round;stroke-miterlimit:10;stroke-dasharray:none;stroke-opacity:1"
         d="M 2845.51,841.715 V 919.09" /><path
         id="path66"
         style="fill:none;stroke:#262626;stroke-width:4.99941015;stroke-linecap:square;stroke-linejoin:round;stroke-miterlimit:10;stroke-dasharray:none;stroke-opacity:1"
         d="M 4393,841.715 V 919.09" /><path
         id="path68"
         style="fill:none;stroke:#262626;stroke-width:4.99941015;stroke-linecap:square;stroke-linejoin:round;stroke-miterlimit:10;stroke-dasharray:none;stroke-opacity:1"
         d="M 5940.48,841.715 V 919.09" /><path
         id="path70"
         style="fill:none;stroke:#262626;stroke-width:4.99941015;stroke-linecap:square;stroke-linejoin:round;stroke-miterlimit:10;stroke-dasharray:none;stroke-opacity:1"
         d="M 7487.97,841.715 V 919.09" /><path
         id="path72"
         style="fill:none;stroke:#262626;stroke-width:4.99941015;stroke-linecap:square;stroke-linejoin:round;stroke-miterlimit:10;stroke-dasharray:none;stroke-opacity:1"
         d="M 9035.45,841.715 V 919.09" /><g
         transform="scale(10)"
         id="g74"><text
           id="text78"
           style="font-variant:normal;font-weight:normal;font-size:29.99950027px;font-family:Helvetica;-inkscape-font-specification:Helvetica;writing-mode:lr-tb;fill:#262626;fill-opacity:1;fill-rule:nonzero;stroke:none"
           transform="matrix(1,0,0,-1,120.169,47.7746)"><tspan
             id="tspan76"
             y="0"
             x="0 135.48164 152.16136 168.84108 290.23077 306.91049 323.59021 444.98019 461.65991 478.33963 599.72931 616.409 633.08875 744.84436 761.52411 778.20386 794.88354">02004006008001000</tspan></text>
</g><path
         id="path80"
         style="fill:#262626;fill-opacity:1;fill-rule:nonzero;stroke:none"
         d="m 5093.41,124.824 c 0,1.371 0.11,2.375 0.32,3.012 l 48.65,193.465 c 0.84,3.801 1.37,6.758 1.59,8.875 0,3.59 -7.24,5.387 -21.71,5.387 -2.33,0 -3.49,1.48 -3.49,4.441 0.11,0.527 0.37,1.504 0.79,2.93 0.42,1.425 0.93,2.535 1.51,3.324 0.58,0.793 1.4,1.187 2.45,1.187 l 45.16,3.489 h 0.95 c 0,-0.215 0.37,-0.508 1.11,-0.871 0.74,-0.372 1.17,-0.614 1.27,-0.719 0.53,-1.055 0.79,-1.903 0.79,-2.535 l -35.17,-139.907 c 8.02,3.383 18.17,11.411 30.42,24.086 12.25,12.676 21.84,21.785 28.75,27.328 6.92,5.547 15.61,8.317 26.07,8.317 6.24,0 11.52,-2.113 15.84,-6.336 4.34,-4.227 6.5,-9.457 6.5,-15.688 0,-3.91 -0.79,-7.527 -2.37,-10.851 -1.59,-3.328 -3.86,-6.02 -6.81,-8.082 -2.96,-2.063 -6.4,-3.094 -10.31,-3.094 -3.59,0 -6.62,1.113 -9.1,3.336 -2.49,2.219 -3.74,5.121 -3.74,8.711 0,5.387 1.88,9.906 5.63,13.547 3.76,3.644 8.33,5.469 13.71,5.469 -2.22,2.953 -5.54,4.429 -9.99,4.429 -6.65,0 -13.04,-1.926 -19.16,-5.781 -6.13,-3.852 -12.76,-9.344 -19.89,-16.477 -7.13,-7.132 -13.65,-13.656 -19.57,-19.574 -5.91,-5.914 -11.36,-10.402 -16.32,-13.465 13.1,-1.472 24.51,-4.906 34.23,-10.293 9.71,-5.386 14.57,-13.679 14.57,-24.875 0,-2.226 -0.42,-5.078 -1.27,-8.558 -2,-8.453 -3.01,-15.16 -3.01,-20.129 0,-10.035 3.44,-15.051 10.3,-15.051 8.14,0 14.29,4.41 18.46,13.234 4.17,8.817 7.63,19.09 10.39,30.817 0.42,1.375 1.31,2.058 2.68,2.058 h 3.97 c 0.84,0 1.58,-0.289 2.22,-0.871 0.63,-0.582 0.94,-1.293 0.94,-2.14 0,-0.207 -0.1,-0.528 -0.31,-0.953 -8.45,-34.012 -21.45,-51.016 -38.98,-51.016 -6.34,0 -11.94,1.48 -16.8,4.441 -4.86,2.954 -8.58,6.965 -11.16,12.036 -2.59,5.07 -3.89,10.777 -3.89,17.117 0,3.59 0.48,7.285 1.42,11.086 0.64,2.64 0.96,5.074 0.96,7.289 0,8.66 -3.81,15.211 -11.41,19.652 -7.61,4.438 -16.32,7.18 -26.14,8.234 l -16.96,-68.449 c -0.84,-3.273 -2.54,-5.992 -5.07,-8.164 -2.54,-2.164 -5.44,-3.242 -8.71,-3.242 -2.75,0 -5.15,0.949 -7.21,2.848 -2.06,1.906 -3.1,4.23 -3.1,6.976" /><path
         id="path82"
         style="fill:none;stroke:#262626;stroke-width:4.99941015;stroke-linecap:square;stroke-linejoin:round;stroke-miterlimit:10;stroke-dasharray:none;stroke-opacity:1"
         d="M 1298.02,841.715 V 5658.59" /><path
         id="path84"
         style="fill:none;stroke:#262626;stroke-width:4.99941015;stroke-linecap:square;stroke-linejoin:round;stroke-miterlimit:10;stroke-dasharray:none;stroke-opacity:1"
         d="m 1298.02,841.715 h 77.38" /><path
         id="path86"
         style="fill:none;stroke:#262626;stroke-width:4.99941015;stroke-linecap:square;stroke-linejoin:round;stroke-miterlimit:10;stroke-dasharray:none;stroke-opacity:1"
         d="m 1298.02,1644.53 h 77.38" /><path
         id="path88"
         style="fill:none;stroke:#262626;stroke-width:4.99941015;stroke-linecap:square;stroke-linejoin:round;stroke-miterlimit:10;stroke-dasharray:none;stroke-opacity:1"
         d="m 1298.02,2447.34 h 77.38" /><path
         id="path90"
         style="fill:none;stroke:#262626;stroke-width:4.99941015;stroke-linecap:square;stroke-linejoin:round;stroke-miterlimit:10;stroke-dasharray:none;stroke-opacity:1"
         d="m 1298.02,3250.15 h 77.38" /><path
         id="path92"
         style="fill:none;stroke:#262626;stroke-width:4.99941015;stroke-linecap:square;stroke-linejoin:round;stroke-miterlimit:10;stroke-dasharray:none;stroke-opacity:1"
         d="m 1298.02,4052.97 h 77.38" /><path
         id="path94"
         style="fill:none;stroke:#262626;stroke-width:4.99941015;stroke-linecap:square;stroke-linejoin:round;stroke-miterlimit:10;stroke-dasharray:none;stroke-opacity:1"
         d="m 1298.02,4855.78 h 77.38" /><path
         id="path96"
         style="fill:none;stroke:#262626;stroke-width:4.99941015;stroke-linecap:square;stroke-linejoin:round;stroke-miterlimit:10;stroke-dasharray:none;stroke-opacity:1"
         d="m 1298.02,5658.59 h 77.38" /><g
         transform="scale(10)"
         id="g98"><text
           id="text114"
           style="font-variant:normal;font-weight:normal;font-size:29.99950027px;font-family:Helvetica;-inkscape-font-specification:Helvetica;writing-mode:lr-tb;fill:#262626;fill-opacity:1;fill-rule:nonzero;stroke:none"
           transform="matrix(1,0,0,-1,91.3805,73.5211)"><tspan
             id="tspan100"
             y="0"
             x="0 9.9898338">-3</tspan><tspan
             id="tspan102"
             y="-80.281601"
             x="0 9.9898338">-2</tspan><tspan
             id="tspan104"
             y="-160.5636"
             x="0 9.9898338">-1</tspan><tspan
             id="tspan106"
             y="-240.8452"
             x="11.1547">0</tspan><tspan
             id="tspan108"
             y="-321.1268"
             x="11.1547">1</tspan><tspan
             id="tspan110"
             y="-401.40839"
             x="11.1547">2</tspan><tspan
             id="tspan112"
             y="-481.69"
             x="11.1547">3</tspan></text>
</g><path
         id="path116"
         style="fill:#262626;fill-opacity:1;fill-rule:nonzero;stroke:none"
         d="M 848.664,1628.76 H 514.02 v 45.63 h 13.464 v -32.32 h 307.715 v 32.32 h 13.465 v -45.63" /><path
         id="path118"
         style="fill:#262626;fill-opacity:1;fill-rule:nonzero;stroke:none"
         d="m 580.422,1743.62 -7.129,-6.66 -45.008,45.16 45.008,44.84 7.129,-6.81 -33.598,-38.03 33.598,-38.5" /><path
         id="path120"
         style="fill:#262626;fill-opacity:1;fill-rule:nonzero;stroke:none"
         d="m 765.004,1688.11 h -16.957 c 0,19.01 -1.055,29.52 -3.164,31.52 l -51.18,45.17 -60.215,-50.24 v -24.71 h -16.957 v 78.75 h 16.957 v -12.21 l 35.805,30.11 -33.109,29.16 c -0.954,0 -1.637,-1.61 -2.059,-4.83 -0.426,-3.22 -0.637,-5.84 -0.637,-7.85 h -16.957 v 66.87 h 16.957 c 0,-18.91 1.004,-29.37 3.012,-31.38 l 46.109,-40.88 65.438,54.35 v 25.04 h 16.957 v -79.07 h -16.957 v 12.52 l -40.875,-34.55 38.027,-33.43 c 0.735,0 1.395,1.61 1.977,4.84 0.582,3.22 0.871,5.84 0.871,7.84 h 16.957 v -67.02" /><path
         id="path122"
         style="fill:#262626;fill-opacity:1;fill-rule:nonzero;stroke:none"
         d="m 848.027,1984.89 c -9.824,-12.46 -21.074,-23.18 -33.75,-32.16 -12.675,-8.98 -26.195,-16.32 -40.562,-22.03 -14.367,-5.7 -29.391,-9.98 -45.078,-12.84 -15.684,-2.85 -31.449,-4.27 -47.297,-4.27 -16.055,0 -31.926,1.42 -47.61,4.27 -15.691,2.86 -30.769,7.19 -45.238,13 -14.472,5.81 -28.023,13.23 -40.644,22.27 -12.621,9.03 -23.688,19.62 -33.2,31.76 -0.421,0 -0.628,0.53 -0.628,1.59 v 3.16 c 0,0.64 0.289,1.22 0.871,1.75 0.582,0.52 1.293,0.79 2.14,0.79 0.946,0 1.633,-0.21 2.059,-0.63 10.668,-10.89 22.101,-19.94 34.305,-27.18 12.195,-7.23 25.187,-13.07 38.972,-17.5 13.789,-4.44 28.051,-7.64 42.781,-9.6 14.739,-1.95 30.137,-2.93 46.192,-2.93 70.879,0 124.75,18.97 161.617,56.89 0.633,0.63 1.535,0.95 2.695,0.95 0.637,0 1.297,-0.29 1.977,-0.88 0.691,-0.58 1.035,-1.13 1.035,-1.66 v -3.16 c 0,-1.06 -0.211,-1.59 -0.637,-1.59" /><path
         id="path124"
         style="fill:#262626;fill-opacity:1;fill-rule:nonzero;stroke:none"
         d="m 758.98,2027.18 c -1.375,0 -2.378,0.11 -3.011,0.33 L 562.5,2076.14 c -3.797,0.85 -6.754,1.38 -8.871,1.59 -3.59,0 -5.387,-7.23 -5.387,-21.71 0,-2.32 -1.48,-3.48 -4.441,-3.48 -0.528,0.1 -1.504,0.37 -2.93,0.78 -1.426,0.43 -2.535,0.93 -3.324,1.52 -0.793,0.58 -1.188,1.39 -1.188,2.45 l -3.488,45.16 v 0.95 c 0.215,0 0.508,0.37 0.871,1.11 0.371,0.74 0.613,1.16 0.719,1.26 1.055,0.53 1.902,0.8 2.535,0.8 l 139.902,-35.17 c -3.378,8.02 -11.406,18.16 -24.082,30.42 -12.675,12.25 -21.785,21.84 -27.332,28.76 -5.543,6.92 -8.312,15.6 -8.312,26.06 0,6.24 2.113,11.51 6.336,15.84 4.226,4.33 9.457,6.5 15.687,6.5 3.91,0 7.528,-0.79 10.852,-2.37 3.328,-1.59 6.019,-3.86 8.082,-6.82 2.062,-2.96 3.094,-6.39 3.094,-10.3 0,-3.59 -1.114,-6.63 -3.336,-9.11 -2.219,-2.48 -5.121,-3.72 -8.711,-3.72 -5.391,0 -9.906,1.88 -13.547,5.62 -3.645,3.75 -5.469,8.32 -5.469,13.71 -2.953,-2.22 -4.43,-5.55 -4.43,-9.99 0,-6.65 1.926,-13.04 5.782,-19.16 3.851,-6.13 9.343,-12.76 16.476,-19.89 7.133,-7.13 13.657,-13.66 19.571,-19.57 5.918,-5.92 10.406,-11.36 13.468,-16.32 1.473,13.1 4.907,24.5 10.293,34.23 5.387,9.71 13.68,14.57 24.875,14.57 2.223,0 5.078,-0.42 8.559,-1.27 8.453,-2.01 15.16,-3.01 20.129,-3.01 10.035,0 15.051,3.43 15.051,10.3 0,8.14 -4.411,14.29 -13.235,18.46 -8.816,4.18 -19.09,7.64 -30.816,10.38 -1.375,0.42 -2.059,1.32 -2.059,2.69 v 3.97 c 0,0.84 0.289,1.58 0.871,2.22 0.582,0.63 1.293,0.95 2.141,0.95 0.207,0 0.527,-0.11 0.953,-0.33 34.012,-8.45 51.016,-21.43 51.016,-38.97 0,-6.34 -1.481,-11.94 -4.442,-16.8 -2.953,-4.85 -6.965,-8.57 -12.035,-11.16 -5.07,-2.59 -10.777,-3.89 -17.117,-3.89 -3.59,0 -7.285,0.48 -11.086,1.43 -2.645,0.63 -5.074,0.94 -7.289,0.94 -8.66,0 -15.211,-3.8 -19.652,-11.4 -4.438,-7.61 -7.18,-16.32 -8.235,-26.15 l 68.449,-16.95 c 3.27,-0.85 5.993,-2.54 8.165,-5.07 2.16,-2.54 3.242,-5.44 3.242,-8.72 0,-2.74 -0.95,-5.14 -2.848,-7.2 -1.906,-2.07 -4.234,-3.1 -6.977,-3.1" /><path
         id="path126"
         style="fill:#262626;fill-opacity:1;fill-rule:nonzero;stroke:none"
         d="M 842.641,2231.56 H 520.043 c -1.691,0 -3.117,0.63 -4.281,1.9 -1.16,1.27 -1.742,2.85 -1.742,4.75 0,1.58 0.582,3.09 1.742,4.52 1.164,1.42 2.59,2.14 4.281,2.13 h 322.598 c 1.691,0.01 3.117,-0.71 4.281,-2.13 1.16,-1.43 1.742,-2.94 1.742,-4.52 0,-1.9 -0.582,-3.48 -1.742,-4.75 -1.164,-1.27 -2.59,-1.9 -4.281,-1.9" /><path
         id="path128"
         style="fill:#262626;fill-opacity:1;fill-rule:nonzero;stroke:none"
         d="m 758.98,2301.04 c -1.375,0 -2.378,0.1 -3.011,0.32 L 562.5,2350 c -3.797,0.85 -6.754,1.38 -8.871,1.59 -3.59,0 -5.387,-7.24 -5.387,-21.71 0,-2.33 -1.48,-3.49 -4.441,-3.49 -0.528,0.11 -1.504,0.37 -2.93,0.8 -1.426,0.42 -2.535,0.92 -3.324,1.5 -0.793,0.58 -1.188,1.4 -1.188,2.45 l -3.488,45.16 v 0.95 c 0.215,0 0.508,0.37 0.871,1.11 0.371,0.74 0.613,1.16 0.719,1.27 1.055,0.53 1.902,0.8 2.535,0.8 l 139.902,-35.18 c -3.378,8.02 -11.406,18.16 -24.082,30.42 -12.675,12.25 -21.785,21.84 -27.332,28.76 -5.543,6.92 -8.312,15.61 -8.312,26.06 0,6.24 2.113,11.52 6.336,15.85 4.226,4.33 9.457,6.49 15.687,6.49 3.91,0 7.528,-0.79 10.852,-2.37 3.328,-1.59 6.019,-3.86 8.082,-6.82 2.062,-2.96 3.094,-6.39 3.094,-10.3 0,-3.59 -1.114,-6.62 -3.336,-9.11 -2.219,-2.48 -5.121,-3.71 -8.711,-3.71 -5.391,0 -9.906,1.87 -13.547,5.61 -3.645,3.75 -5.469,8.32 -5.469,13.71 -2.953,-2.21 -4.43,-5.54 -4.43,-9.98 0,-6.66 1.926,-13.05 5.782,-19.17 3.851,-6.13 9.343,-12.76 16.476,-19.89 7.133,-7.13 13.657,-13.66 19.571,-19.57 5.918,-5.92 10.406,-11.35 13.468,-16.32 1.473,13.1 4.907,24.51 10.293,34.23 5.387,9.71 13.68,14.57 24.875,14.57 2.223,0 5.078,-0.42 8.559,-1.27 8.453,-2 15.16,-3 20.129,-3 10.035,0 15.051,3.43 15.051,10.29 0,8.14 -4.411,14.29 -13.235,18.47 -8.816,4.17 -19.09,7.63 -30.816,10.37 -1.375,0.42 -2.059,1.32 -2.059,2.7 v 3.96 c 0,0.84 0.289,1.58 0.871,2.22 0.582,0.63 1.293,0.95 2.141,0.95 0.207,0 0.527,-0.11 0.953,-0.32 34.012,-8.45 51.016,-21.44 51.016,-38.97 0,-6.34 -1.481,-11.95 -4.442,-16.81 -2.953,-4.85 -6.965,-8.57 -12.035,-11.16 -5.07,-2.59 -10.777,-3.89 -17.117,-3.89 -3.59,0 -7.285,0.48 -11.086,1.43 -2.645,0.63 -5.074,0.95 -7.289,0.95 -8.66,0 -15.211,-3.81 -19.652,-11.41 -4.438,-7.61 -7.18,-16.32 -8.235,-26.15 l 68.449,-16.95 c 3.27,-0.85 5.993,-2.53 8.165,-5.07 2.16,-2.53 3.242,-5.44 3.242,-8.71 0,-2.75 -0.95,-5.15 -2.848,-7.21 -1.906,-2.06 -4.234,-3.09 -6.977,-3.09" /><path
         id="path130"
         style="fill:#262626;fill-opacity:1;fill-rule:nonzero;stroke:none"
         d="M 842.641,2505.41 H 520.043 c -1.691,0 -3.117,0.63 -4.281,1.9 -1.16,1.27 -1.742,2.85 -1.742,4.76 0,1.58 0.582,3.08 1.742,4.51 1.164,1.42 2.59,2.14 4.281,2.14 h 322.598 c 1.691,0 3.117,-0.72 4.281,-2.14 1.16,-1.43 1.742,-2.93 1.742,-4.51 0,-1.91 -0.582,-3.49 -1.742,-4.76 -1.164,-1.27 -2.59,-1.9 -4.281,-1.9" /><path
         id="path132"
         style="fill:#262626;fill-opacity:1;fill-rule:nonzero;stroke:none"
         d="m 758.98,2574.9 c -1.375,0 -2.378,0.1 -3.011,0.31 L 562.5,2623.86 c -3.797,0.84 -6.754,1.37 -8.871,1.58 -3.59,0 -5.387,-7.24 -5.387,-21.71 0,-2.32 -1.48,-3.48 -4.441,-3.48 -0.528,0.1 -1.504,0.36 -2.93,0.79 -1.426,0.42 -2.535,0.92 -3.324,1.5 -0.793,0.58 -1.188,1.4 -1.188,2.46 l -3.488,45.15 v 0.96 c 0.215,0 0.508,0.37 0.871,1.11 0.371,0.74 0.613,1.16 0.719,1.27 1.055,0.53 1.902,0.79 2.535,0.79 l 139.902,-35.18 c -3.378,8.03 -11.406,18.17 -24.082,30.42 -12.675,12.25 -21.785,21.84 -27.332,28.76 -5.543,6.92 -8.312,15.61 -8.312,26.06 0,6.24 2.113,11.52 6.336,15.86 4.226,4.32 9.457,6.48 15.687,6.48 3.91,0 7.528,-0.79 10.852,-2.37 3.328,-1.58 6.019,-3.85 8.082,-6.81 2.062,-2.96 3.094,-6.39 3.094,-10.3 0,-3.59 -1.114,-6.63 -3.336,-9.11 -2.219,-2.48 -5.121,-3.72 -8.711,-3.72 -5.391,0 -9.906,1.87 -13.547,5.63 -3.645,3.74 -5.469,8.3 -5.469,13.7 -2.953,-2.22 -4.43,-5.55 -4.43,-9.99 0,-6.65 1.926,-13.05 5.782,-19.17 3.851,-6.13 9.343,-12.75 16.476,-19.89 7.133,-7.13 13.657,-13.65 19.571,-19.57 5.918,-5.91 10.406,-11.35 13.468,-16.31 1.473,13.1 4.907,24.51 10.293,34.22 5.387,9.72 13.68,14.58 24.875,14.58 2.223,0 5.078,-0.42 8.559,-1.27 8.453,-2 15.16,-3.01 20.129,-3.01 10.035,0 15.051,3.44 15.051,10.3 0,8.13 -4.411,14.29 -13.235,18.46 -8.816,4.17 -19.09,7.63 -30.816,10.38 -1.375,0.42 -2.059,1.32 -2.059,2.7 v 3.95 c 0,0.85 0.289,1.58 0.871,2.22 0.582,0.64 1.293,0.95 2.141,0.95 0.207,0 0.527,-0.1 0.953,-0.31 34.012,-8.45 51.016,-21.44 51.016,-38.98 0,-6.34 -1.481,-11.94 -4.442,-16.8 -2.953,-4.86 -6.965,-8.58 -12.035,-11.17 -5.07,-2.59 -10.777,-3.88 -17.117,-3.88 -3.59,0 -7.285,0.47 -11.086,1.43 -2.645,0.63 -5.074,0.95 -7.289,0.95 -8.66,0 -15.211,-3.8 -19.652,-11.41 -4.438,-7.6 -7.18,-16.32 -8.235,-26.15 l 68.449,-16.95 c 3.27,-0.84 5.993,-2.53 8.165,-5.07 2.16,-2.53 3.242,-5.44 3.242,-8.72 0,-2.74 -0.95,-5.15 -2.848,-7.21 -1.906,-2.05 -4.234,-3.08 -6.977,-3.08" /><path
         id="path134"
         style="fill:#262626;fill-opacity:1;fill-rule:nonzero;stroke:none"
         d="m 848.664,2761.04 c 0,-1.9 -1.004,-2.85 -3.012,-2.85 -0.953,0 -1.636,0.21 -2.058,0.63 -37.289,38.14 -91.375,57.21 -162.254,57.21 -70.875,0 -124.75,-18.86 -161.621,-56.57 -0.528,-0.85 -1.426,-1.27 -2.688,-1.27 -0.847,0 -1.558,0.29 -2.14,0.88 -0.582,0.57 -0.871,1.23 -0.871,1.97 v 3.17 c 0,0.63 0.207,1.16 0.628,1.59 12.676,16.06 28.043,29.41 46.11,40.09 18.062,10.66 37.34,18.48 57.832,23.44 20.5,4.97 41.414,7.46 62.75,7.46 15.848,0 31.402,-1.36 46.66,-4.05 15.266,-2.69 30.344,-6.95 45.238,-12.76 14.899,-5.81 28.633,-13.17 41.203,-22.1 12.567,-8.93 23.762,-19.62 33.586,-32.08 0.426,-0.43 0.637,-0.96 0.637,-1.59 v -3.17" /><path
         id="path136"
         style="fill:#262626;fill-opacity:1;fill-rule:nonzero;stroke:none"
         d="m 848.664,2874.95 h -13.465 v 32.65 H 527.484 v -32.65 H 514.02 v 45.95 h 334.644 v -45.95" /><path
         id="path138"
         style="fill:#262626;fill-opacity:1;fill-rule:nonzero;stroke:none"
         d="m 804.676,2985.64 c 5.07,4.23 7.605,11.62 7.605,22.18 0,5.91 -2.031,11.43 -6.097,16.56 -4.067,5.12 -9.008,9.11 -14.813,11.96 -6.551,3.28 -13.578,5.36 -21.074,6.26 -7.504,0.9 -16.801,1.35 -27.887,1.35 6.336,-2.64 11.508,-6.45 15.524,-11.41 4.015,-4.97 6.023,-10.67 6.023,-17.11 0,-9.09 -2.457,-17.18 -7.371,-24.25 -4.906,-7.07 -11.379,-12.51 -19.41,-16.32 -8.024,-3.8 -16.528,-5.7 -25.512,-5.7 -9.297,0 -18.012,2.11 -26.144,6.34 -8.133,4.23 -14.547,10.11 -19.247,17.66 -4.699,7.55 -7.046,16.09 -7.046,25.59 0,9.4 2.558,17.27 7.675,23.61 5.125,6.34 11.727,11.2 19.813,14.58 8.082,3.38 16.637,5.73 25.668,7.05 9.031,1.32 17.933,1.97 26.699,1.97 12.043,0 24.297,-2.21 36.762,-6.65 12.461,-4.43 22.863,-11.03 31.215,-19.8 8.339,-8.77 12.511,-19.33 12.511,-31.69 0,-9.19 -2.168,-16.98 -6.5,-23.37 -4.328,-6.4 -10.82,-9.59 -19.48,-9.59 -3.172,0 -5.836,1.08 -8,3.25 -2.172,2.17 -3.258,4.89 -3.258,8.16 0,3.06 1.086,5.68 3.258,7.85 2.164,2.16 4.828,3.24 8,3.24 2.953,0 5.539,-1.11 7.758,-3.32 2.218,-2.22 3.328,-4.81 3.328,-7.77 z m -46.903,30.57 c 0,6.45 -2.136,11.7 -6.41,15.77 -4.277,4.07 -9.617,7 -16.011,8.8 -6.387,1.79 -12.75,2.69 -19.086,2.69 h -4.442 -0.789 c -11.722,0 -22.183,-1.71 -31.375,-5.15 -9.187,-3.43 -13.781,-9.96 -13.781,-19.57 0,-6.12 1.344,-11.11 4.035,-14.97 2.695,-3.86 6.289,-6.68 10.777,-8.48 4.493,-1.79 9.27,-2.93 14.34,-3.4 5.071,-0.48 10.614,-0.72 16.633,-0.72 8.766,0 16.27,0.4 22.5,1.2 6.234,0.78 11.727,3.06 16.481,6.81 4.753,3.74 7.128,9.42 7.128,17.02" /><path
         id="path140"
         style="fill:#262626;fill-opacity:1;fill-rule:nonzero;stroke:none"
         d="m 804.676,3101.13 c 5.07,4.23 7.605,11.62 7.605,22.19 0,5.92 -2.031,11.44 -6.097,16.56 -4.067,5.12 -9.008,9.1 -14.813,11.96 -6.551,3.28 -13.578,5.36 -21.074,6.25 -7.504,0.91 -16.801,1.36 -27.887,1.36 6.336,-2.64 11.508,-6.45 15.524,-11.41 4.015,-4.97 6.023,-10.67 6.023,-17.11 0,-9.09 -2.457,-17.17 -7.371,-24.25 -4.906,-7.08 -11.379,-12.52 -19.41,-16.32 -8.024,-3.8 -16.528,-5.7 -25.512,-5.7 -9.297,0 -18.012,2.11 -26.144,6.33 -8.133,4.23 -14.547,10.12 -19.247,17.67 -4.699,7.56 -7.046,16.09 -7.046,25.59 0,9.4 2.558,17.27 7.675,23.61 5.125,6.34 11.727,11.19 19.813,14.57 8.082,3.38 16.637,5.74 25.668,7.06 9.031,1.32 17.933,1.98 26.699,1.98 12.043,0 24.297,-2.22 36.762,-6.65 12.461,-4.44 22.863,-11.04 31.215,-19.81 8.339,-8.77 12.511,-19.33 12.511,-31.69 0,-9.19 -2.168,-16.98 -6.5,-23.37 -4.328,-6.39 -10.82,-9.59 -19.48,-9.59 -3.172,0 -5.836,1.09 -8,3.25 -2.172,2.16 -3.258,4.89 -3.258,8.16 0,3.07 1.086,5.68 3.258,7.84 2.164,2.16 4.828,3.25 8,3.25 2.953,0 5.539,-1.11 7.758,-3.33 2.218,-2.22 3.328,-4.8 3.328,-7.76 z m -46.903,30.59 c 0,6.44 -2.136,11.7 -6.41,15.77 -4.277,4.06 -9.617,6.99 -16.011,8.79 -6.387,1.79 -12.75,2.69 -19.086,2.69 h -4.442 -0.789 c -11.722,0 -22.183,-1.72 -31.375,-5.15 -9.187,-3.43 -13.781,-9.95 -13.781,-19.57 0,-6.12 1.344,-11.11 4.035,-14.97 2.695,-3.86 6.289,-6.68 10.777,-8.48 4.493,-1.79 9.27,-2.93 14.34,-3.41 5.071,-0.47 10.614,-0.71 16.633,-0.71 8.766,0 16.27,0.4 22.5,1.19 6.234,0.79 11.727,3.06 16.481,6.81 4.753,3.75 7.128,9.43 7.128,17.04" /><path
         id="path142"
         style="fill:#262626;fill-opacity:1;fill-rule:nonzero;stroke:none"
         d="m 819.57,3248.64 c 0,-9.61 -2.562,-17.64 -7.687,-24.08 -5.125,-6.45 -11.75,-11.44 -19.883,-14.98 -8.137,-3.54 -16.691,-5.99 -25.668,-7.36 -8.977,-1.38 -18.062,-2.06 -27.25,-2.06 -12.254,0 -24.59,2.38 -37.004,7.13 -12.41,4.75 -22.656,11.78 -30.734,21.07 -8.078,9.3 -12.117,20.34 -12.117,33.12 0,5.39 1,10.38 3,14.97 2.007,4.6 4.964,8.19 8.871,10.78 3.918,2.59 8.617,3.88 14.109,3.88 3.168,0 5.836,-1.08 8,-3.25 2.164,-2.17 3.246,-4.83 3.246,-8 0,-3.07 -1.082,-5.68 -3.246,-7.84 -2.164,-2.17 -4.832,-3.26 -8,-3.26 -3.062,0 -5.676,1.09 -7.84,3.26 -2.172,2.16 -3.254,4.77 -3.254,7.84 v 1.27 c -2.855,-2.01 -4.941,-4.81 -6.258,-8.4 -1.32,-3.59 -1.976,-7.34 -1.976,-11.25 0,-4.65 1.027,-8.98 3.09,-13 2.054,-4.01 4.828,-7.6 8.316,-10.77 3.481,-3.17 7.336,-5.81 11.563,-7.92 4.222,-2.11 9.031,-3.78 14.418,-5 5.386,-1.21 10.433,-1.95 15.14,-2.21 4.699,-0.26 10.586,-0.4 17.664,-0.4 -6.34,2.64 -11.543,6.47 -15.605,11.48 -4.07,5.03 -6.106,10.71 -6.106,17.04 0,6.87 1.399,13.16 4.2,18.86 2.796,5.7 6.707,10.61 11.722,14.74 5.024,4.11 10.703,7.25 17.035,9.42 6.344,2.17 12.786,3.25 19.329,3.25 9.085,0 17.75,-2.03 25.992,-6.1 8.242,-4.07 14.789,-9.8 19.644,-17.19 4.86,-7.39 7.289,-15.74 7.289,-25.04 z m -7.289,0 c 0,6.02 -1.375,10.86 -4.117,14.5 -2.746,3.65 -6.391,6.31 -10.934,8 -4.542,1.7 -9.113,2.75 -13.71,3.17 -4.59,0.42 -10.215,0.64 -16.875,0.64 -8.766,0 -16.266,-0.43 -22.493,-1.27 -6.23,-0.84 -11.726,-3.12 -16.476,-6.81 -4.762,-3.7 -7.141,-9.41 -7.141,-17.12 0,-6.23 2.141,-11.38 6.418,-15.45 4.281,-4.07 9.641,-7.05 16.086,-8.95 6.441,-1.9 12.676,-2.85 18.699,-2.85 2.11,0 3.696,0.11 4.754,0.31 0.211,0 0.395,-0.02 0.551,-0.08 0.16,-0.05 0.348,-0.12 0.555,-0.23 6.652,0 13.386,0.68 20.203,2.06 6.812,1.37 12.597,4.01 17.351,7.92 4.75,3.91 7.129,9.29 7.129,16.16" /><path
         id="path144"
         style="fill:#262626;fill-opacity:1;fill-rule:nonzero;stroke:none"
         d="m 687.992,3429.89 c 0,-1.9 -0.711,-3.46 -2.137,-4.68 -1.425,-1.21 -2.933,-1.82 -4.515,-1.82 -1.582,0 -3.086,0.61 -4.512,1.82 -1.426,1.22 -2.14,2.78 -2.14,4.68 v 191.88 c 0,1.8 0.714,3.25 2.14,4.36 1.426,1.11 2.93,1.67 4.512,1.67 1.582,0 3.09,-0.56 4.515,-1.67 1.426,-1.11 2.137,-2.56 2.137,-4.36 v -191.88" /><path
         id="path146"
         style="fill:#262626;fill-opacity:1;fill-rule:nonzero;stroke:none"
         d="M 848.664,3765.28 H 514.02 v 45.63 h 13.464 v -32.33 h 307.715 v 32.33 h 13.465 v -45.63" /><path
         id="path148"
         style="fill:#262626;fill-opacity:1;fill-rule:nonzero;stroke:none"
         d="m 765.004,3824.62 h -16.957 c 0,19.01 -1.055,29.52 -3.164,31.53 l -51.18,45.15 -60.215,-50.22 v -24.72 h -16.957 v 78.75 h 16.957 v -12.2 l 35.805,30.11 -33.109,29.15 c -0.954,0 -1.637,-1.61 -2.059,-4.84 -0.426,-3.22 -0.637,-5.83 -0.637,-7.83 h -16.957 v 66.86 h 16.957 c 0,-18.91 1.004,-29.36 3.012,-31.37 l 46.109,-40.88 65.438,54.34 v 25.04 h 16.957 v -79.06 h -16.957 v 12.51 l -40.875,-34.54 38.027,-33.44 c 0.735,0 1.395,1.62 1.977,4.84 0.582,3.22 0.871,5.83 0.871,7.84 h 16.957 v -67.02" /><path
         id="path150"
         style="fill:#262626;fill-opacity:1;fill-rule:nonzero;stroke:none"
         d="m 848.027,4121.4 c -9.824,-12.47 -21.074,-23.19 -33.75,-32.17 -12.675,-8.98 -26.195,-16.32 -40.562,-22.02 -14.367,-5.7 -29.391,-9.98 -45.078,-12.83 -15.684,-2.85 -31.449,-4.28 -47.297,-4.28 -16.055,0 -31.926,1.43 -47.61,4.28 -15.691,2.85 -30.769,7.18 -45.238,12.99 -14.472,5.81 -28.023,13.23 -40.644,22.26 -12.621,9.03 -23.688,19.62 -33.2,31.77 -0.421,0 -0.628,0.53 -0.628,1.58 v 3.18 c 0,0.63 0.289,1.21 0.871,1.74 0.582,0.53 1.293,0.79 2.14,0.79 0.946,0 1.633,-0.21 2.059,-0.64 10.668,-10.87 22.101,-19.93 34.305,-27.16 12.195,-7.25 25.187,-13.08 38.972,-17.52 13.789,-4.43 28.051,-7.63 42.781,-9.58 14.739,-1.95 30.137,-2.93 46.192,-2.93 70.879,0 124.75,18.96 161.617,56.88 0.633,0.64 1.535,0.95 2.695,0.95 0.637,0 1.297,-0.29 1.977,-0.87 0.691,-0.58 1.035,-1.14 1.035,-1.66 v -3.18 c 0,-1.05 -0.211,-1.58 -0.637,-1.58" /><path
         id="path152"
         style="fill:#262626;fill-opacity:1;fill-rule:nonzero;stroke:none"
         d="m 758.98,4163.7 c -1.375,0 -2.378,0.1 -3.011,0.31 L 562.5,4212.66 c -3.797,0.84 -6.754,1.37 -8.871,1.58 -3.59,0 -5.387,-7.24 -5.387,-21.7 0,-2.33 -1.48,-3.49 -4.441,-3.49 -0.528,0.11 -1.504,0.37 -2.93,0.79 -1.426,0.43 -2.535,0.93 -3.324,1.51 -0.793,0.58 -1.188,1.39 -1.188,2.45 l -3.488,45.16 v 0.95 c 0.215,0 0.508,0.38 0.871,1.11 0.371,0.74 0.613,1.16 0.719,1.27 1.055,0.53 1.902,0.79 2.535,0.79 l 139.902,-35.18 c -3.378,8.03 -11.406,18.17 -24.082,30.42 -12.675,12.26 -21.785,21.85 -27.332,28.76 -5.543,6.92 -8.312,15.62 -8.312,26.08 0,6.22 2.113,11.5 6.336,15.84 4.226,4.33 9.457,6.5 15.687,6.5 3.91,0 7.528,-0.8 10.852,-2.39 3.328,-1.58 6.019,-3.85 8.082,-6.81 2.062,-2.96 3.094,-6.39 3.094,-10.3 0,-3.59 -1.114,-6.62 -3.336,-9.11 -2.219,-2.48 -5.121,-3.72 -8.711,-3.72 -5.391,0 -9.906,1.87 -13.547,5.62 -3.645,3.76 -5.469,8.32 -5.469,13.71 -2.953,-2.22 -4.43,-5.55 -4.43,-9.98 0,-6.66 1.926,-13.05 5.782,-19.18 3.851,-6.13 9.343,-12.75 16.476,-19.88 7.133,-7.13 13.657,-13.65 19.571,-19.57 5.918,-5.91 10.406,-11.35 13.468,-16.32 1.473,13.1 4.907,24.5 10.293,34.22 5.387,9.72 13.68,14.58 24.875,14.58 2.223,0 5.078,-0.42 8.559,-1.26 8.453,-2.01 15.16,-3.02 20.129,-3.02 10.035,0 15.051,3.44 15.051,10.31 0,8.13 -4.411,14.28 -13.235,18.45 -8.816,4.17 -19.09,7.63 -30.816,10.38 -1.375,0.42 -2.059,1.32 -2.059,2.7 v 3.96 c 0,0.84 0.289,1.58 0.871,2.21 0.582,0.63 1.293,0.95 2.141,0.95 0.207,0 0.527,-0.1 0.953,-0.31 34.012,-8.45 51.016,-21.45 51.016,-38.98 0,-6.34 -1.481,-11.94 -4.442,-16.8 -2.953,-4.85 -6.965,-8.58 -12.035,-11.17 -5.07,-2.58 -10.777,-3.88 -17.117,-3.88 -3.59,0 -7.285,0.48 -11.086,1.43 -2.645,0.63 -5.074,0.95 -7.289,0.95 -8.66,0 -15.211,-3.81 -19.652,-11.41 -4.438,-7.61 -7.18,-16.32 -8.235,-26.14 l 68.449,-16.96 c 3.27,-0.84 5.993,-2.53 8.165,-5.07 2.16,-2.53 3.242,-5.44 3.242,-8.71 0,-2.75 -0.95,-5.16 -2.848,-7.21 -1.906,-2.06 -4.234,-3.09 -6.977,-3.09" /><path
         id="path154"
         style="fill:#262626;fill-opacity:1;fill-rule:nonzero;stroke:none"
         d="m 848.664,4349.84 c 0,-1.9 -1.004,-2.85 -3.012,-2.85 -0.953,0 -1.636,0.22 -2.058,0.64 -37.289,38.13 -91.375,57.19 -162.254,57.19 -70.875,0 -124.75,-18.85 -161.621,-56.56 -0.528,-0.85 -1.426,-1.27 -2.688,-1.27 -0.847,0 -1.558,0.29 -2.14,0.87 -0.582,0.59 -0.871,1.25 -0.871,1.98 v 3.18 c 0,0.63 0.207,1.16 0.628,1.58 12.676,16.05 28.043,29.42 46.11,40.08 18.062,10.67 37.34,18.49 57.832,23.46 20.5,4.96 41.414,7.44 62.75,7.44 15.848,0 31.402,-1.34 46.66,-4.03 15.266,-2.7 30.344,-6.95 45.238,-12.76 14.899,-5.81 28.633,-13.18 41.203,-22.11 12.567,-8.92 23.762,-19.62 33.586,-32.08 0.426,-0.42 0.637,-0.95 0.637,-1.58 v -3.18" /><path
         id="path156"
         style="fill:#262626;fill-opacity:1;fill-rule:nonzero;stroke:none"
         d="m 848.664,4463.77 h -13.465 v 32.63 H 527.484 v -32.63 H 514.02 v 45.94 h 334.644 v -45.94" /><path
         id="path158"
         style="fill:#262626;fill-opacity:1;fill-rule:nonzero;stroke:none"
         d="m 804.676,4574.44 c 5.07,4.22 7.605,11.62 7.605,22.18 0,5.92 -2.031,11.43 -6.097,16.56 -4.067,5.12 -9.008,9.11 -14.813,11.96 -6.551,3.28 -13.578,5.36 -21.074,6.26 -7.504,0.9 -16.801,1.35 -27.887,1.35 6.336,-2.64 11.508,-6.45 15.524,-11.41 4.015,-4.96 6.023,-10.67 6.023,-17.12 0,-9.08 -2.457,-17.15 -7.371,-24.23 -4.906,-7.08 -11.379,-12.52 -19.41,-16.33 -8.024,-3.8 -16.528,-5.7 -25.512,-5.7 -9.297,0 -18.012,2.11 -26.144,6.34 -8.133,4.22 -14.547,10.11 -19.247,17.66 -4.699,7.56 -7.046,16.09 -7.046,25.6 0,9.4 2.558,17.27 7.675,23.61 5.125,6.33 11.727,11.19 19.813,14.57 8.082,3.38 16.637,5.73 25.668,7.06 9.031,1.32 17.933,1.98 26.699,1.98 12.043,0 24.297,-2.22 36.762,-6.65 12.461,-4.45 22.863,-11.05 31.215,-19.82 8.339,-8.76 12.511,-19.33 12.511,-31.69 0,-9.19 -2.168,-16.98 -6.5,-23.37 -4.328,-6.39 -10.82,-9.59 -19.48,-9.59 -3.172,0 -5.836,1.09 -8,3.25 -2.172,2.17 -3.258,4.89 -3.258,8.16 0,3.07 1.086,5.68 3.258,7.85 2.164,2.16 4.828,3.24 8,3.24 2.953,0 5.539,-1.11 7.758,-3.32 2.218,-2.22 3.328,-4.81 3.328,-7.77 z m -46.903,30.58 c 0,6.45 -2.136,11.7 -6.41,15.77 -4.277,4.07 -9.617,7 -16.011,8.78 -6.387,1.81 -12.75,2.7 -19.086,2.7 h -4.442 -0.789 c -11.722,0 -22.183,-1.72 -31.375,-5.15 -9.187,-3.43 -13.781,-9.95 -13.781,-19.56 0,-6.13 1.344,-11.12 4.035,-14.98 2.695,-3.85 6.289,-6.68 10.777,-8.47 4.493,-1.81 9.27,-2.94 14.34,-3.41 5.071,-0.48 10.614,-0.71 16.633,-0.71 8.766,0 16.27,0.39 22.5,1.19 6.234,0.78 11.727,3.06 16.481,6.81 4.753,3.75 7.128,9.43 7.128,17.03" /><path
         id="path160"
         style="fill:#262626;fill-opacity:1;fill-rule:nonzero;stroke:none"
         d="m 804.676,4689.95 c 5.07,4.22 7.605,11.61 7.605,22.17 0,5.92 -2.031,11.44 -6.097,16.56 -4.067,5.12 -9.008,9.12 -14.813,11.97 -6.551,3.27 -13.578,5.36 -21.074,6.26 -7.504,0.89 -16.801,1.34 -27.887,1.34 6.336,-2.64 11.508,-6.44 15.524,-11.41 4.015,-4.96 6.023,-10.67 6.023,-17.11 0,-9.09 -2.457,-17.17 -7.371,-24.25 -4.906,-7.07 -11.379,-12.51 -19.41,-16.32 -8.024,-3.8 -16.528,-5.7 -25.512,-5.7 -9.297,0 -18.012,2.12 -26.144,6.34 -8.133,4.23 -14.547,10.12 -19.247,17.67 -4.699,7.55 -7.046,16.08 -7.046,25.58 0,9.41 2.558,17.28 7.675,23.61 5.125,6.34 11.727,11.2 19.813,14.58 8.082,3.39 16.637,5.73 25.668,7.05 9.031,1.32 17.933,1.98 26.699,1.98 12.043,0 24.297,-2.22 36.762,-6.65 12.461,-4.44 22.863,-11.04 31.215,-19.81 8.339,-8.77 12.511,-19.33 12.511,-31.69 0,-9.19 -2.168,-16.98 -6.5,-23.37 -4.328,-6.39 -10.82,-9.59 -19.48,-9.59 -3.172,0 -5.836,1.09 -8,3.25 -2.172,2.17 -3.258,4.89 -3.258,8.16 0,3.07 1.086,5.68 3.258,7.84 2.164,2.17 4.828,3.26 8,3.26 2.953,0 5.539,-1.11 7.758,-3.33 2.218,-2.21 3.328,-4.8 3.328,-7.77 z m -46.903,30.57 c 0,6.44 -2.136,11.7 -6.41,15.77 -4.277,4.06 -9.617,6.99 -16.011,8.79 -6.387,1.8 -12.75,2.7 -19.086,2.7 h -4.442 -0.789 c -11.722,0 -22.183,-1.72 -31.375,-5.15 -9.187,-3.44 -13.781,-9.96 -13.781,-19.58 0,-6.12 1.344,-11.11 4.035,-14.96 2.695,-3.86 6.289,-6.69 10.777,-8.48 4.493,-1.8 9.27,-2.93 14.34,-3.41 5.071,-0.48 10.614,-0.72 16.633,-0.72 8.766,0 16.27,0.4 22.5,1.2 6.234,0.79 11.727,3.06 16.481,6.8 4.753,3.75 7.128,9.43 7.128,17.04" /><path
         id="path162"
         style="fill:#262626;fill-opacity:1;fill-rule:nonzero;stroke:none"
         d="m 819.57,4837.44 c 0,-9.61 -2.562,-17.64 -7.687,-24.08 -5.125,-6.45 -11.75,-11.43 -19.883,-14.97 -8.137,-3.54 -16.691,-6 -25.668,-7.37 -8.977,-1.38 -18.062,-2.06 -27.25,-2.06 -12.254,0 -24.59,2.38 -37.004,7.13 -12.41,4.75 -22.656,11.77 -30.734,21.07 -8.078,9.3 -12.117,20.34 -12.117,33.12 0,5.39 1,10.38 3,14.98 2.007,4.59 4.964,8.18 8.871,10.77 3.918,2.59 8.617,3.88 14.109,3.88 3.168,0 5.836,-1.08 8,-3.24 2.164,-2.17 3.246,-4.84 3.246,-8.01 0,-3.07 -1.082,-5.68 -3.246,-7.84 -2.164,-2.17 -4.832,-3.25 -8,-3.25 -3.062,0 -5.676,1.08 -7.84,3.25 -2.172,2.16 -3.254,4.77 -3.254,7.84 v 1.26 c -2.855,-2 -4.941,-4.8 -6.258,-8.39 -1.32,-3.59 -1.976,-7.34 -1.976,-11.25 0,-4.65 1.027,-8.98 3.09,-12.99 2.054,-4.02 4.828,-7.61 8.316,-10.78 3.481,-3.17 7.336,-5.81 11.563,-7.92 4.222,-2.12 9.031,-3.78 14.418,-4.99 5.386,-1.22 10.433,-1.96 15.14,-2.22 4.699,-0.26 10.586,-0.4 17.664,-0.4 -6.34,2.65 -11.543,6.48 -15.605,11.49 -4.07,5.02 -6.106,10.7 -6.106,17.03 0,6.87 1.399,13.16 4.2,18.86 2.796,5.71 6.707,10.62 11.722,14.74 5.024,4.11 10.703,7.26 17.035,9.43 6.344,2.16 12.786,3.24 19.329,3.24 9.085,0 17.75,-2.03 25.992,-6.1 8.242,-4.06 14.789,-9.79 19.644,-17.19 4.86,-7.4 7.289,-15.74 7.289,-25.04 z m -7.289,0 c 0,6.02 -1.375,10.86 -4.117,14.5 -2.746,3.65 -6.391,6.31 -10.934,8.01 -4.542,1.68 -9.113,2.74 -13.71,3.17 -4.59,0.42 -10.215,0.63 -16.875,0.63 -8.766,0 -16.266,-0.43 -22.493,-1.27 -6.23,-0.85 -11.726,-3.12 -16.476,-6.82 -4.762,-3.69 -7.141,-9.39 -7.141,-17.1 0,-6.24 2.141,-11.39 6.418,-15.46 4.281,-4.06 9.641,-7.05 16.086,-8.95 6.441,-1.9 12.676,-2.85 18.699,-2.85 2.11,0 3.696,0.1 4.754,0.31 0.211,0 0.395,-0.02 0.551,-0.07 0.16,-0.05 0.348,-0.13 0.555,-0.24 6.652,0 13.386,0.68 20.203,2.06 6.812,1.37 12.597,4.02 17.351,7.93 4.75,3.91 7.129,9.29 7.129,16.15" /><path
         id="path164"
         style="fill:none;stroke:#0072bd;stroke-width:29.99650002;stroke-linecap:butt;stroke-linejoin:round;stroke-miterlimit:10;stroke-dasharray:none;stroke-opacity:1"
         d="m 1298.02,1744.45 7.74,-322.23 7.74,98.03 7.73,197.08 7.74,633.82 7.74,188.14 7.74,-46.57 7.73,798.34 7.74,-80.96 7.74,-437.3 7.74,564.3 7.73,258.47 7.74,71.03 7.74,-476.73 7.74,191.24 7.74,116.69 7.73,-187.94 7.74,532.6 7.74,271.45 7.74,-123.41 7.73,187.15 7.74,178.37 7.74,-308.47 7.73,-51.52 7.74,-458.1 7.74,-668.2 7.74,-454.69 7.73,879.01 7.74,248 7.74,151.28 7.73,-949.63 7.74,-5.73 7.74,-259.3 7.74,310.24 7.73,-838.08 7.74,-5.91 7.74,-213.11 7.74,1295.19 7.74,-623.27 7.73,398.96 7.74,-172.03 7.74,754.18 7.74,-539.65 7.73,175.33 7.74,473.57 7.74,-259.51 7.74,239.06 7.73,-159.94 7.74,206.07 7.74,398.68 7.73,-221.06 7.74,-37.32 7.74,-336.88 7.74,-28.78 7.73,-292.39 7.74,-359.73 7.74,-372.78 7.73,448.87 7.74,689.82 7.74,606.84 7.74,-409.7 7.73,-953.26 7.74,208.51 7.74,-153.41 7.74,412.12 7.74,86.78 7.73,-237.22 7.74,-529.34 7.74,779.33 7.74,-630.01 7.73,335.79 7.74,-4.73 7.74,-307.81 7.74,563.05 7.73,-1375.37 7.74,394.85 7.74,655.61 7.73,723.41 7.74,496.11 7.74,374.61 7.74,-921.84 7.73,-476.7 7.74,265 7.74,425.75 7.73,215.31 7.74,-749.3 7.74,-386.03 7.74,475.45 7.74,697.74 7.73,-1285.75 7.74,525.84 7.74,137.99 7.74,416.89 7.74,-964.92 7.73,285.38 7.74,646.81 7.74,245.91 7.73,-550.83 7.74,-44.36 7.74,-274.68 7.74,179.67 7.73,494.62 7.74,-854.94 7.74,516.58 7.73,-484.43 7.74,-210.51 7.74,12.84 7.74,-193.41 7.73,469.25 7.74,-285.52 7.74,-590.62 7.74,-538.38 7.73,244.09 7.74,675.64 7.74,742.03 7.74,11.99 7.74,-323.38 7.73,-204.32 7.74,-203.55 7.74,737.59 7.74,-122.32 7.73,-910.8 7.74,800.1 7.74,388.02 7.73,-280.31 7.74,533.04 7.74,42.1 7.74,178.73 7.73,7.36 7.74,243.47 7.74,-195.64 7.74,-59.31 7.73,-247.01 7.74,-397.48 7.74,261.26 7.73,-395.89 7.74,625.75 7.74,-309.14 7.74,-386.58 7.74,773.26 7.73,-21.33 7.74,2.64 7.74,-526.17 7.74,529.52 7.73,722.52 7.74,-534.49 7.74,-569.58 7.74,249.97 7.73,224.11 7.74,462.3 7.74,-276.11 7.74,-198.59 7.73,564.97 7.74,-598.75 7.74,-72.83 7.73,-88.53 7.74,-685.05 7.74,78.93 7.74,295.3 7.73,75.09 7.74,166.65 7.74,-25.42 7.74,580.92 7.73,-333.59 7.74,-466.74 7.74,-606.72 7.74,-173.8 7.73,530.46 7.74,-390.91 7.74,91.62 7.74,-148.08 7.74,-189.29 7.73,801.16 7.74,396.05 7.74,-170.82 7.73,-57.1 7.74,365.77 7.74,-660 7.74,-54.03 7.73,655.21 7.74,92.4 7.74,-445.19 7.73,-215.2 7.74,303.47 7.74,234.13 7.74,-515.97 7.73,-431.45 7.74,402.29 7.74,-3.23 7.74,391.97 7.73,-663.05 7.74,451.35 7.74,-312.22 7.74,585.93 7.74,-278.1 7.73,-526.85 7.74,-418.41 7.74,860.27 7.74,147.02 7.73,-276.55 7.74,-104.49 7.74,-28.73 7.73,-270.36 7.74,777.84 7.74,517.23 7.74,-454.16 7.73,-277 7.74,-224.77 7.74,-27.81 7.73,-586.59 7.74,377.17 7.74,65.9 7.74,432.36 7.73,-54.65 7.74,-323.79 7.74,150.9 7.74,575.92 7.74,-179.88 7.73,-202.54 7.74,118.28 7.74,-621.53 7.74,694.51 7.73,-607.48 7.74,230.21 7.74,528.86 7.74,-301.92 7.73,-360.81 7.74,-322.25 7.74,40.48 7.73,233.99 7.74,560.23 7.74,-588.88 7.74,-667.55 7.73,-2.95 7.74,433.36 7.74,-39.8 7.73,6.87 7.74,-118.05 7.74,-578.75 7.74,124.97 7.74,406.99 7.73,44.97 7.74,200.19 7.74,735.38 7.74,-445.26 7.73,-386.96 7.74,335.27 7.74,-221.19 7.74,390.15 7.73,-458.29 7.74,239.43 7.74,-99.95 7.74,468.35 7.73,209.45 7.74,-284.35 7.74,-5.88 7.73,652.11 7.74,1118.72 7.74,-440.04 7.74,-578.69 7.73,-516.24 7.74,58.86 7.74,202.57 7.74,87.44 7.73,488.75 7.74,-195.82 7.74,-557.62 7.74,-747.81 7.73,-529.71 7.74,199.07 7.74,381.03 7.74,132.63 7.74,-25.48 7.73,216.4 7.74,331.22 7.74,296.64 7.73,55.99 7.74,-316.58 7.74,-531.11 7.74,-970.38 7.73,336.46 7.74,343.67 7.74,488.69 7.73,143.43 7.74,-674.21 7.74,-356.01 7.74,-239.91 7.73,823.07 7.74,689.08 7.74,-715.51 7.74,-575.91 7.73,-356.29 7.74,352.07 7.74,1008.49 7.74,-185.38 7.74,-466.21 7.73,1033.86 7.74,-212.79 7.74,-290.09 7.74,-375.87 7.73,-332.29 7.74,90.39 7.74,-198.51 7.73,516.8 7.74,-354.35 7.74,40.33 7.74,-496.48 7.73,12.31 7.74,511.99 7.74,527.89 7.74,273.42 7.73,-359.69 7.74,282.08 7.74,-568.6 7.73,1.71 7.74,-748.49 7.74,1034.83 7.74,-27.92 7.74,-484.23 7.73,426.42 7.74,-49.66 7.74,-153.79 7.74,538.29 7.73,-144.06 7.74,321.03 7.74,95.29 7.74,-422.22 7.73,676.99 7.74,-443.25 7.74,-177.9 7.74,-364.62 7.73,272.95 7.74,393.89 7.74,49.94 7.73,-674.8 7.74,779.09 7.74,-362.46 7.74,-442.54 7.73,-369.56 7.74,215.51 7.74,805.93 7.74,-514.09 7.73,285.37 7.74,277.09 7.74,-632.15 7.74,-334.42 7.73,724.73 7.74,287.7 7.74,382.27 7.74,-598.33 7.74,-591.1 7.73,447.06 7.74,292.16 7.74,-378.75 7.73,84.99 7.74,19.23 7.74,177.23 7.74,34.94 7.73,274.47 7.74,879.91 7.74,-458.02 7.73,-1201.65 7.74,66.34 7.74,444.23 7.74,687.42 7.73,-11.67 7.74,-1166.46 7.74,408.75 7.74,-492.84 7.73,236.83 7.74,-102.25 7.74,678.95 7.74,-493.41 7.74,413.61 7.73,122.86 7.74,1001.39 7.74,-635.4 7.74,179.83 7.73,-582.34 7.74,-85.27 7.74,-187.6 7.73,507.86 7.74,-314.55 7.74,-548.65 7.74,-293.7 7.73,-231.87 7.74,715.82 7.74,110.37 7.73,-158.51 7.74,51.13 7.74,239.46 7.74,-693.55 7.73,83.58 7.74,-100.41 7.74,-23.77 7.74,656 7.74,-321.34 7.73,906.28 7.74,-542.73 7.74,267.44 7.74,408.04 7.73,-221.29 7.74,-207.08 7.74,784.62 7.74,-654.62 7.73,360.79 7.74,-318.36 7.74,240.49 7.73,-457.42 7.74,-544.57 7.74,529.39 7.74,-534.96 7.73,-13.52 7.74,510.73 7.74,238.69 7.73,-47.12 7.74,-99.37 7.74,504.67 7.74,-395.11 7.74,-107.85 7.73,425.32 7.74,319.07 7.74,-1211.13 7.74,79.24 7.73,-21.61 7.74,-47.78 7.74,627.65 7.74,-491.67 7.73,-118.38 7.74,-104.73 7.74,-178.34 7.74,42.32 7.73,-702.04 7.74,88.65 7.74,878 7.73,-289.09 7.74,42.13 7.74,-163.68 7.74,607.4 7.73,-461.63 7.74,-416.47 7.74,-139.09 7.74,-167.77 7.73,664.7 7.74,-578.85 7.74,988.65 7.74,-135.2 7.74,221.31 7.73,-417.71 7.74,-374.71 7.74,28.86 7.74,-90.41 7.73,354.9 7.74,1.74 7.74,828.01 7.73,242.77 7.74,-39.87 7.74,-17.52 7.74,-1021.03 7.73,77.34 7.74,-602.96 7.74,631.19 7.73,92.88 7.74,557.81 7.74,-463.58 7.74,274.46 7.73,61.43 7.74,474.52 7.74,-950.69 7.74,-255.91 7.73,181.13 7.74,-222.62 7.74,492.17 7.74,-614.07 7.74,-136.67 7.73,725.02 7.74,267.04 7.74,113.14 7.74,-83.97 7.73,-401.07 7.74,404.45 7.74,610.26 7.73,-669.08 7.74,-27.8 7.74,-182.6 7.74,-424.8 7.73,348.53 7.74,290.53 7.74,-342.89 7.74,-384.09 7.73,31.91 7.74,547.15 7.74,-248.72 7.73,-60.81 7.74,-489.07 7.74,1012.55 7.74,583.55 7.74,350.7 7.73,-869.58 7.74,-418.48 7.74,-424.96 7.74,266.54 7.73,-377.9 7.74,75.21 7.74,-279.87 7.74,-148.43 7.73,-480.17 7.74,602.23 7.74,-174.03 7.74,763.27 7.73,-12.11 7.74,615.48 7.74,200.21 7.73,-247.75 7.74,-150.3 7.74,-171.23 7.74,-309.02 7.73,704.72 7.74,-699.22 7.74,587.16 7.74,-366.45 7.73,944.67 7.74,-324.47 7.74,-167.71 7.74,428.97 7.74,389.61 7.73,-902.8 7.74,117.56 7.74,208.78 7.74,-515.81 7.73,39.4 7.74,40.4 7.74,235.35 7.73,-259.83 7.74,5.29 7.74,-585.9 7.74,108.87 7.73,-8.77 7.74,260.61 7.74,-556.34 7.73,596.3 7.74,246.97 7.74,-169.78 7.74,632.21 7.73,-933.55 7.74,-104.92 7.74,-254.9 7.74,681.71 7.74,1196.51 7.73,-391.15 7.74,-888.87 7.74,46.38 7.74,197.09 7.73,-494.36 7.74,188.04 7.74,206.12 7.74,583.84 7.73,50.47 7.74,-125.98 7.74,-372.57 7.73,705.18 7.74,-242.53 7.74,-173.08 7.74,-470.45 7.73,-24 7.74,-277.69 7.74,294.8 7.73,-864.04 7.74,266.97 7.74,392.82 7.74,-956.2 7.73,586.74 7.74,749.31 7.74,-939.61 7.74,751.33 7.74,144.01 7.73,435.26 7.74,-982.18 7.74,10.58 7.74,-166.85 7.73,238.73 7.74,749.4 7.74,-132.89 7.74,-525.53 7.73,258.06 7.74,-169.18 7.74,-293.8 7.73,267.71 7.74,-54.93 7.74,476.27 7.74,-518.41 7.73,51.25 7.74,576.41 7.74,265.1 7.73,420.91 7.74,-391.78 7.74,-729 7.74,676.55 7.74,827.43 7.73,-465.68 7.74,-420.9 7.74,-353.56 7.74,283.02 7.73,-365.36 7.74,-361.03 7.74,-309.33 7.74,-10.26 7.73,20.46 7.74,-232.56 7.74,240.07 7.74,657.69 7.73,-424.49 7.74,-231.01 7.74,-48.77 7.73,-347.05 7.74,216.93 7.74,85.75 7.74,542.31 7.73,-51.87 7.74,246.26 7.74,12.15 7.74,-355.02 7.73,619.58 7.74,432.15 7.74,-47.77 7.74,104.85 7.74,-958.77 7.73,-96.17 7.74,548.36 7.74,295.6 7.74,-488.41 7.73,-220.92 7.74,-318.13 7.74,142.38 7.73,148.88 7.74,73.42 7.74,215.69 7.74,-673.92 7.73,-642.68 7.74,1008.15 7.74,-478.62 7.73,557.08 7.74,446.58 7.74,-351.12 7.74,-286.57 7.73,576.42 7.74,-20.07 7.74,175.56 7.74,-649.59 7.74,-206.28 7.73,-277.06 7.74,755.27 7.74,-221.01 7.74,556.19 7.73,-552.39 7.74,-192.84 7.74,-326.68 7.74,159.21 7.73,170.91 7.74,648.12 7.74,0.74 7.73,-619.68 7.74,-308.86 7.74,-588.9 7.74,586.93 7.73,651.25 7.74,-109.38 7.74,-319.45 7.74,131.96 7.73,-254.39 7.74,596.72 7.74,-243.72 7.74,577.59 7.73,276.54 7.74,-255.1 7.74,-261 7.74,-224.84 7.73,-99.1 7.74,218.69 7.74,-800.26 7.74,350.24 7.73,294.59 7.74,-337.35 7.74,-44.42 7.74,186.46 7.73,140.37 7.74,237.9 7.74,-601.52 7.74,-236.48 7.73,-137.18 7.74,181 7.74,133.72 7.73,-647.64 7.74,152.3 7.74,135.91 7.74,810.95 7.73,-869.01 7.74,-231.01 7.74,337.82 7.74,-6.32 7.73,467.46 7.74,285.02 7.74,361.78 7.74,-29.34 7.73,57.55 7.74,42.56 7.74,-750.61 7.74,-268.46 7.74,279.02 7.73,-77.73 7.74,-1.41 7.74,365.46 7.73,891.27 7.74,-411.61 7.74,691.21 7.74,43.15 7.73,-618.05 7.74,437.86 7.74,-594.35 7.73,-1134.13 7.74,360.12 7.74,-40.41 7.74,-364.42 7.73,86.54 7.74,399.7 7.74,795.11 7.74,-14.36 7.73,-22.73 7.74,-564.78 7.74,203.45 7.74,289.48 7.74,-85.22 7.73,11.37 7.74,-236.08 7.74,193.4 7.74,-493.2 7.73,-72.07 7.74,-232.22 7.74,-75.05 7.73,254.96 7.74,483.69 7.74,382.71 7.74,36.22 7.73,-360.61 7.74,-581.69 7.74,409.71 7.73,-261.43 7.74,-209 7.74,-368.75 7.74,664.02 7.74,93.35 7.73,96.67 7.74,67.27 7.74,131.22 7.74,-693.22 7.73,-41.14 7.74,99.16 7.74,21.87 7.74,-19.26 7.73,-58.93 7.74,-353.76 7.74,546.16 7.74,-446.79 7.73,-236.77 7.74,468.83 7.74,-363.83 7.73,294.74 7.74,134.03 7.74,361.9 7.74,-938.52 7.73,379.98 7.74,-368.68 7.74,32.2 7.74,597.28 7.73,-199.36 7.74,618.13 7.74,-187.26 7.74,-1093.76 7.73,148.18 7.74,127.68 7.74,383.31 7.74,-525.15 7.74,209.03 7.73,47.42 7.74,-177.29 7.74,124.02 7.73,109.53 7.74,107.44 7.74,827.4 7.74,-26.48 7.73,-337.54 7.74,-846.57 7.74,1133.73 7.73,20.16 7.74,403.24 7.74,255.03 7.74,156.17 7.73,-761.52 7.74,9.73 7.74,285.03 7.74,165.29 7.73,-991.12 7.74,211.93 7.74,458.57 7.74,-53.95 7.74,-303.27 7.73,-299.81 7.74,318.16 7.74,-89.25 7.74,-568.83 7.73,291.54 7.74,68.89 7.74,-704.41 7.73,-198.39 7.74,1160.46 7.74,390.1 7.74,-739.33 7.73,-184.5 7.74,579.16 7.74,22.08 7.73,526.25 7.74,-164.08 7.74,-931.55 7.74,385.32 7.73,-99.25 7.74,80.6 7.74,166.63 7.74,-833.82 7.73,411.83 7.74,51.45 7.74,332.86 7.74,-91.85 7.74,-691.13 7.73,407.09 7.74,-366.9 7.74,752.11 7.74,-4.13 7.73,-308.92 7.74,-285.08 7.74,3.77 7.73,180.35 7.74,151.07 7.74,79.4 7.74,-554.3 7.73,465.89 7.74,-134.83 7.74,-354.26 7.74,174.27 7.73,-71.02 7.74,-459.37 7.74,941.31 7.73,982.23 7.74,-667.01 7.74,-480.12 7.74,419.96 7.74,-400.17 7.73,87.95 7.74,197.3 7.74,189.56 7.74,-474.2 7.73,233.94 7.74,216.04 7.74,-56.64 7.74,1017.2 7.73,78.3 7.74,-787.39 7.74,218.98 7.74,-637.38 7.73,-140.68 7.74,-92.23 7.74,894.93 7.73,255.23 7.74,-587.01 7.74,-670.57 7.74,-185.86 7.73,245.81 7.74,515.07 7.74,-365.82 7.74,-957.35 7.73,630.21 7.74,-140.69 7.74,979.56 7.74,72.29 7.74,-1268.34 7.73,-167.3 7.74,-107.08 7.74,-98.3 7.74,-250.06 7.73,295.59 7.74,943.22 7.74,257.35 7.73,1016.17 7.74,-1497.18 7.74,-33.26 7.74,235.57 7.73,545.3 7.74,-680.1 7.74,372.26 7.73,-286.06 7.74,-182.88 7.74,429.18 7.74,-440.34 7.74,-1499.54 7.73,1317.53 7.74,141.45 7.74,-139.58 7.74,663.03 7.73,785.05 7.74,-526.26 7.74,-123.51 7.74,129.39 7.73,-131.83 7.74,-518.68 7.74,247.84 7.74,593.11 7.73,-972 7.74,-16.28 7.74,943.74 7.73,-255.84 7.74,-506.71 7.74,-943.49 7.74,343.25 7.73,452.37 7.74,173.42 7.74,212.59 7.74,902.77 7.73,-696.31 7.74,-310.31 7.74,-174.9 7.74,182.37 7.73,16.35 7.74,-87.03 7.74,80.58 7.74,222.03 7.74,-568 7.73,272.38 7.74,354.23 7.74,48.08 7.73,-45.7 7.74,177.48 7.74,-370.33 7.74,-500.89 7.73,1091.55 7.74,654 7.74,-591.76 7.73,-400.02 7.74,-207.97 7.74,46.88 7.74,372.27 7.73,-511.18 7.74,160.17 7.74,494.86 7.74,-494.46 7.73,-180.82 7.74,-816.9 7.74,119.01 7.74,286.06 7.73,-631.08 7.74,327.07 7.74,-114.17 7.74,360.79 7.74,296.56 7.73,-290.94 7.74,-244.17 7.74,123.58 7.73,934.96 7.74,511.14 7.74,160.39 7.74,-626.37 7.73,627.51 7.74,-64.1 7.74,34.01 7.73,238.31 7.74,359.39 7.74,-223.16 7.74,259.58 7.73,-47.68 7.74,-402.61 7.74,-419.87 7.74,-717.96 7.73,39.75 7.74,-538.03 7.74,192.3 7.74,337.46 7.74,604.53 7.73,-1624.14 7.74,497.63 7.74,7.97 7.74,-602.43 7.73,-228.18 7.74,-341.75 7.74,1153.23 7.73,446.13 7.74,612.79 7.74,58.1 7.74,-440.87 7.73,744.72 7.74,-242.84 7.74,429.39 7.73,-193.13 7.74,-357.24" /><path
         id="path166"
         style="fill:none;stroke:#000000;stroke-width:29.99650002;stroke-linecap:butt;stroke-linejoin:bevel;stroke-miterlimit:10;stroke-dasharray:81.1264, 81.1264;stroke-dashoffset:0;stroke-opacity:1"
         d="M 1298.02,5007.91 H 9035.45" /><path
         id="path168"
         style="fill:none;stroke:#000000;stroke-width:29.99650002;stroke-linecap:butt;stroke-linejoin:bevel;stroke-miterlimit:10;stroke-dasharray:81.1264, 81.1264;stroke-dashoffset:0;stroke-opacity:1"
         d="M 1298.02,1492.4 H 9035.45" /><path
         id="path170"
         style="fill:#ffffff;fill-opacity:1;fill-rule:nonzero;stroke:none"
         d="m 6672.65,4887.89 h 2281.68 v 689.574 H 6672.65 Z" /><path
         id="path172"
         style="fill:#000000;fill-opacity:1;fill-rule:nonzero;stroke:none"
         d="m 7053.85,5331.45 v 9.66 c 18.8,0 28.2,5.39 28.2,16.17 v 142.92 c 0,5.81 -9.4,8.71 -28.2,8.71 v 9.52 h 51.65 c 2.22,0 3.7,-1.01 4.44,-3.02 l 59.58,-154.97 59.73,154.97 c 0.74,2.01 2.22,3.02 4.45,3.02 h 51.64 v -9.52 c -18.8,0 -28.2,-2.9 -28.2,-8.71 v -150.36 c 0,-5.82 9.4,-8.73 28.2,-8.73 v -9.66 h -79.7 v 9.66 c 18.81,0 28.21,2.91 28.21,8.73 v 159.24 l -67.34,-174.62 c -0.84,-2.01 -2.38,-3.01 -4.6,-3.01 -2.32,0 -3.85,1 -4.59,3.01 l -66.55,172.56 v -149.74 c 0,-10.78 9.4,-16.17 28.2,-16.17 v -9.66 h -65.12" /><path
         id="path174"
         style="fill:#000000;fill-opacity:1;fill-rule:nonzero;stroke:none"
         d="m 7300.08,5331.45 v 9.66 c 18.8,0 28.21,2.91 28.21,8.73 v 150.36 c 0,5.81 -9.41,8.71 -28.21,8.71 v 9.52 h 151 l 7.61,-62.59 h -7.92 c -1.27,11.51 -2.93,20.57 -4.99,27.16 -2.06,6.61 -5.1,11.81 -9.12,15.61 -4.01,3.81 -9.4,6.48 -16.16,8.01 -6.76,1.53 -16,2.29 -27.73,2.29 h -25.04 c -3.27,0 -5.83,-0.13 -7.68,-0.39 -1.85,-0.27 -3.35,-1.06 -4.51,-2.38 -1.16,-1.32 -1.75,-3.3 -1.75,-5.94 v -70.5 h 19.5 c 9.29,0 16.13,0.81 20.52,2.45 4.38,1.64 7.39,4.64 9.02,9.02 1.64,4.39 2.46,11.28 2.46,20.68 h 7.93 v -73.67 h -7.93 c 0,9.29 -0.82,16.13 -2.46,20.51 -1.63,4.39 -4.64,7.4 -9.02,9.04 -4.39,1.63 -11.23,2.45 -20.52,2.45 h -19.5 v -70.34 c 0,-5.82 11.67,-8.73 35.02,-8.73 v -9.66 h -88.73" /><path
         id="path176"
         style="fill:#000000;fill-opacity:1;fill-rule:nonzero;stroke:none"
         d="m 7476.34,5331.45 v 9.66 c 18.8,0 28.2,2.91 28.2,8.73 v 150.36 c 0,5.81 -9.4,8.71 -28.2,8.71 v 9.52 h 81.91 v -9.52 c -18.8,0 -28.2,-2.9 -28.2,-8.71 v -66.55 h 80.8 v 66.55 c 0,5.81 -9.4,8.71 -28.2,8.71 v 9.52 h 81.76 v -9.52 c -18.7,0 -28.04,-2.9 -28.04,-8.71 v -150.36 c 0,-5.82 9.34,-8.73 28.04,-8.73 v -9.66 h -81.76 v 9.66 c 18.8,0 28.2,2.91 28.2,8.73 v 74.14 h -80.8 v -74.14 c 0,-5.82 9.4,-8.73 28.2,-8.73 v -9.66 h -81.91" /><path
         id="path178"
         style="fill:#000000;fill-opacity:1;fill-rule:nonzero;stroke:none"
         d="m 7845.36,5263.48 c -10.14,8.02 -18.91,17.24 -26.3,27.65 -7.39,10.41 -13.42,21.5 -18.07,33.27 -4.64,11.78 -8.13,24.08 -10.45,36.92 -2.33,12.83 -3.49,25.7 -3.49,38.58 0,13.1 1.16,26.07 3.49,38.9 2.32,12.83 5.86,25.16 10.61,36.99 4.76,11.84 10.83,22.93 18.23,33.29 7.39,10.35 16.05,19.43 25.98,27.24 0,0.32 0.42,0.48 1.27,0.48 h 2.53 c 0.53,0 1.03,-0.23 1.51,-0.71 0.47,-0.48 0.71,-1.03 0.71,-1.66 0,-0.85 -0.21,-1.43 -0.63,-1.75 -8.87,-8.77 -16.27,-18.14 -22.18,-28.13 -5.92,-9.98 -10.7,-20.59 -14.34,-31.84 -3.65,-11.25 -6.26,-22.92 -7.84,-35.01 -1.59,-12.1 -2.39,-24.7 -2.39,-37.8 0,-57.99 15.53,-102.04 46.59,-132.15 0.53,-0.63 0.79,-1.43 0.79,-2.38 0,-0.42 -0.26,-0.92 -0.79,-1.5 -0.53,-0.58 -1,-0.87 -1.43,-0.87 h -2.53 c -0.85,0 -1.27,0.16 -1.27,0.48" /><path
         id="path180"
         style="fill:#000000;fill-opacity:1;fill-rule:nonzero;stroke:none"
         d="m 7914.23,5328.44 -12.67,174.45 c -0.64,2.65 -2.65,4.31 -6.02,5 -3.39,0.68 -7.56,1.02 -12.52,1.02 -1.8,0 -2.7,1.17 -2.7,3.49 0.64,2.33 1.11,3.91 1.43,4.76 0.32,0.84 1.32,1.27 3.02,1.27 h 65.27 c 1.8,0 2.7,-1.17 2.7,-3.49 -0.74,-4.02 -1.9,-6.03 -3.49,-6.03 -14.57,0 -22.34,-2.53 -23.29,-7.6 l 9.83,-138.33 68.44,119.31 -1.43,20.6 c -0.62,2.65 -2.63,4.31 -6.01,5 -3.38,0.68 -7.56,1.02 -12.52,1.02 -1.9,0 -2.85,1.17 -2.85,3.49 0.63,2.33 1.13,3.91 1.5,4.76 0.37,0.84 1.46,1.27 3.25,1.27 h 65.28 c 1.8,0 2.7,-1.17 2.7,-3.49 -0.11,-0.53 -0.3,-1.32 -0.56,-2.39 -0.27,-1.05 -0.63,-1.92 -1.11,-2.6 -0.47,-0.69 -1.13,-1.04 -1.97,-1.04 -14.69,0 -22.45,-2.53 -23.3,-7.6 v -2.06 l 9.82,-136.27 74.47,129.93 c 1.06,2.01 1.59,3.97 1.59,5.86 0,3.7 -1.83,6.32 -5.47,7.85 -3.64,1.53 -7.74,2.29 -12.28,2.29 -1.79,0 -2.69,1.17 -2.69,3.49 0.42,1.48 0.74,2.62 0.96,3.41 0.2,0.79 0.6,1.42 1.18,1.9 0.58,0.48 1.46,0.72 2.62,0.72 h 52.29 c 1.78,0 2.68,-1.17 2.68,-3.49 -0.1,-0.53 -0.28,-1.35 -0.55,-2.46 -0.26,-1.1 -0.63,-1.98 -1.11,-2.61 -0.47,-0.64 -1.08,-0.96 -1.82,-0.96 -12.99,0 -22.92,-5.96 -29.79,-17.91 -0.53,-0.52 -0.79,-0.79 -0.79,-0.79 l -92.7,-161.77 c -0.94,-2.01 -2.53,-3.01 -4.74,-3.01 h -2.06 c -2.23,0 -3.34,1 -3.34,3.01 l -10.46,141.02 -80.48,-141.02 c -1.38,-2.01 -2.96,-3.01 -4.76,-3.01 h -2.37 c -2.12,0 -3.18,1 -3.18,3.01" /><path
         id="path182"
         style="fill:#000000;fill-opacity:1;fill-rule:nonzero;stroke:none"
         d="m 8137.23,5302.68 c 3.38,-5.91 10.3,-8.87 20.76,-8.87 4.53,0 8.84,0.79 12.91,2.37 4.07,1.58 7.42,3.91 10.06,6.98 2.64,3.06 3.96,6.75 3.96,11.08 0,3.38 -1.19,6.13 -3.57,8.24 -2.37,2.11 -5.25,3.54 -8.63,4.29 l -10.46,2.05 c -4.76,1.27 -8.69,3.51 -11.81,6.74 -3.11,3.21 -4.67,7.15 -4.67,11.8 0,5.71 1.56,10.75 4.67,15.13 3.12,4.39 7.21,7.74 12.28,10.06 5.07,2.33 10.36,3.49 15.86,3.49 5.8,0 11,-1.37 15.6,-4.12 4.6,-2.74 6.9,-6.86 6.9,-12.36 0,-2.95 -0.82,-5.57 -2.47,-7.84 -1.63,-2.27 -3.93,-3.41 -6.88,-3.41 -1.69,0 -3.15,0.56 -4.36,1.67 -1.22,1.11 -1.83,2.5 -1.83,4.2 0,1.48 0.42,2.93 1.27,4.35 0.84,1.42 1.98,2.56 3.41,3.4 1.42,0.85 2.88,1.27 4.36,1.27 -1.16,2.75 -3.3,4.76 -6.42,6.02 -3.12,1.28 -6.42,1.91 -9.9,1.91 -3.28,0 -6.56,-0.66 -9.82,-1.99 -3.29,-1.32 -5.9,-3.24 -7.86,-5.78 -1.95,-2.53 -2.93,-5.54 -2.93,-9.03 0,-2.32 0.8,-4.35 2.39,-6.1 1.58,-1.74 3.58,-2.98 6.01,-3.72 l 11.26,-2.22 c 3.48,-0.84 6.73,-2.22 9.74,-4.12 3.01,-1.9 5.39,-4.31 7.13,-7.21 1.75,-2.91 2.62,-6.26 2.62,-10.06 0,-4.76 -1.35,-9.46 -4.05,-14.1 -2.69,-4.66 -5.99,-8.35 -9.9,-11.1 -6.76,-4.64 -15.1,-6.96 -25.03,-6.96 -6.87,0 -13.16,1.58 -18.86,4.74 -5.7,3.17 -8.56,7.88 -8.56,14.11 0,3.49 1.03,6.52 3.09,9.11 2.06,2.59 4.84,3.88 8.32,3.88 2.01,0 3.73,-0.63 5.16,-1.9 1.42,-1.27 2.14,-2.91 2.14,-4.91 0,-2.96 -1.09,-5.55 -3.26,-7.76 -2.16,-2.22 -4.73,-3.33 -7.69,-3.33 h -0.94" /><path
         id="path184"
         style="fill:#000000;fill-opacity:1;fill-rule:nonzero;stroke:none"
         d="m 8225.82,5302.68 c 3.38,-5.91 10.3,-8.87 20.76,-8.87 4.54,0 8.85,0.79 12.91,2.37 4.07,1.58 7.42,3.91 10.06,6.98 2.64,3.06 3.96,6.75 3.96,11.08 0,3.38 -1.18,6.13 -3.56,8.24 -2.38,2.11 -5.25,3.54 -8.64,4.29 l -10.45,2.05 c -4.75,1.27 -8.69,3.51 -11.81,6.74 -3.11,3.21 -4.67,7.15 -4.67,11.8 0,5.71 1.56,10.75 4.67,15.13 3.12,4.39 7.22,7.74 12.29,10.06 5.07,2.33 10.34,3.49 15.84,3.49 5.8,0 11,-1.37 15.6,-4.12 4.6,-2.74 6.9,-6.86 6.9,-12.36 0,-2.95 -0.82,-5.57 -2.46,-7.84 -1.64,-2.27 -3.94,-3.41 -6.89,-3.41 -1.69,0 -3.15,0.56 -4.36,1.67 -1.21,1.11 -1.82,2.5 -1.82,4.2 0,1.48 0.42,2.93 1.27,4.35 0.85,1.42 1.98,2.56 3.41,3.4 1.42,0.85 2.87,1.27 4.35,1.27 -1.16,2.75 -3.3,4.76 -6.42,6.02 -3.12,1.28 -6.42,1.91 -9.9,1.91 -3.28,0 -6.56,-0.66 -9.82,-1.99 -3.28,-1.32 -5.89,-3.24 -7.84,-5.78 -1.96,-2.53 -2.93,-5.54 -2.93,-9.03 0,-2.32 0.78,-4.35 2.37,-6.1 1.58,-1.74 3.59,-2.98 6.02,-3.72 l 11.25,-2.22 c 3.48,-0.84 6.73,-2.22 9.74,-4.12 3.01,-1.9 5.39,-4.31 7.13,-7.21 1.75,-2.91 2.62,-6.26 2.62,-10.06 0,-4.76 -1.35,-9.46 -4.04,-14.1 -2.7,-4.66 -6,-8.35 -9.91,-11.1 -6.75,-4.64 -15.1,-6.96 -25.03,-6.96 -6.87,0 -13.15,1.58 -18.85,4.74 -5.71,3.17 -8.56,7.88 -8.56,14.11 0,3.49 1.03,6.52 3.09,9.11 2.05,2.59 4.83,3.88 8.31,3.88 2.01,0 3.73,-0.63 5.16,-1.9 1.42,-1.27 2.14,-2.91 2.14,-4.91 0,-2.96 -1.08,-5.55 -3.25,-7.76 -2.17,-2.22 -4.73,-3.33 -7.69,-3.33 h -0.95" /><path
         id="path186"
         style="fill:#000000;fill-opacity:1;fill-rule:nonzero;stroke:none"
         d="m 8406.71,5367.89 c -1.48,0 -2.72,0.56 -3.72,1.67 -1,1.11 -1.5,2.35 -1.5,3.72 0,1.48 0.5,2.77 1.5,3.88 1,1.11 2.24,1.67 3.72,1.67 h 171.92 c 1.37,0 2.53,-0.56 3.49,-1.67 0.95,-1.11 1.43,-2.4 1.43,-3.88 0,-1.37 -0.48,-2.61 -1.43,-3.72 -0.96,-1.11 -2.12,-1.67 -3.49,-1.67 z m 0,53.08 c -1.48,0 -2.72,0.56 -3.72,1.67 -1,1.11 -1.5,2.4 -1.5,3.88 0,1.37 0.5,2.64 1.5,3.8 1,1.16 2.24,1.75 3.72,1.75 h 171.92 c 1.37,0 2.53,-0.59 3.49,-1.75 0.95,-1.16 1.43,-2.43 1.43,-3.8 0,-1.48 -0.48,-2.77 -1.43,-3.88 -0.96,-1.11 -2.12,-1.67 -3.49,-1.67 h -171.92" /><path
         id="path188"
         style="fill:#000000;fill-opacity:1;fill-rule:nonzero;stroke:none"
         d="m 8694.88,5362.66 c 1.9,-5.39 4.78,-10.27 8.63,-14.65 3.87,-4.39 8.46,-7.8 13.79,-10.22 5.34,-2.43 10.86,-3.64 16.56,-3.64 13.2,0 22.29,5.12 27.25,15.36 4.96,10.25 7.44,22.66 7.44,37.24 0,6.34 -0.1,11.67 -0.31,16 -0.21,4.33 -0.79,8.51 -1.74,12.52 -1.69,6.44 -4.68,12.07 -8.96,16.88 -4.27,4.8 -9.47,7.21 -15.6,7.21 -6.13,0 -11.41,-0.95 -15.84,-2.86 -4.44,-1.9 -8.03,-4.09 -10.78,-6.57 -2.75,-2.48 -5.18,-5.1 -7.28,-7.84 -2.12,-2.75 -3.44,-4.23 -3.97,-4.44 h -3.17 c -0.42,0 -0.98,0.29 -1.67,0.87 -0.68,0.58 -1.02,1.14 -1.02,1.66 v 91.43 c 0,0.53 0.29,1.03 0.87,1.5 0.58,0.48 1.19,0.71 1.82,0.71 h 0.8 c 12.35,-5.91 25.4,-8.87 39.13,-8.87 13.63,0 26.73,2.96 39.3,8.87 h 0.79 c 0.63,0 1.22,-0.23 1.74,-0.71 0.53,-0.47 0.79,-0.97 0.79,-1.5 v -2.53 c 0,-0.85 -0.21,-1.27 -0.63,-1.27 -6.23,-8.35 -14.05,-14.82 -23.45,-19.41 -9.41,-4.6 -19.12,-6.9 -29.16,-6.9 -7.28,0 -14.78,1.01 -22.5,3.02 v -51.66 c 6.13,4.86 11.58,8.34 16.33,10.45 4.75,2.12 10.82,3.18 18.22,3.18 10.03,0 19.04,-2.91 27.02,-8.72 7.97,-5.81 14.09,-13.36 18.37,-22.66 4.28,-9.29 6.42,-18.8 6.42,-28.51 0,-10.99 -2.69,-21.16 -8.08,-30.51 -5.39,-9.35 -12.7,-16.79 -21.95,-22.34 -9.24,-5.55 -19.3,-8.32 -30.18,-8.32 -8.98,0 -17.25,2.32 -24.8,6.97 -7.55,4.65 -13.49,10.88 -17.83,18.7 -4.32,7.82 -6.49,16.16 -6.49,25.03 0,4.12 1.35,7.48 4.04,10.07 2.7,2.58 6.05,3.87 10.06,3.87 4.02,0 7.37,-1.32 10.07,-3.95 2.69,-2.64 4.04,-5.98 4.04,-9.99 0,-3.91 -1.35,-7.23 -4.04,-9.98 -2.7,-2.74 -6.05,-4.11 -10.07,-4.11 -0.63,0 -1.34,0.07 -2.14,0.23 -0.79,0.16 -1.4,0.29 -1.82,0.39" /><path
         id="path190"
         style="fill:#000000;fill-opacity:1;fill-rule:nonzero;stroke:none"
         d="m 8823.86,5263 c -1.59,0 -2.38,0.79 -2.38,2.37 0,0.85 0.16,1.43 0.48,1.75 31.27,30.53 46.9,74.79 46.9,132.78 0,57.99 -15.42,102.04 -46.26,132.15 -0.75,0.52 -1.12,1.32 -1.12,2.38 0,0.63 0.24,1.18 0.71,1.66 0.48,0.48 1.04,0.71 1.67,0.71 h 2.54 c 0.53,0 1,-0.16 1.42,-0.48 13.1,-10.35 24.01,-22.92 32.72,-37.71 8.72,-14.79 15.11,-30.57 19.17,-47.37 4.07,-16.79 6.1,-33.91 6.1,-51.34 0,-12.88 -1.08,-25.59 -3.24,-38.11 -2.17,-12.51 -5.66,-24.87 -10.46,-37.08 -4.81,-12.19 -10.86,-23.44 -18.15,-33.74 -7.28,-10.31 -16,-19.47 -26.14,-27.49 -0.42,-0.32 -0.89,-0.48 -1.42,-0.48 h -2.54" /><path
         id="path192"
         style="fill:none;stroke:#0072bd;stroke-width:29.99650002;stroke-linecap:butt;stroke-linejoin:round;stroke-miterlimit:10;stroke-dasharray:none;stroke-opacity:1"
         d="m 6713.27,5396.25 h 300.42" /><path
         id="path194"
         style="fill:#000000;fill-opacity:1;fill-rule:nonzero;stroke:none"
         d="m 7070.33,5025.38 c 4.22,-6.24 9.95,-10.86 17.19,-13.87 7.24,-3.01 14.98,-4.51 23.22,-4.51 10.67,0 18.22,4.52 22.65,13.55 4.44,9.03 6.65,19.31 6.65,30.82 0,5.17 -0.47,10.34 -1.41,15.52 -0.96,5.18 -2.54,9.99 -4.76,14.42 -2.22,4.44 -5.26,8 -9.12,10.7 -3.85,2.69 -8.58,4.04 -14.18,4.04 h -18.22 c -1.58,0 -2.37,0.84 -2.37,2.53 v 2.38 c 0,1.48 0.79,2.22 2.37,2.22 l 15.05,1.1 c 6.45,0 11.79,2.4 16.01,7.21 4.23,4.81 7.32,10.67 9.27,17.6 1.96,6.91 2.93,13.49 2.93,19.72 0,8.77 -2.03,15.95 -6.1,21.55 -4.06,5.6 -10.32,8.39 -18.77,8.39 -6.98,0 -13.61,-1.31 -19.89,-3.95 -6.28,-2.64 -11.33,-6.6 -15.14,-11.89 0.43,0.11 0.77,0.16 1.04,0.16 0.26,0 0.55,0 0.87,0 4.11,0 7.55,-1.43 10.3,-4.28 2.74,-2.85 4.12,-6.28 4.12,-10.29 0,-3.91 -1.38,-7.29 -4.12,-10.14 -2.75,-2.86 -6.19,-4.29 -10.3,-4.29 -4.02,0 -7.45,1.43 -10.3,4.29 -2.86,2.85 -4.28,6.23 -4.28,10.14 0,7.92 2.35,14.76 7.05,20.51 4.7,5.76 10.78,10.15 18.23,13.15 7.44,3.01 14.91,4.52 22.42,4.52 5.6,0 11.46,-0.82 17.58,-2.46 6.13,-1.63 11.67,-4.01 16.64,-7.13 4.97,-3.11 9.03,-7.07 12.2,-11.88 3.17,-4.81 4.75,-10.28 4.75,-16.4 0,-7.61 -1.71,-14.68 -5.14,-21.24 -3.44,-6.54 -8.14,-12.16 -14.11,-16.87 -5.97,-4.7 -12.49,-8.21 -19.57,-10.54 7.92,-1.48 15.45,-4.46 22.58,-8.95 7.13,-4.49 12.87,-10.19 17.19,-17.11 4.34,-6.92 6.5,-14.39 6.5,-22.42 0,-10.14 -2.77,-19.28 -8.32,-27.41 -5.55,-8.13 -12.81,-14.5 -21.79,-19.09 -8.97,-4.6 -18.48,-6.9 -28.51,-6.9 -8.56,0 -17.15,1.64 -25.76,4.92 -8.6,3.27 -15.63,8.16 -21.07,14.65 -5.44,6.5 -8.16,14.29 -8.16,23.38 0,4.54 1.51,8.32 4.52,11.32 3.01,3.01 6.78,4.52 11.32,4.52 2.96,0 5.66,-0.69 8.09,-2.06 2.43,-1.37 4.33,-3.3 5.71,-5.78 1.37,-2.48 2.06,-5.15 2.06,-8 0,-4.44 -1.56,-8.2 -4.68,-11.26 -3.12,-3.06 -6.84,-4.59 -11.18,-4.59 h -1.26" /><path
         id="path196"
         style="fill:#000000;fill-opacity:1;fill-rule:nonzero;stroke:none"
         d="m 7230.36,5001.29 c -8.13,0 -15.34,1.93 -21.62,5.79 -6.29,3.86 -11.15,9.08 -14.58,15.68 -3.44,6.6 -5.16,13.87 -5.16,21.79 0,8.45 1.93,17.35 5.8,26.7 3.85,9.35 9.1,17.9 15.75,25.67 6.66,7.76 14.16,13.94 22.5,18.54 8.35,4.59 16.96,6.89 25.84,6.89 h 68.92 c 1.9,0 3.51,-0.63 4.83,-1.9 1.32,-1.27 1.99,-2.96 1.99,-5.07 0,-2.64 -0.96,-4.96 -2.86,-6.97 -1.9,-2.01 -4.17,-3.01 -6.81,-3.01 h -33.43 c 5.28,-7.82 7.92,-17.33 7.92,-28.53 0,-9.19 -1.8,-18.22 -5.39,-27.1 -3.6,-8.86 -8.56,-17 -14.89,-24.39 -6.35,-7.4 -13.71,-13.26 -22.11,-17.59 -8.4,-4.33 -17.3,-6.5 -26.7,-6.5 z m 0.32,7.13 c 9.93,0 18.75,3.91 26.46,11.73 7.72,7.82 13.63,17.35 17.75,28.6 4.11,11.25 6.17,21.68 6.17,31.3 0,7.92 -2.16,14.13 -6.49,18.61 -4.33,4.49 -10.35,6.74 -18.06,6.74 -10.67,0 -19.73,-3.57 -27.17,-10.7 -7.46,-7.13 -13.03,-16.08 -16.73,-26.85 -3.69,-10.78 -5.54,-21.19 -5.54,-31.22 0,-7.82 2.09,-14.47 6.26,-19.97 4.17,-5.49 9.96,-8.24 17.35,-8.24" /><path
         id="path198"
         style="fill:#000000;fill-opacity:1;fill-rule:nonzero;stroke:none"
         d="m 7461.67,5004.3 v 162.09 c 0,4.86 -0.74,8.38 -2.22,10.55 -1.47,2.17 -3.59,3.51 -6.34,4.04 -2.74,0.52 -7.02,0.79 -12.82,0.79 v 9.51 l 40.39,3 v -85.72 c 3.07,3.38 6.63,6.34 10.7,8.87 4.07,2.54 8.42,4.49 13.07,5.87 4.65,1.38 9.35,2.06 14.11,2.06 8.23,0 15.84,-1.66 22.82,-5 6.97,-3.32 13.04,-7.89 18.21,-13.7 5.18,-5.81 9.22,-12.46 12.13,-19.96 2.9,-7.5 4.35,-15.26 4.35,-23.3 0,-11.08 -2.69,-21.38 -8.07,-30.9 -5.39,-9.5 -12.73,-17.08 -22.03,-22.73 -9.29,-5.65 -19.54,-8.48 -30.75,-8.48 -6.97,0 -13.7,1.77 -20.2,5.32 -6.49,3.53 -11.86,8.26 -16.08,14.17 l -9.35,-16.48 z m 19.81,26.94 c 3.06,-6.76 7.44,-12.26 13.15,-16.48 5.71,-4.22 12.04,-6.34 19.01,-6.34 9.41,0 17.04,2.72 22.9,8.17 5.86,5.44 9.96,12.3 12.28,20.59 2.32,8.3 3.49,17.03 3.49,26.22 0,15.42 -2.01,27.15 -6.02,35.18 -1.8,3.59 -4.24,6.9 -7.3,9.91 -3.06,3.01 -6.49,5.39 -10.29,7.13 -3.81,1.74 -7.82,2.61 -12.05,2.61 -7.28,0 -14.04,-1.96 -20.28,-5.87 -6.23,-3.9 -11.2,-9.08 -14.89,-15.52 v -65.6" /><path
         id="path200"
         style="fill:#000000;fill-opacity:1;fill-rule:nonzero;stroke:none"
         d="m 7659.1,5001.29 c -10.98,0 -21.15,2.78 -30.5,8.33 -9.35,5.54 -16.74,12.99 -22.18,22.34 -5.44,9.34 -8.16,19.56 -8.16,30.65 0,8.35 1.5,16.4 4.51,24.17 3.02,7.76 7.29,14.7 12.84,20.84 5.54,6.12 12.01,10.9 19.41,14.34 7.39,3.43 15.42,5.14 24.08,5.14 11.2,0 21.42,-2.98 30.66,-8.94 9.24,-5.98 16.54,-13.93 21.87,-23.86 5.33,-9.93 8,-20.49 8,-31.69 0,-10.98 -2.72,-21.18 -8.16,-30.58 -5.44,-9.4 -12.81,-16.87 -22.11,-22.41 -9.29,-5.55 -19.38,-8.33 -30.26,-8.33 z m 0,7.92 c 14.58,0 24.32,5.31 29.24,15.93 4.91,10.62 7.36,24.11 7.36,40.49 0,9.18 -0.47,16.79 -1.42,22.81 -0.95,6.02 -3.12,11.52 -6.5,16.48 -2.01,2.96 -4.6,5.57 -7.77,7.84 -3.16,2.27 -6.51,4.01 -10.06,5.23 -3.53,1.22 -7.15,1.83 -10.85,1.83 -5.71,0 -11.12,-1.3 -16.24,-3.89 -5.12,-2.59 -9.37,-6.26 -12.75,-11.01 -3.38,-5.18 -5.55,-10.88 -6.5,-17.12 -0.95,-6.22 -1.43,-13.62 -1.43,-22.17 0,-10.25 0.9,-19.45 2.7,-27.58 1.8,-8.13 5.39,-14.97 10.76,-20.51 5.4,-5.55 13.21,-8.33 23.46,-8.33" /><path
         id="path202"
         style="fill:#000000;fill-opacity:1;fill-rule:nonzero;stroke:none"
         d="m 7755.13,5036.95 v 60.37 c 0,4.96 -0.72,8.52 -2.15,10.69 -1.42,2.17 -3.53,3.49 -6.33,3.96 -2.8,0.48 -7.11,0.72 -12.92,0.72 v 9.66 l 41.52,3.01 v -88.41 c 0,-7.19 0.5,-12.76 1.5,-16.72 1,-3.97 3.2,-6.93 6.58,-8.88 3.38,-1.95 8.71,-2.93 16,-2.93 9.82,0 17.61,4.1 23.37,12.28 5.76,8.19 8.63,17.51 8.63,27.97 v 48.65 c 0,4.96 -0.73,8.52 -2.21,10.69 -1.48,2.17 -3.59,3.49 -6.33,3.96 -2.76,0.48 -7.04,0.72 -12.84,0.72 v 9.66 l 41.35,3.01 v -96.18 c 0,-4.86 0.74,-8.38 2.22,-10.54 1.48,-2.16 3.59,-3.48 6.34,-3.95 2.75,-0.48 7.02,-0.72 12.84,-0.72 v -9.67 l -40.57,-3.01 v 23.13 c -3.38,-6.86 -8.08,-12.43 -14.1,-16.71 -6.03,-4.28 -12.73,-6.42 -20.12,-6.42 -13.1,0 -23.51,2.78 -31.23,8.33 -7.7,5.54 -11.55,14.65 -11.55,27.33" /><path
         id="path204"
         style="fill:#000000;fill-opacity:1;fill-rule:nonzero;stroke:none"
         d="m 7883.73,5004.3 v 9.67 c 6.34,0 11.49,0.48 15.45,1.43 3.96,0.94 5.94,3.37 5.94,7.29 v 74.63 c 0,4.96 -0.71,8.52 -2.13,10.69 -1.43,2.17 -3.54,3.49 -6.34,3.96 -2.81,0.48 -7.11,0.72 -12.92,0.72 v 9.66 l 39.77,3.01 v -26.78 c 3.7,7.82 9.14,14.23 16.32,19.25 7.19,5.02 15,7.53 23.45,7.53 12.57,0 22.05,-3.04 28.45,-9.11 6.39,-6.07 9.58,-15.34 9.58,-27.81 v -65.75 c 0,-3.92 2.01,-6.35 6.03,-7.29 4.01,-0.95 9.13,-1.43 15.36,-1.43 v -9.67 h -62.74 v 9.67 c 6.23,0 11.35,0.48 15.36,1.43 4.02,0.94 6.03,3.37 6.03,7.29 v 64.96 c 0,8.87 -1.3,16.19 -3.89,21.94 -2.59,5.76 -7.84,8.64 -15.76,8.64 -10.67,0 -19.41,-4.23 -26.22,-12.68 -6.81,-8.45 -10.22,-18.12 -10.22,-28.99 v -53.87 c 0,-3.92 2,-6.35 6.02,-7.29 4.01,-0.95 9.08,-1.43 15.21,-1.43 v -9.67 h -62.75" /><path
         id="path206"
         style="fill:#000000;fill-opacity:1;fill-rule:nonzero;stroke:none"
         d="m 8092.52,5001.29 c -10.78,0 -20.63,2.91 -29.55,8.72 -8.93,5.81 -15.88,13.49 -20.84,23.05 -4.96,9.56 -7.44,19.67 -7.44,30.34 0,11.1 2.69,21.37 8.07,30.82 5.39,9.46 12.73,17.01 22.03,22.67 9.29,5.65 19.48,8.47 30.58,8.47 6.76,0 13.13,-1.42 19.09,-4.27 5.97,-2.86 11.12,-6.77 15.45,-11.74 v 57.04 c 0,4.86 -0.74,8.38 -2.22,10.55 -1.48,2.17 -3.56,3.51 -6.26,4.04 -2.69,0.52 -6.94,0.79 -12.75,0.79 v 9.51 l 40.56,3 v -165.1 c 0,-4.86 0.71,-8.38 2.14,-10.54 1.42,-2.16 3.51,-3.48 6.26,-3.95 2.75,-0.48 7.02,-0.72 12.83,-0.72 v -9.67 l -41.35,-3.01 v 17.12 c -4.76,-5.39 -10.38,-9.59 -16.88,-12.59 -6.49,-3.02 -13.07,-4.53 -19.72,-4.53 z m -27.89,26.78 c 3.07,-5.91 7.21,-10.66 12.44,-14.25 5.23,-3.6 10.91,-5.4 17.03,-5.4 7.61,0 14.58,2.19 20.91,6.58 6.34,4.38 11.04,10.06 14.11,17.03 v 65.6 c -2.11,4.01 -4.81,7.61 -8.08,10.78 -3.28,3.16 -6.95,5.59 -11.02,7.28 -4.06,1.69 -8.36,2.54 -12.91,2.54 -9.5,0 -17.16,-2.69 -22.98,-8.08 -5.8,-5.38 -9.84,-12.28 -12.11,-20.67 -2.27,-8.41 -3.41,-17.2 -3.41,-26.39 0,-7.29 0.37,-13.65 1.1,-19.09 0.75,-5.45 2.39,-10.75 4.92,-15.93" /><path
         id="path208"
         style="fill:none;stroke:#000000;stroke-width:29.99650002;stroke-linecap:butt;stroke-linejoin:bevel;stroke-miterlimit:10;stroke-dasharray:81.1264, 81.1264;stroke-dashoffset:0;stroke-opacity:1"
         d="m 6713.27,5069.11 h 300.42" /><path
         id="path210"
         style="fill:none;stroke:#262626;stroke-width:4.99941015;stroke-linecap:butt;stroke-linejoin:miter;stroke-miterlimit:10;stroke-dasharray:none;stroke-opacity:1"
         d="m 6672.65,4887.89 h 2281.68 v 689.574 H 6672.65 Z" /></g></g></svg>