<?xml version="1.0" encoding="UTF-8" standalone="no"?>
<svg
   xmlns:dc="http://purl.org/dc/elements/1.1/"
   xmlns:cc="http://creativecommons.org/ns#"
   xmlns:rdf="http://www.w3.org/1999/02/22-rdf-syntax-ns#"
   xmlns:svg="http://www.w3.org/2000/svg"
   xmlns="http://www.w3.org/2000/svg"
   viewBox="0 0 1558.6667 878.66669"
   height="878.66669"
   width="1558.6667"
   xml:space="preserve"
   id="svg2"
   version="1.1"><metadata
     id="metadata8"><rdf:RDF><cc:Work
         rdf:about=""><dc:format>image/svg+xml</dc:format><dc:type
           rdf:resource="http://purl.org/dc/dcmitype/StillImage" /></cc:Work></rdf:RDF></metadata><defs
     id="defs6" /><g
     transform="matrix(1.3333333,0,0,-1.3333333,0,878.66667)"
     id="g10"><g
       transform="scale(0.1)"
       id="g12"><path
         id="path14"
         style="fill:#ffffff;fill-opacity:1;fill-rule:nonzero;stroke:none"
         d="M 0,0.0273438 H 11692.3 V 6591.5473 H 0 Z" /><path
         id="path16"
         style="fill:#ffffff;fill-opacity:1;fill-rule:nonzero;stroke:none"
         d="M 0,0.0273438 H 11692.3 V 6591.5473 H 0 Z" /><path
         id="path18"
         style="fill:#ffffff;fill-opacity:1;fill-rule:nonzero;stroke:none"
         d="m 1521.12,831.574 h 9055.73 v 5263.07 H 1521.12 Z" /><path
         id="path20"
         style="fill:none;stroke:#dfdfdf;stroke-width:4.99941015;stroke-linecap:butt;stroke-linejoin:round;stroke-miterlimit:10;stroke-dasharray:none;stroke-opacity:1"
         d="M 1521.12,831.574 V 6094.65" /><path
         id="path22"
         style="fill:none;stroke:#dfdfdf;stroke-width:4.99941015;stroke-linecap:butt;stroke-linejoin:round;stroke-miterlimit:10;stroke-dasharray:none;stroke-opacity:1"
         d="M 3030.41,831.574 V 6094.65" /><path
         id="path24"
         style="fill:none;stroke:#dfdfdf;stroke-width:4.99941015;stroke-linecap:butt;stroke-linejoin:round;stroke-miterlimit:10;stroke-dasharray:none;stroke-opacity:1"
         d="M 4539.7,831.574 V 6094.65" /><path
         id="path26"
         style="fill:none;stroke:#dfdfdf;stroke-width:4.99941015;stroke-linecap:butt;stroke-linejoin:round;stroke-miterlimit:10;stroke-dasharray:none;stroke-opacity:1"
         d="M 6048.99,831.574 V 6094.65" /><path
         id="path28"
         style="fill:none;stroke:#dfdfdf;stroke-width:4.99941015;stroke-linecap:butt;stroke-linejoin:round;stroke-miterlimit:10;stroke-dasharray:none;stroke-opacity:1"
         d="M 7558.27,831.574 V 6094.65" /><path
         id="path30"
         style="fill:none;stroke:#dfdfdf;stroke-width:4.99941015;stroke-linecap:butt;stroke-linejoin:round;stroke-miterlimit:10;stroke-dasharray:none;stroke-opacity:1"
         d="M 9067.57,831.574 V 6094.65" /><path
         id="path32"
         style="fill:none;stroke:#dfdfdf;stroke-width:4.99941015;stroke-linecap:butt;stroke-linejoin:round;stroke-miterlimit:10;stroke-dasharray:none;stroke-opacity:1"
         d="M 10576.9,831.574 V 6094.65" /><path
         id="path34"
         style="fill:none;stroke:#dfdfdf;stroke-width:4.99941015;stroke-linecap:butt;stroke-linejoin:round;stroke-miterlimit:10;stroke-dasharray:none;stroke-opacity:1"
         d="M 10576.9,831.574 H 1521.12" /><path
         id="path36"
         style="fill:none;stroke:#dfdfdf;stroke-width:4.99941015;stroke-linecap:butt;stroke-linejoin:round;stroke-miterlimit:10;stroke-dasharray:none;stroke-opacity:1"
         d="M 10576.9,1884.19 H 1521.12" /><path
         id="path38"
         style="fill:none;stroke:#dfdfdf;stroke-width:4.99941015;stroke-linecap:butt;stroke-linejoin:round;stroke-miterlimit:10;stroke-dasharray:none;stroke-opacity:1"
         d="M 10576.9,2936.8 H 1521.12" /><path
         id="path40"
         style="fill:none;stroke:#dfdfdf;stroke-width:4.99941015;stroke-linecap:butt;stroke-linejoin:round;stroke-miterlimit:10;stroke-dasharray:none;stroke-opacity:1"
         d="M 10576.9,3989.42 H 1521.12" /><path
         id="path42"
         style="fill:none;stroke:#dfdfdf;stroke-width:4.99941015;stroke-linecap:butt;stroke-linejoin:round;stroke-miterlimit:10;stroke-dasharray:none;stroke-opacity:1"
         d="M 10576.9,5042.04 H 1521.12" /><path
         id="path44"
         style="fill:none;stroke:#dfdfdf;stroke-width:4.99941015;stroke-linecap:butt;stroke-linejoin:round;stroke-miterlimit:10;stroke-dasharray:none;stroke-opacity:1"
         d="M 10576.9,6094.65 H 1521.12" /><path
         id="path46"
         style="fill:none;stroke:#262626;stroke-width:4.99941015;stroke-linecap:square;stroke-linejoin:round;stroke-miterlimit:10;stroke-dasharray:none;stroke-opacity:1"
         d="M 1521.12,831.574 H 10576.9" /><path
         id="path48"
         style="fill:none;stroke:#262626;stroke-width:4.99941015;stroke-linecap:square;stroke-linejoin:round;stroke-miterlimit:10;stroke-dasharray:none;stroke-opacity:1"
         d="m 1521.12,831.574 v 90.559" /><path
         id="path50"
         style="fill:none;stroke:#262626;stroke-width:4.99941015;stroke-linecap:square;stroke-linejoin:round;stroke-miterlimit:10;stroke-dasharray:none;stroke-opacity:1"
         d="m 3030.41,831.574 v 90.559" /><path
         id="path52"
         style="fill:none;stroke:#262626;stroke-width:4.99941015;stroke-linecap:square;stroke-linejoin:round;stroke-miterlimit:10;stroke-dasharray:none;stroke-opacity:1"
         d="m 4539.7,831.574 v 90.559" /><path
         id="path54"
         style="fill:none;stroke:#262626;stroke-width:4.99941015;stroke-linecap:square;stroke-linejoin:round;stroke-miterlimit:10;stroke-dasharray:none;stroke-opacity:1"
         d="m 6048.99,831.574 v 90.559" /><path
         id="path56"
         style="fill:none;stroke:#262626;stroke-width:4.99941015;stroke-linecap:square;stroke-linejoin:round;stroke-miterlimit:10;stroke-dasharray:none;stroke-opacity:1"
         d="m 7558.27,831.574 v 90.559" /><path
         id="path58"
         style="fill:none;stroke:#262626;stroke-width:4.99941015;stroke-linecap:square;stroke-linejoin:round;stroke-miterlimit:10;stroke-dasharray:none;stroke-opacity:1"
         d="m 9067.57,831.574 v 90.559" /><path
         id="path60"
         style="fill:none;stroke:#262626;stroke-width:4.99941015;stroke-linecap:square;stroke-linejoin:round;stroke-miterlimit:10;stroke-dasharray:none;stroke-opacity:1"
         d="m 10576.9,831.574 v 90.559" /><g
         transform="scale(10)"
         id="g62"><text
           id="text66"
           style="font-variant:normal;font-weight:normal;font-size:29.99950027px;font-family:Helvetica;-inkscape-font-specification:Helvetica;writing-mode:lr-tb;fill:#262626;fill-opacity:1;fill-rule:nonzero;stroke:none"
           transform="matrix(1,0,0,-1,142.479,46.7605)"><tspan
             id="tspan64"
             y="0"
             x="0 141.29555 157.97527 282.5914 299.27112 315.95084 433.52066 450.20041 466.88013 584.45026 601.13 617.80969 735.37982 752.05957 768.73926 886.30945 902.98914 919.66888">050100150200250300</tspan></text>
</g><path
         id="path68"
         style="fill:#262626;fill-opacity:1;fill-rule:nonzero;stroke:none"
         d="m 5975.67,124.824 c 0,1.371 0.1,2.375 0.31,3.012 l 48.65,193.465 c 0.85,3.801 1.38,6.758 1.59,8.875 0,3.59 -7.24,5.387 -21.71,5.387 -2.33,0 -3.49,1.48 -3.49,4.441 0.11,0.527 0.37,1.504 0.79,2.93 0.43,1.425 0.93,2.535 1.51,3.324 0.59,0.793 1.4,1.187 2.46,1.187 l 45.15,3.489 h 0.96 c 0,-0.215 0.37,-0.508 1.1,-0.871 0.75,-0.372 1.17,-0.614 1.27,-0.719 0.53,-1.055 0.79,-1.903 0.79,-2.535 l -35.17,-139.907 c 8.03,3.383 18.17,11.411 30.43,24.086 12.25,12.676 21.83,21.785 28.74,27.328 6.93,5.547 15.62,8.317 26.08,8.317 6.23,0 11.51,-2.113 15.84,-6.336 4.33,-4.227 6.5,-9.457 6.5,-15.688 0,-3.91 -0.79,-7.527 -2.38,-10.851 -1.58,-3.328 -3.86,-6.02 -6.81,-8.082 -2.96,-2.063 -6.39,-3.094 -10.3,-3.094 -3.59,0 -6.63,1.113 -9.11,3.336 -2.49,2.219 -3.73,5.121 -3.73,8.711 0,5.387 1.88,9.906 5.63,13.547 3.75,3.644 8.32,5.469 13.71,5.469 -2.22,2.953 -5.55,4.429 -9.99,4.429 -6.65,0 -13.04,-1.926 -19.17,-5.781 -6.13,-3.852 -12.76,-9.344 -19.88,-16.477 -7.14,-7.132 -13.66,-13.656 -19.58,-19.574 -5.91,-5.914 -11.35,-10.402 -16.31,-13.465 13.09,-1.472 24.5,-4.906 34.22,-10.293 9.72,-5.386 14.58,-13.679 14.58,-24.875 0,-2.226 -0.43,-5.078 -1.27,-8.558 -2.01,-8.453 -3.01,-15.16 -3.01,-20.129 0,-10.035 3.43,-15.051 10.3,-15.051 8.13,0 14.29,4.41 18.45,13.234 4.18,8.817 7.64,19.09 10.39,30.817 0.42,1.375 1.31,2.058 2.69,2.058 h 3.96 c 0.85,0 1.59,-0.289 2.22,-0.871 0.63,-0.582 0.95,-1.293 0.95,-2.14 0,-0.207 -0.11,-0.528 -0.32,-0.953 -8.45,-34.012 -21.44,-51.016 -38.98,-51.016 -6.34,0 -11.93,1.48 -16.79,4.441 -4.86,2.954 -8.58,6.965 -11.17,12.036 -2.59,5.07 -3.88,10.777 -3.88,17.117 0,3.59 0.47,7.285 1.42,11.086 0.64,2.64 0.95,5.074 0.95,7.289 0,8.66 -3.8,15.211 -11.41,19.652 -7.6,4.438 -16.31,7.18 -26.14,8.234 l -16.96,-68.449 c -0.84,-3.273 -2.53,-5.992 -5.07,-8.164 -2.53,-2.164 -5.43,-3.242 -8.71,-3.242 -2.74,0 -5.15,0.949 -7.21,2.848 -2.06,1.906 -3.09,4.23 -3.09,6.976" /><path
         id="path70"
         style="fill:none;stroke:#262626;stroke-width:4.99941015;stroke-linecap:square;stroke-linejoin:round;stroke-miterlimit:10;stroke-dasharray:none;stroke-opacity:1"
         d="M 1521.12,831.574 V 6094.65" /><path
         id="path72"
         style="fill:none;stroke:#262626;stroke-width:4.99941015;stroke-linecap:square;stroke-linejoin:round;stroke-miterlimit:10;stroke-dasharray:none;stroke-opacity:1"
         d="m 1521.12,831.574 h 90.56" /><path
         id="path74"
         style="fill:none;stroke:#262626;stroke-width:4.99941015;stroke-linecap:square;stroke-linejoin:round;stroke-miterlimit:10;stroke-dasharray:none;stroke-opacity:1"
         d="m 1521.12,1884.19 h 90.56" /><path
         id="path76"
         style="fill:none;stroke:#262626;stroke-width:4.99941015;stroke-linecap:square;stroke-linejoin:round;stroke-miterlimit:10;stroke-dasharray:none;stroke-opacity:1"
         d="m 1521.12,2936.8 h 90.56" /><path
         id="path78"
         style="fill:none;stroke:#262626;stroke-width:4.99941015;stroke-linecap:square;stroke-linejoin:round;stroke-miterlimit:10;stroke-dasharray:none;stroke-opacity:1"
         d="m 1521.12,3989.42 h 90.56" /><path
         id="path80"
         style="fill:none;stroke:#262626;stroke-width:4.99941015;stroke-linecap:square;stroke-linejoin:round;stroke-miterlimit:10;stroke-dasharray:none;stroke-opacity:1"
         d="m 1521.12,5042.04 h 90.56" /><path
         id="path82"
         style="fill:none;stroke:#262626;stroke-width:4.99941015;stroke-linecap:square;stroke-linejoin:round;stroke-miterlimit:10;stroke-dasharray:none;stroke-opacity:1"
         d="m 1521.12,6094.65 h 90.56" /><g
         transform="scale(10)"
         id="g84"><text
           id="text98"
           style="font-variant:normal;font-weight:normal;font-size:29.99950027px;font-family:Helvetica;-inkscape-font-specification:Helvetica;writing-mode:lr-tb;fill:#262626;fill-opacity:1;fill-rule:nonzero;stroke:none"
           transform="matrix(1,0,0,-1,124.845,72.507)"><tspan
             id="tspan86"
             y="0"
             x="0">0</tspan><tspan
             id="tspan88"
             y="-105.262"
             x="-38.535198 -21.855478 -5.175756">100</tspan><tspan
             id="tspan90"
             y="-210.524"
             x="-38.535198 -21.855478 -5.175756">200</tspan><tspan
             id="tspan92"
             y="-315.78601"
             x="-38.535198 -21.855478 -5.175756">300</tspan><tspan
             id="tspan94"
             y="-421.048"
             x="-38.535198 -21.855478 -5.175756">400</tspan><tspan
             id="tspan96"
             y="-526.31"
             x="-38.535198 -21.855478 -5.175756">500</tspan></text>
</g><path
         id="path100"
         style="fill:#262626;fill-opacity:1;fill-rule:nonzero;stroke:none"
         d="M 791.938,2139.04 H 469.34 c -1.692,0 -3.117,0.63 -4.281,1.89 -1.164,1.27 -1.746,2.86 -1.746,4.76 0,1.59 0.582,3.1 1.746,4.52 1.164,1.42 2.589,2.13 4.281,2.13 h 322.598 c 1.691,0 3.117,-0.71 4.277,-2.13 1.164,-1.42 1.746,-2.93 1.746,-4.52 0,-1.9 -0.582,-3.49 -1.746,-4.76 -1.16,-1.26 -2.586,-1.89 -4.277,-1.89" /><path
         id="path102"
         style="fill:#262626;fill-opacity:1;fill-rule:nonzero;stroke:none"
         d="M 791.938,2230.7 H 469.34 c -1.692,0 -3.117,0.64 -4.281,1.91 -1.164,1.26 -1.746,2.85 -1.746,4.75 0,1.59 0.582,3.09 1.746,4.52 1.164,1.42 2.589,2.14 4.281,2.14 h 322.598 c 1.691,0 3.117,-0.72 4.277,-2.14 1.164,-1.43 1.746,-2.93 1.746,-4.52 0,-1.9 -0.582,-3.49 -1.746,-4.75 -1.16,-1.27 -2.586,-1.91 -4.277,-1.91" /><path
         id="path104"
         style="fill:#262626;fill-opacity:1;fill-rule:nonzero;stroke:none"
         d="m 529.715,2345.24 -7.129,-6.65 -45.004,45.16 45.004,44.84 7.129,-6.82 -33.594,-38.02 33.594,-38.51" /><path
         id="path106"
         style="fill:#262626;fill-opacity:1;fill-rule:nonzero;stroke:none"
         d="m 714.301,2289.73 h -16.957 c 0,19.01 -1.055,29.52 -3.164,31.53 l -51.18,45.15 -60.219,-50.22 v -24.72 h -16.953 v 78.74 h 16.953 v -12.19 l 35.809,30.11 -33.11,29.15 c -0.953,0 -1.64,-1.61 -2.058,-4.83 -0.426,-3.22 -0.641,-5.84 -0.641,-7.84 h -16.953 v 66.86 h 16.953 c 0,-18.91 1.004,-29.36 3.016,-31.37 l 46.109,-40.88 65.438,54.34 v 25.04 h 16.957 v -79.06 h -16.957 v 12.51 l -40.879,-34.54 38.031,-33.44 c 0.734,0 1.395,1.62 1.977,4.84 0.582,3.22 0.871,5.83 0.871,7.84 h 16.957 v -67.02" /><path
         id="path108"
         style="fill:#262626;fill-opacity:1;fill-rule:nonzero;stroke:none"
         d="m 797.32,2586.51 c -9.82,-12.46 -21.07,-23.18 -33.746,-32.16 -12.676,-8.98 -26.199,-16.32 -40.562,-22.02 -14.367,-5.71 -29.395,-9.99 -45.078,-12.84 -15.684,-2.85 -31.45,-4.28 -47.297,-4.28 -16.055,0 -31.926,1.43 -47.61,4.28 -15.691,2.85 -30.769,7.18 -45.238,12.99 -14.476,5.81 -28.023,13.23 -40.644,22.27 -12.622,9.03 -23.688,19.62 -33.204,31.76 -0.418,0 -0.628,0.53 -0.628,1.59 v 3.17 c 0,0.63 0.292,1.21 0.875,1.74 0.582,0.53 1.292,0.79 2.14,0.79 0.945,0 1.629,-0.21 2.055,-0.63 10.672,-10.88 22.105,-19.94 34.308,-27.17 12.196,-7.24 25.188,-13.08 38.973,-17.52 13.789,-4.43 28.051,-7.63 42.781,-9.58 14.739,-1.95 30.137,-2.93 46.192,-2.93 70.879,0 124.75,18.96 161.613,56.88 0.637,0.63 1.535,0.95 2.699,0.95 0.637,0 1.293,-0.29 1.977,-0.87 0.691,-0.58 1.035,-1.14 1.035,-1.66 v -3.17 c 0,-1.06 -0.215,-1.59 -0.641,-1.59" /><path
         id="path110"
         style="fill:#262626;fill-opacity:1;fill-rule:nonzero;stroke:none"
         d="m 708.277,2628.81 c -1.375,0 -2.379,0.1 -3.011,0.31 l -193.469,48.65 c -3.797,0.84 -6.758,1.37 -8.871,1.59 -3.59,0 -5.387,-7.24 -5.387,-21.71 0,-2.33 -1.48,-3.49 -4.441,-3.49 -0.528,0.11 -1.504,0.37 -2.93,0.79 -1.426,0.43 -2.535,0.93 -3.328,1.51 -0.789,0.58 -1.184,1.4 -1.184,2.45 l -3.488,45.16 v 0.95 c 0.215,0 0.504,0.37 0.871,1.11 0.371,0.75 0.609,1.17 0.719,1.27 1.055,0.53 1.898,0.79 2.535,0.79 l 139.902,-35.17 c -3.379,8.03 -11.406,18.17 -24.082,30.42 -12.679,12.26 -21.789,21.84 -27.332,28.76 -5.543,6.92 -8.316,15.6 -8.316,26.07 0,6.23 2.113,11.51 6.34,15.84 4.226,4.33 9.453,6.5 15.687,6.5 3.906,0 7.524,-0.8 10.852,-2.38 3.324,-1.59 6.019,-3.86 8.082,-6.81 2.062,-2.96 3.094,-6.4 3.094,-10.31 0,-3.59 -1.114,-6.62 -3.336,-9.1 -2.219,-2.49 -5.121,-3.73 -8.711,-3.73 -5.391,0 -9.907,1.87 -13.551,5.62 -3.645,3.76 -5.465,8.33 -5.465,13.71 -2.953,-2.21 -4.43,-5.54 -4.43,-9.98 0,-6.66 1.926,-13.04 5.778,-19.17 3.855,-6.13 9.347,-12.76 16.48,-19.89 7.133,-7.13 13.656,-13.65 19.57,-19.57 5.918,-5.91 10.407,-11.35 13.469,-16.32 1.473,13.1 4.903,24.51 10.293,34.23 5.387,9.72 13.68,14.57 24.875,14.57 2.223,0 5.078,-0.42 8.559,-1.27 8.449,-2 15.16,-3.01 20.129,-3.01 10.031,0 15.05,3.44 15.05,10.31 0,8.13 -4.414,14.28 -13.234,18.45 -8.816,4.17 -19.09,7.63 -30.82,10.39 -1.371,0.42 -2.059,1.31 -2.059,2.69 v 3.96 c 0,0.84 0.293,1.59 0.875,2.22 0.578,0.63 1.293,0.94 2.137,0.94 0.211,0 0.527,-0.1 0.953,-0.31 34.016,-8.45 51.02,-21.45 51.02,-38.98 0,-6.34 -1.481,-11.94 -4.442,-16.8 -2.953,-4.86 -6.965,-8.58 -12.035,-11.16 -5.07,-2.59 -10.777,-3.89 -17.121,-3.89 -3.59,0 -7.281,0.48 -11.082,1.43 -2.645,0.63 -5.074,0.95 -7.293,0.95 -8.66,0 -15.211,-3.81 -19.652,-11.41 -4.434,-7.61 -7.18,-16.32 -8.235,-26.14 l 68.453,-16.96 c 3.27,-0.84 5.993,-2.53 8.16,-5.07 2.165,-2.53 3.247,-5.44 3.247,-8.71 0,-2.74 -0.95,-5.15 -2.848,-7.21 -1.906,-2.06 -4.234,-3.09 -6.977,-3.09" /><path
         id="path112"
         style="fill:#262626;fill-opacity:1;fill-rule:nonzero;stroke:none"
         d="M 791.938,2833.18 H 469.34 c -1.692,0 -3.117,0.63 -4.281,1.9 -1.164,1.26 -1.746,2.85 -1.746,4.76 0,1.58 0.582,3.08 1.746,4.51 1.164,1.43 2.589,2.14 4.281,2.14 h 322.598 c 1.691,0 3.117,-0.71 4.277,-2.14 1.164,-1.43 1.746,-2.93 1.746,-4.51 0,-1.91 -0.582,-3.5 -1.746,-4.76 -1.16,-1.27 -2.586,-1.9 -4.277,-1.9" /><path
         id="path114"
         style="fill:#262626;fill-opacity:1;fill-rule:nonzero;stroke:none"
         d="m 708.277,2902.66 c -1.375,0 -2.379,0.11 -3.011,0.32 l -193.469,48.64 c -3.797,0.84 -6.758,1.38 -8.871,1.59 -3.59,0 -5.387,-7.24 -5.387,-21.71 0,-2.32 -1.48,-3.49 -4.441,-3.49 -0.528,0.11 -1.504,0.37 -2.93,0.79 -1.426,0.43 -2.535,0.93 -3.328,1.51 -0.789,0.58 -1.184,1.4 -1.184,2.46 l -3.488,45.16 v 0.95 c 0.215,0 0.504,0.37 0.871,1.1 0.371,0.75 0.609,1.17 0.719,1.27 1.055,0.53 1.898,0.79 2.535,0.79 l 139.902,-35.16 c -3.379,8.02 -11.406,18.16 -24.082,30.42 -12.679,12.25 -21.789,21.83 -27.332,28.75 -5.543,6.92 -8.316,15.61 -8.316,26.07 0,6.23 2.113,11.51 6.34,15.84 4.226,4.33 9.453,6.5 15.687,6.5 3.906,0 7.524,-0.79 10.852,-2.37 3.324,-1.59 6.019,-3.87 8.082,-6.82 2.062,-2.96 3.094,-6.39 3.094,-10.31 0,-3.58 -1.114,-6.62 -3.336,-9.1 -2.219,-2.48 -5.121,-3.72 -8.711,-3.72 -5.391,0 -9.907,1.87 -13.551,5.62 -3.645,3.75 -5.465,8.32 -5.465,13.7 -2.953,-2.21 -4.43,-5.54 -4.43,-9.98 0,-6.66 1.926,-13.04 5.778,-19.17 3.855,-6.12 9.347,-12.75 16.48,-19.88 7.133,-7.14 13.656,-13.66 19.57,-19.57 5.918,-5.92 10.407,-11.36 13.469,-16.32 1.473,13.09 4.903,24.5 10.293,34.22 5.387,9.72 13.68,14.58 24.875,14.58 2.223,0 5.078,-0.43 8.559,-1.27 8.449,-2.01 15.16,-3.02 20.129,-3.02 10.031,0 15.05,3.44 15.05,10.31 0,8.13 -4.414,14.28 -13.234,18.46 -8.816,4.17 -19.09,7.63 -30.82,10.38 -1.371,0.42 -2.059,1.32 -2.059,2.69 v 3.96 c 0,0.85 0.293,1.59 0.875,2.22 0.578,0.64 1.293,0.96 2.137,0.96 0.211,0 0.527,-0.11 0.953,-0.33 34.016,-8.45 51.02,-21.44 51.02,-38.97 0,-6.34 -1.481,-11.94 -4.442,-16.8 -2.953,-4.86 -6.965,-8.58 -12.035,-11.17 -5.07,-2.59 -10.777,-3.88 -17.121,-3.88 -3.59,0 -7.281,0.48 -11.082,1.43 -2.645,0.63 -5.074,0.94 -7.293,0.94 -8.66,0 -15.211,-3.8 -19.652,-11.41 -4.434,-7.6 -7.18,-16.32 -8.235,-26.14 l 68.453,-16.96 c 3.27,-0.84 5.993,-2.53 8.16,-5.07 2.165,-2.53 3.247,-5.44 3.247,-8.71 0,-2.74 -0.95,-5.15 -2.848,-7.21 -1.906,-2.06 -4.234,-3.09 -6.977,-3.09" /><path
         id="path116"
         style="fill:#262626;fill-opacity:1;fill-rule:nonzero;stroke:none"
         d="M 791.938,3107.04 H 469.34 c -1.692,0 -3.117,0.63 -4.281,1.89 -1.164,1.27 -1.746,2.86 -1.746,4.76 0,1.58 0.582,3.09 1.746,4.51 1.164,1.43 2.589,2.14 4.281,2.14 h 322.598 c 1.691,0 3.117,-0.71 4.277,-2.14 1.164,-1.42 1.746,-2.93 1.746,-4.51 0,-1.9 -0.582,-3.49 -1.746,-4.76 -1.16,-1.26 -2.586,-1.89 -4.277,-1.89" /><path
         id="path118"
         style="fill:#262626;fill-opacity:1;fill-rule:nonzero;stroke:none"
         d="m 708.277,3176.51 c -1.375,0 -2.379,0.11 -3.011,0.33 l -193.469,48.64 c -3.797,0.85 -6.758,1.38 -8.871,1.58 -3.59,0 -5.387,-7.23 -5.387,-21.71 0,-2.32 -1.48,-3.49 -4.441,-3.49 -0.528,0.11 -1.504,0.38 -2.93,0.8 -1.426,0.42 -2.535,0.93 -3.328,1.5 -0.789,0.59 -1.184,1.41 -1.184,2.46 l -3.488,45.16 v 0.95 c 0.215,0 0.504,0.37 0.871,1.11 0.371,0.74 0.609,1.16 0.719,1.26 1.055,0.54 1.898,0.8 2.535,0.8 l 139.902,-35.17 c -3.379,8.02 -11.406,18.16 -24.082,30.42 -12.679,12.25 -21.789,21.83 -27.332,28.76 -5.543,6.91 -8.316,15.6 -8.316,26.06 0,6.23 2.113,11.51 6.34,15.85 4.226,4.32 9.453,6.49 15.687,6.49 3.906,0 7.524,-0.79 10.852,-2.37 3.324,-1.59 6.019,-3.87 8.082,-6.82 2.062,-2.96 3.094,-6.39 3.094,-10.3 0,-3.59 -1.114,-6.62 -3.336,-9.11 -2.219,-2.48 -5.121,-3.72 -8.711,-3.72 -5.391,0 -9.907,1.87 -13.551,5.62 -3.645,3.75 -5.465,8.32 -5.465,13.71 -2.953,-2.22 -4.43,-5.55 -4.43,-9.98 0,-6.66 1.926,-13.05 5.778,-19.18 3.855,-6.12 9.347,-12.75 16.48,-19.88 7.133,-7.14 13.656,-13.66 19.57,-19.57 5.918,-5.92 10.407,-11.36 13.469,-16.32 1.473,13.09 4.903,24.5 10.293,34.22 5.387,9.72 13.68,14.58 24.875,14.58 2.223,0 5.078,-0.42 8.559,-1.27 8.449,-2 15.16,-3 20.129,-3 10.031,0 15.05,3.43 15.05,10.29 0,8.13 -4.414,14.29 -13.234,18.47 -8.816,4.17 -19.09,7.62 -30.82,10.37 -1.371,0.42 -2.059,1.32 -2.059,2.7 v 3.95 c 0,0.85 0.293,1.59 0.875,2.23 0.578,0.63 1.293,0.95 2.137,0.95 0.211,0 0.527,-0.11 0.953,-0.33 34.016,-8.45 51.02,-21.44 51.02,-38.97 0,-6.34 -1.481,-11.94 -4.442,-16.8 -2.953,-4.85 -6.965,-8.58 -12.035,-11.17 -5.07,-2.59 -10.777,-3.88 -17.121,-3.88 -3.59,0 -7.281,0.48 -11.082,1.43 -2.645,0.63 -5.074,0.94 -7.293,0.94 -8.66,0 -15.211,-3.8 -19.652,-11.4 -4.434,-7.61 -7.18,-16.32 -8.235,-26.15 l 68.453,-16.95 c 3.27,-0.85 5.993,-2.54 8.16,-5.07 2.165,-2.54 3.247,-5.44 3.247,-8.71 0,-2.75 -0.95,-5.15 -2.848,-7.21 -1.906,-2.07 -4.234,-3.1 -6.977,-3.1" /><path
         id="path120"
         style="fill:#262626;fill-opacity:1;fill-rule:nonzero;stroke:none"
         d="m 797.961,3362.67 c 0,-1.9 -1.004,-2.85 -3.012,-2.85 -0.953,0 -1.64,0.21 -2.058,0.63 -37.293,38.13 -91.375,57.2 -162.254,57.2 -70.875,0 -124.75,-18.86 -161.625,-56.56 -0.528,-0.85 -1.422,-1.27 -2.684,-1.27 -0.848,0 -1.558,0.29 -2.14,0.87 -0.583,0.57 -0.875,1.23 -0.875,1.98 v 3.16 c 0,0.63 0.21,1.17 0.628,1.59 12.676,16.06 28.047,29.42 46.114,40.09 18.062,10.67 37.34,18.48 57.832,23.44 20.496,4.97 41.414,7.46 62.75,7.46 15.847,0 31.398,-1.35 46.66,-4.05 15.266,-2.69 30.344,-6.94 45.238,-12.75 14.899,-5.81 28.633,-13.18 41.199,-22.1 12.571,-8.93 23.766,-19.63 33.586,-32.09 0.426,-0.42 0.641,-0.96 0.641,-1.59 v -3.16" /><path
         id="path122"
         style="fill:#262626;fill-opacity:1;fill-rule:nonzero;stroke:none"
         d="m 637.289,3576.85 c 0,-1.9 -0.711,-3.46 -2.141,-4.67 -1.425,-1.22 -2.929,-1.83 -4.511,-1.83 -1.582,0 -3.086,0.61 -4.512,1.83 -1.426,1.21 -2.141,2.77 -2.141,4.67 v 191.88 c 0,1.8 0.715,3.25 2.141,4.36 1.426,1.11 2.93,1.66 4.512,1.66 1.582,0 3.086,-0.55 4.511,-1.66 1.43,-1.11 2.141,-2.56 2.141,-4.36 v -191.88" /><path
         id="path124"
         style="fill:#262626;fill-opacity:1;fill-rule:nonzero;stroke:none"
         d="m 714.301,3879.91 h -16.957 c 0,19.01 -1.055,29.52 -3.164,31.53 l -51.18,45.15 -60.219,-50.22 v -24.72 h -16.953 v 78.74 h 16.953 v -12.19 l 35.809,30.1 -33.11,29.16 c -0.953,0 -1.64,-1.61 -2.058,-4.83 -0.426,-3.22 -0.641,-5.84 -0.641,-7.85 h -16.953 v 66.87 h 16.953 c 0,-18.91 1.004,-29.36 3.016,-31.37 l 46.109,-40.88 65.438,54.34 v 25.04 h 16.957 v -79.07 h -16.957 v 12.52 l -40.879,-34.54 38.031,-33.44 c 0.734,0 1.395,1.61 1.977,4.84 0.582,3.22 0.871,5.83 0.871,7.84 h 16.957 v -67.02" /><path
         id="path126"
         style="fill:#262626;fill-opacity:1;fill-rule:nonzero;stroke:none"
         d="m 797.32,4176.69 c -9.82,-12.46 -21.07,-23.18 -33.746,-32.16 -12.676,-8.98 -26.199,-16.32 -40.562,-22.02 -14.367,-5.71 -29.395,-9.99 -45.078,-12.84 -15.684,-2.85 -31.45,-4.28 -47.297,-4.28 -16.055,0 -31.926,1.43 -47.61,4.28 -15.691,2.85 -30.769,7.18 -45.238,12.99 -14.476,5.81 -28.023,13.23 -40.644,22.27 -12.622,9.03 -23.688,19.62 -33.204,31.76 -0.418,0 -0.628,0.53 -0.628,1.59 v 3.17 c 0,0.63 0.292,1.21 0.875,1.74 0.582,0.52 1.292,0.79 2.14,0.79 0.945,0 1.629,-0.21 2.055,-0.63 10.672,-10.89 22.105,-19.94 34.308,-27.17 12.196,-7.24 25.188,-13.08 38.973,-17.52 13.789,-4.43 28.051,-7.63 42.781,-9.58 14.739,-1.95 30.137,-2.93 46.192,-2.93 70.879,0 124.75,18.96 161.613,56.88 0.637,0.63 1.535,0.95 2.699,0.95 0.637,0 1.293,-0.29 1.977,-0.87 0.691,-0.58 1.035,-1.14 1.035,-1.66 v -3.17 c 0,-1.06 -0.215,-1.59 -0.641,-1.59" /><path
         id="path128"
         style="fill:#262626;fill-opacity:1;fill-rule:nonzero;stroke:none"
         d="m 708.277,4218.98 c -1.375,0 -2.379,0.11 -3.011,0.32 l -193.469,48.65 c -3.797,0.84 -6.758,1.37 -8.871,1.59 -3.59,0 -5.387,-7.24 -5.387,-21.71 0,-2.33 -1.48,-3.49 -4.441,-3.49 -0.528,0.11 -1.504,0.37 -2.93,0.79 -1.426,0.42 -2.535,0.93 -3.328,1.51 -0.789,0.58 -1.184,1.4 -1.184,2.45 l -3.488,45.16 v 0.95 c 0.215,0 0.504,0.37 0.871,1.11 0.371,0.74 0.609,1.17 0.719,1.27 1.055,0.53 1.898,0.79 2.535,0.79 l 139.902,-35.17 c -3.379,8.02 -11.406,18.17 -24.082,30.42 -12.679,12.25 -21.789,21.84 -27.332,28.76 -5.543,6.92 -8.316,15.6 -8.316,26.07 0,6.23 2.113,11.51 6.34,15.84 4.226,4.33 9.453,6.5 15.687,6.5 3.906,0 7.524,-0.8 10.852,-2.38 3.324,-1.59 6.019,-3.86 8.082,-6.81 2.062,-2.96 3.094,-6.4 3.094,-10.31 0,-3.59 -1.114,-6.62 -3.336,-9.1 -2.219,-2.49 -5.121,-3.74 -8.711,-3.74 -5.391,0 -9.907,1.88 -13.551,5.63 -3.645,3.76 -5.465,8.33 -5.465,13.71 -2.953,-2.22 -4.43,-5.54 -4.43,-9.99 0,-6.65 1.926,-13.04 5.778,-19.16 3.855,-6.13 9.347,-12.76 16.48,-19.89 7.133,-7.13 13.656,-13.65 19.57,-19.57 5.918,-5.91 10.407,-11.35 13.469,-16.32 1.473,13.1 4.903,24.51 10.293,34.23 5.387,9.71 13.68,14.57 24.875,14.57 2.223,0 5.078,-0.42 8.559,-1.27 8.449,-2 15.16,-3.01 20.129,-3.01 10.031,0 15.05,3.44 15.05,10.3 0,8.14 -4.414,14.29 -13.234,18.46 -8.816,4.17 -19.09,7.63 -30.82,10.39 -1.371,0.42 -2.059,1.31 -2.059,2.68 v 3.97 c 0,0.84 0.293,1.58 0.875,2.22 0.578,0.63 1.293,0.94 2.137,0.94 0.211,0 0.527,-0.1 0.953,-0.31 34.016,-8.45 51.02,-21.45 51.02,-38.98 0,-6.34 -1.481,-11.94 -4.442,-16.8 -2.953,-4.86 -6.965,-8.58 -12.035,-11.16 -5.07,-2.59 -10.777,-3.89 -17.121,-3.89 -3.59,0 -7.281,0.48 -11.082,1.43 -2.645,0.63 -5.074,0.95 -7.293,0.95 -8.66,0 -15.211,-3.81 -19.652,-11.41 -4.434,-7.61 -7.18,-16.32 -8.235,-26.14 l 68.453,-16.96 c 3.27,-0.84 5.993,-2.53 8.16,-5.07 2.165,-2.54 3.247,-5.44 3.247,-8.71 0,-2.75 -0.95,-5.15 -2.848,-7.21 -1.906,-2.06 -4.234,-3.1 -6.977,-3.1" /><path
         id="path130"
         style="fill:#262626;fill-opacity:1;fill-rule:nonzero;stroke:none"
         d="m 797.961,4405.14 c 0,-1.91 -1.004,-2.86 -3.012,-2.86 -0.953,0 -1.64,0.21 -2.058,0.64 -37.293,38.13 -91.375,57.19 -162.254,57.19 -70.875,0 -124.75,-18.85 -161.625,-56.56 -0.528,-0.85 -1.422,-1.27 -2.684,-1.27 -0.848,0 -1.558,0.29 -2.14,0.87 -0.583,0.58 -0.875,1.25 -0.875,1.99 v 3.16 c 0,0.64 0.21,1.17 0.628,1.59 12.676,16.05 28.047,29.41 46.114,40.08 18.062,10.68 37.34,18.49 57.832,23.46 20.496,4.96 41.414,7.44 62.75,7.44 15.847,0 31.398,-1.34 46.66,-4.03 15.266,-2.7 30.344,-6.95 45.238,-12.76 14.899,-5.81 28.633,-13.18 41.199,-22.11 12.571,-8.92 23.766,-19.62 33.586,-32.08 0.426,-0.42 0.641,-0.95 0.641,-1.59 v -3.16" /><path
         id="path132"
         style="fill:#262626;fill-opacity:1;fill-rule:nonzero;stroke:none"
         d="M 791.938,4551.7 H 469.34 c -1.692,0 -3.117,0.63 -4.281,1.89 -1.164,1.27 -1.746,2.86 -1.746,4.76 0,1.58 0.582,3.08 1.746,4.51 1.164,1.43 2.589,2.14 4.281,2.14 h 322.598 c 1.691,0 3.117,-0.71 4.277,-2.14 1.164,-1.43 1.746,-2.93 1.746,-4.51 0,-1.9 -0.582,-3.49 -1.746,-4.76 -1.16,-1.26 -2.586,-1.89 -4.277,-1.89" /><path
         id="path134"
         style="fill:#262626;fill-opacity:1;fill-rule:nonzero;stroke:none"
         d="M 791.938,4643.36 H 469.34 c -1.692,0 -3.117,0.63 -4.281,1.89 -1.164,1.28 -1.746,2.86 -1.746,4.76 0,1.59 0.582,3.1 1.746,4.53 1.164,1.41 2.589,2.12 4.281,2.12 h 322.598 c 1.691,0 3.117,-0.71 4.277,-2.12 1.164,-1.43 1.746,-2.94 1.746,-4.53 0,-1.9 -0.582,-3.48 -1.746,-4.76 -1.16,-1.26 -2.586,-1.89 -4.277,-1.89" /><path
         id="path136"
         style="fill:#262626;fill-opacity:1;fill-rule:nonzero;stroke:none"
         d="m 763.797,4706.66 h -6.34 c -0.316,0 -0.684,0.16 -1.105,0.47 l -40.086,36.29 c -6.024,5.49 -11.043,9.93 -15.059,13.31 -4.016,3.38 -8.637,6.73 -13.863,10.06 -5.227,3.33 -10.559,5.97 -16,7.92 -5.442,1.95 -11.172,2.93 -17.192,2.93 -6.449,0 -12.578,-1.16 -18.382,-3.48 -5.809,-2.32 -10.457,-5.83 -13.946,-10.53 -3.488,-4.71 -5.23,-10.33 -5.23,-16.88 0,-6.76 2.035,-12.83 6.105,-18.22 4.067,-5.39 9.324,-9.19 15.766,-11.41 -0.106,0.53 -0.16,1.38 -0.16,2.54 0,3.48 1.164,6.44 3.488,8.87 2.324,2.43 5.387,3.64 9.187,3.64 3.489,0 6.473,-1.21 8.954,-3.64 2.48,-2.43 3.722,-5.39 3.722,-8.87 0,-3.7 -1.269,-6.79 -3.804,-9.27 -2.536,-2.49 -5.493,-3.73 -8.872,-3.73 -5.914,0 -11.437,1.11 -16.558,3.33 -5.125,2.22 -9.664,5.39 -13.621,9.51 -3.961,4.11 -7,8.79 -9.117,14.02 -2.11,5.23 -3.164,10.75 -3.164,16.56 0,8.87 1.875,17.13 5.617,24.8 3.754,7.66 9.062,13.73 15.933,18.22 6.86,4.49 14.891,6.73 24.082,6.73 6.762,0 13.18,-1.48 19.25,-4.44 6.071,-2.96 11.59,-6.73 16.559,-11.33 4.961,-4.59 10.586,-10.51 16.875,-17.74 6.285,-7.24 10.484,-12.02 12.594,-14.34 l 25.515,-26.31 v 22.35 c 0,10.99 -0.109,20.2 -0.324,27.64 -0.211,7.46 -0.523,11.39 -0.945,11.81 -1.906,1.8 -9.039,3.65 -21.395,5.55 v 6.81 l 41.516,-6.5 v -86.67" /><path
         id="path138"
         style="fill:none;stroke:#0072bd;stroke-width:29.99650002;stroke-linecap:butt;stroke-linejoin:round;stroke-miterlimit:10;stroke-dasharray:none;stroke-opacity:1"
         d="m 1521.12,831.574 30.19,261.146 30.18,55.26 30.19,23.34 30.19,46.32 30.18,40.97 30.18,-1.18 30.2,75.95 30.17,4.35 30.19,27.82 30.19,13.16 30.18,17.71 30.19,-34.63 30.19,-12.96 30.18,23.96 30.19,29.31 30.19,-11.06 30.17,-2.83 30.19,-19.7 30.19,-34.46 30.18,-9.4 30.19,5.66 30.19,49.87 30.18,-40.77 30.19,-5.33 30.19,34.54 30.18,40 30.19,31.9 30.18,-29.23 30.18,-38.02 30.2,21.67 30.18,14.04 30.18,-55.79 30.19,-8.46 30.19,-25.93 30.18,25.54 30.19,0.89 30.19,13.07 30.18,-5.32 30.19,29.3 30.18,-10.44 30.18,-25 30.19,1.34 30.19,-20.41 30.18,-32.93 30.19,13.69 30.19,-38.37 30.18,10.2 30.19,1.96 30.19,-2.71 30.18,12.68 30.18,46.03 30.2,-2.88 30.17,-22.76 30.19,-13.23 30.19,-1.77 30.18,-12.89 30.19,0.41 30.19,14.24 30.18,-2.46 30.19,14.93 30.19,-17.18 30.18,1.67 30.18,3.2 30.19,1.19 30.18,13.05 30.19,44.8 30.19,-15.57 30.18,2.77 30.19,8.54 30.19,28.69 30.18,11 30.19,-22.44 30.19,-2.81 30.17,-13.25 30.19,-12 30.19,0.06 30.18,39.01 30.19,-16.62 30.19,-10.68 30.18,4.05 30.19,-6.63 30.19,-15.72 30.18,-1.01 30.19,-20.27 30.18,2.14 30.18,9.24 30.2,-5 30.18,8.38 30.18,-10.46 30.19,-9.26 30.19,-13.84 30.18,30.51 30.19,12.53 30.19,-30.08 30.18,15.39 30.19,12.22 30.18,-16.56 30.18,-22.88 30.19,12.48 30.19,-5.09 30.18,0.5 30.19,10.73 30.19,9.44 30.18,25.79 30.19,0.17 30.19,-13.59 30.18,-3.57 30.18,-6.16 30.2,38.75 30.17,-28.61 30.19,9.61 30.19,-3.75 30.18,0.07 30.19,-5.18 30.19,-2.15 30.18,1.5 30.19,6.79 30.19,-16.72 30.18,-1.87 30.18,26.71 30.19,20.2 30.18,-36.96 30.19,2.37 30.19,16.07 30.18,3.78 30.19,31.6 30.19,-22.91 30.18,8.68 30.19,-22.89 30.18,9.52 30.18,9.81 30.19,34.88 30.19,-8.39 30.18,-24.33 30.19,41.95 30.19,37.38 30.18,-29.51 30.19,2.04 30.19,-0.7 30.18,-34.92 30.19,18.57 30.18,23.3 30.18,-4.61 30.2,-58.7 30.18,-4.9 30.18,52.73 30.19,-31.63 30.19,5.56 30.18,-31.14 30.19,31.89 30.19,13.88 30.18,-15.52 30.19,-11.8 30.18,-25.85 30.18,-15.38 30.19,3.6 30.19,-30.62 30.18,51.91 30.19,14 30.19,-12.59 30.18,6.78 30.19,35.05 30.19,-32.53 30.18,10.67 30.18,-16.29 30.19,-19.6 30.18,-12.49 30.19,48.4 30.19,56.74 30.18,57.84 30.19,-39.88 30.19,20.5 30.18,-1.39 30.19,-23.07 30.19,44.61 30.18,11.75 30.18,20.83 30.19,22.62 30.18,-37.86 30.19,-89.54 30.19,32.54 30.18,55.61 30.19,32.46 30.19,-45.69 30.18,-24.67 30.19,-55.93 30.19,-48.74 30.17,20.73 30.19,-17.31 30.19,-2.61 30.18,-18.15 30.19,0.29 30.19,30.25 30.18,-26.77 30.19,-47.15 30.19,-41.43 30.17,9.37 30.2,50.32 30.18,63.14 30.18,38.49 30.19,-48.39 30.19,-5.01 30.18,13.38 30.19,67.77 30.19,-22.66 30.18,-32.17 30.19,-32.32 30.19,-3.11 30.18,13.31 30.18,-62.22 30.19,47.9 30.18,-43.94 30.19,-19.97 30.19,1.02 30.18,-6.19 30.19,15.32 30.19,9.73 30.18,35.43 30.19,-20.56 30.19,-35.33 30.18,-5.71 30.18,14.06 30.19,-26.76 30.18,-6.35 30.19,4.79 30.19,-3.61 30.18,12.27 30.19,19.38 30.19,-0.72 30.18,40.1 30.19,-0.33 30.19,-20.67 30.18,13.48 30.18,-35.92 30.19,28.57 30.18,-8.16 30.19,-18.42 30.19,5.38 30.18,-7.58 30.19,14.01 30.19,7.72 30.18,2.32 30.19,-9.18 30.18,-18.64 30.18,9.09 30.19,1.97 30.19,-7.53 30.18,8.19 30.19,49.76 30.19,16.73 30.18,-36.22 30.19,39.12 30.19,-31.35 30.17,0.2 30.2,15.04 30.18,-37.32 30.18,-26.66 30.19,-22.54 30.19,19.91 30.18,6.9 30.19,24.35 30.19,46.08 30.18,-33.01 30.19,12.24 30.19,20.7 30.18,-32.97 30.19,7.23 30.18,-7.68 30.18,24.08 30.19,-19.32 30.19,-4.51 30.18,8.13 30.19,-11.25 30.19,15.53 30.18,11.85 30.19,-7.61 30.19,21.83 30.18,-7.45 30.18,-9.22 30.19,67.42 30.16,-17.21 30.2,20.87 30.2,-40.36 30.2,1.25 30.2,-2.77 30.2,34.75 30.1,-18 30.2,17.13 30.2,12.43 30.2,-1.39 30.2,-16.48 30.2,9.83 30.2,-20.82 30.1,-4.41 30.2,-8.3 30.2,24.34 30.2,30.36 30.2,-16.09 30.2,-18.45 30.2,48.99" /><path
         id="path140"
         style="fill:none;stroke:#d95319;stroke-width:29.99650002;stroke-linecap:butt;stroke-linejoin:round;stroke-miterlimit:10;stroke-dasharray:none;stroke-opacity:1"
         d="m 1521.12,831.574 30.19,269.516 30.18,331.66 30.19,-55.4 30.19,87.38 30.18,278.65 30.18,-98.74 30.2,100.55 30.17,120.75 30.19,76 30.19,-35.08 30.18,124.71 30.19,256.9 30.19,106.46 30.18,-502.33 30.19,-161.51 30.19,-229.23 30.17,-11.54 30.19,165.59 30.19,-106.96 30.18,-80.45 30.19,201.69 30.19,-36.28 30.18,54.39 30.19,-39.96 30.19,59.31 30.18,37.3 30.19,47.99 30.18,232.02 30.18,136.13 30.2,685.63 30.18,318.65 30.18,451.87 30.19,-89.6 30.19,-259.22 30.18,-20.61 30.19,404.62 30.19,-157.55 30.18,333.89 30.19,-353.81 30.18,-201.61 30.18,-536.76 30.19,-298.16 30.19,196.67 30.18,176.77 30.19,293.52 30.19,397.47 30.18,24.69 30.19,-581.29 30.19,136.81 30.18,210.22 30.18,-108.43 30.2,-171.2 30.17,-825.55 30.19,122.54 30.19,-41.68 30.18,-89.81 30.19,-468.23 30.19,31.75 30.18,143.18 30.19,-73.14 30.19,113.89 30.18,493.22 30.18,-216.1 30.19,435.42 30.18,-562.21 30.19,-649.24 30.19,10.94 30.18,74 30.19,214.09 30.19,106.22 30.18,-47 30.19,243.47 30.19,-333.37 30.17,320.91 30.19,-169.5 30.19,140.47 30.18,-1.72 30.19,167.29 30.19,364.52 30.18,18.37 30.19,81.79 30.19,-111.08 30.18,37.19 30.19,530.98 30.18,295.49 30.18,562.53 30.2,318.41 30.18,-226.52 30.18,462.4 30.19,-124.28 30.19,68.44 30.18,-658.81 30.19,394.34 30.19,373.46 30.18,-70.87 30.19,-6.49 30.18,-421.31 30.18,40.84 30.19,-838.06 30.19,-368.57 30.18,187.19 30.19,340.74 30.19,-141.16 30.18,-142.83 30.19,-113.05 30.19,385.24 30.18,253.14 30.18,292.06 30.2,-124.24 30.17,-178.3 30.19,-3.6 30.19,-372.33 30.18,85.15 30.19,238.32 30.19,-83.03 30.18,-242.83 30.19,-316.5 30.19,145.48 30.18,186.49 30.18,-203.37 30.19,-734.64 30.18,400.38 30.19,-57.03 30.19,-43.76 30.18,-517.6 30.19,-334.25 30.19,279.33 30.18,258.8 30.19,335.49 30.18,-73.86 30.18,-226.76 30.19,285.55 30.19,-222.92 30.18,-280.69 30.19,126.19 30.19,204.67 30.18,-316.34 30.19,-115.56 30.19,94.6 30.18,-166.74 30.19,155.94 30.18,-97.71 30.18,-75.62 30.2,115.58 30.18,128.25 30.18,83.36 30.19,-24.77 30.19,-64.22 30.18,-417.49 30.19,-8.73 30.19,138.73 30.18,331.03 30.19,-183.29 30.18,-99.72 30.18,-51.7 30.19,156.79 30.19,-226.46 30.18,5.7 30.19,-106.22 30.19,-116.35 30.18,-184.52 30.19,398.6 30.19,53.26 30.18,-37.21 30.18,113.91 30.19,191.79 30.18,179.32 30.19,36.29 30.19,-97.29 30.18,6.17 30.19,288.44 30.19,-41.67 30.18,206.34 30.19,-566.58 30.19,-175.05 30.18,-158.97 30.18,335.85 30.19,142.98 30.18,-365 30.19,-171.03 30.19,469.49 30.18,242.51 30.19,-56.09 30.19,430.85 30.18,-128.11 30.19,-501.4 30.19,-515.54 30.17,86.87 30.19,177.9 30.19,239.99 30.18,-68.08 30.19,3.77 30.19,549.48 30.18,-139.12 30.19,391.61 30.19,-137.17 30.17,930.95 30.2,231.82 30.18,-236.28 30.18,439.61 30.19,173.65 30.19,184.99 30.18,428.3 30.19,59.67 30.19,-346.93 30.18,237.78 30.19,37.33 30.19,-769.26 30.18,365.64 30.18,565.97 30.19,-992.1 30.18,-263.05 30.19,-163.09 30.19,-245.04 30.18,-898.76 30.19,-604.79 30.19,-202.73 30.18,-73.94 30.19,53.51 30.19,13.21 30.18,-124.01 30.18,-146.04 30.19,483.22 30.18,-277.07 30.19,-35.56 30.19,5.25 30.18,85.22 30.19,766.34 30.19,56.22 30.18,125.65 30.19,268.67 30.19,456.64 30.18,-515.86 30.18,28.57 30.19,243.04 30.18,-883.96 30.19,-223.75 30.19,-5 30.18,89.88 30.19,-193.06 30.19,637.27 30.18,380.9 30.19,666.66 30.18,-245.55 30.18,19.47 30.19,-57.02 30.19,-57.17 30.18,-415.98 30.19,226.64 30.19,224.52 30.18,-64.75 30.19,-334.91 30.19,-464.08 30.17,-156.79 30.2,431.73 30.18,-89.63 30.18,-87 30.19,-492.66 30.19,-179.95 30.18,474.53 30.19,-9.73 30.19,-95.22 30.18,-459.66 30.19,142.96 30.19,340.3 30.18,328.71 30.19,100.42 30.18,-298.59 30.18,-196.14 30.19,356.93 30.19,168.73 30.18,175.71 30.19,705.66 30.19,462.54 30.18,87.48 30.19,532.63 30.19,-114.94 30.18,-86.97 30.18,-698.62 30.19,-185.97 30.16,-171.93 30.2,-382.04 30.2,-240.97 30.2,-193.62 30.2,-586.58 30.2,432.61 30.1,427.9 30.2,795.45 30.2,-344.02 30.2,156.38 30.2,272.33 30.2,447.09 30.2,-80.18 30.1,-609.38 30.2,-356.92 30.2,-794.5 30.2,33.29 30.2,-304.36 30.2,-606.2 30.2,-36.94" /><path
         id="path142"
         style="fill:none;stroke:#edb120;stroke-width:29.99650002;stroke-linecap:butt;stroke-linejoin:round;stroke-miterlimit:10;stroke-dasharray:none;stroke-opacity:1"
         d="m 1521.12,831.574 30.19,269.516 30.18,87.35 30.19,74.72 30.19,10.73 30.18,82.06 30.18,-76.45 30.2,145.23 30.17,201.51 30.19,-49.41 30.19,47.38 30.18,-19.99 30.19,68.83 30.19,-153.17 30.18,194.43 30.19,-207.74 30.19,314.26 30.17,-308.1 30.19,146.18 30.19,-109.34 30.18,211.39 30.19,-159.44 30.19,154.14 30.18,-113.26 30.19,157.9 30.19,-131.17 30.18,376.76 30.19,-246.47 30.18,141.98 30.18,-277.9 30.2,-49.11 30.18,175.39 30.18,-294.37 30.19,316.79 30.19,-388.13 30.18,302.17 30.19,-280.55 30.19,401.27 30.18,-346.81 30.19,468.1 30.18,-482.14 30.18,518.2 30.19,-619.26 30.19,407.93 30.18,-395.32 30.19,414.36 30.19,-344.72 30.18,152.15 30.19,-260.49 30.19,288.67 30.18,-132.25 30.18,50.92 30.2,101.31 30.17,-213.75 30.19,13.73 30.19,52.95 30.18,-158.63 30.19,230.61 30.19,-238.36 30.18,159.07 30.19,-107.87 30.19,275.15 30.18,-312.06 30.18,226.8 30.19,-142.23 30.18,245.87 30.19,-75.65 30.19,241.06 30.18,-233.42 30.19,245.24 30.19,-230.96 30.18,381.85 30.19,-397.22 30.19,337.31 30.17,-358.8 30.19,382.18 30.19,-384 30.18,298.78 30.19,-229.25 30.19,216.47 30.18,-302.84 30.19,208.04 30.19,-267.68 30.18,208.88 30.19,-76.44 30.18,127.81 30.18,-106.07 30.2,185.05 30.18,-180.05 30.18,332.6 30.19,-203.57 30.19,155.67 30.18,-221.18 30.19,40.78 30.19,101.38 30.18,-248.99 30.19,127.97 30.18,-2.95 30.18,-71.6 30.19,188.38 30.19,-374.27 30.18,436.95 30.19,-301.28 30.19,186.9 30.18,-130.72 30.19,126.07 30.19,-197.34 30.18,175.66 30.18,-99.76 30.2,189.29 30.17,-254.71 30.19,208.91 30.19,-255.49 30.18,248.7 30.19,-229.17 30.19,237.13 30.18,-249.78 30.19,341.16 30.19,-180.4 30.18,183.73 30.18,-27.09 30.19,156.55 30.18,-201.61 30.19,-49.93 30.19,113.74 30.18,-203.59 30.19,100.09 30.19,118.96 30.18,-169.83 30.19,289.15 30.18,-235.64 30.18,9.25 30.19,-215.48 30.19,319.34 30.18,-189.87 30.19,192.25 30.19,-218.61 30.18,244.73 30.19,-177.14 30.19,-56.16 30.18,-108.53 30.19,201.73 30.18,-243.77 30.18,59.06 30.2,-22.53 30.18,47.36 30.18,-98.35 30.19,-16.78 30.19,129 30.18,1.61 30.19,-10.2 30.19,-29.18 30.18,103.75 30.19,7.4 30.18,11.86 30.18,-150.36 30.19,-91.44 30.19,28.37 30.18,222.92 30.19,-176.14 30.19,15.7 30.18,-210.72 30.19,84.92 30.19,2.34 30.18,134.57 30.18,-89.68 30.19,131.12 30.18,104.16 30.19,102.5 30.19,-50.11 30.18,161.49 30.19,-108.58 30.19,40.09 30.18,-17.55 30.19,75.2 30.19,-132.71 30.18,240.08 30.18,-143.38 30.19,200.28 30.18,-207.32 30.19,20.72 30.19,-43.48 30.18,102.6 30.19,-119.16 30.19,65.24 30.18,-49.32 30.19,87.75 30.19,-333.98 30.17,78.66 30.19,-61.84 30.19,131.79 30.18,-165.82 30.19,97.32 30.19,-45 30.18,118.67 30.19,-92.17 30.19,60.09 30.17,-12.12 30.2,272.9 30.18,-175.5 30.18,211.15 30.19,-358.35 30.19,288.64 30.18,-386.57 30.19,491.6 30.19,-291.88 30.18,248.43 30.19,-377.23 30.19,293.05 30.18,-264.28 30.18,493.78 30.19,-428.83 30.18,111.39 30.19,-21.61 30.19,167.75 30.18,-338.36 30.19,120.74 30.19,-180.47 30.18,114.07 30.19,-131.31 30.19,177.38 30.18,-162.63 30.18,30.19 30.19,104.98 30.18,-127.07 30.19,76.73 30.19,-1.02 30.18,-92.02 30.19,245.29 30.19,-253.97 30.18,241.55 30.19,-219.65 30.19,410.41 30.18,-464.52 30.18,191.14 30.19,-156.18 30.18,154.56 30.19,-345.67 30.19,214.88 30.18,-207.3 30.19,175.41 30.19,-152.54 30.18,304.17 30.19,-181.55 30.18,128.34 30.18,-206.99 30.19,185.19 30.19,-192.22 30.18,45.19 30.19,36.94 30.19,-146.59 30.18,270.15 30.19,-280.73 30.19,228.72 30.17,-309.42 30.2,225.81 30.18,-151.88 30.18,-20.77 30.19,139.23 30.19,-209.49 30.18,184.7 30.19,-156.8 30.19,145.19 30.18,-203.7 30.19,253.59 30.19,-241.92 30.18,167.77 30.19,-192.76 30.18,284.32 30.18,-287.92 30.19,325.56 30.19,-217.14 30.18,379.85 30.19,-378.6 30.19,375.38 30.18,-370.64 30.19,317.11 30.19,-256.21 30.18,252.3 30.18,-300.68 30.19,426.25 30.16,-448.63 30.2,373.67 30.2,-359.93 30.2,464.18 30.2,-488.13 30.2,404.12 30.1,-478.95 30.2,478.76 30.2,-431.28 30.2,333.3 30.2,-356.86 30.2,456.6 30.2,-331.53 30.1,105.44 30.2,-211.69 30.2,298.41 30.2,-220.81 30.2,359.89 30.2,-335.29 30.2,426.76" /><path
         id="path144"
         style="fill:none;stroke:#7e2f8e;stroke-width:29.99650002;stroke-linecap:butt;stroke-linejoin:round;stroke-miterlimit:10;stroke-dasharray:none;stroke-opacity:1"
         d="m 1521.12,831.574 30.19,247.156 30.18,49.07 30.19,19.38 30.19,24.14 30.18,11.04 30.18,8.45 30.2,29.58 30.17,8.14 30.19,8.42 30.19,9.35 30.18,7.92 30.19,9.71 30.19,21.02 30.18,12.68 30.19,13 30.19,17.83 30.17,-13.35 30.19,-0.58 30.19,0.14 30.18,-9.66 30.19,3.7 30.19,14.75 30.18,-3.82 30.19,-12.43 30.19,8.65 30.18,17.49 30.19,22.24 30.18,1.31 30.18,-3.81 30.2,11.14 30.18,42.37 30.18,-2.65 30.19,-10.66 30.19,-32.64 30.18,14.77 30.19,7.76 30.19,17.34 30.18,2.11 30.19,58.62 30.18,88.76 30.18,-185.84 30.19,-25.17 30.19,146.45 30.18,9.39 30.19,171.88 30.19,318.72 30.18,-61.26 30.19,-468.18 30.19,-67.44 30.18,198.73 30.18,-58.52 30.2,44.03 30.17,0.29 30.19,-25.2 30.19,-58.85 30.18,35.34 30.19,-67.24 30.19,88.75 30.18,370.14 30.19,-268.62 30.19,26.16 30.18,450.02 30.18,-146.53 30.19,-108.01 30.18,-155.56 30.19,-135.27 30.19,-151.28 30.18,1.53 30.19,180.85 30.19,91.09 30.18,-115.67 30.19,-61.62 30.19,-78.5 30.17,49.26 30.19,-53.97 30.19,175.45 30.18,170.77 30.19,-84.37 30.19,176.85 30.18,-60.18 30.19,20.64 30.19,-89.05 30.18,288.06 30.19,389.09 30.18,337.76 30.18,616.2 30.2,121.12 30.18,-232.68 30.18,80.49 30.19,-66.9 30.19,47.75 30.18,24.92 30.19,-42.59 30.19,383.2 30.18,129.7 30.19,-185.2 30.18,-178.98 30.18,-96.19 30.19,-339.98 30.19,-236.52 30.18,121.26 30.19,75.73 30.19,-121.94 30.18,-103.91 30.19,-112.21 30.19,184.07 30.18,253.59 30.18,18.78 30.2,13.89 30.17,-101.12 30.19,-95.31 30.19,-74.05 30.18,-61.5 30.19,109.57 30.19,78.65 30.18,-175.62 30.19,-220.53 30.19,-66.14 30.18,177.69 30.18,-94.29 30.19,-301.1 30.18,45.81 30.19,80.55 30.19,-93.23 30.18,21.16 30.19,-123.77 30.19,-39.08 30.18,51.83 30.19,29.4 30.18,77.07 30.18,-192.11 30.19,11.17 30.19,44.97 30.18,-74.35 30.19,6.5 30.19,128.85 30.18,17.08 30.19,-79.07 30.19,134.16 30.18,-160.64 30.19,-74.59 30.18,-42.25 30.18,-52.35 30.2,-4.4 30.18,-40.76 30.18,-8.23 30.19,-32.44 30.19,28.9 30.18,-74.78 30.19,-79.89 30.19,-67.98 30.18,290.34 30.19,203.02 30.18,-324.56 30.18,-103.89 30.19,14.77 30.19,-241.51 30.18,94.43 30.19,44.37 30.19,-135.39 30.18,-185.75 30.19,454.81 30.19,306.64 30.18,-401.59 30.18,93.27 30.19,242.86 30.18,129.53 30.19,14.29 30.19,-261.24 30.18,-36.15 30.19,22.83 30.19,3.71 30.18,104.34 30.19,-9.1 30.19,-127.54 30.18,-52.57 30.18,106.45 30.19,173.55 30.18,-159.52 30.19,-227 30.19,171.12 30.18,597.28 30.19,12.02 30.19,-228.57 30.18,-80.6 30.19,-188.17 30.19,-272.33 30.17,-182.96 30.19,260.97 30.19,223.85 30.18,1.85 30.19,3.71 30.19,335.85 30.18,-7.23 30.19,101.12 30.19,1.04 30.17,276.61 30.2,333.18 30.18,-67.93 30.18,183.06 30.19,255.65 30.19,190.97 30.18,178.75 30.19,101.03 30.19,-111.12 30.18,-111.71 30.19,40.69 30.19,-205.12 30.18,-86.89 30.18,227.8 30.19,-107.46 30.18,-312.16 30.19,-66.63 30.19,-70.33 30.18,-313.57 30.19,-372.4 30.19,-432.69 30.18,-147.69 30.19,-64.12 30.19,413.81 30.18,-168.36 30.18,-458.34 30.19,198.56 30.18,221.47 30.19,-214.83 30.19,-55.57 30.18,120.07 30.19,682.42 30.19,56.31 30.18,-291.51 30.19,153.39 30.19,201.05 30.18,-106.19 30.18,-150.62 30.19,76.22 30.18,-150.27 30.19,-226.48 30.19,-68.17 30.18,23.12 30.19,-57.21 30.19,179.74 30.18,417.03 30.19,200.02 30.18,129.02 30.18,-32.81 30.19,-27.34 30.19,-12.68 30.18,-61.21 30.19,-54.64 30.19,68.44 30.18,40.59 30.19,-225.19 30.19,-229.97 30.17,-134.64 30.2,77.76 30.18,117.98 30.18,-73.05 30.19,-208.25 30.19,-199.32 30.18,61.41 30.19,90.47 30.19,-3.11 30.18,-135.32 30.19,-101 30.19,125.26 30.18,150.97 30.19,13.62 30.18,-78.62 30.18,-108.79 30.19,156.97 30.19,393.17 30.18,253.4 30.19,517.01 30.19,568.34 30.18,-108.78 30.19,-137.04 30.19,13.84 30.18,-139.09 30.18,-285.77 30.19,-293.74 30.16,-154.24 30.2,-186.76 30.2,-214.6 30.2,-111.24 30.2,-357.13 30.2,-53.18 30.1,340.69 30.2,601.12 30.2,-121.09 30.2,-86.97 30.2,405.32 30.2,260.95 30.2,-98.75 30.1,-234.19 30.2,-192.29 30.2,-343.25 30.2,83.27 30.2,67.68 30.2,-558.52 30.2,-577.58" /><path
         id="path146"
         style="fill:none;stroke:#77ac30;stroke-width:29.99650002;stroke-linecap:butt;stroke-linejoin:round;stroke-miterlimit:10;stroke-dasharray:none;stroke-opacity:1"
         d="m 1521.12,831.574 30.19,247.156 30.18,49.07 30.19,19.39 30.19,28.6 30.18,11.39 30.18,13.51 30.2,33.88 30.17,18.85 30.19,29.32 30.19,20.47 30.18,20.75 30.19,0.31 30.19,4.94 30.18,3.36 30.19,11.36 30.19,29 30.17,-5.64 30.19,6.45 30.19,-17.95 30.18,-4.1 30.19,1.18 30.19,2.68 30.18,-12.98 30.19,-14.32 30.19,13.88 30.18,31.78 30.19,19.72 30.18,43.03 30.18,45.43 30.2,83.34 30.18,72.7 30.18,148.06 30.19,29.86 30.19,-0.04 30.18,-14.59 30.19,-51.7 30.19,-128.54 30.18,-50.35 30.19,99.25 30.18,76.07 30.18,-89.7 30.19,18.75 30.19,143.1 30.18,-50.53 30.19,219.8 30.19,472.25 30.18,87.94 30.19,-282.07 30.19,-39.13 30.18,-6.78 30.18,45.68 30.2,-2.17 30.17,-250.77 30.19,-90.81 30.19,-92.6 30.18,-191.65 30.19,-120.91 30.19,26.93 30.18,296.05 30.19,-68.13 30.19,137.85 30.18,428.96 30.18,-181.96 30.19,22.14 30.18,-126.49 30.19,-209.55 30.19,-197.97 30.18,-134.1 30.19,176.82 30.19,207.49 30.18,92.69 30.19,-214.24 30.19,-230.05 30.17,19.48 30.19,-85.34 30.19,1.76 30.18,203.54 30.19,59.06 30.19,460.37 30.18,-138.66 30.19,27.54 30.19,-73.82 30.18,-75.03 30.19,262.73 30.18,658.26 30.18,1086.57 30.2,531.82 30.18,180.13 30.18,58.09 30.19,-258.35 30.19,-450.95 30.18,-595.71 30.19,-282.09 30.19,-1.61 30.18,244.95 30.19,-48.09 30.18,-156.75 30.18,-247.51 30.19,-611.24 30.19,-781.81 30.18,109.22 30.19,331.86 30.19,-19.25 30.18,50.39 30.19,-2.6 30.19,153.71 30.18,236.54 30.18,316.19 30.2,214.37 30.17,61.49 30.19,-138.94 30.19,-330.62 30.18,-256.05 30.19,-40.21 30.19,112.61 30.18,-77.51 30.19,-183.35 30.19,-147.12 30.18,22.33 30.18,-48.52 30.19,-127.08 30.18,121.21 30.19,160.28 30.19,538.57 30.18,303.48 30.19,276.91 30.19,224.66 30.18,270.38 30.19,186.85 30.18,-73.61 30.18,-364.6 30.19,-481.97 30.19,-386.83 30.18,-544.53 30.19,-144.45 30.19,-97.23 30.18,-40.34 30.19,179.25 30.19,236.76 30.18,88.69 30.19,-96.7 30.18,-126.52 30.18,-171.35 30.2,-181.57 30.18,-80.2 30.18,-89.14 30.19,73.33 30.19,176.92 30.18,179.76 30.19,23.69 30.19,118.46 30.18,20.86 30.19,16.39 30.18,62.85 30.18,-142.63 30.19,-102.57 30.19,-152.45 30.18,-113.99 30.19,-57.14 30.19,-62.99 30.18,37.06 30.19,313.35 30.19,372.1 30.18,-23.75 30.18,293.42 30.19,131.63 30.18,65.37 30.19,32.03 30.19,-181.21 30.18,-191.19 30.19,-83.82 30.19,-155.56 30.18,120.13 30.19,-122.98 30.19,12.37 30.18,64.77 30.18,124.14 30.19,-4.69 30.18,-54.21 30.19,-259.82 30.19,-18.53 30.18,657.95 30.19,216.66 30.19,269.67 30.18,37.67 30.19,-328.48 30.19,-326.67 30.17,-700.62 30.19,-119.17 30.19,277.62 30.18,121.42 30.19,235.88 30.19,340.29 30.18,24.86 30.19,189.26 30.19,-14.67 30.17,301.18 30.2,161.5 30.18,76.09 30.18,96.36 30.19,191.33 30.19,110.51 30.18,192.67 30.19,208.13 30.19,-117.55 30.18,-244.69 30.19,-350.7 30.19,-597.64 30.18,-409.75 30.18,-40.77 30.19,-106.13 30.18,-144.97 30.19,208.26 30.19,2.5 30.18,29.05 30.19,81.46 30.19,47.53 30.18,6.08 30.19,-206.9 30.19,-71.02 30.18,-61.25 30.18,-114.19 30.19,110.89 30.18,-71.22 30.19,-137.7 30.19,-78.9 30.18,130.23 30.19,485.27 30.19,269.8 30.18,124.5 30.19,176.5 30.19,169.84 30.18,-221.76 30.18,-421.49 30.19,-193.6 30.18,-314.66 30.19,-271.96 30.19,-84.69 30.18,-49.14 30.19,-40.97 30.19,108.5 30.18,407.63 30.19,418.27 30.18,468.42 30.18,322.4 30.19,38.21 30.19,-212.67 30.18,-396.16 30.19,-189.3 30.19,-186.7 30.18,-48.4 30.19,-354.75 30.19,-286.15 30.17,-287.34 30.2,42.88 30.18,417.1 30.18,-26.6 30.19,-21.13 30.19,-153.98 30.18,-129.87 30.19,-32.47 30.19,120.47 30.18,100.06 30.19,83.02 30.19,56.7 30.18,79.61 30.19,51.65 30.18,78.55 30.18,-64.59 30.19,0.73 30.19,266.53 30.18,435.43 30.19,805.56 30.19,837.19 30.18,317.51 30.19,126.46 30.19,-116.89 30.18,-454.78 30.18,-806.15 30.19,-728.68 30.16,-814.77 30.2,-191.03 30.2,131.04 30.2,243.53 30.2,122 30.2,-95.9 30.1,-112.73 30.2,282.59 30.2,138.11 30.2,441.24 30.2,555.2 30.2,300.03 30.2,-65.74 30.1,-296.01 30.2,-436.21 30.2,-353.41 30.2,296.61 30.2,354.76 30.2,131.63 30.2,-187.75" /><path
         id="path148"
         style="fill:#ffffff;fill-opacity:1;fill-rule:nonzero;stroke:none"
         d="M 1602.25,4350.43 H 4695.2 V 6033.8 H 1602.25 Z" /><path
         id="path150"
         style="fill:#000000;fill-opacity:1;fill-rule:nonzero;stroke:none"
         d="m 2035.5,5815.77 c 6.24,-7.93 14.03,-14.19 23.38,-18.79 9.35,-4.59 19.1,-6.89 29.24,-6.89 8.45,0 16.26,1.66 23.44,5 7.19,3.32 13.5,7.97 18.94,13.94 5.44,5.96 9.59,12.75 12.44,20.35 2.85,7.61 4.27,15.58 4.27,23.94 0,1.37 0.85,2.06 2.54,2.06 h 3.33 c 1.37,0 2.06,-0.85 2.06,-2.54 0,-9.61 -1.82,-18.86 -5.47,-27.73 -3.64,-8.87 -8.82,-16.66 -15.53,-23.37 -6.7,-6.71 -14.39,-11.94 -23.05,-15.69 -8.66,-3.75 -17.75,-5.63 -27.25,-5.63 -13.11,0 -25.49,2.65 -37.16,7.93 -11.68,5.28 -21.87,12.54 -30.58,21.79 -8.72,9.24 -15.51,19.93 -20.37,32.08 -4.85,12.15 -7.28,24.77 -7.28,37.87 0,13.1 2.43,25.7 7.28,37.79 4.86,12.1 11.65,22.79 20.37,32.09 8.71,9.29 18.9,16.53 30.58,21.71 11.67,5.17 24.05,7.76 37.16,7.76 9.4,0 18.38,-2.01 26.93,-6.02 8.56,-4.01 16.06,-9.72 22.5,-17.12 l 15.84,22.34 c 1.07,0.53 1.7,0.8 1.91,0.8 h 2.06 c 0.53,0 1,-0.21 1.43,-0.63 0.42,-0.43 0.63,-0.95 0.63,-1.58 v -74 c 0,-1.59 -0.69,-2.39 -2.06,-2.39 h -5.07 c -1.69,0 -2.54,0.8 -2.54,2.39 0,5.28 -1.03,11.16 -3.09,17.66 -2.06,6.5 -4.72,12.68 -8,18.54 -3.27,5.86 -7.02,11.01 -11.25,15.45 -10.25,10.03 -22.02,15.05 -35.33,15.05 -10.04,0 -19.68,-2.27 -28.92,-6.81 -9.24,-4.54 -17.03,-10.83 -23.38,-18.85 -6.65,-8.56 -11.27,-18.31 -13.86,-29.24 -2.59,-10.93 -3.88,-22.58 -3.88,-34.94 0,-12.46 1.29,-24.16 3.88,-35.09 2.59,-10.94 7.21,-20.68 13.86,-29.23" /><path
         id="path152"
         style="fill:none;stroke:#0072bd;stroke-width:29.99650002;stroke-linecap:butt;stroke-linejoin:round;stroke-miterlimit:10;stroke-dasharray:none;stroke-opacity:1"
         d="m 1642.79,5851.25 h 299.87" /><path
         id="path154"
         style="fill:#000000;fill-opacity:1;fill-rule:nonzero;stroke:none"
         d="m 2079.56,5450.86 c -17.32,0 -32.9,4.62 -46.74,13.87 -13.84,9.24 -24.69,21.49 -32.56,36.76 -7.87,15.26 -11.81,31.34 -11.81,48.24 0,12.47 2.25,24.8 6.74,37 4.49,12.2 10.77,23.02 18.85,32.48 8.08,9.45 17.77,16.93 29.07,22.43 11.3,5.49 23.45,8.23 36.45,8.23 12.99,0 25.17,-2.77 36.53,-8.32 11.34,-5.54 21.09,-13.09 29.22,-22.65 8.14,-9.56 14.37,-20.26 18.7,-32.09 4.33,-11.83 6.5,-24.19 6.5,-37.08 0,-16.9 -3.91,-32.98 -11.72,-48.24 -7.83,-15.27 -18.7,-27.52 -32.65,-36.76 -13.94,-9.25 -29.47,-13.87 -46.58,-13.87 z m -45.32,35.49 c 5.28,-8.34 11.86,-14.97 19.73,-19.89 7.87,-4.91 16.4,-7.36 25.59,-7.36 6.02,0 11.91,1.19 17.66,3.56 5.76,2.38 10.96,5.66 15.61,9.83 4.65,4.17 8.67,8.79 12.05,13.86 10.87,16.48 16.31,39.03 16.31,67.66 0,26.3 -5.44,47.11 -16.31,62.42 -5.39,7.72 -12.08,13.9 -20.05,18.55 -7.97,4.65 -16.4,6.97 -25.27,6.97 -8.87,0 -17.32,-2.32 -25.35,-6.97 -8.03,-4.65 -14.69,-10.83 -19.97,-18.55 -4.33,-5.91 -7.68,-12.22 -10.06,-18.93 -2.38,-6.7 -4.04,-13.68 -4.99,-20.91 -0.96,-7.24 -1.43,-14.77 -1.43,-22.58 0,-8.24 0.47,-16.3 1.43,-24.17 0.95,-7.87 2.7,-15.61 5.23,-23.21 2.54,-7.61 5.81,-14.36 9.82,-20.28" /><path
         id="path156"
         style="fill:#000000;fill-opacity:1;fill-rule:nonzero;stroke:none"
         d="m 2198.45,5453.08 v 63.85 c 0,1.37 0.79,2.06 2.37,2.06 h 3.34 c 0.52,0 1.02,-0.21 1.5,-0.63 0.47,-0.42 0.71,-0.9 0.71,-1.43 0,-17.95 5.54,-31.84 16.64,-41.66 11.09,-9.84 25.62,-14.75 43.57,-14.75 6.34,0 12.2,1.82 17.59,5.48 5.38,3.64 9.56,8.42 12.52,14.34 2.95,5.91 4.44,12.04 4.44,18.37 0,5.5 -1.11,10.86 -3.33,16.08 -2.22,5.23 -5.41,9.77 -9.59,13.63 -4.17,3.86 -8.9,6.42 -14.18,7.69 l -35.65,8.55 c -11.73,3.17 -21.31,9.59 -28.75,19.25 -7.46,9.67 -11.18,20.52 -11.18,32.57 0,9.4 2.4,18.24 7.21,26.54 4.8,8.28 11.3,14.83 19.49,19.64 8.19,4.8 16.98,7.21 26.37,7.21 18.28,0 32.81,-6.18 43.58,-18.54 l 11.26,17.75 c 0.52,0.53 1.16,0.79 1.89,0.79 h 1.91 c 0.53,0 1.03,-0.18 1.5,-0.55 0.47,-0.37 0.71,-0.93 0.71,-1.66 v -63.54 c 0,-1.58 -0.74,-2.38 -2.21,-2.38 h -3.33 c -1.69,0 -2.53,0.8 -2.53,2.38 0,4.64 -0.77,9.74 -2.3,15.29 -1.54,5.54 -3.71,10.85 -6.5,15.92 -2.8,5.07 -5.79,9.19 -8.95,12.36 -8.77,8.98 -20.44,13.47 -35.03,13.47 -6.22,0 -11.98,-1.59 -17.27,-4.76 -5.27,-3.17 -9.47,-7.47 -12.59,-12.91 -3.12,-5.44 -4.68,-11.17 -4.68,-17.2 0,-7.81 2.43,-14.91 7.3,-21.3 4.86,-6.39 11.25,-10.59 19.17,-12.6 l 35.5,-8.72 c 5.91,-1.37 11.46,-3.9 16.63,-7.6 5.17,-3.7 9.51,-8 12.99,-12.91 3.48,-4.92 6.21,-10.38 8.16,-16.4 1.95,-6.02 2.93,-12.26 2.93,-18.7 0,-9.82 -2.27,-19.15 -6.81,-27.97 -4.55,-8.82 -10.94,-15.9 -19.17,-21.23 -8.24,-5.34 -17.27,-8 -27.1,-8 -6.02,0 -12.2,0.66 -18.53,1.98 -6.34,1.32 -12.18,3.38 -17.51,6.18 -5.34,2.8 -10.17,6.36 -14.51,10.7 l -11.56,-18.07 c -0.52,-0.53 -1.21,-0.79 -2.06,-0.79 h -1.59 c -1.58,0 -2.37,0.74 -2.37,2.22" /><path
         id="path158"
         style="fill:none;stroke:#d95319;stroke-width:29.99650002;stroke-linecap:butt;stroke-linejoin:round;stroke-miterlimit:10;stroke-dasharray:none;stroke-opacity:1"
         d="m 1642.79,5521.68 h 299.87" /><path
         id="path160"
         style="fill:#000000;fill-opacity:1;fill-rule:nonzero;stroke:none"
         d="m 1982.74,5127.31 v 9.67 c 18.8,0 28.21,5.38 28.21,16.16 v 142.93 c 0,5.81 -9.41,8.71 -28.21,8.71 v 9.51 h 51.66 c 2.22,0 3.69,-1 4.43,-3.01 l 59.58,-154.98 59.74,154.98 c 0.74,2.01 2.22,3.01 4.44,3.01 h 51.65 v -9.51 c -18.8,0 -28.2,-2.9 -28.2,-8.71 V 5145.7 c 0,-5.82 9.4,-8.72 28.2,-8.72 v -9.67 h -79.7 v 9.67 c 18.8,0 28.2,2.9 28.2,8.72 v 159.24 l -67.33,-174.62 c -0.85,-2 -2.38,-3.01 -4.61,-3.01 -2.32,0 -3.85,1.01 -4.59,3.01 l -66.55,172.56 v -149.74 c 0,-10.78 9.41,-16.16 28.21,-16.16 v -9.67 h -65.13" /><path
         id="path162"
         style="fill:#000000;fill-opacity:1;fill-rule:nonzero;stroke:none"
         d="m 2228.97,5127.31 v 9.67 c 18.81,0 28.21,2.9 28.21,8.72 v 150.37 c 0,5.81 -9.4,8.71 -28.21,8.71 v 9.51 h 151.01 l 7.6,-62.59 h -7.92 c -1.27,11.51 -2.93,20.57 -4.98,27.17 -2.07,6.6 -5.11,11.81 -9.12,15.6 -4.02,3.81 -9.41,6.48 -16.17,8.01 -6.76,1.53 -16,2.3 -27.72,2.3 h -25.04 c -3.27,0 -5.83,-0.14 -7.68,-0.4 -1.85,-0.26 -3.36,-1.05 -4.52,-2.37 -1.16,-1.33 -1.74,-3.31 -1.74,-5.94 v -70.51 h 19.49 c 9.29,0 16.14,0.82 20.52,2.45 4.39,1.64 7.39,4.65 9.03,9.03 1.63,4.39 2.45,11.28 2.45,20.67 h 7.93 v -73.67 h -7.93 c 0,9.3 -0.82,16.14 -2.45,20.51 -1.64,4.39 -4.65,7.4 -9.03,9.04 -4.38,1.64 -11.23,2.45 -20.52,2.45 h -19.49 v -70.34 c 0,-5.82 11.67,-8.72 35.01,-8.72 v -9.67 h -88.73" /><path
         id="path164"
         style="fill:#000000;fill-opacity:1;fill-rule:nonzero;stroke:none"
         d="m 2405.23,5127.31 v 9.67 c 18.8,0 28.2,2.9 28.2,8.72 v 150.37 c 0,5.81 -9.4,8.71 -28.2,8.71 v 9.51 h 81.91 v -9.51 c -18.8,0 -28.19,-2.9 -28.19,-8.71 v -66.56 h 80.8 v 66.56 c 0,5.81 -9.4,8.71 -28.2,8.71 v 9.51 h 81.76 v -9.51 c -18.7,0 -28.05,-2.9 -28.05,-8.71 V 5145.7 c 0,-5.82 9.35,-8.72 28.05,-8.72 v -9.67 h -81.76 v 9.67 c 18.8,0 28.2,2.9 28.2,8.72 v 74.15 h -80.8 v -74.15 c 0,-5.82 9.39,-8.72 28.19,-8.72 v -9.67 h -81.91" /><path
         id="path166"
         style="fill:#000000;fill-opacity:1;fill-rule:nonzero;stroke:none"
         d="m 2774.25,5059.34 c -10.14,8.02 -18.9,17.24 -26.29,27.65 -7.4,10.41 -13.42,21.5 -18.07,33.28 -4.65,11.77 -8.13,24.08 -10.46,36.91 -2.32,12.84 -3.49,25.7 -3.49,38.58 0,13.1 1.17,26.07 3.49,38.9 2.33,12.84 5.87,25.16 10.62,37 4.75,11.83 10.83,22.92 18.22,33.28 7.4,10.35 16.06,19.43 25.98,27.25 0,0.31 0.43,0.47 1.27,0.47 h 2.53 c 0.53,0 1.04,-0.23 1.52,-0.71 0.47,-0.48 0.71,-1.03 0.71,-1.66 0,-0.84 -0.21,-1.43 -0.63,-1.74 -8.88,-8.77 -16.27,-18.15 -22.19,-28.13 -5.92,-9.98 -10.69,-20.6 -14.34,-31.85 -3.64,-11.25 -6.26,-22.92 -7.84,-35.01 -1.59,-12.1 -2.38,-24.7 -2.38,-37.8 0,-57.99 15.53,-102.04 46.58,-132.14 0.53,-0.64 0.8,-1.43 0.8,-2.39 0,-0.41 -0.27,-0.91 -0.8,-1.5 -0.52,-0.58 -1,-0.87 -1.43,-0.87 h -2.53 c -0.84,0 -1.27,0.16 -1.27,0.48" /><path
         id="path168"
         style="fill:#000000;fill-opacity:1;fill-rule:nonzero;stroke:none"
         d="m 2843.13,5124.3 -12.68,174.45 c -0.63,2.65 -2.64,4.31 -6.02,5 -3.38,0.68 -7.55,1.03 -12.52,1.03 -1.79,0 -2.69,1.16 -2.69,3.49 0.64,2.32 1.11,3.91 1.43,4.75 0.31,0.85 1.32,1.27 3.01,1.27 h 65.28 c 1.79,0 2.69,-1.16 2.69,-3.49 -0.73,-4.01 -1.9,-6.02 -3.49,-6.02 -14.57,0 -22.34,-2.54 -23.29,-7.61 l 9.83,-138.33 68.45,119.32 -1.43,20.59 c -0.63,2.65 -2.63,4.31 -6.02,5 -3.38,0.68 -7.55,1.03 -12.52,1.03 -1.9,0 -2.85,1.16 -2.85,3.49 0.64,2.32 1.14,3.91 1.5,4.75 0.37,0.85 1.46,1.27 3.26,1.27 h 65.27 c 1.8,0 2.7,-1.16 2.7,-3.49 -0.11,-0.53 -0.29,-1.32 -0.56,-2.38 -0.26,-1.06 -0.63,-1.93 -1.1,-2.61 -0.47,-0.69 -1.13,-1.03 -1.98,-1.03 -14.68,0 -22.45,-2.54 -23.29,-7.61 v -2.06 l 9.82,-136.27 74.47,129.93 c 1.05,2.01 1.58,3.97 1.58,5.87 0,3.7 -1.82,6.31 -5.46,7.84 -3.65,1.53 -7.74,2.3 -12.29,2.3 -1.79,0 -2.68,1.16 -2.68,3.49 0.41,1.48 0.73,2.61 0.95,3.4 0.21,0.79 0.61,1.42 1.19,1.9 0.58,0.48 1.45,0.72 2.61,0.72 h 52.29 c 1.79,0 2.69,-1.16 2.69,-3.49 -0.1,-0.53 -0.29,-1.34 -0.55,-2.45 -0.27,-1.11 -0.64,-1.98 -1.12,-2.62 -0.47,-0.64 -1.07,-0.95 -1.81,-0.95 -13,0 -22.93,-5.97 -29.8,-17.91 -0.52,-0.53 -0.79,-0.79 -0.79,-0.79 l -92.69,-161.78 c -0.95,-2.01 -2.53,-3.01 -4.75,-3.01 h -2.06 c -2.22,0 -3.33,1 -3.33,3.01 l -10.46,141.02 -80.49,-141.02 c -1.37,-2.01 -2.96,-3.01 -4.75,-3.01 h -2.38 c -2.11,0 -3.17,1 -3.17,3.01" /><path
         id="path170"
         style="fill:#000000;fill-opacity:1;fill-rule:nonzero;stroke:none"
         d="m 3066.13,5098.54 c 3.37,-5.91 10.3,-8.87 20.75,-8.87 4.54,0 8.84,0.79 12.91,2.37 4.07,1.59 7.42,3.91 10.06,6.98 2.65,3.06 3.97,6.76 3.97,11.09 0,3.37 -1.19,6.12 -3.57,8.24 -2.37,2.11 -5.25,3.53 -8.63,4.28 l -10.47,2.06 c -4.75,1.26 -8.69,3.51 -11.8,6.73 -3.12,3.22 -4.67,7.15 -4.67,11.8 0,5.71 1.55,10.75 4.67,15.14 3.11,4.38 7.21,7.73 12.28,10.05 5.07,2.33 10.35,3.49 15.85,3.49 5.81,0 11.01,-1.37 15.61,-4.11 4.59,-2.75 6.89,-6.87 6.89,-12.37 0,-2.95 -0.82,-5.56 -2.46,-7.83 -1.64,-2.28 -3.93,-3.41 -6.89,-3.41 -1.69,0 -3.14,0.55 -4.36,1.66 -1.22,1.11 -1.82,2.51 -1.82,4.2 0,1.48 0.42,2.93 1.26,4.35 0.85,1.43 1.99,2.56 3.41,3.41 1.43,0.84 2.88,1.26 4.36,1.26 -1.16,2.76 -3.3,4.76 -6.42,6.03 -3.11,1.27 -6.41,1.9 -9.9,1.9 -3.27,0 -6.55,-0.66 -9.82,-1.98 -3.28,-1.32 -5.89,-3.25 -7.85,-5.78 -1.95,-2.54 -2.93,-5.55 -2.93,-9.04 0,-2.32 0.79,-4.35 2.38,-6.09 1.58,-1.75 3.59,-2.99 6.02,-3.72 l 11.25,-2.23 c 3.49,-0.84 6.73,-2.21 9.75,-4.11 3,-1.91 5.38,-4.31 7.13,-7.22 1.74,-2.9 2.61,-6.25 2.61,-10.05 0,-4.76 -1.34,-9.47 -4.04,-14.11 -2.7,-4.65 -5.99,-8.35 -9.9,-11.09 -6.76,-4.65 -15.11,-6.97 -25.04,-6.97 -6.87,0 -13.15,1.58 -18.85,4.74 -5.71,3.18 -8.56,7.88 -8.56,14.11 0,3.49 1.03,6.53 3.08,9.11 2.07,2.59 4.84,3.88 8.33,3.88 2.01,0 3.73,-0.63 5.15,-1.89 1.43,-1.28 2.14,-2.91 2.14,-4.92 0,-2.96 -1.08,-5.54 -3.26,-7.76 -2.16,-2.22 -4.72,-3.33 -7.68,-3.33 h -0.94" /><path
         id="path172"
         style="fill:#000000;fill-opacity:1;fill-rule:nonzero;stroke:none"
         d="m 3154.71,5098.54 c 3.38,-5.91 10.31,-8.87 20.76,-8.87 4.55,0 8.85,0.79 12.91,2.37 4.07,1.59 7.42,3.91 10.06,6.98 2.65,3.06 3.97,6.76 3.97,11.09 0,3.37 -1.19,6.12 -3.56,8.24 -2.38,2.11 -5.26,3.53 -8.64,4.28 l -10.46,2.06 c -4.75,1.26 -8.68,3.51 -11.8,6.73 -3.12,3.22 -4.68,7.15 -4.68,11.8 0,5.71 1.56,10.75 4.68,15.14 3.12,4.38 7.21,7.73 12.28,10.05 5.07,2.33 10.35,3.49 15.84,3.49 5.81,0 11.01,-1.37 15.61,-4.11 4.59,-2.75 6.89,-6.87 6.89,-12.37 0,-2.95 -0.82,-5.56 -2.45,-7.83 -1.64,-2.28 -3.94,-3.41 -6.9,-3.41 -1.69,0 -3.14,0.55 -4.36,1.66 -1.21,1.11 -1.81,2.51 -1.81,4.2 0,1.48 0.42,2.93 1.26,4.35 0.85,1.43 1.98,2.56 3.41,3.41 1.42,0.84 2.87,1.26 4.35,1.26 -1.16,2.76 -3.3,4.76 -6.42,6.03 -3.11,1.27 -6.41,1.9 -9.9,1.9 -3.27,0 -6.55,-0.66 -9.82,-1.98 -3.27,-1.32 -5.89,-3.25 -7.84,-5.78 -1.95,-2.54 -2.93,-5.55 -2.93,-9.04 0,-2.32 0.79,-4.35 2.37,-6.09 1.58,-1.75 3.59,-2.99 6.02,-3.72 l 11.25,-2.23 c 3.49,-0.84 6.74,-2.21 9.75,-4.11 3,-1.91 5.38,-4.31 7.13,-7.22 1.74,-2.9 2.61,-6.25 2.61,-10.05 0,-4.76 -1.34,-9.47 -4.03,-14.11 -2.7,-4.65 -6,-8.35 -9.91,-11.09 -6.76,-4.65 -15.11,-6.97 -25.04,-6.97 -6.86,0 -13.15,1.58 -18.85,4.74 -5.71,3.18 -8.56,7.88 -8.56,14.11 0,3.49 1.03,6.53 3.09,9.11 2.06,2.59 4.83,3.88 8.32,3.88 2.01,0 3.73,-0.63 5.15,-1.89 1.43,-1.28 2.14,-2.91 2.14,-4.92 0,-2.96 -1.08,-5.54 -3.24,-7.76 -2.18,-2.22 -4.74,-3.33 -7.69,-3.33 h -0.96" /><path
         id="path174"
         style="fill:#000000;fill-opacity:1;fill-rule:nonzero;stroke:none"
         d="m 3335.61,5163.76 c -1.48,0 -2.72,0.55 -3.72,1.66 -1.01,1.11 -1.51,2.35 -1.51,3.72 0,1.49 0.5,2.78 1.51,3.89 1,1.11 2.24,1.66 3.72,1.66 h 171.91 c 1.37,0 2.54,-0.55 3.49,-1.66 0.95,-1.11 1.43,-2.4 1.43,-3.89 0,-1.37 -0.48,-2.61 -1.43,-3.72 -0.95,-1.11 -2.12,-1.66 -3.49,-1.66 z m 0,53.08 c -1.48,0 -2.72,0.55 -3.72,1.66 -1.01,1.11 -1.51,2.4 -1.51,3.88 0,1.37 0.5,2.64 1.51,3.81 1,1.16 2.24,1.74 3.72,1.74 h 171.91 c 1.37,0 2.54,-0.58 3.49,-1.74 0.95,-1.17 1.43,-2.44 1.43,-3.81 0,-1.48 -0.48,-2.77 -1.43,-3.88 -0.95,-1.11 -2.12,-1.66 -3.49,-1.66 h -171.91" /><path
         id="path176"
         style="fill:#000000;fill-opacity:1;fill-rule:nonzero;stroke:none"
         d="m 3613.64,5127.31 v 7.3 c 0,0.52 0.16,1.05 0.47,1.58 l 42.62,47.06 c 6.45,6.97 11.65,12.8 15.61,17.5 3.96,4.71 7.93,10.12 11.89,16.25 3.96,6.13 7.07,12.38 9.35,18.77 2.26,6.39 3.39,13.18 3.39,20.36 0,7.4 -1.4,14.53 -4.19,21.4 -2.8,6.86 -6.92,12.33 -12.35,16.4 -5.45,4.06 -12.07,6.09 -19.89,6.09 -7.93,0 -15.06,-2.38 -21.4,-7.13 -6.33,-4.75 -10.77,-10.93 -13.3,-18.53 0.73,0.2 1.68,0.31 2.85,0.31 4.11,0 7.63,-1.37 10.53,-4.12 2.91,-2.74 4.36,-6.33 4.36,-10.77 0,-4.12 -1.45,-7.64 -4.36,-10.53 -2.9,-2.91 -6.42,-4.36 -10.53,-4.36 -4.23,0 -7.8,1.47 -10.7,4.43 -2.9,2.96 -4.35,6.45 -4.35,10.46 0,6.86 1.29,13.31 3.88,19.33 2.59,6.02 6.3,11.38 11.17,16.09 4.86,4.69 10.35,8.28 16.47,10.76 6.13,2.49 12.63,3.72 19.5,3.72 10.35,0 20.04,-2.21 29.07,-6.65 9.03,-4.43 16.16,-10.67 21.4,-18.7 5.22,-8.02 7.83,-17.42 7.83,-28.2 0,-8.02 -1.74,-15.6 -5.23,-22.74 -3.48,-7.13 -7.91,-13.6 -13.3,-19.41 -5.39,-5.8 -12.34,-12.4 -20.84,-19.8 -8.51,-7.39 -14.08,-12.36 -16.71,-14.89 l -31.06,-29.79 h 26.3 c 12.99,0 23.82,0.11 32.48,0.32 8.66,0.2 13.26,0.57 13.78,1.1 2.23,2.22 4.45,10.62 6.67,25.2 h 7.91 l -7.76,-48.81 h -101.56" /><path
         id="path178"
         style="fill:#000000;fill-opacity:1;fill-rule:nonzero;stroke:none"
         d="m 3752.76,5058.86 c -1.59,0 -2.38,0.79 -2.38,2.37 0,0.85 0.16,1.43 0.47,1.75 31.27,30.53 46.9,74.79 46.9,132.78 0,57.99 -15.42,102.04 -46.26,132.15 -0.74,0.52 -1.11,1.32 -1.11,2.38 0,0.63 0.23,1.18 0.71,1.66 0.48,0.48 1.04,0.71 1.67,0.71 h 2.53 c 0.53,0 1,-0.16 1.42,-0.47 13.11,-10.35 24.01,-22.92 32.73,-37.72 8.71,-14.78 15.1,-30.57 19.17,-47.36 4.07,-16.81 6.1,-33.92 6.1,-51.35 0,-12.88 -1.08,-25.58 -3.25,-38.11 -2.17,-12.51 -5.66,-24.87 -10.46,-37.07 -4.81,-12.2 -10.86,-23.45 -18.14,-33.75 -7.29,-10.3 -16,-19.47 -26.15,-27.49 -0.42,-0.32 -0.89,-0.48 -1.42,-0.48 h -2.53" /><path
         id="path180"
         style="fill:none;stroke:#edb120;stroke-width:29.99650002;stroke-linecap:butt;stroke-linejoin:round;stroke-miterlimit:10;stroke-dasharray:none;stroke-opacity:1"
         d="m 1642.79,5192.12 h 299.87" /><path
         id="path182"
         style="fill:#000000;fill-opacity:1;fill-rule:nonzero;stroke:none"
         d="m 1982.11,4797.75 v 9.66 c 18.8,0 28.21,2.91 28.21,8.72 v 150.37 c 0,5.8 -9.41,8.71 -28.21,8.71 v 9.51 h 97.45 c 10.03,0 20.04,-2.03 30.03,-6.1 9.98,-4.07 18.2,-10.04 24.64,-17.91 6.44,-7.87 9.66,-16.98 9.66,-27.33 0,-10.25 -3.25,-19.2 -9.75,-26.85 -6.49,-7.66 -14.68,-13.48 -24.55,-17.44 -9.88,-3.96 -19.89,-5.94 -30.03,-5.94 h -43.73 v -67.02 c 0,-5.81 9.4,-8.72 28.2,-8.72 v -9.66 z m 52.92,93.64 h 37.08 c 10.14,0 18.33,1.42 24.57,4.27 6.22,2.86 10.79,7.35 13.7,13.47 2.9,6.14 4.35,14.22 4.35,24.25 0,14.79 -3.27,25.46 -9.82,32 -6.55,6.55 -17.48,9.83 -32.8,9.83 h -23.29 c -3.28,0 -5.81,-0.13 -7.61,-0.39 -1.79,-0.27 -3.27,-1.06 -4.44,-2.38 -1.16,-1.32 -1.74,-3.3 -1.74,-5.94 v -75.11" /><path
         id="path184"
         style="fill:#000000;fill-opacity:1;fill-rule:nonzero;stroke:none"
         d="m 2166.5,4797.75 v 9.66 c 18.8,0 28.2,5.39 28.2,16.16 v 142.93 c 0,5.8 -9.4,8.71 -28.2,8.71 v 9.51 h 51.65 c 2.22,0 3.7,-1 4.43,-3.01 l 59.58,-154.97 59.74,154.97 c 0.74,2.01 2.21,3.01 4.43,3.01 h 51.66 v -9.51 c -18.8,0 -28.2,-2.91 -28.2,-8.71 v -150.37 c 0,-5.81 9.4,-8.72 28.2,-8.72 v -9.66 h -79.7 v 9.66 c 18.8,0 28.2,2.91 28.2,8.72 v 159.24 l -67.34,-174.61 c -0.85,-2.01 -2.38,-3.01 -4.6,-3.01 -2.32,0 -3.85,1 -4.59,3.01 l -66.54,172.55 v -149.74 c 0,-10.77 9.4,-16.16 28.2,-16.16 v -9.66 h -65.12" /><path
         id="path186"
         style="fill:#000000;fill-opacity:1;fill-rule:nonzero;stroke:none"
         d="m 2412.72,4797.75 v 9.66 c 18.81,0 28.21,2.91 28.21,8.72 v 150.37 c 0,5.8 -9.4,8.71 -28.21,8.71 v 9.51 h 81.92 v -9.51 c -18.8,0 -28.2,-2.91 -28.2,-8.71 v -66.55 h 80.81 v 66.55 c 0,5.8 -9.4,8.71 -28.2,8.71 v 9.51 h 81.75 v -9.51 c -18.69,0 -28.03,-2.91 -28.03,-8.71 v -150.37 c 0,-5.81 9.34,-8.72 28.03,-8.72 v -9.66 h -81.75 v 9.66 c 18.8,0 28.2,2.91 28.2,8.72 v 74.15 h -80.81 v -74.15 c 0,-5.81 9.4,-8.72 28.2,-8.72 v -9.66 h -81.92" /><path
         id="path188"
         style="fill:#000000;fill-opacity:1;fill-rule:nonzero;stroke:none"
         d="m 2615.23,4797.75 v 9.66 c 18.8,0 28.2,2.91 28.2,8.72 v 150.37 c 0,5.8 -9.4,8.71 -28.2,8.71 v 9.51 h 154.81 l 7.6,-62.59 h -7.77 c -2.01,15.74 -4.78,27.18 -8.32,34.31 -3.53,7.13 -9.16,12.04 -16.87,14.74 -7.71,2.68 -19.33,4.03 -34.86,4.03 h -26.94 c -3.27,0 -5.83,-0.13 -7.68,-0.39 -1.85,-0.27 -3.35,-1.06 -4.52,-2.38 -1.16,-1.32 -1.74,-3.3 -1.74,-5.94 v -66.87 h 20.28 c 9.3,0 16.22,0.77 20.76,2.3 4.54,1.53 7.68,4.51 9.42,8.95 1.74,4.44 2.62,11.36 2.62,20.76 h 8.08 v -73.53 h -8.08 c 0,9.2 -0.88,16.04 -2.62,20.53 -1.74,4.49 -4.88,7.5 -9.42,9.02 -4.54,1.54 -11.46,2.3 -20.76,2.3 h -20.28 v -73.83 c 0,-4.01 1.14,-6.47 3.41,-7.37 2.27,-0.9 5.78,-1.35 10.53,-1.35 h 29 c 12.67,0 22.92,1 30.75,3.01 7.81,2.01 13.88,5.34 18.21,9.98 4.33,4.65 7.66,10.7 9.98,18.15 2.33,7.45 4.55,17.77 6.66,30.97 h 7.77 l -11.41,-71.77 h -158.61" /><path
         id="path190"
         style="fill:#000000;fill-opacity:1;fill-rule:nonzero;stroke:none"
         d="m 2815.93,4797.75 v 9.66 c 22.82,0 34.23,2.91 34.23,8.72 v 143.71 c -9.41,-4.54 -21.34,-6.81 -35.81,-6.81 v 9.51 c 22.39,0 39.29,5.85 50.7,17.58 h 3.81 c 0.62,0 1.23,-0.24 1.81,-0.71 0.58,-0.48 0.87,-1.03 0.87,-1.66 v -161.62 c 0,-5.81 11.41,-8.72 34.23,-8.72 v -9.66 h -89.84" /><path
         id="path192"
         style="fill:#000000;fill-opacity:1;fill-rule:nonzero;stroke:none"
         d="m 3100.5,4729.77 c -10.14,8.03 -18.9,17.25 -26.29,27.66 -7.4,10.4 -13.42,21.49 -18.07,33.27 -4.65,11.78 -8.13,24.08 -10.46,36.91 -2.32,12.84 -3.49,25.7 -3.49,38.59 0,13.1 1.17,26.07 3.49,38.9 2.33,12.83 5.87,25.16 10.62,36.99 4.75,11.83 10.83,22.93 18.22,33.28 7.4,10.35 16.06,19.43 25.98,27.25 0,0.32 0.43,0.48 1.27,0.48 h 2.53 c 0.53,0 1.04,-0.24 1.52,-0.71 0.47,-0.48 0.71,-1.04 0.71,-1.67 0,-0.84 -0.21,-1.42 -0.63,-1.74 -8.88,-8.77 -16.27,-18.14 -22.19,-28.13 -5.92,-9.98 -10.69,-20.59 -14.34,-31.84 -3.64,-11.25 -6.26,-22.92 -7.84,-35.02 -1.59,-12.1 -2.38,-24.69 -2.38,-37.79 0,-58 15.53,-102.04 46.58,-132.15 0.53,-0.63 0.8,-1.43 0.8,-2.38 0,-0.42 -0.27,-0.92 -0.8,-1.5 -0.52,-0.58 -1,-0.87 -1.43,-0.87 h -2.53 c -0.84,0 -1.27,0.15 -1.27,0.47" /><path
         id="path194"
         style="fill:#000000;fill-opacity:1;fill-rule:nonzero;stroke:none"
         d="m 3169.38,4794.73 -12.68,174.46 c -0.63,2.64 -2.64,4.31 -6.02,5 -3.38,0.68 -7.55,1.02 -12.52,1.02 -1.79,0 -2.69,1.16 -2.69,3.49 0.63,2.32 1.11,3.91 1.43,4.75 0.31,0.85 1.32,1.27 3.01,1.27 h 65.28 c 1.79,0 2.69,-1.16 2.69,-3.49 -0.73,-4.01 -1.9,-6.02 -3.49,-6.02 -14.57,0 -22.34,-2.53 -23.29,-7.6 l 9.83,-138.34 68.45,119.32 -1.43,20.6 c -0.63,2.64 -2.63,4.31 -6.02,5 -3.38,0.68 -7.55,1.02 -12.52,1.02 -1.9,0 -2.85,1.16 -2.85,3.49 0.64,2.32 1.14,3.91 1.5,4.75 0.37,0.85 1.46,1.27 3.26,1.27 h 65.27 c 1.8,0 2.7,-1.16 2.7,-3.49 -0.11,-0.52 -0.29,-1.32 -0.56,-2.38 -0.26,-1.05 -0.63,-1.92 -1.1,-2.6 -0.48,-0.7 -1.15,-1.04 -1.99,-1.04 -14.68,0 -22.44,-2.53 -23.28,-7.6 v -2.06 l 9.82,-136.28 74.47,129.94 c 1.05,2 1.58,3.96 1.58,5.86 0,3.7 -1.82,6.31 -5.46,7.85 -3.65,1.53 -7.74,2.29 -12.29,2.29 -1.79,0 -2.68,1.16 -2.68,3.49 0.41,1.48 0.73,2.62 0.94,3.41 0.22,0.79 0.62,1.42 1.2,1.89 0.58,0.48 1.45,0.72 2.6,0.72 h 52.3 c 1.79,0 2.69,-1.16 2.69,-3.49 -0.1,-0.52 -0.29,-1.34 -0.55,-2.45 -0.27,-1.11 -0.64,-1.98 -1.12,-2.62 -0.47,-0.63 -1.07,-0.95 -1.81,-0.95 -13,0 -22.93,-5.97 -29.8,-17.91 -0.52,-0.53 -0.79,-0.79 -0.79,-0.79 l -92.69,-161.78 c -0.95,-2 -2.53,-3.01 -4.75,-3.01 h -2.07 c -2.22,0 -3.32,1.01 -3.32,3.01 l -10.46,141.02 -80.49,-141.02 c -1.37,-2 -2.96,-3.01 -4.75,-3.01 h -2.38 c -2.11,0 -3.17,1.01 -3.17,3.01" /><path
         id="path196"
         style="fill:#000000;fill-opacity:1;fill-rule:nonzero;stroke:none"
         d="m 3381.91,4757.24 v 6.82 c 13.31,0 19.97,2.01 19.97,6.02 v 105.85 c 0,4.12 -6.66,6.18 -19.97,6.18 v 6.81 h 68.61 c 7.08,0 14.13,-1.45 21.16,-4.36 7.02,-2.91 12.8,-7.1 17.35,-12.6 4.54,-5.49 6.81,-11.93 6.81,-19.32 0,-7.19 -2.3,-13.48 -6.89,-18.86 -4.6,-5.39 -10.38,-9.49 -17.36,-12.28 -6.96,-2.8 -13.99,-4.2 -21.07,-4.2 h -30.89 v -47.22 c 0,-4.01 6.65,-6.02 19.96,-6.02 v -6.82 z m 37.24,65.92 h 26.14 c 7.08,0 12.81,1 17.2,3.01 4.38,2.01 7.6,5.18 9.66,9.51 2.06,4.33 3.08,9.98 3.08,16.96 0,10.46 -2.29,17.98 -6.88,22.57 -4.6,4.6 -12.28,6.9 -23.06,6.9 h -16.32 c -2.32,0 -4.15,-0.11 -5.46,-0.32 -1.32,-0.21 -2.38,-0.77 -3.18,-1.66 -0.79,-0.9 -1.18,-2.3 -1.18,-4.2 v -52.77" /><path
         id="path198"
         style="fill:#000000;fill-opacity:1;fill-rule:nonzero;stroke:none"
         d="m 3511.01,4757.24 v 6.82 c 13.2,0 19.81,3.8 19.81,11.4 v 100.47 c 0,4.12 -6.61,6.18 -19.81,6.18 v 6.81 h 36.45 c 1.48,0 2.48,-0.74 3.01,-2.22 l 41.98,-109.01 42,109.01 c 0.52,1.48 1.53,2.22 3.01,2.22 h 36.44 v -6.81 c -13.2,0 -19.81,-2.06 -19.81,-6.18 v -105.85 c 0,-4.01 6.61,-6.02 19.81,-6.02 v -6.82 h -56.1 v 6.82 c 13.32,0 19.97,2.01 19.97,6.02 v 112.19 l -47.53,-122.81 c -0.53,-1.48 -1.59,-2.22 -3.17,-2.22 -1.58,0 -2.69,0.74 -3.33,2.22 L 3537,4880.84 v -105.38 c 0,-7.6 6.61,-11.4 19.81,-11.4 v -6.82 h -45.8" /><path
         id="path200"
         style="fill:#000000;fill-opacity:1;fill-rule:nonzero;stroke:none"
         d="m 3683.32,4757.24 v 6.82 c 13.3,0 19.95,2.01 19.95,6.02 v 105.85 c 0,4.12 -6.65,6.18 -19.95,6.18 v 6.81 h 57.66 v -6.81 c -13.2,0 -19.8,-2.06 -19.8,-6.18 v -46.75 h 56.88 v 46.75 c 0,4.12 -6.65,6.18 -19.96,6.18 v 6.81 h 57.67 v -6.81 c -13.2,0 -19.8,-2.06 -19.8,-6.18 v -105.85 c 0,-4.01 6.6,-6.02 19.8,-6.02 v -6.82 h -57.67 v 6.82 c 13.31,0 19.96,2.01 19.96,6.02 v 52.29 h -56.88 v -52.29 c 0,-4.01 6.6,-6.02 19.8,-6.02 v -6.82 h -57.66" /><path
         id="path202"
         style="fill:#000000;fill-opacity:1;fill-rule:nonzero;stroke:none"
         d="m 3825.06,4757.24 v 6.82 c 13.32,0 19.97,2.01 19.97,6.02 v 105.85 c 0,4.12 -6.65,6.18 -19.97,6.18 v 6.81 h 109.02 l 5.38,-44.21 h -5.55 c -1.37,11.09 -3.3,19.15 -5.78,24.17 -2.48,5.01 -6.44,8.47 -11.88,10.38 -5.45,1.9 -13.66,2.85 -24.64,2.85 h -18.86 c -2.32,0 -4.12,-0.11 -5.38,-0.32 -1.27,-0.21 -2.33,-0.77 -3.17,-1.66 -0.85,-0.9 -1.27,-2.3 -1.27,-4.2 v -47.06 h 14.26 c 6.55,0 11.44,0.55 14.66,1.66 3.22,1.11 5.44,3.22 6.65,6.34 1.22,3.11 1.83,7.95 1.83,14.5 h 5.55 v -51.66 h -5.55 c 0,6.56 -0.61,11.39 -1.83,14.5 -1.21,3.12 -3.43,5.24 -6.65,6.34 -3.22,1.11 -8.11,1.66 -14.66,1.66 h -14.26 v -52.13 c 0,-2.74 0.79,-4.43 2.38,-5.07 1.58,-0.63 4.07,-0.95 7.44,-0.95 h 20.45 c 8.87,0 16.05,0.69 21.55,2.06 5.49,1.38 9.76,3.73 12.82,7.06 3.07,3.32 5.42,7.6 7.06,12.82 1.64,5.23 3.19,12.5 4.67,21.8 h 5.55 l -8.09,-50.56 h -111.7" /><path
         id="path204"
         style="fill:#000000;fill-opacity:1;fill-rule:nonzero;stroke:none"
         d="m 3965.73,4757.24 v 6.82 c 16.05,0 24.08,2.01 24.08,6.02 v 101.25 c -6.65,-3.28 -15.05,-4.91 -25.19,-4.91 v 6.81 c 15.74,0 27.62,4.13 35.65,12.36 h 2.69 c 0.43,0 0.85,-0.18 1.27,-0.55 0.43,-0.37 0.64,-0.77 0.64,-1.19 v -113.77 c 0,-4.01 8.03,-6.02 24.08,-6.02 v -6.82 h -63.22" /><path
         id="path206"
         style="fill:#000000;fill-opacity:1;fill-rule:nonzero;stroke:none"
         d="m 4151.43,4834.19 c -1.48,0 -2.73,0.56 -3.74,1.67 -1,1.1 -1.5,2.34 -1.5,3.72 0,1.48 0.5,2.77 1.5,3.88 1.01,1.11 2.26,1.67 3.74,1.67 h 171.91 c 1.37,0 2.54,-0.56 3.48,-1.67 0.95,-1.11 1.43,-2.4 1.43,-3.88 0,-1.38 -0.48,-2.62 -1.43,-3.72 -0.94,-1.11 -2.11,-1.67 -3.48,-1.67 z m 0,53.08 c -1.48,0 -2.73,0.55 -3.74,1.66 -1,1.11 -1.5,2.41 -1.5,3.89 0,1.37 0.5,2.64 1.5,3.8 1.01,1.16 2.26,1.74 3.74,1.74 h 171.91 c 1.37,0 2.54,-0.58 3.48,-1.74 0.95,-1.16 1.43,-2.43 1.43,-3.8 0,-1.48 -0.48,-2.78 -1.43,-3.89 -0.94,-1.11 -2.11,-1.66 -3.48,-1.66 h -171.91" /><path
         id="path208"
         style="fill:#000000;fill-opacity:1;fill-rule:nonzero;stroke:none"
         d="m 4429.45,4797.75 v 7.29 c 0,0.53 0.15,1.05 0.47,1.58 l 42.62,47.06 c 6.44,6.97 11.65,12.81 15.61,17.51 3.96,4.7 7.92,10.11 11.89,16.24 3.96,6.12 7.07,12.38 9.34,18.77 2.28,6.4 3.41,13.19 3.41,20.37 0,7.39 -1.4,14.52 -4.2,21.39 -2.8,6.86 -6.91,12.33 -12.36,16.4 -5.44,4.06 -12.07,6.09 -19.89,6.09 -7.92,0 -15.05,-2.37 -21.38,-7.13 -6.34,-4.75 -10.78,-10.93 -13.32,-18.53 0.75,0.21 1.7,0.31 2.85,0.31 4.13,0 7.64,-1.37 10.55,-4.12 2.9,-2.74 4.35,-6.33 4.35,-10.77 0,-4.12 -1.45,-7.63 -4.35,-10.53 -2.91,-2.91 -6.42,-4.36 -10.55,-4.36 -4.22,0 -7.78,1.48 -10.69,4.43 -2.9,2.96 -4.35,6.45 -4.35,10.46 0,6.87 1.29,13.31 3.88,19.33 2.59,6.02 6.31,11.38 11.16,16.09 4.87,4.69 10.36,8.28 16.48,10.76 6.14,2.49 12.63,3.73 19.49,3.73 10.36,0 20.06,-2.22 29.09,-6.66 9.02,-4.43 16.15,-10.66 21.38,-18.69 5.23,-8.03 7.84,-17.43 7.84,-28.2 0,-8.03 -1.74,-15.61 -5.22,-22.74 -3.49,-7.13 -7.92,-13.6 -13.32,-19.41 -5.38,-5.81 -12.33,-12.41 -20.82,-19.81 -8.51,-7.39 -14.08,-12.36 -16.73,-14.89 l -31.05,-29.79 h 26.3 c 12.99,0 23.82,0.11 32.48,0.32 8.66,0.21 13.26,0.58 13.79,1.11 2.22,2.21 4.44,10.61 6.65,25.19 h 7.92 l -7.75,-48.8 h -101.57" /><path
         id="path210"
         style="fill:#000000;fill-opacity:1;fill-rule:nonzero;stroke:none"
         d="m 4568.57,4729.3 c -1.59,0 -2.39,0.79 -2.39,2.37 0,0.84 0.16,1.42 0.48,1.74 31.27,30.53 46.9,74.79 46.9,132.79 0,57.99 -15.42,102.04 -46.26,132.14 -0.75,0.53 -1.12,1.32 -1.12,2.38 0,0.63 0.24,1.19 0.72,1.67 0.48,0.47 1.03,0.71 1.67,0.71 h 2.53 c 0.53,0 1.01,-0.16 1.43,-0.48 13.1,-10.35 24,-22.92 32.72,-37.71 8.71,-14.79 15.1,-30.58 19.17,-47.37 4.06,-16.8 6.1,-33.91 6.1,-51.34 0,-12.89 -1.09,-25.59 -3.25,-38.11 -2.16,-12.52 -5.65,-24.88 -10.45,-37.08 -4.81,-12.2 -10.86,-23.45 -18.14,-33.74 -7.29,-10.31 -16.01,-19.47 -26.15,-27.5 -0.42,-0.32 -0.9,-0.47 -1.43,-0.47 h -2.53" /><path
         id="path212"
         style="fill:none;stroke:#7e2f8e;stroke-width:29.99650002;stroke-linecap:butt;stroke-linejoin:round;stroke-miterlimit:10;stroke-dasharray:none;stroke-opacity:1"
         d="m 1642.79,4862.55 h 299.87" /><path
         id="path214"
         style="fill:#000000;fill-opacity:1;fill-rule:nonzero;stroke:none"
         d="m 1982.11,4468.18 v 9.66 c 18.8,0 28.21,2.91 28.21,8.73 v 150.36 c 0,5.81 -9.41,8.71 -28.21,8.71 v 9.52 h 97.45 c 10.03,0 20.04,-2.04 30.03,-6.11 9.98,-4.07 18.2,-10.04 24.64,-17.91 6.44,-7.87 9.66,-16.98 9.66,-27.33 0,-10.25 -3.25,-19.2 -9.75,-26.85 -6.49,-7.66 -14.68,-13.47 -24.55,-17.43 -9.88,-3.96 -19.89,-5.94 -30.03,-5.94 h -43.73 v -67.02 c 0,-5.82 9.4,-8.73 28.2,-8.73 v -9.66 z m 52.92,93.64 h 37.08 c 10.14,0 18.33,1.43 24.57,4.28 6.22,2.85 10.79,7.34 13.7,13.47 2.9,6.13 4.35,14.21 4.35,24.24 0,14.8 -3.27,25.46 -9.82,32.01 -6.55,6.55 -17.48,9.82 -32.8,9.82 h -23.29 c -3.28,0 -5.81,-0.13 -7.61,-0.39 -1.79,-0.27 -3.27,-1.05 -4.44,-2.37 -1.16,-1.33 -1.74,-3.31 -1.74,-5.95 v -75.11" /><path
         id="path216"
         style="fill:#000000;fill-opacity:1;fill-rule:nonzero;stroke:none"
         d="m 2166.5,4468.18 v 9.66 c 18.8,0 28.2,5.39 28.2,16.17 v 142.92 c 0,5.81 -9.4,8.71 -28.2,8.71 v 9.52 h 51.65 c 2.22,0 3.7,-1.01 4.43,-3.02 l 59.58,-154.97 59.74,154.97 c 0.74,2.01 2.21,3.02 4.43,3.02 h 51.66 v -9.52 c -18.8,0 -28.2,-2.9 -28.2,-8.71 v -150.36 c 0,-5.82 9.4,-8.73 28.2,-8.73 v -9.66 h -79.7 v 9.66 c 18.8,0 28.2,2.91 28.2,8.73 v 159.23 l -67.34,-174.61 c -0.85,-2.01 -2.38,-3.01 -4.6,-3.01 -2.32,0 -3.85,1 -4.59,3.01 l -66.54,172.56 v -149.74 c 0,-10.78 9.4,-16.17 28.2,-16.17 v -9.66 h -65.12" /><path
         id="path218"
         style="fill:#000000;fill-opacity:1;fill-rule:nonzero;stroke:none"
         d="m 2412.72,4468.18 v 9.66 c 18.81,0 28.21,2.91 28.21,8.73 v 150.36 c 0,5.81 -9.4,8.71 -28.21,8.71 v 9.52 h 81.92 v -9.52 c -18.8,0 -28.2,-2.9 -28.2,-8.71 v -66.55 h 80.81 v 66.55 c 0,5.81 -9.4,8.71 -28.2,8.71 v 9.52 h 81.75 v -9.52 c -18.69,0 -28.03,-2.9 -28.03,-8.71 v -150.36 c 0,-5.82 9.34,-8.73 28.03,-8.73 v -9.66 h -81.75 v 9.66 c 18.8,0 28.2,2.91 28.2,8.73 v 74.14 h -80.81 v -74.14 c 0,-5.82 9.4,-8.73 28.2,-8.73 v -9.66 h -81.92" /><path
         id="path220"
         style="fill:#000000;fill-opacity:1;fill-rule:nonzero;stroke:none"
         d="m 2615.23,4468.18 v 9.66 c 18.8,0 28.2,2.91 28.2,8.73 v 150.36 c 0,5.81 -9.4,8.71 -28.2,8.71 v 9.52 h 154.81 l 7.6,-62.59 h -7.77 c -2.01,15.73 -4.78,27.17 -8.32,34.3 -3.53,7.13 -9.16,12.04 -16.87,14.74 -7.71,2.69 -19.33,4.03 -34.86,4.03 h -26.94 c -3.27,0 -5.83,-0.13 -7.68,-0.39 -1.85,-0.27 -3.35,-1.05 -4.52,-2.37 -1.16,-1.33 -1.74,-3.31 -1.74,-5.95 v -66.87 h 20.28 c 9.3,0 16.22,0.77 20.76,2.31 4.54,1.52 7.68,4.51 9.42,8.94 1.74,4.44 2.62,11.36 2.62,20.76 h 8.08 v -73.52 h -8.08 c 0,9.19 -0.88,16.03 -2.62,20.52 -1.74,4.49 -4.88,7.5 -9.42,9.03 -4.54,1.53 -11.46,2.3 -20.76,2.3 h -20.28 v -73.83 c 0,-4.02 1.14,-6.48 3.41,-7.38 2.27,-0.9 5.78,-1.35 10.53,-1.35 h 29 c 12.67,0 22.92,1.01 30.75,3.02 7.81,2 13.88,5.33 18.21,9.98 4.33,4.64 7.66,10.7 9.98,18.14 2.33,7.45 4.55,17.77 6.66,30.98 h 7.77 l -11.41,-71.78 h -158.61" /><path
         id="path222"
         style="fill:#000000;fill-opacity:1;fill-rule:nonzero;stroke:none"
         d="m 2815.93,4468.18 v 9.66 c 22.82,0 34.23,2.91 34.23,8.73 v 143.7 c -9.41,-4.54 -21.34,-6.81 -35.81,-6.81 v 9.51 c 22.39,0 39.29,5.86 50.7,17.58 h 3.81 c 0.62,0 1.23,-0.23 1.81,-0.71 0.58,-0.47 0.87,-1.03 0.87,-1.66 v -161.61 c 0,-5.82 11.41,-8.73 34.23,-8.73 v -9.66 h -89.84" /><path
         id="path224"
         style="fill:#000000;fill-opacity:1;fill-rule:nonzero;stroke:none"
         d="m 3100.5,4400.21 c -10.14,8.02 -18.9,17.24 -26.29,27.65 -7.4,10.41 -13.42,21.5 -18.07,33.27 -4.65,11.78 -8.13,24.08 -10.46,36.91 -2.32,12.84 -3.49,25.71 -3.49,38.59 0,13.1 1.17,26.07 3.49,38.9 2.33,12.83 5.87,25.16 10.62,36.99 4.75,11.84 10.83,22.93 18.22,33.28 7.4,10.36 16.06,19.44 25.98,27.25 0,0.32 0.43,0.48 1.27,0.48 h 2.53 c 0.53,0 1.04,-0.24 1.52,-0.71 0.47,-0.48 0.71,-1.03 0.71,-1.66 0,-0.85 -0.21,-1.43 -0.63,-1.75 -8.88,-8.77 -16.27,-18.14 -22.19,-28.13 -5.92,-9.98 -10.69,-20.59 -14.34,-31.84 -3.64,-11.25 -6.26,-22.92 -7.84,-35.01 -1.59,-12.1 -2.38,-24.7 -2.38,-37.8 0,-57.99 15.53,-102.04 46.58,-132.15 0.53,-0.63 0.8,-1.43 0.8,-2.38 0,-0.42 -0.27,-0.92 -0.8,-1.5 -0.52,-0.58 -1,-0.87 -1.43,-0.87 h -2.53 c -0.84,0 -1.27,0.16 -1.27,0.48" /><path
         id="path226"
         style="fill:#000000;fill-opacity:1;fill-rule:nonzero;stroke:none"
         d="m 3169.38,4465.17 -12.68,174.45 c -0.63,2.64 -2.64,4.31 -6.02,5 -3.38,0.68 -7.55,1.02 -12.52,1.02 -1.79,0 -2.69,1.16 -2.69,3.49 0.63,2.33 1.11,3.91 1.43,4.76 0.31,0.84 1.32,1.27 3.01,1.27 h 65.28 c 1.79,0 2.69,-1.17 2.69,-3.49 -0.73,-4.02 -1.9,-6.03 -3.49,-6.03 -14.57,0 -22.34,-2.53 -23.29,-7.6 l 9.83,-138.33 68.45,119.31 -1.43,20.6 c -0.63,2.64 -2.63,4.31 -6.02,5 -3.38,0.68 -7.55,1.02 -12.52,1.02 -1.9,0 -2.85,1.16 -2.85,3.49 0.64,2.33 1.14,3.91 1.5,4.76 0.37,0.84 1.46,1.27 3.26,1.27 h 65.27 c 1.8,0 2.7,-1.17 2.7,-3.49 -0.11,-0.53 -0.29,-1.33 -0.56,-2.38 -0.26,-1.06 -0.63,-1.93 -1.1,-2.61 -0.48,-0.69 -1.15,-1.04 -1.99,-1.04 -14.68,0 -22.44,-2.53 -23.28,-7.6 v -2.06 l 9.82,-136.27 74.47,129.93 c 1.05,2.01 1.58,3.96 1.58,5.86 0,3.7 -1.82,6.32 -5.46,7.85 -3.65,1.53 -7.74,2.29 -12.29,2.29 -1.79,0 -2.68,1.16 -2.68,3.49 0.41,1.48 0.73,2.62 0.94,3.41 0.22,0.79 0.62,1.42 1.2,1.9 0.58,0.47 1.45,0.72 2.6,0.72 h 52.3 c 1.79,0 2.69,-1.17 2.69,-3.49 -0.1,-0.53 -0.29,-1.35 -0.55,-2.46 -0.27,-1.1 -0.64,-1.98 -1.12,-2.61 -0.47,-0.64 -1.07,-0.96 -1.81,-0.96 -13,0 -22.93,-5.96 -29.8,-17.91 -0.52,-0.52 -0.79,-0.78 -0.79,-0.78 l -92.69,-161.78 c -0.95,-2.01 -2.53,-3.01 -4.75,-3.01 h -2.07 c -2.22,0 -3.32,1 -3.32,3.01 l -10.46,141.02 -80.49,-141.02 c -1.37,-2.01 -2.96,-3.01 -4.75,-3.01 h -2.38 c -2.11,0 -3.17,1 -3.17,3.01" /><path
         id="path228"
         style="fill:#000000;fill-opacity:1;fill-rule:nonzero;stroke:none"
         d="m 3381.91,4427.68 v 6.81 c 13.31,0 19.97,2.01 19.97,6.03 v 105.84 c 0,4.12 -6.66,6.18 -19.97,6.18 v 6.82 h 68.61 c 7.08,0 14.13,-1.46 21.16,-4.36 7.02,-2.91 12.8,-7.11 17.35,-12.6 4.54,-5.5 6.81,-11.94 6.81,-19.33 0,-7.18 -2.3,-13.47 -6.89,-18.86 -4.6,-5.39 -10.38,-9.48 -17.36,-12.28 -6.96,-2.8 -13.99,-4.2 -21.07,-4.2 h -30.89 v -47.21 c 0,-4.02 6.65,-6.03 19.96,-6.03 v -6.81 z m 37.24,65.91 h 26.14 c 7.08,0 12.81,1.01 17.2,3.02 4.38,2 7.6,5.17 9.66,9.51 2.06,4.32 3.08,9.97 3.08,16.95 0,10.46 -2.29,17.98 -6.88,22.57 -4.6,4.6 -12.28,6.9 -23.06,6.9 h -16.32 c -2.32,0 -4.15,-0.1 -5.46,-0.31 -1.32,-0.22 -2.38,-0.77 -3.18,-1.67 -0.79,-0.9 -1.18,-2.29 -1.18,-4.2 v -52.77" /><path
         id="path230"
         style="fill:#000000;fill-opacity:1;fill-rule:nonzero;stroke:none"
         d="m 3511.01,4427.68 v 6.81 c 13.2,0 19.81,3.8 19.81,11.41 v 100.46 c 0,4.12 -6.61,6.18 -19.81,6.18 v 6.82 h 36.45 c 1.48,0 2.48,-0.75 3.01,-2.23 l 41.98,-109.01 42,109.01 c 0.52,1.48 1.53,2.23 3.01,2.23 h 36.44 v -6.82 c -13.2,0 -19.81,-2.06 -19.81,-6.18 v -105.84 c 0,-4.02 6.61,-6.03 19.81,-6.03 v -6.81 h -56.1 v 6.81 c 13.32,0 19.97,2.01 19.97,6.03 v 112.18 l -47.53,-122.8 c -0.53,-1.48 -1.59,-2.22 -3.17,-2.22 -1.58,0 -2.69,0.74 -3.33,2.22 L 3537,4551.27 V 4445.9 c 0,-7.61 6.61,-11.41 19.81,-11.41 v -6.81 h -45.8" /><path
         id="path232"
         style="fill:#000000;fill-opacity:1;fill-rule:nonzero;stroke:none"
         d="m 3683.32,4427.68 v 6.81 c 13.3,0 19.95,2.01 19.95,6.03 v 105.84 c 0,4.12 -6.65,6.18 -19.95,6.18 v 6.82 h 57.66 v -6.82 c -13.2,0 -19.8,-2.06 -19.8,-6.18 v -46.74 h 56.88 v 46.74 c 0,4.12 -6.65,6.18 -19.96,6.18 v 6.82 h 57.67 v -6.82 c -13.2,0 -19.8,-2.06 -19.8,-6.18 v -105.84 c 0,-4.02 6.6,-6.03 19.8,-6.03 v -6.81 h -57.67 v 6.81 c 13.31,0 19.96,2.01 19.96,6.03 v 52.28 h -56.88 v -52.28 c 0,-4.02 6.6,-6.03 19.8,-6.03 v -6.81 h -57.66" /><path
         id="path234"
         style="fill:#000000;fill-opacity:1;fill-rule:nonzero;stroke:none"
         d="m 3825.06,4427.68 v 6.81 c 13.32,0 19.97,2.01 19.97,6.03 v 105.84 c 0,4.12 -6.65,6.18 -19.97,6.18 v 6.82 h 109.02 l 5.38,-44.22 h -5.55 c -1.37,11.09 -3.3,19.15 -5.78,24.17 -2.48,5.01 -6.44,8.48 -11.88,10.38 -5.45,1.9 -13.66,2.85 -24.64,2.85 h -18.86 c -2.32,0 -4.12,-0.1 -5.38,-0.31 -1.27,-0.22 -2.33,-0.77 -3.17,-1.67 -0.85,-0.9 -1.27,-2.29 -1.27,-4.2 v -47.06 h 14.26 c 6.55,0 11.44,0.56 14.66,1.66 3.22,1.11 5.44,3.23 6.65,6.34 1.22,3.12 1.83,7.95 1.83,14.5 h 5.55 v -51.65 h -5.55 c 0,6.55 -0.61,11.38 -1.83,14.5 -1.21,3.12 -3.43,5.23 -6.65,6.33 -3.22,1.11 -8.11,1.67 -14.66,1.67 h -14.26 v -52.13 c 0,-2.75 0.79,-4.44 2.38,-5.07 1.58,-0.64 4.07,-0.96 7.44,-0.96 h 20.45 c 8.87,0 16.05,0.69 21.55,2.06 5.49,1.38 9.76,3.73 12.82,7.06 3.07,3.32 5.42,7.6 7.06,12.83 1.64,5.23 3.19,12.49 4.67,21.79 h 5.55 l -8.09,-50.55 h -111.7" /><path
         id="path236"
         style="fill:#000000;fill-opacity:1;fill-rule:nonzero;stroke:none"
         d="m 3965.73,4427.68 v 6.81 c 16.05,0 24.08,2.01 24.08,6.03 v 101.24 c -6.65,-3.27 -15.05,-4.91 -25.19,-4.91 v 6.82 c 15.74,0 27.62,4.12 35.65,12.36 h 2.69 c 0.43,0 0.85,-0.19 1.27,-0.56 0.43,-0.37 0.64,-0.77 0.64,-1.18 v -113.77 c 0,-4.02 8.03,-6.03 24.08,-6.03 v -6.81 h -63.22" /><path
         id="path238"
         style="fill:#000000;fill-opacity:1;fill-rule:nonzero;stroke:none"
         d="m 4151.43,4504.63 c -1.48,0 -2.73,0.55 -3.74,1.66 -1,1.11 -1.5,2.35 -1.5,3.72 0,1.48 0.5,2.78 1.5,3.88 1.01,1.11 2.26,1.67 3.74,1.67 h 171.91 c 1.37,0 2.54,-0.56 3.48,-1.67 0.95,-1.1 1.43,-2.4 1.43,-3.88 0,-1.37 -0.48,-2.61 -1.43,-3.72 -0.94,-1.11 -2.11,-1.66 -3.48,-1.66 z m 0,53.07 c -1.48,0 -2.73,0.56 -3.74,1.67 -1,1.1 -1.5,2.4 -1.5,3.88 0,1.37 0.5,2.64 1.5,3.8 1.01,1.16 2.26,1.75 3.74,1.75 h 171.91 c 1.37,0 2.54,-0.59 3.48,-1.75 0.95,-1.16 1.43,-2.43 1.43,-3.8 0,-1.48 -0.48,-2.78 -1.43,-3.88 -0.94,-1.11 -2.11,-1.67 -3.48,-1.67 h -171.91" /><path
         id="path240"
         style="fill:#000000;fill-opacity:1;fill-rule:nonzero;stroke:none"
         d="m 4439.59,4499.39 c 1.89,-5.39 4.77,-10.27 8.64,-14.65 3.85,-4.39 8.44,-7.79 13.78,-10.22 5.33,-2.43 10.85,-3.64 16.56,-3.64 13.2,0 22.28,5.12 27.25,15.36 4.97,10.25 7.45,22.66 7.45,37.24 0,6.34 -0.11,11.67 -0.32,16 -0.22,4.33 -0.79,8.51 -1.74,12.52 -1.69,6.45 -4.67,12.07 -8.96,16.88 -4.27,4.8 -9.48,7.21 -15.6,7.21 -6.13,0 -11.42,-0.96 -15.85,-2.86 -4.44,-1.9 -8.03,-4.09 -10.77,-6.57 -2.75,-2.48 -5.18,-5.1 -7.29,-7.84 -2.12,-2.75 -3.44,-4.23 -3.97,-4.44 h -3.16 c -0.43,0 -0.98,0.29 -1.66,0.87 -0.69,0.58 -1.04,1.13 -1.04,1.66 v 91.43 c 0,0.53 0.29,1.03 0.88,1.5 0.57,0.48 1.18,0.71 1.82,0.71 h 0.79 c 12.36,-5.91 25.4,-8.87 39.14,-8.87 13.62,0 26.72,2.96 39.29,8.87 h 0.79 c 0.63,0 1.22,-0.23 1.74,-0.71 0.53,-0.47 0.8,-0.97 0.8,-1.5 v -2.54 c 0,-0.84 -0.21,-1.26 -0.63,-1.26 -6.24,-8.35 -14.06,-14.82 -23.46,-19.41 -9.4,-4.6 -19.11,-6.9 -29.16,-6.9 -7.28,0 -14.78,1.01 -22.49,3.02 v -51.66 c 6.13,4.86 11.57,8.34 16.32,10.45 4.75,2.12 10.83,3.17 18.22,3.17 10.04,0 19.04,-2.9 27.02,-8.71 7.98,-5.81 14.11,-13.36 18.38,-22.66 4.28,-9.29 6.41,-18.8 6.41,-28.52 0,-10.98 -2.69,-21.15 -8.08,-30.5 -5.38,-9.35 -12.7,-16.8 -21.94,-22.34 -9.25,-5.55 -19.3,-8.32 -30.18,-8.32 -8.98,0 -17.25,2.32 -24.8,6.97 -7.56,4.65 -13.5,10.88 -17.82,18.7 -4.34,7.82 -6.5,16.16 -6.5,25.03 0,4.12 1.34,7.48 4.04,10.07 2.69,2.58 6.05,3.87 10.06,3.87 4.01,0 7.36,-1.32 10.06,-3.95 2.69,-2.64 4.03,-5.97 4.03,-9.99 0,-3.91 -1.34,-7.23 -4.03,-9.98 -2.7,-2.74 -6.05,-4.11 -10.06,-4.11 -0.64,0 -1.35,0.07 -2.14,0.23 -0.79,0.16 -1.4,0.29 -1.82,0.39" /><path
         id="path242"
         style="fill:#000000;fill-opacity:1;fill-rule:nonzero;stroke:none"
         d="m 4568.57,4399.73 c -1.59,0 -2.39,0.79 -2.39,2.37 0,0.85 0.16,1.43 0.48,1.75 31.27,30.53 46.9,74.79 46.9,132.78 0,57.99 -15.42,102.04 -46.26,132.14 -0.75,0.53 -1.12,1.33 -1.12,2.39 0,0.63 0.24,1.18 0.72,1.66 0.48,0.47 1.03,0.71 1.67,0.71 h 2.53 c 0.53,0 1.01,-0.16 1.43,-0.48 13.1,-10.35 24,-22.92 32.72,-37.71 8.71,-14.79 15.1,-30.57 19.17,-47.37 4.06,-16.8 6.1,-33.91 6.1,-51.34 0,-12.88 -1.09,-25.59 -3.25,-38.11 -2.16,-12.51 -5.65,-24.87 -10.45,-37.07 -4.81,-12.21 -10.86,-23.46 -18.14,-33.75 -7.29,-10.31 -16.01,-19.47 -26.15,-27.49 -0.42,-0.32 -0.9,-0.48 -1.43,-0.48 h -2.53" /><path
         id="path244"
         style="fill:none;stroke:#77ac30;stroke-width:29.99650002;stroke-linecap:butt;stroke-linejoin:round;stroke-miterlimit:10;stroke-dasharray:none;stroke-opacity:1"
         d="m 1642.79,4532.99 h 299.87" /><path
         id="path246"
         style="fill:none;stroke:#262626;stroke-width:4.99941015;stroke-linecap:butt;stroke-linejoin:miter;stroke-miterlimit:10;stroke-dasharray:none;stroke-opacity:1"
         d="M 1602.25,4350.43 H 4695.2 V 6033.8 H 1602.25 Z" /></g></g></svg>