<svg xmlns="http://www.w3.org/2000/svg" xmlns:xlink="http://www.w3.org/1999/xlink" width="850pt" height="895pt" viewBox="0 0 850 895"><clipPath id="a"><path transform="matrix(1 0 0 -1 0 895)" d="M0 0h850v895H0z"/></clipPath><g clip-path="url(#a)"><path d="M0 894.625h850.375V0H0z" fill="#fff"/><symbol id="b"><path d="M.006.662H.57l.005-.17H.552C.541.545.526.58.507.596.49.612.451.62.394.62H.338V.108C.338.07.344.046.356.036.368.027.394.021.436.018V0H.143v.018c.042.003.068.01.079.021.01.01.015.038.015.081v.5H.183C.127.62.09.612.069.596.05.58.035.546.024.492H0l.006.17z"/></symbol><symbol id="c"><path d="M.25.278A.447.447 0 0 1 .157.237C.11.207.087.175.087.138c0-.03.01-.051.03-.065A.071.071 0 0 1 .158.059C.18.06.2.065.22.077.24.09.25.104.25.123v.155M0 .104c0 .048.024.087.07.119.03.02.09.046.18.08v.04a.171.171 0 0 1-.01.07C.23.435.206.446.171.446A.095.095 0 0 1 .124.433C.109.424.102.413.102.397l.002-.02A.135.135 0 0 0 .106.359C.106.341.1.33.088.321A.045.045 0 0 0 .064.315C.049.315.038.32.03.329A.05.05 0 0 0 .02.361c0 .023.014.047.042.072C.089.458.13.47.185.47.248.47.29.45.313.41A.212.212 0 0 0 .331.31V.115c0-.02.001-.032.004-.04C.339.064.348.058.361.058.37.057.375.057.38.06a.19.19 0 0 1 .025.017V.05A.159.159 0 0 0 .372.02.098.098 0 0 0 .316.001C.294.001.278.01.268.023A.098.098 0 0 0 .25.074.46.46 0 0 0 .188.026.166.166 0 0 0 .104 0 .102.102 0 0 0 0 .104M.186.47z"/></symbol><symbol id="d"><path d="M.002.014C.025.017.042.022.05.03.06.04.064.059.064.089v.247C.064.357.062.372.06.38.052.393.039.4.02.4A.093.093 0 0 1 0 .397v.017l.095.03L.14.46C.143.46.144.46.145.457V.378a.5.5 0 0 0 .07.058.147.147 0 0 0 .08.024.104.104 0 0 0 .06-.02C.391.417.408.373.408.31V.08C.408.057.413.04.422.03.432.02.448.014.47.014V0H.26v.014c.024.003.04.01.05.02.01.01.014.03.014.064v.209A.138.138 0 0 1 .31.376C.3.395.28.404.252.404a.107.107 0 0 1-.059-.02A.336.336 0 0 1 .15.347V.074C.15.05.156.034.166.026.176.02.193.014.216.014V0H.001v.014M.234.46z"/></symbol><symbol id="e"><path d="M0 .014C.031.016.052.02.062.029c.01.008.015.026.015.053v.49c0 .022-.004.037-.012.043a.053.053 0 0 1-.034.01A.23.23 0 0 1 0 .623v.013l.044.012a1.39 1.39 0 0 1 .11.032L.158.68V.263l.136.119.02.02c.003.006.005.01.005.015C.319.424.315.429.308.43a.215.215 0 0 1-.04.004V.45h.204V.435A.207.207 0 0 1 .384.413.889.889 0 0 1 .257.31L.228.282l.09-.117C.365.105.4.065.423.045A.134.134 0 0 1 .498.013V0H.28v.014h.017l.016.004c.004.002.006.005.006.01a.02.02 0 0 1-.002.01.072.072 0 0 1-.007.01l-.151.2V.067c0-.023.008-.038.025-.045a.135.135 0 0 1 .05-.007V0H0v.014z"/></symbol><symbol id="f"><path d="M0 0z"/></symbol><symbol id="g"><path d="M.034.092C.052.092.076.083.105.064A.15.15 0 0 1 .18.037c.046 0 .08.015.102.046a.17.17 0 0 1 .006.192C.258.319.207.342.135.342H.123L.109.34.108.353C.16.372.2.393.23.418c.03.024.045.057.045.097C.276.55.264.577.24.595A.132.132 0 0 1 .065.584.302.302 0 0 1 .017.519L0 .52C.014.571.04.61.074.64.11.67.151.684.197.684c.05 0 .088-.014.115-.04A.13.13 0 0 0 .32.46a.312.312 0 0 0-.06-.05.252.252 0 0 0 .076-.047.173.173 0 0 0 .053-.13.221.221 0 0 0-.073-.163C.267.024.198 0 .108 0 .068 0 .04.006.024.018.008.03 0 .042 0 .056c0 .009.003.017.008.025.005.007.014.011.026.011z"/></symbol><use xlink:href="#b" transform="matrix(28 0 0 -28 250.92 157.587)"/><use xlink:href="#c" transform="matrix(28 0 0 -28 266.758 157.792)"/><use xlink:href="#d" transform="matrix(28 0 0 -28 278.56 157.587)"/><use xlink:href="#e" transform="matrix(28 0 0 -28 292.164 157.587)"/><use xlink:href="#f" transform="matrix(28 0 0 -28 306.109 157.587)"/><use xlink:href="#g" transform="matrix(28 0 0 -28 314.326 157.792)"/><symbol id="h"><path d="M.185.67.187.668V.074c0-.025.007-.041.02-.048A.2.2 0 0 1 .283.014V0H.007v.015c.04.002.065.007.077.016.012.009.018.028.018.057V.54a.085.085 0 0 1-.006.036C.092.584.084.588.071.588A.104.104 0 0 1 .038.58.453.453 0 0 1 0 .566V.58l.18.09h.005z"/></symbol><use xlink:href="#b" transform="matrix(28 0 0 -28 250.92 495.822)"/><use xlink:href="#c" transform="matrix(28 0 0 -28 266.758 496.027)"/><use xlink:href="#d" transform="matrix(28 0 0 -28 278.56 495.822)"/><use xlink:href="#e" transform="matrix(28 0 0 -28 292.164 495.822)"/><use xlink:href="#f" transform="matrix(28 0 0 -28 306.109 495.822)"/><use xlink:href="#h" transform="matrix(28 0 0 -28 316.212 495.822)"/><symbol id="i"><path d="M0 .011c.12.124.2.215.243.273a.287.287 0 0 1 .064.17C.307.5.294.537.267.562a.129.129 0 0 1-.093.038.135.135 0 0 1-.108-.049A.283.283 0 0 1 .022.47L.001.474C.017.55.045.601.083.63c.04.03.081.044.126.044a.178.178 0 0 0 .185-.18A.255.255 0 0 0 .338.34a3.322 3.322 0 0 0-.24-.264h.225c.031 0 .053.004.066.011a.146.146 0 0 1 .043.055L.444.136.39 0H0v.011z"/></symbol><use xlink:href="#b" transform="matrix(28 0 0 -28 522.37 495.548)"/><use xlink:href="#c" transform="matrix(28 0 0 -28 538.209 495.753)"/><use xlink:href="#d" transform="matrix(28 0 0 -28 550.01 495.548)"/><use xlink:href="#e" transform="matrix(28 0 0 -28 563.614 495.548)"/><use xlink:href="#f" transform="matrix(28 0 0 -28 577.56 495.548)"/><use xlink:href="#i" transform="matrix(28 0 0 -28 585.393 495.548)"/><symbol id="j"><path d="M0 .014c.027.003.044.01.052.02.009.009.013.032.013.068V.57a.083.083 0 0 1-.007.04C.053.62.042.624.023.624A.217.217 0 0 1 .001.622v.017a4.295 4.295 0 0 0 .097.028l.047.015.001-.004v-.3A.32.32 0 0 0 .201.43c.028.02.06.03.092.03.053 0 .09-.023.108-.067A.23.23 0 0 0 .417.301V.1c0-.034.004-.056.012-.067.008-.01.024-.017.049-.02V0H.267v.014c.028.004.046.01.054.02s.012.032.012.068v.197a.159.159 0 0 1-.016.077c-.01.02-.03.03-.06.03A.12.12 0 0 1 .185.377C.16.36.148.348.148.342v-.24c0-.037.005-.06.013-.069C.17.024.188.018.215.013V0H0v.014z"/></symbol><use xlink:href="#j" transform="matrix(28 0 0 -28 381.59 583.562)"/><use xlink:href="#h" transform="matrix(18.66667 0 0 -18.66667 397.413 590.227)"/><symbol id="k"><path d="M.28.57.04.231h.24v.34m.032.1H.36V.23H.46V.167H.359V0H.28v.167H0V.23l.313.44z"/></symbol><use xlink:href="#b" transform="matrix(28 0 0 -28 520.843 157.888)"/><use xlink:href="#c" transform="matrix(28 0 0 -28 536.681 158.093)"/><use xlink:href="#d" transform="matrix(28 0 0 -28 548.483 157.888)"/><use xlink:href="#e" transform="matrix(28 0 0 -28 562.086 157.888)"/><use xlink:href="#f" transform="matrix(28 0 0 -28 576.032 157.888)"/><use xlink:href="#k" transform="matrix(28 0 0 -28 583.346 157.888)"/><symbol id="l"><path d="M.417.48c0 .061-.027.103-.08.126A.27.27 0 0 1 .23.625C.21.625.197.622.192.618.187.614.185.605.185.591v-.26A1.427 1.427 0 0 1 .236.327c.046 0 .082.007.109.02C.393.37.417.415.417.48M0 .018C.038.022.062.03.071.041c.01.011.014.038.014.08v.432C.085.588.08.611.07.623.06.632.036.64 0 .642v.019h.264c.084 0 .15-.017.194-.05a.154.154 0 0 0 .067-.13C.525.414.5.365.451.334A.352.352 0 0 0 .264.29 2.244 2.244 0 0 0 .185.29V.108c0-.037.006-.061.017-.07C.214.027.24.02.28.017V0H0v.018z"/></symbol><symbol id="m"><path d="M.146.461V.15c0-.022.003-.04.01-.053C.166.07.188.059.221.059c.022 0 .043.007.065.022a.19.19 0 0 1 .036.033v.268c0 .025-.005.041-.014.05C.299.438.279.443.25.444v.016h.158V.118C.408.096.412.08.419.072.428.064.444.06.47.06V.047A1.412 1.412 0 0 1 .333.002C.33.002.33.002.33.004a.02.02 0 0 0 0 .005v.079A.33.33 0 0 0 .268.029.15.15 0 0 0 .18 0 .126.126 0 0 0 .1.03C.075.05.062.083.062.13v.254C.063.41.058.427.046.436.039.442.023.446 0 .448V.46h.146m.096.006z"/></symbol><symbol id="n"><path d="M0 .013a.112.112 0 0 1 .05.012c.014.01.02.029.02.057v.252C.07.36.067.374.06.382.055.389.045.393.03.393H.013A.086.086 0 0 1 .002.388v.017l.035.011a1.76 1.76 0 0 1 .109.04c.001 0 .002 0 .002-.002V.379C.182.41.21.43.233.44a.164.164 0 0 0 .073.018.1.1 0 0 0 .08-.034.148.148 0 0 0 .026-.05.407.407 0 0 0 .063.054c.03.02.062.03.094.03.053 0 .088-.021.105-.064A.317.317 0 0 0 .688.28V.076C.688.053.694.037.704.03A.112.112 0 0 1 .759.013V0H.54v.014C.567.016.586.022.595.03.604.04.608.057.608.084v.21a.178.178 0 0 1-.01.07c-.012.027-.035.04-.07.04a.112.112 0 0 1-.064-.02.312.312 0 0 1-.044-.04v-.25c0-.026.004-.046.014-.06C.443.022.463.015.493.014V0H.269v.013c.03.004.05.011.059.022C.336.046.34.073.34.117v.136c0 .05-.003.085-.01.104C.32.389.298.405.263.405A.116.116 0 0 1 .204.388.18.18 0 0 1 .153.346V.079c0-.025.004-.042.013-.052C.174.017.193.013.222.013V0H0v.013z"/></symbol><symbol id="o"><path d="M.155.308a.1.1 0 0 1 .038-.05.109.109 0 0 1 .06-.016c.035 0 .065.017.09.052A.249.249 0 0 1 .38.44C.38.5.367.545.34.575a.116.116 0 0 1-.089.044.107.107 0 0 1-.066-.022C.165.582.155.567.155.553V.308M0 .016c.03.002.05.009.058.02.009.01.013.028.013.052v.469C.07.58.068.597.06.604.057.611.045.614.029.614A.103.103 0 0 1 .004.613v.016l.047.016.098.033c.002 0 .003 0 .003-.002A.008.008 0 0 0 .154.67V.604c.021.021.04.037.056.048C.24.67.27.679.3.679.347.68.385.66.418.622A.233.233 0 0 0 .465.465.292.292 0 0 0 .407.288.175.175 0 0 0 .213.215a.141.141 0 0 0-.058.037v-.16C.155.06.161.04.171.033a.162.162 0 0 1 .07-.015V0H0v.016z"/></symbol><use xlink:href="#l" transform="matrix(28 0 0 -28 15.407 582.956)"/><use xlink:href="#m" transform="matrix(28 0 0 -28 30.826 583.215)"/><use xlink:href="#n" transform="matrix(28 0 0 -28 45.031 582.956)"/><use xlink:href="#o" transform="matrix(28 0 0 -28 66.453 589.053)"/><use xlink:href="#f" transform="matrix(28 0 0 -28 80.33 582.956)"/><use xlink:href="#h" transform="matrix(28 0 0 -28 90.434 582.956)"/><use xlink:href="#l" transform="matrix(28 0 0 -28 756.267 582.956)"/><use xlink:href="#m" transform="matrix(28 0 0 -28 771.686 583.215)"/><use xlink:href="#n" transform="matrix(28 0 0 -28 785.891 582.956)"/><use xlink:href="#o" transform="matrix(28 0 0 -28 807.313 589.053)"/><use xlink:href="#f" transform="matrix(28 0 0 -28 821.19 582.956)"/><use xlink:href="#i" transform="matrix(28 0 0 -28 829.024 582.956)"/><use xlink:href="#m" transform="matrix(28 0 0 -28 52.043 631.805)"/><use xlink:href="#h" transform="matrix(18.66667 0 0 -18.66667 67.866 638.21)"/><use xlink:href="#m" transform="matrix(28 0 0 -28 777.243 631.805)"/><use xlink:href="#i" transform="matrix(18.66667 0 0 -18.66667 791.553 638.21)"/><path d="M215.15 314.17h148.875V178.618H215.15z" fill="#b4c7e7"/><path stroke-width="6.096" stroke-miterlimit="8" fill="none" stroke="#000" d="M215.15 105.83v210.777M364.025 105.83v210.777M299.838 314.635l67.276.441M212.375 314.889l67.48-.255M302.793 314.17l-.03 16.249M276.838 314.17l-.03 16.249"/><path d="M484.168 314.17h148.875v-84.266H484.168z" fill="#b4c7e7"/><path stroke-width="6.096" stroke-miterlimit="8" fill="none" stroke="#000" d="M484.168 105.83v210.777M633.043 105.83v210.777M568.855 314.635l67.276.441M481.392 314.889l67.48-.255M571.81 314.17l-.03 16.249M545.855 314.17l-.03 16.249"/><path d="M214.926 659.245h148.875v-58.541H214.926z" fill="#b4c7e7"/><path stroke-width="6.096" stroke-miterlimit="8" fill="none" stroke="#000" d="M214.926 450.905v210.777M363.801 450.905v210.777M299.614 659.71l67.275.441M212.15 659.964l67.481-.254M302.568 659.245l-.03 16.249M276.613 659.245l-.03 16.249"/><path d="M483.943 659.245h148.875V525.412H483.943z" fill="#b4c7e7"/><path stroke-width="6.096" stroke-miterlimit="8" fill="none" stroke="#000" d="M483.943 450.905v210.777M632.818 450.905v210.777M568.63 659.71l67.276.441M481.168 659.964l67.48-.254M571.586 659.245l-.03 16.249M545.63 659.245l-.03 16.249"/><path d="M87.42 847.079h675.29v-63.892H87.42z" fill="#b4c7e7"/><path stroke-width="6.096" stroke-miterlimit="8" fill="none" stroke="#000" d="M84.517 847.079h680.375M87.42 849.401v-84.92M762.71 849.401v-84.92"/><path stroke-width="2.286" stroke-miterlimit="8" fill="none" stroke="#000" d="M109.054 600.704c0-11.742 9.518-21.26 21.26-21.26 11.741 0 21.26 9.518 21.26 21.26 0 11.741-9.519 21.26-21.26 21.26-11.742 0-21.26-9.519-21.26-21.26zM130.314 579.444l-21.26 21.26M130.314 579.444l21.26 21.26M130.314 621.963l-.422 203.38M698.284 600.704c0-11.742 9.519-21.26 21.26-21.26 11.742 0 21.26 9.518 21.26 21.26 0 11.741-9.518 21.26-21.26 21.26-11.741 0-21.26-9.519-21.26-21.26zM719.544 579.444l-21.26 21.26M719.544 579.444l21.26 21.26M719.544 621.963l-.422 203.38M119.184 415.896l10.63-25.511 10.63 25.511zM156.508 401.185l-25.512-10.63 25.512-10.63z"/><path stroke-width="2.286" stroke-miterlimit="8" fill="none" stroke="#000" d="m140.444 365.511-10.63 25.512-10.63-25.512zM730.288 365.855l-10.63 25.512-10.63-25.512zM692.965 380.567l25.511 10.63-25.511 10.63z"/><path stroke-width="2.286" stroke-miterlimit="8" fill="none" stroke="#000" d="m709.028 416.24 10.63-25.511 10.63 25.512zM719.658 416.24l.01 163.204M129.814 415.896l.5 163.548M156.507 390.555l132.135.468M287.848 390.058v33.8M557.892 391.023l135.073.174M558.605 389.585v33.799M719.517 75.954l.141 289.902M287.848 75.954l432.678.645M288.985 74.726v33.8M129.814 27.763V365.51M129.064 28.694l432.678.645M560.717 28.444v33.799"/><path stroke-width="2.286" stroke-dasharray="9.144,6.8580000000000005" stroke-miterlimit="8" fill="none" stroke="#000" d="M50.517 600.704h58.537M740.804 600.704h57.986M363.801 600.704h37.664M632.818 525.12h37.664"/><use xlink:href="#j" transform="matrix(28 0 0 -28 653.925 508.225)"/><use xlink:href="#i" transform="matrix(18.66667 0 0 -18.66667 668.235 514.89)"/><path stroke-width="2.286" stroke-dasharray="9.144,6.8580000000000005" stroke-miterlimit="8" fill="none" stroke="#000" d="M366.89 178.619h37.663M635.907 229.904h37.663"/><use xlink:href="#j" transform="matrix(28 0 0 -28 387.884 157.836)"/><use xlink:href="#g" transform="matrix(18.66667 0 0 -18.66667 402.449 164.637)"/><use xlink:href="#j" transform="matrix(28 0 0 -28 654.192 211.102)"/><use xlink:href="#k" transform="matrix(18.66667 0 0 -18.66667 668.156 217.767)"/></g></svg>