<svg xmlns="http://www.w3.org/2000/svg" xmlns:xlink="http://www.w3.org/1999/xlink" width="1361pt" height="1172" viewBox="0 0 1361 879"><clipPath id="a"><path transform="matrix(1 0 0 -1 0 879)" d="M0 0h1361v879H0z"/></clipPath><g clip-path="url(#a)"><path d="M0 878.75h1360.625V0H0z" fill="#fff"/><symbol id="b"><path d="M.006.662H.57l.005-.17H.552C.541.545.526.58.507.596.49.612.451.62.394.62H.338V.108C.338.07.344.046.356.036.368.027.394.021.436.018V0H.143v.018c.042.003.068.01.079.021.01.01.015.038.015.081v.5H.183C.127.62.09.612.069.596.05.58.035.546.024.492H0l.006.17z"/></symbol><symbol id="c"><path d="M.25.278A.447.447 0 0 1 .157.237C.11.207.087.175.087.138c0-.03.01-.051.03-.065A.071.071 0 0 1 .158.059C.18.06.2.065.22.077.24.09.25.104.25.123v.155M0 .104c0 .048.024.087.07.119.03.02.09.046.18.08v.04a.171.171 0 0 1-.01.07C.23.435.206.446.171.446A.095.095 0 0 1 .124.433C.109.424.102.413.102.397l.002-.02A.135.135 0 0 0 .106.359C.106.341.1.33.088.321A.045.045 0 0 0 .064.315C.049.315.038.32.03.329A.05.05 0 0 0 .02.361c0 .023.014.047.042.072C.089.458.13.47.185.47.248.47.29.45.313.41A.212.212 0 0 0 .331.31V.115c0-.02.001-.032.004-.04C.339.064.348.058.361.058.37.057.375.057.38.06a.19.19 0 0 1 .025.017V.05A.159.159 0 0 0 .372.02.098.098 0 0 0 .316.001C.294.001.278.01.268.023A.098.098 0 0 0 .25.074.46.46 0 0 0 .188.026.166.166 0 0 0 .104 0 .102.102 0 0 0 0 .104M.186.47z"/></symbol><symbol id="d"><path d="M.002.014C.025.017.042.022.05.03.06.04.064.059.064.089v.247C.064.357.062.372.06.38.052.393.039.4.02.4A.093.093 0 0 1 0 .397v.017l.095.03L.14.46C.143.46.144.46.145.457V.378a.5.5 0 0 0 .07.058.147.147 0 0 0 .08.024.104.104 0 0 0 .06-.02C.391.417.408.373.408.31V.08C.408.057.413.04.422.03.432.02.448.014.47.014V0H.26v.014c.024.003.04.01.05.02.01.01.014.03.014.064v.209A.138.138 0 0 1 .31.376C.3.395.28.404.252.404a.107.107 0 0 1-.059-.02A.336.336 0 0 1 .15.347V.074C.15.05.156.034.166.026.176.02.193.014.216.014V0H.001v.014M.234.46z"/></symbol><symbol id="e"><path d="M0 .014C.031.016.052.02.062.029c.01.008.015.026.015.053v.49c0 .022-.004.037-.012.043a.053.053 0 0 1-.034.01A.23.23 0 0 1 0 .623v.013l.044.012a1.39 1.39 0 0 1 .11.032L.158.68V.263l.136.119.02.02c.003.006.005.01.005.015C.319.424.315.429.308.43a.215.215 0 0 1-.04.004V.45h.204V.435A.207.207 0 0 1 .384.413.889.889 0 0 1 .257.31L.228.282l.09-.117C.365.105.4.065.423.045A.134.134 0 0 1 .498.013V0H.28v.014h.017l.016.004c.004.002.006.005.006.01a.02.02 0 0 1-.002.01.072.072 0 0 1-.007.01l-.151.2V.067c0-.023.008-.038.025-.045a.135.135 0 0 1 .05-.007V0H0v.014z"/></symbol><symbol id="f"><path d="M0 0z"/></symbol><symbol id="g"><path d="M0 .03c.041.004.068.013.08.028.011.014.017.048.017.1V.6L.083.616a.106.106 0 0 1-.037.031A.137.137 0 0 1 0 .655v.018h.171L.557.192v.334c0 .055-.008.091-.025.108-.01.01-.034.018-.071.02v.02h.235v-.02C.658.652.632.643.62.628.607.612.6.579.6.527V0H.584L.141.548v-.39c0-.054.008-.09.024-.106C.175.04.199.034.235.03V.012H0V.03m.35.643z"/></symbol><symbol id="h"><path d="M.222.692h.049L.05 0H0l.222.692z"/></symbol><symbol id="i"><path d="M0 .011c.12.124.2.215.243.273a.287.287 0 0 1 .064.17C.307.5.294.537.267.562a.129.129 0 0 1-.093.038.135.135 0 0 1-.108-.049A.283.283 0 0 1 .022.47L.001.474C.017.55.045.601.083.63c.04.03.081.044.126.044a.178.178 0 0 0 .185-.18A.255.255 0 0 0 .338.34a3.322 3.322 0 0 0-.24-.264h.225c.031 0 .053.004.066.011a.146.146 0 0 1 .043.055L.444.136.39 0H0v.011z"/></symbol><symbol id="j"><path d="M.219.505h.068V.287h.218V.218H.287V0H.22v.218H0v.069h.219v.218z"/></symbol><symbol id="k"><path d="M.185.67.187.668V.074c0-.025.007-.041.02-.048A.2.2 0 0 1 .283.014V0H.007v.015c.04.002.065.007.077.016.012.009.018.028.018.057V.54a.085.085 0 0 1-.006.036C.092.584.084.588.071.588A.104.104 0 0 1 .038.58.453.453 0 0 1 0 .566V.58l.18.09h.005z"/></symbol><use xlink:href="#b" transform="matrix(28 0 0 -28 213.057 172.557)"/><use xlink:href="#c" transform="matrix(28 0 0 -28 228.895 172.762)"/><use xlink:href="#d" transform="matrix(28 0 0 -28 240.697 172.557)"/><use xlink:href="#e" transform="matrix(28 0 0 -28 254.3 172.557)"/><use xlink:href="#f" transform="matrix(28 0 0 -28 268.246 172.557)"/><use xlink:href="#g" transform="matrix(28 0 0 -28 275.56 172.885)"/><use xlink:href="#h" transform="matrix(28 0 0 -28 295.55 173.022)"/><use xlink:href="#i" transform="matrix(28 0 0 -28 304.08 172.557)"/><use xlink:href="#j" transform="matrix(28 0 0 -28 318.08 172.557)"/><use xlink:href="#k" transform="matrix(28 0 0 -28 336.1 172.557)"/><use xlink:href="#b" transform="matrix(28 0 0 -28 240.71 518.831)"/><use xlink:href="#c" transform="matrix(28 0 0 -28 256.549 519.037)"/><use xlink:href="#d" transform="matrix(28 0 0 -28 268.35 518.831)"/><use xlink:href="#e" transform="matrix(28 0 0 -28 281.954 518.831)"/><use xlink:href="#f" transform="matrix(28 0 0 -28 295.9 518.831)"/><use xlink:href="#k" transform="matrix(28 0 0 -28 306.003 518.831)"/><use xlink:href="#b" transform="matrix(28 0 0 -28 651.251 518.557)"/><use xlink:href="#c" transform="matrix(28 0 0 -28 667.09 518.762)"/><use xlink:href="#d" transform="matrix(28 0 0 -28 678.891 518.557)"/><use xlink:href="#e" transform="matrix(28 0 0 -28 692.495 518.557)"/><use xlink:href="#f" transform="matrix(28 0 0 -28 706.44 518.557)"/><use xlink:href="#i" transform="matrix(28 0 0 -28 714.274 518.557)"/><symbol id="l"><path d="M0 .014c.027.003.044.01.052.02.009.009.013.032.013.068V.57a.083.083 0 0 1-.007.04C.053.62.042.624.023.624A.217.217 0 0 1 .001.622v.017a4.295 4.295 0 0 0 .097.028l.047.015.001-.004v-.3A.32.32 0 0 0 .201.43c.028.02.06.03.092.03.053 0 .09-.023.108-.067A.23.23 0 0 0 .417.301V.1c0-.034.004-.056.012-.067.008-.01.024-.017.049-.02V0H.267v.014c.028.004.046.01.054.02s.012.032.012.068v.197a.159.159 0 0 1-.016.077c-.01.02-.03.03-.06.03A.12.12 0 0 1 .185.377C.16.36.148.348.148.342v-.24c0-.037.005-.06.013-.069C.17.024.188.018.215.013V0H0v.014z"/></symbol><use xlink:href="#l" transform="matrix(28 0 0 -28 371.38 606.573)"/><use xlink:href="#k" transform="matrix(18.66667 0 0 -18.66667 387.202 613.238)"/><use xlink:href="#b" transform="matrix(28 0 0 -28 621.73 172.775)"/><use xlink:href="#c" transform="matrix(28 0 0 -28 637.568 172.98)"/><use xlink:href="#d" transform="matrix(28 0 0 -28 649.37 172.775)"/><use xlink:href="#e" transform="matrix(28 0 0 -28 662.973 172.775)"/><use xlink:href="#f" transform="matrix(28 0 0 -28 676.918 172.775)"/><use xlink:href="#g" transform="matrix(28 0 0 -28 684.233 173.103)"/><use xlink:href="#h" transform="matrix(28 0 0 -28 704.223 173.24)"/><use xlink:href="#i" transform="matrix(28 0 0 -28 712.753 172.775)"/><use xlink:href="#j" transform="matrix(28 0 0 -28 726.753 172.775)"/><use xlink:href="#i" transform="matrix(28 0 0 -28 742.503 172.775)"/><symbol id="m"><path d="M.417.48c0 .061-.027.103-.08.126A.27.27 0 0 1 .23.625C.21.625.197.622.192.618.187.614.185.605.185.591v-.26A1.427 1.427 0 0 1 .236.327c.046 0 .082.007.109.02C.393.37.417.415.417.48M0 .018C.038.022.062.03.071.041c.01.011.014.038.014.08v.432C.085.588.08.611.07.623.06.632.036.64 0 .642v.019h.264c.084 0 .15-.017.194-.05a.154.154 0 0 0 .067-.13C.525.414.5.365.451.334A.352.352 0 0 0 .264.29 2.244 2.244 0 0 0 .185.29V.108c0-.037.006-.061.017-.07C.214.027.24.02.28.017V0H0v.018z"/></symbol><symbol id="n"><path d="M.146.461V.15c0-.022.003-.04.01-.053C.166.07.188.059.221.059c.022 0 .043.007.065.022a.19.19 0 0 1 .036.033v.268c0 .025-.005.041-.014.05C.299.438.279.443.25.444v.016h.158V.118C.408.096.412.08.419.072.428.064.444.06.47.06V.047A1.412 1.412 0 0 1 .333.002C.33.002.33.002.33.004a.02.02 0 0 0 0 .005v.079A.33.33 0 0 0 .268.029.15.15 0 0 0 .18 0 .126.126 0 0 0 .1.03C.075.05.062.083.062.13v.254C.063.41.058.427.046.436.039.442.023.446 0 .448V.46h.146m.096.006z"/></symbol><symbol id="o"><path d="M0 .013a.112.112 0 0 1 .05.012c.014.01.02.029.02.057v.252C.07.36.067.374.06.382.055.389.045.393.03.393H.013A.086.086 0 0 1 .002.388v.017l.035.011a1.76 1.76 0 0 1 .109.04c.001 0 .002 0 .002-.002V.379C.182.41.21.43.233.44a.164.164 0 0 0 .073.018.1.1 0 0 0 .08-.034.148.148 0 0 0 .026-.05.407.407 0 0 0 .063.054c.03.02.062.03.094.03.053 0 .088-.021.105-.064A.317.317 0 0 0 .688.28V.076C.688.053.694.037.704.03A.112.112 0 0 1 .759.013V0H.54v.014C.567.016.586.022.595.03.604.04.608.057.608.084v.21a.178.178 0 0 1-.01.07c-.012.027-.035.04-.07.04a.112.112 0 0 1-.064-.02.312.312 0 0 1-.044-.04v-.25c0-.026.004-.046.014-.06C.443.022.463.015.493.014V0H.269v.013c.03.004.05.011.059.022C.336.046.34.073.34.117v.136c0 .05-.003.085-.01.104C.32.389.298.405.263.405A.116.116 0 0 1 .204.388.18.18 0 0 1 .153.346V.079c0-.025.004-.042.013-.052C.174.017.193.013.222.013V0H0v.013z"/></symbol><symbol id="p"><path d="M.155.308a.1.1 0 0 1 .038-.05.109.109 0 0 1 .06-.016c.035 0 .065.017.09.052A.249.249 0 0 1 .38.44C.38.5.367.545.34.575a.116.116 0 0 1-.089.044.107.107 0 0 1-.066-.022C.165.582.155.567.155.553V.308M0 .016c.03.002.05.009.058.02.009.01.013.028.013.052v.469C.07.58.068.597.06.604.057.611.045.614.029.614A.103.103 0 0 1 .004.613v.016l.047.016.098.033c.002 0 .003 0 .003-.002A.008.008 0 0 0 .154.67V.604c.021.021.04.037.056.048C.24.67.27.679.3.679.347.68.385.66.418.622A.233.233 0 0 0 .465.465.292.292 0 0 0 .407.288.175.175 0 0 0 .213.215a.141.141 0 0 0-.058.037v-.16C.155.06.161.04.171.033a.162.162 0 0 1 .07-.015V0H0v.016z"/></symbol><use xlink:href="#m" transform="matrix(28 0 0 -28 5.197 605.965)"/><use xlink:href="#n" transform="matrix(28 0 0 -28 20.616 606.225)"/><use xlink:href="#o" transform="matrix(28 0 0 -28 34.82 605.965)"/><use xlink:href="#p" transform="matrix(28 0 0 -28 56.243 612.063)"/><use xlink:href="#f" transform="matrix(28 0 0 -28 70.12 605.965)"/><use xlink:href="#k" transform="matrix(28 0 0 -28 80.223 605.965)"/><use xlink:href="#n" transform="matrix(28 0 0 -28 41.832 654.815)"/><use xlink:href="#k" transform="matrix(18.66667 0 0 -18.66667 57.655 661.22)"/><path d="M204.94 337.179h148.875v-135.55H204.94z" fill="#b4c7e7"/><path stroke-width="6.096" stroke-miterlimit="8" fill="none" stroke="#000" d="M204.94 128.839v210.777M353.815 128.839v210.777M289.628 337.644l67.276.442M202.164 337.898l67.48-.254M292.582 337.18l-.03 16.249M266.627 337.18l-.03 16.249"/><path d="M613.048 337.179h148.875v-84.266H613.048z" fill="#b4c7e7"/><path stroke-width="6.096" stroke-miterlimit="8" fill="none" stroke="#000" d="M613.048 128.839v210.778M761.922 128.839v210.778M697.736 337.644l67.276.442M610.272 337.898l67.48-.254M700.69 337.18l-.03 16.249M674.735 337.18l-.03 16.249"/><path d="M204.715 682.255h148.876v-58.541H204.715z" fill="#b4c7e7"/><path stroke-width="6.096" stroke-miterlimit="8" fill="none" stroke="#000" d="M204.715 473.914v210.778M353.59 473.914v210.778M289.404 682.72l67.276.44M201.94 682.973l67.48-.254M292.358 682.255l-.03 16.25M266.403 682.255l-.03 16.25"/><path d="M612.823 682.254h148.875V548.422H612.823z" fill="#b4c7e7"/><path stroke-width="6.096" stroke-miterlimit="8" fill="none" stroke="#000" d="M612.823 473.914v210.778M761.698 473.914v210.778M697.512 682.72l67.275.44M610.048 682.974l67.48-.255M700.466 682.255l-.03 16.25M674.51 682.255l-.03 16.25"/><path d="M77.21 870.088h1251.477v-63.892H77.21z" fill="#b4c7e7"/><path stroke-width="6.096" stroke-miterlimit="8" fill="none" stroke="#000" d="m74.307 870.088 1254.491 2.323M77.21 872.41v-84.92M1328.687 874.125v-84.92"/><path stroke-width="2.286" stroke-miterlimit="8" fill="none" stroke="#000" d="M98.844 623.713c0-11.741 9.518-21.26 21.26-21.26 11.74 0 21.26 9.519 21.26 21.26 0 11.742-9.52 21.26-21.26 21.26-11.742 0-21.26-9.518-21.26-21.26zM120.103 602.453l-21.26 21.26M120.103 602.453l21.26 21.26M120.103 644.974l-.422 203.38M108.974 438.907l10.63-25.512 10.63 25.512zM146.297 424.195l-25.512-10.63 25.512-10.63z"/><path stroke-width="2.286" stroke-miterlimit="8" fill="none" stroke="#000" d="m130.233 388.521-10.63 25.512-10.63-25.512zM119.603 438.907l.5 163.547M146.298 413.565l132.134.467M277.637 413.067v33.8M119.604 88.367v300.154M119.603 87.902l567.658.465M687.323 88.367v33.8"/><path stroke-width="2.286" stroke-dasharray="9.144,6.8580000000000005" stroke-miterlimit="8" fill="none" stroke="#000" d="M40.307 623.713h58.537M353.59 623.713h37.664M761.884 548.986h37.663"/><use xlink:href="#l" transform="matrix(28 0 0 -28 782.99 532.092)"/><use xlink:href="#i" transform="matrix(18.66667 0 0 -18.66667 797.3 538.757)"/><path stroke-width="2.286" stroke-dasharray="9.144,6.8580000000000005" stroke-miterlimit="8" fill="none" stroke="#000" d="M356.679 201.628h37.663M764.972 253.77h37.664"/><use xlink:href="#l" transform="matrix(28 0 0 -28 377.674 180.846)"/><use xlink:href="#g" transform="matrix(18.66667 0 0 -18.66667 391.638 187.73)"/><use xlink:href="#h" transform="matrix(18.66667 0 0 -18.66667 404.964 187.82)"/><use xlink:href="#i" transform="matrix(18.66667 0 0 -18.66667 410.61 187.511)"/><use xlink:href="#j" transform="matrix(18.66667 0 0 -18.66667 419.992 187.511)"/><use xlink:href="#k" transform="matrix(18.66667 0 0 -18.66667 432.007 187.511)"/><use xlink:href="#l" transform="matrix(28 0 0 -28 783.258 234.97)"/><use xlink:href="#g" transform="matrix(18.66667 0 0 -18.66667 797.222 241.853)"/><use xlink:href="#h" transform="matrix(18.66667 0 0 -18.66667 810.548 241.944)"/><use xlink:href="#i" transform="matrix(18.66667 0 0 -18.66667 816.194 241.634)"/><use xlink:href="#j" transform="matrix(18.66667 0 0 -18.66667 825.576 241.634)"/><use xlink:href="#i" transform="matrix(18.66667 0 0 -18.66667 836.078 241.634)"/><use xlink:href="#m" transform="matrix(28 0 0 -28 425.441 605.965)"/><use xlink:href="#n" transform="matrix(28 0 0 -28 440.86 606.225)"/><use xlink:href="#o" transform="matrix(28 0 0 -28 455.065 605.965)"/><use xlink:href="#p" transform="matrix(28 0 0 -28 476.488 612.063)"/><use xlink:href="#f" transform="matrix(28 0 0 -28 490.365 605.965)"/><use xlink:href="#i" transform="matrix(28 0 0 -28 498.199 605.965)"/><use xlink:href="#n" transform="matrix(28 0 0 -28 452.336 649.906)"/><use xlink:href="#i" transform="matrix(18.66667 0 0 -18.66667 466.646 656.31)"/><path stroke-width="2.286" stroke-miterlimit="8" fill="none" stroke="#000" d="M509.347 623.713c0-11.741 9.519-21.26 21.26-21.26 11.742 0 21.26 9.519 21.26 21.26 0 11.742-9.518 21.26-21.26 21.26-11.741 0-21.26-9.518-21.26-21.26zM530.607 602.453l-21.26 21.26M530.607 602.453l21.26 21.26M530.607 644.974l-.422 203.38M519.477 438.907l10.63-25.512 10.63 25.512zM556.8 424.195l-25.511-10.63 25.512-10.63z"/><path stroke-width="2.286" stroke-miterlimit="8" fill="none" stroke="#000" d="m540.737 388.521-10.63 25.512-10.63-25.512zM530.107 438.907l.5 163.547M556.802 413.565l132.134.467M688.14 413.067l.001 33.8M530.107 50.773v337.748M529.357 51.704l291.94-.21"/><path stroke-width="2.286" stroke-dasharray="9.144,6.8580000000000005" stroke-miterlimit="8" fill="none" stroke="#000" d="M450.81 623.713h58.538"/><symbol id="q"><path d="M.103.057C.103.034.099.02.091.011.084.004.071 0 .051 0S.019.004.01.011C.004.02 0 .034 0 .056S.004.094.011.1C.02.11.033.113.052.113c.02 0 .032-.004.04-.011C.099.094.103.079.103.057m.22 0C.323.034.32.02.312.011.305.004.291 0 .272 0c-.02 0-.033.004-.04.011C.224.02.22.034.22.056S.224.094.23.1C.24.11.254.113.273.113c.02 0 .033-.004.04-.011C.319.094.323.079.323.057m.22 0C.544.034.54.02.534.011.524.004.51 0 .491 0 .472 0 .46.004.452.011.445.02.441.034.441.056S.445.094.452.1C.46.11.474.113.493.113c.019 0 .032-.004.04-.011C.54.094.543.079.543.057z"/></symbol><use xlink:href="#q" transform="matrix(40 0 0 -40 885.285 53.803)"/><use xlink:href="#b" transform="matrix(28 0 0 -28 1162.843 518.831)"/><use xlink:href="#c" transform="matrix(28 0 0 -28 1178.68 519.037)"/><use xlink:href="#d" transform="matrix(28 0 0 -28 1190.483 518.831)"/><use xlink:href="#e" transform="matrix(28 0 0 -28 1204.086 518.831)"/><use xlink:href="#f" transform="matrix(28 0 0 -28 1218.032 518.831)"/><use xlink:href="#g" transform="matrix(28 0 0 -28 1225.346 519.16)"/><use xlink:href="#h" transform="matrix(28 0 0 -28 1245.336 519.296)"/><use xlink:href="#i" transform="matrix(28 0 0 -28 1253.866 518.831)"/><use xlink:href="#b" transform="matrix(28 0 0 -28 1173.583 170.947)"/><use xlink:href="#c" transform="matrix(28 0 0 -28 1189.42 171.152)"/><use xlink:href="#d" transform="matrix(28 0 0 -28 1201.223 170.947)"/><use xlink:href="#e" transform="matrix(28 0 0 -28 1214.826 170.947)"/><use xlink:href="#f" transform="matrix(28 0 0 -28 1228.772 170.947)"/><use xlink:href="#g" transform="matrix(28 0 0 -28 1236.086 171.275)"/><path d="M1141.113 337.153h148.875v-84.266h-148.875z" fill="#b4c7e7"/><path stroke-width="6.096" stroke-miterlimit="8" fill="none" stroke="#000" d="M1141.113 128.813v210.778M1289.988 128.813v210.778M1225.802 337.618l67.276.442M1138.337 337.873l67.48-.255M1228.756 337.154l-.03 16.25M1202.8 337.154l-.03 16.25"/><path d="M1140.889 682.228h148.875V548.396h-148.875z" fill="#b4c7e7"/><path stroke-width="6.096" stroke-miterlimit="8" fill="none" stroke="#000" d="M1140.889 473.888v210.778M1289.764 473.888v210.778M1225.577 682.693l67.276.442M1138.113 682.948l67.48-.255M1228.531 682.23l-.03 16.248M1202.576 682.23l-.03 16.248"/><path stroke-width="2.286" stroke-miterlimit="8" fill="none" stroke="#000" d="M1214.904 51.492v70.675"/><path stroke-width="2.286" stroke-dasharray="9.144,6.8580000000000005" stroke-miterlimit="8" fill="none" stroke="#000" d="M1289.949 548.96h37.664"/><use xlink:href="#l" transform="matrix(28 0 0 -28 1311.057 532.066)"/><use xlink:href="#g" transform="matrix(18.66667 0 0 -18.66667 1325.02 538.95)"/><use xlink:href="#h" transform="matrix(18.66667 0 0 -18.66667 1338.348 539.041)"/><use xlink:href="#i" transform="matrix(18.66667 0 0 -18.66667 1343.993 538.731)"/><path stroke-width="2.286" stroke-dasharray="9.144,6.8580000000000005" stroke-miterlimit="8" fill="none" stroke="#000" d="M1293.038 253.745h37.664"/><use xlink:href="#l" transform="matrix(28 0 0 -28 1311.324 234.943)"/><use xlink:href="#g" transform="matrix(18.66667 0 0 -18.66667 1325.288 241.827)"/><use xlink:href="#m" transform="matrix(28 0 0 -28 920.936 605.94)"/><use xlink:href="#n" transform="matrix(28 0 0 -28 936.355 606.199)"/><use xlink:href="#o" transform="matrix(28 0 0 -28 950.56 605.94)"/><use xlink:href="#p" transform="matrix(28 0 0 -28 971.982 612.037)"/><use xlink:href="#f" transform="matrix(28 0 0 -28 985.859 605.94)"/><use xlink:href="#g" transform="matrix(28 0 0 -28 993.173 606.267)"/><use xlink:href="#h" transform="matrix(28 0 0 -28 1013.163 606.404)"/><use xlink:href="#i" transform="matrix(28 0 0 -28 1021.693 605.94)"/><use xlink:href="#n" transform="matrix(28 0 0 -28 980.402 649.88)"/><use xlink:href="#g" transform="matrix(18.66667 0 0 -18.66667 994.366 656.504)"/><use xlink:href="#h" transform="matrix(18.66667 0 0 -18.66667 1007.692 656.595)"/><use xlink:href="#i" transform="matrix(18.66667 0 0 -18.66667 1013.338 656.285)"/><path stroke-width="2.286" stroke-miterlimit="8" fill="none" stroke="#000" d="M1037.413 623.687c0-11.741 9.518-21.26 21.26-21.26 11.741 0 21.26 9.519 21.26 21.26 0 11.742-9.519 21.26-21.26 21.26-11.742 0-21.26-9.518-21.26-21.26zM1058.673 602.428l-21.26 21.26M1058.673 602.428l21.26 21.26M1058.673 644.948l-.422 203.38M1047.543 438.88l10.63-25.51 10.63 25.51zM1084.866 424.17l-25.512-10.63 25.512-10.63z"/><path stroke-width="2.286" stroke-miterlimit="8" fill="none" stroke="#000" d="m1068.803 388.496-10.63 25.511-10.63-25.511zM1058.173 438.88l.5 163.548M1084.867 413.539l132.134.468M1216.207 413.041v33.8M1058.173 6.118v382.377M277.637 6.117h781.718"/><path stroke-width="2.286" stroke-dasharray="9.144,6.8580000000000005" stroke-miterlimit="8" fill="none" stroke="#000" d="M978.876 623.687h58.538"/><path stroke-width="2.286" stroke-miterlimit="8" fill="none" stroke="#000" d="m278.432 6.117-.795 109.403M966.423 51.703l248.482-.21"/><use xlink:href="#q" transform="matrix(54 0 0 -54 869.652 261.163)"/><use xlink:href="#q" transform="matrix(54 0 0 -54 869.652 549.308)"/></g></svg>