<svg xmlns="http://www.w3.org/2000/svg" xmlns:xlink="http://www.w3.org/1999/xlink" width="568pt" height="568" viewBox="0 0 568 426"><clipPath id="a"><path transform="matrix(.1 0 0 -.1 0 426)" d="M0 4259.16h5678.85V.02H0v4259.14z"/></clipPath><g clip-path="url(#a)"><path d="M0 425.998h567.885V.084H0z" fill="#fff"/></g><path d="M0 425.998h567.885V.084H0z" fill="#fff"/><path d="M74.028 379.35h440.11V31.521H74.029z" fill="#fff"/><path stroke-width=".4999" stroke-linejoin="round" fill="none" stroke="#e5e5e5" d="M74.028 379.35V31.521M147.379 379.35V31.521M220.732 379.35V31.521M294.083 379.35V31.521M367.435 379.35V31.521M440.787 379.35V31.521M514.139 379.35V31.521M514.139 379.35H74.028M514.139 335.872H74.028M514.139 292.393H74.028M514.139 248.914H74.028M514.139 205.436H74.028M514.139 161.957H74.028M514.139 118.479H74.028M514.139 75H74.028M514.139 31.521H74.028"/><path stroke-width=".4999" stroke-linecap="square" stroke-linejoin="round" fill="none" stroke="#323232" d="M74.028 379.35h440.111M74.028 379.35v-4.4M147.379 379.35v-4.4M220.732 379.35v-4.4M294.083 379.35v-4.4M367.435 379.35v-4.4M440.787 379.35v-4.4M514.139 379.35v-4.4"/><symbol id="b"><path d="M.232.746A.203.203 0 0 1 .069.667C.023.603 0 .507 0 .373 0 .129.08 0 .232 0c.15 0 .232.129.232.367 0 .14-.022.234-.069.3a.2.2 0 0 1-.163.079m0-.078C.327.668.374.571.374.375.374.169.328.073.23.073c-.093 0-.14.1-.14.299 0 .199.047.296.142.296z"/></symbol><symbol id="c"><path d="M.472.086H.099c.009.06.041.098.128.151l.1.056c.099.055.15.129.15.218a.21.21 0 0 1-.066.155.227.227 0 0 1-.161.056C.16.722.093.69.054.628A.282.282 0 0 1 .016.472h.088a.257.257 0 0 0 .021.102.135.135 0 0 0 .122.071c.08 0 .14-.058.14-.136C.387.451.354.401.291.365L.199.311C.051.226.008.158 0 0h.472v.086z"/></symbol><symbol id="d"><path d="M.299.175V0h.088v.175h.105v.079H.387v.469H.322L0 .268V.175h.299m0 .079H.077l.222.319V.254z"/></symbol><symbol id="e"><path d="M.455.558C.438.676.362.746.254.746a.223.223 0 0 1-.19-.103A.52.52 0 0 1 0 .353C0 .231.017.154.06.09A.2.2 0 0 1 .238 0C.373 0 .47.101.47.242.47.375.38.469.253.469A.189.189 0 0 1 .09.39c.001.179.057.278.158.278.062 0 .105-.04.119-.11h.088M.242.391C.327.391.38.331.38.235.38.144.32.078.239.078.157.078.095.147.095.239c0 .09.06.152.147.152z"/></symbol><symbol id="f"><path d="M.354.404c.074.045.097.081.097.149 0 .114-.087.193-.213.193C.113.746.025.667.025.554c0-.069.023-.104.096-.15C.04.363 0 .304 0 .224 0 .092.097 0 .238 0c.14 0 .238.092.238.224 0 .08-.04.139-.122.18M.238.668C.313.668.361.623.361.551.361.483.312.438.238.438.163.438.115.483.115.553s.048.115.123.115m0-.304C.326.364.386.306.386.222.386.135.327.078.236.078.15.078.09.137.09.221c0 .086.059.143.148.143z"/></symbol><symbol id="g"><path d="M.157.515V0h.088v.723H.187C.156.612.136.597 0 .579V.515h.157z"/></symbol><use xlink:href="#b" transform="matrix(15.0003 0 0 -15.0003 69.603 398.894)" fill="#323232"/><use xlink:href="#c" transform="matrix(15.0003 0 0 -15.0003 142.82 398.534)" fill="#323232"/><use xlink:href="#d" transform="matrix(15.0003 0 0 -15.0003 216.082 398.55)" fill="#323232"/><use xlink:href="#e" transform="matrix(15.0003 0 0 -15.0003 289.66 398.894)" fill="#323232"/><use xlink:href="#f" transform="matrix(15.0003 0 0 -15.0003 362.922 398.894)" fill="#323232"/><use xlink:href="#g" transform="matrix(15.0003 0 0 -15.0003 432.686 398.55)" fill="#323232"/><use xlink:href="#b" transform="matrix(15.0003 0 0 -15.0003 440.141 398.894)" fill="#323232"/><use xlink:href="#g" transform="matrix(15.0003 0 0 -15.0003 506.038 398.55)" fill="#323232"/><use xlink:href="#c" transform="matrix(15.0003 0 0 -15.0003 513.358 398.534)" fill="#323232"/><path d="M267.503 416.15c0-.158.015-.312.047-.46l1.173-4.657h-1.712c-.106 0-.158-.069-.158-.206.042-.243.111-.365.206-.365h1.805l.65-2.646a.738.738 0 0 1 .254-.357c.127-.1.27-.15.428-.15.137 0 .251.04.341.119.09.079.134.187.134.324v.08a.137.137 0 0 1-.016.063l-.65 2.567h1.681c.105 0 .158.074.158.222a.72.72 0 0 1-.087.285.132.132 0 0 1-.119.064h-1.775l-1.157 4.69c-.084.306-.126.57-.126.792 0 .464.158.697.475.697.475 0 .898-.222 1.268-.666.37-.443.65-.934.84-1.473.042-.064.084-.096.126-.096h.206c.043 0 .077.016.103.048.027.032.04.064.04.095 0 .021-.005.037-.016.048a5.308 5.308 0 0 1-1.046 1.735c-.454.502-.971.753-1.552.753-.434 0-.795-.143-1.086-.428-.29-.285-.435-.644-.435-1.077M274.398 408.45v-.555h5.863v.555h-5.863M273.699 417.18c0-.064.005-.11.015-.142l1.22-4.833a3.45 3.45 0 0 0 .111-.792c0-.465-.158-.698-.475-.698-.338 0-.589.201-.753.603-.163.401-.319.914-.467 1.537 0 .031-.016.055-.048.071a.218.218 0 0 1-.095.023h-.19c-.031 0-.061-.018-.087-.055a.184.184 0 0 1-.039-.103c.116-.475.227-.876.332-1.204.106-.328.275-.626.507-.895.233-.27.518-.404.856-.404.412 0 .773.129 1.085.388.312.259.468.583.468.974a3.59 3.59 0 0 1 1.124-.998 2.773 2.773 0 0 1 1.379-.364c.391 0 .726.065 1.006.198.28.132.497.332.65.601.153.27.229.59.229.96 0 .443-.097.98-.293 1.608a34.419 34.419 0 0 1-.737 2.1c-.158.358-.237.686-.237.982 0 .317.127.475.38.475.423 0 .774-.227 1.054-.68.28-.455.478-.941.594-1.46.021-.063.069-.095.143-.095h.19c.042 0 .077.014.103.04a.14.14 0 0 1 .04.103c0 .011-.006.027-.017.048a5.026 5.026 0 0 1-.768 1.704c-.365.523-.821.784-1.37.784-.381 0-.706-.133-.975-.397a1.298 1.298 0 0 1-.404-.966c0-.201.042-.412.126-.634.138-.348.294-.768.468-1.26.174-.491.32-.961.436-1.41a4.85 4.85 0 0 0 .174-1.196c0-.296-.063-.55-.19-.76-.127-.212-.338-.318-.634-.318a2.3 2.3 0 0 0-1.085.262 2.975 2.975 0 0 0-.871.69 5.402 5.402 0 0 0-.69 1.029l-1.093 4.405a.806.806 0 0 1-.253.388.637.637 0 0 1-.429.167.488.488 0 0 1-.348-.135.449.449 0 0 1-.142-.34M283.27 421.205c0-.032.005-.053.016-.064l5.64-15.654a.252.252 0 0 1 .111-.143.334.334 0 0 1 .174-.048c.095 0 .175.029.238.087a.3.3 0 0 1 .095.23v.064l-5.64 15.655a.33.33 0 0 1-.318.19.304.304 0 0 1-.221-.095.302.302 0 0 1-.095-.222M295.639 421.49a7.994 7.994 0 0 1-1.56-1.632 8.968 8.968 0 0 1-1.07-1.972 11.79 11.79 0 0 1-.618-2.196 13.02 13.02 0 0 1 0-4.594c.138-.76.346-1.493.626-2.195.28-.702.639-1.36 1.077-1.972a7.54 7.54 0 0 1 1.545-1.6c0-.022.027-.033.079-.033h.143a.12.12 0 0 1 .087.04c.027.027.04.061.04.103 0 .043-.011.074-.032.095a8.026 8.026 0 0 0-1.315 1.664 9.34 9.34 0 0 0-.847 1.894 11.78 11.78 0 0 0-.468 2.076c-.095.712-.143 1.46-.143 2.24 0 3.445.919 6.06 2.758 7.845a.173.173 0 0 1 .047.126.146.146 0 0 1-.04.096c-.027.03-.055.046-.087.046h-.143c-.052 0-.079-.01-.079-.031M297.826 417.465v-.443c0-.021.01-.047.031-.079l2.519-2.79c.381-.411.69-.757.927-1.037.238-.28.473-.602.706-.967.232-.364.416-.736.554-1.116.137-.381.206-.783.206-1.205a3.32 3.32 0 0 0-.246-1.267 2.219 2.219 0 0 0-.736-.967c-.328-.243-.719-.364-1.173-.364-.476 0-.901.14-1.275.42a2.18 2.18 0 0 0-.785 1.101.725.725 0 0 1 .174-.016c.243 0 .45.082.619.245a.833.833 0 0 1 .253.626.86.86 0 0 1-.253.634.844.844 0 0 1-.619.253.878.878 0 0 1-.642-.26.86.86 0 0 1-.26-.627 2.823 2.823 0 0 1 .894-2.091c.291-.275.616-.486.975-.634a3.007 3.007 0 0 1 1.157-.222c.612 0 1.185.13 1.719.388a3.08 3.08 0 0 1 1.267 1.11c.312.48.467 1.038.467 1.671 0 .475-.102.924-.309 1.347a4.6 4.6 0 0 1-.792 1.149c-.322.343-.734.734-1.236 1.172a47.11 47.11 0 0 0-.989.88l-1.839 1.775h1.569c.76 0 1.4-.008 1.917-.024.518-.016.793-.035.824-.056.127-.137.254-.64.38-1.505h.475l-.459 2.9h-6.02M306.915 417.18a.84.84 0 0 1 .064-.253c.295-.634.575-1.252.839-1.854.264-.603.499-1.191.705-1.767.206-.575.399-1.186.578-1.83h-1.045a1.85 1.85 0 0 0-1.102.372 3.232 3.232 0 0 0-.863.943c-.021.043-.053.064-.095.064h-.191c-.094 0-.141-.053-.141-.16 0-.02.01-.052.031-.093a7.488 7.488 0 0 1 1.133-1.521c.407-.413.864-.62 1.371-.62h5.878a.41.41 0 0 1 .293.112c.08.074.119.174.119.3a.59.59 0 0 1-.175.421.552.552 0 0 1-.411.182h-2.061a12.827 12.827 0 0 0-.285 2.487c0 1.036.18 1.976.539 2.822a.412.412 0 0 1 .047.19.566.566 0 0 1-.102.324.913.913 0 0 1-.262.253.623.623 0 0 1-.349.104c-.285 0-.48-.235-.585-.705a6.16 6.16 0 0 1-.159-1.355c0-.623.053-1.22.159-1.79.105-.571.274-1.348.507-2.33h-1.759c-.856 3.465-1.374 5.372-1.554 5.72-.147.307-.358.46-.633.46a.495.495 0 0 1-.34-.135.436.436 0 0 1-.151-.34M316.327 421.521c-.096 0-.143-.047-.143-.142 0-.042.01-.074.031-.095 1.849-1.806 2.774-4.431 2.774-7.875 0-3.443-.914-6.058-2.743-7.843-.041-.021-.062-.063-.062-.127a.14.14 0 0 1 .039-.102.14.14 0 0 1 .104-.04h.141c.032 0 .059.01.08.031a7.893 7.893 0 0 1 1.948 2.235c.518.877.896 1.811 1.133 2.803.238.994.357 2.008.357 3.043 0 .76-.063 1.513-.19 2.258-.127.745-.333 1.48-.618 2.203a9.301 9.301 0 0 1-1.077 1.996 7.924 7.924 0 0 1-1.553 1.624.109.109 0 0 1-.08.031h-.141" fill="#323232"/><path stroke-width=".4999" stroke-linecap="square" stroke-linejoin="round" fill="none" stroke="#323232" d="M74.028 379.35V31.521M74.028 379.35h4.4M74.028 335.872h4.4M74.028 292.393h4.4M74.028 248.914h4.4M74.028 205.436h4.4M74.028 161.957h4.4M74.028 118.479h4.4M74.028 75h4.4M74.028 31.521h4.4"/><symbol id="h"><path d="M.238.072H0V0h.238v.072z"/></symbol><symbol id="i"><path d="M.189.356h.048C.333.356.384.311.384.224.384.133.329.078.238.078c-.097 0-.144.049-.15.155H0A.307.307 0 0 1 .031.105C.068.035.137 0 .234 0c.146 0 .24.088.24.225 0 .092-.035.142-.12.172.066.027.099.077.099.15 0 .124-.081.199-.216.199C.094.746.018.666.015.513h.088a.206.206 0 0 0 .016.091c.02.041.064.065.119.065.078 0 .125-.047.125-.125C.363.493.345.462.306.445A.326.326 0 0 0 .189.43V.356z"/></symbol><symbol id="j"><path d="M.441.732H.075L.022.346h.081c.041.049.075.066.131.066.095 0 .154-.065.154-.17C.388.14.329.078.233.078.156.078.109.117.088.197H0C.012.139.022.111.043.085A.236.236 0 0 1 .235 0c.143 0 .243.104.243.254C.478.394.385.49.249.49A.208.208 0 0 1 .118.447l.028.198h.295v.087z"/></symbol><use xlink:href="#h" transform="matrix(15.0003 0 0 -15.0003 26.113 380.823)" fill="#323232"/><use xlink:href="#i" transform="matrix(15.0003 0 0 -15.0003 30.898 384.768)" fill="#323232"/><use xlink:href="#b" transform="matrix(15.0003 0 0 -15.0003 39.403 384.768)" fill="#323232"/><use xlink:href="#b" transform="matrix(15.0003 0 0 -15.0003 47.743 384.768)" fill="#323232"/><use xlink:href="#b" transform="matrix(15.0003 0 0 -15.0003 56.083 384.768)" fill="#323232"/><use xlink:href="#h" transform="matrix(15.0003 0 0 -15.0003 26.113 337.344)" fill="#323232"/><use xlink:href="#c" transform="matrix(15.0003 0 0 -15.0003 30.928 340.929)" fill="#323232"/><use xlink:href="#b" transform="matrix(15.0003 0 0 -15.0003 39.403 341.289)" fill="#323232"/><use xlink:href="#b" transform="matrix(15.0003 0 0 -15.0003 47.743 341.289)" fill="#323232"/><use xlink:href="#b" transform="matrix(15.0003 0 0 -15.0003 56.083 341.289)" fill="#323232"/><use xlink:href="#h" transform="matrix(15.0003 0 0 -15.0003 26.113 293.865)" fill="#323232"/><use xlink:href="#g" transform="matrix(15.0003 0 0 -15.0003 31.948 297.465)" fill="#323232"/><use xlink:href="#b" transform="matrix(15.0003 0 0 -15.0003 39.403 297.81)" fill="#323232"/><use xlink:href="#b" transform="matrix(15.0003 0 0 -15.0003 47.743 297.81)" fill="#323232"/><use xlink:href="#b" transform="matrix(15.0003 0 0 -15.0003 56.083 297.81)" fill="#323232"/><use xlink:href="#b" transform="matrix(15.0003 0 0 -15.0003 59.533 254.331)" fill="#323232"/><use xlink:href="#g" transform="matrix(15.0003 0 0 -15.0003 32.023 210.507)" fill="#323232"/><use xlink:href="#b" transform="matrix(15.0003 0 0 -15.0003 39.478 210.852)" fill="#323232"/><use xlink:href="#b" transform="matrix(15.0003 0 0 -15.0003 47.818 210.852)" fill="#323232"/><use xlink:href="#b" transform="matrix(15.0003 0 0 -15.0003 56.159 210.852)" fill="#323232"/><use xlink:href="#c" transform="matrix(15.0003 0 0 -15.0003 31.003 167.013)" fill="#323232"/><use xlink:href="#b" transform="matrix(15.0003 0 0 -15.0003 39.478 167.373)" fill="#323232"/><use xlink:href="#b" transform="matrix(15.0003 0 0 -15.0003 47.818 167.373)" fill="#323232"/><use xlink:href="#b" transform="matrix(15.0003 0 0 -15.0003 56.159 167.373)" fill="#323232"/><use xlink:href="#i" transform="matrix(15.0003 0 0 -15.0003 30.973 123.894)" fill="#323232"/><use xlink:href="#b" transform="matrix(15.0003 0 0 -15.0003 39.478 123.894)" fill="#323232"/><use xlink:href="#b" transform="matrix(15.0003 0 0 -15.0003 47.818 123.894)" fill="#323232"/><use xlink:href="#b" transform="matrix(15.0003 0 0 -15.0003 56.159 123.894)" fill="#323232"/><use xlink:href="#d" transform="matrix(15.0003 0 0 -15.0003 30.913 80.07)" fill="#323232"/><use xlink:href="#b" transform="matrix(15.0003 0 0 -15.0003 39.478 80.415)" fill="#323232"/><use xlink:href="#b" transform="matrix(15.0003 0 0 -15.0003 47.818 80.415)" fill="#323232"/><use xlink:href="#b" transform="matrix(15.0003 0 0 -15.0003 56.159 80.415)" fill="#323232"/><use xlink:href="#j" transform="matrix(15.0003 0 0 -15.0003 31.018 36.936)" fill="#323232"/><use xlink:href="#b" transform="matrix(15.0003 0 0 -15.0003 39.478 36.936)" fill="#323232"/><use xlink:href="#b" transform="matrix(15.0003 0 0 -15.0003 47.818 36.936)" fill="#323232"/><use xlink:href="#b" transform="matrix(15.0003 0 0 -15.0003 56.159 36.936)" fill="#323232"/><path d="M16.673 240.763c0 .676-.26 1.212-.777 1.608-.517.396-1.13.593-1.838.593-.686 0-1.402-.179-2.146-.538a5.35 5.35 0 0 1-1.862-1.457c-.497-.614-.746-1.269-.746-1.965 0-.328.088-.618.262-.872.175-.253.415-.448.721-.586-.433-.127-.65-.364-.65-.713 0-.138.04-.254.12-.349a.4.4 0 0 1 .395-.134.188.188 0 0 0 .056.008l4.532 1.14c.327.074.591.111.792.111.465 0 .697-.158.697-.475 0-.338-.214-.595-.641-.768a9.332 9.332 0 0 0-1.498-.452c-.064-.021-.095-.064-.095-.127v-.19c0-.042.018-.077.055-.103a.186.186 0 0 1 .104-.04c.76.19 1.37.396 1.83.619.459.222.689.586.689 1.093 0 .37-.108.695-.325.975a1.351 1.351 0 0 1-.864.514c.793.697 1.189 1.4 1.189 2.108zm-.444-.016c0-.391-.145-.771-.436-1.141a4.348 4.348 0 0 0-1.038-.951c-.01-.01-.026-.016-.048-.016l-3.516-.872-.048-.015c-.39.064-.724.203-.999.42a1.043 1.043 0 0 0-.412.863c0 .37.148.71.445 1.022.295.312.649.579 1.061.8.433.212 1.027.413 1.782.603.756.19 1.34.285 1.752.285.38 0 .718-.079 1.013-.238.296-.158.444-.411.444-.76M18.957 233.832h-.396c0-.93-.116-1.395-.348-1.395H12.35c.19.38.286.866.286 1.458h-.397c0-.909-.237-1.595-.713-2.06v-.158c0-.032.01-.058.032-.079.02-.022.042-.033.064-.033h6.59c.233 0 .349-.465.349-1.394h.396v3.661M12.743 222.931a.288.288 0 0 1-.103.23.328.328 0 0 1-.214.087.346.346 0 0 1-.23-.087.288.288 0 0 1-.103-.23v-9.301a.27.27 0 0 1 .104-.214.346.346 0 0 1 .229-.087c.074 0 .146.029.214.087a.27.27 0 0 1 .103.214v9.301M7.467 206.734h-.555v-5.863h.555v5.863M16.673 205.274c0 .676-.26 1.212-.777 1.608-.517.397-1.13.595-1.838.595-.686 0-1.402-.18-2.146-.539a5.341 5.341 0 0 1-1.862-1.458c-.497-.612-.746-1.267-.746-1.964a1.5 1.5 0 0 1 .262-.871c.175-.254.415-.45.721-.588-.433-.126-.65-.364-.65-.712a.52.52 0 0 1 .12-.348.4.4 0 0 1 .324-.143c.032 0 .056.003.071.008a.188.188 0 0 0 .056.008l4.532 1.141c.327.074.591.11.792.11.465 0 .697-.158.697-.475 0-.338-.214-.594-.641-.769a9.545 9.545 0 0 0-1.498-.451c-.064-.021-.095-.064-.095-.127v-.19c0-.042.018-.077.055-.103a.186.186 0 0 1 .104-.04c.76.191 1.37.396 1.83.618.459.222.689.586.689 1.093 0 .37-.108.695-.325.975-.217.28-.505.452-.864.515.793.697 1.189 1.399 1.189 2.107zm-.444-.015c0-.391-.145-.771-.436-1.141a4.348 4.348 0 0 0-1.038-.951c-.01-.01-.026-.015-.048-.015l-3.516-.872-.048-.016c-.39.063-.724.203-.999.42a1.043 1.043 0 0 0-.412.863c0 .37.148.711.445 1.023.295.311.649.578 1.061.8.433.211 1.027.412 1.782.602.756.19 1.34.285 1.752.285.38 0 .718-.079 1.013-.237.296-.159.444-.413.444-.761M20.507 188.835a8.036 8.036 0 0 1-1.632 1.561 8.995 8.995 0 0 1-1.972 1.068c-.703.275-1.435.482-2.196.619a12.847 12.847 0 0 1-4.595 0 11.347 11.347 0 0 1-2.194-.626 9.256 9.256 0 0 1-1.972-1.078 7.51 7.51 0 0 1-1.6-1.544c-.022 0-.033-.027-.033-.08v-.142c0-.032.014-.061.04-.087a.137.137 0 0 1 .103-.04c.043 0 .074.01.096.032a8.068 8.068 0 0 0 1.662 1.315 9.344 9.344 0 0 0 1.895.847c.67.217 1.362.373 2.076.468.712.095 1.46.142 2.24.142 3.444 0 6.06-.919 7.845-2.756a.172.172 0 0 1 .127-.048c.031 0 .063.013.095.04.03.026.046.055.046.087v.142c0 .053-.01.08-.031.08M16.482 186.965h-.57c0-.369-.029-.673-.087-.911-.058-.238-.203-.357-.436-.357h-4.42c-.297 0-.508.045-.634.135a.579.579 0 0 0-.238.38 4.33 4.33 0 0 0-.047.753h-.571l-.175-2.345h1.585a2.874 2.874 0 0 1-1.14-.966 2.375 2.375 0 0 1-.445-1.394c0-1.247.507-1.976 1.521-2.187a2.767 2.767 0 0 1-1.1-.959 2.407 2.407 0 0 1-.42-1.37c0-.486.079-.898.238-1.236.158-.338.4-.592.728-.761.328-.169.735-.253 1.22-.253h3.898c.233 0 .378-.119.436-.357.058-.237.087-.541.087-.911h.57v3.724h-.57c0-.37-.029-.674-.087-.912-.058-.237-.203-.356-.436-.356h-3.85c-.539 0-.974.077-1.308.229-.332.154-.499.468-.499.943 0 .624.251 1.139.753 1.545.502.407 1.07.61 1.703.61h3.201c.233 0 .378-.119.436-.357.058-.237.087-.54.087-.91h.57v3.707h-.57c0-.37-.029-.673-.087-.91-.058-.238-.203-.357-.436-.357h-3.85c-.528 0-.962.077-1.3.23-.338.153-.507.467-.507.943 0 .633.251 1.151.753 1.552.502.402 1.07.603 1.703.603h3.201c.233 0 .378-.119.436-.357.058-.238.087-.537.087-.896h.57v3.708M20.538 172.645c0 .095-.047.142-.141.142-.043 0-.075-.01-.096-.031-1.806-1.849-4.431-2.773-7.875-2.773s-6.058.914-7.843 2.741c-.021.042-.063.063-.127.063a.14.14 0 0 1-.102-.039.139.139 0 0 1-.04-.103v-.143c0-.032.01-.058.032-.079a7.929 7.929 0 0 1 2.234-1.949 10.146 10.146 0 0 1 2.804-1.133 13.006 13.006 0 0 1 3.042-.357c.76 0 1.513.064 2.258.191.745.127 1.48.332 2.203.618.723.285 1.389.644 1.996 1.078.608.432 1.149.95 1.624 1.552.02.021.031.047.031.079v.143" fill="#323232"/><path stroke-width="2.9997000000000003" stroke-linejoin="round" fill="none" stroke="#0072bd" d="m74.028 279.584.064-.217.064-.217.064-.216.063-.216.065-.214.064-.213.064-.211.064-.21.064-.209.064-.207.064-.206.064-.205.064-.204.064-.202.064-.201.064-.2.064-.2.064-.2.064-.199.063-.197.065-.199.064-.199.064-.199.064-.199.064-.2.064-.201.064-.202.064-.203.064-.202.064-.206.065-.206.063-.207.064-.209.064-.209.064-.211.064-.211.064-.213.064-.212.065-.213.063-.214.064-.213.064-.214.064-.213.064-.213.064-.213.064-.212.064-.211.064-.211.065-.21.063-.21.064-.209.064-.209.064-.208.064-.206.064-.207.065-.207.064-.207.063-.205.064-.206.064-.205.064-.204.064-.203.064-.203.064-.202.065-.201.063-.2.064-.198.064-.198.064-.197.064-.194.064-.195.064-.193.065-.193.064-.191.064-.193.064-.191.063-.193.064-.193.064-.194.064-.196.064-.199.065-.2.064-.203.064-.206.063-.209.064-.21.064-.214.064-.217.064-.219.065-.221.064-.224.064-.223.064-.225.064-.224.063-.223.064-.222.064-.22.064-.218.065-.216.064-.211.064-.209.064-.205.063-.2.064-.197.064-.194.064-.191.064-.187.065-.185.064-.182.064-.182.063-.181.065-.181.063-.181.064-.182.064-.184.065-.186.064-.189.064-.19.064-.195.064-.198.063-.201.064-.203.064-.207.064-.21.065-.213.064-.215.064-.217.064-.219.063-.22.064-.22.064-.222.064-.221.065-.222.064-.22.064-.221.064-.22.064-.218.064-.217.063-.215.064-.214.064-.211.065-.211.064-.209.064-.207.064-.206.064-.205.063-.203.064-.202.064-.2.065-.2.064-.199.064-.197.064-.199.064-.196.063-.196.065-.197.063-.196.064-.197.065-.198.064-.198.064-.198.064-.201.064-.201.064-.203.064-.204.063-.207.064-.208.065-.209.064-.212.064-.213.064-.214.064-.216.063-.216.065-.218.063-.217.065-.218.064-.218.064-.217.064-.216.064-.215.064-.214.064-.211.064-.21.063-.208.065-.205.064-.204.064-.2.064-.199.064-.197.064-.195.064-.193.063-.192.065-.192.064-.19.064-.192.064-.191.064-.192.064-.194.064-.193.064-.197.064-.198.064-.201.064-.202.064-.204.064-.207.064-.209.064-.21.064-.212.064-.214.065-.215.063-.215.064-.216.064-.216.064-.216.064-.216.064-.214.064-.214.064-.212.064-.211.064-.21.064-.208.064-.206.064-.206.064-.202.064-.202.064-.202.064-.199.065-.199.064-.198.063-.198.064-.198.064-.197.064-.197.064-.198.064-.197.065-.199.064-.199.063-.2.064-.2.064-.201.064-.202.064-.204.064-.204.064-.205.065-.207.063-.208.065-.207.063-.21.064-.212.064-.212.064-.213.064-.214.065-.216.064-.216.064-.217.063-.217.064-.218.064-.218.064-.218.064-.218.064-.218.065-.217.064-.216.063-.216.065-.215.063-.213.064-.212.064-.211.064-.21.065-.209.064-.207.064-.205.064-.205.063-.204.064-.203.064-.202.064-.202.064-.2.065-.201.064-.201.064-.201.063-.201.064-.201.064-.202.064-.202.064-.203.064-.202.065-.206.064-.203.064-.206.064-.206.063-.207.064-.208.064-.209.064-.209.065-.209.064-.212.064-.213.064-.212.063-.213.064-.215.064-.216.064-.216.064-.217.065-.217.064-.218.064-.219.063-.218.064-.216.065-.218.063-.217.064-.216.065-.215.064-.214.064-.213.064-.212.064-.21.064-.209.063-.207.064-.207.064-.205.065-.203.064-.202.064-.203.064-.201.063-.202.064-.201.065-.2.063-.201.065-.202.064-.202.064-.202.064-.204.064-.204.064-.204.064-.206.063-.206.064-.206.065-.206.064-.208.064-.207.064-.208.064-.207.064-.207.063-.208.064-.206.064-.206.065-.206.064-.206.064-.206.064-.205.064-.205.064-.204.064-.205.063-.205.065-.204.064-.205.064-.205.064-.204.064-.204.064-.205.064-.205.063-.205.064-.205.065-.205.064-.206.064-.204.064-.205.064-.206.064-.206.063-.205.065-.206.064-.207.064-.205.064-.207.064-.207.064-.207.064-.207.064-.208.064-.207.063-.207.066-.208.063-.207.064-.207.064-.207.064-.206.064-.205.064-.203.063-.204.066-.202.063-.201.064-.201.064-.199.064-.197.064-.197.064-.197.064-.195.064-.195.064-.196.064-.196.064-.195.064-.197.064-.198.064-.2.064-.199.064-.202.063-.205.066-.205.063-.208.064-.209.064-.211.064-.214.064-.213.064-.216.063-.216.066-.216.063-.218.064-.218.064-.216.064-.216.064-.216.064-.214.064-.213.064-.211.064-.209.065-.207.063-.205.064-.204.064-.201.064-.198.064-.198.064-.195.065-.193.064-.193.063-.192.064-.19.064-.191.064-.19.064-.191.064-.19.064-.192.065-.193.063-.193.064-.196.064-.196.064-.2.064-.201.064-.204.064-.205.065-.208.064-.209.064-.211.063-.214.064-.213.064-.216.064-.216.064-.216.064-.216.065-.218.064-.214.063-.215.064-.214.065-.213.063-.211.064-.21.064-.208.064-.207.065-.205.063-.204.065-.202.064-.202.063-.201.064-.2.064-.201.064-.199.065-.2.064-.201.064-.202.064-.201.063-.204.064-.204.064-.205.064-.206.064-.206.065-.207.064-.206.064-.208.064-.207.064-.207.063-.207.064-.205.064-.205.065-.204.064-.201.064-.202.064-.2.064-.199.063-.198.064-.196.064-.196.064-.195.065-.195.064-.195.064-.196.064-.195.063-.196.065-.197.063-.199.064-.199.065-.2.064-.202.064-.203.064-.204.064-.205.064-.207.063-.207.064-.208.064-.209.065-.209.064-.209.064-.209.064-.208.064-.207.063-.208.064-.207.064-.205.064-.206.065-.204.064-.202.064-.203.064-.202.064-.201.064-.201.063-.201.064-.2.065-.2.064-.201.064-.201.064-.201.064-.202.064-.203.063-.203.064-.204.064-.204.065-.204.064-.205.064-.205.064-.205.064-.204.063-.204.065-.204.063-.202.065-.202.064-.201.064-.201.064-.199.064-.198.064-.198.064-.198.064-.197.063-.198.065-.198.064-.198.064-.199.064-.2.064-.202.064-.204.064-.206.063-.207.065-.208.064-.212.064-.213.064-.216.064-.218.064-.217.064-.22.064-.22.064-.221.065-.22.063-.22.064-.219.064-.219.064-.217.064-.215.064-.214.064-.212.063-.21.065-.208.064-.206.064-.205.064-.204.064-.202.064-.202.064-.199.064-.2.064-.199.064-.199.064-.198.064-.198.064-.198.064-.199.064-.198.064-.198.064-.198.065-.199.063-.198.064-.199.064-.199.064-.199.064-.199.064-.199.064-.201.065-.201.063-.203.064-.203.064-.206.064-.207.064-.209.064-.211.064-.214.064-.215.064-.217.065-.22.064-.221.063-.222.064-.223.064-.225.064-.224.064-.223.065-.223.064-.22.064-.219.063-.217.064-.214.064-.211.064-.207.064-.206.064-.201.065-.199.064-.198.063-.195.065-.192.063-.192.064-.191.064-.191.064-.191.064-.191.065-.193.064-.194.064-.195.063-.196.064-.198.064-.198.064-.199.064-.2.065-.2.064-.2.064-.2.063-.198.064-.198.064-.198.064-.197.064-.195.064-.195.065-.196.064-.195.064-.196.064-.197.063-.2.064-.201.064-.204.064-.207.065-.211.064-.214.064-.218.064-.222.063-.224.064-.227.064-.229.064-.23.064-.23.065-.229.064-.227.064-.225.063-.221.065-.216.063-.211.064-.206.064-.199.065-.193.064-.188.064-.18.064-.175.064-.172.063-.168.064-.165.064-.164.064-.164.065-.164.064-.167.064-.171.064-.175.063-.181.065-.186.064-.192.063-.199.064-.206.065-.213.064-.218.064-.223.064-.228.064-.232.064-.235.063-.238.064-.238.065-.238.064-.239.064-.237.064-.235.064-.233.064-.231.063-.229.065-.226.063-.223.065-.22.064-.218.064-.217.064-.214.064-.214.064-.213.064-.212.063-.212.065-.211.064-.211.064-.212.064-.211.064-.211.064-.209.064-.211.063-.209.064-.208.065-.208.064-.206.064-.205.064-.204.064-.201.064-.201.064-.199.064-.198.064-.198.064-.195.064-.196.064-.195.064-.194.064-.196.064-.196.064-.196.063-.199.065-.199.064-.201.064-.202.064-.203.064-.205.064-.206.064-.208.063-.21.065-.21.064-.212.064-.212.064-.213.064-.213.064-.212.064-.215.064-.212.064-.213.064-.211.065-.21.063-.21.064-.208.064-.208.064-.205.064-.205.064-.203.063-.201.066-.2.063-.199.064-.198.064-.197.064-.196.064-.197.064-.196.064-.195.065-.197.063-.197.065-.197.063-.199.064-.201.064-.201.064-.204.064-.204.064-.205.065-.208.064-.208.063-.21.064-.21.064-.21.064-.211.064-.209.064-.211.065-.209.064-.206.063-.207.064-.204.064-.203.064-.201.064-.199.064-.198.064-.197.065-.195.064-.194.064-.194.063-.193.064-.193.064-.194.064-.195.064-.197.065-.197.064-.199.064-.202.063-.203.064-.206.064-.209.064-.21.064-.212.064-.215.065-.216.064-.218.063-.219.065-.221.063-.221.064-.221.064-.222.064-.222.064-.221.065-.221.064-.219.064-.22.063-.218.064-.217.064-.215.064-.215.064-.213.065-.212.064-.21.064-.207.063-.208.064-.205.065-.205.063-.203.064-.202.064-.2.065-.199.064-.199.064-.199.064-.198.064-.197.063-.198.064-.199.064-.199.065-.2.064-.202.064-.178.064.06.064.209.063.207.064-.211.064-.213.064-.215.065-.217.064-.219.064-.22.064-.221.064-.222.064-.222.063-.222.064-.223.065-.223.064-.222.064-.22.064-.22.064-.219.064-.217.063-.216.064-.215.064-.213.065-.212.064-.212.064-.209.064-.209.064-.209.063-.208.065-.207.063-.207.064-.206.065-.206.064-.205.064-.204.064-.205.064-.204.064-.204.063-.203.064-.202.065-.203.064-.202.064-.201.064-.201.064-.2.064-.201.063-.201.065-.201.063-.201.065-.201.064-.202.064-.204.064-.204.064-.205.064-.207.064-.207.063-.208.066-.21.063-.211.064-.212.064-.213.064-.213.064-.214.064-.214.063-.215.064-.214.065-.214.064-.214.064-.213.064-.212.064-.212.064-.21.064-.208.064-.209.063-.206.065-.205.064-.204.064-.203.064-.202.064-.2.064-.198.064-.197.064-.196.065-.195.063-.194.064-.193.064-.193.064-.19.064-.191.064-.189.064-.19.064-.19.064-.188.064-.191.064-.189.064-.192.064-.192.064-.194.064-.194.064-.197.064-.198.065-.2.063-.202.064-.203.064-.206.064-.207.064-.209.064-.209.064-.213.065-.212.063-.214.064-.215.064-.214.064-.215.064-.216.064-.216.064-.215.065-.215.063-.216.064-.214.064-.215.064-.214.064-.213.064-.213.064-.213.064-.212.065-.212.064-.211.063-.211.064-.21.064-.209.064-.209.064-.208.064-.206.065-.207.064-.205.063-.205.064-.204.065-.203.063-.201.064-.202.064-.201.064-.2.065-.2.063-.199.065-.2.064-.2.063-.201.064-.2.064-.201.064-.202.064-.202.065-.203.064-.203.064-.204.063-.204.064-.205.064-.204.064-.205.064-.205.065-.204.064-.204.064-.204.064-.203.064-.202.063-.202.064-.202.064-.202.064-.202.065-.201.064-.201.064-.202.064-.203.063-.203.064-.204.064-.203.064-.206.065-.205.064-.207.064-.207.064-.208.063-.208.065-.208.063-.207.064-.209.064-.206.065-.207.064-.205.064-.205.064-.203.064-.202.063-.201.064-.2.064-.2.065-.197.064-.199.064-.198.064-.198.064-.198.063-.199.064-.199.064-.201.064-.202.065-.203.064-.203.064-.206.064-.207.064-.207.064-.208.063-.209.064-.21.064-.209.065-.209.064-.207.064-.208.064-.206.064-.206.063-.204.064-.201.064-.201.065-.2.064-.198.064-.197.064-.195.064-.064.063.043.065.153.063.223.064-.195.065-.194.064-.195.064-.196.064-.159.064-.051.064.052.064.154.063.212.065.211.064.208.064.207.064.205.064.205.064.203.064.202.063.201.065.2.064.199.064.2.064.199.064.199.064.2.064.2.064.201.064.202.065.203.063.205.064.206.064.208.064.209.064.21.064.212.064.213.063.214.065.215.064.214.064.216.064.216.064.216.064.216.064.215.064.212.064.213.064.209.064.208.064.207.064.205.064.203.064.201.064.199.064.199.065.198.063.197.064.195.064.197.064.197.064.197.064.199.064.2.064.203.064.203.064.208.064.207.064.211.064.213.064.215.064.217.064.219.064.219.065.222.064.221.063.221.064.221.064.221.064.22.064.219.064.217.065.216.064.214.063.212.064.211.064.209.064.205.064.206.064.203.065.203.064.201.063.201.065.199.063.2.064.199.064.2.064.2.064.2.065.202.064.202.064.204.063.203.064.205.064.206.064.206.064.207.064.208.065.207.064.209.063.206.064.208.064.206.064.206.064.206.064.204.065.204.064.202.064.202.064.203.063.202.064.203.064.204.064.204.064.208.065.209.064.213.064.216.063.22.064.224.064.228.064.233.064.237.065.241.064.245.064.248.063.25.065.252.063.254.064.251.064.251.064.249.065.244.064.241.064.235.064.229.063.222.064.215.064.208.064.201.065.193.064.188.064.183.064.177.063.174.065.172.064.17.063.171.064.172.065.175.064.178.064.183.064.188.064.194.064.2.063.205.064.212.064.217.065.223.064.225.064.229.064.232.064.232.063.234.065.232.063.231.065.229.064.226.064.223.064.22.064.216.064.214.064.21.063.207.064.205.065.204.064.202.064.201.064.201.064.201.064.202.063.203.064.203.065.204.064.206.064.205.064.206.064.206.064.205.064.202.064.203.063.2.065.198.064.194.064.193.064.191.064.187.064.186.064.184.063.182.065.182.064.182.064.184.064.183.064.187.064.188.064.192.063.195.065.198.064.202.064.206.064.21.064.212.064.216.064.218.064.219.064.221.063.222.066.222.063.221.064.221.064.219.064.218.064.216.064.213.063.214.066.209.063.21.064.208.064.207.064.207.064.207.064.207.064.206.064.209.064.21.065.211.063.212.064.215.064.215.064.217.064.219.064.219.065.22.064.221.063.221.064.223.064.221.064.221.064.22.064.22.064.218.065.218.063.217.064.216.064.215.064.214.064.214.064.212.064.213.065.211.064.211.064.211.063.212.064.211.064.211.064.211.064.211.064.211.065.211.064.212.063.211.064.211.064.211.064.211.064.211.064.21.065.211.064.21.063.21.065.21.063.209.064.209.064.208.064.207.064.207.065.207.064.205.064.205.063.204.064.204.064.204.064.203.064.201.064.202.065.202.064.202.063.202.064.201.065.202.063.203.064.203.064.203.065.206.064.204.064.206.064.207.064.208.063.209.064.208.064.211.064.209.065.211.064.21.064.211.064.211.063.211.064.21.064.21.064.209.065.209.064.208.064.207.064.206.064.207.064.205.063.206.064.205.064.203.065.204.064.204.064.204.064.204.064.204.063.203.064.203.064.204.065.204.064.205.064.204.064.204.064.203.063.205.065.204.063.204.064.204.065.204.064.203.064.202.064.203.064.203.064.203.063.201.064.202.064.202.065.202.064.201.064.2.064.201.064.201.063.202.065.201.063.201.065.202.064.203.064.204.064.204.064.204.064.206.064.207.063.209.064.209.065.211.064.212.064.213.064.214.064.215.064.216.063.216.064.217.065.217.064.217.064.217.064.217.064.216.064.215.064.215.064.213.063.213.065.211.064.211.064.209.064.208.064.207.064.207.064.207.063.207.066.206.063.207.064.207.064.207.064.208.064.209.064.209.064.211.064.211.064.213.064.213.064.214.064.214.064.215.064.216.064.215.064.217.064.216.065.216.063.216.064.217.064.216.064.216.064.216.064.217.064.216.065.216.063.216.064.216.064.216.064.216.064.217.064.216.064.216.064.216.064.215.064.216.064.215.064.214.064.214.064.214.064.213.064.213.065.212.064.211.063.211.064.211.064.21.064.21.064.21.064.21.064.209.065.21.063.209.064.208.065.209.063.207.064.208.064.208.064.207.065.206.063.206.065.206.064.204.063.203.064.204.064.203.064.202.064.202.065.201.064.201.064.202.063.202.064.201.064.204.064.203.064.204.064.205.065.206.064.208.064.208.064.209.063.208.064.211.064.211.064.211.065.212.064.212.064.212.064.212.063.212.064.212.064.212.064.212.064.211.065.212.064.211.064.213.063.212.065.213.063.214.064.214.064.214.065.216.064.216.064.216.064.217.064.217.063.216.064.217.064.216.064.216.065.215.064.213.064.213.064.212.063.21.064.21.064.208.064.208.065.207.064.206.064.206.064.207.064.207.064.208.063.21.064.21.064.212.065.214.064.215.064.217.064.218.064.22.063.221.064.222.064.222.064.223.065.223.064.222.064.223.064.22.063.221.065.219.064.216.063.216.065.215.064.212.064.211.064.21.064.21.064.208.063.208.064.207.064.208.065.207.064.206.064.207.064.207.064.207.064.207.063.207.065.207.064.206.064.206.064.205.064.205.064.204.064.204.064.201.064.202.063.202.065.201.064.201.064.202.064.2.064.203.064.203.064.205.063.206.065.208.064.209.064.212.064.213.064.216.064.216.064.219.064.22.064.221.064.221.064.222.064.221.064.221.064.22.064.219.064.217.064.215.063.213.065.212.064.209.064.207.064.205.064.202.064.201.064.201.064.199.064.197.064.197.064.198.064.196.064.198.064.198.064.199.064.2.064.2.065.203.064.203.063.204.064.206.064.207.064.207.064.209.064.21.065.211.064.212.063.212.064.214.064.214.064.214.064.215.064.215.064.216.065.216.063.216.065.216.063.216.064.216.064.216.064.216.064.216.065.214.064.215.064.214.063.212.064.212.064.211.064.209.064.209.064.207.065.205.064.205.063.203.064.201.064.201.064.198.064.197.064.197.064.194.065.195.064.194.064.193.063.193.064.194.064.193.064.194.064.196.065.197.064.197.064.201.063.203.064.205.064.208.064.21.064.214.064.216.065.219.064.221.063.224.065.226.063.227.064.229.064.231.064.23.065.23.064.229.064.228.064.226.063.225.064.221.064.221.064.217.064.213.065.212.064.209.064.205.063.205.065.204.064.203.063.202.064.204.065.203.064.206.064.208.064.211.064.215.063.217.064.222.064.224.064.228.065.232.064.235.064.236.064.238.064.24.063.239.065.239.063.237.064.234.065.232.064.228.064.224.064.22.064.214.064.209.063.204.064.199.065.195.064.189.064.186.064.183.064.18.064.178.063.178.064.177.064.178.065.179.064.182.064.183.064.188.064.192.064.195.064.2.063.204.065.21.064.213.064.219.064.222.064.225.064.229.064.232.063.235.064.236.065.237.064.238.064.236.064.236.064.235.064.234.063.23.065.227.064.225.064.221.064.217.064.213.064.21.064.207.064.203.064.199.063.196.066.195.063.192.064.19.064.19.064.189.064.188.064.189.063.189.066.192.063.192.064.193.064.196.064.197.064.199.064.199.064.202.064.202.064.203.065.203.063.204.064.201.064.202.064.201.064.199.064.197.063.196.066.196.063.192.064.193.064.192.064.191.064.191.064.192.064.192.065.194.063.197.064.197.064.202.064.203.064.206.064.21.064.212.064.215.065.218.064.22.063.221.064.223.064.224.064.223.064.225.064.223.065.221.064.221.063.218.064.217.064.215.064.212.064.21.064.211.064.207.065.207.063.206.065.206.063.206.064.207.064.207.064.208.064.21.064.211.065.213.064.214.063.216.064.217.064.218.064.219.064.219.064.22.065.221.064.218.063.22.064.217.065.218.063.216.064.216.064.215.064.212.065.213.064.214.064.211.064.212.063.213.064.212.064.213.064.214.065.215.064.215.064.215.064.217.063.217.064.217.064.217.064.217.064.217.065.216.064.215.064.213.064.213.064.211.063.21.064.207.064.207.065.204.064.202.064.202.064.201.064.2.063.198.064.198.064.199.064.198.065.198.064.2.064.2.064.201.063.201.065.202.063.204.064.205.065.205.064.207.064.207.064.208.064.207.064.209.063.208.064.209.064.209.065.209.064.208.064.209.064.207.064.207.063.207.065.206.063.206.064.205.065.205.064.204.064.203.064.203.064.203.064.202.063.2.064.202.065.201.064.201.064.2.064.2.064.2.064.2.063.201.064.201.065.202.064.201.064.203.064.204.064.205.064.204.064.209.064.207.064.21.064.211.064.212.064.214.064.215.064.216.064.217.064.218.064.218.063.219.065.219.064.218.064.219.064.218.064.218.064.216.064.214.064.213.064.213.064.21.064.209.064.208.064.206.064.204.064.203.064.202.064.201.065.201.063.201.064.2.064.2.064.202.064.203.064.203.064.206.063.206.065.209.064.211.064.213.064.215.064.218.064.22.064.221.064.223.064.225.064.228.064.227.064.227.064.229.064.229.064.226.064.228.064.226.065.225.063.223.064.222.064.22.064.218.064.216.064.214.064.212.065.21.063.209.064.207.065.206.063.204.064.203.064.203.064.202.064.202.064.202.065.201.064.202.063.203.064.203.064.203.064.203.064.205.064.205.065.206.064.207.063.208.064.208.064.21.064.208.064.211.064.211.065.212.064.213.064.213.064.213.063.214.064.215.064.214.064.216.064.215.065.215.064.216.064.215.063.215.064.215.064.215.064.214.064.214.065.213.064.213.064.211.063.211.065.21.063.208.064.209.064.206.064.206.065.204.064.204.064.201.064.201.063.201.064.199.064.199.064.197.065.198.064.197.064.197.064.197.063.198.064.198.064.198.064.199.064.201.065.202.064.203.064.204.064.206.064.207.063.209.064.211.064.212.065.214.064.214.064.216.064.217.064.217.063.217.064.218.064.218.064.218.065.218.064.217.064.217.064.217.063.216.065.216.064.215.063.215.064.214.065.215.064.214.064.214.064.214.064.214.064.214.063.214.064.214.065.214.064.214.064.214.064.213.064.213.064.212.063.212.065.21.063.209.065.209.064.209.064.207.064.207.064.207.064.206.064.207.063.205.065.207.064.208.064.209.064.211.064.211.064.214.064.215.063.216.065.219.064.22.064.221.064.222.064.224.064.223.064.225.064.224.064.223.064.222.064.221.064.219.064.218.064.216.064.214.064.212.064.211.063.209.065.207.064.207.064.204.064.205.064.205.064.204.064.205.064.206.064.205.064.207.064.208.064.209.064.21.064.211.064.212.064.212.064.213.065.214.064.213.063.213.064.212.064.213.064.212.064.211.064.211.063.208.066.209.063.209.064.207.064.207.064.207.064.206.064.205.064.206.065.206.063.206.065.205.063.206.064.207.064.206.064.206.064.206.064.208.065.207.064.208.063.207.064.209.064.208.064.21.064.21.064.211.065.211.064.213.063.212.064.214.064.214.064.215.064.215.064.216.064.215.065.216.064.214.064.215.063.213.064.212.064.211.064.21.064.208.065.205.064.205.064.204.063.202.064.155.064.041.064-.073.064-.183.064.199.065.2.064.2.063.202.065.204.063.205.064.205.064.209.064.211.064.211.065.211.064.214.064.214.063.214.064.214.064.213.064.213.064.212.065.21.064.209.064.207.063.204.065.204.064.203.063.201.064.202.064.201.065.2.064.202.064.203.064.205.064.207.063.21.064.212.064.215.065.217.064.222.064.224.064.227.064.228.063.23.065.232.063.233.064.233.065.232.064.232.064.232.064.229.064.227.064.225.063.223.064.221.064.218.065.217.064.214.064.213.064.211.064.21.063.21.064.208.064.208.065.209.064.207.064.208.064.209.064.209.064.21.064.209.063.211.064.21.065.211.064.211.064.211.064.21.064.211.064.211.063.209.064.21.065.21.064.21.064.209.064.208.064.209.064.208.063.207.065.207.063.208.065.205.064.206.064.206.064.205.064.204.064.204.064.201.063.203.066.2.063.201.064.2.064.201.064.2.064.2.064.2.063.2.064.202.065.203.064.204.064.206.064.206.064.21.064.21.064.213.064.214.064.217.065.218.063.22.064.22.064.221.064.223.064.222.064.222.064.222.065.22.063.22.064.218.064.216.064.215.064.212.064.21.064.208.064.207.064.205.064.203.064.201.064.2.064.198.064.197.064.198.064.196.065.195.064.197.063.196.064.196.064.197.064.198.064.199.064.199.064.2.065.202.063.202.064.204.064.205.064.206.064.207.064.206.064.208.065.209.063.209.065.21.063.209.064.21.064.208.064.209.064.207.064.207.065.207.064.206.063.204.064.204.064.202.064.203.064.202.064.202.064.202.065.201.063.202.064.204.065.204.063.206.064.208.064.209.064.21.065.214.064.214.064.218.064.218.063.22.064.22.064.224.064.223.064.223.065.224.064.223.064.223.063.222.064.22.064.204.064.146.064.087.065.026.064-.039.064.212.064.21.064.208.063.207.064.2.064.156.064.111.065.064.064.016.064-.037.064-.099.063-.15.064-.202.064-.21.064-.21.065-.211.064-.21.064-.21.064-.211.063-.21.065-.21.063-.212.064-.21.064-.21.065-.211.064-.159.064-.21.064-.21.064-.208.063-.21.064-.206.064-.207.064-.205.065-.205.064-.202.064-.203.064-.201.063-.2.065-.2.063-.2.064-.2.065-.2.064-.2.064-.2.064-.202.064-.203.064-.204.063-.206.064-.208.064-.207.065-.212.064-.212.064-.213.064-.214.064-.214.063-.216.064-.218.065-.216.064-.216.064-.218.064-.216.064-.214.064-.215.064-.214.064-.212.064-.212.063-.21.065-.21.064-.21.064-.207.064-.207.064-.207.064-.205.064-.206.063-.207.065-.206.064-.207.064-.208.064-.208.064-.208.064-.21.064-.21.064-.211.064-.212.064-.213.064-.214.064-.215.064-.216.064-.216.064-.217.064-.217.064-.217.065-.217.063-.217.064-.216.064-.216.064-.215.064-.214.064-.213.064-.212.063-.211.065-.209.064-.208.064-.206.064-.203.064-.204.064-.202.064-.2.064-.2.064-.198.064-.197.064-.196.064-.197.064-.195.064-.196.064-.196.064-.196.064-.196.065-.196.063-.198.064-.196.064-.198.064-.199.064-.199.064-.2.064-.198.064-.2.064-.2.064-.2.065-.2.063-.2.064-.2.064-.2.064-.2.064-.2.064-.199.065-.2.064-.201.063-.2.064-.201.064-.202.064-.202.064-.204.064-.204.065-.204.064-.206.063-.207.064-.208.064-.209.064-.21.064-.209.064-.213.065-.211.064-.212.064-.213.064-.213.063-.213.064-.213.064-.213.064-.213.064-.211.065-.212.064-.21.064-.21.063-.209.064-.208.064-.207.064-.205.064-.205.064-.205.065-.203.064-.202.063-.201.065-.201.063-.2.064-.2.064-.199.064-.198.065-.198.064-.198.064-.199.064-.197.063-.199.064-.199.064-.2.064-.2.064-.201.065-.202.064-.203.064-.204.063-.204.064-.205.064-.207.064-.208.064-.209.065-.21.064-.21.064-.211.064-.212.064-.212.063-.212.064-.214.064-.213.064-.213.065-.214.064-.212.064-.213.064-.212.063-.212.064-.212.064-.211.064-.211.065-.21.064-.209.064-.209.064-.209.063-.207.065-.207.064-.205.063-.206.064-.205.065-.204.064-.204.064-.203.064-.203.064-.204.064-.203.063-.203.064-.203.064-.203.065-.204.064-.204.064-.205.064-.206.064-.206.063-.206.065-.209.063-.207.065-.209.064-.208.064-.21.064-.209.064-.209.064-.208.064-.209.063-.206.064-.207.065-.206.064-.204.064-.203.064-.203.064-.2.064-.199.063-.199.065-.198.064-.197.064-.196.064-.196.064-.195.064-.196.064-.197.064-.197.064-.198.063-.198.065-.199.064-.201.064-.202.064-.201.064-.204.064-.205.064-.205.063-.206.064-.207.065-.207.064-.206.064-.206.064-.207.064-.206.064-.206.064-.205.064-.204.064-.203.064-.202.064-.203.064-.201.064-.201.064-.199.064-.2.064-.199.063-.198.066-.197.063-.198.064-.198.064-.197.064-.197.064-.197.064-.197.063-.197.066-.197.063-.197.064-.197.064-.198.064-.197.064-.198.064-.199.064-.199.064-.2.064-.201.065-.202.063-.204.064-.203.064-.205.064-.207.064-.207.064-.209.065-.21.064-.21.063-.211.064-.212.064-.212.064-.212.064-.211.064-.211.064-.21.065-.21.063-.209.064-.207.064-.206.064-.205.064-.204.064-.201.064-.2.064-.2.065-.197.064-.199.063-.195.064-.197.064-.195.064-.196.064-.196.064-.196.065-.196.064-.197.063-.199.064-.199.064-.2.064-.201.064-.203.064-.205.064-.205.065-.207.063-.207.065-.211.063-.211.064-.211.064-.213.064-.214.064-.215.065-.216.064-.217.064-.218.063-.219.064-.22.064-.218.064-.219.064-.22.064-.221.065-.219.064-.219.063-.218.065-.218.064-.217.063-.216.064-.215.064-.214.065-.212.064-.211.064-.211.064-.209.064-.208.063-.207.064-.205.064-.205.064-.203.065-.204.064-.201.064-.202.064-.2.063-.2.065-.199.063-.2.064-.198.065-.199.064-.197.064-.198.064-.198.064-.197.064-.197.063-.198.064-.198.064-.198.065-.198.064-.2.064-.2.064-.202.064-.202.063-.202.064-.204.064-.205.064-.206.065-.207.064-.209.064-.208.064-.209.064-.209.064-.21.063-.21.064-.209.065-.208.064-.207.064-.207.064-.204.064-.202.064-.201.063-.2.064-.198.064-.196.065-.193.064-.193.064-.191.064-.19.064-.19.063-.188.065-.19.063-.188.065-.191.064-.191.064-.191.064-.194.064-.195.064-.197.064-.197.063-.2.064-.202.065-.204.064-.205.064-.206.064-.207.064-.209.064-.209.063-.21.064-.211.065-.212.064-.211.064-.212.064-.212.064-.213.064-.212.064-.212.064-.211.064-.213.065-.212.063-.213.064-.211.064-.212.064-.212.064-.212.064-.211.064-.211.065-.211.063-.21.064-.21.064-.209.064-.209.064-.209.064-.207.064-.207.064-.208.064-.207.064-.207.064-.208.064-.207.064-.207.064-.208.064-.209.064-.209.064-.21.065-.21.063-.211.064-.211.064-.212.064-.212.064-.212.064-.212.064-.211.065-.211.063-.209.064-.209.064-.208.064-.206.064-.205.064-.204.064-.202.064-.2.064-.2.065-.199.063-.197.064-.197.064-.196.064-.197.064-.196.064-.197.065-.198.064-.199.063-.2.064-.201.064-.202.064-.204.064-.206.064-.207.064-.207.065-.211.063-.211.064-.211.065-.212.063-.214.064-.213.064-.214.064-.213.065-.214.064-.213.064-.212.064-.212.063-.211.064-.211.064-.209.064-.209.064-.208.065-.206.064-.206.064-.206.063-.205.064-.205.064-.204.064-.204.064-.204.065-.204.064-.204.064-.204.064-.205.064-.204.063-.206.064-.204.064-.205.064-.206.065-.205.064-.205.064-.205.064-.203.063-.203.064-.203.064-.201.064-.199.064-.199.065-.197.064-.195.064-.193.063-.192.065-.19.063-.188.064-.188.064-.187.065-.186.064-.187.064-.187.064-.188.064-.189.063-.192.064-.194.064-.196.064-.201.065-.204.064-.209.064-.212.064-.217.063-.22.065-.225.063-.228.064-.232.064-.234.065-.236.064-.238.064-.239.064-.238.064-.239.063-.216.064-.176.064-.137.065-.098.064-.062.064-.226.064-.222.064-.219.063-.217.064-.213.065-.211.063-.209.065-.207.064-.205.064-.192.064-.169.064-.143.064-.117.063-.094.064-.07.065-.044.064-.022.064.002.064.022.064.04.064.061.063.078.064.096.064.112.065.13.064-.177.064-.158.064-.138.064-.12.064-.102.064-.082.064-.064.064-.043.064-.027.064-.007.064.009.064.025.064.04.064.055.064.069.063.083.065.098.064.111.064.125.064.138.064.151.064.163.064.174.063.187.065.195.064-.169.064-.155.064-.143.064-.129.064-.119.064-.106.064-.092.064-.08.064-.066.064-.053.064-.035.064-.005.064.003.064.011.064.02.064.03.063.037.065.046.064.087.064.09.064.092.064.094.064.096.064.106.064.104.064-.099.064-.095.065-.092.063-.085.064-.082.064-.078.064-.073.064-.07.064-.065.065-.06.064-.055.063-.049.064-.044.064-.038.064-.033.064-.026.064-.022.065-.013.064-.008h.063l.064.005.064.013.064.019.064.025.064.031.064-.074.065-.067.064-.061.064-.054.063-.05.064-.046.064-.04.064-.039.064-.035.064-.032.065-.031.064-.028.063-.028.064-.025.064-.024.064-.021.064-.02.064-.017.065-.015.064-.013.063-.01.065-.006.063-.004.064.001.064.004.064-.007.064-.002h.065l.064.005.064.011.063.017.064.024.064.028.064.036.064.041.065.03.064.039.064.05.063.028.064.041.064.053.064.062.064.072.064.068.065.07.064.078.064.084.064.088.063.091.064.116.064.133.064.133.065.133.064.132.064.131.064.128.063.129.064.124.064.125.064.122.064.123.065.122.064.123.064.122.063.124.065.126.064.128.063.129.064.133.065.136.064.14.064.144.064.147.064.151.064.154.063.176.064.177.064.182.065.182.064.185.064.186.064.188.064.171.063.171.065.171.063.186.064.186.065.166.064.166.064.163.064.179.064.175.064.174.063.172.064.17.065.169.064.167.064.165.064.164.064.166.064.173.063.173.065.172.063.172.065.172.064.17.064.173.064.171.064.171.064.172.064.171.063.171.065.17.064.169.064.172.064.169.064.167.064.166.064.164.063.163.064.161.065.162.064.158.064.157.064.154.064.15.064.148.064.146.064.144.064.141.064.139.064.137.064.134.064.132.064.129.064.126.064.125.063.117.066.114.063.114.064.117.064.115.064.11.064.108.064.108.063.11.065.109.064.109.064.107.064.105.064.099.064.1.064.098.064.098.064.098.064.095.065.095.063.094.064.091.064.089.064.088.064.086.064.083.064.081.065.079.063.077.064.075.064.074.064.071.064.069.064.068.064.066.065.065.063.064.064.063.064.06.064.061.064-.002.064.005.064.017.064-.051.065-.032.064-.014.063.004.064.019.064.032.064.043.064.052.064.05.065.058.064.061.063.059.064.057.064.055.064.053.064.05.064.049.064.048.065.047.063.047.065.07.063.071.064.069.064.068.064.068.064.067.064.065.065.065.064.063.063.06.064.059.064.056.064.053.064.051.064.046.065.044.064.039.063.036.065.031.064.028.063.024.064.02.064.018.064.014.065.012.064.026.064.025.063.022.064.022.064.022.064.021.064.022.065.022.064.024.064.025.064.027.063.028.065.028.063.031.064.032.064.033.065.033.064.035.064.033.064.033.064.033.063.031.064.03.064.027.065.024.064.025.064.02.064.018.064.017.063.012.064.011.064.008.064.007.065.006.064.004.064.004.064.004.064.004.064.006.063.005.064.006.065.007.064.008.064.01.064.011.064.012.064.014.063.013.064.014.064.014h.065l.064-.001.064-.001.064-.002.064-.004.063-.005.065-.008.063-.009.064-.011.065-.013.064-.015.064-.016.064-.017.064-.019.064-.019.063-.02.064-.02.065-.02.064-.019.064-.018.064-.018.064-.016.064-.015.063-.013.064-.011.065-.033.064-.03.064-.029.064-.026.064-.024.064-.023.064-.021.064-.021.063-.019.064-.017.065-.018.064-.017.064-.015.064-.016.064-.019.064-.015.063-.014.064-.012.065-.01.064-.01.064-.009.064-.038.064-.032.064-.025.064-.018.064-.047.064-.034.064-.026.064-.015.064-.009.064-.008h.064l.064.004.064.007.064.009.065.016.063.017.064.017.064.018.064.017.064.018.064.019.064.019.064.018.064.019.064.019.064.019.064.018.064.02.064.02.064.018.064.02.064.019.065.019.063.02.064.019.064.02.064.019.064.018.064.019.064.017.065.016.063.014.064.014.064.012.064.012.064.009.064.003.064.007.065.001.063-.001.064.004.065.003.063-.003.064-.004.064-.005.064-.005.064.001h.129l.064.001h.063l.064.002.064.002.064.002.064.004.064.004.065.005.064.006.063.006.064.007.064.009.064.009.064.009.064.011.065.01.064.012.064.012.064.012.063.014.064.012.064.011.064.013.064.012.065.013.064.014.064.013.063.014.064.013.064.014.064.014.064.013.065.013.064.013.064.012.063.013.065.013.063.011.064.012.064.011.064.011.065.012.064.012.064.01.064.011.063.008.064.009.064.01.064.01.065.012.064.011.064.013.064.013.063.013.065.016.063.014.064.015.064.015.065.015.064.016.064.014.064.013.064.012.063.011.064.011.064.007.064.005.065.006.064.002h.064l.064-.003.063-.005.064-.007.065-.008.063-.009.065-.011.064-.012.064-.012.064-.014.064-.012.064-.013.064-.013.063-.011.064-.011.065-.062.064-.051.064-.13.064-.11.064-.089.064-.068.063-.05.064-.032.065-.019.064-.005.064.004.064.034.064.039.064.043.064.044.064.042.063.042.065.04.064.039.064.038.064.038.064.035.064.034.064.032.063.031.065.028.064.026.064.025.064.022.064.019.064.018.064.015.063.011.065.009.064.007.064.003.064.011.064.008.064.005.064.002h.128l.064-.005.064-.006.064-.007.064-.008.064-.009.064-.01.064-.011.064-.01.063-.012.065-.011.064-.011.064-.01.064-.01.064-.009.064-.009.064-.007.064-.008.064-.006.064-.005.065.004.063.005.064.005.064.007.064.007.064.008.064.008.065.009.064.009.063.01.064.01.064.012.064.011.064.011.064.012.063.011.066.013.063.012.064.011.064.012.064.011.064.012.064.011.064.013.065.012.064.011.064.011.063.011.064.012.064.014.064.013.064.013.064.015.065.014.064.015.063.017.064.015.064.015.064.015.064.015.064.013.065.012.064.01.063.007.065.006.063.003h.064l.064-.003.064-.006.064-.008.065-.016.064-.018.064-.021.063-.022.064-.023.064-.025.064-.024.064-.025.064-.023.065-.021.064-.02.063-.018.064-.014.064-.011.064-.008.064-.004h.064l.065.003.064.007.064.01.064.014.063.015.064.018.064.02.064.02.064.02.065.019.064.019.064.02.063.019.064.018.064.016.064.006.064.008.065.008.064.008.064-.011.063-.009.065-.004.064-.001.063.002.064.005.064.003.065.007.064.008.064.01.064.013.063.012.064.012.064.013.064.01.064.011.065.01.064.011.064.011.064.012.063.01.065.013.063.013.064.013.065.014.064.015.064.014.064.015.064.015.064.014.063.015.064.015.064.013.065.012.064.011.064.009.064.008.064.006.063.003h.065l.063-.002.065-.003.064-.007.064-.009.064-.01.064-.012.064-.013.064-.014.063-.015.064-.015.065-.014.064-.014.064-.013.064-.012.064-.009.064-.008.063-.006.064-.005.065-.002h.064l.064.001.064.003.064.004.064.005.064.005.064.006.063.006.065.005.064.003.064.005.064.002.064.001h.064l.064-.002.063-.004.066-.005.063-.007.064-.008.064-.009.064-.011.064-.011.064-.012.063-.012.065-.014.064-.012.064-.013.064-.011.064-.012.064-.011.064-.01.064-.009.064-.008.063-.006.066-.006.063-.004.064-.002.064-.001h.064l.064.002.064.003.063.004.066.006.063.007.064.008.064.009.064.009.064.011.064.01.064.011.064.011.064.011.064.012.064.01.064.009.064.006.064.006.064.004.064.002.065.002.064-.001.063-.001.064-.004.064-.004.064-.006.064-.008.064-.008.064-.009.065-.011.063-.01.064-.011.064-.011.064-.01.064-.01.064-.01.064-.01.064-.008.064-.008.065-.007.063-.005.064-.006.064-.006.064-.013.064-.01.064-.007.065-.006.064-.003.063-.003.064-.001h.128l.064.001.064.002.064.002.065.001.063.002.065.001.064.002.063.002h.064l.064.001.064.001.065.001.064.002h.064l.064-.002.063-.001.064-.002.064-.002.064-.003.064-.003.065-.004.064-.004.064-.005.063-.005.065-.007.063-.006.064-.007.064-.008.065-.009.064-.008.064-.009.064-.008.064-.009.063-.009.064-.009.064-.009.064-.01.065-.008.064-.009.064-.009.064-.009.063-.009.064-.009.064-.008.064-.009.065-.007.064-.007.064-.007.064-.006.064-.005.064-.004.063-.004.064-.003.064-.001h.065l.064.001.064.002.064.003.064.005.063.006.064.007.064.008.064.01.065.009.064.008.064.009.064.008.063.008.065.007.063.006.064.005.065.004.064.002.064.001h.064l.064-.002.064-.003.063-.004.064-.006.064-.006.065-.007.064-.007.064-.007.064-.006.064-.007.063-.006.064-.006.064-.003.065-.002.064-.003h.128l.064.003.064.002.064.003.064.006.063.005.065.005.064.006.064.006.064.006.064.007.064.007.064.007.063.007.065.008.064.007.064.01.064.008.064.009.064.009.064.01.064.01.064.01.064.012.064.01.064.01.064.009.064.008.064.007.064.007.064.005.063.002.065.001h.064l.064-.001.064-.005.064-.006.064-.007.064-.008.064-.009.064-.009.064-.01.064-.011.064-.009.064-.008.064-.008.064-.007.064-.006.064-.005.065-.004.063-.002.064-.002h.064l.064.001.064.001.064.002.064.002.065.002.063.002.064.001h.064l.064-.002.064-.002.064-.004.064-.005.064-.007.064-.008.064-.01.065-.011.063-.01.064-.012.064-.011.064-.012.064-.012.065-.011.064-.01.064-.009.063-.009.064-.007.064-.006.064-.006.064-.005.064-.003.065-.004.064-.001.063-.002.064-.002.064-.002.064-.001.064-.001h.064l.064-.001h.256l.064.001.064.001.064.003.064.002.065.003.064.004.064.005.063.005.064.005.064.005.064.006.064.005.064.006.065.005.064.004.063.005.065.003.063.003.064.004h.064l.064.001.065.002H343.107l.064.002.064.002.063.002.065.001.063.002.064.002.064.002.065.001h.319l.064-.002.064-.001.064-.002.065-.002.064-.003h.064l.064-.002h.255l.065.002.064.003.064.002.064.005.064.003.064.004.064.003.063.002.064.002.065.001.064-.001.064-.001.064-.004.064-.004.063-.007.064-.008.064-.009.064-.01.065-.01.064-.011.064-.011.064-.011.064-.011.064-.011.064-.008.063-.007.065-.005.064-.003h.064l.064.002.064.005.064.007.064.009.063.012.064.014.065.015.064.016.064.018.064.017.064.018.064.017.063.016.065.017.063.015.065.013.064.012.064.011.064.004.064.003.064.002h.064l.063-.002.065-.003.064-.004.064-.005.064-.006.064-.007.064-.008.064-.009.063-.009.064-.01.065-.011.064-.01.064-.01.064-.01.064-.01.064-.009.064-.01.064-.009.064-.008.065-.007.063-.007.064-.006.064-.006.064-.005.064-.004.064-.003.063-.003.066-.003.063-.002.064-.001.064-.002.064-.002.064-.002.064-.003.063-.002.066-.003.063-.004.064-.003.064-.005.064-.004.064-.005.064-.004.064-.005.064-.005.065-.003.064-.004.063-.004.064-.003.064-.001.064-.001.064.001.064.003.065.004.064.006.063.007.064.008.064.01.064.012.064.01.064.014.064.013.065.013.063.013.065.012.063.014.064.011.064.011.064.01.064.008.064.008.065.006.064.003.063.004.064.001h.064l.064-.001.064-.002.064-.004.065-.003.064-.005.063-.005.064-.004.064-.005.064-.005.064-.004.064-.004.064-.003.065-.003.064-.002.064-.001.063-.001.064.001.064.001.064.002.064.003.065.003.064.003.064.004.063.004.064.004.064.004.064.005.064.004.064.004.065.005.064.004.063.003.065.004.064.004.063.004.064.004.064.005.065.005.064.005.064.007.064.007.064.008.063.01.064.01.064.01.064.011.065.012.064.012.064.013.064.012.063.012.065.011.063.011.064.01.064.008.065.007.064.007.064.002.064.003h.064l.063-.003.064-.004.064-.006.065-.007.064-.009.064-.011.064-.011.064-.013.063-.014.065-.014.063-.014.064-.014.065-.014.064-.014.064-.015.064-.013.064-.012.064-.012.063-.011.064-.01.065-.011.064-.009.064-.008.064-.008.064-.006.064-.007.063-.005.064-.005.064-.004.065-.005.064-.003.064-.002.064-.002.064-.002h.128l.063.002h.065l.064.002.064.002.064.003.064.005.064.004.064.004.063.004.064.004.065.004.064.004.064.005.064.003.064.004.064.003.063.002.065.002.064.002.064.001.064.001h.064l.064-.001h.064l.064-.001.064-.002.064-.002.065-.003.063-.002.064-.002.064-.003.064-.002.064-.002.064-.002.064-.002.063-.001.065-.001.064-.001h.064l.064.001.064.001.064.002.064.003.064.003.064.004.064.004.064.005.064.006.064.006.064.008.064.006.064.007.064.006.065.006.063.006.064.006.064.005.064.005.064.003.064.003.064.003.065.001.063.001h.064l.064-.001.064-.002.064-.002.064-.003.064-.003.064-.003.064-.004.065-.003.063-.003.064-.003.064-.003.064-.003.064-.002.064-.002.064-.001h.065l.063.001.064.001.064.002.064.003.064.003.064.004.064.004.065.004.063.005.065.005.064.005.063.006.064.005.064.005.064.004.064.004.065.004.064.003.064.002.063.002.064-.001.064-.002.064-.002.064-.002.065-.003.064-.003.064-.004.063-.005.065-.004.063-.003.064-.005.064-.005.064-.004.065-.004.064-.005.064-.004.064-.004.063-.004.064-.003.064-.004.064-.004.065-.004.064-.004.064-.004.064-.005.063-.005.064-.008.064-.006.064-.007.064-.007.065-.007.064-.007.064-.008.064-.007.064-.007.063-.008.064-.007.064-.006.065-.006.064-.005.064-.004.064-.004.064-.003.063-.001.064-.001h.064l.064.001.065.002.064.003.064.003.064.002.063.002.065.002.063.003.064.003.065.003.064.003.064.003.064.002.064.002.064.002.063.003h.064l.064.002h.193l.064-.002h.064l.063-.002.064-.001.065-.002.063-.002.065-.003.064-.003.064-.003.064-.005.064-.004.064-.004.064-.004.063-.005.065-.004.064-.004.064-.004.064-.003.064-.003.064-.002.063-.003h.193l.064.002.064.002.064.002.064.003.063.002.065.003.064.003.064.002.064.002h.128l.064-.001.064-.002.064-.003.064-.004.063-.004.065-.005.064-.004.064-.005.064-.003.064-.004.064-.002.064.001.064.003.064.005.064.007.064.01.064.013.064.015.064.018.064.021.064.022.064.023.065.026.063.024.064.023.064.024.064.021.064.019.064.016.064.015.065.01.063.006.064.003.064-.001.064-.005.064-.008.064-.011.064-.014.064-.016.064-.017.064-.018.065-.02.063-.019.064-.019.064-.018.064-.018.064-.015.064-.014.065-.012.064-.011.063-.01.064-.009.064-.006.064-.006.064-.005.064-.004.065-.005.064-.004.063-.004.064-.005.064-.005.064-.006.064-.006.064-.006.064-.008.065-.006.064-.007.064-.006.063-.005.064-.005.064-.004.064-.002.064-.002.064-.001.065.001.064.001.063.003.064.003.064.003.064.004.064.004.064.004.065.003.064.003.063.001.065.001h.063l.064-.001.064-.002.064-.004.064-.003.065-.005.064-.005.064-.005.063-.006.064-.005.064-.005.064-.005.064-.004.065-.003.064-.004h.064l.063-.002h.128l.064.002.064.002.064.003.065.002.064.003.064.003.064.003.063.003.064.003.064.003.064.003.065.002.064.002.064.003.064.002.063.003.064.003.064.003.064.003.064.004.065.004.064.006.064.005.064.005.064.007.064.007.063.007.064.007.065.008.064.008.064.008.064.007.064.009.064.007.063.007.064.007.064.006.065.005.064.005.064.004.064.004.064.002.064.002h.064l.063-.001.064-.001.065-.002.064-.003.064-.003.064-.004.064-.004.064-.005.063-.005.064-.005.065-.005.064-.004.064-.005.064-.004.064-.003.064-.002h.128l.063.002.065.003.064.006.064.007.064.008.064.009.064.01.064.011.063.012.064.014.065.015.064.015.064.016.064.017.064.016.064.016.063.016.064.015.065.014.064.014.064.011.064.01.064.008.064.007.064.004.064.002h.063l.066-.003.063-.004.064-.007.064-.01.064-.011.064-.013.064-.015.063-.016.066-.017.063-.018.064-.019.064-.019.064-.019.064-.019.064-.02.063-.018.065-.017.064-.017.064-.014.064-.016.064-.013.064-.012.064-.011.064-.011.064-.009.065-.009.064-.008.063-.008.064-.007.064-.007.064-.006.064-.006.064-.006.064-.005.065-.005.063-.005.064-.004h.064l.064-.002.064.002.064.004.064.008.065.009.063.013.065.015.063.018.064.022.064.024.064.026.064.028.064.03.065.031.064.031.063.03.064.025.064.022.064.019.064.018.064.013.064.01.065.006.063.002.064-.002.064-.006.064-.009.064-.014.064-.016.064-.018.065-.02.064-.021.064-.022.063-.021.064-.021.064-.02.064-.017.064-.016.064-.012.065-.012.064-.007.063-.005.064-.002h.064l.064.002.064.003.064.005.065.007.064.007.063.007.065.008.064.006.063.007.064.006.064.005.064.004.065.004.064.003.064.002.064.004h.063l.064.002.064.003.064.002.065.003.064.002.064.003.063.003.064.003.065.004.063.005.064.005.064.005.065.005.064.005.064.005.064.005.064.004.063.004.064.005.064.004.065.003.064.003.064.002.064.003.064.002.063.002.065.001.063.002.064.002.065.002.064.001.064.001.064.002.064.001.064.001.063.001.064.001.064.001.065.001h.192l.064-.001h.063l.064-.001.064-.002.065-.001.064-.001.064-.002.064-.002.064-.002.064-.002.064-.002.063-.002.064-.002.065-.003.064-.002.064-.004.064-.003.064-.004.064-.004.063-.004.064-.005.064-.005.065-.006.064-.006.064-.006.064-.007.064-.007.063-.008.065-.008.064-.01.064-.008.064-.009.064-.008.064-.009.064-.008.064-.009.064-.007.064-.009.063-.007.065-.007.064-.007.064-.005.064-.005.064-.005.064-.004.063-.004.064-.003.065-.002.064-.001.064-.002h.064l.064-.001h.064l.064.001.064.001.064.001.064.001.064.001.064.002.064.001.064.002.064.002.064.001.064.002.065.002.063.001.064.002.064.002.064.002.064.002.064.003.064.003.064.003.064.004.064.004.064.005.064.005.064.007.064.006.064.007.064.007.064.007.065.008.063.007.064.007.064.007.064.007.064.005.064.005.064.002.065.003.063.001.064-.001.064-.003.064-.003.064-.006.064-.006.064-.007.064-.009.064-.009.065-.009.064-.01.063-.01.064-.011.064-.009.064-.009.064-.008.065-.006.064-.005.064-.003.063-.002h.064l.064.002.064.003.064.004.064.006.065.008.064.009.063.012.065.012.063.013.064.014.064.014.064.015.065.015.064.015.064.014.064.014.063.015.064.012.064.012.064.01.064.009.065.008.064.007.064.005.063.005.064.001.064-.001.064-.002.064-.005.065-.005.064-.005.064-.007.064-.007.064-.008.063-.009.064-.009.064-.011.064-.011.065-.01.064-.011.064-.012.064-.011.063-.013.064-.012.064-.012.064-.012.064-.012.065-.012.064-.013.064-.011.063-.011.065-.011.063-.011.064-.01.064-.008.065-.008.064-.005.064-.005.064-.002.064-.002.063.002.064.001.064.004.064.007.065.007.064.008.064.009.064.01.063.011.064.011.064.012.064.01.065.01.064.01.064.008.064.006.064.002h.064l.064-.001.063-.002.064-.004.065-.006.064-.007.064-.007.064-.009.064-.01.064-.01.063-.01.065-.009.064-.01.064-.008.064-.008.064-.008.064-.005.064-.005.064-.005.064-.002.063-.002.065-.001h.064l.064.001.064.002h.064l.064.002.064.003.063.002.065.003.064.004.064.003.064.004.064.003.064.004.064.004.064.004.064.004.064.005.064.005.064.005.064.006.064.005.064.007.064.005.064.007.063.007.065.006.064.006.064.005.064.005.064.004.064.004.064.003.063.003.065.003.064.002.064.002.064.001.064.002.064.001.064.001.064.002.064.002.064.002.065.002.063.003.064.004.064.003.064.004.064.004.064.005.065.004.064.004.063.003.064.002.064.002.064.001h.064l.064-.002.064-.002.065-.004.063-.005.064-.007.064-.008.064-.009.064-.011.064-.012.064-.011.065-.012.064-.012.064-.012.063-.013.064-.011.064-.01.064-.009.064-.007.064-.006.065-.004.064-.003.063-.002.064.001.064.001.064.005.064.005.064.007.064.007.065.008.063.009.065.009.063.008.064.01.064.009.064.007.064.008.065.006.064.005.064.004.063.004.064.002.064.001h.064l.064-.001.064-.001.065-.003.064-.003.063-.004.065-.004.063-.005.064-.005.064-.006.064-.007.065-.005.064-.007.064-.007.064-.007.063-.007.064-.008.064-.007.064-.008.064-.008.065-.007.064-.009.064-.007.063-.008.064-.007.065-.007.063-.006.064-.005.065-.005.064-.004.064-.004.064-.003.064-.002.064-.001.063-.001h.064l.064.001h.065l.064.001.064.002.064.001.064.001.063.001.064.001h.064l.065.001h.32l.064.001h.063l.064.001.065.002.064.002.064.002.064.003.064.004.064.003.063.004.064.005.064.004.065.004.064.004.064.002.064.003.064.002.063.002.065.001.063-.001h.065l.064-.002h.256l.064.002.063.003.064.004.065.005.064.008.064.01.064.012.064.014.064.015.063.017.064.018.065.017.064.018.064.017.064.016.064.013.064.012.064.008.064.005.063.002h.066l.063-.006.064-.008.064-.011.064-.014.064-.015.064-.019.063-.019.066-.018.063-.017.064-.016.064-.014.064-.01.064-.007.064-.003h.063l.065.005.064.007.064.011.064.015.064.016.064.017.064.018.064.018.064.018.064.015.065.013.063.01.064.007.064.002.064-.002.064-.007.064-.01.064-.013.065-.017.063-.019.064-.02.064-.021.064-.022.064-.02.064-.019.064-.017.064-.015.064-.013.065-.008.063-.006.064-.002h.064l.064.004.064.006.064.008.065.01.064.011.063.011.064.011.064.011.064.009.064.008.064.009.064.006.065.006.063.004.064.005.064.004.064.004.064.004.064.005.064.007.064.007.065.009.064.012.063.012.064.013.064.015.064.015.064.017.064.016.065.015.064.014.063.014.064.009.064.005.064.002.064-.002.064-.005.064-.009.065-.013.063-.015.065-.019.064-.023.063-.024.064-.026.064-.028.064-.027.065-.027.064-.028.064-.025.064-.022.063-.021.064-.017.064-.014.064-.009.064-.007.065-.002.064.002.064.008.063.009.065.013.063.015.064.018.064.018.065.02.064.02.064.02.064.02.064.018.063.017.064.015.064.015.064.011.065.009.064.007.064.004.064.003.063.001h.065l.063-.001.064-.003.065-.003.064-.003.064-.003.064-.003.064-.003.064-.003.063-.001h.064l.064.001.065.002.064.003.064.003.064.005.064.004.063.005.064.005.064.006.064.005.065.004.064.003.064.003.064.001.064.001h.127l.064-.001.065-.001.064-.003.064-.002h.064l.064-.001.064-.002.063.002.064.001.064.002.065.005.064.005.064.006.064.007.064.007.063.008.065.008.064.008.063.007.065.007.064.005.064.005.064.003h.064l.064-.001.064-.003.063-.007.065-.007.064-.01.064-.011.064-.013.064-.014.064-.015.064-.017.063-.016.065-.015.064-.015.064-.015.064-.014.064-.012.064-.01.064-.009.064-.008.064-.005.064-.005.064-.002.064-.001.064.001h.064l.064.004.064.003.064.003.063.004.065.004.064.004.064.003.064.003.064.002.064.002.064.001.064.001.064-.001.064-.001.064-.002.064-.002.064-.003.064-.003.064-.004.064-.004.064-.005.065-.004.064-.005.063-.005.064-.005.064-.004.064-.004.064-.004.064-.003.065-.003.063-.003.064-.003.064-.002.064-.002.064-.001.064-.002.064-.001.064-.001h.064l.065-.001.064-.001h.063l.064-.001.064-.001h.064l.064-.001h.193l.063.001.064.002.064.002.064.003.064.004.064.004.065.004.064.006.063.007.065.008.063.009.064.01.064.011.064.011.064.011.065.012.064.013.064.012.063.012.064.012.064.01.064.01.064.01.065.009.064.008.064.007.063.006.064.004.064.005.064.003h.193l.064-.001.064-.001.064-.002.063-.002.064-.003.064-.003.064-.003.065-.004.064-.004.064-.004.064-.005.063-.006.064-.007.064-.006.064-.007.064-.006.065-.007.064-.007.064-.006.063-.006.065-.005.063-.005.064-.005.064-.003.064-.004.065-.001h.128l.064.001.063.002.064.002.064.004.064.003.065.002.064.002.064.001h.064l.063-.001.064-.003.065-.004.063-.006.064-.007.065-.008.064-.01.064-.01.064-.011.064-.011.064-.012.063-.011.064-.012.065-.009.064-.008.064-.006.064-.004.064-.003h.064l.063.002.065.003.063.006.065.007.064.008.064.01.064.011.064.009.064.012.064.011.063.01.064.009.065.009.064.007.064.006.064.006.064-.002h.064l.063-.004.064-.003.065-.005.064-.006.064-.006.064-.007.064-.008.064-.008.064-.008.064-.009.063-.011.065-.009.064-.01.064-.01.064-.009.064-.01.064-.01.064-.01.063-.009.065-.008.064-.008.064-.006.064-.006.064-.005.064-.003.064-.002.063-.001.065.002.064.004.064.005.064.007.064.009.064.01.064.013.064.013.064.014.064.014.065.015.063.015.064.015.064.014.064.013.064.012.064.011.063.01.066.008.063.007.064.005.064.004.064.002.064.001h.064l.064-.001.065-.001.063-.002.064-.003.064-.002.064-.003.064-.003.064-.004.064-.003.064-.005.065-.003.064-.004.063-.005.064-.005.064-.005.064-.005.064-.006.064-.006.064-.007.065-.007.063-.006.064-.009.064-.007.064-.007.064-.005.064-.007.064-.005.065-.005.063-.003.065-.002.063-.001.064.001.064.002.064.004.064.004.064.007.065.007.064.01.063.009.064.01.064.011.064.011.064.011.064.011.065.01.064.01.063.008.065.007.063.005.064.004.064.003h.064l.064-.001.065-.003.064-.005.064-.007.063-.008.064-.011.064-.01.064-.014.064-.014.065-.015.064-.015.064-.016.063-.016.064-.015.065-.016.063-.014.064-.015.064-.013.065-.012.064-.01.064-.01.064-.008.064-.008.063-.005.064-.005.064-.003.064-.001.065-.003h.128l.064.001.063.002.064.002.064.003.064.004.065.005.064.003.064.007.064.005.064.007.064.006.063.007.064.008.064.007.065.008.064.008.064.007.064.008.064.007.063.006.064.005.064.004.065.003.064.002.064.001.064-.001.064-.002.063-.003.065-.005.063-.005.064-.006.065-.007.064-.007.064-.007.064-.007.064-.006.064-.005.063-.005.064-.003.065-.002h.128l.064.002.064.002.064.004.063.004.064.005.064.006.065.003.064.006.064.003.064.004.064.003.064.003.064.002.063.001.066.001.063.001.064.001.064.001.064.001.064.002.064.003.063.003.064.003.065.004.064.005.064.005.064.005.064.005.064.005.063.005.065.003.064.002h.128l.064-.002.064-.005.064-.006.064-.006.064-.008.064-.007.065-.008.063-.008.064-.006.064-.004.064-.003.064.002.064.004.064.005.064.01.064.013.064.017.064.019.064.024.064.024.064.027.064.027.064.027.064.025.065.023.063.021.064.016.064.014.064.008.064.003.064-.002.064-.007.065-.012.063-.016.064-.021.064-.023.064-.026.064-.028.064-.028.064-.029.065-.027.063-.025.064-.023.064-.02.064-.015.064-.012.064-.01.064-.004.064-.001.065.003.064.005.063.007.064.01.064.011.064.012.064.012.064.012.064.013.065.012.063.011.064.009.064.009.064.009.064.005.064.005.064.006.065.003.063.004.065.005.064.005.063.004.064.004.064.004.064.004.064.003.065.003.064.002.064.001h.063l.064-.002.064-.003.064-.004.064-.006.065-.008.064-.008.064-.011.063-.01.065-.011.063-.012.064-.012.064-.011.064-.01.065-.009.064-.006.064-.005.064-.003.063-.001.064.001.064.003.064.004.065.007.064.005.064.007.064.007.063.008.065.006.063.005.064.005.064.003.065.001.064.001.064-.001.064-.002.064-.004.063-.004.064-.004.064-.005.065-.004.064-.003.064-.003.064-.001h.064l.063.001.064.003.064.005.064.007.065.008.064.009.064.01.064.011.064.011.064.012.063.011.064.01.064.009.065.008.064.006.064.005.064.002.064.001.063-.001.064-.002.064-.005.065-.005.064-.006.064-.006.064-.007.064-.006.063-.006.065-.005.064-.004.063-.002.065-.001.064.001.064.003.064.005.064.007.064.009.064.01.063.011.065.014.064.013.064.014.064.013.064.012.064.011.064.01.063.009.065.006.064.004.064.001.064-.002.064-.004.064-.007.064-.011.064-.012.064-.014.063-.016.065-.018.064-.019.064-.02.064-.02.064-.02.064-.019.064-.017.063-.016.065-.016.064-.012.064-.01.064-.008.064-.005.064-.003h.064l.064.002.064.004.064.005.064.007.064.008.064.009.064.009.064.009.064.008.064.008.065.006.063.005.064.004.064.002.064.001.064-.002.064-.003.064-.005.063-.005.065-.007.064-.009.064-.009.064-.01.064-.011.064-.01.064-.009.064-.009.064-.008.065-.007.064-.007.063-.004.064-.004.064-.003h.064l.064.002.064.002.065.003.064.004.063.006.064.006.064.007.064.007.064.007.064.008.064.007.065.007.063.006.065.005.063.003.064.005.064.002.064.002.064.001h.065l.064-.001.064-.002.063-.002.064-.003.064-.003.064-.004.064-.003.064-.004.065-.004.064-.003.063-.003.064-.003.064-.002.064-.003.064-.002.064-.002.065-.002.064-.003.064-.002.064-.002.063-.002.064-.001.064-.002.064-.001h.129l.064.001.064.002.063.003.064.004.064.005.064.006.064.007.065.009.064.01.064.011.063.012.065.012.063.012.064.013.064.014.064.009.065.009.064.007.064.007.064.004.063.003h.064l.064-.001.064-.004.065-.006.064-.008.064-.01.064-.012.063-.014.064-.015.065-.015.063-.016.064-.017.065-.016.064-.016.064-.014.064-.013.064-.012.064-.012.063-.008.064-.009.064-.007.065-.006.064-.003.064-.001h.064l.064.002.063.003.065.005.063.006.065.008.064.008.064.01.064.011.064.011.064.012.064.013.063.013.064.014.065.013.064.014.064.013.064.013.064.013.064.012.063.007.064.006.064.005.065.003.064.002h.064l.064-.002.064-.003.064-.005.064-.007.063-.008.065-.01.064-.009.064-.01.064-.011.064-.01.064-.01.064-.009.063-.007.064-.008.065-.005.064-.003.064-.002h.064l.064.001h.064l.063.001.065.001.064.004.064.002.064.003.064.002h.064l.064.002.064-.002h.064l.063-.004.066-.005.063-.005.064-.007.064-.008.064-.009.064-.009.064-.009.063-.01.066-.009.063-.009.064-.008.064-.007.064-.005.064-.005.064-.003.064-.002h.064l.064.002.064.002.064.005.064.005.064.007.064.007.064.008.064.01.065.01.064.01.063.01.064.01.064.01.064.011.064.009.064.01.064.009.065.009.063.007.064.007.064.005.064.004.064.002.064.001h.064l.064-.002.064-.003.065-.004.063-.005.064-.006.064-.007.064-.008.064-.009.064-.007.065-.007.064-.008.063-.007.064-.005.064-.004.064-.002h.064l.064.001.064.003.065.005.063.007.065.01.063.009.064.012.064.013.064.012.064.014.065.013.064.014.064.013.063.011.064.011.064.009.064.007.064.007.064.003.065.002.064.002.063-.002.064-.003.065-.004.063-.007.064-.007.064-.009.064-.009.065-.009.064-.01.064-.011.064-.011.063-.012.064-.01.064-.01.064-.009.065-.008.064-.008.064-.006.064-.005.063-.005.064-.002.064-.002h.064l.064.002.065.002.064.005.064.005.064.006.064.006.063.008.064.008.064.008.065.007.064.008.064.007.064.007.064.005.063.004.064.001.064.002.064-.002.065-.001.064-.004.064-.005.064-.006.063-.008.065-.008.063-.009.064-.009.065-.01.064-.01.064-.01.064-.01.064-.009.064-.008.063-.008.064-.008.064-.006.065-.007.064-.005.064-.007.064-.005.064-.004.063-.003.064-.005.064-.003.064-.003.065-.003.064-.002.064-.001.064-.001h.064l.064.001.063.003.064.003.065.004.064.007.064.007.064.008.064.01.064.01.063.01.064.011.065.011.064.011.064.009.064.01.064.008.064.007.063.004.065.004.064.001.064-.001.064-.002.064-.004.064-.006.064-.007.064-.009.064-.008.064-.011.063-.009.065-.009.064-.008.064-.008.064-.006.064-.005.064-.003.064-.002h.064l.064.001.064.003.064.004.064.006.064.007.064.008.064.009.064.01.064.011.065.012.063.011.064.011.064.012.064.011.064.011.064.012.064.01.065.01.063.01.064.008.064.008.064.006.064.007.064.004.064.001h.064l.064-.001.064-.004.064-.005.064-.008.064-.009.064-.01.064-.012.064-.013.064-.014.065-.016.063-.015.064-.015.064-.014.064-.015.064-.012.064-.011.064-.008.065-.007.063-.004.064-.002h.064l.064.003.064.005.064.006.064.008.064.009.064.009.065.011.064.01.063.012.064.01.064.009.064.008.064.006.065.006.064.003.064.002.063.002.064-.002.064-.003.064-.003.064-.004.064-.006.065-.005.064-.006.063-.007.065-.006.063-.006.064-.006.064-.007.064-.007.065-.007.064-.006.064-.004.064-.005.063-.004.064-.003.064-.003.064-.002.064-.002.065-.001h.128l.063.001.065.001.063.003.064.003.064.004.065.005.064.005.064.006.064.007.064.007.063.005.064.006.064.004.064.003.065.002.064.002h.064l.064-.001.063-.002.064-.003.064-.006.064-.006.064-.009.065-.007.064-.01.064-.01.064-.01.064-.011.063-.009.064-.009.064-.009.065-.007.064-.006.064-.004.064-.002h.127l.064.003.064.004.064.005.065.007.064.009.064.009.064.01.063.01.065.01.064.011.063.012.065.009.064.012.064.009.064.01.064.008.064.009.064.007.063.008.064.005.065.007.064.005.064.005.064.004.064.003.064.002.063.002.065.002.064.001.064.001.064.001h.383l.065-.001h.064l.064-.001.064-.001h.064l.064-.001.064-.001h.063l.065-.001.064-.001.064-.001.064-.001.064-.001.064-.002.064-.003.064-.002.064-.003.064-.002.064-.004.064-.003.064-.004.064-.004.064-.003.064-.004.064-.003.063-.003.065-.002.064-.002.064-.001h.192l.064.002.063.002.066.002.063.003.064.003.064.003.064.002.064.003.064.002h.193l.064-.002.063-.003.064-.005.064-.005.064-.007.064-.008.064-.008.065-.009.064-.01.063-.011.064-.009.064-.012.064-.009.064-.01.064-.008.064-.007.065-.006.063-.004.065-.005h.191l.064.004.064.004.064.004.065.006.064.006.063.006.064.007.064.006.064.006.064.004.064.005.065.003.064.002h.127l.064-.002.064-.003.064-.005.064-.005.064-.006.065-.007.064-.007.064-.007.063-.007.064-.007.064-.007.064-.003.064-.004.065-.003.064-.002h.064l.063.002.064.003.064.005.064.005.064.007.064.008.065.008.064.009.063.01.065.011.063.009.064.01.064.009.064.008.065.008.064.006.064.005.064.005.063.004.064.003.064.003.064.003.064.002.065.002.064.003.064.002.063.003.064.002.065.003.063.004.064.004.065.004.064.005.064.005.064.005.064.006.064.006.063.005.064.006.064.005.065.003.064.002.064.002.064.001h.064l.063-.001.065-.002.063-.002.064-.005.065-.004.064-.006.064-.005.064-.007.064-.006.064-.007.063-.007.064-.007.065-.007.064-.005.064-.007.064-.005.064-.004.064-.003.063-.002.064-.001.064-.002.065-.001h.128l.064.001.064.002.064.003.064.002.063.003.064.002.065.003.064.002.064.002.064.001h.191l.064-.001.065-.002.064-.004.064-.003.064-.003.064-.004.064-.004.063-.004.065-.006.062-.005"/><path d="M234.252 184.647h268.731V45.718H234.252z" fill="#fff"/><path stroke-width="1.1997" stroke-linejoin="round" fill="none" stroke="#e5e5e5" d="M267.573 184.647V45.718M301.203 184.647V45.718M334.833 184.647V45.718M368.463 184.647V45.718M402.093 184.647V45.718M435.724 184.647V45.718M469.354 184.647V45.718M502.984 184.647V45.718M502.984 179.464H234.252M502.984 146.859H234.252M502.984 114.255H234.252M502.984 81.651H234.252M502.984 49.046H234.252"/><path stroke-width="1.1997" stroke-linecap="square" stroke-linejoin="round" fill="none" stroke="#323232" d="M234.252 184.647h268.732M234.252 45.718h268.732M267.573 184.647v-2.687M301.203 184.647v-2.687M334.833 184.647v-2.687M368.463 184.647v-2.687M402.093 184.647v-2.687M435.724 184.647v-2.687M469.354 184.647v-2.687M502.984 184.647v-2.687M267.573 45.718v2.687M301.203 45.718v2.687M334.833 45.718v2.687M368.463 45.718v2.687M402.093 45.718v2.687M435.724 45.718v2.687M469.354 45.718v2.687M502.984 45.718v2.687"/><symbol id="k"><path d="M.104.104H0V0h.104v.104z"/></symbol><symbol id="l"><path d="M.015.188C.032.07.108 0 .216 0c.079 0 .149.038.191.103a.529.529 0 0 1 .064.29.453.453 0 0 1-.06.263.204.204 0 0 1-.179.09C.097.746 0 .645 0 .505 0 .372.09.278.218.278c.067 0 .117.024.162.079C.379.177.323.078.222.078c-.062 0-.105.04-.119.11H.015m.216.481C.313.669.375.6.375.507.375.418.315.356.228.356.143.356.09.416.09.512c0 .091.059.157.141.157z"/></symbol><use xlink:href="#f" transform="matrix(9.99984 0 0 -9.99984 259.831 199.019)" fill="#323232"/><use xlink:href="#k" transform="matrix(9.99984 0 0 -9.99984 265.89 198.789)" fill="#323232"/><use xlink:href="#j" transform="matrix(9.99984 0 0 -9.99984 268.15 199.019)" fill="#323232"/><use xlink:href="#l" transform="matrix(9.99984 0 0 -9.99984 298.034 199.019)" fill="#323232"/><use xlink:href="#l" transform="matrix(9.99984 0 0 -9.99984 327.102 199.019)" fill="#323232"/><use xlink:href="#k" transform="matrix(9.99984 0 0 -9.99984 333.151 198.789)" fill="#323232"/><use xlink:href="#j" transform="matrix(9.99984 0 0 -9.99984 335.411 199.019)" fill="#323232"/><use xlink:href="#g" transform="matrix(9.99984 0 0 -9.99984 362.893 198.789)" fill="#323232"/><use xlink:href="#b" transform="matrix(9.99984 0 0 -9.99984 367.863 199.019)" fill="#323232"/><use xlink:href="#g" transform="matrix(9.99984 0 0 -9.99984 391.96 198.789)" fill="#323232"/><use xlink:href="#b" transform="matrix(9.99984 0 0 -9.99984 396.93 199.019)" fill="#323232"/><use xlink:href="#k" transform="matrix(9.99984 0 0 -9.99984 402.93 198.789)" fill="#323232"/><use xlink:href="#j" transform="matrix(9.99984 0 0 -9.99984 405.19 199.019)" fill="#323232"/><use xlink:href="#g" transform="matrix(9.99984 0 0 -9.99984 430.154 198.789)" fill="#323232"/><use xlink:href="#g" transform="matrix(9.99984 0 0 -9.99984 435.713 198.789)" fill="#323232"/><use xlink:href="#g" transform="matrix(9.99984 0 0 -9.99984 459.22 198.789)" fill="#323232"/><use xlink:href="#g" transform="matrix(9.99984 0 0 -9.99984 464.78 198.789)" fill="#323232"/><use xlink:href="#k" transform="matrix(9.99984 0 0 -9.99984 470.19 198.789)" fill="#323232"/><use xlink:href="#j" transform="matrix(9.99984 0 0 -9.99984 472.45 199.019)" fill="#323232"/><use xlink:href="#g" transform="matrix(9.99984 0 0 -9.99984 497.414 198.789)" fill="#323232"/><use xlink:href="#c" transform="matrix(9.99984 0 0 -9.99984 502.294 198.779)" fill="#323232"/><path stroke-width="1.1997" stroke-linecap="square" stroke-linejoin="round" fill="none" stroke="#323232" d="M234.252 184.647V45.718M502.984 184.647V45.718M234.252 179.464h2.688M234.252 146.859h2.688M234.252 114.255h2.688M234.252 81.651h2.688M234.252 49.046h2.688M502.984 179.464h-2.688M502.984 146.859h-2.688M502.984 114.255h-2.688M502.984 81.651h-2.688M502.984 49.046h-2.688"/><use xlink:href="#h" transform="matrix(9.99984 0 0 -9.99984 213.474 180.614)" fill="#323232"/><use xlink:href="#g" transform="matrix(9.99984 0 0 -9.99984 217.364 183.014)" fill="#323232"/><use xlink:href="#b" transform="matrix(9.99984 0 0 -9.99984 222.334 183.244)" fill="#323232"/><use xlink:href="#h" transform="matrix(9.99984 0 0 -9.99984 220.573 148.01)" fill="#323232"/><use xlink:href="#j" transform="matrix(9.99984 0 0 -9.99984 223.793 150.64)" fill="#323232"/><use xlink:href="#b" transform="matrix(9.99984 0 0 -9.99984 223.585 118.035)" fill="#323232"/><use xlink:href="#j" transform="matrix(9.99984 0 0 -9.99984 223.505 85.43)" fill="#323232"/><use xlink:href="#g" transform="matrix(9.99984 0 0 -9.99984 218.09 52.596)" fill="#323232"/><use xlink:href="#b" transform="matrix(9.99984 0 0 -9.99984 223.06 52.826)" fill="#323232"/><path stroke-width="2.9997000000000003" stroke-linejoin="round" fill="none" stroke="#0072bd" d="m234.22 103.518.063-.539.117-.953.117-.868.118-.767.117-.653.118-.536.117-.403.117-.258.118-.116.117.021.117.158.118.286.117.389.118.491.117.27.117.346.118.399.118.427.116.451.118.453.117.438.118.416.117.377.117.329.118.286.118.228.116.175.118.123.118.068.117.007.117-.036.117-.09.118-.132.118-.181.116-.24.118-.285.118-.33.117-.381.117-.422.118-.599.117-.617.118-.647.117-.662.117-.66.118-.662.117-.653.117-.618.118-.56.117-.509.118-.425.117-.342.117-.24.118-.129.117-.026.117.087.118.185.117.273.118.342.117.396.117.416.118.42.117.392.117.329.118.254.117.092.118-.041.116-.17.118-.313.118-.434.117-.56.117-.64.118-.699.117-.703.118-.665.116-.575.118-.42.118-.216.117.053.117.367.118.727.117 1.112.118 1.52.116 1.938.118 2.339.118 2.711.118 3.05.116 3.332.118 3.544.118 3.68.117 3.639.116 3.587.118 3.438.118 3.214.118 2.886.116 2.498.118 2.036.118 1.524.117.979.117.414.117-.146.118-.689.118-1.2.116-1.656.118-2.057.117-2.384.118-2.641.117-2.812.117-2.89.118-2.889.118-2.845.116-2.719.118-2.544.117-2.331.118-2.1.117-1.902.117-1.66.118-1.421.118-1.199.116-1.013.118-.861.117-.748.118-.679.117-.647.117-.648.118-.677.117-.726.117-.78.118-.854.117-.92.118-.963.117-.989.117-.993.118-.97.118-.92.116-.826.118-.714.117-.577.118-.422.117-.261.117-.096.118.078.118.225.116.356.118.473.118.537.117.579.117.594.118.557.117.492.118.396.116.286.118.109.118-.013.117-.186.117-.341.118-.486.117-.572.118-.679.117-.78.117-.839.118-.847.117-.802.117-.754.118-.692.117-.606.118-.506.117-.382.117-.258.118-.131.117-.005.117.103.118.206.117.282.118.355.117.401.117.437.118.45.117.459.117.44.118.439.117.412.118.394.117.382.117.367.118.368.117.383.117.39.118.43.117.479.118.506.117.577.117.641.118.718.118.801.116.873.118.944.117 1.016.118 1.067.116 1.114.118 1.175.118 1.187.118 1.192.116 1.184.118 1.157.118 1.12.117 1.07.117.997.117.919.118.813.118.73.116.619.118.501.118.395.117.248.117.045.117-.084.118-.201.118-.312.116-.419.118-.508.118-.597.117-.679.117-.715.117-.751.118-.755.118-.732.116-.685.118-.624.117-.538.118-.418.117-.279.117-.101.118.066.118.281.116.508.118.736.117.979.118 1.217.117 1.455.117 1.472.118 1.681.118 1.877.116 2.044.118 2.195.117 2.312.118 2.387.117 2.442.117 2.456.118 2.432.118 2.37.116 2.271.118 2.138.118 1.952.117 1.752.117 1.513.117 1.242.118.959.118.644.116.308.118-.022.118-.382.117-.725.117-1.062.118-1.395.117-1.709.118-1.966.116-2.205.118-2.419.118-2.586.117-2.716.117-2.813.118-2.868.117-2.891.118-2.871.117-2.83.117-2.738.118-2.607.117-2.471.117-2.308.118-2.142.117-1.983.118-1.841.117-1.687.117-1.548.118-1.422.117-1.316.117-1.239.118-1.168.117-1.137.118-.966.117-.952.117-.924.118-.887.117-.84.117-.751.118-.633.117-.491.118-.268.117-.023.117.276.118.617.117 1.012.117 1.415.118 1.884.117 2.326.118 2.766.117 3.22.117 3.606.118 3.959.118 4.238.116 4.477.118 4.612.117 4.644.118 4.569.117 3.579.117 3.314.118 2.973.118 2.545.116 2.041.118 1.496.118.902.117.301.117-.305.117-.895.118-1.453.118-1.952.116-2.385.118-2.738.118-3.009.117-3.176.117-3.253.118-3.228.117-3.116.118-2.919.116-2.65.118-2.317.118-1.952.117-1.554.117-1.148.118-.747.117-.357.118-.007.116.307.118.57.118.768.117.934.117 1.037.117 1.082.118 1.088.118 1.044.116.977.118.883.118.777.117.672.117.558.117.467.118.389.118.322.116.279.118.278.118.283.117.306.117.368.117.429.118.384.118.466.116.53.118.612.118.671.117.722.117.752.117.775.118.776.118.761.116.729.118.695.118.645.117.597.117.538.118.486.117.432.118.385.116.345.118.318.118.288.117.274.117.264.118.265.117.27.118.194.117.197.117.198.118.189.117.182.117.172.118.149.117.125.118.093.117.059.117.016.118-.023.117-.069.117-.112.118-.153.117-.187.118-.223.117-.226.117-.244.118-.265.117-.283.117-.295.118-.305.117-.32.118-.327.117-.413.117-.432.118-.463.117-.496.117-.542.118-.585.117-.636.118-.707.117-.774.117-.844.118-.914.118-.981.116-1.053.118-1.122.117-1.178.118-1.23.117-1.268.117-1.296.118-1.311.118-1.318.117-1.302.117-1.28.118-1.246.117-1.19.117-1.143.118-1.122.117-1.053.118-.979.116-.861.118-.781.118-.715.117-.628.118-.543.117-.418.117-.337.118-.257.116-.186.118-.115.118-.047.117.012.117.066.118.112.117.152.118.184.116.214.118.227.118.238.117.257.118.256.117.274.117.238.118.248.116.261.118.267.118.282.117.303.117.341.117.391.118.434.118.5.117.572.117.646.118.728.117.809.118.892.116.959.118 1.029.118 1.082.116 1.111.118 1.137.118 1.126.118 1.103.116 1.052.117.966.118.861.118.607.116.451.118.275.118.081.118-.123.117-.341.117-.555.117-.754.118-.928.117-1.109.117-1.257.118-1.385.118-1.471.117-1.508.117-1.52.117-1.491.118-1.421.118-1.303.116-1.154.118-.978.117-.757.118-.52.117-.251.117.033.118.318.117.381.117.664.118.928.117 1.184.117 1.426.118 1.626.117 1.819.118 1.964.118 2.087.116 2.168.118 2.232.117 2.247.118 2.236.117 2.189.117 2.118.118 2.015.118 1.895.116 1.744.118 1.582.117 1.396.118 1.199.117 1.002.117.8.118.588.118.379.116-.235.118-.407.118-.577.117-.725.117-.876.118-1.005.117-1.125.117-1.23.117-1.328.118-1.41.118-1.491.117-1.576.117-1.627.118-1.68.117-1.723.118-1.759.117-1.794.117-1.815.118-1.833.116-1.835.118-1.833.118-1.805.117-1.793.118-1.73.117-1.657.117-1.728.118-1.601.117-1.447.117-1.288.118-1.089.117-.885.118-.647.117-.404.117-.153.118.106.117.361.117.615.118.845.117 1.055.118 1.251.117 1.41.117 1.536.118 1.623.117 1.662.117 1.658.118 1.613.117 1.523.118 1.391.117 1.218.117 1.016.118.274.118.056.116-.174.118-.407.117-.63.118-.834.117-1.021.117-1.184.118-1.314.118-1.403.116-1.462.118-1.48.118-1.459.117-1.403.117-1.319.117-1.211.118-1.073.116-.919.118-.754.118-.585.118-.413.117-.248.117-.109.117.035.118.169.118.114.116.204.118.278.118.351.117.408.117.439.117.47.118.492.118.512.116.54.118.571.118.592.117.635.117.663.117.706.118.754.118.784.116.838.118.862.117.896.118.931.117.948.117.953.118.933.118.93.116.751.118.702.117.647.118.587.117.516.117.456.118.385.118.334.116.271.118.252.118.211.117.205.117.208.117.227.118.261.118.304.116.36.118.417.118.48.117.534.117.583.118.621.117.638.118.63.116.602.118.457.118.382.117.269.117.137.118-.021.117-.2.118-.396.117-.597.117-.807.118-1.018.117-1.208.117-1.397.118-1.55.117-1.688.118-1.776.117-1.83.117-1.858.118-1.823.117-1.762.117-1.658.118-1.516.117-1.347.118-1.135.117-.911.117-.651.118-.446.117-.175.117.08.118.34.117.578.118.783.117.971.117 1.116.118 1.234.117 1.316.117 1.353.118 1.365.117 1.337.118 1.277.117 1.186.117 1.073.118.948.118.801.116.648.118.49.117.331.118.174.117.033.117-.109.118-.233.118-.394.116-.49.118-.59.118-.662.117-.73.117-.796.117-.846.118-.893.118-.938.116-.972.118-1.023.118-1.059.117-1.098.117-1.13.118-1.144.117-1.165.118-1.18.116-1.189.118-1.175.118-1.156.117-1.119.117-1.066.118-1.005.117-.928.118-.837.116-.75.118-.65.118-.535.117-.408.117-.31.118-.194.117-.099.118-.014.116.047.118.114.118.16.117.179.117.187.117.172.118.152.118.125.116.089.118.062.118.034.117.01.117.002.117.013.118.03.118.063.116.113.118.147.118.221.117.294.117.378.117.444.118.517.118.573.116.615.118.631.118.631.118.592.116.557.118.478.117.392.118.293.116.189.118.062.118-.018.117-.095.117-.112.118-.111.117-.08.118-.034.117.09.117.299.118.357.117.624.117.891.118 1.211.117 1.512.118 1.794.117 2.076.117 2.305.118 2.497.117 2.619.117 2.671.118 2.655.117 2.537.118 2.342.117 2.063.117 1.713.118 1.266.117.792.117.3.118-.22.117-.74.118-1.221.117-1.677.117-2.034.118-2.333.117-2.743.117-2.826.118-2.764.117-2.624.118-2.367.117-2.005.117-1.57.118-1.058.118-.499.116.091.118.656.117 1.19.118 1.683.117 2.096.117 2.42.118 2.623.118 2.726.116 2.705.118 2.564.118 2.303.117 1.945.117 1.494.118.976.117.383.118-.205.116-1.039.118-1.579.118-2.057.117-2.476.117-2.811.118-3.04.117-3.16.118-3.172.117-3.092.117-2.888.118-2.597.117-2.227.117-1.796.118-1.333.117-.847.118-.368.116.102.118.525.118.896.117 1.201.117 1.448.118 1.598.117 1.691.118 1.707.116 1.667.118 1.388.118 1.269.117 1.124.117.972.118.835.117.734.118.648.116.607.118.606.118.685.117.802.117.966.117 1.155.118 1.384.118 1.607.116 1.839.118 2.015.118 2.19.118 2.327.116 2.404.117 2.405.118 2.325.118 2.149.116 1.9.118 1.557.118.685.118.247.116-.26.118-.78.117-1.32.118-1.866.117-2.379.117-2.867.118-3.295.118-3.639.116-3.912.118-4.101.117-4.174.118-4.147.117-4.01.117-3.789.118-3.46.118-3.054.116-2.578.118-2.038.117-1.466.118-.864.117-.246.117.339.118.914.117 1.457.117 1.898.118 2.278.117 2.598.118 2.814.117 2.969.117 3.037.118 3.026.117 2.938.117 2.784.118 2.573.117 2.314.118 2.017.117 1.703.117 1.373.118 1.05.117.727.117.441.118.166.117-.051.118-.226.117-.364.117-.448.118-.485.118-.473.116-.527.118-.439.118-.325.117-.186.117-.023.117.134.118.289.118.429.116.552.118.656.118.724.117.76.117.763.118.739.117.684.118.606.116.499.118.39.118.264.117.141.117.029.118-.077.117-.155.118-.211.117-.232.117-.288.118-.233.117-.155.117-.048.118.093.117.24.118.404.117.578.117.746.118.901.117 1.032.117 1.128.118 1.193.117 1.214.118 1.188.117 1.124.117 1.011.118.844.117.625.117.378.118.103.117-.203.118-.505.116-.822.118-1.123.118-1.495.117-1.743.117-1.968.118-2.146.117-2.274.118-2.363.116-2.391.118-2.378.118-2.296.118-2.173.116-2.018.118-1.828.117-1.602.118-1.363.116-1.114.118-.859.118-.608.118-.363.116-.145.118.054.118.228.117.362.117.473.117.558.118.591.118.545.116.566.118.522.117.436.118.354.117.253.117.185.118.068.118-.05.116-.156.118-.268.117-.358.118-.45.117-.528.117-.588.118-.631.118-.668.116-.692.118-.696.117-.701.118-.674.117-.65.117-.604.118-.559.117-.503.117-.498.118-.436.117-.38.118-.328.117-.278.117-.231.118-.198.118-.162.116-.14.118-.12.117-.109.118-.1.117-.102.117-.1.118-.099.118-.09.116-.067.118-.045.118-.004.117.056.117.131.117.223.118.332.118.452.116.588.118.597.118.743.117.868.117 1.027.118 1.185.117 1.327.118 1.512.116 1.62.118 1.667.118 1.741.117 1.83.117 1.797.118 1.835.117 1.802.118 1.729.117 1.645.117 1.544.118 1.419.117 1.289.117 1.157.118 1.031.117.889.118.751.117.622.117.502.118.085.117-.006.117-.07.118-.143.117-.213.118-.271.117-.324.117-.383.118-.443.117-.503.117-.555.118-.629.117-.699.118-.764.117-.841.117-.886.118-.945.117-.988.117-1.023.118-1.026.117-1.016.118-.964.116-.905.118-.806.118-.692.118-.718.116-.561.118-.406.117-.242.118-.078.116.079.118.214.118.308.118.39.116.42.118.411.118.379.117.286.117.161.118-.004.117-.197.118-.403.116-.612.118-.846.118-1.051.117-1.254.117-1.412.117-1.557.118-1.638.118-1.678.116-1.809.118-1.735.118-1.61.117-1.429.117-1.206.117-.942.118-.659.118-.358.116-.045.118.267.117.557.118.821.117 1.067.117 1.277.118 1.437.118 1.553.116 1.615.118 1.638.117 1.61.118 1.532.117 1.413.117 1.28.118 1.113.118.923.116.729.118-.061.117-.241.118-.406.117-.563.117-.72.118-.847.118-.963.116-1.067.118-1.154.118-1.229.117-1.303.117-1.356.117-1.406.118-1.449.118-1.476.116-1.492.118-1.485.118-1.482.117-1.461.117-1.408.118-1.349.117-1.259.118-1.142.117-1.002.117-.821.118-.782.117-.538.117-.298.118-.03.117.247.118.543.117.81.117 1.084.118 1.343.117 1.575.117 1.786.118 1.955.117 2.095.118 2.18.117 2.227.117 2.231.118 2.188.117 2.101.117 1.975.118 1.835.117 1.645.118 1.461.117 1.249.117 1.04.118.823.117.517.118.32.117.156.117.019.118-.115.117-.223.117-.301.118-.373.117-.417.117-.456.118-.48.117-.509.118-.527.117-.56.117-.587.118-.621.118-.662.117-.703.117-.769.118-.822.117-.882.116-.939.118-.988.118-1.024.118-1.052.116-1.105.118-1.095.118-1.056.117-.995.118-.894.117-.784.117-.655.118-.481.117-.308.117-.112.118.093.117.31.117.532.118.739.117.941.118 1.139.116 1.303.118 1.439.118 1.54.117 1.613.118 1.649.116 1.653.118 1.616.118 1.542.117 1.429.117 1.229.118 1.056.117.851.117.618.117.357.118.094.118-.181.116-.465.118-.751.118-1.02.117-1.286.118-1.521.116-1.743.118-1.934.118-2.098.118-2.222.116-2.317.117-2.356.118-2.383.117-2.352.117-2.305.118-2.217.118-2.101.118-1.963.116-1.794.118-1.63.118-1.43.117-1.242.117-1.045.117-.859.118-.674.118-.502.116-.34.118-.189.117-.087.117.042.118.154.117.291.118.393.118.424.116.524.118.601.117.724.118.792.117.872.117.95.118 1.009.117 1.075.117 1.126.118 1.16.117 1.16.118 1.164.117 1.137.117 1.096.118 1.016.117.914.117.784.118.635.117.467.118.277.117.085.117-.127.118-.319.117-.504.117-.674.118-.819.117-.925.118-1.011.117-1.033.117-1.039.118-1 .118-.903.116-.796.118-.642.118-.467.117-.295.117-.114.117.08.118.256.118.403.116.534.118.636.118.691.117.726.117.718.118.682.117.626.118.55.116.463.118.375.118.286.117.208.117.167.118.127.117.123.118.147.117.197.117.291.118.388.117.489.117.51.118.605.117.7.118.76.117.796.117.781.118.725.117.631.117.494.118.31.117.103.118-.129.117-.37.117-.595.118-.824.117-.994.117-1.131.118-1.203.117-1.198.118-1.107.116-.925.118-.666.118-.311.117.114.117.595.118.901.117 1.45.118 1.994.116 2.525.118 2.982.118 3.395.118 3.721.116 3.932.118 4.032.117 3.995.118 3.831.116 3.528.118 3.108.118 2.554.118 1.925.116 1.218.118.479.118-.301.117-1.064.117-1.79.117-2.455.118-3.038.118-3.528.116-3.897.118-4.133.118-4.326.117-4.266.117-4.086.117-3.793.118-3.395.118-2.926.116-2.398.118-1.834.118-1.262.117-.695.117-.151.117.339.118.77.118 1.137.116 1.433.118 1.65.117 1.793.118 1.865.117 1.872.117 1.832.118 1.758.118 1.641.116 1.496.118 1.365.117 1.249.118.846.117.763.117.698.118.666.118.642.116.628.118.63.117.636.118.639.117.615.117.586.118.524.118.431.116.306.118.143.118-.035.117-.253.117-.463.117-.679.118-.905.118-1.115.116-1.298.118-1.459.118-1.565.117-1.623.117-1.865.118-1.797.117-1.655.118-1.483.116-1.255.118-1.005.118-.725.117-.42.117-.131.118.15.117.424.118.648.117.838.117.961.118 1.036.117 1.056.117 1.021.118.94.117.821.118.655.117.47.117.263.118.058.117-.136.117-.311.118-.523.117-.629.118-.681.117-.69.117-.644.118-.538.117-.398.117-.211.118.002.117.241.118.493.117.746.117.991.118 1.206.117 1.398.117 1.547.118 1.649.117 1.701.118 1.699.117 1.643.117 1.535.118 1.384.118 1.19.116.966.118.712.117.356.118.089.116-.166.118-.404.118-.612.118-.782.116-.911.118-.989.118-1.007.117-.98.117-.893.118-.759.117-.576.118-.353.116-.1.118.177.118.469.117.763.117 1.047.118 1.311.117 1.548.118 1.748.116 1.899.118 2.018.118 2.061.117 1.957.117 1.867.117 1.715.118 1.499.118 1.234.116.919.118.556.118.168.117-.24.117-.66.117-1.076.118-1.473.118-1.825.116-2.16.118-2.449.118-2.682.117-2.851.117-2.956.117-2.987.118-2.955.118-2.844.116-2.675.118-2.452.117-2.175.118-1.86.117-1.533.117-1.165.118-.791.118-.415.116-.053.118.283.118.585.117.838.117 1.046.117 1.202.118 1.297.118 1.341.116 1.318.118 1.253.118 1.135.117.988.117.785.118.563.117.327.118.028.117-.188.117-.479.118-.708.117-.881.117-1.074.118-1.297.117-1.41.118-1.494.117-1.54.117-1.471.118-1.435.117-1.353.117-1.231.118-1.087.117-.933.118-.717.117-.528.117-.302.118-.088.117.129.117.318.118.504.117.678.118.823.117.939.117 1.027.118 1.093.117 1.117.117 1.126.118 1.087.117.966.118.884.117.776.117.66.118.527.117.39.117.249.118.105.117-.014.118-.134.117-.256.117-.338.118-.415.118-.469.116-.505.118-.523.118-.529.117-.529.117-.497.117-.472.118-.435.118-.394.116-.363.118-.313.118-.282.117-.417.117-.387.118-.352.117-.281.118-.255.116-.248.118-.194.118-.146.117-.025.117.014.118.172.117.288.118.426.116.579.118.763.118.931.117 1.101.117 1.302.118 1.465.117 1.619.118 1.758.116 1.857.118 1.923.118 1.948.117 1.926.117 1.423.117 1.314.118 1.141.118.948.116.68.118.408.118.09.117-.235.117-.575.117-.907.118-1.226.118-1.532.116-1.795.118-2.032.118-2.213.117-2.35.117-2.421.117-2.46.118-2.421.118-2.343.116-2.2.118-2.033.118-1.812.118-1.574.116-1.308.118-1.38.117-1.082.118-.788.116-.503.118-.225.118.037.118.294.116.522.118.741.117.938.118 1.126.117 1.289.117 1.448.118 1.582.118 1.7.116 1.812.118 1.901.117 1.976.118 2.031.117 2.05.117 2.059.118 2.028.117 1.966.117 1.878.118 1.736.117 1.091.118.92.117.721.117.495.118.256.117.002.117-.258.118-.521.117-.76.118-.997.117-1.198.117-1.362.118-1.478.117-1.545.117-1.577.118-1.547.117-1.471.118-1.343.117-1.176.117-.977.118-.766.118-.514.116-.27.118-.019.117.196.118-.061.117.112.117.249.118.349.118.392.116.38.118.322.118.229.117.09.117-.078.117-.263.118-.46.118-.668.116-.861.118-1.039.118-1.191.117-1.314.117-1.388.118-1.429.117-1.435.118-1.377.116-1.299.118-1.169.118-1.014.117-.811.117-.72.118-.489.117-.249.118-.019.117.217.117.421.118.644.117.819.117.999.118 1.136.117 1.27.118 1.36.116 1.439.118 1.504.118 1.532.117 1.555.117 1.556.118 1.535.117 1.492.118 1.418.116 1.348.118 1.25.118 1.134.117.993.117.848.118.517.117.341.118.147.116-.036.118-.251.118-.434.117-.622.117-.793.117-.935.118-1.059.118-1.145.116-1.19.118-1.197.118-1.165.118-1.074.116-.956.118-.79.117-.58.118-.349.116-.08.118.204.118.502.118.79.116 1.073.118 1.34.117 1.5.118 1.703.117 1.857.117 1.962.118 2.023.118 2.042.116 1.989.118 1.9.117 1.762.118 1.585.117 1.378.117 1.14.118.879.118.617.116.341.118.063.117-.207.118-.465.117-.699.117-.914.118-1.101.117-1.256.117-1.385.118-1.464.117-1.528.118-1.638.117-1.643.117-1.621.118-1.571.117-1.488.117-1.392.118-1.266.117-1.12.118-.965.117-.793.117-.602.118-.409.118-.207.116.004.118.207.117.4.118.584.117.75.117.912.118 1.029.118 1.132.116 1.187.118 1.211.118 1.202.117 1.15.117 1.028.117.903.118.765.118.578.116.375.118.14.118-.075.117-.314.117-.539.118-.757.117-.935.118-1.097.117-1.246.117-1.363.118-1.437.117-1.467.118-1.487.117-1.469.117-1.433.118-1.368.117-1.3.117-1.212.118-1.118.117-1.034.117-.949.118-.883.117-.807.118-.743.117-.673.117-.622.118-.564.117-.507.117-.45.118-.385.117-.304.118-.218.116-.113.118.02.118.166.117.332.117.497.118.679.117.896.118 1.067.118 1.24.116 1.387.118 1.516.117 1.597.117 1.657.118 1.661.117 1.585.118 1.497.116 1.376.118 1.204.118.99.118.744.116.481.118.188.118-.096.117-.374.116-.64.118-.878.118-1.084.118-1.242.116-1.354.118-1.407.118-1.415.117-1.373.117-1.286.117-1.138.118-.969.118-.731.116-.509.118-.233.118.023.117.172.118.418.116.659.118.871.118 1.072.116 1.245.118 1.384.117 1.501.118 1.594.117 1.659.117 1.703.118 1.728.118 1.738.116 1.716.118 1.695.117 1.641.118 1.588.118 1.51.116 1.415.118 1.298.117 1.162.117 1.008.118.823.117.616.118.389.117-.031.117-.287.118-.547.118-.816.118-1.094.116-1.344.117-1.59.118-1.812.118-1.997.116-2.14.118-2.235.118-2.276.116-2.255.118-2.189.118-2.053.117-1.867.117-1.624.118-1.34.117-1.01.118-.663.116-.302.118.058.118.414.117.745.117 1.047.118 1.135.117 1.335.118 1.475.117 1.572.117 1.613.118 1.585.117 1.51.118 1.381.117 1.214.117 1.014.118.776.117.538.117.307.118.071.117-.141.117-.344.118-.517.117-.668.118-.783.117-.87.117-.943.118-.974.117-.964.117-.942.118-.906.117-1.079.118-1.005.117-.913.117-.833.118-.746.117-.663.117-.584.118-.505.117-.425.118-.345.118-.259.116-.178.118-.062.118.029.117.139.117.251.117.372.118.506.118.612.116.718.118.814.118.881.116.942.118.97.118.977.117.67.117.608.117.517.118.393.118.231.117.056.117-.138.118-.348.117-.557.118-.774.116-.972.118-1.15.118-1.307.116-1.421.118-1.507.118-1.541.117-1.531.118-1.473.116-1.372.118-1.229.118-1.047.117-.834.117-.595.118-.338.117-.08.118.092.116.352.118.605.118.834.117 1.038.117 1.213.117 1.368.118 1.483.118 1.563.116 1.615.118 1.635.118 1.628.117 1.597.117 1.552.117 1.491.118 1.411.118 1.327.116 1.235.118 1.14.118 1.044.118.956.116.865.118.785.117.707.118.629.116.428.118.367.118.309.118.256.116.202.118.153.117.108.118.065.117.035.117.005.118-.02.118-.048.116-.06.118-.081.117-.091.118-.096.117-.094.117-.101.118-.098.118-.102.116-.107.118-.108.117-.114.118-.141.117-.159.117-.251.118-.285.117-.323.117-.363.118-.405.117-.447.118-.484.117-.51.117-.533.118-.541.117-.518.117-.495.118-.46.117-.416.118-.346.117-.268.117-.187.118-.088.118.012.116.11.118.2.117.285.118.355.117.41.117.44.118.41.118.393.116.342.118.258.118.162.117.033.117-.118.117-.286.118-.46.118-.642.116-.827.118-1.004.118-1.162.117-1.294.117-1.41.118-1.498.117-1.537.118-1.552.116-1.553.118-1.49.118-1.389.117-1.236.117-1.067.118-.897.117-.694.118-.504.117-.234.117-.013.118.204.117.395.117.584.118.722.117.847.118.916.117.963.117.968.118.945.117.854.117.751.118.609.117.457.118.266.116.095.118-.104.118-.299.117-.486.117-.65.118-.788.117-.912.118-.994.116-1.077.118-1.095.118-1.059.117-.984.117-.88.117-.751.118-.588.118-.394.116-.193.118.005.118.232.118.453.116.651.118.846.117 1.018.118 1.176.116 1.299.118 1.388.118 1.452.118 1.482.116 1.482.118 1.457.118 1.407.117 1.262.117 1.175.117.892.118.818.118.716.116.584.118.491.117.414.118.394.117.35.117.323.118.315.118.329.116.361.118.408.117.467.118.537.117.594.117.662.118.724.118.79.116.825.118.849.117.868.118.84.117.815.117.754.118.436.117.354.117.246.118.121.117.003.118-.146.117-.28.117-.421.118-.551.118-.674.116-.786.118-.889.117-.961.118-1.011.117-1.039.117-1.047.118-1.032.118-.99.116-.922.118-.841.118-.735.117-.613.117-.464.117-.326.118-.179.118-.304.116-.16.118-.03.118.089.117.201.117.283.118.348.117.386.118.4.117.398.117.375.118.323.117.254.117.18.118.077.117-.013.118-.113.117-.218.117-.309.118-.392.117-.475.117-.549.118-.58.117-.615.118-.62.117-.819.05-.336"/><path stroke-width="1.1997" stroke-dasharray="1.01408,3.04224" stroke-linejoin="bevel" fill="none" stroke="#000" d="m367.401 248.522-132.844-64.186M513.936 248.522l-10.648-64.186"/><path stroke-width="1.1997" stroke-miterlimit="10" fill="none" stroke="#000" d="M367.401 249.446h146.535v-.924H367.401z"/></svg>