<svg xmlns="http://www.w3.org/2000/svg" xmlns:xlink="http://www.w3.org/1999/xlink" width="568pt" height="568" viewBox="0 0 568 426"><clipPath id="a"><path transform="matrix(.1 0 0 -.1 0 426)" d="M0 4259.16h5678.85V.02H0v4259.14z"/></clipPath><g clip-path="url(#a)"><path d="M0 425.998h567.885V.084H0z" fill="#fff"/></g><path d="M0 425.998h567.885V.084H0z" fill="#fff"/><path d="M74.028 379.35h440.11V31.521H74.029z" fill="#fff"/><path stroke-width=".4999" stroke-linejoin="round" fill="none" stroke="#e5e5e5" d="M74.028 379.35V31.521M147.379 379.35V31.521M220.732 379.35V31.521M294.083 379.35V31.521M367.435 379.35V31.521M440.787 379.35V31.521M514.139 379.35V31.521M514.139 379.35H74.028M514.139 340.703H74.028M514.139 302.055H74.028M514.139 263.408H74.028M514.139 224.76H74.028M514.139 186.111H74.028M514.139 147.464H74.028M514.139 108.816H74.028M514.139 70.169H74.028M514.139 31.521H74.028"/><path stroke-width=".4999" stroke-linecap="square" stroke-linejoin="round" fill="none" stroke="#323232" d="M74.028 379.35h440.111M74.028 379.35v-4.4M147.379 379.35v-4.4M220.732 379.35v-4.4M294.083 379.35v-4.4M367.435 379.35v-4.4M440.787 379.35v-4.4M514.139 379.35v-4.4"/><symbol id="b"><path d="M.232.746A.203.203 0 0 1 .069.667C.023.603 0 .507 0 .373 0 .129.08 0 .232 0c.15 0 .232.129.232.367 0 .14-.022.234-.069.3a.2.2 0 0 1-.163.079m0-.078C.327.668.374.571.374.375.374.169.328.073.23.073c-.093 0-.14.1-.14.299 0 .199.047.296.142.296z"/></symbol><symbol id="c"><path d="M.472.086H.099c.009.06.041.098.128.151l.1.056c.099.055.15.129.15.218a.21.21 0 0 1-.066.155.227.227 0 0 1-.161.056C.16.722.093.69.054.628A.282.282 0 0 1 .016.472h.088a.257.257 0 0 0 .021.102.135.135 0 0 0 .122.071c.08 0 .14-.058.14-.136C.387.451.354.401.291.365L.199.311C.051.226.008.158 0 0h.472v.086z"/></symbol><symbol id="d"><path d="M.299.175V0h.088v.175h.105v.079H.387v.469H.322L0 .268V.175h.299m0 .079H.077l.222.319V.254z"/></symbol><symbol id="e"><path d="M.455.558C.438.676.362.746.254.746a.223.223 0 0 1-.19-.103A.52.52 0 0 1 0 .353C0 .231.017.154.06.09A.2.2 0 0 1 .238 0C.373 0 .47.101.47.242.47.375.38.469.253.469A.189.189 0 0 1 .09.39c.001.179.057.278.158.278.062 0 .105-.04.119-.11h.088M.242.391C.327.391.38.331.38.235.38.144.32.078.239.078.157.078.095.147.095.239c0 .09.06.152.147.152z"/></symbol><symbol id="f"><path d="M.354.404c.074.045.097.081.097.149 0 .114-.087.193-.213.193C.113.746.025.667.025.554c0-.069.023-.104.096-.15C.04.363 0 .304 0 .224 0 .092.097 0 .238 0c.14 0 .238.092.238.224 0 .08-.04.139-.122.18M.238.668C.313.668.361.623.361.551.361.483.312.438.238.438.163.438.115.483.115.553s.048.115.123.115m0-.304C.326.364.386.306.386.222.386.135.327.078.236.078.15.078.09.137.09.221c0 .086.059.143.148.143z"/></symbol><symbol id="g"><path d="M.157.515V0h.088v.723H.187C.156.612.136.597 0 .579V.515h.157z"/></symbol><use xlink:href="#b" transform="matrix(15.0003 0 0 -15.0003 69.603 398.894)" fill="#323232"/><use xlink:href="#c" transform="matrix(15.0003 0 0 -15.0003 142.82 398.534)" fill="#323232"/><use xlink:href="#d" transform="matrix(15.0003 0 0 -15.0003 216.082 398.55)" fill="#323232"/><use xlink:href="#e" transform="matrix(15.0003 0 0 -15.0003 289.66 398.894)" fill="#323232"/><use xlink:href="#f" transform="matrix(15.0003 0 0 -15.0003 362.922 398.894)" fill="#323232"/><use xlink:href="#g" transform="matrix(15.0003 0 0 -15.0003 432.686 398.55)" fill="#323232"/><use xlink:href="#b" transform="matrix(15.0003 0 0 -15.0003 440.141 398.894)" fill="#323232"/><use xlink:href="#g" transform="matrix(15.0003 0 0 -15.0003 506.038 398.55)" fill="#323232"/><use xlink:href="#c" transform="matrix(15.0003 0 0 -15.0003 513.358 398.534)" fill="#323232"/><path d="M267.503 416.15c0-.158.015-.312.047-.46l1.173-4.657h-1.712c-.106 0-.158-.069-.158-.206.042-.243.111-.365.206-.365h1.805l.65-2.646a.738.738 0 0 1 .254-.357c.127-.1.27-.15.428-.15.137 0 .251.04.341.119.09.079.134.187.134.324v.08a.137.137 0 0 1-.016.063l-.65 2.567h1.681c.105 0 .158.074.158.222a.72.72 0 0 1-.087.285.132.132 0 0 1-.119.064h-1.775l-1.157 4.69c-.084.306-.126.57-.126.792 0 .464.158.697.475.697.475 0 .898-.222 1.268-.666.37-.443.65-.934.84-1.473.042-.064.084-.096.126-.096h.206c.043 0 .077.016.103.048.027.032.04.064.04.095 0 .021-.005.037-.016.048a5.308 5.308 0 0 1-1.046 1.735c-.454.502-.971.753-1.552.753-.434 0-.795-.143-1.086-.428-.29-.285-.435-.644-.435-1.077M274.398 408.45v-.555h5.863v.555h-5.863M273.699 417.18c0-.064.005-.11.015-.142l1.22-4.833a3.45 3.45 0 0 0 .111-.792c0-.465-.158-.698-.475-.698-.338 0-.589.201-.753.603-.163.401-.319.914-.467 1.537 0 .031-.016.055-.048.071a.218.218 0 0 1-.095.023h-.19c-.031 0-.061-.018-.087-.055a.184.184 0 0 1-.039-.103c.116-.475.227-.876.332-1.204.106-.328.275-.626.507-.895.233-.27.518-.404.856-.404.412 0 .773.129 1.085.388.312.259.468.583.468.974a3.59 3.59 0 0 1 1.124-.998 2.773 2.773 0 0 1 1.379-.364c.391 0 .726.065 1.006.198.28.132.497.332.65.601.153.27.229.59.229.96 0 .443-.097.98-.293 1.608a34.419 34.419 0 0 1-.737 2.1c-.158.358-.237.686-.237.982 0 .317.127.475.38.475.423 0 .774-.227 1.054-.68.28-.455.478-.941.594-1.46.021-.063.069-.095.143-.095h.19c.042 0 .077.014.103.04a.14.14 0 0 1 .04.103c0 .011-.006.027-.017.048a5.026 5.026 0 0 1-.768 1.704c-.365.523-.821.784-1.37.784-.381 0-.706-.133-.975-.397a1.298 1.298 0 0 1-.404-.966c0-.201.042-.412.126-.634.138-.348.294-.768.468-1.26.174-.491.32-.961.436-1.41a4.85 4.85 0 0 0 .174-1.196c0-.296-.063-.55-.19-.76-.127-.212-.338-.318-.634-.318a2.3 2.3 0 0 0-1.085.262 2.975 2.975 0 0 0-.871.69 5.402 5.402 0 0 0-.69 1.029l-1.093 4.405a.806.806 0 0 1-.253.388.637.637 0 0 1-.429.167.488.488 0 0 1-.348-.135.449.449 0 0 1-.142-.34M283.27 421.205c0-.032.005-.053.016-.064l5.64-15.654a.252.252 0 0 1 .111-.143.334.334 0 0 1 .174-.048c.095 0 .175.029.238.087a.3.3 0 0 1 .095.23v.064l-5.64 15.655a.33.33 0 0 1-.318.19.304.304 0 0 1-.221-.095.302.302 0 0 1-.095-.222M295.639 421.49a7.994 7.994 0 0 1-1.56-1.632 8.968 8.968 0 0 1-1.07-1.972 11.79 11.79 0 0 1-.618-2.196 13.02 13.02 0 0 1 0-4.594c.138-.76.346-1.493.626-2.195.28-.702.639-1.36 1.077-1.972a7.54 7.54 0 0 1 1.545-1.6c0-.022.027-.033.079-.033h.143a.12.12 0 0 1 .087.04c.027.027.04.061.04.103 0 .043-.011.074-.032.095a8.026 8.026 0 0 0-1.315 1.664 9.34 9.34 0 0 0-.847 1.894 11.78 11.78 0 0 0-.468 2.076c-.095.712-.143 1.46-.143 2.24 0 3.445.919 6.06 2.758 7.845a.173.173 0 0 1 .047.126.146.146 0 0 1-.04.096c-.027.03-.055.046-.087.046h-.143c-.052 0-.079-.01-.079-.031M297.826 417.465v-.443c0-.021.01-.047.031-.079l2.519-2.79c.381-.411.69-.757.927-1.037.238-.28.473-.602.706-.967.232-.364.416-.736.554-1.116.137-.381.206-.783.206-1.205a3.32 3.32 0 0 0-.246-1.267 2.219 2.219 0 0 0-.736-.967c-.328-.243-.719-.364-1.173-.364-.476 0-.901.14-1.275.42a2.18 2.18 0 0 0-.785 1.101.725.725 0 0 1 .174-.016c.243 0 .45.082.619.245a.833.833 0 0 1 .253.626.86.86 0 0 1-.253.634.844.844 0 0 1-.619.253.878.878 0 0 1-.642-.26.86.86 0 0 1-.26-.627 2.823 2.823 0 0 1 .894-2.091c.291-.275.616-.486.975-.634a3.007 3.007 0 0 1 1.157-.222c.612 0 1.185.13 1.719.388a3.08 3.08 0 0 1 1.267 1.11c.312.48.467 1.038.467 1.671 0 .475-.102.924-.309 1.347a4.6 4.6 0 0 1-.792 1.149c-.322.343-.734.734-1.236 1.172a47.11 47.11 0 0 0-.989.88l-1.839 1.775h1.569c.76 0 1.4-.008 1.917-.024.518-.016.793-.035.824-.056.127-.137.254-.64.38-1.505h.475l-.459 2.9h-6.02M306.915 417.18a.84.84 0 0 1 .064-.253c.295-.634.575-1.252.839-1.854.264-.603.499-1.191.705-1.767.206-.575.399-1.186.578-1.83h-1.045a1.85 1.85 0 0 0-1.102.372 3.232 3.232 0 0 0-.863.943c-.021.043-.053.064-.095.064h-.191c-.094 0-.141-.053-.141-.16 0-.02.01-.052.031-.093a7.488 7.488 0 0 1 1.133-1.521c.407-.413.864-.62 1.371-.62h5.878a.41.41 0 0 1 .293.112c.08.074.119.174.119.3a.59.59 0 0 1-.175.421.552.552 0 0 1-.411.182h-2.061a12.827 12.827 0 0 0-.285 2.487c0 1.036.18 1.976.539 2.822a.412.412 0 0 1 .047.19.566.566 0 0 1-.102.324.913.913 0 0 1-.262.253.623.623 0 0 1-.349.104c-.285 0-.48-.235-.585-.705a6.16 6.16 0 0 1-.159-1.355c0-.623.053-1.22.159-1.79.105-.571.274-1.348.507-2.33h-1.759c-.856 3.465-1.374 5.372-1.554 5.72-.147.307-.358.46-.633.46a.495.495 0 0 1-.34-.135.436.436 0 0 1-.151-.34M316.327 421.521c-.096 0-.143-.047-.143-.142 0-.042.01-.074.031-.095 1.849-1.806 2.774-4.431 2.774-7.875 0-3.443-.914-6.058-2.743-7.843-.041-.021-.062-.063-.062-.127a.14.14 0 0 1 .039-.102.14.14 0 0 1 .104-.04h.141c.032 0 .059.01.08.031a7.893 7.893 0 0 1 1.948 2.235c.518.877.896 1.811 1.133 2.803.238.994.357 2.008.357 3.043 0 .76-.063 1.513-.19 2.258-.127.745-.333 1.48-.618 2.203a9.301 9.301 0 0 1-1.077 1.996 7.924 7.924 0 0 1-1.553 1.624.109.109 0 0 1-.08.031h-.141" fill="#323232"/><path stroke-width=".4999" stroke-linecap="square" stroke-linejoin="round" fill="none" stroke="#323232" d="M74.028 379.35V31.521M74.028 379.35h4.4M74.028 340.703h4.4M74.028 302.055h4.4M74.028 263.408h4.4M74.028 224.76h4.4M74.028 186.111h4.4M74.028 147.464h4.4M74.028 108.816h4.4M74.028 70.169h4.4M74.028 31.521h4.4"/><use xlink:href="#b" transform="matrix(15.0003 0 0 -15.0003 59.533 384.768)" fill="#323232"/><use xlink:href="#c" transform="matrix(15.0003 0 0 -15.0003 40.13 345.76)" fill="#323232"/><use xlink:href="#b" transform="matrix(15.0003 0 0 -15.0003 48.605 346.12)" fill="#323232"/><use xlink:href="#b" transform="matrix(15.0003 0 0 -15.0003 56.945 346.12)" fill="#323232"/><use xlink:href="#d" transform="matrix(15.0003 0 0 -15.0003 40.04 307.127)" fill="#323232"/><use xlink:href="#b" transform="matrix(15.0003 0 0 -15.0003 48.605 307.472)" fill="#323232"/><use xlink:href="#b" transform="matrix(15.0003 0 0 -15.0003 56.945 307.472)" fill="#323232"/><use xlink:href="#e" transform="matrix(15.0003 0 0 -15.0003 40.265 268.824)" fill="#323232"/><use xlink:href="#b" transform="matrix(15.0003 0 0 -15.0003 48.605 268.824)" fill="#323232"/><use xlink:href="#b" transform="matrix(15.0003 0 0 -15.0003 56.945 268.824)" fill="#323232"/><use xlink:href="#f" transform="matrix(15.0003 0 0 -15.0003 40.175 230.176)" fill="#323232"/><use xlink:href="#b" transform="matrix(15.0003 0 0 -15.0003 48.605 230.176)" fill="#323232"/><use xlink:href="#b" transform="matrix(15.0003 0 0 -15.0003 56.945 230.176)" fill="#323232"/><use xlink:href="#g" transform="matrix(15.0003 0 0 -15.0003 32.023 191.183)" fill="#323232"/><use xlink:href="#b" transform="matrix(15.0003 0 0 -15.0003 39.478 191.528)" fill="#323232"/><use xlink:href="#b" transform="matrix(15.0003 0 0 -15.0003 47.818 191.528)" fill="#323232"/><use xlink:href="#b" transform="matrix(15.0003 0 0 -15.0003 56.158 191.528)" fill="#323232"/><use xlink:href="#g" transform="matrix(15.0003 0 0 -15.0003 32.023 152.535)" fill="#323232"/><use xlink:href="#c" transform="matrix(15.0003 0 0 -15.0003 39.343 152.52)" fill="#323232"/><use xlink:href="#b" transform="matrix(15.0003 0 0 -15.0003 47.818 152.88)" fill="#323232"/><use xlink:href="#b" transform="matrix(15.0003 0 0 -15.0003 56.158 152.88)" fill="#323232"/><use xlink:href="#g" transform="matrix(15.0003 0 0 -15.0003 32.023 113.887)" fill="#323232"/><use xlink:href="#d" transform="matrix(15.0003 0 0 -15.0003 39.253 113.887)" fill="#323232"/><use xlink:href="#b" transform="matrix(15.0003 0 0 -15.0003 47.818 114.232)" fill="#323232"/><use xlink:href="#b" transform="matrix(15.0003 0 0 -15.0003 56.158 114.232)" fill="#323232"/><use xlink:href="#g" transform="matrix(15.0003 0 0 -15.0003 32.023 75.24)" fill="#323232"/><use xlink:href="#e" transform="matrix(15.0003 0 0 -15.0003 39.478 75.585)" fill="#323232"/><use xlink:href="#b" transform="matrix(15.0003 0 0 -15.0003 47.818 75.585)" fill="#323232"/><use xlink:href="#b" transform="matrix(15.0003 0 0 -15.0003 56.158 75.585)" fill="#323232"/><use xlink:href="#g" transform="matrix(15.0003 0 0 -15.0003 32.023 36.592)" fill="#323232"/><use xlink:href="#f" transform="matrix(15.0003 0 0 -15.0003 39.388 36.937)" fill="#323232"/><use xlink:href="#b" transform="matrix(15.0003 0 0 -15.0003 47.818 36.937)" fill="#323232"/><use xlink:href="#b" transform="matrix(15.0003 0 0 -15.0003 56.158 36.937)" fill="#323232"/><path d="M19.81 280.479a4.15 4.15 0 0 0 1.117-1.425c.27-.56.404-1.146.404-1.759 0-.602-.153-1.149-.46-1.641-.306-.49-.74-.736-1.3-.736h-1.36c-.35 0-.524.676-.524 2.028h-.571v-4.659h.57c0 .349.03.624.088.825.058.2.203.3.436.3h3.2c.032 0 .064.013.096.04a.13.13 0 0 1 .046.103c0 .095-.118.262-.355.499a5.46 5.46 0 0 1-.642.563c.454.264.795.679 1.022 1.243a4.7 4.7 0 0 1 .34 1.768 5.274 5.274 0 0 1-.816 2.876 5.925 5.925 0 0 1-2.178 2.043 5.935 5.935 0 0 1-2.916.753 5.955 5.955 0 0 1-2.242-.436 6.008 6.008 0 0 1-1.91-1.212 5.552 5.552 0 0 1-1.283-1.815 5.392 5.392 0 0 1-.46-2.209c0-.56.12-1.088.357-1.585.238-.497.579-.94 1.023-1.331l-1.332-.951a.489.489 0 0 1-.047-.111v-.111c0-.031.013-.06.04-.087a.12.12 0 0 1 .086-.04h4.39c.095 0 .143.043.143.127v.286c0 .105-.048.158-.143.158-.317 0-.668.061-1.054.183-.385.121-.75.279-1.093.474a4.57 4.57 0 0 0-.911.674c-.592.602-.887 1.299-.887 2.092 0 .602.134 1.178.403 1.727.27.549.642 1.009 1.118 1.378a4.382 4.382 0 0 0 1.727.832c.644.153 1.336.23 2.075.23 1.659 0 2.927-.365 3.803-1.094M21.552 270.764h-.57c0-.369-.028-.673-.087-.911-.058-.237-.203-.356-.436-.356h-8.508c-.296 0-.507.044-.634.134a.582.582 0 0 0-.238.38 4.35 4.35 0 0 0-.048.753h-.57l-.174-2.408H20.46c.233 0 .378-.119.436-.357.059-.238.087-.537.087-.895h.57v3.66M21.743 262.632c0 .644-.166 1.243-.499 1.798a3.685 3.685 0 0 1-1.331 1.315 3.551 3.551 0 0 1-1.815.484c-.496 0-.974-.088-1.433-.262a3.828 3.828 0 0 1-1.236-.761 3.548 3.548 0 0 1-.848-1.157c-.2-.438-.3-.91-.3-1.417 0-.666.174-1.273.522-1.823.349-.549.819-.982 1.41-1.299a3.933 3.933 0 0 1 1.885-.475c.645 0 1.247.161 1.807.483.56.322 1.007.76 1.34 1.314.332.555.498 1.155.498 1.8zm-.49 0c0-.866-.315-1.445-.944-1.736-.628-.29-1.428-.435-2.4-.435-.54 0-.988.028-1.347.087-.36.058-.682.182-.967.372a2.117 2.117 0 0 0-.888 1.712 2.079 2.079 0 0 0 .888 1.71c.307.201.643.331 1.007.389.364.058.8.087 1.307.087a7.72 7.72 0 0 0 1.64-.158c.48-.106.884-.32 1.212-.642.327-.322.491-.784.491-1.386M21.552 256.743h-9.6c-.297 0-.508.044-.635.134a.58.58 0 0 0-.238.38 4.347 4.347 0 0 0-.048.754h-.57l-.174-2.394h5.087c-.201-.179-.378-.39-.532-.634a2.997 2.997 0 0 1-.348-.776 3.003 3.003 0 0 1-.119-.84c0-.485.098-.934.293-1.347.195-.411.465-.77.808-1.077.343-.306.74-.546 1.188-.721.45-.174.912-.261 1.387-.261.655 0 1.265.161 1.83.484a3.721 3.721 0 0 1 1.355 1.307c.338.548.507 1.156.507 1.822 0 .412-.108.81-.324 1.196-.217.385-.5.705-.848.959l.981.553v.461zm-1.6-1.173c.402-.18.726-.438.975-.776a1.86 1.86 0 0 0 .372-1.126c0-.56-.161-1.014-.483-1.362a2.56 2.56 0 0 0-1.22-.729 5.732 5.732 0 0 0-1.545-.206c-.919 0-1.616.122-2.091.364a2.231 2.231 0 0 0-.586.428c-.18.18-.32.383-.42.61a1.72 1.72 0 0 0-.151.706c0 .432.113.833.34 1.203.228.37.537.666.927.888h3.882M19.952 248.621a1.907 1.907 0 0 1-1.568-.76c-.402-.507-.686-1.117-.855-1.83a8.787 8.787 0 0 1-.254-2.02h-.666c-.306 0-.607.069-.903.206a1.794 1.794 0 0 0-.72.594 1.426 1.426 0 0 0-.279.848c0 .718.159 1.267.476 1.648 0-.212.08-.384.239-.515a.813.813 0 0 1 .538-.199c.222 0 .41.077.563.23a.75.75 0 0 1 .229.547.747.747 0 0 1-.23.546.764.764 0 0 1-.562.23c-.57 0-.993-.259-1.268-.776a3.595 3.595 0 0 1-.411-1.711c0-.434.092-.872.276-1.315.185-.444.452-.809.8-1.094a1.87 1.87 0 0 1 1.22-.427h3.661c.211 0 .404-.045.578-.136a.442.442 0 0 0 .262-.419c0-.18-.09-.312-.27-.397a1.332 1.332 0 0 0-.57-.126h-1.046v-.476h1.046c.243 0 .473.063.689.191.217.126.391.295.523.507.132.211.198.443.198.696 0 .317-.124.589-.372.817a1.476 1.476 0 0 1-.88.388c.412.201.74.496.983.887s.364.808.364 1.252c0 .412-.063.816-.19 1.213-.127.396-.32.728-.578.998-.26.268-.6.403-1.023.403zm0-1.314c.38 0 .7-.141.96-.421.258-.28.387-.61.387-.99a1.79 1.79 0 0 0-.26-.951 1.939 1.939 0 0 0-.714-.681 1.913 1.913 0 0 0-.943-.253h-1.695a5 5 0 0 0 .245 1.505c.164.518.417.946.76 1.284.344.338.764.507 1.26.507M21.552 240.514h-.57c0-.369-.028-.673-.087-.911-.058-.237-.203-.356-.436-.356h-8.508c-.296 0-.507.044-.634.134a.582.582 0 0 0-.238.38 4.35 4.35 0 0 0-.048.753h-.57l-.174-2.408H20.46c.233 0 .378-.119.436-.357.059-.238.087-.537.087-.895h.57v3.66M21.552 230.368h-.57c0-1.12-.322-1.68-.966-1.68h-8.461c-.35 0-.524.56-.524 1.68h-.57v-3.074c0-.127.064-.212.19-.254l9.174-3.534-9.174-3.533c-.126-.042-.19-.132-.19-.269v-3.058h.57c0 1.109.175 1.663.524 1.663h8.904c.35 0 .523-.554.523-1.663h.57v4.722h-.57c0-1.12-.174-1.68-.523-1.68h-9.443l10.347 3.993c.127.053.19.142.19.269a.286.286 0 0 1-.19.286l-10.22 3.945h8.873c.645 0 .966-.56.966-1.68h.57v3.867M21.552 215.29h-.57c0-.972-.322-1.569-.966-1.791l-9.903-3.406c-.117-.032-.175-.116-.175-.254v-.205c0-.148.058-.238.175-.27l10.346-3.549c.233-.106.378-.299.436-.578.059-.28.087-.632.087-1.054h.57v4.516h-.57c0-.898-.148-1.347-.444-1.347h-.079l-2.535.887v3.93l2.092.728c.042.011.1.016.175.016.263 0 .461-.127.594-.38.132-.254.197-.528.197-.824h.57v3.581zm-4.183-3.312v-3.549l-5.18 1.775 5.18 1.774zM21.552 202.93h-.57c0-1.108-.174-1.662-.523-1.662h-8.904c-.35 0-.524.554-.524 1.662h-.57v-9.174l3.724-.443v.46c-.94.116-1.622.279-2.044.49a1.703 1.703 0 0 0-.871 1.007c-.16.459-.239 1.149-.239 2.068v1.584c0 .201.008.354.025.459a.413.413 0 0 0 .143.262c.079.069.198.103.356.103h3.96v-1.188c0-.55-.047-.962-.141-1.236a.883.883 0 0 0-.532-.563c-.259-.1-.668-.15-1.227-.15v-.476h4.357v.476c-.55 0-.956.05-1.22.15a.854.854 0 0 0-.53.563c-.09.274-.135.686-.135 1.236v1.188h4.372c.233 0 .378-.066.436-.198.059-.132.087-.341.087-.626v-1.711c0-.75-.06-1.357-.182-1.822-.121-.465-.32-.825-.594-1.078-.275-.254-.634-.452-1.077-.594-.444-.143-1.056-.272-1.839-.388v-.475l4.262.681v9.395M21.552 186.202h-.57c0-.37-.028-.674-.087-.911-.058-.238-.203-.357-.436-.357h-4.42c-.423 0-.682.082-.777.246-.094.164-.142.483-.142.959h-.57l-.175-2.346h6.084c.233 0 .378-.103.436-.308.059-.206.087-.479.087-.817h.57v3.534zm-9.966-.682a.853.853 0 0 1-.618-.269.852.852 0 0 1-.27-.619c0-.158.04-.308.12-.451a.842.842 0 0 1 .333-.332.889.889 0 0 1 .435-.119c.233 0 .439.09.619.269.179.18.268.391.268.633 0 .233-.089.439-.268.619a.853.853 0 0 1-.62.269M21.552 181.634h-.57c0-.37-.028-.673-.087-.911-.058-.238-.203-.357-.436-.357h-4.42c-.296 0-.507.045-.634.135a.578.578 0 0 0-.237.381 4.269 4.269 0 0 0-.048.752h-.57l-.175-2.345h1.585a2.871 2.871 0 0 1-1.14-.966 2.377 2.377 0 0 1-.445-1.394c0-.751.18-1.313.54-1.688.358-.375.908-.562 1.647-.562h3.897c.233 0 .378-.12.436-.358.059-.237.087-.541.087-.91h.57v3.707h-.57c0-.37-.028-.673-.087-.91-.058-.238-.203-.357-.436-.357h-3.85c-.528 0-.961.076-1.3.23-.337.153-.506.467-.506.942 0 .634.25 1.152.752 1.554.502.4 1.07.601 1.704.601h3.2c.233 0 .378-.119.436-.356.059-.238.087-.536.087-.895h.57v3.707M21.743 164.638c0 .676-.259 1.212-.777 1.608-.517.397-1.13.595-1.837.595-.687 0-1.403-.18-2.147-.539a5.349 5.349 0 0 1-1.862-1.457c-.497-.613-.745-1.268-.745-1.965 0-.328.087-.618.261-.871a1.69 1.69 0 0 1 .721-.587c-.433-.127-.65-.365-.65-.713a.52.52 0 0 1 .12-.348.398.398 0 0 1 .325-.143c.031 0 .055.002.07.008a.187.187 0 0 0 .057.008l4.531 1.141c.328.073.592.11.792.11.465 0 .697-.158.697-.475 0-.339-.214-.594-.64-.768a9.452 9.452 0 0 0-1.499-.452c-.063-.021-.095-.063-.095-.127v-.19c0-.042.019-.077.056-.103a.179.179 0 0 1 .103-.04c.76.19 1.37.396 1.83.618.46.222.689.587.689 1.094 0 .369-.108.694-.324.974a1.35 1.35 0 0 1-.864.515c.792.698 1.188 1.4 1.188 2.107zm-.444-.015c0-.391-.145-.771-.435-1.141a4.355 4.355 0 0 0-1.039-.951c-.01-.01-.025-.015-.047-.015l-3.517-.873-.048-.015c-.39.063-.723.203-.998.42a1.043 1.043 0 0 0-.412.863c0 .37.148.71.444 1.022.295.312.65.579 1.062.8.432.212 1.026.413 1.781.603.756.19 1.34.285 1.752.285.38 0 .718-.08 1.014-.238.295-.158.443-.412.443-.76M25.577 148.199a8.028 8.028 0 0 1-1.631 1.56 9.009 9.009 0 0 1-1.973 1.07c-.703.275-1.435.481-2.195.618a12.847 12.847 0 0 1-4.595 0 11.339 11.339 0 0 1-2.194-.626 9.258 9.258 0 0 1-1.973-1.078 7.533 7.533 0 0 1-1.6-1.544c-.022 0-.032-.027-.032-.079v-.143c0-.032.013-.061.04-.088a.14.14 0 0 1 .103-.039c.042 0 .074.011.095.031a8.002 8.002 0 0 0 1.663 1.315 9.415 9.415 0 0 0 1.894.849c.671.216 1.363.371 2.076.467.713.095 1.46.143 2.241.143 3.444 0 6.059-.919 7.844-2.757a.17.17 0 0 1 .127-.048.15.15 0 0 1 .095.039c.031.027.047.056.047.088v.143c0 .052-.01.079-.032.079M21.552 146.33h-.57c0-.37-.028-.674-.087-.912-.058-.237-.203-.356-.436-.356h-4.42c-.296 0-.507.045-.634.134a.578.578 0 0 0-.237.38 4.31 4.31 0 0 0-.048.754h-.57l-.175-2.346h1.585a2.887 2.887 0 0 1-1.14-.966 2.38 2.38 0 0 1-.445-1.395c0-1.246.507-1.975 1.521-2.186a2.761 2.761 0 0 1-1.102-.959 2.41 2.41 0 0 1-.419-1.37c0-.487.08-.898.238-1.237.159-.337.401-.591.728-.76.328-.169.735-.254 1.221-.254h3.897c.233 0 .378-.118.436-.355a3.94 3.94 0 0 0 .087-.912h.57v3.724h-.57c0-.37-.028-.674-.087-.911-.058-.238-.203-.357-.436-.357h-3.85c-.538 0-.974.077-1.307.23-.333.153-.5.467-.5.942 0 .623.252 1.139.753 1.546.502.406 1.07.609 1.704.609h3.2c.233 0 .378-.118.436-.356a3.94 3.94 0 0 0 .087-.912h.57v3.708h-.57c0-.369-.028-.673-.087-.911-.058-.238-.203-.357-.436-.357h-3.85c-.528 0-.961.077-1.3.231-.337.153-.506.467-.506.943 0 .633.25 1.151.752 1.552.502.402 1.07.603 1.704.603h3.2c.233 0 .378-.119.436-.357.059-.238.087-.536.087-.896h.57v3.709M25.609 132.009c0 .095-.048.143-.142.143-.043 0-.074-.011-.095-.032-1.807-1.849-4.432-2.773-7.876-2.773-3.443 0-6.057.914-7.843 2.741-.02.042-.063.064-.126.064a.136.136 0 0 1-.103-.04.135.135 0 0 1-.04-.103v-.143c0-.031.01-.057.032-.079a7.912 7.912 0 0 1 2.234-1.949 10.151 10.151 0 0 1 2.804-1.133 13.059 13.059 0 0 1 3.042-.356c.76 0 1.513.063 2.259.19.745.127 1.479.333 2.202.618a9.3 9.3 0 0 1 1.997 1.077 7.959 7.959 0 0 1 1.623 1.553.11.11 0 0 1 .032.079v.143" fill="#323232"/><path stroke-width="2.9997000000000003" stroke-linejoin="round" fill="none" stroke="#0072bd" d="m74.028 258.701.064.015.064.011.064.009.063.005.065.005.064-.006.064-.012.064-.017.064-.013.064-.013.064-.02.064-.024.064-.03.064-.034.064-.044.064-.048.064-.043.064-.043.064-.037.063-.026.065-.029.064-.025.064-.026.064-.016.064-.009.064.003.064.013.064.021.064.036.064.048.065.06.063.073.064.083.064.089.064.095.064.102.064.103.064.107.065.114.063.117.064.119.064.122.064.126.064.131.064.134.064.136.064.134.064.134.065.136.063.14.064.11.064.109.064.108.064.111.064.116.065.126.064.137.063.14.064.144.064.148.064.153.064.161.064.164.064.167.065.176.063.181.064.183.064.179.064.165.064.16.064.146.064.136.065.117.064.109.064.1.064.026.063.001.064-.011.064-.024.064-.033.064-.043.065-.061.064-.081.064-.088.063-.103.064-.112.064-.126.064-.143.064-.159.065-.167.064-.168.064-.169.064-.17.064-.178.063-.182.064-.182.064-.181.064-.173.065-.153.064-.14.064-.104.064-.091.063-.082.064-.074.064-.062.064-.05.064-.042.065-.04.064-.043.064-.047.063-.046.065-.048.063-.053.064-.063.064-.075.065-.088.064-.1.064-.094.064-.087.064-.098.063-.109.064-.116.064-.109.064-.1.065-.103.064-.146.064-.153.064-.168.063-.185.064-.191.064-.191.064-.197.065-.209.064-.222.064-.233.064-.232.064-.225.064-.225.063-.231.064-.241.064-.247.065-.249.064-.253.064-.253.064-.268.064-.273.063-.283.064-.299.064-.309.065-.322.064-.344.064-.349.064-.352.064-.362.063-.368.065-.378.063-.381.064-.384.065-.388.064-.399.064-.397.064-.409.064-.413.064-.412.064-.407.063-.398.064-.394.065-.389.064-.377.064-.364.064-.353.064-.34.063-.327.065-.317.063-.306.065-.317.064-.311.064-.309.064-.308.064-.306.064-.306.064-.306.064-.311.063-.317.065-.319.064-.318.064-.321.064-.321.064-.325.064-.328.064-.328.063-.329.065-.325.064-.323.064-.32.064-.315.064-.303.064-.28.064-.263.064-.242.064-.314.064-.308.064-.3.064-.295.064-.295.064-.29.064-.282.064-.276.064-.275.065-.286.063-.292.064-.292.064-.291.064-.295.064-.297.064-.305.064-.322.064-.33.064-.342.064-.356.064-.374.064-.402.064-.425.064-.443.064-.46.064-.469.064-.484.065-.495.064-.509.063-.521.064-.528.064-.537.064-.541.064-.545.064-.543.065-.536.064-.521.063-.507.064-.5.064-.487.064-.479.064-.456.064-.429.064-.406.065-.383.063-.364.065-.344.063-.328.064-.315.064-.296.064-.28.064-.273.065-.271.064-.276.064-.282.063-.289.064-.293.064-.293.064-.296.064-.299.064-.307.065-.315.064-.317.063-.318.065-.32.063-.328.064-.349.064-.357.064-.362.065-.37.064-.374.064-.378.064-.389.063-.402.064-.4.064-.452.064-.461.064-.467.065-.474.064-.483.064-.496.063-.501.064-.501.064-.498.064-.5.064-.509.064-.514.065-.523.064-.533.064-.54.064-.541.063-.541.064-.542.064-.539.064-.535.065-.527.064-.521.064-.521.064-.522.063-.517.064-.563.064-.56.064-.554.064-.547.065-.539.064-.534.064-.529.063-.516.064-.505.065-.486.063-.466.064-.444.065-.424.064-.405.064-.385.064-.371.064-.358.064-.349.063-.332.064-.318.064-.308.065-.299.064-.29.064-.283.064-.273.063-.298.064-.298.065-.294.063-.293.065-.294.064-.295.064-.296.064-.296.064-.297.064-.297.064-.301.063-.296.064-.29.065-.281.064-.271.064-.269.064-.269.064-.265.064-.256.063-.239.064-.223.064-.211.065-.192.064-.182.064-.166.064-.226.064-.221.064-.216.064-.216.063-.21.065-.205.064-.202.064-.201.064-.208.064-.221.064-.245.064-.269.063-.278.064-.293.065-.308.064-.329.064-.37.064-.414.064-.454.064-.488.063-.5.065-.523.064-.533.064-.531.064-.542.064-.526.064-.516.064-.507.064-.495.064-.479.063-.453.066-.43.063-.401.064-.381.064-.363.064-.352.064-.343.064-.319.063-.293.066-.273.063-.253.064-.241.064-.227.064-.226.064-.235.064-.236.064-.231.064-.228.064-.233.064-.247.064-.255.064-.267.064-.273.064-.282.064-.292.064-.308.063-.318.066-.323.063-.331.064-.338.064-.346.064-.352.064-.355.064-.366.063-.374.066-.381.063-.39.064-.39.064-.392.064-.393.064-.394.064-.387.064-.386.064-.395.064-.397.065-.464.063-.471.064-.479.064-.48.064-.483.064-.483.064-.486.065-.488.064-.491.063-.506.064-.511.064-.508.064-.507.064-.51.064-.508.064-.503.065-.5.063-.502.064-.498.064-.493.064-.488.064-.478.064-.463.064-.443.065-.424.064-.428.064-.417.063-.402.064-.386.064-.369.064-.351.064-.33.064-.315.065-.294.064-.274.063-.261.064-.251.065-.24.063-.231.064-.225.064-.214.064-.21.065-.207.063-.203.065-.198.064-.188.063-.181.064-.175.064-.172.064-.159.065-.226.064-.228.064-.23.064-.228.063-.226.064-.224.064-.224.064-.226.064-.222.065-.212.064-.2.064-.191.064-.187.064-.179.063-.169.064-.164.064-.166.065-.161.064-.153.064-.143.064-.131.064-.121.063-.11.064-.101.064-.103.064-.156.065-.161.064-.167.064-.172.064-.188.063-.202.065-.222.063-.237.064-.252.065-.272.064-.293.064-.316.064-.351.064-.402.064-.448.063-.479.064-.487.064-.483.065-.475.064-.462.064-.447.064-.431.064-.413.063-.396.064-.378.064-.316.064-.296.065-.273.064-.253.064-.238.064-.224.064-.221.064-.215.063-.205.064-.202.065-.197.064-.192.064-.192.064-.196.064-.204.064-.215.063-.224.064-.223.064-.23.065-.233.064-.24.064-.242.064-.24.064-.237.063-.237.065-.281.063-.291.065-.297.064-.296.064-.302.064-.311.064-.317.064-.319.064-.324.064-.331.063-.334.065-.333.064-.332.064-.335.064-.342.064-.354.064-.364.064-.374.063-.381.065-.391.064-.398.064-.395.064-.39.064-.376.064-.36.064-.444.064-.45.064-.456.065-.464.063-.472.064-.478.064-.474.064-.468.064-.465.064-.46.064-.45.063-.44.065-.432.064-.425.064-.416.064-.404.064-.387.064-.364.064-.336.064-.311.064-.287.064-.27.064-.253.064-.233.064-.217.064-.224.064-.21.064-.196.064-.181.065-.166.063-.156.064-.144.064-.138.064-.131.064-.127.064-.127.064-.125.065-.125.063-.122.064-.12.064-.117.064-.119.064-.117.064-.113.064-.103.064-.103.064-.106.065-.106.064-.099.063-.088.064-.158.064-.155.064-.149.064-.146.065-.143.064-.138.064-.132.063-.134.064-.133.064-.124.064-.119.064-.107.064-.101.065-.095.064-.089.063-.086.065-.084.063-.087.064-.081.064-.081.064-.087.064-.099.065-.107.064-.12.064-.135.063-.18.064-.195.064-.199.064-.211.064-.241.065-.257.064-.269.064-.283.063-.306.064-.323.064-.332.064-.336.064-.331.064-.319.065-.305.064-.277.064-.254.064-.229.063-.211.064-.191.064-.18.064-.167.065-.157.064-.144.064-.131.064-.122.063-.12.064-.122.064-.126.064-.132.064-.141.065-.147.064-.152.064-.16.063-.168.065-.169.063-.175.064-.179.064-.185.065-.189.064-.187.064-.182.064-.18.064-.171.063-.164.064-.162.064-.161.064-.164.065-.165.064-.159.064-.212.064-.216.063-.227.065-.237.064-.249.063-.253.064-.26.065-.273.064-.289.064-.306.064-.314.064-.321.064-.323.063-.329.064-.33.065-.34.064-.342.064-.347.064-.347.064-.344.064-.338.063-.326.065-.311.063-.3.065-.283.064-.399.064-.387.064-.377.064-.364.064-.35.064-.338.063-.325.065-.316.064-.304.064-.289.064-.27.064-.252.064-.234.064-.213.063-.194.064-.174.065-.156.064-.135.064-.11.064-.088.064-.067.064-.043.064-.017.064.007.064.043.064-.049.064-.048.064-.049.064-.049.064-.05.064-.052.064-.052.063-.05.065-.051.064-.049.064-.048.064-.051.064-.053.064-.056.064-.056.063-.053.065-.05.064-.049.064-.044.064-.044.064-.044.064-.044.064-.043.064-.039.064-.031.064-.075.065-.064.063-.051.064-.048.064-.047.064-.045.064-.046.064-.046.063-.052.066-.06.063-.059.064-.063.064-.067.064-.076.064-.079.064-.086.064-.088.065-.086.063-.101.065-.115.063-.136.064-.149.064-.159.064-.165.064-.164.064-.179.065-.183.064-.196.063-.201.064-.2.064-.192.064-.184.064-.174.064-.158.065-.146.064-.137.063-.124.064-.105.064-.088.064-.07.064-.053.064-.043.064-.037.065-.035.064-.034.064-.033.063-.032.064-.034.064-.039.064-.044.064-.083.065-.089.064-.095.064-.098.063-.103.064-.104.064-.105.064-.105.064-.102.064-.1.065-.096.064-.094.063-.094.065-.09.063-.087.064-.079.064-.075.064-.074.064-.075.065-.074.064-.069.064-.064.063-.065.064-.068.064-.066.064-.154.064-.164.065-.169.064-.178.064-.189.063-.205.064-.22.065-.229.063-.241.064-.246.064-.252.065-.253.064-.259.064-.267.064-.271.064-.264.063-.251.064-.235.064-.222.065-.208.064-.19.064-.169.064-.138.064-.093.063-.042.064-.172.064-.155.064-.143.065-.137.064-.126.064-.11.064-.099.064-.085.064-.072.063-.053.064-.036.065-.019.064-.002.064.02.064.033.064.053.064.071.063.081.064.087.064.094.065.103.064.11.064.124.064.139.064.142.063.011.065.011.063.007.064.007.065.005h.064l.064-.002.064-.005.064-.007.064-.007.063-.01.064-.016.065-.019.064-.025.064-.023.064-.026.064-.022.064-.01h.063l.065.003.063.014.065.019.064.034.064.046.064.056.064.018.064.02.064.02.063.025.066.023.063.021.064.016.064.014.064.009.064.007.064.004.063.002.064.002.065.008.064.006.064.009.064.005.064-.008.064-.012.064-.015.064-.017.063-.014.065-.023.064-.023.064-.029.064-.058.064-.056.064-.043.064-.037.064-.029.065-.022.063-.008.064.001.064.005.064.004.064.003.064.001.064.003.064.005.064.008.064.007.064.012.064.013.064.014.064.015.064.014.064.014.064.017.065.022.063.04.064-.015.064-.012.064-.007.064-.009.064-.007.064-.005.065-.001.063.003.064.007.064.008.064.01.064.012.064.015.064.02.065.02.063.023.064.037.064.054.064.068.064.076.064.086.064.091.064.103.065.11.064.122.063-.094.064-.109.064-.112.064-.116.064-.112.064-.107.065-.106.064-.106.063-.102.064-.091.065-.083.063-.072.064-.056.064-.042.064-.024.065.001.063.029.065.057.064.088.063.121.064.145.064.165.064.179.064.189.065.199.064.037.064.048.063.062.064.074.064.086.064.097.064.109.065.117.064.128.064.137.064.142.064.147.063.148.064.15.064.152.064.155.065.155.064.154.064.157.064.159.063.161.064.165.064.168.064.17.065.168.064.073.064.072.064.072.063.076.065.075.063.074.064.075.064.076.065.077.064.081.064.087.064.092.064.096.063.099.064.103.064.103.065.108.064.112.064.125.064.139.064.144.063.157.064.166.064.17.064.175.065.133.064.133.064.137.064.136.064.14.064.145.063.145.064.153.064.151.065.152.064.153.064.154.064.157.064.158.063.155.064.148.064.141.065.123.064.112.064.106.064.1.064.104.063.109.065.121.063.134.064.09.065.095.064.097.064.1.064.106.064.112.064.111.064.119.063.124.065.128.064.134.064.145.064.152.064.159.064.171.064.184.063.193.065.203.064.222.064.242.064.264.064.286.064.299.064.306.064.31.064.203.065.202.063.204.064.209.064.214.064.214.064.218.064.227.064.23.063.23.065.233.064.239.064.241.064.242.064.237.064.231.064.23.064.23.064.231.064.231.064.236.064.24.064.246.064.25.064.255.064.199.064.22.065.236.063.246.064.253.064.265.064.265.064.268.064.273.064.278.064.286.064.293.064.299.064.304.064.307.064.312.064.316.064.317.064.322.064.326.065.331.064.334.063.339.064.344.064.347.064.267.064.271.064.274.065.274.064.272.063.273.064.275.064.277.064.282.064.289.064.296.065.298.064.303.063.307.065.308.063.31.064.314.064.317.064.319.064.325.065.333.064.339.064.342.063.343.064.342.064.292.064.299.064.301.064.305.065.311.064.318.063.322.064.328.064.335.064.346.064.354.064.358.065.364.064.368.064.375.064.383.063.391.064.399.064.407.064.411.064.421.065.425.064.43.064.434.063.436.064.384.064.382.064.382.064.381.065.375.064.368.064.364.063.364.065.364.063.365.064.364.064.361.064.358.065.357.064.354.064.352.064.351.063.352.064.353.064.358.064.364.065.371.064.376.064.381.064.386.063.414.065.414.064.411.063.411.064.408.065.405.064.408.064.411.064.412.064.409.064.408.063.408.064.408.064.409.065.409.064.408.064.404.064.402.064.392.063.38.065.37.063.364.065.356.064.35.064.339.064.361.064.354.064.349.064.344.063.338.064.339.065.336.064.334.064.336.064.338.064.338.064.335.063.334.064.337.065.342.064.345.064.349.064.348.064.346.064.348.064.351.064.354.063.354.065.354.064.352.064.35.064.347.064.341.064.337.064.334.063.33.065.328.064.327.064.325.064.326.064.326.064.326.064.323.063.324.065.325.064.329.064.33.064.333.064.335.064.338.064.339.064.343.064.346.063.349.066.351.063.357.064.361.064.361.064.361.064.364.064.364.063.366.066.367.063.369.064.375.064.379.064.38.064.383.064.385.064.388.064.39.064.393.065.399.063.402.064.404.064.41.064.412.064.413.064.416.065.415.064.399.063.397.064.394.064.393.064.388.064.383.064.378.064.375.065.369.063.362.064.358.064.354.064.354.064.351.064.348.064.349.065.347.064.348.064.345.063.343.064.341.064.331.064.328.064.328.064.33.065.373.064.38.063.389.064.395.064.401.064.402.064.405.064.405.065.408.064.406.063.404.065.403.063.405.064.407.064.411.064.416.064.417.065.415.064.414.064.414.063.412.064.412.064.412.064.411.064.408.064.436.065.423.064.417.063.414.064.402.065.395.063.389.064.388.064.385.065.382.064.378.064.369.064.357.064.348.063.345.064.339.064.326.064.311.065.302.064.291.064.282.064.271.063.263.064.254.064.251.064.286.065.279.064.274.064.268.064.266.064.264.064.261.063.258.064.254.064.253.065.248.064.246.064.245.064.248.064.248.063.248.064.252.064.253.065.259.064.263.064.267.064.267.064.272.063.275.065.28.063.352.064.351.065.349.064.351.064.347.064.345.064.344.064.344.063.34.064.337.064.337.065.335.064.334.064.329.064.327.064.328.063.324.065.325.063.324.065.325.064.325.064.328.064.328.064.326.064.327.064.365.063.363.064.36.065.358.064.356.064.354.064.355.064.357.064.358.063.359.064.361.065.362.064.359.064.362.064.363.064.367.064.365.064.365.064.365.063.363.065.362.064.36.064.36.064.36.064.358.064.323.064.32.063.312.066.303.063.295.064.288.064.286.064.279.064.279.064.274.064.271.064.26.064.247.064.246.064.247.064.25.064.253.064.257.064.263.064.273.064.282.065.293.063.3.064.313.064.325.064.369.064.379.064.388.064.394.065.4.063.409.064.419.064.428.064.434.064.44.064.441.064.444.064.449.064.458.064.463.064.471.064.473.064.474.064.469.064.463.064.46.065.453.064.443.063.431.064.419.064.424.064.413.064.399.064.39.064.379.065.368.063.363.064.346.065.327.063.316.064.302.064.281.064.259.065.237.063.224.065.21.064.199.063.185.064.168.064.159.064.15.064.149.065.141.064.136.064.135.063.154.064.153.064.149.064.151.064.155.064.159.065.166.064.167.064.168.064.177.063.187.064.192.064.199.064.207.065.211.064.211.064.212.064.219.063.225.064.228.064.231.064.233.064.242.065.251.064.257.064.284.063.285.065.285.063.286.064.286.064.291.065.293.064.297.064.301.064.305.064.305.063.303.064.3.064.296.064.293.065.288.064.284.064.281.064.279.063.274.064.275.064.274.064.275.065.279.064.279.064.298.064.297.064.295.064.295.063.294.064.293.064.294.065.291.064.292.064.294.064.293.064.295.063.294.064.297.064.295.064.298.065.295.064.294.064.294.064.285.063.273.065.251.064.232.063.23.065.225.064.238.064.234.064.227.064.222.064.222.063.223.064.223.064.216.065.216.064.216.064.221.064.231.064.236.064.238.063.249.065.261.064.27.064.286.064.303.064.311.064.322.064.331.064.341.064.349.063.359.065.425.064.426.064.428.064.431.064.433.064.431.064.431.063.428.065.432.064.431.064.433.064.433.064.434.064.426.064.42.064.414.064.403.064.395.064.384.064.374.064.357.064.35.064.339.064.331.064.324.063.31.065.294.064.28.064.268.064.263.064.257.064.25.064.237.064.226.064.217.064.201.064.19.064.178.064.164.064.158.064.146.064.138.064.125.065.113.064.11.063.102.064.095.064.091.064.089.064.09.064.113.065.117.064.121.063.128.064.137.064.144.064.147.064.15.064.154.064.163.065.168.063.169.065.18.063.185.064.189.064.191.064.192.064.199.065.21.064.218.064.228.063.241.064.247.064.257.064.265.064.294.064.295.065.296.064.294.063.291.064.284.064.279.064.272.064.268.064.265.064.261.065.259.064.252.064.25.063.245.064.244.064.245.064.247.064.251.065.249.064.249.064.246.063.245.064.241.064.237.064.263.064.259.064.256.065.25.064.243.063.242.065.236.063.231.064.229.064.228.064.224.065.218.064.204.064.195.064.171.063.157.064.134.064.113.064.104.064.099.065.091.064.093.064.098.063.104.065.109.064.186.063.19.064.192.065.196.064.193.064.2.064.207.064.209.063.215.064.22.064.227.064.237.065.251.064.267.064.282.064.294.064.306.063.315.065.327.063.341.064.348.065.35.064.354.064.362.064.374.064.433.064.427.063.424.064.423.065.418.064.411.064.405.064.396.064.384.064.371.063.363.064.352.064.339.065.328.064.311.064.293.064.277.064.257.064.244.064.234.063.219.065.204.064.183.064.164.064.153.064.154.064.146.064.133.063.121.064.108.065.098.064.09.064.077.064.066.064.061.064.056.063.049.065.04.064.031.064.03.064.027.064.025.064.02.064.019.064.016.064.015.063.021.066.033.063.036.064.043.064.114.064.126.064.136.064.144.063.155.066.164.063.173.064.185.064.193.064.204.064.208.064.213.064.219.064.225.064.231.065.237.063.242.064.248.064.255.064.26.064.266.064.268.063.269.066.269.063.266.064.293.064.291.064.289.064.283.064.277.064.272.065.266.063.256.064.246.064.23.064.222.064.214.064.205.064.192.064.179.065.168.064.16.063.159.064.155.064.146.064.141.064.143.064.145.065.144.064.142.063.163.064.158.064.154.064.149.064.143.064.137.064.123.065.108.063.088.065.068.063.059.064.061.064.054.064.047.064.042.064.04.065.039.064.047.063.054.064.055.064.054.064.057.064.057.064.059.065.05.064.129.063.134.064.137.065.145.063.153.064.166.064.179.064.187.065.198.064.209.064.214.064.223.063.237.064.247.064.253.064.26.065.268.064.268.064.278.064.281.063.284.064.284.064.281.064.27.064.254.065.295.064.283.064.27.064.252.064.24.063.225.064.21.064.195.065.176.064.162.064.144.064.136.064.127.063.117.064.103.064.089.064.082.065.077.064.061.064.044.064.032.063.019h.065l.063-.01.064-.025.065-.016.064-.027.064-.04.064-.051.064-.056.064-.059.063-.068.064-.074.064-.074.065-.071.064-.077.064-.078.064-.074.064-.069.063-.065.065-.061.063-.055.064-.047.065-.041.064-.034.064-.024.064-.018.064-.011.064-.005.063.007.064.05.065.056.064.064.064.072.064.079.064.089.064.095.063.101.064.105.065.114.064.121.064.124.064.129.064.131.064.13.064.124.064.123.064.119.064.11.064.107.064.104.064.103.064.099.064.094.064.093.064.133.063.126.065.122.064.115.064.109.064.102.064.096.064.09.064.088.064.08.064.069.064.062.064.056.064.048.064.037.064.032.064.033.064.029.064.019.065.01h.063l.064-.01.064-.02.064-.035.064-.053.064-.04.064-.052.063-.058.065-.063.064-.068.064-.068.064-.068.064-.064.064-.059.064-.055.064-.05.064-.044.064-.038.064-.032.064-.027.064-.023.064-.023.064-.022.064-.016.064-.01.065-.006.063.006.064.019.064.028.064.033.064.094.064.102.064.114.065.127.063.129.064.135.065.142.063.153.064.155.064.159.064.164.064.162.064.162.065.157.064.15.063.141.064.136.064.13.064.117.064.104.064.097.065.09.064.08.063.077.064.073.064.063.064.051.064.036.064.02.065.005.064-.013.064-.021.064-.033.063-.039.064-.059.064-.072.064-.078.064-.081.065-.085.064-.096.064-.106.063-.121.064-.134.064-.147.064-.158.064-.166.065-.17.064-.176.064-.183.063-.194.065-.208.063-.218.064-.223.064-.223.064-.218.065-.214.064-.212.064-.204.064-.201.063-.198.064-.192.064-.191.064-.183.065-.174.064-.162.064-.15.064-.141.063-.132.064-.12.064-.107.064-.096.064-.087.065-.073.064-.056.064-.038.064-.051.064-.048.063-.048.064-.043.064-.039.065-.039.064-.039.064-.04.064-.04.064-.041.063-.046.064-.052.064-.055.064-.061.065-.06.064-.06.064-.064.064-.068.063-.07.065-.07.064-.071.063-.08.064-.091.065-.098.064-.1.064-.103.064-.11.064-.117.064-.12.063-.131.064-.141.065-.145.064-.148.064-.151.064-.156.064-.16.064-.165.063-.173.065-.182.063-.2.065-.21.064-.223.064-.231.064-.238.064-.244.064-.245.064-.251.063-.255.065-.255.064-.246.064-.149.064-.148.064-.15.064-.146.064-.143.063-.141.065-.132.064-.124.064-.116.064-.106.064-.099.064-.102.064-.097.064-.097.064-.098.064-.099.064-.098.064-.091.064-.089.064-.088.064-.08.064-.076.064-.067.063-.053.065-.045.064.001.064.002.064.007.064.003.064.001.064.001.064-.001.064-.007.064-.013.064-.019.064-.028.064-.036.064-.045.064-.059.064-.071.064-.086.065-.094.064-.101.063-.102.064-.107.064-.106.064-.112.064-.118.064-.125.063-.13.066-.145.063-.155.064-.164.064-.166.064-.17.064-.174.064-.185.064-.189.065-.199.063-.212.065-.218.063-.227.064-.242.064-.253.064-.263.064-.27.064-.272.065-.268.064-.267.063-.261.064-.258.064-.255.064-.245.064-.23.064-.217.065-.238.064-.236.063-.236.064-.239.064-.242.064-.241.064-.246.064-.249.064-.246.065-.242.064-.235.064-.224.063-.212.064-.203.064-.194.064-.187.064-.184.065-.176.064-.169.064-.16.063-.15.064-.134.064-.12.064-.105.064-.087.064-.084.065-.08.064-.078.063-.075.065-.076.063-.076.064-.077.064-.078.064-.08.064-.081.065-.084.064-.09.064-.094.063-.1.064-.103.064-.108.064-.114.064-.117.065-.121.064-.124.064-.132.063-.138.065-.143.064-.143.063-.146.064-.15.064-.159.065-.163.064-.169.064-.175.064-.182.064-.184.063-.184.064-.187.064-.191.065-.194.064-.193.064-.19.064-.192.064-.198.063-.199.065-.196.063-.195.064-.186.065-.175.064-.164.064-.153.064-.151.064-.139.064-.139.063-.081.064-.077.064-.071.065-.07.064-.061.064-.053.064-.061.064-.062.063-.073.064-.07.064-.068.065-.067.064-.067.064-.052.064-.045.064-.039.064-.033.064-.028.063-.021.064-.012.065-.005.064-.004.064-.003.064-.002.064-.003.064.012.063-.001.064-.008.065-.016.064-.028.064-.033.064-.043.064-.051.064-.064.063-.072.065-.082.063-.092.065-.101.064-.108.064-.111.064-.114.064-.115.064-.116.064-.126.063-.136.066-.146.063-.153.064-.158.064-.16.064-.167.064-.159.064-.158.063-.162.064-.166.065-.174.064-.179.064-.184.064-.188.064-.192.064-.195.064-.196.064-.196.064-.196.065-.197.063-.199.064-.193.064-.19.064-.187.064-.179.064-.178.064-.178.065-.174.063-.173.064-.172.064-.167.064-.126.064-.124.064-.118.064-.115.064-.11.064-.104.064-.096.064-.091.064-.088.064-.085.064-.083.064-.081.064-.075.065-.07.064-.064.063-.056.064-.05.064-.042.064-.034.064-.027.064-.023.064-.017.065-.012.063-.006.064-.001.064.025.064.022.064.018.064.013.064.009.065.004.063-.001.065-.007.063-.012.064-.014.064-.02.064-.026.064-.028.064-.029.065-.026.064-.029.063-.03.064-.031.064-.031.064-.029.064-.032.064-.04.064-.05.065-.063.063-.075.064-.042.065-.039.063-.036.064-.033.064-.032.064-.031.065-.03.064-.031.064-.028.064-.031.063-.028.064-.029.064-.035.064-.03.064-.02.065-.02.064-.019.064-.014.063-.008.064-.004.064.008.064.011.064.008.065.011.064.007.064.03.064.024.064.019.063.015.064.008.064.008.064.011.065.01.064.011.064.012.064.013.063.017.064.017.064.016.064.01.065.012.064.008.064.01.064.012.063.016.065.017.063.021.064.025.064.029.065.034h.064l.064.003.064.005.064.01.063.016.064.013.064.018.064.021.065.02.064.019.064.021.064.02.063.021.065.017.063.019.064.02.065.02.064.019.064.014.064.008.064.004.064.001.063.004.064.011.064.012.065-.005.064-.006.064-.012.064-.017.064-.017.063-.022.064-.026.065-.026.064-.03.064-.037.064-.039.064-.045.064-.043.064-.038.064-.034.064-.035.063-.036.065-.033.064-.031.064-.027.064-.02.064-.012.064-.002.064.012.063.021.065.016.064.023.064.027.064.034.064.042.064.048.064.056.064.064.064.072.064.077.064.085.064.09.064.095.064.102.064.105.064.111.064.113.065.116.063.116.064.116.064.116.064.116.064.112.064.108.064.105.063.109.065.104.064.098.064.092.064.09.064.081.064.078.064.076.064.074.064.072.064.07.064.068.064.068.064.068.064.072.064.07.064.069.064.072.065.073.063.071.064.068.064.07.064.07.064.073.064.084.064.113.064.119.064.121.064.127.065.131.063.133.064.137.064.138.064.14.064.143.064.146.065.146.064.149.063.148.064.15.064.153.064.157.064.156.064.155.065.158.064.157.063.158.064.155.064.153.064.15.064.146.064.143.065.141.064.137.064.138.064.137.063.134.064.129.064.126.064.124.064.124.065.122.064.122.064.119.063.12.064.118.064.121.064.122.064.12.064.12.065.122.064.124.063.127.065.134.063.141.064.078.064.079.064.075.065.071.064.071.064.066.064.061.063.059.064.057.064.056.064.053.064.05.065.055.064.053.064.053.063.058.064.063.064.065.064.075.064.088.065.1.064.113.064.127.064.139.064.153.063.036.064.041.064.042.064.041.065.043.064.043.064.045.064.046.063.046.064.047.064.046.064.053.065.058.064.06.064.065.064.076.063.086.065.099.064.114.063.128.064.145.065.157.064.17.064.182.064.189.064.067.064.068.063.07.064.074.064.077.065.079.064.081.064.084.064.086.064.087.063.089.065.092.063.095.065.097.064.099.064.101.064.101.064.105.064.104.064.106.063.104.064.103.065.104.064.109.064.112.064.079.064.076.064.076.063.077.065.08.064.082.064.084.064.085.064.087.064.089.064.084.064.086.064.088.063.089.065.09.064.09.064.094.064.093.064.098.064.101.064.103.063.102.064.105.065.11.064.11.064.102.064.103.064.103.064.102.064.101.064.103.064.106.064.108.064.106.064.105.064.109.064.107.064.107.064.106.063.107.066.113.063.112.064.11.064.109.064.11.064.113.064.109.063.113.066.11.063.113.064.081.064.079.064.076.064.077.064.078.064.078.064.078.064.08.065.084.063.084.064.089.064.092.064.097.064.1.064.106.065.11.064.119.063.123.064.129.064.134.064.139.064.143.064.148.064.152.065.157.063.115.064.118.064.119.064.121.064.125.064.127.064.129.064.132.065.134.064.139.063.141.064.144.064.148.064.152.064.156.064.158.065.161.064.163.063.16.064.163.064.167.064.166.064.166.064.167.064.168.065.141.063.143.065.146.063.146.064.146.064.146.064.145.064.142.065.138.064.136.064.133.063.127.064.13.064.131.064.134.064.135.064.136.065.141.064.147.063.15.065.155.064.158.063.161.064.161.064.163.065.141.064.142.064.144.064.146.064.146.063.147.064.146.064.146.064.147.065.147.064.147.064.148.064.149.063.148.065.152.063.156.064.159.065.161.064.163.064.165.064.17.064.171.064.171.063.174.064.175.064.17.065.169.064.171.064.174.064.172.064.172.063.173.064.177.064.176.064.178.065.18.064.179.064.178.064.179.064.177.064.175.063.176.064.175.065.175.064.174.064.172.064.171.064.17.064.171.063.174.064.158.064.16.065.161.064.158.064.158.064.157.064.159.063.159.065.159.063.159.065.16.064.158.064.159.064.157.064.158.064.159.064.16.063.157.064.161.065.162.064.163.064.165.064.162.064.162.064.162.063.134.064.133.065.13.064.128.064.131.064.128.064.128.064.128.064.128.064.129.064.13.065.132.063.132.064.133.064.134.064.132.064.133.064.132.064.133.065.137.063.137.064.138.064.141.064.145.064.145.064.132.064.133.064.136.064.139.064.142.064.145.064.146.064.147.064.148.064.151.064.153.064.153.065.153.063.153.064.152.064.153.064.152.064.152.064.153.064.15.065.146.063.148.064.148.064.148.064.148.064.139.064.137.064.135.064.134.064.133.065.132.063.13.064.129.064.126.064.129.064.127.064.126.065.125.064.125.063.126.064.126.064.126.064.126.064.126.064.126.064.127.065.128.063.128.064.127.065.128.063.113.064.108.064.11.064.11.065.107.064.11.064.11.064.11.063.112.064.109.064.11.064.11.064.112.065.114.064.111.064.11.063.108.064.108.064.107.064.105.064.103.065.105.064.104.064.105.064.102.064.075.063.073.064.076.064.077.064.08.065.077.064.077.064.08.064.08.063.083.064.082.064.082.064.083.064.08.065.076.064.077.064.075.063.077.065.078.063.079.064.08.064.077.065.077.064.078.064.078.064.033.064.032.063.035.064.035.064.037.064.035.065.04.064.042.064.047.064.05.063.054.065.057.063.06.064.065.064.07.065.075.064.079.064.085.064.088.064.095.063.096.064.096.064.096.065.098.064.101.064.036.064.039.064.04.063.043.064.046.065.051.063.057.065.06.064.065.064.07.064.077.064.08.064.09.063.094.064.104.065.11.064.119.064.126.064.134.064.14.064.15.063.16.064.162.064.167.065.172.064.106.064.109.064.111.064.116.064.116.064.12.064.119.064.12.064.124.064.127.064.128.064.13.064.131.064.134.064.137.063.14.065.144.064.145.064.148.064.151.064.153.064.156.064.156.063.157.065.16.064.116.064.12.064.122.064.125.064.126.064.13.064.133.064.136.064.137.064.141.064.143.064.148.064.151.064.156.064.16.064.161.063.166.065.17.064.173.064.174.064.178.064.176.064.178.064.177.064.176.064.128.064.125.065.12.063.115.064.11.064.107.064.102.064.099.064.097.065.099.064.095.063.096.064.097.064.096.064.097.064.096.064.1.065.096.064.097.063.098.064.099.064.101.064.101.064.1.064.102.064.1.065.101.064.102.064.105.063.102.064.101.064.1.064.099.064.092.064.09.065.091.064.086.063.077.064.071.064.068.064.065.064.06.064.055.065.06.064.063.063.064.065.069.063.076.064.08.064.088.064.043.064.046.065.046.064.044.064.044.063.038.064.039.064.04.064.04.064.04.065.042.064.045.064.045.063.05.064.05.064.053.064.056.064.058.064.061.065.065.064.068.064.069.064.07.063.074.064.077.064.033.064.039.065.041.064.046.064.049.064.053.063.058.064.063.064.068.064.074.064.078.065.083.064.09.064.096.063.1.065.105.064.11.063.112.064.115.065.12.064.118.064.12.064.122.064.123.064.122.063.083.064.084.064.087.065.087.064.09.064.087.064.086.064.083.063.082.065.081.063.082.064.082.065.082.064.082.064.085.064.088.064.093.064.093.063.095.064.098.065.099.064.102.064.108.064.111.064.117.064.089.063.087.065.089.063.09.065.088.064.092.064.09.064.092.064.093.064.096.064.095.063.098.065.1.064.103.064.102.064.105.064.106.064.107.064.108.063.109.064.11.065.109.064.108.064.106.064.106.064.087.064.086.064.085.064.086.064.086.064.084.064.082.064.082.064.08.064.082.064.08.064.077.063.076.066.075.063.073.064.072.064.07.064.071.064.073.064.068.063.066.065.067.064.065.064.063.064.066.064.074.064.07.064.07.064.069.064.069.064.068.065.063.063.061.064.057.064.056.064.06.064.059.064.058.064.057.065.06.063.057.064.057.064.058.064.056.064.06.064.06.064.064.065.065.063.066.064.068.064.055.064.052.064.052.064.052.064.053.064.054.065.053.064.053.063.052.064.051.064.048.064.045.064.043.064.04.065.04.064.04.063.038.064.041.064.043.064.044.064.048.064.047.064.049.065.05.063.051.065.053.063.054.064.053.064.054.064.055.064.056.064.058.065.06.064.06.063.058.064.064.064.063.064.06.064.06.064.056.065.055.064.056.063.053.065.053.064.046.063.044.064.045.064.043.064.042.065.045.064.05.064.051.063.05.064.046.064.04.064.035.064.031.065.027.064.028.064.027.064.028.063.029.065.034.063.035.064.037.064.039.065.043.064.043.064.047.064.049.064.05.063.048.064.05.064.048.065.05.064.067.064.066.064.065.064.063.063.066.064.063.064.066.064.066.065.064.064.061.064.058.064.053.064.05.064.046.063.043.064.04.065.036.064.032.064.024.064.023.064.016.064.014.063.011.064.01.064.007.065.03.064.031.064.031.064.029.064.027.063.03.065.027.063.026.064.028.065.025.064.024.064.023.064.023.064.024.064.018.063.015.064.012.065.01.064.005.064.006.064.003.064.004.064.009.063.003.064-.001.065.005.064.005.064.002.064.003.064-.003.064-.004.064-.004.064-.005.063-.005.064-.008.065-.01.064-.01.064-.012.064-.007.064-.005.064-.004.063-.004.064-.004.065-.004.064-.002.064-.001h.128l.064.002.064.002.064-.02.064-.028.064-.031.064-.033.064-.037.064-.042.064-.043.064-.045.064-.046.064-.045.065-.046.063-.043.064-.04.064-.035.064-.03.064-.026.064-.023.064-.017.064-.014.064-.01.064-.007.064-.006h.064l.064.004.064.01.064-.037.064-.038.064-.037.065-.034.063-.034.064-.033.064-.033.064-.033.064-.032.064-.028.064-.03.065-.033.063-.032.064-.03.064-.027.064-.026.064-.026.064-.024.064-.022.065-.018.063-.014.064-.012.065-.007h.063l.064.007.064-.046.064-.043.064-.04.065-.04.064-.038.064-.036.063-.034.064-.034.064-.03.064-.03.064-.025.064-.024.065-.022.064-.02.063-.018.064-.016.064-.016.064-.015.064-.012.064-.01.065-.008.064-.007.064-.006.064-.004.063-.002.064-.021.064-.022.064-.02.064-.02.065-.018.064-.019.064-.017.063-.018.064-.02.064-.018.064-.016.064-.017.065-.016.064-.015.064-.014.063-.013.065-.014.063-.014.064-.012.064-.017.064-.015.065-.015.064-.016.064-.018.064-.02.063-.024.064-.025.064-.021.064-.02.065-.018.064-.018.064-.017.064-.017.063-.018.065-.018.063-.016.064-.017.064-.017.065-.018.064-.02.064-.017.064-.016.064-.016.063-.017.064-.02.064-.017.064-.016.065-.015.064-.015.064-.014.064-.018.063-.019.064-.019.065-.02.063-.019.065-.02.064-.018.064-.017.064-.018.064-.016.064-.016.064-.014.063-.012.064-.008.065-.01.064-.007.064-.006.064-.005.064-.006.064-.005.063-.005.064-.006.065-.006.064-.007.064-.007h.192l.064-.002h.064l.063-.002h.065l.064.002.064.002.064.003.064.005.064.006.064.005.063.006.065.006.064.006.064.004.064.004.064.003.064.001.064.003.063.004.065.003h.064l.064-.003.064.005.064.002.064.003.064.005.064.006.064.003.064.002h.064l.064.003.064.002.064.002h.064l.064-.001.064-.003.063-.005.065-.007.064-.005.064-.01.064-.008.064-.009.064-.012.064-.012.064-.012.064-.01.064-.01h.128l.064.002.064.003.064.005.064.005.064.008.065.008.064.008.063.008.064.008.064.01.064.01.064.008.064.012.063.014.066.015.063.017.064.017.064.018.064.015.064.013.064.01.064.01.065.01.064.012.064.008.063.008.064.007.064.006.064.005.064.005.064.007.065.007.064.007.063.01.064.01.064.012.064.012.064.012.064.014.065.015.064.015.063.015.065.016.063.017.064.017.064.017.064.015.064.014.065.01.064.006.064.005.063.003.064-.002.064-.003.064-.003.064-.006.064-.005.065-.005.064-.005.063-.002.064-.005.064-.006.064-.004.064.001.064.003.065.004.064.005.064.009.064.012.063.013.064.016.064.016.064.02.064-.008.065-.008.064-.013.064-.01.063-.012.064-.01.064-.006.064-.005.064-.002.065.002.064.005.064.01.063.015.065.018.064.023.063.027.064.031.064.037.065.041.064.045.064.047.064.048.063.051.064.054.064.057.064.015.064.018.065.021.064.026.064.027.064.032.063.034.065.038.063.04.064.043.065.044.064.048.064.049.064.05.064.053.064.054.063.053.064.052.064.056.065.054.064.055.064.055.064.056.064.057.063.056.065.033.063.035.065.037.064.04.064.041.064.044.064.045.064.044.064.046.063.048.064.047.065.05.064.053.064.051.064.053.064.055.064.055.063.055.064.057.065.058.064.058.064.058.064.058.064.06.064.059.064.042.064.043.063.046.065.045.064.048.064.048.064.048.064.05.064.05.064.052.063.053.066.054.063.054.064.054.064.053.064.054.064.055.064.055.063.056.065.056.064.057.064.057.064.057.064.057.064.058.064.042.064.042.064.044.063.044.066.045.063.044.064.046.064.047.064.046.064.046.064.047.063.047.066.048.063.048.064.048.064.05.064.049.064.048.064.05.064.05.064.048.064.05.064.048.064.05.064.05.064.034.064.033.064.035.064.034.065.034.064.034.063.036.064.035.064.036.064.036.064.035.064.037.064.038.065.037.063.039.064.038.064.038.064.037.064.04.064.04.064.039.064.042.064.04.065.042.063.042.064.037.064.036.064.039.064.038.064.038.065.04.064.04.063.039.064.04.064.04.064.042.064.043.064.044.064.044.065.045.063.047.065.046.064.046.063.05.064.048.064.049.064.05.065.05.064.049.064.05.064.045.063.047.064.045.064.047.064.047.064.047.065.048.064.046.064.048.063.048.065.047.063.047.064.047.064.048.065.047.064.048.064.047.064.05.064.048.063.048.064.05.064.05.064.05.065.05.064.049.064.047.064.048.063.047.064.048.064.047.064.048.065.048.064.047.064.048.064.048.064.047.064.049.063.047.064.048.064.048.065.049.064.047.064.048.064.048.064.047.063.048.064.048.064.047.064.048.065.048.064.041.064.042.064.042.063.043.065.042.063.044.064.043.065.041.064.042.064.041.064.043.064.04.064.042.063.042.064.041.064.042.065.041.064.042.064.042.064.041.064.042.063.041.064.042.064.041.065.041.064.035.064.033.064.034.064.035.064.035.064.035.064.035.063.036.065.035.064.035.064.034.064.035.064.034.064.035.064.033.063.034.065.033.064.033.064.032.064.031.064.033.064.032.064.03.064.03.064.03.064.026.064.025.064.026.064.025.064.025.064.025.064.026.064.026.063.024.065.025.064.024.064.025.064.024.064.023.064.025.064.023.064.023.064.023.064.022.064.023.064.023.064.021.064.021.064.022.064.02.064.021.065.02.063.02.064.02.064.02.064.019.064.018.064.018.064.02.065.017.063.017.064.018.064.017.064.016.064.017.064.017.064.016.064.017.064.017.064.016.065.016.063.015.064.015.064.016.064.014.064.014.065.014.064.014.064.014.063.013.064.014.064.014.064.016.064.014.064.014.065.014.064.013.063.015.064.013.064.013.064.012.064.012.064.011.064.012.065.012.064.01.064.013.063.012.064.011.064.012.064.01.064.012.065.011.064.01.064.01.063.012.064.01.064.01.064.01.064.01.064.011.065.01.064.01.063.01.065.01.063.009.064.01.064.009.064.01.065.01.064.007.064.009.064.008.063.008.064.009.064.004.064.003.064.004.065.005.064.004.064.004.063.004.065.004.063.005.064.003.064.004.065.003.064.004.064.003.064.003.064.003.063.003.064.003.064.002.064.003.065.003.064.002.064.003.064.002.063.003.064-.008.065-.006.063-.007.065-.006.064-.006.064-.007.064-.005.064-.004.064-.005.064-.004.063-.005.064-.005.065-.005.064-.004.064-.004.064-.004.064-.004.063-.003.064-.003.064-.003.064-.002.065-.002.064-.002.064-.001.064-.001.064-.008.064-.008.064-.008.063-.007.065-.007.064-.007.064-.006.064-.006.064-.005.064-.005.064-.005.063-.005.064-.005.065-.003.064-.004.064-.003.064-.004.064-.003.064-.002.063-.002.065-.002h.063l.065-.003.064-.002.064-.002h.064l.064-.002h.384l.064.001h.064l.064.004.064.003.063.002.064.003.065.002.064.003.064.004.064.003.064.002.064.005.064.003.064.002.064.004.065.003.063.004.064.005.064.004.064.005.064.005.064.005.063.006.066.005.063.005.064.007.064.007.064.005.064.008.064.007.063.008.066.008.063.008.064.008.064.01.064.009.064.007.064.01.064.009.064.008.065.009.064.01.063.008.064.009.064.008.064.009.064.009.064.01.065.008.064.01.063.009.064.007.064.01.064.009.064.008.064.009.064.01.065.008.063.01.065.01.063.01.064.01.064.01.064.01.064.01.064.008.065.01.064.006.063.008.064.007.064.009.064.007.064.008.064.007.065.008.064.008.063.009.064.009.064.008.064.008.064.008.064.007.064.007.065.008.064.008.064.009.063.008.064.008.064.008.064.008.064.008.065.008.064.005.064.006.063.005.064.005.064.005.064.007.064.006.064.005.065.006.064.005.063.005.065.006.064.006.063.005.064.006.064.005.065.006.064.005.064.006.064.005.064.006.063.005.064.005.064.004.064.004.065.004.064.003.064.004.064.003.063.004.065.003.063.003.064.003.064.005.065.002.064.003.064.005.064.002.064.003.063.002.064.003h.064l.065.003.064.003.064.002.064.003.064.002.063.002.065.002.063.002.064.002.065.002.064.001h.064l.064.002.064.001.064.001h.063l.064.001h.065l.064.001.064.001h.064l.064.001.064.001h.063l.064.001h.193l.064.001h.192l.064-.002h.063l.065-.002.064-.001.064-.002h.064l.064-.002.064-.001h.064l.063-.002h.064l.065.001h.128l.064-.001h.191l.065-.002h.064l.064-.003.064-.002h.064l.064-.003.064-.002.064-.001.064-.004.064-.003.065-.004.063-.003.064-.004.064-.003.064-.004.064-.003.064-.005.064-.004.063-.004.065-.004.064-.003.064-.003.064-.003.064-.002.064-.003.064-.003.064-.002.064-.003.064-.003.064-.003.064-.003.064-.003.064-.002.064-.007.064-.005.064-.004.065-.005.063-.003.064-.005.064-.004.064-.004.064-.004.064-.003.064-.004.065-.004.063-.003.064-.004.064-.004.064-.004.064-.003.064-.004.064-.004.064-.003.064-.004.065-.003.063-.004.064-.004.064-.003.064-.007.064-.007.064-.006.064-.006.065-.006.063-.005.064-.006.064-.005.064-.006.064-.005.064-.005.064-.005.065-.005.063-.004.065-.005.064-.004.063-.004.064-.005.064-.004.064-.004.064-.004.065-.004.064-.005.064-.002.063-.003.064-.003.064-.004.064-.004.064-.003.065-.003.064-.004.064-.003.063-.003.065-.002.063-.002.064-.002.064-.002.064-.003.065-.002.064-.002h.064l.064-.003.063-.001.064-.002.064-.001h.064l.065-.002.064-.002.064-.001.064-.001.063-.001.064-.002.064-.001h.064l.064-.001h.129l.064-.001h.512l.064.002h.064l.063.002h.064l.064.003.064.001h.065l.064.003h.128l.063.002h.065l.063.002.064.002.065.002.064.003.064.002.064.002.064.003.064.002.063.002.064.004.064.002.065.002.064.002.064.004.064.002.064.005.063.003.064.004.065.004.063.004.065.005.064.004.064.004.064.004.064.004.064.004.064.004.063.004.065.004.064.004.064.005.064.006.064.005.064.005.063.006.064.005.065.006.064.005.064.004.064.005.064.005.064.005.063.005.065.006.064.007.064.005.064.007.064.005.064.006.064.005.064.006.064.006.064.005.063.006.065.005.064.006.064.006.064.007.064.007.064.005.064.008.064.006.064.007.064.006.064.007.064.006.064.005.064.006.064.005.064.005.064.005.065.005.063.005.064.005.064.005.064.006.064.005.064.005.064.005.065.004.063.005.064.004.064.004.064.005.064.004.064.003.064.004.064.003.064.003.064.003.065.003.063.002.064.003.064.002.064.002h.064l.064.003.065.002h.064l.063.002h.385l.064.002h.063l.064.001.064.001h.256l.065-.003h.064l.064-.002h.063l.064-.002.064-.001.064-.001.064-.001.064-.001.065-.001.064-.002.063-.003.064-.002.064-.003.064-.002.064-.002.064-.001.065-.001.064-.001.063-.001.065-.001.063-.001.064-.001.064-.001.064-.002.064-.001.065-.002.064-.002.064-.002.063-.002h.064l.064-.002h.064l.064-.002.065-.002.064-.002h.064l.063-.003.065-.002.063-.002.064-.002.064-.002h.064l.065-.002.064-.002h.064l.064-.002.063-.001h.064l.064-.003.064-.001h.065l.064-.002.064-.001.064-.002h.063l.064-.002.064-.001.064-.002.064-.001.065-.001.064-.001.064-.001.064-.001.064-.001.064-.001.063-.001.064-.001h.065l.064-.001.064-.001h.064l.064-.001h.064l.063-.002h.128l.065-.001h.064l.064-.001h.064l.064-.001.064-.002H382.15l.064.002h.256l.063-.002h.257l.064-.002.064.002h.127l.064.002h.129l.064-.002H383.942l.064.002h.257l.063-.002h.256l.064.002h.063l.066.002h.063l.064.003h.128l.064.002h.192l.064.002h.192l.064.002h.192l.065.002h.255l.064.002.064.001.064.002h.064l.065.003.063.002h.064l.064.003.064.002h.064l.064.003.064.002.065.002.063.002.065.001.063.001.064.001.064.002.064.001.064.002.064.002.065.002h.064l.063.002.064.001.064.002.064.002h.064l.064.003h.064l.065.002.063.003.064.002.064.003.064.002.064.003.064.002.064.002.065.003.064.002h.064l.063.003.064.002.064.002.064.002.064.002.064.002h.065l.064.002.063.003.064.002h.064l.064.003.064.002.064.002.065.002.064.002.063.002.065.002.064.002.063.002.064.003.064.002.064.003.065.002.064.004h.064l.064.003h.063l.064.002.064.002h.064l.065.003h.064l.064.002h.063l.064.003h.065l.063.002.064.002.064.002.065.002.064.002.064.002.064.002.064.002.063.001.064.002.064.002.065.002.064.002.064.002.064.002.064.002.063.001.065.001.063.001.064.001.065.001.064.001.064.001.064.001.064.002.064.001.063.001.064.001.064.002.065.001.064.002.064.002.064.002.064.001.063.002.064.002h.064l.065.003h.064l.064.002h.383l.065.002h.128l.064.002h.128l.063.001h.577l.064-.001.064-.002.064-.002.064-.002.064-.001.064-.002.064-.002.064-.002h.064l.063-.003h.065l.064-.002.064-.002.064-.001.064-.003.064-.002.063-.002.064-.002.065-.002.064-.002.064-.002.064-.002.064-.002.064-.002.064-.003.064-.002.064-.004.064-.003.064-.003.064-.003.064-.003.064-.004.064-.003.064-.003.064-.004.065-.004.063-.003.064-.004.064-.003.064-.003.064-.002.064-.004.064-.004.064-.003.064-.003.064-.004.064-.003.064-.003.064-.004.064-.003.064-.004.064-.003.064-.003.065-.003.063-.003.064-.003.064-.003.064-.003.064-.003.064-.004.064-.003.065-.002.063-.005.064-.003.064-.003.064-.004.064-.002.064-.003.064-.004.064-.003.064-.003.065-.003.064-.003.063-.002.064-.003.064-.003.064-.002.064-.003.065-.003.064-.002.064-.002.063-.003.064-.002.064-.002.064-.003.064-.002.064-.004.065-.001.064-.003.063-.003.065-.003.063-.003.064-.002.064-.003.064-.002.065-.002.064-.003.064-.002.064-.002.063-.001.064-.002.064-.002.064-.002.064-.001.065-.002.064-.002.064-.002.063-.002.064-.002.064-.002.064-.001.064-.002.065-.002h.064l.064-.001.064-.002.064-.002.063-.002h.064l.064-.003h.064l.065-.002.064-.002h.064l.064-.001.063-.002.064-.002.064-.002h.064l.064-.002h.065l.064-.002h.127l.065-.003.063-.002h.064l.064-.003h.065l.064-.002h.128l.064-.002h.063l.064-.002h.064l.064-.001h.32l.064-.002H405.832l.064.001h.127l.065.002h.064l.064.002.064.002.064.001.064.002.064.002.064.002.064.001.063.001.065.001.064.002.064.002.064.004.064.002.064.003.064.002.063.003.065.002.064.004.064.002.064.003.064.003.064.003.064.003.064.004.064.004.064.004.064.004.064.005.064.004.064.004.064.004.064.004.064.004.063.004.065.005.064.002.064.005.064.005.064.005.064.005.064.005.063.005.065.005.064.005.064.006.064.005.064.005.064.005.064.005.064.005.064.004.064.005.065.005.063.005.064.005.064.006.064.005.064.004.064.004.065.003.064.003.063.004.064.004.064.004.064.004.064.005.064.005.064.005.065.004.063.003.064.003.064.003.064.003.064.003.064.002.064.003.065.002.064.002.064.002.063.001.064.002h.321l.064.001h.063l.064.001h.064l.064.001h.32l.065-.002.063-.002.064-.001h.064l.064-.002.064-.001.065-.002h.064l.064-.003.063-.002.064-.002.064-.002.064-.003.064-.003.064-.002.065-.003.064-.002.063-.002.065-.002.063-.001.064-.002.064-.002.064-.003.065-.002.064-.002.064-.004.064-.003.063-.003.064-.002.064-.002.064-.002.064-.002h.065l.064-.003h.064l.063-.003.064-.001.065-.002.063-.002.064-.002.065-.002.064-.003.064-.002.064-.003.064-.002.064-.001.063-.002.064-.002.064-.003.065-.002.064-.002.064-.001.064-.003.064-.002.063-.001.064-.002.064-.002h.065l.064-.001.064-.001.064-.003h.064l.064-.002.064-.002h.063l.064-.003.065-.002h.064l.064-.002h.064l.064-.003h.127l.064-.002.064-.002h.065l.064-.002h.192l.063-.002h.321l.064-.002.064-.001h.128l.063-.002h.321l.064.001H419.272l.066.001h.255l.064-.002h.064l.063.001h.066l.063.001.064.001h.128l.064.001.064.002.063.001.065.001h.192l.064-.001h.128l.064-.002h.193l.063.001.064.001h.128l.064.001h.128l.065.001h.063l.064.001h.064l.064.001h.064l.064.001.064.001.064.002.064.001h.256l.064.001h.448l.064.002.064.001.064.002.064.001.065.002.063.002.064.002h.128l.064.002.064.001.064.002.064.002h.065l.064.003.063.002h.064l.064.002h.257l.064.002.063.002h.128l.064.003.064.002h.064l.064.003.065.002.063.003.065.002.064.002.063.002.064.001.064.002.064.002.065.001.064.002.064.002.064.002.063.002.064.002.064.002.064.001.064.002.065.001.064.001.064.001.063.003.065.001.063.002.064.002.064.002.065.002.064.002.064.003.064.002.064.003.063.002h.064l.064.003.064.002.065.002h.064l.064.002.064.002h.063l.065.002h.063l.064.002.065.001h.064l.064.002.064.002.064.001.064.002.063.002.064.002.064.001.065.002.064.002.064.002.064.003.064.002.063.002.064.001.064.001.064.002.065.002.064.002h.064l.064.001h.064l.064.001h.127l.065.001.064.002.064.001.064.002.064.004.064.002h.063l.064.003.064.002h.065l.064.002.064.001.064.002h.064l.063.002h.065l.064.002h.063l.065.002h.128l.064.002h.128l.064-.001h.063l.065-.001h.128l.064.002h.064l.064.002h.064l.063.001h.193l.064-.001.064-.001.064-.001.064-.002.064-.001.064-.001.064-.001.064-.001.064-.002.064-.002.064-.001.064-.001.064-.002.064-.002.063-.001.065-.003h.064l.064-.002.064-.002.064-.002h.064l.064-.003h.064l.064-.003.064-.003.064-.003.064-.004.064-.003.064-.004.064-.004.064-.003.064-.003.065-.003.064-.003.063-.003.064-.003.064-.003.064-.002.064-.003.064-.003.065-.003.063-.003.064-.002.064-.003.064-.004.064-.004.064-.003.064-.004.064-.004.064-.004.065-.003.064-.004.063-.003.064-.005.064-.004.064-.003.064-.003.064-.003.065-.004.064-.003.063-.003.064-.003.064-.002.064-.002.064-.003.064-.004.065-.002.064-.003.063-.004.065-.003.063-.003.064-.003.064-.003.064-.003.064-.003.065-.003.064-.002.064-.003.063-.003.064-.004.064-.003.064-.003.064-.003.065-.002.064-.003.064-.003.063-.002.064-.002.064-.002.064-.003.064-.002.064-.005.065-.003.064-.002.064-.003.064-.003.063-.001.064-.004.064-.002h.064l.065-.003.064-.002.064-.002.064-.002.063-.002.064-.002.064-.002.064-.002.064-.001.065-.002.064-.001.064-.001.063-.001.065-.002.063-.001.064-.002.064-.002.064-.003.065-.002.064-.001.064-.002h.064l.063-.002h.064l.064-.003h.064l.065-.002.064-.002.064-.002h.064l.063-.001.064-.002.065-.002h.063l.064-.003h.065l.064-.003.064-.002h.064l.064-.002h.064l.063-.002h.129l.064-.002h.064l.064-.002h.191l.065-.002h.384l.064-.002h.064l.063-.001h.193l.064-.002h.512l.064.001.064.001.064.002.064.001.064.001.063.001.065.001.064.002.064.001.064.001.064.002.064.002.064.002.063.002.065.002.064.003.064.002h.064l.064.003.064.002.064.002.063.003.065.004.064.003.064.004.064.003.064.004.064.003.064.004.064.004.064.004.064.003.065.004.063.003.064.004.064.004.064.005.064.004.064.005.063.005.066.004.063.005.064.005.064.005.064.005.064.004.064.005.064.004.065.005.063.005.064.005.064.005.064.006.064.005.064.006.064.005.064.005.065.005.064.004.063.004.064.004.064.004.064.004.064.004.064.004.064.005.065.005.063.004.064.005.064.003.064.004.064.003.064.004.064.003.065.003.063.004.065.004.063.003.064.004.064.003.064.003.064.002.064.002.065.002.064.001.063.001.064.002.064.001.064.001.064.001.064.001h.192l.065-.002h.255l.064-.002h.065l.064-.001.064-.002h.063l.064-.003h.064l.064-.003.064-.002.065-.002.064-.002.064-.002.063-.002.064-.001h.065l.063-.002.064-.002.064-.001.065-.002.064-.003.064-.003.064-.003.064-.003.063-.002.064-.003.064-.002.064-.003.065-.002.064-.002.064-.004.064-.001.063-.004.064-.002.064-.002.064-.002.065-.002.064-.002h.064l.064-.003.064-.001.064-.002.063-.002.064-.001.064-.002.065-.003.064-.003.064-.003.064-.002.064-.002.063-.002.064-.003.064-.002.065-.002.064-.002.064-.002.064-.001.064-.001.063-.002.065-.002.063-.002.064-.002.065-.002.064-.003h.064l.064-.002h.191l.064-.002h.065l.064-.003h.064l.064-.002.064-.002h.127l.064-.002h.321l.064-.002h.064l.064-.002h.192l.064-.002h.319l.064-.001h.129l.064-.002.064.001h.128l.063.001h.065l.064.001.064.001.064.001.064.001.064.001h.256l.065-.002h.383l.064.001h.064l.064.001h.32l.064.001h.193l.063.002h.449l.063-.002h.256l.064.002h.064l.065.001h.063l.064.001.064.001.064.002H459.084l.064.002h.064l.064.001.064.002h.128l.064.002h.128l.064.002h.064l.064.003h.065l.063.002h.065l.064.003.063.002.064.002h.064l.064.003h.129l.064.002h.191l.064.002h.064l.064.003.065.001h.064l.064.003h.063l.065.003.063.002h.064l.064.003.064.001.065.002.064.002.064.002.064.002.063.002.064.002.064.003.064.002.065.001.064.002.064.002.064.001.063.002.065.001.063.001.064.002.064.001.065.001.064.003.064.002h.064l.064.003.063.004.064.002.064.002.065.003.064.002h.064l.064.002h.064l.063.002.064.002.064.002.064.001.065.002.064.002.064.002.064.002.064.001.064.002.063.001h.064l.064.002.065.001.064.002.064.001.064.002.064.002.063.002.064.002.064.002.065.002.064.002.064.001.064.002h.064l.063.001.065.002h.064l.063.001.065.002.064.002.064.002.064.001.064.002h.064l.064.002.063.002h.065l.064.001.064.002h.064l.064.003.064.002.064.002h.063l.065.004h.064l.064.002h.064l.064.003h.256l.063.002h.193l.064.002h.448l.064.002h.512l.064-.001h.064l.064-.002.064-.002.064-.001.065-.001.063-.001.064-.001.064-.001.064-.001.064-.001.064-.002.064-.002.063-.002.065-.002.064-.002.064-.002.064-.003.064-.002.064-.003.064-.002.064-.004.064-.003.065-.003.064-.003.063-.002.064-.003.064-.002.064-.003.064-.003.064-.002.065-.004.064-.004.063-.004.064-.002.064-.002.064-.003.064-.002.064-.002.064-.003.065-.003.063-.004.065-.005.063-.004.064-.005.064-.004.064-.004.064-.004.065-.003.064-.004.064-.004.063-.003.064-.004.064-.003.064-.002.064-.003.064-.004.065-.003.064-.004.063-.003.064-.003.064-.003.064-.003.064-.002.064-.003.065-.004.064-.003.064-.003.064-.002.063-.004.064-.003.064-.003.064-.004.064-.003.065-.003.064-.003.064-.003.063-.003.064-.002.064-.002.064-.003.064-.002.065-.003.064-.002.064-.002.063-.003.065-.002.063-.003.064-.003.064-.002.064-.003.065-.002.064-.002.064-.002.064-.001.063-.004.064-.002.064-.003.064-.002.065-.003.064-.002.064-.002.064-.002.063-.002h.064l.065-.002.063-.002.064-.002.065-.002.064-.003.064-.002.064-.002.064-.002.064-.002.063-.001.064-.002.064-.001.065-.001.064-.001.064-.002.064-.002.064-.002h.063l.065-.003h.063l.065-.002.064-.002h.064l.064-.002h.064l.064-.001.064-.002.063-.002h.129l.064-.001.064-.002h.064l.064-.002h.064l.063-.002.064-.002h.129l.064-.002h.128l.064-.002h.128l.063-.002h.193l.064-.002h.128l.064-.002h.704l.064.001h.064l.064.001.064.001.064.001.064.001.064.001.063.002.066.001.063.002.064.001.064.002.064.002.064.002.064.003.063.002.066.001.063.002.064.002.064.002.064.003.064.004.064.003.064.003.064.003.064.003.064.004.064.003.064.003.064.004.064.004.064.004.064.005.065.004.064.004.063.003.064.004.064.005.064.005.064.005.064.002.064.005.065.004.063.004.064.005.064.005.064.004.064.005.064.005.064.006.064.005.064.005.065.005.063.005.064.004.064.005.064.005.064.005.064.004.065.006.064.005.063.005.064.005.064.005.064.004.064.003.064.005.064.005.065.002.063.003.065.004.063.003.064.005.064.004.064.003.064.003.065.004.064.003.064.003.063.003.064.003.064.003.064.003.064.002.064.003.065.002.064.002.063.001h.064l.065.001.063.001h.064l.064.001.064.001h.257l.063-.002h.064l.064-.003h.129l.064-.002.064-.002h.064l.063-.002h.064l.064-.002h.064l.064-.003.065-.002.064-.002.064-.002.064-.002.064-.002.063-.003.064-.002.064-.002.065-.002.064-.002.064-.003.064-.003.064-.003.063-.002.064-.003.064-.003.064-.002.065-.003.064-.002.064-.002.064-.004.063-.003.065-.002.063-.003.064-.002.065-.002.064-.002.064-.002.064-.002.064-.001.064-.002h.063l.064-.003.064-.002.065-.002.064-.003.064-.003.064-.002.064-.002.063-.003.064-.002.064-.003.064-.002.065-.002.064-.002.064-.002.064-.002.064-.001.064-.001.063-.001.064-.001.065-.002h.064l.064-.002.064-.001.064-.002.064-.002h.063l.064-.002h.065l.064-.002h.064l.064-.002h.128l.063-.002h.065l.064-.002h.064l.064-.002h.32l.064-.002h.128l.064-.002h.128l.064-.002h.256l.064.001.064.002h.064l.064.001h.321l.063.001h.128l.064.001.064.002h.064l.064.001h.256l.064-.002h.384l.064.001h.064l.064.001.064.001h.064l.064.001h.448l.064.002H495.055l.065.002h.255l.064.001.064.002h.193l.063.002h.192l.064.002h.064l.065.002h.127l.065.001.063.002h.064l.064.002h.064l.065.002h.064l.064.002h.064l.063.002h.064l.064.002h.064l.064.003h.065l.064.003.064.002h.063l.065.003h.063l.064.003.064.001h.065l.064.002.064.001h.064l.064.002h.063l.064.003.064.002.064.002.065.002.064.002.064.002.064.002.063.001.064.002.064.002.064.001.064.002.065.002.064.002.064.002.064.002.064.001.063.002.064.002.064.002.065.003.064.002h.064l.064.002h.064l.063.003.064.003.064.002.064.002.065.002.064.002.064.002.064.002h.063l.065.003.064.002h.063l.065.002.064.002.064.002.064.001.064.002.064.001.064.001.063.002.064.001.065.002.064.001.064.001.064.001.064.001.064.001.063.002.065.001.064.002.064.002.064.001.064.002.064.002.064.003h.064l.064.002.063.003.065.002h.064l.064.003.064.002.064.002.064.002h.064l.063.001.065.002h.064l.064.002h.128l.064.002.064.002h.064l.064.002h.064l.064.002.064.001h.064l.064.003.064.002h.128l.063.002h.321l.064.002H504.784l.064-.001h.065l.064-.002h.063l.064-.001h.064l.064-.001h.064l.064-.001h.065l.064-.001.063-.001.064-.001.064-.002.064-.001.064-.002.064-.003.064-.003.065-.003.063-.002.065-.002.063-.002.064-.003.064-.002.064-.003.064-.002.064-.004.065-.003.064-.003.063-.003.064-.003.064-.002.064-.003.064-.003.064-.002.065-.003.064-.003.063-.003.064-.004.064-.004.064-.003.064-.004.064-.004.064-.003.065-.004.064-.004.064-.003.063-.005.064-.002.064-.005.064-.004.064-.003.065-.003.064-.004.064-.003.063-.003.064-.004.064-.003.064-.004.064-.003.064-.003.065-.004.064-.003.063-.002.065-.003.063-.003.064-.004.064-.003.064-.004.065-.003.064-.004.064-.003.064-.005.063-.003.064-.003.064-.003.064-.003.064-.003.065-.002.064-.004.064-.002.063-.003.064-.003.065-.002.063-.003.064-.002.065-.002.064-.001.064-.002.064-.003.064-.004.064-.003.063-.002.064-.003.064-.002.065-.003.064-.002.064-.003.064-.002.064-.002h.063l.065-.002.063-.002.064-.002.065-.002.064-.002.064-.003.064-.002.064-.003.064-.002.063-.002.064-.002.065-.002.064-.002.064-.001.064-.002.064-.001.064-.002.063-.001.064-.002.064-.002.065-.002.064-.001.064-.002.064-.002h.064l.064-.001.064-.002h.063l.064-.002.065-.002.064-.002h.064l.064-.003h.064l.064-.002h.063l.064-.001.065-.002h.128l.064-.002h.128l.063-.002h.065l.062-.002"/><path d="M222.084 146.112h265.689V72.084H222.084z" fill="#fff"/><path stroke-width="1.1997" stroke-linejoin="round" fill="none" stroke="#e5e5e5" d="M223.606 146.112V72.084M289.646 146.112V72.084M355.689 146.112V72.084M421.73 146.112V72.084M487.773 146.112V72.084M487.773 146.112H222.084M487.773 127.304H222.084M487.773 108.495H222.084M487.773 89.687H222.084"/><path stroke-width="1.1997" stroke-linecap="square" stroke-linejoin="round" fill="none" stroke="#323232" d="M222.084 146.112h265.689M222.084 72.084h265.689M223.606 146.112v-2.657M289.646 146.112v-2.657M355.689 146.112v-2.657M421.73 146.112v-2.657M487.773 146.112v-2.657M223.606 72.084v2.657M289.646 72.084v2.657M355.689 72.084v2.657M421.73 72.084v2.657M487.773 72.084v2.657"/><symbol id="h"><path d="M.015.188C.032.07.108 0 .216 0c.079 0 .149.038.191.103a.529.529 0 0 1 .064.29.453.453 0 0 1-.06.263.204.204 0 0 1-.179.09C.097.746 0 .645 0 .505 0 .372.09.278.218.278c.067 0 .117.024.162.079C.379.177.323.078.222.078c-.062 0-.105.04-.119.11H.015m.216.481C.313.669.375.6.375.507.375.418.315.356.228.356.143.356.09.416.09.512c0 .091.059.157.141.157z"/></symbol><use xlink:href="#f" transform="matrix(9.99984 0 0 -9.99984 220.427 160.484)" fill="#323232"/><use xlink:href="#h" transform="matrix(9.99984 0 0 -9.99984 286.48 160.484)" fill="#323232"/><use xlink:href="#g" transform="matrix(9.99984 0 0 -9.99984 350.119 160.254)" fill="#323232"/><use xlink:href="#b" transform="matrix(9.99984 0 0 -9.99984 355.089 160.484)" fill="#323232"/><use xlink:href="#g" transform="matrix(9.99984 0 0 -9.99984 416.16 160.254)" fill="#323232"/><use xlink:href="#g" transform="matrix(9.99984 0 0 -9.99984 421.72 160.254)" fill="#323232"/><use xlink:href="#g" transform="matrix(9.99984 0 0 -9.99984 482.203 160.254)" fill="#323232"/><use xlink:href="#c" transform="matrix(9.99984 0 0 -9.99984 487.083 160.244)" fill="#323232"/><path stroke-width="1.1997" stroke-linecap="square" stroke-linejoin="round" fill="none" stroke="#323232" d="M222.084 146.112V72.084M487.773 146.112V72.084M222.084 146.112h2.656M222.084 127.304h2.656M222.084 108.495h2.656M222.084 89.687h2.656M487.773 146.112h-2.657M487.773 127.304h-2.657M487.773 108.495h-2.657M487.773 89.687h-2.657"/><use xlink:href="#b" transform="matrix(9.99984 0 0 -9.99984 211.416 149.892)" fill="#323232"/><use xlink:href="#c" transform="matrix(9.99984 0 0 -9.99984 211.326 130.843)" fill="#323232"/><use xlink:href="#d" transform="matrix(9.99984 0 0 -9.99984 211.266 112.044)" fill="#323232"/><use xlink:href="#e" transform="matrix(9.99984 0 0 -9.99984 211.416 93.466)" fill="#323232"/><path stroke-width="2.9997000000000003" stroke-linejoin="round" fill="none" stroke="#0072bd" d="m222.052 98.898.044-.019.114-.056.116-.068.115-.069.115-.053.116-.07.114-.07.116-.043.116-.024.114-.016.116-.021.115-.011.115-.029.115-.019.116-.009.115.002.115-.003.116.01.115.014.115.027.116.037.114.03.116.041.115.055.115.072.116.056.115.063.115.069.116.065.114.045.116.021.115.037.115.057.115.075.116.095.115.104.115.114.116.123.115.116.115.109.116.114.114.12.116.131.116.124.114.117.116.123.115.132.115.157.115.169.116.178.115.2.115.191.115.201.116.211.115.218.115.194.115.207.116.196.115.194.115.188.116.19.114.199.116.212.116.229.114.242.116.254.115.267.115.277.115.282.116.26.115.239.115.236.116.225.115.227.115.249.116.279.114.278.116.292.116.301.114.29.116.276.114.277.116.262.116.284.114.305.116.262.115.264.115.274.116.279.115.294.115.324.115.319.116.31.115.31.115.323.116.32.114.335.116.325.116.297.114.27.116.246.115.238.115.245.115.245.115.229.116.234.116.253.114.273.116.269.115.269.115.252.115.237.116.218.114.211.116.198.116.201.114.207.116.203.116.187.114.157.116.159.115.132.115.138.115.138.116.128.115.122.115.104.116.092.115.089.115.068.115.081.115.078.116.046.114.02h.116l.116-.008.114-.01.116.017.115.021.115.04.116.04.115.039.115.03.116.022h.115l.115-.033.115-.051.116-.073.114-.057.116-.058.116-.049.114-.047.116-.05.116-.035.114-.032.116-.073.114-.068.116-.083.115-.127.115-.14.116-.122.115-.099.115-.092.116-.058.115-.04.115-.045.115-.052.116-.043.114-.05.116-.063.116-.06.115-.066.115-.089.115-.088.115-.078.116-.073.115-.072.115-.068.116-.045.114-.035.116-.085.115-.096.115-.075.116-.075.115-.091.115-.091.115-.101.116-.1.115-.077.115-.061.116-.075.114-.061.116-.06.115-.047.115-.048.116-.068.116-.071.114-.065.116-.05.115-.052.115-.062.115-.071.116-.079.114-.059.116-.037.115-.078.116-.05.115-.041.115-.044.115-.061.116-.06.114-.066.116-.052.116-.035.114-.027.116-.035.115-.029.115-.038.116-.027.115-.029.115-.029.115-.032.116-.032.114-.031.116-.031.116-.025.114-.017.116-.021.115-.044.115-.041.116-.02h.23l.116-.007.114-.003.116.016.115-.012.115-.005.115.004.116-.003.115-.008.115.01.116.02.115.017.115.037.116.023.114-.012.116-.011.116-.015.114-.022.116-.008.114-.015.116-.029.116-.025.114-.01.116.037.115.029.115.024.115.025.116.012.115-.016.116-.033.115-.028.115-.018.115-.008.116-.007.114.003.116.014.116.008.114.01.116.011.115.016.115.038.116.041.115.018.115-.011.115-.04.116-.044.115-.043.115-.028.116.034.114.036.116.03.115.043.115.06.116.069.114.066.116.049.116.031.114.029.116.017.115.015.115.026.115.037.116.031.115.026.116.026.115.02.115.024.115.038.116.025.114.039.116.023.116-.001.114-.002.116.028.115.042.115.066.116.064.114.068.116.084.115.085.115.084.116.082.115.08.115.095.115.084.116.081.115.088.115.096.116.074.114.056.116.064.116.063.114.072.116.089.115.08.115.064.115.062.115.067.116.076.116.065.114.069.116.073.115.068.115.07.115.094.116.101.114.119.116.124.116.122.114.117.116.097.116.116.114.132.116.107.115.077.115.085.116.097.115.096.115.095.115.096.116.083.115.074.115.066.116.098.114.11.116.073.114.088.116.105.116.1.115.083.115.095.115.093.115.102.116.103.116.119.114.136.116.123.115.121.115.12.115.115.116.08.115.069.115.062.116.073.114.081.116.065.116.067.114.044.116.057.114.073.116.072.116.067.114.064.116.079.115.089.115.096.116.11.115.108.115.094.115.079.116.089.114.098.116.097.116.095.115.091.115.1.116.094.114.085.116.068.116.064.114.04.116.041.115.036.115.052.115.054.115.064.116.062.115.07.115.052.115.06.116.061.115.079.115.083.116.099.114.099.116.065.115.063.115.068.116.07.116.077.114.063.116.041.115.021.115.029.115.005.116.003.114.007.116-.007.116.052.115.028.115.04.115.044.115.034.116.017.114.013.116-.02.116-.017.114-.002.116.006.115.015.115.027.116.033.115-.016.115-.042.115-.064.116-.084.115-.095.115-.073.116-.086.115-.089.115-.075.115-.073.115-.082.116-.068.114-.066.116-.063.116-.09.114-.105.116-.091.115-.07.115-.1.115-.109.116-.104.115-.093.116-.118.115-.103.115-.103.115-.106.116-.121.114-.125.116-.153.116-.159.114-.169.116-.15.115-.143.115-.176.116-.157.115-.157.115-.171.115-.18.115-.169.116-.169.115-.162.115-.152.116-.144.115-.157.115-.159.115-.165.116-.168.114-.161.116-.166.116-.163.114-.161.116-.18.115-.175.115-.154.116-.132.115-.148.115-.161.116-.148.115-.16.115-.157.115-.138.115-.156.115-.144.116-.163.115-.174.115-.154.116-.16.114-.156.116-.145.116-.132.114-.169.116-.17.115-.157.115-.144.115-.14.116-.118.115-.12.116-.135.115-.143.115-.139.115-.117.116-.111.114-.126.116-.125.116-.115.114-.106.116-.119.115-.117.115-.12.116-.111.114-.13.116-.141.115-.137.115-.117.116-.129.115-.127.115-.124.115-.107.116-.107.115-.111.115-.091.116-.091.114-.094.116-.082.116-.079.114-.081.116-.091.115-.104.115-.096.115-.098.116-.095.115-.09.116-.075.114-.062.116-.051.115-.061.115-.066.115-.066.116-.068.115-.077.115-.073.116-.077.115-.084.115-.068.116-.058.114-.054.116-.055.115-.07.115-.077.116-.074.115-.069.115-.058.116-.038.115-.034.115-.039.115-.046.116-.077.114-.087.116-.089.115-.08.115-.048.116-.045.115-.029.115-.019.116-.039.114-.05.116-.047.116-.03.114-.024.116-.019.115-.012.115-.009.115-.011.116-.027.115-.034.115-.021.116-.008.115.004.115.015.116.002.114-.006.116-.009.114.008.116-.007.116.002.114.003.116.002.116.012.114.004.116.007.115.02.115.038.115.03.116.03.114.044.116.069.116.088.115.09.115.093.116.081.114.077.116.07.116.059.114.066.116.085.115.103.115.119.115.121.116.126.115.132.115.144.115.149.115.126.116.129.115.137.115.143.116.145.115.168.115.177.116.191.114.198.116.21.116.22.114.223.116.195.115.183.115.197.115.2.116.189.114.186.116.192.115.203.116.224.115.232.115.24.115.248.116.245.114.245.116.257.116.286.114.267.116.25.115.234.115.228.116.225.115.214.115.223.115.246.116.258.115.262.115.259.116.249.115.225.115.182.116.158.114.163.116.183.116.177.114.192.116.201.114.23.116.235.115.221.115.203.116.181.115.153.115.145.116.148.115.131.115.113.115.115.116.106.114.096.116.106.116.074.114.057.116.026.116.009.114-.004.116-.002.115.013.115.033.115.004.116.022.115.037.115.035.115.011.116.006.115-.015.115-.018.115-.048.116-.057.114-.059.116-.06.116-.048.114-.064.116-.056.115-.063.115-.078.116-.091.115-.094.115-.112.116-.114.115-.124.115-.127.115-.109.116-.137.114-.119.116-.088.115-.071.115-.089.116-.102.114-.1.116-.095.116-.127.114-.142.116-.146.115-.127.115-.131.116-.106.115-.103.115-.1.116-.09.115-.087.115-.071.115-.077.116-.068.114-.08.116-.094.116-.066.114-.09.116-.137.115-.137.115-.117.116-.112.114-.099.116-.077.116-.09.114-.105.116-.114.115-.109.115-.097.116-.084.115-.11.115-.099.115-.086.116-.089.114-.057.116-.042.116-.052.114-.059.116-.058.115-.08.115-.071.116-.061.115-.061.115-.084.116-.093.115-.07.115-.049.115-.055.115-.066.115-.038.116-.037.115-.059.115-.089.116-.053.115-.03.115-.016.116-.027.114-.02.116-.029.116-.024.114-.021.116-.02.115-.015.115-.008.116-.04.115-.054.115-.032.115-.02.116-.025.114-.027.116-.019.115.007.115.014.116.032.115.02h.115l.116.01.114-.007.116-.003.116.003.114.012.116.006.115-.015.115-.006.115.002.116.018.115.017.115.022.116.019.115.007.115-.015.116-.041.114-.047h.116l.115.025.115.032.116.033.114.023.116.014.116.031.114.047.116.063.115.066.115.045h.115l.116-.008.115-.001.115-.018.116-.045.115-.036.115-.02h.116l.114-.012.116.004.116.032.114.04.116.022.115.003.115.027.115.004.116.025.115.029.115.023.115.021.116.017.115.019.115.029.115.036.116.058.115.077.115.053.116.036.114.002h.116l.116.003.114.017.116.012.115.009.115-.007.115-.003.116-.004.115-.007.115.018.116.084.115.072.115.068.115.085.115.084.116.078.114.05.116.031.116.029.114.051.116.079.116.078.114.074.116.067.115.08.115.093.116.066.115.033.115.025.115.01.116.021.115.035.115.05.116.055.114.031.116.057.116.073.114.089.116.093.115.098.115.099.115.112.115.127.116.092.116.081.114.084.116.089.115.078.115.077.115.095.116.104.114.077.116.094.116.092.114.097.116.084.116.056.114.055.116.062.115.045.115.097.115.097.115.083.116.074.115.094.115.105.116.104.115.129.115.13.115.119.116.094.114.089.116.09.116.101.114.077.116.059.115.065.115.068.116.05.115.054.115.047.116.05.115.055.115.049.115.039.116.088.114.091.116.092.116.089.114.076.116.09.115.09.115.088.116.107.114.115.116.108.115.093.115.072.116.067.115.072.115.083.116.081.115.055.115.017.115.029.116.026.114.011.116.003.116.036.115.056.115.113.115.11.115.11.116.093.114.096.116.089.116.079.114.06.116.055.115.068.115.066.116.053.115.043.115.063.115.057.116.05.115.036.115.036.116.021.114.014.116.011.115-.002.115-.018.116-.028.116-.04.114.023.116.04.115.039.115.051.115.033.115.03.115.033.116.009.115-.004.116-.004.115-.037.115-.063.115-.066.116-.075.114-.066.116-.055.116-.039.114-.06.116-.076.115-.061.115-.072.116-.085.115-.077.115-.084.115-.087.116-.061.114-.064.116-.064.116-.103.114-.078.116-.068.115-.074.115-.089.116-.12.114-.12.116-.145.116-.175.114-.171.116-.186.115-.179.115-.165.115-.154.116-.148.115-.15.115-.147.116-.147.115-.128.115-.124.116-.119.114-.147.116-.147.116-.137.114-.145.116-.145.115-.139.115-.17.116-.194.114-.185.116-.193.115-.19.115-.168.115-.164.116-.186.115-.205.115-.199.116-.184.115-.145.115-.137.116-.17.114-.184.116-.152.116-.13.114-.107.116-.107.115-.119.115-.153.116-.161.114-.156.116-.149.115-.142.115-.145.116-.154.115-.15.115-.153.115-.144.116-.129.115-.126.115-.139.116-.152.114-.168.116-.165.116-.157.114-.13.116-.129.115-.133.115-.115.115-.099.116-.101.115-.113.116-.121.115-.147.115-.164.115-.149.116-.141.114-.139.116-.127.116-.125.114-.107.116-.097.115-.092.115-.09.116-.098.114-.088.116-.094.115-.089.115-.1.116-.107.115-.093.115-.08.115-.075.116-.071.115-.04.115-.06.116-.065.114-.057.116-.101.116-.12.114-.125.116-.099.115-.076.115-.052.115-.03.115-.041.116-.067.116-.066.114-.075.116-.089.115-.066.115-.062.115-.073.116-.071.114-.062.116-.066.116-.065.114-.078.116-.075.116-.077.114-.079.116-.057.115-.036.115-.044.116-.055.115-.054.115-.043.115-.033.115-.032.116-.038.115-.025.115-.021.115-.03.116-.031.114-.01.116-.009.116.003.115.002.115-.021.115-.037.115-.027.116-.027.116-.026.114-.021.116-.021.115-.022.115-.02.115-.015.116-.035.115-.026.115-.013.116.002.114.009.116.021.116.039.114.048.116.059.114.062.116.064.116.063.114.06.116.053.115.062.115.052.116.067.115.082.115.092.115.114.116.114.114.091.116.099.116.084.115.084.115.102.116.105.114.125.116.137.114.156.116.162.116.174.114.17.116.172.115.174.115.18.116.188.115.19.115.176.115.183.116.171.115.192.115.201.116.213.114.219.116.208.115.218.115.226.116.228.116.241.114.242.116.239.115.223.115.223.115.223.115.233.115.247.116.233.115.249.116.264.115.26.115.265.115.281.116.246.114.223.116.208.116.183.114.188.116.198.115.198.115.208.116.218.115.237.115.241.115.217.116.209.115.178.115.148.116.17.115.154.115.14.115.16.115.199.116.196.114.179.116.182.116.162.114.117.116.11.115.099.115.087.115.063.116.069.115.057.116.067.115.064.115.061.115.028.116.002.114-.024.116-.026.116-.044.114-.023.116-.014.115-.018.115-.022.116-.012.114-.017.116-.055.115-.085.115-.078.116-.072.115-.078.115-.079.116-.085.115-.099.115-.103.115-.097.116-.088.114-.065.116-.059.116-.057.114-.072.116-.07.115-.085.115-.134.116-.159.115-.157.115-.133.116-.123.115-.106.115-.105.115-.117.115-.122.115-.135.116-.13.115-.122.115-.124.116-.12.114-.104.116-.083.116-.099.114-.09.116-.082.115-.072.115-.078.115-.074.116-.092.115-.087.116-.086.115-.142.115-.143.115-.136.116-.117.114-.113.116-.103.116-.116.114-.098.116-.082.115-.109.115-.089.116-.073.114-.071.116-.09.115-.09.115-.089.116-.094.115-.097.115-.093.115-.059.116-.035.115-.039.115-.002.116-.014.114-.042.116-.078.116-.077.114-.07.116-.071.115-.064.115-.046.115-.037.115-.023.116-.025.116-.012.114-.021.116.003.115-.013.115-.034.115-.047.116-.059.115-.027.115-.015.116-.022.115-.011.115-.017.116-.006.114-.003.116.01h.115l.115-.035.116-.03.115-.042.115-.017.116.008.115.008.115.004.115.032.116.039.114.042.116.038.115.047.115.052.116.053.115.021.115-.01.116-.02.114-.038.116-.038.116-.035.114-.01.116.017.115-.001.115-.005.115.008.116.045.115.033.115.01.116.011.115-.004.115.002.115.017.115.009.116.017.114.004.116.007.116.016.114.032.116.043.116.017.114.021.116-.002.115-.012.115-.037.115-.036.116-.04.114-.027.116-.002.116-.002.115.022.115.049.116.05.114.048.116.039.116.045.114.052.116.04.114.023.116.008.115-.001.115-.017.116.008.115.012.115-.006.115-.008.116.017.115.038.115.054.116.052.115.051.115.037.116.026.114.04.116.06.116.008.114.045.116.053.115.066.115.062.115.064.116.059.114.076.116.09.115.09.116.073.115.078.115.028.115.035.116.048.114.037.116.016.116.016.114.041.116.06.115.055.115.058.116.066.115.081.115.077.115.073.116.09.115.083.115.083.116.074.115.092.115.086.116.096.114.093.116.108.114.117.116.12.116.095.114.077.116.087.115.076.115.081.116.073.115.059.115.062.116.078.115.069.115.065.115.069.116.087.114.086.116.129.116.124.114.116.116.117.116.123.114.089.116.064.114.055.116.051.115.063.115.088.116.088.115.082.115.092.116.092.115.082.115.085.115.09.116.059.114.048.116.05.116.067.114.076.116.066.115.061.115.086.116.094.115.092.115.101.116.115.115.109.115.092.115.072.116.052.114.026.116.042.115.052.115.058.116.062.114.081.116.1.116.088.114.068.116.062.115.05.115.055.116.054.115.046.115.067.116.039.115.084.115.08.115.084.116.088.114.09.116.105.115.081.115.058.116.056.115.06.115.042.116.006.114.012.116.009.116.032.114.02.116.03.115.036.115.047.116.03.115-.009.115-.029.115-.017.116.015.114.006.116.048.116.021.114.013.116.01.115.016.115.006.116.002.115.012.115-.014.116-.039.114-.03.116-.036.115-.069.115-.084.115-.067.116-.055.115-.059.115-.054.116-.036.115-.037.115-.068.116-.085.114-.084.116-.095.116-.117.114-.088.116-.099.115-.109.115-.114.116-.134.115-.159.115-.159.115-.142.116-.134.114-.129.116-.131.115-.125.115-.122.116-.129.115-.134.115-.145.116-.181.114-.192.116-.172.116-.135.114-.11.116-.102.115-.101.115-.12.115-.142.116-.172.115-.194.115-.212.116-.217.115-.203.115-.197.115-.19.115-.174.116-.183.115-.196.115-.191.116-.169.114-.157.116-.146.116-.137.114-.144.116-.168.115-.181.115-.167.115-.143.116-.152.115-.158.115-.134.116-.135.115-.12.115-.151.116-.159.114-.156.116-.138.116-.147.114-.158.116-.151.115-.167.115-.161.116-.161.115-.154.115-.149.115-.117.115-.112.116-.113.115-.116.115-.129.115-.113.116-.111.115-.113.115-.132.116-.127.114-.131.116-.132.116-.108.114-.123.116-.109.115-.09.115-.075.115-.097.116-.142.115-.134.116-.127.114-.121.116-.122.115-.116.115-.099.115-.088.116-.071.114-.065.116-.068.116-.076.114-.101.116-.122.116-.123.114-.117.116-.113.115-.08.115-.074.116-.069.115-.079.115-.064.115-.057.116-.067.115-.073.115-.076.116-.067.114-.069.116-.082.114-.067.116-.067.116-.062.114-.054.116-.049.115-.051.115-.066.116-.064.116-.055.114-.042.116-.04.115-.045.115-.049.115-.055.116-.049.114-.051.116-.057.116-.049.114-.041.116-.03.116-.037.114-.036.116-.043.115-.045.115-.032.115-.017.115-.017.116-.018.115-.019.115-.021.116-.041.115-.042.115-.04.115-.035.116-.007.114.005.116-.003.116-.002.114-.019.116-.007.115.002.115-.013.116.003.115.013.115.028.116.027.115.039.115.051.115.049.116.04.115.043.115.055.115.067.115.086.116.081.115.07.115.082.116.091.114.09.116.093.115.111.115.107.116.089.115.1.115.11.116.126.115.146.115.151.115.15.116.16.114.165.116.161.116.168.115.167.115.186.115.198.115.209.116.213.114.205.116.182.116.18.114.206.116.225.115.225.115.203.116.188.115.188.115.191.115.218.116.223.115.228.115.238.116.246.114.25.116.251.115.248.115.233.116.239.116.226.114.235.116.23.115.24.115.237.115.231.115.255.115.246.116.251.115.251.116.239.115.202.115.183.115.21.116.201.114.162.116.157.116.158.114.189.116.19.115.172.115.16.116.166.115.175.115.151.115.155.115.15.115.141.116.146.115.14.115.128.116.134.115.093.115.09.116.058.114.03.116.026.116.03.114.041.116.042.115.017.115.025.115.004.116-.007.115-.039.115-.061.116-.064.115-.07.115-.038.116-.039.114-.05.116-.066.116-.06.114-.055.116-.051.114-.062.116-.055.116-.064.114-.101.116-.094.115-.112.115-.102.115-.124.116-.119.115-.097.116-.103.115-.092.115-.094.115-.154.116-.155.114-.134.116-.137.116-.139.114-.132.116-.125.115-.112.115-.113.116-.125.114-.136.116-.137.115-.122.115-.116.116-.098.115-.102.115-.1.115-.106.116-.092.115-.073.115-.067.116-.068.114-.072.116-.108.116-.11.114-.15.116-.125.115-.106.115-.127.115-.128.116-.126.115-.126.116-.099.115-.097.115-.107.115-.097.115-.076.115-.063.116-.054.114-.044.116-.064.116-.057.115-.052.115-.076.116-.069.114-.063.116-.064.115-.049.115-.057.116-.047.115-.043.115-.035.115-.049.116-.045.115-.039.115-.042.116-.052.114-.045.116-.041.116-.04.114-.034.116-.013.115-.004.115-.01.115-.007.115-.022.116-.038.116-.043.114-.043.116-.034.115-.025.115-.035.115-.029.116-.016.115.015.115.044.116.05.114.062.116.045.116.023.114.026.116.001.115-.007.115.005.116-.003.115.014.115.016.115.017.115.034.116.047.115.055.115.045.115.021.116-.005.114-.03.116-.027.116-.034.115-.025.115-.02.115-.037.115.018.116.022.116.023.114.03.116.037.115.03.115.035.115.023.116.014.115.003.115-.004.115-.013.115-.01.116.005.115.028.115.035.116.052.114.024.116.013.116.007.114.005.116-.014.116-.007.114-.023.116-.012.115.025.115.002.115.016.116.02.114.02.116.017.116.025.115.033.115.028.116.028.114.043.116.04.114.005.116.009.116.002.114.011.116.03.115.052.115.061.116.045.115.036.115.039.115.041.116.046.115.048.115.062.116.056.114.054.116.04.115.039.115.04.116.037.116.043.114.066.116.075.115.075.115.071.115.081.115.087.115.071.116.072.115.075.116.072.115.065.115.059.115.049.116.046.114.049.116.046.116.047.114.107.116.121.115.093.115.098.116.097.115.092.115.082.115.077.116.079.115.087.115.076.115.083.116.091.115.095.115.107.115.082.116.073.114.09.116.101.116.102.114.098.116.078.115.062.115.058.116.058.115.104.115.123.116.109.115.096.115.094.115.095.116.099.114.101.116.081.116.079.114.074.116.071.115.064.115.073.116.096.114.082.116.058.115.054.115.067.116.082.115.073.115.074.116.067.115.047.115.039.115.067.116.056.114.065.116.087.116.089.114.077.116.085.115.089.115.084.116.087.114.085.116.084.116.097.114.082.116.08.115.093.115.102.115.088.116.078.115.061.115.064.116.044.114.034.116.047.116.03.114.055.116.052.115.061.115.049.115.048.116.048.115.056.116.059.115.063.115.089.115.073.116.044.114.029.116.029.114.035.116.018.116.007.115.01.115.019.116.016.114.019.116.014.115-.002h.115l.116-.006.115.02.115.023.115.019.116-.022.115-.052.115-.053.116-.039.114-.049.116-.026.116-.014.114-.021.116-.026.115-.031.115-.017.115-.035.115-.05.116-.054.116-.054.114-.057.116-.076.115-.089.115-.134.115-.159.116-.134.115-.125.115-.092.116-.086.115-.108.115-.132.116-.132.114-.141.116-.146.115-.147.115-.139.116-.147.115-.135.115-.139.116-.129.114-.129.116-.135.115-.14.115-.136.115-.163.116-.188.115-.189.115-.171.116-.172.115-.188.115-.172.116-.161.114-.189.116-.197.116-.181.114-.169.116-.181.115-.178.115-.162.115-.159.116-.181.115-.166.115-.156.116-.158.115-.179.115-.175.115-.165.115-.16.116-.172.114-.146.116-.122.116-.129.114-.152.116-.18.116-.168.114-.158.116-.158.115-.171.115-.198.115-.194.116-.169.114-.146.116-.148.116-.143.115-.132.115-.134.116-.155.114-.14.116-.131.116-.129.114-.125.116-.124.114-.113.116-.082.115-.077.115-.108.116-.137.115-.144.115-.137.115-.129.116-.111.115-.13.115-.138.116-.12.115-.117.115-.101.116-.082.114-.07.116-.049.116-.077.114-.096.116-.1.115-.125.115-.129.115-.122.115-.137.115-.119.116-.094.115-.099.116-.098.115-.071.115-.068.115-.067.116-.073.114-.076.116-.085.116-.095.114-.101.116-.082.115-.075.115-.071.116-.064.115-.042.115-.049.115-.046.116-.06.115-.069.115-.072.116-.081.115-.074.115-.083.116-.066.114-.048.116-.043.114-.038.116-.04.116-.037.114-.023.116-.043.115-.038.115-.032.116-.028.115-.068.049-.023"/><path stroke-width="1.1997" stroke-dasharray="1.01408,3.04224" stroke-linejoin="bevel" fill="none" stroke="#000" d="M366.387 377.63 222.388 145.879M513.936 377.63l-25.859-231.751"/><path stroke-width="1.1997" stroke-miterlimit="10" fill="none" stroke="#000" d="M366.387 379.148h147.55v-1.518h-147.55z"/></svg>