<svg xmlns="http://www.w3.org/2000/svg" width="854pt" height="602pt" viewBox="0 0 854 602"><g data-name="Document"><clipPath id="a"><path transform="matrix(.1 0 0 -.1 0 602)" d="M0 0h8537.64v6013.44H0z"/></clipPath><g clip-path="url(#a)"><path stroke-width="80" stroke-miterlimit="10" fill="none" stroke="#231f20" d="M843.963 299.294H360.392M273.406 596.932V386.281M186.243 301.813l-186.028-1M273.406 1.656v210.652M690.234 304.357v297.138"/><path stroke-width="60" stroke-miterlimit="10" fill="none" stroke="#231f20" d="M371.972 298.524c0 54.609-44.269 98.878-98.877 98.878s-98.877-44.269-98.877-98.878c0-54.608 44.269-98.877 98.877-98.877s98.877 44.269 98.877 98.877z"/><path stroke-width="2" stroke-miterlimit="10" fill="none" stroke="#fff" d="m649.331 298.723-246.96-.445M272.979 595.932l.231-172.196M149.1 298.089l-147.868-.795M273.095.656v168.525M690.369 340.703l.165 258.76"/><path stroke-width="1" stroke-dasharray="8,8" stroke-miterlimit="10" fill="none" stroke="#fff" d="M710.412 340.889v259.52M671.223 344.131v253.035"/><path stroke-width="5" stroke-miterlimit="10" fill="none" stroke="#fff" d="m204.523 298.865-57.352-.681M274 169.495h-40.98M147.348 338.542v-40.981M272.755 425.938l.709-59.72M272.709 232.866l.771-64.93"/><path stroke-width="2" stroke-miterlimit="10" fill="none" stroke="#fff" d="m853.752 297.812-120.569 1.475"/><path stroke-width="1" stroke-dasharray="8.037840000000001,8.037840000000001" stroke-miterlimit="10" fill="none" stroke="#fff" d="M360.531 298.524c0 48.042-38.945 86.987-86.986 86.987-48.042 0-86.986-38.945-86.986-86.987 0-48.041 38.944-86.986 86.986-86.986 48.041 0 86.986 38.945 86.986 86.986z"/><path stroke-width="1" stroke-dasharray="8.070680000000001,8.070680000000001" stroke-miterlimit="10" fill="none" stroke="#fff" d="M381.437 298.524c0 59.588-48.305 107.893-107.892 107.893-59.588 0-107.893-48.305-107.893-107.893 0-59.587 48.305-107.892 107.893-107.892 59.587 0 107.892 48.305 107.892 107.892z"/><path stroke-width="1" stroke-dasharray="8,8" stroke-miterlimit="10" fill="none" stroke="#fff" d="M848.608 316.655H401.436M147.348 317.041.121 316.249M843.963 280.832l-445.86-2.035M150.048 279.197l-148.816-.8M292.334.996v172.496M254.476.656v174.132M292.334 423.736V600.67M254.476 423.386V602"/><path stroke-width="5" stroke-miterlimit="10" fill="none" stroke="#fff" d="M315.343 426.229h-40.981"/><path stroke-width="1" stroke-dasharray="8,8" stroke-miterlimit="10" fill="none" stroke="#fff" d="M648.928 279.949c16.004 0 31.392 6.077 42.865 16.927 11.898 11.253 18.619 26.725 18.619 42.866"/><path d="M239.049 328.128h-26.775v-59.771h26.775v59.771" fill="#606161"/><path d="M231.288 297.896a5.627 5.627 0 1 1-11.254-.002 5.627 5.627 0 0 1 11.254.002" fill="#fff200"/><path d="M231.288 315.62a5.627 5.627 0 1 1-11.253-.003 5.627 5.627 0 0 1 11.253.003" fill="#00a650"/><path d="M231.288 280.172a5.626 5.626 0 1 1-11.252 0 5.626 5.626 0 0 1 11.252 0" fill="#ed1c24"/><path d="M147.348 406.417h-26.775v-59.771h26.775v59.771" fill="#606161"/><path d="M139.586 376.185a5.625 5.625 0 1 1-5.625-5.626 5.626 5.626 0 0 1 5.625 5.626" fill="#fff200"/><path d="M139.586 393.909a5.626 5.626 0 1 1-11.252 0 5.626 5.626 0 0 1 11.252 0" fill="#00a650"/><path d="M139.586 358.461a5.626 5.626 0 1 1-11.25 0 5.626 5.626 0 0 1 11.25 0" fill="#ed1c24"/><path d="M225.662 170.82h-26.775v-59.771h26.775v59.771" fill="#606161"/><path d="M217.9 140.588a5.626 5.626 0 1 1-11.252 0 5.626 5.626 0 0 1 11.252 0" fill="#fff200"/><path d="M217.9 158.311a5.626 5.626 0 1 1-11.252 0 5.626 5.626 0 0 1 11.252 0" fill="#00a650"/><path d="M217.9 122.865a5.625 5.625 0 0 1-5.626 5.625 5.625 5.625 0 1 1 0-11.251 5.626 5.626 0 0 1 5.626 5.626" fill="#ed1c24"/><path d="M352.247 483.158h-26.775v-59.772h26.775v59.772" fill="#606161"/><path d="M344.486 452.925a5.626 5.626 0 1 1-11.251 0 5.626 5.626 0 0 1 11.251 0" fill="#fff200"/><path d="M344.486 470.649a5.627 5.627 0 1 1-11.254-.002 5.627 5.627 0 0 1 11.254.002" fill="#00a650"/><path d="M344.486 435.202a5.626 5.626 0 1 1-11.252 0 5.626 5.626 0 0 1 11.252 0" fill="#ed1c24"/><path stroke-width="5" stroke-miterlimit="10" fill="none" stroke="#fff" d="M730.589 342.583h-40.355"/><path d="M746.571 252.193h-26.775v-59.771h26.775v59.771" fill="#606161"/><path d="M738.809 221.961a5.626 5.626 0 1 1-11.251 0 5.626 5.626 0 0 1 11.251 0" fill="#fff200"/><path d="M738.809 239.684a5.626 5.626 0 1 1-11.251 0 5.626 5.626 0 0 1 11.251 0" fill="#00a650"/><path d="M738.809 204.238a5.626 5.626 0 1 1-11.251 0 5.626 5.626 0 0 1 11.251 0" fill="#ed1c24"/><path d="M765.585 406.417h-26.776v-59.771h26.776v59.771" fill="#606161"/><path d="M757.822 376.185a5.625 5.625 0 1 1-5.625-5.626 5.626 5.626 0 0 1 5.625 5.626" fill="#fff200"/><path d="M757.822 393.909a5.626 5.626 0 1 1-11.252 0 5.626 5.626 0 0 1 11.252 0" fill="#00a650"/><path d="M757.822 358.461a5.626 5.626 0 1 1-11.25 0 5.626 5.626 0 0 1 11.25 0" fill="#ed1c24"/><path stroke-width="5" stroke-miterlimit="10" fill="none" stroke="#fff" d="M647 339.043v-40.98"/><path d="M642 406.417h-26.776v-59.771H642v59.771" fill="#606161"/><path d="M634.238 376.185a5.626 5.626 0 1 1-11.251 0 5.626 5.626 0 0 1 11.251 0" fill="#fff200"/><path d="M634.238 393.909a5.626 5.626 0 1 1-11.252 0 5.626 5.626 0 0 1 11.252 0" fill="#00a650"/><path d="M634.238 358.461a5.626 5.626 0 1 1-11.252 0 5.626 5.626 0 0 1 11.252 0" fill="#ed1c24"/><path d="M286.482 293.078h-26.775v-59.771h26.775v59.771" fill="#606161"/><path d="M278.721 262.846a5.626 5.626 0 1 1-11.252 0 5.626 5.626 0 0 1 11.252 0" fill="#fff200"/><path d="M278.721 280.57a5.625 5.625 0 0 1-5.626 5.625 5.625 5.625 0 1 1 0-11.251 5.626 5.626 0 0 1 5.626 5.626" fill="#00a650"/><path d="M278.721 245.123a5.625 5.625 0 0 1-5.626 5.625 5.625 5.625 0 1 1 0-11.251 5.626 5.626 0 0 1 5.626 5.626" fill="#ed1c24"/><path d="M286.482 360.717h-26.775v-59.77h26.775v59.77" fill="#606161"/><path d="M278.721 330.486a5.627 5.627 0 1 1-11.254-.002 5.627 5.627 0 0 1 11.254.002" fill="#fff200"/><path d="M278.721 348.209a5.625 5.625 0 0 1-5.626 5.625 5.625 5.625 0 1 1 0-11.251 5.626 5.626 0 0 1 5.626 5.626" fill="#00a650"/><path d="M278.721 312.762a5.626 5.626 0 1 1-11.251 0 5.626 5.626 0 0 1 11.251 0" fill="#ed1c24"/><path d="m409.96 252.193-8.627-14.943-8.628-14.942h34.51l-8.628 14.942-8.627 14.943" fill="#fff"/><path stroke-width="6" stroke-linecap="round" stroke-linejoin="round" fill="none" stroke="#ed1c24" d="m409.96 252.193-8.627-14.943-8.628-14.942h34.51l-8.628 14.942-8.627 14.943z"/><path stroke-width="5" stroke-miterlimit="10" fill="none" stroke="#fff" d="M733.183 299.288v-40.981"/></g></g></svg>