<?xml version="1.0" standalone="no"?>
<!DOCTYPE svg PUBLIC "-//W3C//DTD SVG 20010904//EN"
 "http://www.w3.org/TR/2001/REC-SVG-20010904/DTD/svg10.dtd">
<svg version="1.0" xmlns="http://www.w3.org/2000/svg"
 width="500.000000pt" height="500.000000pt" viewBox="0 0 500.000000 500.000000"
 preserveAspectRatio="xMidYMid meet">
<metadata>
Created by potrace 1.11, written by Peter Selinger 2001-2013
</metadata>
<g transform="translate(0.000000,500.000000) scale(0.100000,-0.100000)"
fill="#000000" stroke="none">
<path d="M1035 4984 c-476 -84 -867 -439 -992 -899 -42 -157 -42 -148 -40
-1615 2 -773 6 -1418 10 -1435 54 -215 78 -280 152 -409 120 -212 309 -389
530 -499 64 -31 168 -72 212 -82 10 -3 36 -9 58 -14 22 -5 56 -13 75 -17 19
-5 665 -9 1435 -11 1499 -2 1447 -4 1633 47 43 12 119 41 171 66 342 161 584
453 684 822 l32 117 0 1415 c0 778 -3 1440 -7 1470 -23 178 -116 401 -231 555
-193 261 -465 427 -802 493 -16 3 -662 7 -1435 8 -1176 2 -1418 0 -1485 -12z"/>
</g>
</svg>
